M48
; DRILL file {KiCad (6.0.6-1)-1} date Wednesday, July 06, 2022 at 12:40:31 PM
; FORMAT={-:-/ absolute / metric / decimal}
; #@! TF.CreationDate,2022-07-06T12:40:31-04:00
; #@! TF.GenerationSoftware,Kicad,Pcbnew,(6.0.6-1)-1
; #@! TF.FileFunction,Plated,1,2,PTH
FMAT,2
METRIC
; #@! TA.AperFunction,Plated,PTH,ViaDrill
T1C0.400
; #@! TA.AperFunction,Plated,PTH,ComponentDrill
T2C0.400
; #@! TA.AperFunction,Plated,PTH,ComponentDrill
T3C0.600
; #@! TA.AperFunction,Plated,PTH,ComponentDrill
T4C0.700
; #@! TA.AperFunction,Plated,PTH,ComponentDrill
T5C0.750
; #@! TA.AperFunction,Plated,PTH,ComponentDrill
T6C0.800
; #@! TA.AperFunction,Plated,PTH,ComponentDrill
T7C1.000
; #@! TA.AperFunction,Plated,PTH,ComponentDrill
T8C1.100
; #@! TA.AperFunction,Plated,PTH,ComponentDrill
T9C1.170
; #@! TA.AperFunction,Plated,PTH,ComponentDrill
T10C1.300
; #@! TA.AperFunction,Plated,PTH,ComponentDrill
T11C1.350
; #@! TA.AperFunction,Plated,PTH,ComponentDrill
T12C2.200
%
G90
G05
T1
X65.024Y-83.566
X65.278Y-103.632
X66.802Y-97.028
X67.31Y-91.44
X67.564Y-99.314
X68.834Y-122.682
X70.104Y-99.314
X70.866Y-89.916
X72.136Y-88.138
X72.136Y-91.186
X73.66Y-84.328
X77.216Y-74.168
X77.216Y-94.996
X77.978Y-121.158
X92.456Y-81.788
X96.266Y-112.522
X97.028Y-118.364
X97.536Y-95.504
X97.536Y-104.648
X97.79Y-119.38
X98.552Y-107.696
X98.806Y-112.268
X99.568Y-73.914
X99.822Y-91.948
X99.822Y-93.218
X100.33Y-118.618
X100.838Y-99.822
X101.346Y-109.982
X102.108Y-97.282
X104.648Y-80.518
X105.156Y-119.126
X105.664Y-112.776
X107.188Y-107.696
X107.696Y-102.362
X109.22Y-96.012
X111.252Y-110.998
X111.624Y-127.372
X114.3Y-117.856
X115.316Y-110.49
X116.586Y-74.93
X118.11Y-119.634
X119.126Y-104.14
X120.904Y-109.22
X120.904Y-110.49
X120.904Y-111.76
X122.174Y-74.168
X123.698Y-104.14
X124.714Y-66.802
X128.27Y-119.126
X130.81Y-111.252
X131.826Y-103.378
X131.826Y-105.664
X132.588Y-112.776
X140.208Y-71.628
T2
X79.829Y-124.499
X79.829Y-125.849
X80.679Y-124.499
X80.679Y-125.849
X81.529Y-124.499
X81.529Y-125.849
X82.379Y-124.499
X82.379Y-125.849
X83.229Y-124.499
X83.229Y-125.849
X84.079Y-124.499
X84.079Y-125.849
X84.929Y-124.499
X84.929Y-125.849
X85.779Y-124.499
X85.779Y-125.849
T4
X83.566Y-118.872
X86.106Y-118.872
T5
X107.424Y-65.15
X108.694Y-65.15
X109.964Y-65.15
X127.254Y-107.95
X128.524Y-107.95
X129.794Y-107.95
T6
X126.746Y-64.516
X126.746Y-69.596
X129.286Y-64.516
X129.286Y-69.596
X131.826Y-64.516
X131.826Y-69.596
X136.906Y-64.516
X136.906Y-69.596
X138.357Y-117.783
X138.357Y-120.323
X138.357Y-122.863
X138.357Y-127.944
X143.438Y-117.783
X143.438Y-120.323
X143.438Y-122.863
X143.438Y-127.944
T7
X68.834Y-78.994
X68.834Y-81.534
X68.834Y-84.074
X68.834Y-106.934
X68.834Y-109.474
X68.834Y-112.014
X106.172Y-95.25
X106.426Y-125.222
X108.966Y-125.222
X111.506Y-125.222
X126.492Y-95.25
X130.302Y-122.682
X130.302Y-125.222
X130.302Y-127.762
X134.132Y-74.422
X134.132Y-76.962
X134.132Y-79.502
X134.132Y-82.042
X134.132Y-84.582
X134.132Y-87.122
X134.132Y-89.662
X134.132Y-92.202
X134.132Y-94.742
X134.132Y-97.282
X134.132Y-99.822
X134.132Y-102.362
X134.132Y-104.902
X134.132Y-107.442
X134.132Y-109.982
X136.672Y-74.422
X136.672Y-76.962
X136.672Y-79.502
X136.672Y-82.042
X136.672Y-84.582
X136.672Y-87.122
X136.672Y-89.662
X136.672Y-92.202
X136.672Y-94.742
X136.672Y-97.282
X136.672Y-99.822
X136.672Y-102.362
X136.672Y-104.902
X136.672Y-107.442
X136.672Y-109.982
X141.224Y-74.427
X141.224Y-76.967
X141.224Y-79.507
X141.224Y-82.047
X141.224Y-84.587
X141.224Y-87.127
X141.224Y-89.667
X141.224Y-92.207
X141.224Y-94.747
X141.224Y-97.287
X141.224Y-99.827
X141.224Y-102.367
X141.224Y-104.907
X141.224Y-107.447
X141.224Y-109.987
X143.764Y-74.427
X143.764Y-76.967
X143.764Y-79.507
X143.764Y-82.047
X143.764Y-84.587
X143.764Y-87.127
X143.764Y-89.667
X143.764Y-92.207
X143.764Y-94.747
X143.764Y-97.287
X143.764Y-99.827
X143.764Y-102.367
X143.764Y-104.907
X143.764Y-107.447
X143.764Y-109.987
T8
X107.614Y-69.849
X110.154Y-69.849
X114.989Y-67.31
X114.989Y-69.85
X134.366Y-115.062
X134.366Y-117.602
X134.366Y-122.936
X134.366Y-125.476
T9
X96.266Y-126.492
X122.682Y-126.492
T10
X54.092Y-68.072
X54.092Y-78.232
X54.092Y-81.534
X54.092Y-91.694
X54.092Y-96.012
X54.092Y-106.172
X54.092Y-109.474
X54.092Y-119.634
X64.252Y-68.072
X64.252Y-78.232
X64.252Y-81.534
X64.252Y-91.694
X64.252Y-96.012
X64.252Y-106.172
X64.252Y-109.474
X64.252Y-119.634
T11
X92.566Y-123.952
X92.566Y-129.032
X99.966Y-123.952
X99.966Y-129.032
X118.982Y-123.952
X118.982Y-129.032
X126.382Y-123.952
X126.382Y-129.032
T12
X60.452Y-73.152
X60.452Y-86.614
X60.452Y-101.092
X60.452Y-114.554
T3
X78.479Y-124.729G85X78.479Y-126.229
G05
X78.479Y-128.459G85X78.479Y-129.259
G05
X87.129Y-124.729G85X87.129Y-126.229
G05
X87.129Y-128.459G85X87.129Y-129.259
G05
T0
M30
