%FSLAX45Y45*%
G04 Gerber Fmt 4.5, Leading zero omitted, Abs format (unit mm)*
G04 Created by KiCad (PCBNEW (6.0.6-1)-1) date 2022-07-06 12:40:32*
%MOMM*%
%LPD*%
G01*
G04 APERTURE LIST*
%TA.AperFunction,Profile*%
%ADD10C,0.050000*%
%TD*%
%ADD11C,0.200000*%
%ADD12C,0.220000*%
G04 APERTURE END LIST*
D10*
X14528000Y-6166711D02*
X14528000Y-12967000D01*
X14528000Y-6166711D02*
G75*
G03*
X14428000Y-6066081I-100632J0D01*
G01*
X14440000Y-13055000D02*
X5124000Y-13054000D01*
X5124000Y-6065681D02*
X14428000Y-6066081D01*
X4673600Y-6516081D02*
X4674001Y-12603001D01*
X14440000Y-13055000D02*
G75*
G03*
X14528000Y-12967000I0J88000D01*
G01*
X5124000Y-6065681D02*
G75*
G03*
X4673600Y-6516081I0J-450400D01*
G01*
X4674001Y-12603001D02*
G75*
G03*
X5124000Y-13054000I449999J-999D01*
G01*
D11*
D12*
X4940000Y-6290800D02*
X5160000Y-6510800D01*
X5160000Y-6290800D02*
X4940000Y-6510800D01*
X4940000Y-12540000D02*
X5160000Y-12760000D01*
X5160000Y-12540000D02*
X4940000Y-12760000D01*
D11*
X4928719Y-13367976D02*
X4928719Y-13167976D01*
X4976338Y-13167976D01*
X5004910Y-13177500D01*
X5023957Y-13196548D01*
X5033481Y-13215595D01*
X5043005Y-13253690D01*
X5043005Y-13282262D01*
X5033481Y-13320357D01*
X5023957Y-13339405D01*
X5004910Y-13358452D01*
X4976338Y-13367976D01*
X4928719Y-13367976D01*
X5128719Y-13367976D02*
X5128719Y-13234643D01*
X5128719Y-13272738D02*
X5138243Y-13253690D01*
X5147767Y-13244167D01*
X5166814Y-13234643D01*
X5185862Y-13234643D01*
X5252529Y-13367976D02*
X5252529Y-13234643D01*
X5252529Y-13167976D02*
X5243005Y-13177500D01*
X5252529Y-13187024D01*
X5262052Y-13177500D01*
X5252529Y-13167976D01*
X5252529Y-13187024D01*
X5376338Y-13367976D02*
X5357290Y-13358452D01*
X5347767Y-13339405D01*
X5347767Y-13167976D01*
X5481100Y-13367976D02*
X5462052Y-13358452D01*
X5452529Y-13339405D01*
X5452529Y-13167976D01*
X5709671Y-13367976D02*
X5709671Y-13167976D01*
X5776338Y-13310833D01*
X5843005Y-13167976D01*
X5843005Y-13367976D01*
X6023957Y-13367976D02*
X6023957Y-13263214D01*
X6014433Y-13244167D01*
X5995386Y-13234643D01*
X5957290Y-13234643D01*
X5938243Y-13244167D01*
X6023957Y-13358452D02*
X6004909Y-13367976D01*
X5957290Y-13367976D01*
X5938243Y-13358452D01*
X5928719Y-13339405D01*
X5928719Y-13320357D01*
X5938243Y-13301309D01*
X5957290Y-13291786D01*
X6004909Y-13291786D01*
X6023957Y-13282262D01*
X6119195Y-13234643D02*
X6119195Y-13434643D01*
X6119195Y-13244167D02*
X6138243Y-13234643D01*
X6176338Y-13234643D01*
X6195386Y-13244167D01*
X6204909Y-13253690D01*
X6214433Y-13272738D01*
X6214433Y-13329881D01*
X6204909Y-13348928D01*
X6195386Y-13358452D01*
X6176338Y-13367976D01*
X6138243Y-13367976D01*
X6119195Y-13358452D01*
X6300148Y-13348928D02*
X6309671Y-13358452D01*
X6300148Y-13367976D01*
X6290624Y-13358452D01*
X6300148Y-13348928D01*
X6300148Y-13367976D01*
X6300148Y-13244167D02*
X6309671Y-13253690D01*
X6300148Y-13263214D01*
X6290624Y-13253690D01*
X6300148Y-13244167D01*
X6300148Y-13263214D01*
X4471100Y-13597500D02*
X4671100Y-13797500D01*
X4671100Y-13597500D02*
X4471100Y-13797500D01*
X4919195Y-13607024D02*
X4928719Y-13597500D01*
X4947767Y-13587976D01*
X4995386Y-13587976D01*
X5014433Y-13597500D01*
X5023957Y-13607024D01*
X5033481Y-13626071D01*
X5033481Y-13645119D01*
X5023957Y-13673690D01*
X4909671Y-13787976D01*
X5033481Y-13787976D01*
X5119195Y-13768928D02*
X5128719Y-13778452D01*
X5119195Y-13787976D01*
X5109671Y-13778452D01*
X5119195Y-13768928D01*
X5119195Y-13787976D01*
X5204910Y-13607024D02*
X5214433Y-13597500D01*
X5233481Y-13587976D01*
X5281100Y-13587976D01*
X5300148Y-13597500D01*
X5309671Y-13607024D01*
X5319195Y-13626071D01*
X5319195Y-13645119D01*
X5309671Y-13673690D01*
X5195386Y-13787976D01*
X5319195Y-13787976D01*
X5443005Y-13587976D02*
X5462052Y-13587976D01*
X5481100Y-13597500D01*
X5490624Y-13607024D01*
X5500148Y-13626071D01*
X5509671Y-13664167D01*
X5509671Y-13711786D01*
X5500148Y-13749881D01*
X5490624Y-13768928D01*
X5481100Y-13778452D01*
X5462052Y-13787976D01*
X5443005Y-13787976D01*
X5423957Y-13778452D01*
X5414433Y-13768928D01*
X5404910Y-13749881D01*
X5395386Y-13711786D01*
X5395386Y-13664167D01*
X5404910Y-13626071D01*
X5414433Y-13607024D01*
X5423957Y-13597500D01*
X5443005Y-13587976D01*
X5633481Y-13587976D02*
X5652528Y-13587976D01*
X5671576Y-13597500D01*
X5681100Y-13607024D01*
X5690624Y-13626071D01*
X5700148Y-13664167D01*
X5700148Y-13711786D01*
X5690624Y-13749881D01*
X5681100Y-13768928D01*
X5671576Y-13778452D01*
X5652528Y-13787976D01*
X5633481Y-13787976D01*
X5614433Y-13778452D01*
X5604909Y-13768928D01*
X5595386Y-13749881D01*
X5585862Y-13711786D01*
X5585862Y-13664167D01*
X5595386Y-13626071D01*
X5604909Y-13607024D01*
X5614433Y-13597500D01*
X5633481Y-13587976D01*
X5785862Y-13787976D02*
X5785862Y-13654643D01*
X5785862Y-13673690D02*
X5795386Y-13664167D01*
X5814433Y-13654643D01*
X5843005Y-13654643D01*
X5862052Y-13664167D01*
X5871576Y-13683214D01*
X5871576Y-13787976D01*
X5871576Y-13683214D02*
X5881100Y-13664167D01*
X5900148Y-13654643D01*
X5928719Y-13654643D01*
X5947767Y-13664167D01*
X5957290Y-13683214D01*
X5957290Y-13787976D01*
X6052528Y-13787976D02*
X6052528Y-13654643D01*
X6052528Y-13673690D02*
X6062052Y-13664167D01*
X6081100Y-13654643D01*
X6109671Y-13654643D01*
X6128719Y-13664167D01*
X6138243Y-13683214D01*
X6138243Y-13787976D01*
X6138243Y-13683214D02*
X6147767Y-13664167D01*
X6166814Y-13654643D01*
X6195386Y-13654643D01*
X6214433Y-13664167D01*
X6223957Y-13683214D01*
X6223957Y-13787976D01*
X6614433Y-13578452D02*
X6443005Y-13835595D01*
X6871576Y-13587976D02*
X6890624Y-13587976D01*
X6909671Y-13597500D01*
X6919195Y-13607024D01*
X6928719Y-13626071D01*
X6938243Y-13664167D01*
X6938243Y-13711786D01*
X6928719Y-13749881D01*
X6919195Y-13768928D01*
X6909671Y-13778452D01*
X6890624Y-13787976D01*
X6871576Y-13787976D01*
X6852528Y-13778452D01*
X6843005Y-13768928D01*
X6833481Y-13749881D01*
X6823957Y-13711786D01*
X6823957Y-13664167D01*
X6833481Y-13626071D01*
X6843005Y-13607024D01*
X6852528Y-13597500D01*
X6871576Y-13587976D01*
X7023957Y-13768928D02*
X7033481Y-13778452D01*
X7023957Y-13787976D01*
X7014433Y-13778452D01*
X7023957Y-13768928D01*
X7023957Y-13787976D01*
X7157290Y-13587976D02*
X7176338Y-13587976D01*
X7195386Y-13597500D01*
X7204909Y-13607024D01*
X7214433Y-13626071D01*
X7223957Y-13664167D01*
X7223957Y-13711786D01*
X7214433Y-13749881D01*
X7204909Y-13768928D01*
X7195386Y-13778452D01*
X7176338Y-13787976D01*
X7157290Y-13787976D01*
X7138243Y-13778452D01*
X7128719Y-13768928D01*
X7119195Y-13749881D01*
X7109671Y-13711786D01*
X7109671Y-13664167D01*
X7119195Y-13626071D01*
X7128719Y-13607024D01*
X7138243Y-13597500D01*
X7157290Y-13587976D01*
X7338243Y-13673690D02*
X7319195Y-13664167D01*
X7309671Y-13654643D01*
X7300148Y-13635595D01*
X7300148Y-13626071D01*
X7309671Y-13607024D01*
X7319195Y-13597500D01*
X7338243Y-13587976D01*
X7376338Y-13587976D01*
X7395386Y-13597500D01*
X7404909Y-13607024D01*
X7414433Y-13626071D01*
X7414433Y-13635595D01*
X7404909Y-13654643D01*
X7395386Y-13664167D01*
X7376338Y-13673690D01*
X7338243Y-13673690D01*
X7319195Y-13683214D01*
X7309671Y-13692738D01*
X7300148Y-13711786D01*
X7300148Y-13749881D01*
X7309671Y-13768928D01*
X7319195Y-13778452D01*
X7338243Y-13787976D01*
X7376338Y-13787976D01*
X7395386Y-13778452D01*
X7404909Y-13768928D01*
X7414433Y-13749881D01*
X7414433Y-13711786D01*
X7404909Y-13692738D01*
X7395386Y-13683214D01*
X7376338Y-13673690D01*
X7585862Y-13587976D02*
X7547767Y-13587976D01*
X7528719Y-13597500D01*
X7519195Y-13607024D01*
X7500148Y-13635595D01*
X7490624Y-13673690D01*
X7490624Y-13749881D01*
X7500148Y-13768928D01*
X7509671Y-13778452D01*
X7528719Y-13787976D01*
X7566814Y-13787976D01*
X7585862Y-13778452D01*
X7595386Y-13768928D01*
X7604909Y-13749881D01*
X7604909Y-13702262D01*
X7595386Y-13683214D01*
X7585862Y-13673690D01*
X7566814Y-13664167D01*
X7528719Y-13664167D01*
X7509671Y-13673690D01*
X7500148Y-13683214D01*
X7490624Y-13702262D01*
X7776338Y-13587976D02*
X7738243Y-13587976D01*
X7719195Y-13597500D01*
X7709671Y-13607024D01*
X7690624Y-13635595D01*
X7681100Y-13673690D01*
X7681100Y-13749881D01*
X7690624Y-13768928D01*
X7700148Y-13778452D01*
X7719195Y-13787976D01*
X7757290Y-13787976D01*
X7776338Y-13778452D01*
X7785862Y-13768928D01*
X7795386Y-13749881D01*
X7795386Y-13702262D01*
X7785862Y-13683214D01*
X7776338Y-13673690D01*
X7757290Y-13664167D01*
X7719195Y-13664167D01*
X7700148Y-13673690D01*
X7690624Y-13683214D01*
X7681100Y-13702262D01*
X7871576Y-13587976D02*
X7871576Y-13626071D01*
X7947767Y-13587976D02*
X7947767Y-13626071D01*
X8243005Y-13864167D02*
X8233481Y-13854643D01*
X8214433Y-13826071D01*
X8204909Y-13807024D01*
X8195386Y-13778452D01*
X8185862Y-13730833D01*
X8185862Y-13692738D01*
X8195386Y-13645119D01*
X8204909Y-13616548D01*
X8214433Y-13597500D01*
X8233481Y-13568928D01*
X8243005Y-13559405D01*
X8309671Y-13607024D02*
X8319195Y-13597500D01*
X8338243Y-13587976D01*
X8385862Y-13587976D01*
X8404910Y-13597500D01*
X8414433Y-13607024D01*
X8423957Y-13626071D01*
X8423957Y-13645119D01*
X8414433Y-13673690D01*
X8300148Y-13787976D01*
X8423957Y-13787976D01*
X8662052Y-13787976D02*
X8662052Y-13587976D01*
X8747767Y-13787976D02*
X8747767Y-13683214D01*
X8738243Y-13664167D01*
X8719195Y-13654643D01*
X8690624Y-13654643D01*
X8671576Y-13664167D01*
X8662052Y-13673690D01*
X8871576Y-13787976D02*
X8852529Y-13778452D01*
X8843005Y-13768928D01*
X8833481Y-13749881D01*
X8833481Y-13692738D01*
X8843005Y-13673690D01*
X8852529Y-13664167D01*
X8871576Y-13654643D01*
X8900148Y-13654643D01*
X8919195Y-13664167D01*
X8928719Y-13673690D01*
X8938243Y-13692738D01*
X8938243Y-13749881D01*
X8928719Y-13768928D01*
X8919195Y-13778452D01*
X8900148Y-13787976D01*
X8871576Y-13787976D01*
X9052529Y-13787976D02*
X9033481Y-13778452D01*
X9023957Y-13759405D01*
X9023957Y-13587976D01*
X9204910Y-13778452D02*
X9185862Y-13787976D01*
X9147767Y-13787976D01*
X9128719Y-13778452D01*
X9119195Y-13759405D01*
X9119195Y-13683214D01*
X9128719Y-13664167D01*
X9147767Y-13654643D01*
X9185862Y-13654643D01*
X9204910Y-13664167D01*
X9214433Y-13683214D01*
X9214433Y-13702262D01*
X9119195Y-13721309D01*
X9290624Y-13778452D02*
X9309671Y-13787976D01*
X9347767Y-13787976D01*
X9366814Y-13778452D01*
X9376338Y-13759405D01*
X9376338Y-13749881D01*
X9366814Y-13730833D01*
X9347767Y-13721309D01*
X9319195Y-13721309D01*
X9300148Y-13711786D01*
X9290624Y-13692738D01*
X9290624Y-13683214D01*
X9300148Y-13664167D01*
X9319195Y-13654643D01*
X9347767Y-13654643D01*
X9366814Y-13664167D01*
X9443005Y-13864167D02*
X9452529Y-13854643D01*
X9471576Y-13826071D01*
X9481100Y-13807024D01*
X9490624Y-13778452D01*
X9500148Y-13730833D01*
X9500148Y-13692738D01*
X9490624Y-13645119D01*
X9481100Y-13616548D01*
X9471576Y-13597500D01*
X9452529Y-13568928D01*
X9443005Y-13559405D01*
X9804910Y-13864167D02*
X9795386Y-13854643D01*
X9776338Y-13826071D01*
X9766814Y-13807024D01*
X9757290Y-13778452D01*
X9747767Y-13730833D01*
X9747767Y-13692738D01*
X9757290Y-13645119D01*
X9766814Y-13616548D01*
X9776338Y-13597500D01*
X9795386Y-13568928D01*
X9804910Y-13559405D01*
X9881100Y-13654643D02*
X9881100Y-13787976D01*
X9881100Y-13673690D02*
X9890624Y-13664167D01*
X9909671Y-13654643D01*
X9938243Y-13654643D01*
X9957290Y-13664167D01*
X9966814Y-13683214D01*
X9966814Y-13787976D01*
X10090624Y-13787976D02*
X10071576Y-13778452D01*
X10062052Y-13768928D01*
X10052529Y-13749881D01*
X10052529Y-13692738D01*
X10062052Y-13673690D01*
X10071576Y-13664167D01*
X10090624Y-13654643D01*
X10119195Y-13654643D01*
X10138243Y-13664167D01*
X10147767Y-13673690D01*
X10157290Y-13692738D01*
X10157290Y-13749881D01*
X10147767Y-13768928D01*
X10138243Y-13778452D01*
X10119195Y-13787976D01*
X10090624Y-13787976D01*
X10214433Y-13654643D02*
X10290624Y-13654643D01*
X10243005Y-13587976D02*
X10243005Y-13759405D01*
X10252529Y-13778452D01*
X10271576Y-13787976D01*
X10290624Y-13787976D01*
X10509671Y-13654643D02*
X10509671Y-13854643D01*
X10509671Y-13664167D02*
X10528719Y-13654643D01*
X10566814Y-13654643D01*
X10585862Y-13664167D01*
X10595386Y-13673690D01*
X10604910Y-13692738D01*
X10604910Y-13749881D01*
X10595386Y-13768928D01*
X10585862Y-13778452D01*
X10566814Y-13787976D01*
X10528719Y-13787976D01*
X10509671Y-13778452D01*
X10719195Y-13787976D02*
X10700148Y-13778452D01*
X10690624Y-13759405D01*
X10690624Y-13587976D01*
X10881100Y-13787976D02*
X10881100Y-13683214D01*
X10871576Y-13664167D01*
X10852529Y-13654643D01*
X10814433Y-13654643D01*
X10795386Y-13664167D01*
X10881100Y-13778452D02*
X10862052Y-13787976D01*
X10814433Y-13787976D01*
X10795386Y-13778452D01*
X10785862Y-13759405D01*
X10785862Y-13740357D01*
X10795386Y-13721309D01*
X10814433Y-13711786D01*
X10862052Y-13711786D01*
X10881100Y-13702262D01*
X10947767Y-13654643D02*
X11023957Y-13654643D01*
X10976338Y-13587976D02*
X10976338Y-13759405D01*
X10985862Y-13778452D01*
X11004910Y-13787976D01*
X11023957Y-13787976D01*
X11166814Y-13778452D02*
X11147767Y-13787976D01*
X11109671Y-13787976D01*
X11090624Y-13778452D01*
X11081100Y-13759405D01*
X11081100Y-13683214D01*
X11090624Y-13664167D01*
X11109671Y-13654643D01*
X11147767Y-13654643D01*
X11166814Y-13664167D01*
X11176338Y-13683214D01*
X11176338Y-13702262D01*
X11081100Y-13721309D01*
X11347767Y-13787976D02*
X11347767Y-13587976D01*
X11347767Y-13778452D02*
X11328719Y-13787976D01*
X11290624Y-13787976D01*
X11271576Y-13778452D01*
X11262052Y-13768928D01*
X11252528Y-13749881D01*
X11252528Y-13692738D01*
X11262052Y-13673690D01*
X11271576Y-13664167D01*
X11290624Y-13654643D01*
X11328719Y-13654643D01*
X11347767Y-13664167D01*
X11423957Y-13864167D02*
X11433481Y-13854643D01*
X11452528Y-13826071D01*
X11462052Y-13807024D01*
X11471576Y-13778452D01*
X11481100Y-13730833D01*
X11481100Y-13692738D01*
X11471576Y-13645119D01*
X11462052Y-13616548D01*
X11452528Y-13597500D01*
X11433481Y-13568928D01*
X11423957Y-13559405D01*
M02*
