%TF.GenerationSoftware,KiCad,Pcbnew,(6.0.6-1)-1*%
%TF.CreationDate,2022-07-06T12:40:26-04:00*%
%TF.ProjectId,dad_bod,6461645f-626f-4642-9e6b-696361645f70,rev?*%
%TF.SameCoordinates,Original*%
%TF.FileFunction,Paste,Top*%
%TF.FilePolarity,Positive*%
%FSLAX46Y46*%
G04 Gerber Fmt 4.6, Leading zero omitted, Abs format (unit mm)*
G04 Created by KiCad (PCBNEW (6.0.6-1)-1) date 2022-07-06 12:40:26*
%MOMM*%
%LPD*%
G01*
G04 APERTURE LIST*
G04 Aperture macros list*
%AMRoundRect*
0 Rectangle with rounded corners*
0 $1 Rounding radius*
0 $2 $3 $4 $5 $6 $7 $8 $9 X,Y pos of 4 corners*
0 Add a 4 corners polygon primitive as box body*
4,1,4,$2,$3,$4,$5,$6,$7,$8,$9,$2,$3,0*
0 Add four circle primitives for the rounded corners*
1,1,$1+$1,$2,$3*
1,1,$1+$1,$4,$5*
1,1,$1+$1,$6,$7*
1,1,$1+$1,$8,$9*
0 Add four rect primitives between the rounded corners*
20,1,$1+$1,$2,$3,$4,$5,0*
20,1,$1+$1,$4,$5,$6,$7,0*
20,1,$1+$1,$6,$7,$8,$9,0*
20,1,$1+$1,$8,$9,$2,$3,0*%
G04 Aperture macros list end*
%ADD10RoundRect,0.250000X0.325000X0.450000X-0.325000X0.450000X-0.325000X-0.450000X0.325000X-0.450000X0*%
%ADD11RoundRect,0.250000X-0.325000X-0.450000X0.325000X-0.450000X0.325000X0.450000X-0.325000X0.450000X0*%
%ADD12R,0.600000X1.150000*%
%ADD13R,1.150000X0.600000*%
%ADD14R,1.600000X2.500000*%
%ADD15RoundRect,0.250000X-0.412500X-1.100000X0.412500X-1.100000X0.412500X1.100000X-0.412500X1.100000X0*%
%ADD16RoundRect,0.250000X1.100000X-0.412500X1.100000X0.412500X-1.100000X0.412500X-1.100000X-0.412500X0*%
%ADD17RoundRect,0.250000X0.450000X-0.325000X0.450000X0.325000X-0.450000X0.325000X-0.450000X-0.325000X0*%
%ADD18R,1.000000X0.550000*%
%ADD19RoundRect,0.250000X-0.450000X0.325000X-0.450000X-0.325000X0.450000X-0.325000X0.450000X0.325000X0*%
%ADD20RoundRect,0.237500X-0.287500X-0.237500X0.287500X-0.237500X0.287500X0.237500X-0.287500X0.237500X0*%
%ADD21RoundRect,0.237500X0.287500X0.237500X-0.287500X0.237500X-0.287500X-0.237500X0.287500X-0.237500X0*%
%ADD22R,2.200000X3.150000*%
%ADD23RoundRect,0.250000X0.350000X0.450000X-0.350000X0.450000X-0.350000X-0.450000X0.350000X-0.450000X0*%
%ADD24RoundRect,0.250000X-0.450000X0.350000X-0.450000X-0.350000X0.450000X-0.350000X0.450000X0.350000X0*%
%ADD25R,0.900000X0.800000*%
%ADD26R,2.750000X3.200000*%
%ADD27R,3.375000X1.620000*%
%ADD28R,3.375000X1.200000*%
%ADD29R,5.000000X1.300000*%
%ADD30R,1.050000X0.550000*%
%ADD31R,0.650000X1.528000*%
%ADD32R,0.450000X1.425000*%
%ADD33R,1.880000X1.680000*%
%ADD34R,3.150000X2.200000*%
G04 APERTURE END LIST*
D10*
X130066000Y-113284000D03*
X128016000Y-113284000D03*
D11*
X75302000Y-85870000D03*
X77352000Y-85870000D03*
D12*
X69850000Y-91610000D03*
X70800000Y-93810000D03*
X68900000Y-93810000D03*
D13*
X70442000Y-96774000D03*
X68242000Y-97724000D03*
X68242000Y-95824000D03*
D14*
X141986000Y-66068000D03*
X141986000Y-69568000D03*
X128524000Y-99850000D03*
X128524000Y-103350000D03*
D15*
X104609500Y-128778000D03*
X107734500Y-128778000D03*
D16*
X69088000Y-75721500D03*
X69088000Y-72596500D03*
X68834000Y-118148500D03*
X68834000Y-115023500D03*
D10*
X99314000Y-63754000D03*
X97264000Y-63754000D03*
D11*
X75342000Y-96901000D03*
X77392000Y-96901000D03*
X75342000Y-99441000D03*
X77392000Y-99441000D03*
X75324000Y-101981000D03*
X77374000Y-101981000D03*
X75324000Y-104521000D03*
X77374000Y-104521000D03*
D17*
X89662000Y-103650000D03*
X89662000Y-101600000D03*
X92329000Y-103650000D03*
X92329000Y-101600000D03*
D18*
X95250000Y-101291000D03*
X95250000Y-103941000D03*
D17*
X89662000Y-106408000D03*
X89662000Y-108458000D03*
X92329000Y-108476000D03*
X92329000Y-106426000D03*
D18*
X95250000Y-106117000D03*
X95250000Y-108767000D03*
D11*
X75206000Y-114935000D03*
X77256000Y-114935000D03*
X75206000Y-112395000D03*
X77256000Y-112395000D03*
X75206000Y-109982000D03*
X77256000Y-109982000D03*
X75206000Y-107696000D03*
X77256000Y-107696000D03*
D19*
X127444500Y-115851500D03*
X127444500Y-117901500D03*
D11*
X75302000Y-75710000D03*
X77352000Y-75710000D03*
X75302000Y-78250000D03*
X77352000Y-78250000D03*
X75302000Y-80663000D03*
X77352000Y-80663000D03*
X75302000Y-83076000D03*
X77352000Y-83076000D03*
D17*
X125222000Y-117856000D03*
X125222000Y-115806000D03*
D19*
X129678999Y-115826501D03*
X129678999Y-117876501D03*
D17*
X89662000Y-88782000D03*
X89662000Y-86732000D03*
X92075000Y-88782000D03*
X92075000Y-86732000D03*
D18*
X95059500Y-86441000D03*
X95059500Y-89091000D03*
D17*
X89662000Y-93227000D03*
X89662000Y-91177000D03*
X92075000Y-93245000D03*
X92075000Y-91195000D03*
D18*
X95059500Y-90886000D03*
X95059500Y-93536000D03*
D17*
X116967000Y-111760000D03*
X116967000Y-109710000D03*
X119126000Y-111769000D03*
X119126000Y-109719000D03*
D11*
X75302000Y-88283000D03*
X77352000Y-88283000D03*
X75302000Y-90696000D03*
X77352000Y-90696000D03*
X75302000Y-93109000D03*
X77352000Y-93109000D03*
D20*
X121535000Y-99949000D03*
X123285000Y-99949000D03*
D21*
X112127000Y-112014000D03*
X110377000Y-112014000D03*
D17*
X102702000Y-116840000D03*
X102702000Y-114790000D03*
X92288000Y-116840000D03*
X92288000Y-114790000D03*
X95091000Y-116840000D03*
X95091000Y-114790000D03*
X97622000Y-116831000D03*
X97622000Y-114781000D03*
X100162000Y-116831000D03*
X100162000Y-114781000D03*
X120396000Y-117890000D03*
X120396000Y-115840000D03*
X118110000Y-117872000D03*
X118110000Y-115822000D03*
X122682000Y-117881000D03*
X122682000Y-115831000D03*
D22*
X95560000Y-68326000D03*
X102560000Y-68326000D03*
D23*
X92572000Y-112640000D03*
X94572000Y-112640000D03*
D24*
X115824000Y-115840000D03*
X115824000Y-117840000D03*
D23*
X94508500Y-118863000D03*
X92508500Y-118863000D03*
D25*
X90240000Y-116765000D03*
X90240000Y-114865000D03*
X88240000Y-115815000D03*
D10*
X112268000Y-128778000D03*
X110218000Y-128778000D03*
D19*
X69088000Y-87621000D03*
X69088000Y-89671000D03*
D10*
X117284500Y-63698234D03*
X115234500Y-63698234D03*
D19*
X68834000Y-101083000D03*
X68834000Y-103133000D03*
D11*
X80159000Y-96901000D03*
X82209000Y-96901000D03*
X80150000Y-99441000D03*
X82200000Y-99441000D03*
X80159000Y-101981000D03*
X82209000Y-101981000D03*
X80159000Y-104521000D03*
X82209000Y-104521000D03*
D17*
X87376000Y-103641000D03*
X87376000Y-101591000D03*
D10*
X98307000Y-110490000D03*
X96257000Y-110490000D03*
D17*
X87376000Y-108467000D03*
X87376000Y-106417000D03*
D11*
X79905000Y-114935000D03*
X81955000Y-114935000D03*
X79905000Y-112395000D03*
X81955000Y-112395000D03*
X79923000Y-109982000D03*
X81973000Y-109982000D03*
X79905000Y-107696000D03*
X81955000Y-107696000D03*
D10*
X105428000Y-99314000D03*
X103378000Y-99314000D03*
D11*
X80255000Y-75710000D03*
X82305000Y-75710000D03*
X80255000Y-78250000D03*
X82305000Y-78250000D03*
X80255000Y-80663000D03*
X82305000Y-80663000D03*
X80255000Y-83076000D03*
X82305000Y-83076000D03*
D17*
X87249000Y-88782000D03*
X87249000Y-86732000D03*
X97917000Y-93245000D03*
X97917000Y-91195000D03*
D11*
X117085000Y-107188000D03*
X119135000Y-107188000D03*
D17*
X87249000Y-93245000D03*
X87249000Y-91195000D03*
D11*
X80137000Y-85870000D03*
X82187000Y-85870000D03*
X80128000Y-88283000D03*
X82178000Y-88283000D03*
X80128000Y-90696000D03*
X82178000Y-90696000D03*
X80128000Y-93109000D03*
X82178000Y-93109000D03*
X121394000Y-102362000D03*
X123444000Y-102362000D03*
D10*
X105428000Y-110934500D03*
X103378000Y-110934500D03*
X124215000Y-111760000D03*
X122165000Y-111760000D03*
X112268000Y-109982000D03*
X110218000Y-109982000D03*
D19*
X106934000Y-119888000D03*
X106934000Y-121938000D03*
D17*
X106934000Y-117856000D03*
X106934000Y-115806000D03*
D26*
X82632000Y-68834000D03*
X73832000Y-68834000D03*
D27*
X89070000Y-76154000D03*
D28*
X89070000Y-78994000D03*
D27*
X89070000Y-81834000D03*
X98890000Y-81834000D03*
D28*
X98890000Y-78994000D03*
D27*
X98890000Y-76154000D03*
D29*
X88900000Y-66322000D03*
X88900000Y-69822000D03*
D30*
X121382000Y-105730000D03*
X121382000Y-106680000D03*
X121382000Y-107630000D03*
X123982000Y-107630000D03*
X123982000Y-106680000D03*
X123982000Y-105730000D03*
D31*
X113157000Y-115653000D03*
X111887000Y-115653000D03*
X110617000Y-115653000D03*
X109347000Y-115653000D03*
X109347000Y-121075000D03*
X110617000Y-121075000D03*
X111887000Y-121075000D03*
X113157000Y-121075000D03*
D32*
X111900500Y-103452000D03*
X111250500Y-103452000D03*
X110600500Y-103452000D03*
X109950500Y-103452000D03*
X109950500Y-107876000D03*
X110600500Y-107876000D03*
X111250500Y-107876000D03*
X111900500Y-107876000D03*
D33*
X110925500Y-105664000D03*
D21*
X111909500Y-98869500D03*
X110159500Y-98869500D03*
D11*
X117003500Y-100139500D03*
X119053500Y-100139500D03*
D10*
X119062500Y-102362000D03*
X117012500Y-102362000D03*
X105482500Y-106172000D03*
X103432500Y-106172000D03*
X105500500Y-108458000D03*
X103450500Y-108458000D03*
D19*
X107578000Y-104067500D03*
X107578000Y-106117500D03*
D10*
X105500500Y-101663500D03*
X103450500Y-101663500D03*
X105500500Y-103886000D03*
X103450500Y-103886000D03*
D17*
X114046000Y-106680000D03*
X114046000Y-104630000D03*
D10*
X112068500Y-101155500D03*
X110018500Y-101155500D03*
D11*
X78976000Y-118618000D03*
X81026000Y-118618000D03*
D10*
X88410000Y-122428000D03*
X86360000Y-122428000D03*
D34*
X73914000Y-118420000D03*
X73914000Y-125420000D03*
M02*
