%FSLAX45Y45*%
G04 Gerber Fmt 4.5, Leading zero omitted, Abs format (unit mm)*
G04 Created by KiCad (PCBNEW (6.0.6-1)-1) date 2022-07-06 12:40:32*
%MOMM*%
%LPD*%
G01*
G04 APERTURE LIST*
%TA.AperFunction,Profile*%
%ADD10C,0.050000*%
%TD*%
%ADD11C,0.200000*%
%ADD12C,0.040000*%
%ADD13C,0.060000*%
%ADD14C,0.070000*%
%ADD15C,0.075000*%
%ADD16C,0.080000*%
%ADD17C,0.100000*%
%ADD18C,0.110000*%
%ADD19C,0.117000*%
%ADD20C,0.130000*%
%ADD21C,0.135000*%
%ADD22C,0.220000*%
G04 APERTURE END LIST*
D10*
X14528000Y-6166711D02*
X14528000Y-12967000D01*
X14528000Y-6166711D02*
G75*
G03*
X14428000Y-6066081I-100632J0D01*
G01*
X14440000Y-13055000D02*
X5124000Y-13054000D01*
X5124000Y-6065681D02*
X14428000Y-6066081D01*
X4673600Y-6516081D02*
X4674001Y-12603001D01*
X14440000Y-13055000D02*
G75*
G03*
X14528000Y-12967000I0J88000D01*
G01*
X5124000Y-6065681D02*
G75*
G03*
X4673600Y-6516081I0J-450400D01*
G01*
X4674001Y-12603001D02*
G75*
G03*
X5124000Y-13054000I449999J-999D01*
G01*
D11*
D12*
X6482400Y-8336600D02*
X6522400Y-8376600D01*
X6522400Y-8336600D02*
X6482400Y-8376600D01*
X6507800Y-10343200D02*
X6547800Y-10383200D01*
X6547800Y-10343200D02*
X6507800Y-10383200D01*
X6660200Y-9682800D02*
X6700200Y-9722800D01*
X6700200Y-9682800D02*
X6660200Y-9722800D01*
X6711000Y-9124000D02*
X6751000Y-9164000D01*
X6751000Y-9124000D02*
X6711000Y-9164000D01*
X6736400Y-9911400D02*
X6776400Y-9951400D01*
X6776400Y-9911400D02*
X6736400Y-9951400D01*
X6863400Y-12248200D02*
X6903400Y-12288200D01*
X6903400Y-12248200D02*
X6863400Y-12288200D01*
X6990400Y-9911400D02*
X7030400Y-9951400D01*
X7030400Y-9911400D02*
X6990400Y-9951400D01*
X7066600Y-8971600D02*
X7106600Y-9011600D01*
X7106600Y-8971600D02*
X7066600Y-9011600D01*
X7193600Y-8793800D02*
X7233600Y-8833800D01*
X7233600Y-8793800D02*
X7193600Y-8833800D01*
X7193600Y-9098600D02*
X7233600Y-9138600D01*
X7233600Y-9098600D02*
X7193600Y-9138600D01*
X7346000Y-8412800D02*
X7386000Y-8452800D01*
X7386000Y-8412800D02*
X7346000Y-8452800D01*
X7701600Y-7396800D02*
X7741600Y-7436800D01*
X7741600Y-7396800D02*
X7701600Y-7436800D01*
X7701600Y-9479600D02*
X7741600Y-9519600D01*
X7741600Y-9479600D02*
X7701600Y-9519600D01*
X7777800Y-12095800D02*
X7817800Y-12135800D01*
X7817800Y-12095800D02*
X7777800Y-12135800D01*
X9225600Y-8158800D02*
X9265600Y-8198800D01*
X9265600Y-8158800D02*
X9225600Y-8198800D01*
X9606600Y-11232200D02*
X9646600Y-11272200D01*
X9646600Y-11232200D02*
X9606600Y-11272200D01*
X9682800Y-11816400D02*
X9722800Y-11856400D01*
X9722800Y-11816400D02*
X9682800Y-11856400D01*
X9733600Y-9530400D02*
X9773600Y-9570400D01*
X9773600Y-9530400D02*
X9733600Y-9570400D01*
X9733600Y-10444800D02*
X9773600Y-10484800D01*
X9773600Y-10444800D02*
X9733600Y-10484800D01*
X9759000Y-11918000D02*
X9799000Y-11958000D01*
X9799000Y-11918000D02*
X9759000Y-11958000D01*
X9835200Y-10749600D02*
X9875200Y-10789600D01*
X9875200Y-10749600D02*
X9835200Y-10789600D01*
X9860600Y-11206800D02*
X9900600Y-11246800D01*
X9900600Y-11206800D02*
X9860600Y-11246800D01*
X9936800Y-7371400D02*
X9976800Y-7411400D01*
X9976800Y-7371400D02*
X9936800Y-7411400D01*
X9962200Y-9174800D02*
X10002200Y-9214800D01*
X10002200Y-9174800D02*
X9962200Y-9214800D01*
X9962200Y-9301800D02*
X10002200Y-9341800D01*
X10002200Y-9301800D02*
X9962200Y-9341800D01*
X10013000Y-11841800D02*
X10053000Y-11881800D01*
X10053000Y-11841800D02*
X10013000Y-11881800D01*
X10063800Y-9962200D02*
X10103800Y-10002200D01*
X10103800Y-9962200D02*
X10063800Y-10002200D01*
X10114600Y-10978200D02*
X10154600Y-11018200D01*
X10154600Y-10978200D02*
X10114600Y-11018200D01*
X10190800Y-9708200D02*
X10230800Y-9748200D01*
X10230800Y-9708200D02*
X10190800Y-9748200D01*
X10444800Y-8031800D02*
X10484800Y-8071800D01*
X10484800Y-8031800D02*
X10444800Y-8071800D01*
X10495600Y-11892600D02*
X10535600Y-11932600D01*
X10535600Y-11892600D02*
X10495600Y-11932600D01*
X10546400Y-11257600D02*
X10586400Y-11297600D01*
X10586400Y-11257600D02*
X10546400Y-11297600D01*
X10698800Y-10749600D02*
X10738800Y-10789600D01*
X10738800Y-10749600D02*
X10698800Y-10789600D01*
X10749600Y-10216200D02*
X10789600Y-10256200D01*
X10789600Y-10216200D02*
X10749600Y-10256200D01*
X10902000Y-9581200D02*
X10942000Y-9621200D01*
X10942000Y-9581200D02*
X10902000Y-9621200D01*
X11105200Y-11079800D02*
X11145200Y-11119800D01*
X11145200Y-11079800D02*
X11105200Y-11119800D01*
X11142400Y-12717200D02*
X11182400Y-12757200D01*
X11182400Y-12717200D02*
X11142400Y-12757200D01*
X11410000Y-11765600D02*
X11450000Y-11805600D01*
X11450000Y-11765600D02*
X11410000Y-11805600D01*
X11511600Y-11029000D02*
X11551600Y-11069000D01*
X11551600Y-11029000D02*
X11511600Y-11069000D01*
X11638600Y-7473000D02*
X11678600Y-7513000D01*
X11678600Y-7473000D02*
X11638600Y-7513000D01*
X11791000Y-11943400D02*
X11831000Y-11983400D01*
X11831000Y-11943400D02*
X11791000Y-11983400D01*
X11892600Y-10394000D02*
X11932600Y-10434000D01*
X11932600Y-10394000D02*
X11892600Y-10434000D01*
X12070400Y-10902000D02*
X12110400Y-10942000D01*
X12110400Y-10902000D02*
X12070400Y-10942000D01*
X12070400Y-11029000D02*
X12110400Y-11069000D01*
X12110400Y-11029000D02*
X12070400Y-11069000D01*
X12070400Y-11156000D02*
X12110400Y-11196000D01*
X12110400Y-11156000D02*
X12070400Y-11196000D01*
X12197400Y-7396800D02*
X12237400Y-7436800D01*
X12237400Y-7396800D02*
X12197400Y-7436800D01*
X12349800Y-10394000D02*
X12389800Y-10434000D01*
X12389800Y-10394000D02*
X12349800Y-10434000D01*
X12451400Y-6660200D02*
X12491400Y-6700200D01*
X12491400Y-6660200D02*
X12451400Y-6700200D01*
X12807000Y-11892600D02*
X12847000Y-11932600D01*
X12847000Y-11892600D02*
X12807000Y-11932600D01*
X13061000Y-11105200D02*
X13101000Y-11145200D01*
X13101000Y-11105200D02*
X13061000Y-11145200D01*
X13162600Y-10317800D02*
X13202600Y-10357800D01*
X13202600Y-10317800D02*
X13162600Y-10357800D01*
X13162600Y-10546400D02*
X13202600Y-10586400D01*
X13202600Y-10546400D02*
X13162600Y-10586400D01*
X13238800Y-11257600D02*
X13278800Y-11297600D01*
X13278800Y-11257600D02*
X13238800Y-11297600D01*
X14000800Y-7142800D02*
X14040800Y-7182800D01*
X14040800Y-7142800D02*
X14000800Y-7182800D01*
X8002900Y-12449900D02*
G75*
G03*
X8002900Y-12449900I-20000J0D01*
G01*
X8002900Y-12584900D02*
G75*
G03*
X8002900Y-12584900I-20000J0D01*
G01*
X8087900Y-12449900D02*
G75*
G03*
X8087900Y-12449900I-20000J0D01*
G01*
X8087900Y-12584900D02*
G75*
G03*
X8087900Y-12584900I-20000J0D01*
G01*
X8172900Y-12449900D02*
G75*
G03*
X8172900Y-12449900I-20000J0D01*
G01*
X8172900Y-12584900D02*
G75*
G03*
X8172900Y-12584900I-20000J0D01*
G01*
X8257900Y-12449900D02*
G75*
G03*
X8257900Y-12449900I-20000J0D01*
G01*
X8257900Y-12584900D02*
G75*
G03*
X8257900Y-12584900I-20000J0D01*
G01*
X8342900Y-12449900D02*
G75*
G03*
X8342900Y-12449900I-20000J0D01*
G01*
X8342900Y-12584900D02*
G75*
G03*
X8342900Y-12584900I-20000J0D01*
G01*
X8427900Y-12449900D02*
G75*
G03*
X8427900Y-12449900I-20000J0D01*
G01*
X8427900Y-12584900D02*
G75*
G03*
X8427900Y-12584900I-20000J0D01*
G01*
X8512900Y-12449900D02*
G75*
G03*
X8512900Y-12449900I-20000J0D01*
G01*
X8512900Y-12584900D02*
G75*
G03*
X8512900Y-12584900I-20000J0D01*
G01*
X8597900Y-12449900D02*
G75*
G03*
X8597900Y-12449900I-20000J0D01*
G01*
X8597900Y-12584900D02*
G75*
G03*
X8597900Y-12584900I-20000J0D01*
G01*
D13*
X7847900Y-12517900D02*
X7847900Y-12577900D01*
X7817900Y-12547900D02*
X7877900Y-12547900D01*
D11*
X7817900Y-12472900D02*
X7817900Y-12622900D01*
X7877900Y-12472900D02*
X7877900Y-12622900D01*
X7817900Y-12622900D02*
G75*
G03*
X7877900Y-12622900I30000J0D01*
G01*
X7877900Y-12472900D02*
G75*
G03*
X7817900Y-12472900I-30000J0D01*
G01*
D13*
X7847900Y-12855900D02*
X7847900Y-12915900D01*
X7817900Y-12885900D02*
X7877900Y-12885900D01*
D11*
X7817900Y-12845900D02*
X7817900Y-12925900D01*
X7877900Y-12845900D02*
X7877900Y-12925900D01*
X7817900Y-12925900D02*
G75*
G03*
X7877900Y-12925900I30000J0D01*
G01*
X7877900Y-12845900D02*
G75*
G03*
X7817900Y-12845900I-30000J0D01*
G01*
D13*
X8712900Y-12517900D02*
X8712900Y-12577900D01*
X8682900Y-12547900D02*
X8742900Y-12547900D01*
D11*
X8682900Y-12472900D02*
X8682900Y-12622900D01*
X8742900Y-12472900D02*
X8742900Y-12622900D01*
X8682900Y-12622900D02*
G75*
G03*
X8742900Y-12622900I30000J0D01*
G01*
X8742900Y-12472900D02*
G75*
G03*
X8682900Y-12472900I-30000J0D01*
G01*
D13*
X8712900Y-12855900D02*
X8712900Y-12915900D01*
X8682900Y-12885900D02*
X8742900Y-12885900D01*
D11*
X8682900Y-12845900D02*
X8682900Y-12925900D01*
X8742900Y-12845900D02*
X8742900Y-12925900D01*
X8682900Y-12925900D02*
G75*
G03*
X8742900Y-12925900I30000J0D01*
G01*
X8742900Y-12845900D02*
G75*
G03*
X8682900Y-12845900I-30000J0D01*
G01*
D14*
X8381349Y-11911949D02*
X8381349Y-11862451D01*
X8331851Y-11862451D01*
X8331851Y-11911949D01*
X8381349Y-11911949D01*
X8635349Y-11911949D02*
X8635349Y-11862451D01*
X8585851Y-11862451D01*
X8585851Y-11911949D01*
X8635349Y-11911949D01*
D15*
X10742400Y-6552473D02*
X10779900Y-6514973D01*
X10742400Y-6477473D01*
X10704900Y-6514973D01*
X10742400Y-6552473D01*
X10869400Y-6552473D02*
X10906900Y-6514973D01*
X10869400Y-6477473D01*
X10831900Y-6514973D01*
X10869400Y-6552473D01*
X10996400Y-6552473D02*
X11033900Y-6514973D01*
X10996400Y-6477473D01*
X10958900Y-6514973D01*
X10996400Y-6552473D01*
X12725400Y-10832500D02*
X12762900Y-10795000D01*
X12725400Y-10757500D01*
X12687900Y-10795000D01*
X12725400Y-10832500D01*
X12852400Y-10832500D02*
X12889900Y-10795000D01*
X12852400Y-10757500D01*
X12814900Y-10795000D01*
X12852400Y-10832500D01*
X12979400Y-10832500D02*
X13016900Y-10795000D01*
X12979400Y-10757500D01*
X12941900Y-10795000D01*
X12979400Y-10832500D01*
D16*
X12634600Y-6411600D02*
X12714600Y-6491600D01*
X12714600Y-6411600D02*
X12634600Y-6491600D01*
X12714600Y-6451600D02*
G75*
G03*
X12714600Y-6451600I-40000J0D01*
G01*
X12634600Y-6919600D02*
X12714600Y-6999600D01*
X12714600Y-6919600D02*
X12634600Y-6999600D01*
X12714600Y-6959600D02*
G75*
G03*
X12714600Y-6959600I-40000J0D01*
G01*
X12888600Y-6411600D02*
X12968600Y-6491600D01*
X12968600Y-6411600D02*
X12888600Y-6491600D01*
X12968600Y-6451600D02*
G75*
G03*
X12968600Y-6451600I-40000J0D01*
G01*
X12888600Y-6919600D02*
X12968600Y-6999600D01*
X12968600Y-6919600D02*
X12888600Y-6999600D01*
X12968600Y-6959600D02*
G75*
G03*
X12968600Y-6959600I-40000J0D01*
G01*
X13142600Y-6411600D02*
X13222600Y-6491600D01*
X13222600Y-6411600D02*
X13142600Y-6491600D01*
X13222600Y-6451600D02*
G75*
G03*
X13222600Y-6451600I-40000J0D01*
G01*
X13142600Y-6919600D02*
X13222600Y-6999600D01*
X13222600Y-6919600D02*
X13142600Y-6999600D01*
X13222600Y-6959600D02*
G75*
G03*
X13222600Y-6959600I-40000J0D01*
G01*
X13650600Y-6411600D02*
X13730600Y-6491600D01*
X13730600Y-6411600D02*
X13650600Y-6491600D01*
X13730600Y-6451600D02*
G75*
G03*
X13730600Y-6451600I-40000J0D01*
G01*
X13650600Y-6919600D02*
X13730600Y-6999600D01*
X13730600Y-6919600D02*
X13650600Y-6999600D01*
X13730600Y-6959600D02*
G75*
G03*
X13730600Y-6959600I-40000J0D01*
G01*
X13795750Y-11738350D02*
X13875750Y-11818350D01*
X13875750Y-11738350D02*
X13795750Y-11818350D01*
X13875750Y-11778350D02*
G75*
G03*
X13875750Y-11778350I-40000J0D01*
G01*
X13795750Y-11992350D02*
X13875750Y-12072350D01*
X13875750Y-11992350D02*
X13795750Y-12072350D01*
X13875750Y-12032350D02*
G75*
G03*
X13875750Y-12032350I-40000J0D01*
G01*
X13795750Y-12246350D02*
X13875750Y-12326350D01*
X13875750Y-12246350D02*
X13795750Y-12326350D01*
X13875750Y-12286350D02*
G75*
G03*
X13875750Y-12286350I-40000J0D01*
G01*
X13795750Y-12754350D02*
X13875750Y-12834350D01*
X13875750Y-12754350D02*
X13795750Y-12834350D01*
X13875750Y-12794350D02*
G75*
G03*
X13875750Y-12794350I-40000J0D01*
G01*
X14303750Y-11738350D02*
X14383750Y-11818350D01*
X14383750Y-11738350D02*
X14303750Y-11818350D01*
X14383750Y-11778350D02*
G75*
G03*
X14383750Y-11778350I-40000J0D01*
G01*
X14303750Y-11992350D02*
X14383750Y-12072350D01*
X14383750Y-11992350D02*
X14303750Y-12072350D01*
X14383750Y-12032350D02*
G75*
G03*
X14383750Y-12032350I-40000J0D01*
G01*
X14303750Y-12246350D02*
X14383750Y-12326350D01*
X14383750Y-12246350D02*
X14303750Y-12326350D01*
X14383750Y-12286350D02*
G75*
G03*
X14383750Y-12286350I-40000J0D01*
G01*
X14303750Y-12754350D02*
X14383750Y-12834350D01*
X14383750Y-12754350D02*
X14303750Y-12834350D01*
X14383750Y-12794350D02*
G75*
G03*
X14383750Y-12794350I-40000J0D01*
G01*
D17*
X6833400Y-7849400D02*
X6933400Y-7949400D01*
X6933400Y-7849400D02*
X6833400Y-7949400D01*
X6883400Y-7849400D02*
X6883400Y-7949400D01*
X6833400Y-7899400D02*
X6933400Y-7899400D01*
X6833400Y-8103400D02*
X6933400Y-8203400D01*
X6933400Y-8103400D02*
X6833400Y-8203400D01*
X6883400Y-8103400D02*
X6883400Y-8203400D01*
X6833400Y-8153400D02*
X6933400Y-8153400D01*
X6833400Y-8357400D02*
X6933400Y-8457400D01*
X6933400Y-8357400D02*
X6833400Y-8457400D01*
X6883400Y-8357400D02*
X6883400Y-8457400D01*
X6833400Y-8407400D02*
X6933400Y-8407400D01*
X6833400Y-10643400D02*
X6933400Y-10743400D01*
X6933400Y-10643400D02*
X6833400Y-10743400D01*
X6883400Y-10643400D02*
X6883400Y-10743400D01*
X6833400Y-10693400D02*
X6933400Y-10693400D01*
X6833400Y-10897400D02*
X6933400Y-10997400D01*
X6933400Y-10897400D02*
X6833400Y-10997400D01*
X6883400Y-10897400D02*
X6883400Y-10997400D01*
X6833400Y-10947400D02*
X6933400Y-10947400D01*
X6833400Y-11151400D02*
X6933400Y-11251400D01*
X6933400Y-11151400D02*
X6833400Y-11251400D01*
X6883400Y-11151400D02*
X6883400Y-11251400D01*
X6833400Y-11201400D02*
X6933400Y-11201400D01*
X10567200Y-9475000D02*
X10667200Y-9575000D01*
X10667200Y-9475000D02*
X10567200Y-9575000D01*
X10617200Y-9475000D02*
X10617200Y-9575000D01*
X10567200Y-9525000D02*
X10667200Y-9525000D01*
X10592600Y-12472200D02*
X10692600Y-12572200D01*
X10692600Y-12472200D02*
X10592600Y-12572200D01*
X10642600Y-12472200D02*
X10642600Y-12572200D01*
X10592600Y-12522200D02*
X10692600Y-12522200D01*
X10846600Y-12472200D02*
X10946600Y-12572200D01*
X10946600Y-12472200D02*
X10846600Y-12572200D01*
X10896600Y-12472200D02*
X10896600Y-12572200D01*
X10846600Y-12522200D02*
X10946600Y-12522200D01*
X11100600Y-12472200D02*
X11200600Y-12572200D01*
X11200600Y-12472200D02*
X11100600Y-12572200D01*
X11150600Y-12472200D02*
X11150600Y-12572200D01*
X11100600Y-12522200D02*
X11200600Y-12522200D01*
X12599200Y-9475000D02*
X12699200Y-9575000D01*
X12699200Y-9475000D02*
X12599200Y-9575000D01*
X12649200Y-9475000D02*
X12649200Y-9575000D01*
X12599200Y-9525000D02*
X12699200Y-9525000D01*
X12980200Y-12218200D02*
X13080200Y-12318200D01*
X13080200Y-12218200D02*
X12980200Y-12318200D01*
X13030200Y-12218200D02*
X13030200Y-12318200D01*
X12980200Y-12268200D02*
X13080200Y-12268200D01*
X12980200Y-12472200D02*
X13080200Y-12572200D01*
X13080200Y-12472200D02*
X12980200Y-12572200D01*
X13030200Y-12472200D02*
X13030200Y-12572200D01*
X12980200Y-12522200D02*
X13080200Y-12522200D01*
X12980200Y-12726200D02*
X13080200Y-12826200D01*
X13080200Y-12726200D02*
X12980200Y-12826200D01*
X13030200Y-12726200D02*
X13030200Y-12826200D01*
X12980200Y-12776200D02*
X13080200Y-12776200D01*
X13363200Y-7392200D02*
X13463200Y-7492200D01*
X13463200Y-7392200D02*
X13363200Y-7492200D01*
X13413200Y-7392200D02*
X13413200Y-7492200D01*
X13363200Y-7442200D02*
X13463200Y-7442200D01*
X13363200Y-7646200D02*
X13463200Y-7746200D01*
X13463200Y-7646200D02*
X13363200Y-7746200D01*
X13413200Y-7646200D02*
X13413200Y-7746200D01*
X13363200Y-7696200D02*
X13463200Y-7696200D01*
X13363200Y-7900200D02*
X13463200Y-8000200D01*
X13463200Y-7900200D02*
X13363200Y-8000200D01*
X13413200Y-7900200D02*
X13413200Y-8000200D01*
X13363200Y-7950200D02*
X13463200Y-7950200D01*
X13363200Y-8154200D02*
X13463200Y-8254200D01*
X13463200Y-8154200D02*
X13363200Y-8254200D01*
X13413200Y-8154200D02*
X13413200Y-8254200D01*
X13363200Y-8204200D02*
X13463200Y-8204200D01*
X13363200Y-8408200D02*
X13463200Y-8508200D01*
X13463200Y-8408200D02*
X13363200Y-8508200D01*
X13413200Y-8408200D02*
X13413200Y-8508200D01*
X13363200Y-8458200D02*
X13463200Y-8458200D01*
X13363200Y-8662200D02*
X13463200Y-8762200D01*
X13463200Y-8662200D02*
X13363200Y-8762200D01*
X13413200Y-8662200D02*
X13413200Y-8762200D01*
X13363200Y-8712200D02*
X13463200Y-8712200D01*
X13363200Y-8916200D02*
X13463200Y-9016200D01*
X13463200Y-8916200D02*
X13363200Y-9016200D01*
X13413200Y-8916200D02*
X13413200Y-9016200D01*
X13363200Y-8966200D02*
X13463200Y-8966200D01*
X13363200Y-9170200D02*
X13463200Y-9270200D01*
X13463200Y-9170200D02*
X13363200Y-9270200D01*
X13413200Y-9170200D02*
X13413200Y-9270200D01*
X13363200Y-9220200D02*
X13463200Y-9220200D01*
X13363200Y-9424200D02*
X13463200Y-9524200D01*
X13463200Y-9424200D02*
X13363200Y-9524200D01*
X13413200Y-9424200D02*
X13413200Y-9524200D01*
X13363200Y-9474200D02*
X13463200Y-9474200D01*
X13363200Y-9678200D02*
X13463200Y-9778200D01*
X13463200Y-9678200D02*
X13363200Y-9778200D01*
X13413200Y-9678200D02*
X13413200Y-9778200D01*
X13363200Y-9728200D02*
X13463200Y-9728200D01*
X13363200Y-9932200D02*
X13463200Y-10032200D01*
X13463200Y-9932200D02*
X13363200Y-10032200D01*
X13413200Y-9932200D02*
X13413200Y-10032200D01*
X13363200Y-9982200D02*
X13463200Y-9982200D01*
X13363200Y-10186200D02*
X13463200Y-10286200D01*
X13463200Y-10186200D02*
X13363200Y-10286200D01*
X13413200Y-10186200D02*
X13413200Y-10286200D01*
X13363200Y-10236200D02*
X13463200Y-10236200D01*
X13363200Y-10440200D02*
X13463200Y-10540200D01*
X13463200Y-10440200D02*
X13363200Y-10540200D01*
X13413200Y-10440200D02*
X13413200Y-10540200D01*
X13363200Y-10490200D02*
X13463200Y-10490200D01*
X13363200Y-10694200D02*
X13463200Y-10794200D01*
X13463200Y-10694200D02*
X13363200Y-10794200D01*
X13413200Y-10694200D02*
X13413200Y-10794200D01*
X13363200Y-10744200D02*
X13463200Y-10744200D01*
X13363200Y-10948200D02*
X13463200Y-11048200D01*
X13463200Y-10948200D02*
X13363200Y-11048200D01*
X13413200Y-10948200D02*
X13413200Y-11048200D01*
X13363200Y-10998200D02*
X13463200Y-10998200D01*
X13617200Y-7392200D02*
X13717200Y-7492200D01*
X13717200Y-7392200D02*
X13617200Y-7492200D01*
X13667200Y-7392200D02*
X13667200Y-7492200D01*
X13617200Y-7442200D02*
X13717200Y-7442200D01*
X13617200Y-7646200D02*
X13717200Y-7746200D01*
X13717200Y-7646200D02*
X13617200Y-7746200D01*
X13667200Y-7646200D02*
X13667200Y-7746200D01*
X13617200Y-7696200D02*
X13717200Y-7696200D01*
X13617200Y-7900200D02*
X13717200Y-8000200D01*
X13717200Y-7900200D02*
X13617200Y-8000200D01*
X13667200Y-7900200D02*
X13667200Y-8000200D01*
X13617200Y-7950200D02*
X13717200Y-7950200D01*
X13617200Y-8154200D02*
X13717200Y-8254200D01*
X13717200Y-8154200D02*
X13617200Y-8254200D01*
X13667200Y-8154200D02*
X13667200Y-8254200D01*
X13617200Y-8204200D02*
X13717200Y-8204200D01*
X13617200Y-8408200D02*
X13717200Y-8508200D01*
X13717200Y-8408200D02*
X13617200Y-8508200D01*
X13667200Y-8408200D02*
X13667200Y-8508200D01*
X13617200Y-8458200D02*
X13717200Y-8458200D01*
X13617200Y-8662200D02*
X13717200Y-8762200D01*
X13717200Y-8662200D02*
X13617200Y-8762200D01*
X13667200Y-8662200D02*
X13667200Y-8762200D01*
X13617200Y-8712200D02*
X13717200Y-8712200D01*
X13617200Y-8916200D02*
X13717200Y-9016200D01*
X13717200Y-8916200D02*
X13617200Y-9016200D01*
X13667200Y-8916200D02*
X13667200Y-9016200D01*
X13617200Y-8966200D02*
X13717200Y-8966200D01*
X13617200Y-9170200D02*
X13717200Y-9270200D01*
X13717200Y-9170200D02*
X13617200Y-9270200D01*
X13667200Y-9170200D02*
X13667200Y-9270200D01*
X13617200Y-9220200D02*
X13717200Y-9220200D01*
X13617200Y-9424200D02*
X13717200Y-9524200D01*
X13717200Y-9424200D02*
X13617200Y-9524200D01*
X13667200Y-9424200D02*
X13667200Y-9524200D01*
X13617200Y-9474200D02*
X13717200Y-9474200D01*
X13617200Y-9678200D02*
X13717200Y-9778200D01*
X13717200Y-9678200D02*
X13617200Y-9778200D01*
X13667200Y-9678200D02*
X13667200Y-9778200D01*
X13617200Y-9728200D02*
X13717200Y-9728200D01*
X13617200Y-9932200D02*
X13717200Y-10032200D01*
X13717200Y-9932200D02*
X13617200Y-10032200D01*
X13667200Y-9932200D02*
X13667200Y-10032200D01*
X13617200Y-9982200D02*
X13717200Y-9982200D01*
X13617200Y-10186200D02*
X13717200Y-10286200D01*
X13717200Y-10186200D02*
X13617200Y-10286200D01*
X13667200Y-10186200D02*
X13667200Y-10286200D01*
X13617200Y-10236200D02*
X13717200Y-10236200D01*
X13617200Y-10440200D02*
X13717200Y-10540200D01*
X13717200Y-10440200D02*
X13617200Y-10540200D01*
X13667200Y-10440200D02*
X13667200Y-10540200D01*
X13617200Y-10490200D02*
X13717200Y-10490200D01*
X13617200Y-10694200D02*
X13717200Y-10794200D01*
X13717200Y-10694200D02*
X13617200Y-10794200D01*
X13667200Y-10694200D02*
X13667200Y-10794200D01*
X13617200Y-10744200D02*
X13717200Y-10744200D01*
X13617200Y-10948200D02*
X13717200Y-11048200D01*
X13717200Y-10948200D02*
X13617200Y-11048200D01*
X13667200Y-10948200D02*
X13667200Y-11048200D01*
X13617200Y-10998200D02*
X13717200Y-10998200D01*
X14072400Y-7392700D02*
X14172400Y-7492700D01*
X14172400Y-7392700D02*
X14072400Y-7492700D01*
X14122400Y-7392700D02*
X14122400Y-7492700D01*
X14072400Y-7442700D02*
X14172400Y-7442700D01*
X14072400Y-7646700D02*
X14172400Y-7746700D01*
X14172400Y-7646700D02*
X14072400Y-7746700D01*
X14122400Y-7646700D02*
X14122400Y-7746700D01*
X14072400Y-7696700D02*
X14172400Y-7696700D01*
X14072400Y-7900700D02*
X14172400Y-8000700D01*
X14172400Y-7900700D02*
X14072400Y-8000700D01*
X14122400Y-7900700D02*
X14122400Y-8000700D01*
X14072400Y-7950700D02*
X14172400Y-7950700D01*
X14072400Y-8154700D02*
X14172400Y-8254700D01*
X14172400Y-8154700D02*
X14072400Y-8254700D01*
X14122400Y-8154700D02*
X14122400Y-8254700D01*
X14072400Y-8204700D02*
X14172400Y-8204700D01*
X14072400Y-8408700D02*
X14172400Y-8508700D01*
X14172400Y-8408700D02*
X14072400Y-8508700D01*
X14122400Y-8408700D02*
X14122400Y-8508700D01*
X14072400Y-8458700D02*
X14172400Y-8458700D01*
X14072400Y-8662700D02*
X14172400Y-8762700D01*
X14172400Y-8662700D02*
X14072400Y-8762700D01*
X14122400Y-8662700D02*
X14122400Y-8762700D01*
X14072400Y-8712700D02*
X14172400Y-8712700D01*
X14072400Y-8916700D02*
X14172400Y-9016700D01*
X14172400Y-8916700D02*
X14072400Y-9016700D01*
X14122400Y-8916700D02*
X14122400Y-9016700D01*
X14072400Y-8966700D02*
X14172400Y-8966700D01*
X14072400Y-9170700D02*
X14172400Y-9270700D01*
X14172400Y-9170700D02*
X14072400Y-9270700D01*
X14122400Y-9170700D02*
X14122400Y-9270700D01*
X14072400Y-9220700D02*
X14172400Y-9220700D01*
X14072400Y-9424700D02*
X14172400Y-9524700D01*
X14172400Y-9424700D02*
X14072400Y-9524700D01*
X14122400Y-9424700D02*
X14122400Y-9524700D01*
X14072400Y-9474700D02*
X14172400Y-9474700D01*
X14072400Y-9678700D02*
X14172400Y-9778700D01*
X14172400Y-9678700D02*
X14072400Y-9778700D01*
X14122400Y-9678700D02*
X14122400Y-9778700D01*
X14072400Y-9728700D02*
X14172400Y-9728700D01*
X14072400Y-9932700D02*
X14172400Y-10032700D01*
X14172400Y-9932700D02*
X14072400Y-10032700D01*
X14122400Y-9932700D02*
X14122400Y-10032700D01*
X14072400Y-9982700D02*
X14172400Y-9982700D01*
X14072400Y-10186700D02*
X14172400Y-10286700D01*
X14172400Y-10186700D02*
X14072400Y-10286700D01*
X14122400Y-10186700D02*
X14122400Y-10286700D01*
X14072400Y-10236700D02*
X14172400Y-10236700D01*
X14072400Y-10440700D02*
X14172400Y-10540700D01*
X14172400Y-10440700D02*
X14072400Y-10540700D01*
X14122400Y-10440700D02*
X14122400Y-10540700D01*
X14072400Y-10490700D02*
X14172400Y-10490700D01*
X14072400Y-10694700D02*
X14172400Y-10794700D01*
X14172400Y-10694700D02*
X14072400Y-10794700D01*
X14122400Y-10694700D02*
X14122400Y-10794700D01*
X14072400Y-10744700D02*
X14172400Y-10744700D01*
X14072400Y-10948700D02*
X14172400Y-11048700D01*
X14172400Y-10948700D02*
X14072400Y-11048700D01*
X14122400Y-10948700D02*
X14122400Y-11048700D01*
X14072400Y-10998700D02*
X14172400Y-10998700D01*
X14326400Y-7392700D02*
X14426400Y-7492700D01*
X14426400Y-7392700D02*
X14326400Y-7492700D01*
X14376400Y-7392700D02*
X14376400Y-7492700D01*
X14326400Y-7442700D02*
X14426400Y-7442700D01*
X14326400Y-7646700D02*
X14426400Y-7746700D01*
X14426400Y-7646700D02*
X14326400Y-7746700D01*
X14376400Y-7646700D02*
X14376400Y-7746700D01*
X14326400Y-7696700D02*
X14426400Y-7696700D01*
X14326400Y-7900700D02*
X14426400Y-8000700D01*
X14426400Y-7900700D02*
X14326400Y-8000700D01*
X14376400Y-7900700D02*
X14376400Y-8000700D01*
X14326400Y-7950700D02*
X14426400Y-7950700D01*
X14326400Y-8154700D02*
X14426400Y-8254700D01*
X14426400Y-8154700D02*
X14326400Y-8254700D01*
X14376400Y-8154700D02*
X14376400Y-8254700D01*
X14326400Y-8204700D02*
X14426400Y-8204700D01*
X14326400Y-8408700D02*
X14426400Y-8508700D01*
X14426400Y-8408700D02*
X14326400Y-8508700D01*
X14376400Y-8408700D02*
X14376400Y-8508700D01*
X14326400Y-8458700D02*
X14426400Y-8458700D01*
X14326400Y-8662700D02*
X14426400Y-8762700D01*
X14426400Y-8662700D02*
X14326400Y-8762700D01*
X14376400Y-8662700D02*
X14376400Y-8762700D01*
X14326400Y-8712700D02*
X14426400Y-8712700D01*
X14326400Y-8916700D02*
X14426400Y-9016700D01*
X14426400Y-8916700D02*
X14326400Y-9016700D01*
X14376400Y-8916700D02*
X14376400Y-9016700D01*
X14326400Y-8966700D02*
X14426400Y-8966700D01*
X14326400Y-9170700D02*
X14426400Y-9270700D01*
X14426400Y-9170700D02*
X14326400Y-9270700D01*
X14376400Y-9170700D02*
X14376400Y-9270700D01*
X14326400Y-9220700D02*
X14426400Y-9220700D01*
X14326400Y-9424700D02*
X14426400Y-9524700D01*
X14426400Y-9424700D02*
X14326400Y-9524700D01*
X14376400Y-9424700D02*
X14376400Y-9524700D01*
X14326400Y-9474700D02*
X14426400Y-9474700D01*
X14326400Y-9678700D02*
X14426400Y-9778700D01*
X14426400Y-9678700D02*
X14326400Y-9778700D01*
X14376400Y-9678700D02*
X14376400Y-9778700D01*
X14326400Y-9728700D02*
X14426400Y-9728700D01*
X14326400Y-9932700D02*
X14426400Y-10032700D01*
X14426400Y-9932700D02*
X14326400Y-10032700D01*
X14376400Y-9932700D02*
X14376400Y-10032700D01*
X14326400Y-9982700D02*
X14426400Y-9982700D01*
X14326400Y-10186700D02*
X14426400Y-10286700D01*
X14426400Y-10186700D02*
X14326400Y-10286700D01*
X14376400Y-10186700D02*
X14376400Y-10286700D01*
X14326400Y-10236700D02*
X14426400Y-10236700D01*
X14326400Y-10440700D02*
X14426400Y-10540700D01*
X14426400Y-10440700D02*
X14326400Y-10540700D01*
X14376400Y-10440700D02*
X14376400Y-10540700D01*
X14326400Y-10490700D02*
X14426400Y-10490700D01*
X14326400Y-10694700D02*
X14426400Y-10794700D01*
X14426400Y-10694700D02*
X14326400Y-10794700D01*
X14376400Y-10694700D02*
X14376400Y-10794700D01*
X14326400Y-10744700D02*
X14426400Y-10744700D01*
X14326400Y-10948700D02*
X14426400Y-11048700D01*
X14426400Y-10948700D02*
X14326400Y-11048700D01*
X14376400Y-10948700D02*
X14376400Y-11048700D01*
X14326400Y-10998700D02*
X14426400Y-10998700D01*
D18*
X10706450Y-6929873D02*
X10816450Y-7039873D01*
X10816450Y-6929873D02*
X10706450Y-7039873D01*
X10800341Y-7023765D02*
X10800341Y-6945982D01*
X10722559Y-6945982D01*
X10722559Y-7023765D01*
X10800341Y-7023765D01*
X10960450Y-6929873D02*
X11070450Y-7039873D01*
X11070450Y-6929873D02*
X10960450Y-7039873D01*
X11054341Y-7023765D02*
X11054341Y-6945982D01*
X10976559Y-6945982D01*
X10976559Y-7023765D01*
X11054341Y-7023765D01*
X11443950Y-6676000D02*
X11553950Y-6786000D01*
X11553950Y-6676000D02*
X11443950Y-6786000D01*
X11537841Y-6769891D02*
X11537841Y-6692109D01*
X11460059Y-6692109D01*
X11460059Y-6769891D01*
X11537841Y-6769891D01*
X11443950Y-6930000D02*
X11553950Y-7040000D01*
X11553950Y-6930000D02*
X11443950Y-7040000D01*
X11537841Y-7023891D02*
X11537841Y-6946109D01*
X11460059Y-6946109D01*
X11460059Y-7023891D01*
X11537841Y-7023891D01*
X13381600Y-11451200D02*
X13491600Y-11561200D01*
X13491600Y-11451200D02*
X13381600Y-11561200D01*
X13475491Y-11545091D02*
X13475491Y-11467309D01*
X13397709Y-11467309D01*
X13397709Y-11545091D01*
X13475491Y-11545091D01*
X13381600Y-11705200D02*
X13491600Y-11815200D01*
X13491600Y-11705200D02*
X13381600Y-11815200D01*
X13475491Y-11799091D02*
X13475491Y-11721309D01*
X13397709Y-11721309D01*
X13397709Y-11799091D01*
X13475491Y-11799091D01*
X13381600Y-12238600D02*
X13491600Y-12348600D01*
X13491600Y-12238600D02*
X13381600Y-12348600D01*
X13475491Y-12332491D02*
X13475491Y-12254709D01*
X13397709Y-12254709D01*
X13397709Y-12332491D01*
X13475491Y-12332491D01*
X13381600Y-12492600D02*
X13491600Y-12602600D01*
X13491600Y-12492600D02*
X13381600Y-12602600D01*
X13475491Y-12586491D02*
X13475491Y-12508709D01*
X13397709Y-12508709D01*
X13397709Y-12586491D01*
X13475491Y-12586491D01*
D19*
X9568100Y-12590700D02*
X9685100Y-12707700D01*
X9685100Y-12590700D02*
X9568100Y-12707700D01*
X9626600Y-12707700D02*
X9685100Y-12649200D01*
X9626600Y-12590700D01*
X9568100Y-12649200D01*
X9626600Y-12707700D01*
X12209700Y-12590700D02*
X12326700Y-12707700D01*
X12326700Y-12590700D02*
X12209700Y-12707700D01*
X12268200Y-12707700D02*
X12326700Y-12649200D01*
X12268200Y-12590700D01*
X12209700Y-12649200D01*
X12268200Y-12707700D01*
D20*
X5409200Y-6742200D02*
X5409200Y-6872200D01*
X5344200Y-6807200D02*
X5474200Y-6807200D01*
X5474200Y-6807200D02*
G75*
G03*
X5474200Y-6807200I-65000J0D01*
G01*
X5409200Y-7758200D02*
X5409200Y-7888200D01*
X5344200Y-7823200D02*
X5474200Y-7823200D01*
X5474200Y-7823200D02*
G75*
G03*
X5474200Y-7823200I-65000J0D01*
G01*
X5409200Y-8088400D02*
X5409200Y-8218400D01*
X5344200Y-8153400D02*
X5474200Y-8153400D01*
X5474200Y-8153400D02*
G75*
G03*
X5474200Y-8153400I-65000J0D01*
G01*
X5409200Y-9104400D02*
X5409200Y-9234400D01*
X5344200Y-9169400D02*
X5474200Y-9169400D01*
X5474200Y-9169400D02*
G75*
G03*
X5474200Y-9169400I-65000J0D01*
G01*
X5409200Y-9536200D02*
X5409200Y-9666200D01*
X5344200Y-9601200D02*
X5474200Y-9601200D01*
X5474200Y-9601200D02*
G75*
G03*
X5474200Y-9601200I-65000J0D01*
G01*
X5409200Y-10552200D02*
X5409200Y-10682200D01*
X5344200Y-10617200D02*
X5474200Y-10617200D01*
X5474200Y-10617200D02*
G75*
G03*
X5474200Y-10617200I-65000J0D01*
G01*
X5409200Y-10882400D02*
X5409200Y-11012400D01*
X5344200Y-10947400D02*
X5474200Y-10947400D01*
X5474200Y-10947400D02*
G75*
G03*
X5474200Y-10947400I-65000J0D01*
G01*
X5409200Y-11898400D02*
X5409200Y-12028400D01*
X5344200Y-11963400D02*
X5474200Y-11963400D01*
X5474200Y-11963400D02*
G75*
G03*
X5474200Y-11963400I-65000J0D01*
G01*
X6425200Y-6742200D02*
X6425200Y-6872200D01*
X6360200Y-6807200D02*
X6490200Y-6807200D01*
X6490200Y-6807200D02*
G75*
G03*
X6490200Y-6807200I-65000J0D01*
G01*
X6425200Y-7758200D02*
X6425200Y-7888200D01*
X6360200Y-7823200D02*
X6490200Y-7823200D01*
X6490200Y-7823200D02*
G75*
G03*
X6490200Y-7823200I-65000J0D01*
G01*
X6425200Y-8088400D02*
X6425200Y-8218400D01*
X6360200Y-8153400D02*
X6490200Y-8153400D01*
X6490200Y-8153400D02*
G75*
G03*
X6490200Y-8153400I-65000J0D01*
G01*
X6425200Y-9104400D02*
X6425200Y-9234400D01*
X6360200Y-9169400D02*
X6490200Y-9169400D01*
X6490200Y-9169400D02*
G75*
G03*
X6490200Y-9169400I-65000J0D01*
G01*
X6425200Y-9536200D02*
X6425200Y-9666200D01*
X6360200Y-9601200D02*
X6490200Y-9601200D01*
X6490200Y-9601200D02*
G75*
G03*
X6490200Y-9601200I-65000J0D01*
G01*
X6425200Y-10552200D02*
X6425200Y-10682200D01*
X6360200Y-10617200D02*
X6490200Y-10617200D01*
X6490200Y-10617200D02*
G75*
G03*
X6490200Y-10617200I-65000J0D01*
G01*
X6425200Y-10882400D02*
X6425200Y-11012400D01*
X6360200Y-10947400D02*
X6490200Y-10947400D01*
X6490200Y-10947400D02*
G75*
G03*
X6490200Y-10947400I-65000J0D01*
G01*
X6425200Y-11898400D02*
X6425200Y-12028400D01*
X6360200Y-11963400D02*
X6490200Y-11963400D01*
X6490200Y-11963400D02*
G75*
G03*
X6490200Y-11963400I-65000J0D01*
G01*
D21*
X9304330Y-12442930D02*
X9304330Y-12347470D01*
X9208870Y-12347470D01*
X9208870Y-12442930D01*
X9304330Y-12442930D01*
X9324100Y-12395200D02*
G75*
G03*
X9324100Y-12395200I-67500J0D01*
G01*
X9304330Y-12950930D02*
X9304330Y-12855470D01*
X9208870Y-12855470D01*
X9208870Y-12950930D01*
X9304330Y-12950930D01*
X9324100Y-12903200D02*
G75*
G03*
X9324100Y-12903200I-67500J0D01*
G01*
X10044330Y-12442930D02*
X10044330Y-12347470D01*
X9948870Y-12347470D01*
X9948870Y-12442930D01*
X10044330Y-12442930D01*
X10064100Y-12395200D02*
G75*
G03*
X10064100Y-12395200I-67500J0D01*
G01*
X10044330Y-12950930D02*
X10044330Y-12855470D01*
X9948870Y-12855470D01*
X9948870Y-12950930D01*
X10044330Y-12950930D01*
X10064100Y-12903200D02*
G75*
G03*
X10064100Y-12903200I-67500J0D01*
G01*
X11945930Y-12442930D02*
X11945930Y-12347470D01*
X11850470Y-12347470D01*
X11850470Y-12442930D01*
X11945930Y-12442930D01*
X11965700Y-12395200D02*
G75*
G03*
X11965700Y-12395200I-67500J0D01*
G01*
X11945930Y-12950930D02*
X11945930Y-12855470D01*
X11850470Y-12855470D01*
X11850470Y-12950930D01*
X11945930Y-12950930D01*
X11965700Y-12903200D02*
G75*
G03*
X11965700Y-12903200I-67500J0D01*
G01*
X12685930Y-12442930D02*
X12685930Y-12347470D01*
X12590470Y-12347470D01*
X12590470Y-12442930D01*
X12685930Y-12442930D01*
X12705700Y-12395200D02*
G75*
G03*
X12705700Y-12395200I-67500J0D01*
G01*
X12685930Y-12950930D02*
X12685930Y-12855470D01*
X12590470Y-12855470D01*
X12590470Y-12950930D01*
X12685930Y-12950930D01*
X12705700Y-12903200D02*
G75*
G03*
X12705700Y-12903200I-67500J0D01*
G01*
D22*
X6045200Y-7425200D02*
X6155200Y-7315200D01*
X6045200Y-7205200D01*
X5935200Y-7315200D01*
X6045200Y-7425200D01*
X6155200Y-7315200D02*
G75*
G03*
X6155200Y-7315200I-110000J0D01*
G01*
X6045200Y-8771400D02*
X6155200Y-8661400D01*
X6045200Y-8551400D01*
X5935200Y-8661400D01*
X6045200Y-8771400D01*
X6155200Y-8661400D02*
G75*
G03*
X6155200Y-8661400I-110000J0D01*
G01*
X6045200Y-10219200D02*
X6155200Y-10109200D01*
X6045200Y-9999200D01*
X5935200Y-10109200D01*
X6045200Y-10219200D01*
X6155200Y-10109200D02*
G75*
G03*
X6155200Y-10109200I-110000J0D01*
G01*
X6045200Y-11565400D02*
X6155200Y-11455400D01*
X6045200Y-11345400D01*
X5935200Y-11455400D01*
X6045200Y-11565400D01*
X6155200Y-11455400D02*
G75*
G03*
X6155200Y-11455400I-110000J0D01*
G01*
D11*
X4928719Y-13367976D02*
X4928719Y-13167976D01*
X4976338Y-13167976D01*
X5004910Y-13177500D01*
X5023957Y-13196548D01*
X5033481Y-13215595D01*
X5043005Y-13253690D01*
X5043005Y-13282262D01*
X5033481Y-13320357D01*
X5023957Y-13339405D01*
X5004910Y-13358452D01*
X4976338Y-13367976D01*
X4928719Y-13367976D01*
X5128719Y-13367976D02*
X5128719Y-13234643D01*
X5128719Y-13272738D02*
X5138243Y-13253690D01*
X5147767Y-13244167D01*
X5166814Y-13234643D01*
X5185862Y-13234643D01*
X5252529Y-13367976D02*
X5252529Y-13234643D01*
X5252529Y-13167976D02*
X5243005Y-13177500D01*
X5252529Y-13187024D01*
X5262052Y-13177500D01*
X5252529Y-13167976D01*
X5252529Y-13187024D01*
X5376338Y-13367976D02*
X5357290Y-13358452D01*
X5347767Y-13339405D01*
X5347767Y-13167976D01*
X5481100Y-13367976D02*
X5462052Y-13358452D01*
X5452529Y-13339405D01*
X5452529Y-13167976D01*
X5709671Y-13367976D02*
X5709671Y-13167976D01*
X5776338Y-13310833D01*
X5843005Y-13167976D01*
X5843005Y-13367976D01*
X6023957Y-13367976D02*
X6023957Y-13263214D01*
X6014433Y-13244167D01*
X5995386Y-13234643D01*
X5957290Y-13234643D01*
X5938243Y-13244167D01*
X6023957Y-13358452D02*
X6004909Y-13367976D01*
X5957290Y-13367976D01*
X5938243Y-13358452D01*
X5928719Y-13339405D01*
X5928719Y-13320357D01*
X5938243Y-13301309D01*
X5957290Y-13291786D01*
X6004909Y-13291786D01*
X6023957Y-13282262D01*
X6119195Y-13234643D02*
X6119195Y-13434643D01*
X6119195Y-13244167D02*
X6138243Y-13234643D01*
X6176338Y-13234643D01*
X6195386Y-13244167D01*
X6204909Y-13253690D01*
X6214433Y-13272738D01*
X6214433Y-13329881D01*
X6204909Y-13348928D01*
X6195386Y-13358452D01*
X6176338Y-13367976D01*
X6138243Y-13367976D01*
X6119195Y-13358452D01*
X6300148Y-13348928D02*
X6309671Y-13358452D01*
X6300148Y-13367976D01*
X6290624Y-13358452D01*
X6300148Y-13348928D01*
X6300148Y-13367976D01*
X6300148Y-13244167D02*
X6309671Y-13253690D01*
X6300148Y-13263214D01*
X6290624Y-13253690D01*
X6300148Y-13244167D01*
X6300148Y-13263214D01*
D12*
X4631100Y-13677500D02*
X4671100Y-13717500D01*
X4671100Y-13677500D02*
X4631100Y-13717500D01*
D11*
X4966814Y-13587976D02*
X4985862Y-13587976D01*
X5004910Y-13597500D01*
X5014433Y-13607024D01*
X5023957Y-13626071D01*
X5033481Y-13664167D01*
X5033481Y-13711786D01*
X5023957Y-13749881D01*
X5014433Y-13768928D01*
X5004910Y-13778452D01*
X4985862Y-13787976D01*
X4966814Y-13787976D01*
X4947767Y-13778452D01*
X4938243Y-13768928D01*
X4928719Y-13749881D01*
X4919195Y-13711786D01*
X4919195Y-13664167D01*
X4928719Y-13626071D01*
X4938243Y-13607024D01*
X4947767Y-13597500D01*
X4966814Y-13587976D01*
X5119195Y-13768928D02*
X5128719Y-13778452D01*
X5119195Y-13787976D01*
X5109671Y-13778452D01*
X5119195Y-13768928D01*
X5119195Y-13787976D01*
X5300148Y-13654643D02*
X5300148Y-13787976D01*
X5252529Y-13578452D02*
X5204910Y-13721309D01*
X5328719Y-13721309D01*
X5443005Y-13587976D02*
X5462052Y-13587976D01*
X5481100Y-13597500D01*
X5490624Y-13607024D01*
X5500148Y-13626071D01*
X5509671Y-13664167D01*
X5509671Y-13711786D01*
X5500148Y-13749881D01*
X5490624Y-13768928D01*
X5481100Y-13778452D01*
X5462052Y-13787976D01*
X5443005Y-13787976D01*
X5423957Y-13778452D01*
X5414433Y-13768928D01*
X5404910Y-13749881D01*
X5395386Y-13711786D01*
X5395386Y-13664167D01*
X5404910Y-13626071D01*
X5414433Y-13607024D01*
X5423957Y-13597500D01*
X5443005Y-13587976D01*
X5633481Y-13587976D02*
X5652528Y-13587976D01*
X5671576Y-13597500D01*
X5681100Y-13607024D01*
X5690624Y-13626071D01*
X5700148Y-13664167D01*
X5700148Y-13711786D01*
X5690624Y-13749881D01*
X5681100Y-13768928D01*
X5671576Y-13778452D01*
X5652528Y-13787976D01*
X5633481Y-13787976D01*
X5614433Y-13778452D01*
X5604909Y-13768928D01*
X5595386Y-13749881D01*
X5585862Y-13711786D01*
X5585862Y-13664167D01*
X5595386Y-13626071D01*
X5604909Y-13607024D01*
X5614433Y-13597500D01*
X5633481Y-13587976D01*
X5785862Y-13787976D02*
X5785862Y-13654643D01*
X5785862Y-13673690D02*
X5795386Y-13664167D01*
X5814433Y-13654643D01*
X5843005Y-13654643D01*
X5862052Y-13664167D01*
X5871576Y-13683214D01*
X5871576Y-13787976D01*
X5871576Y-13683214D02*
X5881100Y-13664167D01*
X5900148Y-13654643D01*
X5928719Y-13654643D01*
X5947767Y-13664167D01*
X5957290Y-13683214D01*
X5957290Y-13787976D01*
X6052528Y-13787976D02*
X6052528Y-13654643D01*
X6052528Y-13673690D02*
X6062052Y-13664167D01*
X6081100Y-13654643D01*
X6109671Y-13654643D01*
X6128719Y-13664167D01*
X6138243Y-13683214D01*
X6138243Y-13787976D01*
X6138243Y-13683214D02*
X6147767Y-13664167D01*
X6166814Y-13654643D01*
X6195386Y-13654643D01*
X6214433Y-13664167D01*
X6223957Y-13683214D01*
X6223957Y-13787976D01*
X6614433Y-13578452D02*
X6443005Y-13835595D01*
X6871576Y-13587976D02*
X6890624Y-13587976D01*
X6909671Y-13597500D01*
X6919195Y-13607024D01*
X6928719Y-13626071D01*
X6938243Y-13664167D01*
X6938243Y-13711786D01*
X6928719Y-13749881D01*
X6919195Y-13768928D01*
X6909671Y-13778452D01*
X6890624Y-13787976D01*
X6871576Y-13787976D01*
X6852528Y-13778452D01*
X6843005Y-13768928D01*
X6833481Y-13749881D01*
X6823957Y-13711786D01*
X6823957Y-13664167D01*
X6833481Y-13626071D01*
X6843005Y-13607024D01*
X6852528Y-13597500D01*
X6871576Y-13587976D01*
X7023957Y-13768928D02*
X7033481Y-13778452D01*
X7023957Y-13787976D01*
X7014433Y-13778452D01*
X7023957Y-13768928D01*
X7023957Y-13787976D01*
X7157290Y-13587976D02*
X7176338Y-13587976D01*
X7195386Y-13597500D01*
X7204909Y-13607024D01*
X7214433Y-13626071D01*
X7223957Y-13664167D01*
X7223957Y-13711786D01*
X7214433Y-13749881D01*
X7204909Y-13768928D01*
X7195386Y-13778452D01*
X7176338Y-13787976D01*
X7157290Y-13787976D01*
X7138243Y-13778452D01*
X7128719Y-13768928D01*
X7119195Y-13749881D01*
X7109671Y-13711786D01*
X7109671Y-13664167D01*
X7119195Y-13626071D01*
X7128719Y-13607024D01*
X7138243Y-13597500D01*
X7157290Y-13587976D01*
X7414433Y-13787976D02*
X7300148Y-13787976D01*
X7357290Y-13787976D02*
X7357290Y-13587976D01*
X7338243Y-13616548D01*
X7319195Y-13635595D01*
X7300148Y-13645119D01*
X7595386Y-13587976D02*
X7500148Y-13587976D01*
X7490624Y-13683214D01*
X7500148Y-13673690D01*
X7519195Y-13664167D01*
X7566814Y-13664167D01*
X7585862Y-13673690D01*
X7595386Y-13683214D01*
X7604909Y-13702262D01*
X7604909Y-13749881D01*
X7595386Y-13768928D01*
X7585862Y-13778452D01*
X7566814Y-13787976D01*
X7519195Y-13787976D01*
X7500148Y-13778452D01*
X7490624Y-13768928D01*
X7671576Y-13587976D02*
X7804909Y-13587976D01*
X7719195Y-13787976D01*
X7871576Y-13587976D02*
X7871576Y-13626071D01*
X7947767Y-13587976D02*
X7947767Y-13626071D01*
X8243005Y-13864167D02*
X8233481Y-13854643D01*
X8214433Y-13826071D01*
X8204909Y-13807024D01*
X8195386Y-13778452D01*
X8185862Y-13730833D01*
X8185862Y-13692738D01*
X8195386Y-13645119D01*
X8204909Y-13616548D01*
X8214433Y-13597500D01*
X8233481Y-13568928D01*
X8243005Y-13559405D01*
X8414433Y-13587976D02*
X8319195Y-13587976D01*
X8309671Y-13683214D01*
X8319195Y-13673690D01*
X8338243Y-13664167D01*
X8385862Y-13664167D01*
X8404910Y-13673690D01*
X8414433Y-13683214D01*
X8423957Y-13702262D01*
X8423957Y-13749881D01*
X8414433Y-13768928D01*
X8404910Y-13778452D01*
X8385862Y-13787976D01*
X8338243Y-13787976D01*
X8319195Y-13778452D01*
X8309671Y-13768928D01*
X8595386Y-13654643D02*
X8595386Y-13787976D01*
X8547767Y-13578452D02*
X8500148Y-13721309D01*
X8623957Y-13721309D01*
X8852529Y-13787976D02*
X8852529Y-13587976D01*
X8938243Y-13787976D02*
X8938243Y-13683214D01*
X8928719Y-13664167D01*
X8909671Y-13654643D01*
X8881100Y-13654643D01*
X8862052Y-13664167D01*
X8852529Y-13673690D01*
X9062052Y-13787976D02*
X9043005Y-13778452D01*
X9033481Y-13768928D01*
X9023957Y-13749881D01*
X9023957Y-13692738D01*
X9033481Y-13673690D01*
X9043005Y-13664167D01*
X9062052Y-13654643D01*
X9090624Y-13654643D01*
X9109671Y-13664167D01*
X9119195Y-13673690D01*
X9128719Y-13692738D01*
X9128719Y-13749881D01*
X9119195Y-13768928D01*
X9109671Y-13778452D01*
X9090624Y-13787976D01*
X9062052Y-13787976D01*
X9243005Y-13787976D02*
X9223957Y-13778452D01*
X9214433Y-13759405D01*
X9214433Y-13587976D01*
X9395386Y-13778452D02*
X9376338Y-13787976D01*
X9338243Y-13787976D01*
X9319195Y-13778452D01*
X9309671Y-13759405D01*
X9309671Y-13683214D01*
X9319195Y-13664167D01*
X9338243Y-13654643D01*
X9376338Y-13654643D01*
X9395386Y-13664167D01*
X9404910Y-13683214D01*
X9404910Y-13702262D01*
X9309671Y-13721309D01*
X9481100Y-13778452D02*
X9500148Y-13787976D01*
X9538243Y-13787976D01*
X9557290Y-13778452D01*
X9566814Y-13759405D01*
X9566814Y-13749881D01*
X9557290Y-13730833D01*
X9538243Y-13721309D01*
X9509671Y-13721309D01*
X9490624Y-13711786D01*
X9481100Y-13692738D01*
X9481100Y-13683214D01*
X9490624Y-13664167D01*
X9509671Y-13654643D01*
X9538243Y-13654643D01*
X9557290Y-13664167D01*
X9633481Y-13864167D02*
X9643005Y-13854643D01*
X9662052Y-13826071D01*
X9671576Y-13807024D01*
X9681100Y-13778452D01*
X9690624Y-13730833D01*
X9690624Y-13692738D01*
X9681100Y-13645119D01*
X9671576Y-13616548D01*
X9662052Y-13597500D01*
X9643005Y-13568928D01*
X9633481Y-13559405D01*
D12*
X4671100Y-13961500D02*
G75*
G03*
X4671100Y-13961500I-20000J0D01*
G01*
D11*
X4966814Y-13851976D02*
X4985862Y-13851976D01*
X5004910Y-13861500D01*
X5014433Y-13871024D01*
X5023957Y-13890071D01*
X5033481Y-13928167D01*
X5033481Y-13975786D01*
X5023957Y-14013881D01*
X5014433Y-14032928D01*
X5004910Y-14042452D01*
X4985862Y-14051976D01*
X4966814Y-14051976D01*
X4947767Y-14042452D01*
X4938243Y-14032928D01*
X4928719Y-14013881D01*
X4919195Y-13975786D01*
X4919195Y-13928167D01*
X4928719Y-13890071D01*
X4938243Y-13871024D01*
X4947767Y-13861500D01*
X4966814Y-13851976D01*
X5119195Y-14032928D02*
X5128719Y-14042452D01*
X5119195Y-14051976D01*
X5109671Y-14042452D01*
X5119195Y-14032928D01*
X5119195Y-14051976D01*
X5300148Y-13918643D02*
X5300148Y-14051976D01*
X5252529Y-13842452D02*
X5204910Y-13985309D01*
X5328719Y-13985309D01*
X5443005Y-13851976D02*
X5462052Y-13851976D01*
X5481100Y-13861500D01*
X5490624Y-13871024D01*
X5500148Y-13890071D01*
X5509671Y-13928167D01*
X5509671Y-13975786D01*
X5500148Y-14013881D01*
X5490624Y-14032928D01*
X5481100Y-14042452D01*
X5462052Y-14051976D01*
X5443005Y-14051976D01*
X5423957Y-14042452D01*
X5414433Y-14032928D01*
X5404910Y-14013881D01*
X5395386Y-13975786D01*
X5395386Y-13928167D01*
X5404910Y-13890071D01*
X5414433Y-13871024D01*
X5423957Y-13861500D01*
X5443005Y-13851976D01*
X5633481Y-13851976D02*
X5652528Y-13851976D01*
X5671576Y-13861500D01*
X5681100Y-13871024D01*
X5690624Y-13890071D01*
X5700148Y-13928167D01*
X5700148Y-13975786D01*
X5690624Y-14013881D01*
X5681100Y-14032928D01*
X5671576Y-14042452D01*
X5652528Y-14051976D01*
X5633481Y-14051976D01*
X5614433Y-14042452D01*
X5604909Y-14032928D01*
X5595386Y-14013881D01*
X5585862Y-13975786D01*
X5585862Y-13928167D01*
X5595386Y-13890071D01*
X5604909Y-13871024D01*
X5614433Y-13861500D01*
X5633481Y-13851976D01*
X5785862Y-14051976D02*
X5785862Y-13918643D01*
X5785862Y-13937690D02*
X5795386Y-13928167D01*
X5814433Y-13918643D01*
X5843005Y-13918643D01*
X5862052Y-13928167D01*
X5871576Y-13947214D01*
X5871576Y-14051976D01*
X5871576Y-13947214D02*
X5881100Y-13928167D01*
X5900148Y-13918643D01*
X5928719Y-13918643D01*
X5947767Y-13928167D01*
X5957290Y-13947214D01*
X5957290Y-14051976D01*
X6052528Y-14051976D02*
X6052528Y-13918643D01*
X6052528Y-13937690D02*
X6062052Y-13928167D01*
X6081100Y-13918643D01*
X6109671Y-13918643D01*
X6128719Y-13928167D01*
X6138243Y-13947214D01*
X6138243Y-14051976D01*
X6138243Y-13947214D02*
X6147767Y-13928167D01*
X6166814Y-13918643D01*
X6195386Y-13918643D01*
X6214433Y-13928167D01*
X6223957Y-13947214D01*
X6223957Y-14051976D01*
X6614433Y-13842452D02*
X6443005Y-14099595D01*
X6871576Y-13851976D02*
X6890624Y-13851976D01*
X6909671Y-13861500D01*
X6919195Y-13871024D01*
X6928719Y-13890071D01*
X6938243Y-13928167D01*
X6938243Y-13975786D01*
X6928719Y-14013881D01*
X6919195Y-14032928D01*
X6909671Y-14042452D01*
X6890624Y-14051976D01*
X6871576Y-14051976D01*
X6852528Y-14042452D01*
X6843005Y-14032928D01*
X6833481Y-14013881D01*
X6823957Y-13975786D01*
X6823957Y-13928167D01*
X6833481Y-13890071D01*
X6843005Y-13871024D01*
X6852528Y-13861500D01*
X6871576Y-13851976D01*
X7023957Y-14032928D02*
X7033481Y-14042452D01*
X7023957Y-14051976D01*
X7014433Y-14042452D01*
X7023957Y-14032928D01*
X7023957Y-14051976D01*
X7157290Y-13851976D02*
X7176338Y-13851976D01*
X7195386Y-13861500D01*
X7204909Y-13871024D01*
X7214433Y-13890071D01*
X7223957Y-13928167D01*
X7223957Y-13975786D01*
X7214433Y-14013881D01*
X7204909Y-14032928D01*
X7195386Y-14042452D01*
X7176338Y-14051976D01*
X7157290Y-14051976D01*
X7138243Y-14042452D01*
X7128719Y-14032928D01*
X7119195Y-14013881D01*
X7109671Y-13975786D01*
X7109671Y-13928167D01*
X7119195Y-13890071D01*
X7128719Y-13871024D01*
X7138243Y-13861500D01*
X7157290Y-13851976D01*
X7414433Y-14051976D02*
X7300148Y-14051976D01*
X7357290Y-14051976D02*
X7357290Y-13851976D01*
X7338243Y-13880548D01*
X7319195Y-13899595D01*
X7300148Y-13909119D01*
X7595386Y-13851976D02*
X7500148Y-13851976D01*
X7490624Y-13947214D01*
X7500148Y-13937690D01*
X7519195Y-13928167D01*
X7566814Y-13928167D01*
X7585862Y-13937690D01*
X7595386Y-13947214D01*
X7604909Y-13966262D01*
X7604909Y-14013881D01*
X7595386Y-14032928D01*
X7585862Y-14042452D01*
X7566814Y-14051976D01*
X7519195Y-14051976D01*
X7500148Y-14042452D01*
X7490624Y-14032928D01*
X7671576Y-13851976D02*
X7804909Y-13851976D01*
X7719195Y-14051976D01*
X7871576Y-13851976D02*
X7871576Y-13890071D01*
X7947767Y-13851976D02*
X7947767Y-13890071D01*
X8243005Y-14128167D02*
X8233481Y-14118643D01*
X8214433Y-14090071D01*
X8204909Y-14071024D01*
X8195386Y-14042452D01*
X8185862Y-13994833D01*
X8185862Y-13956738D01*
X8195386Y-13909119D01*
X8204909Y-13880548D01*
X8214433Y-13861500D01*
X8233481Y-13832928D01*
X8243005Y-13823405D01*
X8423957Y-14051976D02*
X8309671Y-14051976D01*
X8366814Y-14051976D02*
X8366814Y-13851976D01*
X8347767Y-13880548D01*
X8328719Y-13899595D01*
X8309671Y-13909119D01*
X8595386Y-13851976D02*
X8557290Y-13851976D01*
X8538243Y-13861500D01*
X8528719Y-13871024D01*
X8509671Y-13899595D01*
X8500148Y-13937690D01*
X8500148Y-14013881D01*
X8509671Y-14032928D01*
X8519195Y-14042452D01*
X8538243Y-14051976D01*
X8576338Y-14051976D01*
X8595386Y-14042452D01*
X8604910Y-14032928D01*
X8614433Y-14013881D01*
X8614433Y-13966262D01*
X8604910Y-13947214D01*
X8595386Y-13937690D01*
X8576338Y-13928167D01*
X8538243Y-13928167D01*
X8519195Y-13937690D01*
X8509671Y-13947214D01*
X8500148Y-13966262D01*
X8852529Y-14051976D02*
X8852529Y-13851976D01*
X8938243Y-14051976D02*
X8938243Y-13947214D01*
X8928719Y-13928167D01*
X8909671Y-13918643D01*
X8881100Y-13918643D01*
X8862052Y-13928167D01*
X8852529Y-13937690D01*
X9062052Y-14051976D02*
X9043005Y-14042452D01*
X9033481Y-14032928D01*
X9023957Y-14013881D01*
X9023957Y-13956738D01*
X9033481Y-13937690D01*
X9043005Y-13928167D01*
X9062052Y-13918643D01*
X9090624Y-13918643D01*
X9109671Y-13928167D01*
X9119195Y-13937690D01*
X9128719Y-13956738D01*
X9128719Y-14013881D01*
X9119195Y-14032928D01*
X9109671Y-14042452D01*
X9090624Y-14051976D01*
X9062052Y-14051976D01*
X9243005Y-14051976D02*
X9223957Y-14042452D01*
X9214433Y-14023405D01*
X9214433Y-13851976D01*
X9395386Y-14042452D02*
X9376338Y-14051976D01*
X9338243Y-14051976D01*
X9319195Y-14042452D01*
X9309671Y-14023405D01*
X9309671Y-13947214D01*
X9319195Y-13928167D01*
X9338243Y-13918643D01*
X9376338Y-13918643D01*
X9395386Y-13928167D01*
X9404910Y-13947214D01*
X9404910Y-13966262D01*
X9309671Y-13985309D01*
X9481100Y-14042452D02*
X9500148Y-14051976D01*
X9538243Y-14051976D01*
X9557290Y-14042452D01*
X9566814Y-14023405D01*
X9566814Y-14013881D01*
X9557290Y-13994833D01*
X9538243Y-13985309D01*
X9509671Y-13985309D01*
X9490624Y-13975786D01*
X9481100Y-13956738D01*
X9481100Y-13947214D01*
X9490624Y-13928167D01*
X9509671Y-13918643D01*
X9538243Y-13918643D01*
X9557290Y-13928167D01*
X9633481Y-14128167D02*
X9643005Y-14118643D01*
X9662052Y-14090071D01*
X9671576Y-14071024D01*
X9681100Y-14042452D01*
X9690624Y-13994833D01*
X9690624Y-13956738D01*
X9681100Y-13909119D01*
X9671576Y-13880548D01*
X9662052Y-13861500D01*
X9643005Y-13832928D01*
X9633481Y-13823405D01*
D13*
X4641100Y-14195500D02*
X4641100Y-14255500D01*
X4611100Y-14225500D02*
X4671100Y-14225500D01*
D11*
X4966814Y-14115976D02*
X4985862Y-14115976D01*
X5004910Y-14125500D01*
X5014433Y-14135024D01*
X5023957Y-14154071D01*
X5033481Y-14192167D01*
X5033481Y-14239786D01*
X5023957Y-14277881D01*
X5014433Y-14296928D01*
X5004910Y-14306452D01*
X4985862Y-14315976D01*
X4966814Y-14315976D01*
X4947767Y-14306452D01*
X4938243Y-14296928D01*
X4928719Y-14277881D01*
X4919195Y-14239786D01*
X4919195Y-14192167D01*
X4928719Y-14154071D01*
X4938243Y-14135024D01*
X4947767Y-14125500D01*
X4966814Y-14115976D01*
X5119195Y-14296928D02*
X5128719Y-14306452D01*
X5119195Y-14315976D01*
X5109671Y-14306452D01*
X5119195Y-14296928D01*
X5119195Y-14315976D01*
X5300148Y-14115976D02*
X5262052Y-14115976D01*
X5243005Y-14125500D01*
X5233481Y-14135024D01*
X5214433Y-14163595D01*
X5204910Y-14201690D01*
X5204910Y-14277881D01*
X5214433Y-14296928D01*
X5223957Y-14306452D01*
X5243005Y-14315976D01*
X5281100Y-14315976D01*
X5300148Y-14306452D01*
X5309671Y-14296928D01*
X5319195Y-14277881D01*
X5319195Y-14230262D01*
X5309671Y-14211214D01*
X5300148Y-14201690D01*
X5281100Y-14192167D01*
X5243005Y-14192167D01*
X5223957Y-14201690D01*
X5214433Y-14211214D01*
X5204910Y-14230262D01*
X5443005Y-14115976D02*
X5462052Y-14115976D01*
X5481100Y-14125500D01*
X5490624Y-14135024D01*
X5500148Y-14154071D01*
X5509671Y-14192167D01*
X5509671Y-14239786D01*
X5500148Y-14277881D01*
X5490624Y-14296928D01*
X5481100Y-14306452D01*
X5462052Y-14315976D01*
X5443005Y-14315976D01*
X5423957Y-14306452D01*
X5414433Y-14296928D01*
X5404910Y-14277881D01*
X5395386Y-14239786D01*
X5395386Y-14192167D01*
X5404910Y-14154071D01*
X5414433Y-14135024D01*
X5423957Y-14125500D01*
X5443005Y-14115976D01*
X5633481Y-14115976D02*
X5652528Y-14115976D01*
X5671576Y-14125500D01*
X5681100Y-14135024D01*
X5690624Y-14154071D01*
X5700148Y-14192167D01*
X5700148Y-14239786D01*
X5690624Y-14277881D01*
X5681100Y-14296928D01*
X5671576Y-14306452D01*
X5652528Y-14315976D01*
X5633481Y-14315976D01*
X5614433Y-14306452D01*
X5604909Y-14296928D01*
X5595386Y-14277881D01*
X5585862Y-14239786D01*
X5585862Y-14192167D01*
X5595386Y-14154071D01*
X5604909Y-14135024D01*
X5614433Y-14125500D01*
X5633481Y-14115976D01*
X5785862Y-14315976D02*
X5785862Y-14182643D01*
X5785862Y-14201690D02*
X5795386Y-14192167D01*
X5814433Y-14182643D01*
X5843005Y-14182643D01*
X5862052Y-14192167D01*
X5871576Y-14211214D01*
X5871576Y-14315976D01*
X5871576Y-14211214D02*
X5881100Y-14192167D01*
X5900148Y-14182643D01*
X5928719Y-14182643D01*
X5947767Y-14192167D01*
X5957290Y-14211214D01*
X5957290Y-14315976D01*
X6052528Y-14315976D02*
X6052528Y-14182643D01*
X6052528Y-14201690D02*
X6062052Y-14192167D01*
X6081100Y-14182643D01*
X6109671Y-14182643D01*
X6128719Y-14192167D01*
X6138243Y-14211214D01*
X6138243Y-14315976D01*
X6138243Y-14211214D02*
X6147767Y-14192167D01*
X6166814Y-14182643D01*
X6195386Y-14182643D01*
X6214433Y-14192167D01*
X6223957Y-14211214D01*
X6223957Y-14315976D01*
X6614433Y-14106452D02*
X6443005Y-14363595D01*
X6871576Y-14115976D02*
X6890624Y-14115976D01*
X6909671Y-14125500D01*
X6919195Y-14135024D01*
X6928719Y-14154071D01*
X6938243Y-14192167D01*
X6938243Y-14239786D01*
X6928719Y-14277881D01*
X6919195Y-14296928D01*
X6909671Y-14306452D01*
X6890624Y-14315976D01*
X6871576Y-14315976D01*
X6852528Y-14306452D01*
X6843005Y-14296928D01*
X6833481Y-14277881D01*
X6823957Y-14239786D01*
X6823957Y-14192167D01*
X6833481Y-14154071D01*
X6843005Y-14135024D01*
X6852528Y-14125500D01*
X6871576Y-14115976D01*
X7023957Y-14296928D02*
X7033481Y-14306452D01*
X7023957Y-14315976D01*
X7014433Y-14306452D01*
X7023957Y-14296928D01*
X7023957Y-14315976D01*
X7157290Y-14115976D02*
X7176338Y-14115976D01*
X7195386Y-14125500D01*
X7204909Y-14135024D01*
X7214433Y-14154071D01*
X7223957Y-14192167D01*
X7223957Y-14239786D01*
X7214433Y-14277881D01*
X7204909Y-14296928D01*
X7195386Y-14306452D01*
X7176338Y-14315976D01*
X7157290Y-14315976D01*
X7138243Y-14306452D01*
X7128719Y-14296928D01*
X7119195Y-14277881D01*
X7109671Y-14239786D01*
X7109671Y-14192167D01*
X7119195Y-14154071D01*
X7128719Y-14135024D01*
X7138243Y-14125500D01*
X7157290Y-14115976D01*
X7300148Y-14135024D02*
X7309671Y-14125500D01*
X7328719Y-14115976D01*
X7376338Y-14115976D01*
X7395386Y-14125500D01*
X7404909Y-14135024D01*
X7414433Y-14154071D01*
X7414433Y-14173119D01*
X7404909Y-14201690D01*
X7290624Y-14315976D01*
X7414433Y-14315976D01*
X7481100Y-14115976D02*
X7604909Y-14115976D01*
X7538243Y-14192167D01*
X7566814Y-14192167D01*
X7585862Y-14201690D01*
X7595386Y-14211214D01*
X7604909Y-14230262D01*
X7604909Y-14277881D01*
X7595386Y-14296928D01*
X7585862Y-14306452D01*
X7566814Y-14315976D01*
X7509671Y-14315976D01*
X7490624Y-14306452D01*
X7481100Y-14296928D01*
X7776338Y-14115976D02*
X7738243Y-14115976D01*
X7719195Y-14125500D01*
X7709671Y-14135024D01*
X7690624Y-14163595D01*
X7681100Y-14201690D01*
X7681100Y-14277881D01*
X7690624Y-14296928D01*
X7700148Y-14306452D01*
X7719195Y-14315976D01*
X7757290Y-14315976D01*
X7776338Y-14306452D01*
X7785862Y-14296928D01*
X7795386Y-14277881D01*
X7795386Y-14230262D01*
X7785862Y-14211214D01*
X7776338Y-14201690D01*
X7757290Y-14192167D01*
X7719195Y-14192167D01*
X7700148Y-14201690D01*
X7690624Y-14211214D01*
X7681100Y-14230262D01*
X7871576Y-14115976D02*
X7871576Y-14154071D01*
X7947767Y-14115976D02*
X7947767Y-14154071D01*
X8243005Y-14392167D02*
X8233481Y-14382643D01*
X8214433Y-14354071D01*
X8204909Y-14335024D01*
X8195386Y-14306452D01*
X8185862Y-14258833D01*
X8185862Y-14220738D01*
X8195386Y-14173119D01*
X8204909Y-14144548D01*
X8214433Y-14125500D01*
X8233481Y-14096928D01*
X8243005Y-14087405D01*
X8357290Y-14115976D02*
X8376338Y-14115976D01*
X8395386Y-14125500D01*
X8404910Y-14135024D01*
X8414433Y-14154071D01*
X8423957Y-14192167D01*
X8423957Y-14239786D01*
X8414433Y-14277881D01*
X8404910Y-14296928D01*
X8395386Y-14306452D01*
X8376338Y-14315976D01*
X8357290Y-14315976D01*
X8338243Y-14306452D01*
X8328719Y-14296928D01*
X8319195Y-14277881D01*
X8309671Y-14239786D01*
X8309671Y-14192167D01*
X8319195Y-14154071D01*
X8328719Y-14135024D01*
X8338243Y-14125500D01*
X8357290Y-14115976D01*
X8662052Y-14315976D02*
X8662052Y-14115976D01*
X8747767Y-14315976D02*
X8747767Y-14211214D01*
X8738243Y-14192167D01*
X8719195Y-14182643D01*
X8690624Y-14182643D01*
X8671576Y-14192167D01*
X8662052Y-14201690D01*
X8871576Y-14315976D02*
X8852529Y-14306452D01*
X8843005Y-14296928D01*
X8833481Y-14277881D01*
X8833481Y-14220738D01*
X8843005Y-14201690D01*
X8852529Y-14192167D01*
X8871576Y-14182643D01*
X8900148Y-14182643D01*
X8919195Y-14192167D01*
X8928719Y-14201690D01*
X8938243Y-14220738D01*
X8938243Y-14277881D01*
X8928719Y-14296928D01*
X8919195Y-14306452D01*
X8900148Y-14315976D01*
X8871576Y-14315976D01*
X9052529Y-14315976D02*
X9033481Y-14306452D01*
X9023957Y-14287405D01*
X9023957Y-14115976D01*
X9204910Y-14306452D02*
X9185862Y-14315976D01*
X9147767Y-14315976D01*
X9128719Y-14306452D01*
X9119195Y-14287405D01*
X9119195Y-14211214D01*
X9128719Y-14192167D01*
X9147767Y-14182643D01*
X9185862Y-14182643D01*
X9204910Y-14192167D01*
X9214433Y-14211214D01*
X9214433Y-14230262D01*
X9119195Y-14249309D01*
X9290624Y-14306452D02*
X9309671Y-14315976D01*
X9347767Y-14315976D01*
X9366814Y-14306452D01*
X9376338Y-14287405D01*
X9376338Y-14277881D01*
X9366814Y-14258833D01*
X9347767Y-14249309D01*
X9319195Y-14249309D01*
X9300148Y-14239786D01*
X9290624Y-14220738D01*
X9290624Y-14211214D01*
X9300148Y-14192167D01*
X9319195Y-14182643D01*
X9347767Y-14182643D01*
X9366814Y-14192167D01*
X9614433Y-14239786D02*
X9766814Y-14239786D01*
X9690624Y-14315976D02*
X9690624Y-14163595D01*
X10100148Y-14182643D02*
X10100148Y-14315976D01*
X10052529Y-14106452D02*
X10004910Y-14249309D01*
X10128719Y-14249309D01*
X10347767Y-14306452D02*
X10366814Y-14315976D01*
X10404910Y-14315976D01*
X10423957Y-14306452D01*
X10433481Y-14287405D01*
X10433481Y-14277881D01*
X10423957Y-14258833D01*
X10404910Y-14249309D01*
X10376338Y-14249309D01*
X10357290Y-14239786D01*
X10347767Y-14220738D01*
X10347767Y-14211214D01*
X10357290Y-14192167D01*
X10376338Y-14182643D01*
X10404910Y-14182643D01*
X10423957Y-14192167D01*
X10547767Y-14315976D02*
X10528719Y-14306452D01*
X10519195Y-14287405D01*
X10519195Y-14115976D01*
X10652529Y-14315976D02*
X10633481Y-14306452D01*
X10623957Y-14296928D01*
X10614433Y-14277881D01*
X10614433Y-14220738D01*
X10623957Y-14201690D01*
X10633481Y-14192167D01*
X10652529Y-14182643D01*
X10681100Y-14182643D01*
X10700148Y-14192167D01*
X10709671Y-14201690D01*
X10719195Y-14220738D01*
X10719195Y-14277881D01*
X10709671Y-14296928D01*
X10700148Y-14306452D01*
X10681100Y-14315976D01*
X10652529Y-14315976D01*
X10776338Y-14182643D02*
X10852529Y-14182643D01*
X10804910Y-14115976D02*
X10804910Y-14287405D01*
X10814433Y-14306452D01*
X10833481Y-14315976D01*
X10852529Y-14315976D01*
X10909671Y-14306452D02*
X10928719Y-14315976D01*
X10966814Y-14315976D01*
X10985862Y-14306452D01*
X10995386Y-14287405D01*
X10995386Y-14277881D01*
X10985862Y-14258833D01*
X10966814Y-14249309D01*
X10938243Y-14249309D01*
X10919195Y-14239786D01*
X10909671Y-14220738D01*
X10909671Y-14211214D01*
X10919195Y-14192167D01*
X10938243Y-14182643D01*
X10966814Y-14182643D01*
X10985862Y-14192167D01*
X11062052Y-14392167D02*
X11071576Y-14382643D01*
X11090624Y-14354071D01*
X11100148Y-14335024D01*
X11109671Y-14306452D01*
X11119195Y-14258833D01*
X11119195Y-14220738D01*
X11109671Y-14173119D01*
X11100148Y-14144548D01*
X11090624Y-14125500D01*
X11071576Y-14096928D01*
X11062052Y-14087405D01*
D14*
X4660849Y-14514249D02*
X4660849Y-14464751D01*
X4611351Y-14464751D01*
X4611351Y-14514249D01*
X4660849Y-14514249D01*
D11*
X4966814Y-14379976D02*
X4985862Y-14379976D01*
X5004910Y-14389500D01*
X5014433Y-14399024D01*
X5023957Y-14418071D01*
X5033481Y-14456167D01*
X5033481Y-14503786D01*
X5023957Y-14541881D01*
X5014433Y-14560928D01*
X5004910Y-14570452D01*
X4985862Y-14579976D01*
X4966814Y-14579976D01*
X4947767Y-14570452D01*
X4938243Y-14560928D01*
X4928719Y-14541881D01*
X4919195Y-14503786D01*
X4919195Y-14456167D01*
X4928719Y-14418071D01*
X4938243Y-14399024D01*
X4947767Y-14389500D01*
X4966814Y-14379976D01*
X5119195Y-14560928D02*
X5128719Y-14570452D01*
X5119195Y-14579976D01*
X5109671Y-14570452D01*
X5119195Y-14560928D01*
X5119195Y-14579976D01*
X5195386Y-14379976D02*
X5328719Y-14379976D01*
X5243005Y-14579976D01*
X5443005Y-14379976D02*
X5462052Y-14379976D01*
X5481100Y-14389500D01*
X5490624Y-14399024D01*
X5500148Y-14418071D01*
X5509671Y-14456167D01*
X5509671Y-14503786D01*
X5500148Y-14541881D01*
X5490624Y-14560928D01*
X5481100Y-14570452D01*
X5462052Y-14579976D01*
X5443005Y-14579976D01*
X5423957Y-14570452D01*
X5414433Y-14560928D01*
X5404910Y-14541881D01*
X5395386Y-14503786D01*
X5395386Y-14456167D01*
X5404910Y-14418071D01*
X5414433Y-14399024D01*
X5423957Y-14389500D01*
X5443005Y-14379976D01*
X5633481Y-14379976D02*
X5652528Y-14379976D01*
X5671576Y-14389500D01*
X5681100Y-14399024D01*
X5690624Y-14418071D01*
X5700148Y-14456167D01*
X5700148Y-14503786D01*
X5690624Y-14541881D01*
X5681100Y-14560928D01*
X5671576Y-14570452D01*
X5652528Y-14579976D01*
X5633481Y-14579976D01*
X5614433Y-14570452D01*
X5604909Y-14560928D01*
X5595386Y-14541881D01*
X5585862Y-14503786D01*
X5585862Y-14456167D01*
X5595386Y-14418071D01*
X5604909Y-14399024D01*
X5614433Y-14389500D01*
X5633481Y-14379976D01*
X5785862Y-14579976D02*
X5785862Y-14446643D01*
X5785862Y-14465690D02*
X5795386Y-14456167D01*
X5814433Y-14446643D01*
X5843005Y-14446643D01*
X5862052Y-14456167D01*
X5871576Y-14475214D01*
X5871576Y-14579976D01*
X5871576Y-14475214D02*
X5881100Y-14456167D01*
X5900148Y-14446643D01*
X5928719Y-14446643D01*
X5947767Y-14456167D01*
X5957290Y-14475214D01*
X5957290Y-14579976D01*
X6052528Y-14579976D02*
X6052528Y-14446643D01*
X6052528Y-14465690D02*
X6062052Y-14456167D01*
X6081100Y-14446643D01*
X6109671Y-14446643D01*
X6128719Y-14456167D01*
X6138243Y-14475214D01*
X6138243Y-14579976D01*
X6138243Y-14475214D02*
X6147767Y-14456167D01*
X6166814Y-14446643D01*
X6195386Y-14446643D01*
X6214433Y-14456167D01*
X6223957Y-14475214D01*
X6223957Y-14579976D01*
X6614433Y-14370452D02*
X6443005Y-14627595D01*
X6871576Y-14379976D02*
X6890624Y-14379976D01*
X6909671Y-14389500D01*
X6919195Y-14399024D01*
X6928719Y-14418071D01*
X6938243Y-14456167D01*
X6938243Y-14503786D01*
X6928719Y-14541881D01*
X6919195Y-14560928D01*
X6909671Y-14570452D01*
X6890624Y-14579976D01*
X6871576Y-14579976D01*
X6852528Y-14570452D01*
X6843005Y-14560928D01*
X6833481Y-14541881D01*
X6823957Y-14503786D01*
X6823957Y-14456167D01*
X6833481Y-14418071D01*
X6843005Y-14399024D01*
X6852528Y-14389500D01*
X6871576Y-14379976D01*
X7023957Y-14560928D02*
X7033481Y-14570452D01*
X7023957Y-14579976D01*
X7014433Y-14570452D01*
X7023957Y-14560928D01*
X7023957Y-14579976D01*
X7157290Y-14379976D02*
X7176338Y-14379976D01*
X7195386Y-14389500D01*
X7204909Y-14399024D01*
X7214433Y-14418071D01*
X7223957Y-14456167D01*
X7223957Y-14503786D01*
X7214433Y-14541881D01*
X7204909Y-14560928D01*
X7195386Y-14570452D01*
X7176338Y-14579976D01*
X7157290Y-14579976D01*
X7138243Y-14570452D01*
X7128719Y-14560928D01*
X7119195Y-14541881D01*
X7109671Y-14503786D01*
X7109671Y-14456167D01*
X7119195Y-14418071D01*
X7128719Y-14399024D01*
X7138243Y-14389500D01*
X7157290Y-14379976D01*
X7300148Y-14399024D02*
X7309671Y-14389500D01*
X7328719Y-14379976D01*
X7376338Y-14379976D01*
X7395386Y-14389500D01*
X7404909Y-14399024D01*
X7414433Y-14418071D01*
X7414433Y-14437119D01*
X7404909Y-14465690D01*
X7290624Y-14579976D01*
X7414433Y-14579976D01*
X7481100Y-14379976D02*
X7614433Y-14379976D01*
X7528719Y-14579976D01*
X7776338Y-14379976D02*
X7738243Y-14379976D01*
X7719195Y-14389500D01*
X7709671Y-14399024D01*
X7690624Y-14427595D01*
X7681100Y-14465690D01*
X7681100Y-14541881D01*
X7690624Y-14560928D01*
X7700148Y-14570452D01*
X7719195Y-14579976D01*
X7757290Y-14579976D01*
X7776338Y-14570452D01*
X7785862Y-14560928D01*
X7795386Y-14541881D01*
X7795386Y-14494262D01*
X7785862Y-14475214D01*
X7776338Y-14465690D01*
X7757290Y-14456167D01*
X7719195Y-14456167D01*
X7700148Y-14465690D01*
X7690624Y-14475214D01*
X7681100Y-14494262D01*
X7871576Y-14379976D02*
X7871576Y-14418071D01*
X7947767Y-14379976D02*
X7947767Y-14418071D01*
X8243005Y-14656167D02*
X8233481Y-14646643D01*
X8214433Y-14618071D01*
X8204909Y-14599024D01*
X8195386Y-14570452D01*
X8185862Y-14522833D01*
X8185862Y-14484738D01*
X8195386Y-14437119D01*
X8204909Y-14408548D01*
X8214433Y-14389500D01*
X8233481Y-14360928D01*
X8243005Y-14351405D01*
X8309671Y-14399024D02*
X8319195Y-14389500D01*
X8338243Y-14379976D01*
X8385862Y-14379976D01*
X8404910Y-14389500D01*
X8414433Y-14399024D01*
X8423957Y-14418071D01*
X8423957Y-14437119D01*
X8414433Y-14465690D01*
X8300148Y-14579976D01*
X8423957Y-14579976D01*
X8662052Y-14579976D02*
X8662052Y-14379976D01*
X8747767Y-14579976D02*
X8747767Y-14475214D01*
X8738243Y-14456167D01*
X8719195Y-14446643D01*
X8690624Y-14446643D01*
X8671576Y-14456167D01*
X8662052Y-14465690D01*
X8871576Y-14579976D02*
X8852529Y-14570452D01*
X8843005Y-14560928D01*
X8833481Y-14541881D01*
X8833481Y-14484738D01*
X8843005Y-14465690D01*
X8852529Y-14456167D01*
X8871576Y-14446643D01*
X8900148Y-14446643D01*
X8919195Y-14456167D01*
X8928719Y-14465690D01*
X8938243Y-14484738D01*
X8938243Y-14541881D01*
X8928719Y-14560928D01*
X8919195Y-14570452D01*
X8900148Y-14579976D01*
X8871576Y-14579976D01*
X9052529Y-14579976D02*
X9033481Y-14570452D01*
X9023957Y-14551405D01*
X9023957Y-14379976D01*
X9204910Y-14570452D02*
X9185862Y-14579976D01*
X9147767Y-14579976D01*
X9128719Y-14570452D01*
X9119195Y-14551405D01*
X9119195Y-14475214D01*
X9128719Y-14456167D01*
X9147767Y-14446643D01*
X9185862Y-14446643D01*
X9204910Y-14456167D01*
X9214433Y-14475214D01*
X9214433Y-14494262D01*
X9119195Y-14513309D01*
X9290624Y-14570452D02*
X9309671Y-14579976D01*
X9347767Y-14579976D01*
X9366814Y-14570452D01*
X9376338Y-14551405D01*
X9376338Y-14541881D01*
X9366814Y-14522833D01*
X9347767Y-14513309D01*
X9319195Y-14513309D01*
X9300148Y-14503786D01*
X9290624Y-14484738D01*
X9290624Y-14475214D01*
X9300148Y-14456167D01*
X9319195Y-14446643D01*
X9347767Y-14446643D01*
X9366814Y-14456167D01*
X9443005Y-14656167D02*
X9452529Y-14646643D01*
X9471576Y-14618071D01*
X9481100Y-14599024D01*
X9490624Y-14570452D01*
X9500148Y-14522833D01*
X9500148Y-14484738D01*
X9490624Y-14437119D01*
X9481100Y-14408548D01*
X9471576Y-14389500D01*
X9452529Y-14360928D01*
X9443005Y-14351405D01*
D15*
X4633600Y-14791000D02*
X4671100Y-14753500D01*
X4633600Y-14716000D01*
X4596100Y-14753500D01*
X4633600Y-14791000D01*
D11*
X4966814Y-14643976D02*
X4985862Y-14643976D01*
X5004910Y-14653500D01*
X5014433Y-14663024D01*
X5023957Y-14682071D01*
X5033481Y-14720167D01*
X5033481Y-14767786D01*
X5023957Y-14805881D01*
X5014433Y-14824928D01*
X5004910Y-14834452D01*
X4985862Y-14843976D01*
X4966814Y-14843976D01*
X4947767Y-14834452D01*
X4938243Y-14824928D01*
X4928719Y-14805881D01*
X4919195Y-14767786D01*
X4919195Y-14720167D01*
X4928719Y-14682071D01*
X4938243Y-14663024D01*
X4947767Y-14653500D01*
X4966814Y-14643976D01*
X5119195Y-14824928D02*
X5128719Y-14834452D01*
X5119195Y-14843976D01*
X5109671Y-14834452D01*
X5119195Y-14824928D01*
X5119195Y-14843976D01*
X5195386Y-14643976D02*
X5328719Y-14643976D01*
X5243005Y-14843976D01*
X5500148Y-14643976D02*
X5404910Y-14643976D01*
X5395386Y-14739214D01*
X5404910Y-14729690D01*
X5423957Y-14720167D01*
X5471576Y-14720167D01*
X5490624Y-14729690D01*
X5500148Y-14739214D01*
X5509671Y-14758262D01*
X5509671Y-14805881D01*
X5500148Y-14824928D01*
X5490624Y-14834452D01*
X5471576Y-14843976D01*
X5423957Y-14843976D01*
X5404910Y-14834452D01*
X5395386Y-14824928D01*
X5633481Y-14643976D02*
X5652528Y-14643976D01*
X5671576Y-14653500D01*
X5681100Y-14663024D01*
X5690624Y-14682071D01*
X5700148Y-14720167D01*
X5700148Y-14767786D01*
X5690624Y-14805881D01*
X5681100Y-14824928D01*
X5671576Y-14834452D01*
X5652528Y-14843976D01*
X5633481Y-14843976D01*
X5614433Y-14834452D01*
X5604909Y-14824928D01*
X5595386Y-14805881D01*
X5585862Y-14767786D01*
X5585862Y-14720167D01*
X5595386Y-14682071D01*
X5604909Y-14663024D01*
X5614433Y-14653500D01*
X5633481Y-14643976D01*
X5785862Y-14843976D02*
X5785862Y-14710643D01*
X5785862Y-14729690D02*
X5795386Y-14720167D01*
X5814433Y-14710643D01*
X5843005Y-14710643D01*
X5862052Y-14720167D01*
X5871576Y-14739214D01*
X5871576Y-14843976D01*
X5871576Y-14739214D02*
X5881100Y-14720167D01*
X5900148Y-14710643D01*
X5928719Y-14710643D01*
X5947767Y-14720167D01*
X5957290Y-14739214D01*
X5957290Y-14843976D01*
X6052528Y-14843976D02*
X6052528Y-14710643D01*
X6052528Y-14729690D02*
X6062052Y-14720167D01*
X6081100Y-14710643D01*
X6109671Y-14710643D01*
X6128719Y-14720167D01*
X6138243Y-14739214D01*
X6138243Y-14843976D01*
X6138243Y-14739214D02*
X6147767Y-14720167D01*
X6166814Y-14710643D01*
X6195386Y-14710643D01*
X6214433Y-14720167D01*
X6223957Y-14739214D01*
X6223957Y-14843976D01*
X6614433Y-14634452D02*
X6443005Y-14891595D01*
X6871576Y-14643976D02*
X6890624Y-14643976D01*
X6909671Y-14653500D01*
X6919195Y-14663024D01*
X6928719Y-14682071D01*
X6938243Y-14720167D01*
X6938243Y-14767786D01*
X6928719Y-14805881D01*
X6919195Y-14824928D01*
X6909671Y-14834452D01*
X6890624Y-14843976D01*
X6871576Y-14843976D01*
X6852528Y-14834452D01*
X6843005Y-14824928D01*
X6833481Y-14805881D01*
X6823957Y-14767786D01*
X6823957Y-14720167D01*
X6833481Y-14682071D01*
X6843005Y-14663024D01*
X6852528Y-14653500D01*
X6871576Y-14643976D01*
X7023957Y-14824928D02*
X7033481Y-14834452D01*
X7023957Y-14843976D01*
X7014433Y-14834452D01*
X7023957Y-14824928D01*
X7023957Y-14843976D01*
X7157290Y-14643976D02*
X7176338Y-14643976D01*
X7195386Y-14653500D01*
X7204909Y-14663024D01*
X7214433Y-14682071D01*
X7223957Y-14720167D01*
X7223957Y-14767786D01*
X7214433Y-14805881D01*
X7204909Y-14824928D01*
X7195386Y-14834452D01*
X7176338Y-14843976D01*
X7157290Y-14843976D01*
X7138243Y-14834452D01*
X7128719Y-14824928D01*
X7119195Y-14805881D01*
X7109671Y-14767786D01*
X7109671Y-14720167D01*
X7119195Y-14682071D01*
X7128719Y-14663024D01*
X7138243Y-14653500D01*
X7157290Y-14643976D01*
X7300148Y-14663024D02*
X7309671Y-14653500D01*
X7328719Y-14643976D01*
X7376338Y-14643976D01*
X7395386Y-14653500D01*
X7404909Y-14663024D01*
X7414433Y-14682071D01*
X7414433Y-14701119D01*
X7404909Y-14729690D01*
X7290624Y-14843976D01*
X7414433Y-14843976D01*
X7509671Y-14843976D02*
X7547767Y-14843976D01*
X7566814Y-14834452D01*
X7576338Y-14824928D01*
X7595386Y-14796357D01*
X7604909Y-14758262D01*
X7604909Y-14682071D01*
X7595386Y-14663024D01*
X7585862Y-14653500D01*
X7566814Y-14643976D01*
X7528719Y-14643976D01*
X7509671Y-14653500D01*
X7500148Y-14663024D01*
X7490624Y-14682071D01*
X7490624Y-14729690D01*
X7500148Y-14748738D01*
X7509671Y-14758262D01*
X7528719Y-14767786D01*
X7566814Y-14767786D01*
X7585862Y-14758262D01*
X7595386Y-14748738D01*
X7604909Y-14729690D01*
X7785862Y-14643976D02*
X7690624Y-14643976D01*
X7681100Y-14739214D01*
X7690624Y-14729690D01*
X7709671Y-14720167D01*
X7757290Y-14720167D01*
X7776338Y-14729690D01*
X7785862Y-14739214D01*
X7795386Y-14758262D01*
X7795386Y-14805881D01*
X7785862Y-14824928D01*
X7776338Y-14834452D01*
X7757290Y-14843976D01*
X7709671Y-14843976D01*
X7690624Y-14834452D01*
X7681100Y-14824928D01*
X7871576Y-14643976D02*
X7871576Y-14682071D01*
X7947767Y-14643976D02*
X7947767Y-14682071D01*
X8243005Y-14920167D02*
X8233481Y-14910643D01*
X8214433Y-14882071D01*
X8204909Y-14863024D01*
X8195386Y-14834452D01*
X8185862Y-14786833D01*
X8185862Y-14748738D01*
X8195386Y-14701119D01*
X8204909Y-14672548D01*
X8214433Y-14653500D01*
X8233481Y-14624928D01*
X8243005Y-14615405D01*
X8404910Y-14643976D02*
X8366814Y-14643976D01*
X8347767Y-14653500D01*
X8338243Y-14663024D01*
X8319195Y-14691595D01*
X8309671Y-14729690D01*
X8309671Y-14805881D01*
X8319195Y-14824928D01*
X8328719Y-14834452D01*
X8347767Y-14843976D01*
X8385862Y-14843976D01*
X8404910Y-14834452D01*
X8414433Y-14824928D01*
X8423957Y-14805881D01*
X8423957Y-14758262D01*
X8414433Y-14739214D01*
X8404910Y-14729690D01*
X8385862Y-14720167D01*
X8347767Y-14720167D01*
X8328719Y-14729690D01*
X8319195Y-14739214D01*
X8309671Y-14758262D01*
X8662052Y-14843976D02*
X8662052Y-14643976D01*
X8747767Y-14843976D02*
X8747767Y-14739214D01*
X8738243Y-14720167D01*
X8719195Y-14710643D01*
X8690624Y-14710643D01*
X8671576Y-14720167D01*
X8662052Y-14729690D01*
X8871576Y-14843976D02*
X8852529Y-14834452D01*
X8843005Y-14824928D01*
X8833481Y-14805881D01*
X8833481Y-14748738D01*
X8843005Y-14729690D01*
X8852529Y-14720167D01*
X8871576Y-14710643D01*
X8900148Y-14710643D01*
X8919195Y-14720167D01*
X8928719Y-14729690D01*
X8938243Y-14748738D01*
X8938243Y-14805881D01*
X8928719Y-14824928D01*
X8919195Y-14834452D01*
X8900148Y-14843976D01*
X8871576Y-14843976D01*
X9052529Y-14843976D02*
X9033481Y-14834452D01*
X9023957Y-14815405D01*
X9023957Y-14643976D01*
X9204910Y-14834452D02*
X9185862Y-14843976D01*
X9147767Y-14843976D01*
X9128719Y-14834452D01*
X9119195Y-14815405D01*
X9119195Y-14739214D01*
X9128719Y-14720167D01*
X9147767Y-14710643D01*
X9185862Y-14710643D01*
X9204910Y-14720167D01*
X9214433Y-14739214D01*
X9214433Y-14758262D01*
X9119195Y-14777309D01*
X9290624Y-14834452D02*
X9309671Y-14843976D01*
X9347767Y-14843976D01*
X9366814Y-14834452D01*
X9376338Y-14815405D01*
X9376338Y-14805881D01*
X9366814Y-14786833D01*
X9347767Y-14777309D01*
X9319195Y-14777309D01*
X9300148Y-14767786D01*
X9290624Y-14748738D01*
X9290624Y-14739214D01*
X9300148Y-14720167D01*
X9319195Y-14710643D01*
X9347767Y-14710643D01*
X9366814Y-14720167D01*
X9443005Y-14920167D02*
X9452529Y-14910643D01*
X9471576Y-14882071D01*
X9481100Y-14863024D01*
X9490624Y-14834452D01*
X9500148Y-14786833D01*
X9500148Y-14748738D01*
X9490624Y-14701119D01*
X9481100Y-14672548D01*
X9471576Y-14653500D01*
X9452529Y-14624928D01*
X9443005Y-14615405D01*
D16*
X4591100Y-14977500D02*
X4671100Y-15057500D01*
X4671100Y-14977500D02*
X4591100Y-15057500D01*
X4671100Y-15017500D02*
G75*
G03*
X4671100Y-15017500I-40000J0D01*
G01*
D11*
X4966814Y-14907976D02*
X4985862Y-14907976D01*
X5004910Y-14917500D01*
X5014433Y-14927024D01*
X5023957Y-14946071D01*
X5033481Y-14984167D01*
X5033481Y-15031786D01*
X5023957Y-15069881D01*
X5014433Y-15088928D01*
X5004910Y-15098452D01*
X4985862Y-15107976D01*
X4966814Y-15107976D01*
X4947767Y-15098452D01*
X4938243Y-15088928D01*
X4928719Y-15069881D01*
X4919195Y-15031786D01*
X4919195Y-14984167D01*
X4928719Y-14946071D01*
X4938243Y-14927024D01*
X4947767Y-14917500D01*
X4966814Y-14907976D01*
X5119195Y-15088928D02*
X5128719Y-15098452D01*
X5119195Y-15107976D01*
X5109671Y-15098452D01*
X5119195Y-15088928D01*
X5119195Y-15107976D01*
X5243005Y-14993690D02*
X5223957Y-14984167D01*
X5214433Y-14974643D01*
X5204910Y-14955595D01*
X5204910Y-14946071D01*
X5214433Y-14927024D01*
X5223957Y-14917500D01*
X5243005Y-14907976D01*
X5281100Y-14907976D01*
X5300148Y-14917500D01*
X5309671Y-14927024D01*
X5319195Y-14946071D01*
X5319195Y-14955595D01*
X5309671Y-14974643D01*
X5300148Y-14984167D01*
X5281100Y-14993690D01*
X5243005Y-14993690D01*
X5223957Y-15003214D01*
X5214433Y-15012738D01*
X5204910Y-15031786D01*
X5204910Y-15069881D01*
X5214433Y-15088928D01*
X5223957Y-15098452D01*
X5243005Y-15107976D01*
X5281100Y-15107976D01*
X5300148Y-15098452D01*
X5309671Y-15088928D01*
X5319195Y-15069881D01*
X5319195Y-15031786D01*
X5309671Y-15012738D01*
X5300148Y-15003214D01*
X5281100Y-14993690D01*
X5443005Y-14907976D02*
X5462052Y-14907976D01*
X5481100Y-14917500D01*
X5490624Y-14927024D01*
X5500148Y-14946071D01*
X5509671Y-14984167D01*
X5509671Y-15031786D01*
X5500148Y-15069881D01*
X5490624Y-15088928D01*
X5481100Y-15098452D01*
X5462052Y-15107976D01*
X5443005Y-15107976D01*
X5423957Y-15098452D01*
X5414433Y-15088928D01*
X5404910Y-15069881D01*
X5395386Y-15031786D01*
X5395386Y-14984167D01*
X5404910Y-14946071D01*
X5414433Y-14927024D01*
X5423957Y-14917500D01*
X5443005Y-14907976D01*
X5633481Y-14907976D02*
X5652528Y-14907976D01*
X5671576Y-14917500D01*
X5681100Y-14927024D01*
X5690624Y-14946071D01*
X5700148Y-14984167D01*
X5700148Y-15031786D01*
X5690624Y-15069881D01*
X5681100Y-15088928D01*
X5671576Y-15098452D01*
X5652528Y-15107976D01*
X5633481Y-15107976D01*
X5614433Y-15098452D01*
X5604909Y-15088928D01*
X5595386Y-15069881D01*
X5585862Y-15031786D01*
X5585862Y-14984167D01*
X5595386Y-14946071D01*
X5604909Y-14927024D01*
X5614433Y-14917500D01*
X5633481Y-14907976D01*
X5785862Y-15107976D02*
X5785862Y-14974643D01*
X5785862Y-14993690D02*
X5795386Y-14984167D01*
X5814433Y-14974643D01*
X5843005Y-14974643D01*
X5862052Y-14984167D01*
X5871576Y-15003214D01*
X5871576Y-15107976D01*
X5871576Y-15003214D02*
X5881100Y-14984167D01*
X5900148Y-14974643D01*
X5928719Y-14974643D01*
X5947767Y-14984167D01*
X5957290Y-15003214D01*
X5957290Y-15107976D01*
X6052528Y-15107976D02*
X6052528Y-14974643D01*
X6052528Y-14993690D02*
X6062052Y-14984167D01*
X6081100Y-14974643D01*
X6109671Y-14974643D01*
X6128719Y-14984167D01*
X6138243Y-15003214D01*
X6138243Y-15107976D01*
X6138243Y-15003214D02*
X6147767Y-14984167D01*
X6166814Y-14974643D01*
X6195386Y-14974643D01*
X6214433Y-14984167D01*
X6223957Y-15003214D01*
X6223957Y-15107976D01*
X6614433Y-14898452D02*
X6443005Y-15155595D01*
X6871576Y-14907976D02*
X6890624Y-14907976D01*
X6909671Y-14917500D01*
X6919195Y-14927024D01*
X6928719Y-14946071D01*
X6938243Y-14984167D01*
X6938243Y-15031786D01*
X6928719Y-15069881D01*
X6919195Y-15088928D01*
X6909671Y-15098452D01*
X6890624Y-15107976D01*
X6871576Y-15107976D01*
X6852528Y-15098452D01*
X6843005Y-15088928D01*
X6833481Y-15069881D01*
X6823957Y-15031786D01*
X6823957Y-14984167D01*
X6833481Y-14946071D01*
X6843005Y-14927024D01*
X6852528Y-14917500D01*
X6871576Y-14907976D01*
X7023957Y-15088928D02*
X7033481Y-15098452D01*
X7023957Y-15107976D01*
X7014433Y-15098452D01*
X7023957Y-15088928D01*
X7023957Y-15107976D01*
X7157290Y-14907976D02*
X7176338Y-14907976D01*
X7195386Y-14917500D01*
X7204909Y-14927024D01*
X7214433Y-14946071D01*
X7223957Y-14984167D01*
X7223957Y-15031786D01*
X7214433Y-15069881D01*
X7204909Y-15088928D01*
X7195386Y-15098452D01*
X7176338Y-15107976D01*
X7157290Y-15107976D01*
X7138243Y-15098452D01*
X7128719Y-15088928D01*
X7119195Y-15069881D01*
X7109671Y-15031786D01*
X7109671Y-14984167D01*
X7119195Y-14946071D01*
X7128719Y-14927024D01*
X7138243Y-14917500D01*
X7157290Y-14907976D01*
X7290624Y-14907976D02*
X7414433Y-14907976D01*
X7347767Y-14984167D01*
X7376338Y-14984167D01*
X7395386Y-14993690D01*
X7404909Y-15003214D01*
X7414433Y-15022262D01*
X7414433Y-15069881D01*
X7404909Y-15088928D01*
X7395386Y-15098452D01*
X7376338Y-15107976D01*
X7319195Y-15107976D01*
X7300148Y-15098452D01*
X7290624Y-15088928D01*
X7604909Y-15107976D02*
X7490624Y-15107976D01*
X7547767Y-15107976D02*
X7547767Y-14907976D01*
X7528719Y-14936548D01*
X7509671Y-14955595D01*
X7490624Y-14965119D01*
X7785862Y-14907976D02*
X7690624Y-14907976D01*
X7681100Y-15003214D01*
X7690624Y-14993690D01*
X7709671Y-14984167D01*
X7757290Y-14984167D01*
X7776338Y-14993690D01*
X7785862Y-15003214D01*
X7795386Y-15022262D01*
X7795386Y-15069881D01*
X7785862Y-15088928D01*
X7776338Y-15098452D01*
X7757290Y-15107976D01*
X7709671Y-15107976D01*
X7690624Y-15098452D01*
X7681100Y-15088928D01*
X7871576Y-14907976D02*
X7871576Y-14946071D01*
X7947767Y-14907976D02*
X7947767Y-14946071D01*
X8243005Y-15184167D02*
X8233481Y-15174643D01*
X8214433Y-15146071D01*
X8204909Y-15127024D01*
X8195386Y-15098452D01*
X8185862Y-15050833D01*
X8185862Y-15012738D01*
X8195386Y-14965119D01*
X8204909Y-14936548D01*
X8214433Y-14917500D01*
X8233481Y-14888928D01*
X8243005Y-14879405D01*
X8423957Y-15107976D02*
X8309671Y-15107976D01*
X8366814Y-15107976D02*
X8366814Y-14907976D01*
X8347767Y-14936548D01*
X8328719Y-14955595D01*
X8309671Y-14965119D01*
X8595386Y-14907976D02*
X8557290Y-14907976D01*
X8538243Y-14917500D01*
X8528719Y-14927024D01*
X8509671Y-14955595D01*
X8500148Y-14993690D01*
X8500148Y-15069881D01*
X8509671Y-15088928D01*
X8519195Y-15098452D01*
X8538243Y-15107976D01*
X8576338Y-15107976D01*
X8595386Y-15098452D01*
X8604910Y-15088928D01*
X8614433Y-15069881D01*
X8614433Y-15022262D01*
X8604910Y-15003214D01*
X8595386Y-14993690D01*
X8576338Y-14984167D01*
X8538243Y-14984167D01*
X8519195Y-14993690D01*
X8509671Y-15003214D01*
X8500148Y-15022262D01*
X8852529Y-15107976D02*
X8852529Y-14907976D01*
X8938243Y-15107976D02*
X8938243Y-15003214D01*
X8928719Y-14984167D01*
X8909671Y-14974643D01*
X8881100Y-14974643D01*
X8862052Y-14984167D01*
X8852529Y-14993690D01*
X9062052Y-15107976D02*
X9043005Y-15098452D01*
X9033481Y-15088928D01*
X9023957Y-15069881D01*
X9023957Y-15012738D01*
X9033481Y-14993690D01*
X9043005Y-14984167D01*
X9062052Y-14974643D01*
X9090624Y-14974643D01*
X9109671Y-14984167D01*
X9119195Y-14993690D01*
X9128719Y-15012738D01*
X9128719Y-15069881D01*
X9119195Y-15088928D01*
X9109671Y-15098452D01*
X9090624Y-15107976D01*
X9062052Y-15107976D01*
X9243005Y-15107976D02*
X9223957Y-15098452D01*
X9214433Y-15079405D01*
X9214433Y-14907976D01*
X9395386Y-15098452D02*
X9376338Y-15107976D01*
X9338243Y-15107976D01*
X9319195Y-15098452D01*
X9309671Y-15079405D01*
X9309671Y-15003214D01*
X9319195Y-14984167D01*
X9338243Y-14974643D01*
X9376338Y-14974643D01*
X9395386Y-14984167D01*
X9404910Y-15003214D01*
X9404910Y-15022262D01*
X9309671Y-15041309D01*
X9481100Y-15098452D02*
X9500148Y-15107976D01*
X9538243Y-15107976D01*
X9557290Y-15098452D01*
X9566814Y-15079405D01*
X9566814Y-15069881D01*
X9557290Y-15050833D01*
X9538243Y-15041309D01*
X9509671Y-15041309D01*
X9490624Y-15031786D01*
X9481100Y-15012738D01*
X9481100Y-15003214D01*
X9490624Y-14984167D01*
X9509671Y-14974643D01*
X9538243Y-14974643D01*
X9557290Y-14984167D01*
X9633481Y-15184167D02*
X9643005Y-15174643D01*
X9662052Y-15146071D01*
X9671576Y-15127024D01*
X9681100Y-15098452D01*
X9690624Y-15050833D01*
X9690624Y-15012738D01*
X9681100Y-14965119D01*
X9671576Y-14936548D01*
X9662052Y-14917500D01*
X9643005Y-14888928D01*
X9633481Y-14879405D01*
D17*
X4571100Y-15231500D02*
X4671100Y-15331500D01*
X4671100Y-15231500D02*
X4571100Y-15331500D01*
X4621100Y-15231500D02*
X4621100Y-15331500D01*
X4571100Y-15281500D02*
X4671100Y-15281500D01*
D11*
X5033481Y-15371976D02*
X4919195Y-15371976D01*
X4976338Y-15371976D02*
X4976338Y-15171976D01*
X4957290Y-15200548D01*
X4938243Y-15219595D01*
X4919195Y-15229119D01*
X5119195Y-15352928D02*
X5128719Y-15362452D01*
X5119195Y-15371976D01*
X5109671Y-15362452D01*
X5119195Y-15352928D01*
X5119195Y-15371976D01*
X5252529Y-15171976D02*
X5271576Y-15171976D01*
X5290624Y-15181500D01*
X5300148Y-15191024D01*
X5309671Y-15210071D01*
X5319195Y-15248167D01*
X5319195Y-15295786D01*
X5309671Y-15333881D01*
X5300148Y-15352928D01*
X5290624Y-15362452D01*
X5271576Y-15371976D01*
X5252529Y-15371976D01*
X5233481Y-15362452D01*
X5223957Y-15352928D01*
X5214433Y-15333881D01*
X5204910Y-15295786D01*
X5204910Y-15248167D01*
X5214433Y-15210071D01*
X5223957Y-15191024D01*
X5233481Y-15181500D01*
X5252529Y-15171976D01*
X5443005Y-15171976D02*
X5462052Y-15171976D01*
X5481100Y-15181500D01*
X5490624Y-15191024D01*
X5500148Y-15210071D01*
X5509671Y-15248167D01*
X5509671Y-15295786D01*
X5500148Y-15333881D01*
X5490624Y-15352928D01*
X5481100Y-15362452D01*
X5462052Y-15371976D01*
X5443005Y-15371976D01*
X5423957Y-15362452D01*
X5414433Y-15352928D01*
X5404910Y-15333881D01*
X5395386Y-15295786D01*
X5395386Y-15248167D01*
X5404910Y-15210071D01*
X5414433Y-15191024D01*
X5423957Y-15181500D01*
X5443005Y-15171976D01*
X5633481Y-15171976D02*
X5652528Y-15171976D01*
X5671576Y-15181500D01*
X5681100Y-15191024D01*
X5690624Y-15210071D01*
X5700148Y-15248167D01*
X5700148Y-15295786D01*
X5690624Y-15333881D01*
X5681100Y-15352928D01*
X5671576Y-15362452D01*
X5652528Y-15371976D01*
X5633481Y-15371976D01*
X5614433Y-15362452D01*
X5604909Y-15352928D01*
X5595386Y-15333881D01*
X5585862Y-15295786D01*
X5585862Y-15248167D01*
X5595386Y-15210071D01*
X5604909Y-15191024D01*
X5614433Y-15181500D01*
X5633481Y-15171976D01*
X5785862Y-15371976D02*
X5785862Y-15238643D01*
X5785862Y-15257690D02*
X5795386Y-15248167D01*
X5814433Y-15238643D01*
X5843005Y-15238643D01*
X5862052Y-15248167D01*
X5871576Y-15267214D01*
X5871576Y-15371976D01*
X5871576Y-15267214D02*
X5881100Y-15248167D01*
X5900148Y-15238643D01*
X5928719Y-15238643D01*
X5947767Y-15248167D01*
X5957290Y-15267214D01*
X5957290Y-15371976D01*
X6052528Y-15371976D02*
X6052528Y-15238643D01*
X6052528Y-15257690D02*
X6062052Y-15248167D01*
X6081100Y-15238643D01*
X6109671Y-15238643D01*
X6128719Y-15248167D01*
X6138243Y-15267214D01*
X6138243Y-15371976D01*
X6138243Y-15267214D02*
X6147767Y-15248167D01*
X6166814Y-15238643D01*
X6195386Y-15238643D01*
X6214433Y-15248167D01*
X6223957Y-15267214D01*
X6223957Y-15371976D01*
X6614433Y-15162452D02*
X6443005Y-15419595D01*
X6871576Y-15171976D02*
X6890624Y-15171976D01*
X6909671Y-15181500D01*
X6919195Y-15191024D01*
X6928719Y-15210071D01*
X6938243Y-15248167D01*
X6938243Y-15295786D01*
X6928719Y-15333881D01*
X6919195Y-15352928D01*
X6909671Y-15362452D01*
X6890624Y-15371976D01*
X6871576Y-15371976D01*
X6852528Y-15362452D01*
X6843005Y-15352928D01*
X6833481Y-15333881D01*
X6823957Y-15295786D01*
X6823957Y-15248167D01*
X6833481Y-15210071D01*
X6843005Y-15191024D01*
X6852528Y-15181500D01*
X6871576Y-15171976D01*
X7023957Y-15352928D02*
X7033481Y-15362452D01*
X7023957Y-15371976D01*
X7014433Y-15362452D01*
X7023957Y-15352928D01*
X7023957Y-15371976D01*
X7157290Y-15171976D02*
X7176338Y-15171976D01*
X7195386Y-15181500D01*
X7204909Y-15191024D01*
X7214433Y-15210071D01*
X7223957Y-15248167D01*
X7223957Y-15295786D01*
X7214433Y-15333881D01*
X7204909Y-15352928D01*
X7195386Y-15362452D01*
X7176338Y-15371976D01*
X7157290Y-15371976D01*
X7138243Y-15362452D01*
X7128719Y-15352928D01*
X7119195Y-15333881D01*
X7109671Y-15295786D01*
X7109671Y-15248167D01*
X7119195Y-15210071D01*
X7128719Y-15191024D01*
X7138243Y-15181500D01*
X7157290Y-15171976D01*
X7290624Y-15171976D02*
X7414433Y-15171976D01*
X7347767Y-15248167D01*
X7376338Y-15248167D01*
X7395386Y-15257690D01*
X7404909Y-15267214D01*
X7414433Y-15286262D01*
X7414433Y-15333881D01*
X7404909Y-15352928D01*
X7395386Y-15362452D01*
X7376338Y-15371976D01*
X7319195Y-15371976D01*
X7300148Y-15362452D01*
X7290624Y-15352928D01*
X7509671Y-15371976D02*
X7547767Y-15371976D01*
X7566814Y-15362452D01*
X7576338Y-15352928D01*
X7595386Y-15324357D01*
X7604909Y-15286262D01*
X7604909Y-15210071D01*
X7595386Y-15191024D01*
X7585862Y-15181500D01*
X7566814Y-15171976D01*
X7528719Y-15171976D01*
X7509671Y-15181500D01*
X7500148Y-15191024D01*
X7490624Y-15210071D01*
X7490624Y-15257690D01*
X7500148Y-15276738D01*
X7509671Y-15286262D01*
X7528719Y-15295786D01*
X7566814Y-15295786D01*
X7585862Y-15286262D01*
X7595386Y-15276738D01*
X7604909Y-15257690D01*
X7776338Y-15238643D02*
X7776338Y-15371976D01*
X7728719Y-15162452D02*
X7681100Y-15305309D01*
X7804909Y-15305309D01*
X7871576Y-15171976D02*
X7871576Y-15210071D01*
X7947767Y-15171976D02*
X7947767Y-15210071D01*
X8243005Y-15448167D02*
X8233481Y-15438643D01*
X8214433Y-15410071D01*
X8204909Y-15391024D01*
X8195386Y-15362452D01*
X8185862Y-15314833D01*
X8185862Y-15276738D01*
X8195386Y-15229119D01*
X8204909Y-15200548D01*
X8214433Y-15181500D01*
X8233481Y-15152928D01*
X8243005Y-15143405D01*
X8300148Y-15171976D02*
X8433481Y-15171976D01*
X8347767Y-15371976D01*
X8595386Y-15238643D02*
X8595386Y-15371976D01*
X8547767Y-15162452D02*
X8500148Y-15305309D01*
X8623957Y-15305309D01*
X8852529Y-15371976D02*
X8852529Y-15171976D01*
X8938243Y-15371976D02*
X8938243Y-15267214D01*
X8928719Y-15248167D01*
X8909671Y-15238643D01*
X8881100Y-15238643D01*
X8862052Y-15248167D01*
X8852529Y-15257690D01*
X9062052Y-15371976D02*
X9043005Y-15362452D01*
X9033481Y-15352928D01*
X9023957Y-15333881D01*
X9023957Y-15276738D01*
X9033481Y-15257690D01*
X9043005Y-15248167D01*
X9062052Y-15238643D01*
X9090624Y-15238643D01*
X9109671Y-15248167D01*
X9119195Y-15257690D01*
X9128719Y-15276738D01*
X9128719Y-15333881D01*
X9119195Y-15352928D01*
X9109671Y-15362452D01*
X9090624Y-15371976D01*
X9062052Y-15371976D01*
X9243005Y-15371976D02*
X9223957Y-15362452D01*
X9214433Y-15343405D01*
X9214433Y-15171976D01*
X9395386Y-15362452D02*
X9376338Y-15371976D01*
X9338243Y-15371976D01*
X9319195Y-15362452D01*
X9309671Y-15343405D01*
X9309671Y-15267214D01*
X9319195Y-15248167D01*
X9338243Y-15238643D01*
X9376338Y-15238643D01*
X9395386Y-15248167D01*
X9404910Y-15267214D01*
X9404910Y-15286262D01*
X9309671Y-15305309D01*
X9481100Y-15362452D02*
X9500148Y-15371976D01*
X9538243Y-15371976D01*
X9557290Y-15362452D01*
X9566814Y-15343405D01*
X9566814Y-15333881D01*
X9557290Y-15314833D01*
X9538243Y-15305309D01*
X9509671Y-15305309D01*
X9490624Y-15295786D01*
X9481100Y-15276738D01*
X9481100Y-15267214D01*
X9490624Y-15248167D01*
X9509671Y-15238643D01*
X9538243Y-15238643D01*
X9557290Y-15248167D01*
X9633481Y-15448167D02*
X9643005Y-15438643D01*
X9662052Y-15410071D01*
X9671576Y-15391024D01*
X9681100Y-15362452D01*
X9690624Y-15314833D01*
X9690624Y-15276738D01*
X9681100Y-15229119D01*
X9671576Y-15200548D01*
X9662052Y-15181500D01*
X9643005Y-15152928D01*
X9633481Y-15143405D01*
D18*
X4561100Y-15490500D02*
X4671100Y-15600500D01*
X4671100Y-15490500D02*
X4561100Y-15600500D01*
X4654991Y-15584391D02*
X4654991Y-15506609D01*
X4577209Y-15506609D01*
X4577209Y-15584391D01*
X4654991Y-15584391D01*
D11*
X5033481Y-15635976D02*
X4919195Y-15635976D01*
X4976338Y-15635976D02*
X4976338Y-15435976D01*
X4957290Y-15464548D01*
X4938243Y-15483595D01*
X4919195Y-15493119D01*
X5119195Y-15616928D02*
X5128719Y-15626452D01*
X5119195Y-15635976D01*
X5109671Y-15626452D01*
X5119195Y-15616928D01*
X5119195Y-15635976D01*
X5319195Y-15635976D02*
X5204910Y-15635976D01*
X5262052Y-15635976D02*
X5262052Y-15435976D01*
X5243005Y-15464548D01*
X5223957Y-15483595D01*
X5204910Y-15493119D01*
X5443005Y-15435976D02*
X5462052Y-15435976D01*
X5481100Y-15445500D01*
X5490624Y-15455024D01*
X5500148Y-15474071D01*
X5509671Y-15512167D01*
X5509671Y-15559786D01*
X5500148Y-15597881D01*
X5490624Y-15616928D01*
X5481100Y-15626452D01*
X5462052Y-15635976D01*
X5443005Y-15635976D01*
X5423957Y-15626452D01*
X5414433Y-15616928D01*
X5404910Y-15597881D01*
X5395386Y-15559786D01*
X5395386Y-15512167D01*
X5404910Y-15474071D01*
X5414433Y-15455024D01*
X5423957Y-15445500D01*
X5443005Y-15435976D01*
X5633481Y-15435976D02*
X5652528Y-15435976D01*
X5671576Y-15445500D01*
X5681100Y-15455024D01*
X5690624Y-15474071D01*
X5700148Y-15512167D01*
X5700148Y-15559786D01*
X5690624Y-15597881D01*
X5681100Y-15616928D01*
X5671576Y-15626452D01*
X5652528Y-15635976D01*
X5633481Y-15635976D01*
X5614433Y-15626452D01*
X5604909Y-15616928D01*
X5595386Y-15597881D01*
X5585862Y-15559786D01*
X5585862Y-15512167D01*
X5595386Y-15474071D01*
X5604909Y-15455024D01*
X5614433Y-15445500D01*
X5633481Y-15435976D01*
X5785862Y-15635976D02*
X5785862Y-15502643D01*
X5785862Y-15521690D02*
X5795386Y-15512167D01*
X5814433Y-15502643D01*
X5843005Y-15502643D01*
X5862052Y-15512167D01*
X5871576Y-15531214D01*
X5871576Y-15635976D01*
X5871576Y-15531214D02*
X5881100Y-15512167D01*
X5900148Y-15502643D01*
X5928719Y-15502643D01*
X5947767Y-15512167D01*
X5957290Y-15531214D01*
X5957290Y-15635976D01*
X6052528Y-15635976D02*
X6052528Y-15502643D01*
X6052528Y-15521690D02*
X6062052Y-15512167D01*
X6081100Y-15502643D01*
X6109671Y-15502643D01*
X6128719Y-15512167D01*
X6138243Y-15531214D01*
X6138243Y-15635976D01*
X6138243Y-15531214D02*
X6147767Y-15512167D01*
X6166814Y-15502643D01*
X6195386Y-15502643D01*
X6214433Y-15512167D01*
X6223957Y-15531214D01*
X6223957Y-15635976D01*
X6614433Y-15426452D02*
X6443005Y-15683595D01*
X6871576Y-15435976D02*
X6890624Y-15435976D01*
X6909671Y-15445500D01*
X6919195Y-15455024D01*
X6928719Y-15474071D01*
X6938243Y-15512167D01*
X6938243Y-15559786D01*
X6928719Y-15597881D01*
X6919195Y-15616928D01*
X6909671Y-15626452D01*
X6890624Y-15635976D01*
X6871576Y-15635976D01*
X6852528Y-15626452D01*
X6843005Y-15616928D01*
X6833481Y-15597881D01*
X6823957Y-15559786D01*
X6823957Y-15512167D01*
X6833481Y-15474071D01*
X6843005Y-15455024D01*
X6852528Y-15445500D01*
X6871576Y-15435976D01*
X7023957Y-15616928D02*
X7033481Y-15626452D01*
X7023957Y-15635976D01*
X7014433Y-15626452D01*
X7023957Y-15616928D01*
X7023957Y-15635976D01*
X7157290Y-15435976D02*
X7176338Y-15435976D01*
X7195386Y-15445500D01*
X7204909Y-15455024D01*
X7214433Y-15474071D01*
X7223957Y-15512167D01*
X7223957Y-15559786D01*
X7214433Y-15597881D01*
X7204909Y-15616928D01*
X7195386Y-15626452D01*
X7176338Y-15635976D01*
X7157290Y-15635976D01*
X7138243Y-15626452D01*
X7128719Y-15616928D01*
X7119195Y-15597881D01*
X7109671Y-15559786D01*
X7109671Y-15512167D01*
X7119195Y-15474071D01*
X7128719Y-15455024D01*
X7138243Y-15445500D01*
X7157290Y-15435976D01*
X7395386Y-15502643D02*
X7395386Y-15635976D01*
X7347767Y-15426452D02*
X7300148Y-15569309D01*
X7423957Y-15569309D01*
X7481100Y-15435976D02*
X7604909Y-15435976D01*
X7538243Y-15512167D01*
X7566814Y-15512167D01*
X7585862Y-15521690D01*
X7595386Y-15531214D01*
X7604909Y-15550262D01*
X7604909Y-15597881D01*
X7595386Y-15616928D01*
X7585862Y-15626452D01*
X7566814Y-15635976D01*
X7509671Y-15635976D01*
X7490624Y-15626452D01*
X7481100Y-15616928D01*
X7671576Y-15435976D02*
X7795386Y-15435976D01*
X7728719Y-15512167D01*
X7757290Y-15512167D01*
X7776338Y-15521690D01*
X7785862Y-15531214D01*
X7795386Y-15550262D01*
X7795386Y-15597881D01*
X7785862Y-15616928D01*
X7776338Y-15626452D01*
X7757290Y-15635976D01*
X7700148Y-15635976D01*
X7681100Y-15626452D01*
X7671576Y-15616928D01*
X7871576Y-15435976D02*
X7871576Y-15474071D01*
X7947767Y-15435976D02*
X7947767Y-15474071D01*
X8243005Y-15712167D02*
X8233481Y-15702643D01*
X8214433Y-15674071D01*
X8204909Y-15655024D01*
X8195386Y-15626452D01*
X8185862Y-15578833D01*
X8185862Y-15540738D01*
X8195386Y-15493119D01*
X8204909Y-15464548D01*
X8214433Y-15445500D01*
X8233481Y-15416928D01*
X8243005Y-15407405D01*
X8347767Y-15521690D02*
X8328719Y-15512167D01*
X8319195Y-15502643D01*
X8309671Y-15483595D01*
X8309671Y-15474071D01*
X8319195Y-15455024D01*
X8328719Y-15445500D01*
X8347767Y-15435976D01*
X8385862Y-15435976D01*
X8404910Y-15445500D01*
X8414433Y-15455024D01*
X8423957Y-15474071D01*
X8423957Y-15483595D01*
X8414433Y-15502643D01*
X8404910Y-15512167D01*
X8385862Y-15521690D01*
X8347767Y-15521690D01*
X8328719Y-15531214D01*
X8319195Y-15540738D01*
X8309671Y-15559786D01*
X8309671Y-15597881D01*
X8319195Y-15616928D01*
X8328719Y-15626452D01*
X8347767Y-15635976D01*
X8385862Y-15635976D01*
X8404910Y-15626452D01*
X8414433Y-15616928D01*
X8423957Y-15597881D01*
X8423957Y-15559786D01*
X8414433Y-15540738D01*
X8404910Y-15531214D01*
X8385862Y-15521690D01*
X8662052Y-15635976D02*
X8662052Y-15435976D01*
X8747767Y-15635976D02*
X8747767Y-15531214D01*
X8738243Y-15512167D01*
X8719195Y-15502643D01*
X8690624Y-15502643D01*
X8671576Y-15512167D01*
X8662052Y-15521690D01*
X8871576Y-15635976D02*
X8852529Y-15626452D01*
X8843005Y-15616928D01*
X8833481Y-15597881D01*
X8833481Y-15540738D01*
X8843005Y-15521690D01*
X8852529Y-15512167D01*
X8871576Y-15502643D01*
X8900148Y-15502643D01*
X8919195Y-15512167D01*
X8928719Y-15521690D01*
X8938243Y-15540738D01*
X8938243Y-15597881D01*
X8928719Y-15616928D01*
X8919195Y-15626452D01*
X8900148Y-15635976D01*
X8871576Y-15635976D01*
X9052529Y-15635976D02*
X9033481Y-15626452D01*
X9023957Y-15607405D01*
X9023957Y-15435976D01*
X9204910Y-15626452D02*
X9185862Y-15635976D01*
X9147767Y-15635976D01*
X9128719Y-15626452D01*
X9119195Y-15607405D01*
X9119195Y-15531214D01*
X9128719Y-15512167D01*
X9147767Y-15502643D01*
X9185862Y-15502643D01*
X9204910Y-15512167D01*
X9214433Y-15531214D01*
X9214433Y-15550262D01*
X9119195Y-15569309D01*
X9290624Y-15626452D02*
X9309671Y-15635976D01*
X9347767Y-15635976D01*
X9366814Y-15626452D01*
X9376338Y-15607405D01*
X9376338Y-15597881D01*
X9366814Y-15578833D01*
X9347767Y-15569309D01*
X9319195Y-15569309D01*
X9300148Y-15559786D01*
X9290624Y-15540738D01*
X9290624Y-15531214D01*
X9300148Y-15512167D01*
X9319195Y-15502643D01*
X9347767Y-15502643D01*
X9366814Y-15512167D01*
X9443005Y-15712167D02*
X9452529Y-15702643D01*
X9471576Y-15674071D01*
X9481100Y-15655024D01*
X9490624Y-15626452D01*
X9500148Y-15578833D01*
X9500148Y-15540738D01*
X9490624Y-15493119D01*
X9481100Y-15464548D01*
X9471576Y-15445500D01*
X9452529Y-15416928D01*
X9443005Y-15407405D01*
D19*
X4554100Y-15751000D02*
X4671100Y-15868000D01*
X4671100Y-15751000D02*
X4554100Y-15868000D01*
X4612600Y-15868000D02*
X4671100Y-15809500D01*
X4612600Y-15751000D01*
X4554100Y-15809500D01*
X4612600Y-15868000D01*
D11*
X5033481Y-15899976D02*
X4919195Y-15899976D01*
X4976338Y-15899976D02*
X4976338Y-15699976D01*
X4957290Y-15728548D01*
X4938243Y-15747595D01*
X4919195Y-15757119D01*
X5119195Y-15880928D02*
X5128719Y-15890452D01*
X5119195Y-15899976D01*
X5109671Y-15890452D01*
X5119195Y-15880928D01*
X5119195Y-15899976D01*
X5319195Y-15899976D02*
X5204910Y-15899976D01*
X5262052Y-15899976D02*
X5262052Y-15699976D01*
X5243005Y-15728548D01*
X5223957Y-15747595D01*
X5204910Y-15757119D01*
X5385862Y-15699976D02*
X5519195Y-15699976D01*
X5433481Y-15899976D01*
X5633481Y-15699976D02*
X5652528Y-15699976D01*
X5671576Y-15709500D01*
X5681100Y-15719024D01*
X5690624Y-15738071D01*
X5700148Y-15776167D01*
X5700148Y-15823786D01*
X5690624Y-15861881D01*
X5681100Y-15880928D01*
X5671576Y-15890452D01*
X5652528Y-15899976D01*
X5633481Y-15899976D01*
X5614433Y-15890452D01*
X5604909Y-15880928D01*
X5595386Y-15861881D01*
X5585862Y-15823786D01*
X5585862Y-15776167D01*
X5595386Y-15738071D01*
X5604909Y-15719024D01*
X5614433Y-15709500D01*
X5633481Y-15699976D01*
X5785862Y-15899976D02*
X5785862Y-15766643D01*
X5785862Y-15785690D02*
X5795386Y-15776167D01*
X5814433Y-15766643D01*
X5843005Y-15766643D01*
X5862052Y-15776167D01*
X5871576Y-15795214D01*
X5871576Y-15899976D01*
X5871576Y-15795214D02*
X5881100Y-15776167D01*
X5900148Y-15766643D01*
X5928719Y-15766643D01*
X5947767Y-15776167D01*
X5957290Y-15795214D01*
X5957290Y-15899976D01*
X6052528Y-15899976D02*
X6052528Y-15766643D01*
X6052528Y-15785690D02*
X6062052Y-15776167D01*
X6081100Y-15766643D01*
X6109671Y-15766643D01*
X6128719Y-15776167D01*
X6138243Y-15795214D01*
X6138243Y-15899976D01*
X6138243Y-15795214D02*
X6147767Y-15776167D01*
X6166814Y-15766643D01*
X6195386Y-15766643D01*
X6214433Y-15776167D01*
X6223957Y-15795214D01*
X6223957Y-15899976D01*
X6614433Y-15690452D02*
X6443005Y-15947595D01*
X6871576Y-15699976D02*
X6890624Y-15699976D01*
X6909671Y-15709500D01*
X6919195Y-15719024D01*
X6928719Y-15738071D01*
X6938243Y-15776167D01*
X6938243Y-15823786D01*
X6928719Y-15861881D01*
X6919195Y-15880928D01*
X6909671Y-15890452D01*
X6890624Y-15899976D01*
X6871576Y-15899976D01*
X6852528Y-15890452D01*
X6843005Y-15880928D01*
X6833481Y-15861881D01*
X6823957Y-15823786D01*
X6823957Y-15776167D01*
X6833481Y-15738071D01*
X6843005Y-15719024D01*
X6852528Y-15709500D01*
X6871576Y-15699976D01*
X7023957Y-15880928D02*
X7033481Y-15890452D01*
X7023957Y-15899976D01*
X7014433Y-15890452D01*
X7023957Y-15880928D01*
X7023957Y-15899976D01*
X7157290Y-15699976D02*
X7176338Y-15699976D01*
X7195386Y-15709500D01*
X7204909Y-15719024D01*
X7214433Y-15738071D01*
X7223957Y-15776167D01*
X7223957Y-15823786D01*
X7214433Y-15861881D01*
X7204909Y-15880928D01*
X7195386Y-15890452D01*
X7176338Y-15899976D01*
X7157290Y-15899976D01*
X7138243Y-15890452D01*
X7128719Y-15880928D01*
X7119195Y-15861881D01*
X7109671Y-15823786D01*
X7109671Y-15776167D01*
X7119195Y-15738071D01*
X7128719Y-15719024D01*
X7138243Y-15709500D01*
X7157290Y-15699976D01*
X7395386Y-15766643D02*
X7395386Y-15899976D01*
X7347767Y-15690452D02*
X7300148Y-15833309D01*
X7423957Y-15833309D01*
X7585862Y-15699976D02*
X7547767Y-15699976D01*
X7528719Y-15709500D01*
X7519195Y-15719024D01*
X7500148Y-15747595D01*
X7490624Y-15785690D01*
X7490624Y-15861881D01*
X7500148Y-15880928D01*
X7509671Y-15890452D01*
X7528719Y-15899976D01*
X7566814Y-15899976D01*
X7585862Y-15890452D01*
X7595386Y-15880928D01*
X7604909Y-15861881D01*
X7604909Y-15814262D01*
X7595386Y-15795214D01*
X7585862Y-15785690D01*
X7566814Y-15776167D01*
X7528719Y-15776167D01*
X7509671Y-15785690D01*
X7500148Y-15795214D01*
X7490624Y-15814262D01*
X7795386Y-15899976D02*
X7681100Y-15899976D01*
X7738243Y-15899976D02*
X7738243Y-15699976D01*
X7719195Y-15728548D01*
X7700148Y-15747595D01*
X7681100Y-15757119D01*
X7871576Y-15699976D02*
X7871576Y-15738071D01*
X7947767Y-15699976D02*
X7947767Y-15738071D01*
X8243005Y-15976167D02*
X8233481Y-15966643D01*
X8214433Y-15938071D01*
X8204909Y-15919024D01*
X8195386Y-15890452D01*
X8185862Y-15842833D01*
X8185862Y-15804738D01*
X8195386Y-15757119D01*
X8204909Y-15728548D01*
X8214433Y-15709500D01*
X8233481Y-15680928D01*
X8243005Y-15671405D01*
X8309671Y-15719024D02*
X8319195Y-15709500D01*
X8338243Y-15699976D01*
X8385862Y-15699976D01*
X8404910Y-15709500D01*
X8414433Y-15719024D01*
X8423957Y-15738071D01*
X8423957Y-15757119D01*
X8414433Y-15785690D01*
X8300148Y-15899976D01*
X8423957Y-15899976D01*
X8662052Y-15899976D02*
X8662052Y-15699976D01*
X8747767Y-15899976D02*
X8747767Y-15795214D01*
X8738243Y-15776167D01*
X8719195Y-15766643D01*
X8690624Y-15766643D01*
X8671576Y-15776167D01*
X8662052Y-15785690D01*
X8871576Y-15899976D02*
X8852529Y-15890452D01*
X8843005Y-15880928D01*
X8833481Y-15861881D01*
X8833481Y-15804738D01*
X8843005Y-15785690D01*
X8852529Y-15776167D01*
X8871576Y-15766643D01*
X8900148Y-15766643D01*
X8919195Y-15776167D01*
X8928719Y-15785690D01*
X8938243Y-15804738D01*
X8938243Y-15861881D01*
X8928719Y-15880928D01*
X8919195Y-15890452D01*
X8900148Y-15899976D01*
X8871576Y-15899976D01*
X9052529Y-15899976D02*
X9033481Y-15890452D01*
X9023957Y-15871405D01*
X9023957Y-15699976D01*
X9204910Y-15890452D02*
X9185862Y-15899976D01*
X9147767Y-15899976D01*
X9128719Y-15890452D01*
X9119195Y-15871405D01*
X9119195Y-15795214D01*
X9128719Y-15776167D01*
X9147767Y-15766643D01*
X9185862Y-15766643D01*
X9204910Y-15776167D01*
X9214433Y-15795214D01*
X9214433Y-15814262D01*
X9119195Y-15833309D01*
X9290624Y-15890452D02*
X9309671Y-15899976D01*
X9347767Y-15899976D01*
X9366814Y-15890452D01*
X9376338Y-15871405D01*
X9376338Y-15861881D01*
X9366814Y-15842833D01*
X9347767Y-15833309D01*
X9319195Y-15833309D01*
X9300148Y-15823786D01*
X9290624Y-15804738D01*
X9290624Y-15795214D01*
X9300148Y-15776167D01*
X9319195Y-15766643D01*
X9347767Y-15766643D01*
X9366814Y-15776167D01*
X9443005Y-15976167D02*
X9452529Y-15966643D01*
X9471576Y-15938071D01*
X9481100Y-15919024D01*
X9490624Y-15890452D01*
X9500148Y-15842833D01*
X9500148Y-15804738D01*
X9490624Y-15757119D01*
X9481100Y-15728548D01*
X9471576Y-15709500D01*
X9452529Y-15680928D01*
X9443005Y-15671405D01*
D20*
X4606100Y-16008500D02*
X4606100Y-16138500D01*
X4541100Y-16073500D02*
X4671100Y-16073500D01*
X4671100Y-16073500D02*
G75*
G03*
X4671100Y-16073500I-65000J0D01*
G01*
D11*
X5033481Y-16163976D02*
X4919195Y-16163976D01*
X4976338Y-16163976D02*
X4976338Y-15963976D01*
X4957290Y-15992548D01*
X4938243Y-16011595D01*
X4919195Y-16021119D01*
X5119195Y-16144928D02*
X5128719Y-16154452D01*
X5119195Y-16163976D01*
X5109671Y-16154452D01*
X5119195Y-16144928D01*
X5119195Y-16163976D01*
X5195386Y-15963976D02*
X5319195Y-15963976D01*
X5252529Y-16040167D01*
X5281100Y-16040167D01*
X5300148Y-16049690D01*
X5309671Y-16059214D01*
X5319195Y-16078262D01*
X5319195Y-16125881D01*
X5309671Y-16144928D01*
X5300148Y-16154452D01*
X5281100Y-16163976D01*
X5223957Y-16163976D01*
X5204910Y-16154452D01*
X5195386Y-16144928D01*
X5443005Y-15963976D02*
X5462052Y-15963976D01*
X5481100Y-15973500D01*
X5490624Y-15983024D01*
X5500148Y-16002071D01*
X5509671Y-16040167D01*
X5509671Y-16087786D01*
X5500148Y-16125881D01*
X5490624Y-16144928D01*
X5481100Y-16154452D01*
X5462052Y-16163976D01*
X5443005Y-16163976D01*
X5423957Y-16154452D01*
X5414433Y-16144928D01*
X5404910Y-16125881D01*
X5395386Y-16087786D01*
X5395386Y-16040167D01*
X5404910Y-16002071D01*
X5414433Y-15983024D01*
X5423957Y-15973500D01*
X5443005Y-15963976D01*
X5633481Y-15963976D02*
X5652528Y-15963976D01*
X5671576Y-15973500D01*
X5681100Y-15983024D01*
X5690624Y-16002071D01*
X5700148Y-16040167D01*
X5700148Y-16087786D01*
X5690624Y-16125881D01*
X5681100Y-16144928D01*
X5671576Y-16154452D01*
X5652528Y-16163976D01*
X5633481Y-16163976D01*
X5614433Y-16154452D01*
X5604909Y-16144928D01*
X5595386Y-16125881D01*
X5585862Y-16087786D01*
X5585862Y-16040167D01*
X5595386Y-16002071D01*
X5604909Y-15983024D01*
X5614433Y-15973500D01*
X5633481Y-15963976D01*
X5785862Y-16163976D02*
X5785862Y-16030643D01*
X5785862Y-16049690D02*
X5795386Y-16040167D01*
X5814433Y-16030643D01*
X5843005Y-16030643D01*
X5862052Y-16040167D01*
X5871576Y-16059214D01*
X5871576Y-16163976D01*
X5871576Y-16059214D02*
X5881100Y-16040167D01*
X5900148Y-16030643D01*
X5928719Y-16030643D01*
X5947767Y-16040167D01*
X5957290Y-16059214D01*
X5957290Y-16163976D01*
X6052528Y-16163976D02*
X6052528Y-16030643D01*
X6052528Y-16049690D02*
X6062052Y-16040167D01*
X6081100Y-16030643D01*
X6109671Y-16030643D01*
X6128719Y-16040167D01*
X6138243Y-16059214D01*
X6138243Y-16163976D01*
X6138243Y-16059214D02*
X6147767Y-16040167D01*
X6166814Y-16030643D01*
X6195386Y-16030643D01*
X6214433Y-16040167D01*
X6223957Y-16059214D01*
X6223957Y-16163976D01*
X6614433Y-15954452D02*
X6443005Y-16211595D01*
X6871576Y-15963976D02*
X6890624Y-15963976D01*
X6909671Y-15973500D01*
X6919195Y-15983024D01*
X6928719Y-16002071D01*
X6938243Y-16040167D01*
X6938243Y-16087786D01*
X6928719Y-16125881D01*
X6919195Y-16144928D01*
X6909671Y-16154452D01*
X6890624Y-16163976D01*
X6871576Y-16163976D01*
X6852528Y-16154452D01*
X6843005Y-16144928D01*
X6833481Y-16125881D01*
X6823957Y-16087786D01*
X6823957Y-16040167D01*
X6833481Y-16002071D01*
X6843005Y-15983024D01*
X6852528Y-15973500D01*
X6871576Y-15963976D01*
X7023957Y-16144928D02*
X7033481Y-16154452D01*
X7023957Y-16163976D01*
X7014433Y-16154452D01*
X7023957Y-16144928D01*
X7023957Y-16163976D01*
X7157290Y-15963976D02*
X7176338Y-15963976D01*
X7195386Y-15973500D01*
X7204909Y-15983024D01*
X7214433Y-16002071D01*
X7223957Y-16040167D01*
X7223957Y-16087786D01*
X7214433Y-16125881D01*
X7204909Y-16144928D01*
X7195386Y-16154452D01*
X7176338Y-16163976D01*
X7157290Y-16163976D01*
X7138243Y-16154452D01*
X7128719Y-16144928D01*
X7119195Y-16125881D01*
X7109671Y-16087786D01*
X7109671Y-16040167D01*
X7119195Y-16002071D01*
X7128719Y-15983024D01*
X7138243Y-15973500D01*
X7157290Y-15963976D01*
X7404909Y-15963976D02*
X7309671Y-15963976D01*
X7300148Y-16059214D01*
X7309671Y-16049690D01*
X7328719Y-16040167D01*
X7376338Y-16040167D01*
X7395386Y-16049690D01*
X7404909Y-16059214D01*
X7414433Y-16078262D01*
X7414433Y-16125881D01*
X7404909Y-16144928D01*
X7395386Y-16154452D01*
X7376338Y-16163976D01*
X7328719Y-16163976D01*
X7309671Y-16154452D01*
X7300148Y-16144928D01*
X7604909Y-16163976D02*
X7490624Y-16163976D01*
X7547767Y-16163976D02*
X7547767Y-15963976D01*
X7528719Y-15992548D01*
X7509671Y-16011595D01*
X7490624Y-16021119D01*
X7681100Y-15983024D02*
X7690624Y-15973500D01*
X7709671Y-15963976D01*
X7757290Y-15963976D01*
X7776338Y-15973500D01*
X7785862Y-15983024D01*
X7795386Y-16002071D01*
X7795386Y-16021119D01*
X7785862Y-16049690D01*
X7671576Y-16163976D01*
X7795386Y-16163976D01*
X7871576Y-15963976D02*
X7871576Y-16002071D01*
X7947767Y-15963976D02*
X7947767Y-16002071D01*
X8243005Y-16240167D02*
X8233481Y-16230643D01*
X8214433Y-16202071D01*
X8204909Y-16183024D01*
X8195386Y-16154452D01*
X8185862Y-16106833D01*
X8185862Y-16068738D01*
X8195386Y-16021119D01*
X8204909Y-15992548D01*
X8214433Y-15973500D01*
X8233481Y-15944928D01*
X8243005Y-15935405D01*
X8423957Y-16163976D02*
X8309671Y-16163976D01*
X8366814Y-16163976D02*
X8366814Y-15963976D01*
X8347767Y-15992548D01*
X8328719Y-16011595D01*
X8309671Y-16021119D01*
X8595386Y-15963976D02*
X8557290Y-15963976D01*
X8538243Y-15973500D01*
X8528719Y-15983024D01*
X8509671Y-16011595D01*
X8500148Y-16049690D01*
X8500148Y-16125881D01*
X8509671Y-16144928D01*
X8519195Y-16154452D01*
X8538243Y-16163976D01*
X8576338Y-16163976D01*
X8595386Y-16154452D01*
X8604910Y-16144928D01*
X8614433Y-16125881D01*
X8614433Y-16078262D01*
X8604910Y-16059214D01*
X8595386Y-16049690D01*
X8576338Y-16040167D01*
X8538243Y-16040167D01*
X8519195Y-16049690D01*
X8509671Y-16059214D01*
X8500148Y-16078262D01*
X8852529Y-16163976D02*
X8852529Y-15963976D01*
X8938243Y-16163976D02*
X8938243Y-16059214D01*
X8928719Y-16040167D01*
X8909671Y-16030643D01*
X8881100Y-16030643D01*
X8862052Y-16040167D01*
X8852529Y-16049690D01*
X9062052Y-16163976D02*
X9043005Y-16154452D01*
X9033481Y-16144928D01*
X9023957Y-16125881D01*
X9023957Y-16068738D01*
X9033481Y-16049690D01*
X9043005Y-16040167D01*
X9062052Y-16030643D01*
X9090624Y-16030643D01*
X9109671Y-16040167D01*
X9119195Y-16049690D01*
X9128719Y-16068738D01*
X9128719Y-16125881D01*
X9119195Y-16144928D01*
X9109671Y-16154452D01*
X9090624Y-16163976D01*
X9062052Y-16163976D01*
X9243005Y-16163976D02*
X9223957Y-16154452D01*
X9214433Y-16135405D01*
X9214433Y-15963976D01*
X9395386Y-16154452D02*
X9376338Y-16163976D01*
X9338243Y-16163976D01*
X9319195Y-16154452D01*
X9309671Y-16135405D01*
X9309671Y-16059214D01*
X9319195Y-16040167D01*
X9338243Y-16030643D01*
X9376338Y-16030643D01*
X9395386Y-16040167D01*
X9404910Y-16059214D01*
X9404910Y-16078262D01*
X9309671Y-16097309D01*
X9481100Y-16154452D02*
X9500148Y-16163976D01*
X9538243Y-16163976D01*
X9557290Y-16154452D01*
X9566814Y-16135405D01*
X9566814Y-16125881D01*
X9557290Y-16106833D01*
X9538243Y-16097309D01*
X9509671Y-16097309D01*
X9490624Y-16087786D01*
X9481100Y-16068738D01*
X9481100Y-16059214D01*
X9490624Y-16040167D01*
X9509671Y-16030643D01*
X9538243Y-16030643D01*
X9557290Y-16040167D01*
X9633481Y-16240167D02*
X9643005Y-16230643D01*
X9662052Y-16202071D01*
X9671576Y-16183024D01*
X9681100Y-16154452D01*
X9690624Y-16106833D01*
X9690624Y-16068738D01*
X9681100Y-16021119D01*
X9671576Y-15992548D01*
X9662052Y-15973500D01*
X9643005Y-15944928D01*
X9633481Y-15935405D01*
D21*
X4651330Y-16385230D02*
X4651330Y-16289770D01*
X4555870Y-16289770D01*
X4555870Y-16385230D01*
X4651330Y-16385230D01*
X4671100Y-16337500D02*
G75*
G03*
X4671100Y-16337500I-67500J0D01*
G01*
D11*
X5033481Y-16427976D02*
X4919195Y-16427976D01*
X4976338Y-16427976D02*
X4976338Y-16227976D01*
X4957290Y-16256548D01*
X4938243Y-16275595D01*
X4919195Y-16285119D01*
X5119195Y-16408928D02*
X5128719Y-16418452D01*
X5119195Y-16427976D01*
X5109671Y-16418452D01*
X5119195Y-16408928D01*
X5119195Y-16427976D01*
X5195386Y-16227976D02*
X5319195Y-16227976D01*
X5252529Y-16304167D01*
X5281100Y-16304167D01*
X5300148Y-16313690D01*
X5309671Y-16323214D01*
X5319195Y-16342262D01*
X5319195Y-16389881D01*
X5309671Y-16408928D01*
X5300148Y-16418452D01*
X5281100Y-16427976D01*
X5223957Y-16427976D01*
X5204910Y-16418452D01*
X5195386Y-16408928D01*
X5500148Y-16227976D02*
X5404910Y-16227976D01*
X5395386Y-16323214D01*
X5404910Y-16313690D01*
X5423957Y-16304167D01*
X5471576Y-16304167D01*
X5490624Y-16313690D01*
X5500148Y-16323214D01*
X5509671Y-16342262D01*
X5509671Y-16389881D01*
X5500148Y-16408928D01*
X5490624Y-16418452D01*
X5471576Y-16427976D01*
X5423957Y-16427976D01*
X5404910Y-16418452D01*
X5395386Y-16408928D01*
X5633481Y-16227976D02*
X5652528Y-16227976D01*
X5671576Y-16237500D01*
X5681100Y-16247024D01*
X5690624Y-16266071D01*
X5700148Y-16304167D01*
X5700148Y-16351786D01*
X5690624Y-16389881D01*
X5681100Y-16408928D01*
X5671576Y-16418452D01*
X5652528Y-16427976D01*
X5633481Y-16427976D01*
X5614433Y-16418452D01*
X5604909Y-16408928D01*
X5595386Y-16389881D01*
X5585862Y-16351786D01*
X5585862Y-16304167D01*
X5595386Y-16266071D01*
X5604909Y-16247024D01*
X5614433Y-16237500D01*
X5633481Y-16227976D01*
X5785862Y-16427976D02*
X5785862Y-16294643D01*
X5785862Y-16313690D02*
X5795386Y-16304167D01*
X5814433Y-16294643D01*
X5843005Y-16294643D01*
X5862052Y-16304167D01*
X5871576Y-16323214D01*
X5871576Y-16427976D01*
X5871576Y-16323214D02*
X5881100Y-16304167D01*
X5900148Y-16294643D01*
X5928719Y-16294643D01*
X5947767Y-16304167D01*
X5957290Y-16323214D01*
X5957290Y-16427976D01*
X6052528Y-16427976D02*
X6052528Y-16294643D01*
X6052528Y-16313690D02*
X6062052Y-16304167D01*
X6081100Y-16294643D01*
X6109671Y-16294643D01*
X6128719Y-16304167D01*
X6138243Y-16323214D01*
X6138243Y-16427976D01*
X6138243Y-16323214D02*
X6147767Y-16304167D01*
X6166814Y-16294643D01*
X6195386Y-16294643D01*
X6214433Y-16304167D01*
X6223957Y-16323214D01*
X6223957Y-16427976D01*
X6614433Y-16218452D02*
X6443005Y-16475595D01*
X6871576Y-16227976D02*
X6890624Y-16227976D01*
X6909671Y-16237500D01*
X6919195Y-16247024D01*
X6928719Y-16266071D01*
X6938243Y-16304167D01*
X6938243Y-16351786D01*
X6928719Y-16389881D01*
X6919195Y-16408928D01*
X6909671Y-16418452D01*
X6890624Y-16427976D01*
X6871576Y-16427976D01*
X6852528Y-16418452D01*
X6843005Y-16408928D01*
X6833481Y-16389881D01*
X6823957Y-16351786D01*
X6823957Y-16304167D01*
X6833481Y-16266071D01*
X6843005Y-16247024D01*
X6852528Y-16237500D01*
X6871576Y-16227976D01*
X7023957Y-16408928D02*
X7033481Y-16418452D01*
X7023957Y-16427976D01*
X7014433Y-16418452D01*
X7023957Y-16408928D01*
X7023957Y-16427976D01*
X7157290Y-16227976D02*
X7176338Y-16227976D01*
X7195386Y-16237500D01*
X7204909Y-16247024D01*
X7214433Y-16266071D01*
X7223957Y-16304167D01*
X7223957Y-16351786D01*
X7214433Y-16389881D01*
X7204909Y-16408928D01*
X7195386Y-16418452D01*
X7176338Y-16427976D01*
X7157290Y-16427976D01*
X7138243Y-16418452D01*
X7128719Y-16408928D01*
X7119195Y-16389881D01*
X7109671Y-16351786D01*
X7109671Y-16304167D01*
X7119195Y-16266071D01*
X7128719Y-16247024D01*
X7138243Y-16237500D01*
X7157290Y-16227976D01*
X7404909Y-16227976D02*
X7309671Y-16227976D01*
X7300148Y-16323214D01*
X7309671Y-16313690D01*
X7328719Y-16304167D01*
X7376338Y-16304167D01*
X7395386Y-16313690D01*
X7404909Y-16323214D01*
X7414433Y-16342262D01*
X7414433Y-16389881D01*
X7404909Y-16408928D01*
X7395386Y-16418452D01*
X7376338Y-16427976D01*
X7328719Y-16427976D01*
X7309671Y-16418452D01*
X7300148Y-16408928D01*
X7481100Y-16227976D02*
X7604909Y-16227976D01*
X7538243Y-16304167D01*
X7566814Y-16304167D01*
X7585862Y-16313690D01*
X7595386Y-16323214D01*
X7604909Y-16342262D01*
X7604909Y-16389881D01*
X7595386Y-16408928D01*
X7585862Y-16418452D01*
X7566814Y-16427976D01*
X7509671Y-16427976D01*
X7490624Y-16418452D01*
X7481100Y-16408928D01*
X7795386Y-16427976D02*
X7681100Y-16427976D01*
X7738243Y-16427976D02*
X7738243Y-16227976D01*
X7719195Y-16256548D01*
X7700148Y-16275595D01*
X7681100Y-16285119D01*
X7871576Y-16227976D02*
X7871576Y-16266071D01*
X7947767Y-16227976D02*
X7947767Y-16266071D01*
X8243005Y-16504167D02*
X8233481Y-16494643D01*
X8214433Y-16466071D01*
X8204909Y-16447024D01*
X8195386Y-16418452D01*
X8185862Y-16370833D01*
X8185862Y-16332738D01*
X8195386Y-16285119D01*
X8204909Y-16256548D01*
X8214433Y-16237500D01*
X8233481Y-16208928D01*
X8243005Y-16199405D01*
X8347767Y-16313690D02*
X8328719Y-16304167D01*
X8319195Y-16294643D01*
X8309671Y-16275595D01*
X8309671Y-16266071D01*
X8319195Y-16247024D01*
X8328719Y-16237500D01*
X8347767Y-16227976D01*
X8385862Y-16227976D01*
X8404910Y-16237500D01*
X8414433Y-16247024D01*
X8423957Y-16266071D01*
X8423957Y-16275595D01*
X8414433Y-16294643D01*
X8404910Y-16304167D01*
X8385862Y-16313690D01*
X8347767Y-16313690D01*
X8328719Y-16323214D01*
X8319195Y-16332738D01*
X8309671Y-16351786D01*
X8309671Y-16389881D01*
X8319195Y-16408928D01*
X8328719Y-16418452D01*
X8347767Y-16427976D01*
X8385862Y-16427976D01*
X8404910Y-16418452D01*
X8414433Y-16408928D01*
X8423957Y-16389881D01*
X8423957Y-16351786D01*
X8414433Y-16332738D01*
X8404910Y-16323214D01*
X8385862Y-16313690D01*
X8662052Y-16427976D02*
X8662052Y-16227976D01*
X8747767Y-16427976D02*
X8747767Y-16323214D01*
X8738243Y-16304167D01*
X8719195Y-16294643D01*
X8690624Y-16294643D01*
X8671576Y-16304167D01*
X8662052Y-16313690D01*
X8871576Y-16427976D02*
X8852529Y-16418452D01*
X8843005Y-16408928D01*
X8833481Y-16389881D01*
X8833481Y-16332738D01*
X8843005Y-16313690D01*
X8852529Y-16304167D01*
X8871576Y-16294643D01*
X8900148Y-16294643D01*
X8919195Y-16304167D01*
X8928719Y-16313690D01*
X8938243Y-16332738D01*
X8938243Y-16389881D01*
X8928719Y-16408928D01*
X8919195Y-16418452D01*
X8900148Y-16427976D01*
X8871576Y-16427976D01*
X9052529Y-16427976D02*
X9033481Y-16418452D01*
X9023957Y-16399405D01*
X9023957Y-16227976D01*
X9204910Y-16418452D02*
X9185862Y-16427976D01*
X9147767Y-16427976D01*
X9128719Y-16418452D01*
X9119195Y-16399405D01*
X9119195Y-16323214D01*
X9128719Y-16304167D01*
X9147767Y-16294643D01*
X9185862Y-16294643D01*
X9204910Y-16304167D01*
X9214433Y-16323214D01*
X9214433Y-16342262D01*
X9119195Y-16361309D01*
X9290624Y-16418452D02*
X9309671Y-16427976D01*
X9347767Y-16427976D01*
X9366814Y-16418452D01*
X9376338Y-16399405D01*
X9376338Y-16389881D01*
X9366814Y-16370833D01*
X9347767Y-16361309D01*
X9319195Y-16361309D01*
X9300148Y-16351786D01*
X9290624Y-16332738D01*
X9290624Y-16323214D01*
X9300148Y-16304167D01*
X9319195Y-16294643D01*
X9347767Y-16294643D01*
X9366814Y-16304167D01*
X9443005Y-16504167D02*
X9452529Y-16494643D01*
X9471576Y-16466071D01*
X9481100Y-16447024D01*
X9490624Y-16418452D01*
X9500148Y-16370833D01*
X9500148Y-16332738D01*
X9490624Y-16285119D01*
X9481100Y-16256548D01*
X9471576Y-16237500D01*
X9452529Y-16208928D01*
X9443005Y-16199405D01*
X4571100Y-16701500D02*
X4671100Y-16601500D01*
X4571100Y-16501500D01*
X4471100Y-16601500D01*
X4571100Y-16701500D01*
X4671100Y-16601500D02*
G75*
G03*
X4671100Y-16601500I-100000J0D01*
G01*
X4919195Y-16511024D02*
X4928719Y-16501500D01*
X4947767Y-16491976D01*
X4995386Y-16491976D01*
X5014433Y-16501500D01*
X5023957Y-16511024D01*
X5033481Y-16530071D01*
X5033481Y-16549119D01*
X5023957Y-16577690D01*
X4909671Y-16691976D01*
X5033481Y-16691976D01*
X5119195Y-16672928D02*
X5128719Y-16682452D01*
X5119195Y-16691976D01*
X5109671Y-16682452D01*
X5119195Y-16672928D01*
X5119195Y-16691976D01*
X5204910Y-16511024D02*
X5214433Y-16501500D01*
X5233481Y-16491976D01*
X5281100Y-16491976D01*
X5300148Y-16501500D01*
X5309671Y-16511024D01*
X5319195Y-16530071D01*
X5319195Y-16549119D01*
X5309671Y-16577690D01*
X5195386Y-16691976D01*
X5319195Y-16691976D01*
X5443005Y-16491976D02*
X5462052Y-16491976D01*
X5481100Y-16501500D01*
X5490624Y-16511024D01*
X5500148Y-16530071D01*
X5509671Y-16568167D01*
X5509671Y-16615786D01*
X5500148Y-16653881D01*
X5490624Y-16672928D01*
X5481100Y-16682452D01*
X5462052Y-16691976D01*
X5443005Y-16691976D01*
X5423957Y-16682452D01*
X5414433Y-16672928D01*
X5404910Y-16653881D01*
X5395386Y-16615786D01*
X5395386Y-16568167D01*
X5404910Y-16530071D01*
X5414433Y-16511024D01*
X5423957Y-16501500D01*
X5443005Y-16491976D01*
X5633481Y-16491976D02*
X5652528Y-16491976D01*
X5671576Y-16501500D01*
X5681100Y-16511024D01*
X5690624Y-16530071D01*
X5700148Y-16568167D01*
X5700148Y-16615786D01*
X5690624Y-16653881D01*
X5681100Y-16672928D01*
X5671576Y-16682452D01*
X5652528Y-16691976D01*
X5633481Y-16691976D01*
X5614433Y-16682452D01*
X5604909Y-16672928D01*
X5595386Y-16653881D01*
X5585862Y-16615786D01*
X5585862Y-16568167D01*
X5595386Y-16530071D01*
X5604909Y-16511024D01*
X5614433Y-16501500D01*
X5633481Y-16491976D01*
X5785862Y-16691976D02*
X5785862Y-16558643D01*
X5785862Y-16577690D02*
X5795386Y-16568167D01*
X5814433Y-16558643D01*
X5843005Y-16558643D01*
X5862052Y-16568167D01*
X5871576Y-16587214D01*
X5871576Y-16691976D01*
X5871576Y-16587214D02*
X5881100Y-16568167D01*
X5900148Y-16558643D01*
X5928719Y-16558643D01*
X5947767Y-16568167D01*
X5957290Y-16587214D01*
X5957290Y-16691976D01*
X6052528Y-16691976D02*
X6052528Y-16558643D01*
X6052528Y-16577690D02*
X6062052Y-16568167D01*
X6081100Y-16558643D01*
X6109671Y-16558643D01*
X6128719Y-16568167D01*
X6138243Y-16587214D01*
X6138243Y-16691976D01*
X6138243Y-16587214D02*
X6147767Y-16568167D01*
X6166814Y-16558643D01*
X6195386Y-16558643D01*
X6214433Y-16568167D01*
X6223957Y-16587214D01*
X6223957Y-16691976D01*
X6614433Y-16482452D02*
X6443005Y-16739595D01*
X6871576Y-16491976D02*
X6890624Y-16491976D01*
X6909671Y-16501500D01*
X6919195Y-16511024D01*
X6928719Y-16530071D01*
X6938243Y-16568167D01*
X6938243Y-16615786D01*
X6928719Y-16653881D01*
X6919195Y-16672928D01*
X6909671Y-16682452D01*
X6890624Y-16691976D01*
X6871576Y-16691976D01*
X6852528Y-16682452D01*
X6843005Y-16672928D01*
X6833481Y-16653881D01*
X6823957Y-16615786D01*
X6823957Y-16568167D01*
X6833481Y-16530071D01*
X6843005Y-16511024D01*
X6852528Y-16501500D01*
X6871576Y-16491976D01*
X7023957Y-16672928D02*
X7033481Y-16682452D01*
X7023957Y-16691976D01*
X7014433Y-16682452D01*
X7023957Y-16672928D01*
X7023957Y-16691976D01*
X7157290Y-16491976D02*
X7176338Y-16491976D01*
X7195386Y-16501500D01*
X7204909Y-16511024D01*
X7214433Y-16530071D01*
X7223957Y-16568167D01*
X7223957Y-16615786D01*
X7214433Y-16653881D01*
X7204909Y-16672928D01*
X7195386Y-16682452D01*
X7176338Y-16691976D01*
X7157290Y-16691976D01*
X7138243Y-16682452D01*
X7128719Y-16672928D01*
X7119195Y-16653881D01*
X7109671Y-16615786D01*
X7109671Y-16568167D01*
X7119195Y-16530071D01*
X7128719Y-16511024D01*
X7138243Y-16501500D01*
X7157290Y-16491976D01*
X7338243Y-16577690D02*
X7319195Y-16568167D01*
X7309671Y-16558643D01*
X7300148Y-16539595D01*
X7300148Y-16530071D01*
X7309671Y-16511024D01*
X7319195Y-16501500D01*
X7338243Y-16491976D01*
X7376338Y-16491976D01*
X7395386Y-16501500D01*
X7404909Y-16511024D01*
X7414433Y-16530071D01*
X7414433Y-16539595D01*
X7404909Y-16558643D01*
X7395386Y-16568167D01*
X7376338Y-16577690D01*
X7338243Y-16577690D01*
X7319195Y-16587214D01*
X7309671Y-16596738D01*
X7300148Y-16615786D01*
X7300148Y-16653881D01*
X7309671Y-16672928D01*
X7319195Y-16682452D01*
X7338243Y-16691976D01*
X7376338Y-16691976D01*
X7395386Y-16682452D01*
X7404909Y-16672928D01*
X7414433Y-16653881D01*
X7414433Y-16615786D01*
X7404909Y-16596738D01*
X7395386Y-16587214D01*
X7376338Y-16577690D01*
X7585862Y-16491976D02*
X7547767Y-16491976D01*
X7528719Y-16501500D01*
X7519195Y-16511024D01*
X7500148Y-16539595D01*
X7490624Y-16577690D01*
X7490624Y-16653881D01*
X7500148Y-16672928D01*
X7509671Y-16682452D01*
X7528719Y-16691976D01*
X7566814Y-16691976D01*
X7585862Y-16682452D01*
X7595386Y-16672928D01*
X7604909Y-16653881D01*
X7604909Y-16606262D01*
X7595386Y-16587214D01*
X7585862Y-16577690D01*
X7566814Y-16568167D01*
X7528719Y-16568167D01*
X7509671Y-16577690D01*
X7500148Y-16587214D01*
X7490624Y-16606262D01*
X7776338Y-16491976D02*
X7738243Y-16491976D01*
X7719195Y-16501500D01*
X7709671Y-16511024D01*
X7690624Y-16539595D01*
X7681100Y-16577690D01*
X7681100Y-16653881D01*
X7690624Y-16672928D01*
X7700148Y-16682452D01*
X7719195Y-16691976D01*
X7757290Y-16691976D01*
X7776338Y-16682452D01*
X7785862Y-16672928D01*
X7795386Y-16653881D01*
X7795386Y-16606262D01*
X7785862Y-16587214D01*
X7776338Y-16577690D01*
X7757290Y-16568167D01*
X7719195Y-16568167D01*
X7700148Y-16577690D01*
X7690624Y-16587214D01*
X7681100Y-16606262D01*
X7871576Y-16491976D02*
X7871576Y-16530071D01*
X7947767Y-16491976D02*
X7947767Y-16530071D01*
X8243005Y-16768167D02*
X8233481Y-16758643D01*
X8214433Y-16730071D01*
X8204909Y-16711024D01*
X8195386Y-16682452D01*
X8185862Y-16634833D01*
X8185862Y-16596738D01*
X8195386Y-16549119D01*
X8204909Y-16520548D01*
X8214433Y-16501500D01*
X8233481Y-16472928D01*
X8243005Y-16463405D01*
X8404910Y-16558643D02*
X8404910Y-16691976D01*
X8357290Y-16482452D02*
X8309671Y-16625309D01*
X8433481Y-16625309D01*
X8662052Y-16691976D02*
X8662052Y-16491976D01*
X8747767Y-16691976D02*
X8747767Y-16587214D01*
X8738243Y-16568167D01*
X8719195Y-16558643D01*
X8690624Y-16558643D01*
X8671576Y-16568167D01*
X8662052Y-16577690D01*
X8871576Y-16691976D02*
X8852529Y-16682452D01*
X8843005Y-16672928D01*
X8833481Y-16653881D01*
X8833481Y-16596738D01*
X8843005Y-16577690D01*
X8852529Y-16568167D01*
X8871576Y-16558643D01*
X8900148Y-16558643D01*
X8919195Y-16568167D01*
X8928719Y-16577690D01*
X8938243Y-16596738D01*
X8938243Y-16653881D01*
X8928719Y-16672928D01*
X8919195Y-16682452D01*
X8900148Y-16691976D01*
X8871576Y-16691976D01*
X9052529Y-16691976D02*
X9033481Y-16682452D01*
X9023957Y-16663405D01*
X9023957Y-16491976D01*
X9204910Y-16682452D02*
X9185862Y-16691976D01*
X9147767Y-16691976D01*
X9128719Y-16682452D01*
X9119195Y-16663405D01*
X9119195Y-16587214D01*
X9128719Y-16568167D01*
X9147767Y-16558643D01*
X9185862Y-16558643D01*
X9204910Y-16568167D01*
X9214433Y-16587214D01*
X9214433Y-16606262D01*
X9119195Y-16625309D01*
X9290624Y-16682452D02*
X9309671Y-16691976D01*
X9347767Y-16691976D01*
X9366814Y-16682452D01*
X9376338Y-16663405D01*
X9376338Y-16653881D01*
X9366814Y-16634833D01*
X9347767Y-16625309D01*
X9319195Y-16625309D01*
X9300148Y-16615786D01*
X9290624Y-16596738D01*
X9290624Y-16587214D01*
X9300148Y-16568167D01*
X9319195Y-16558643D01*
X9347767Y-16558643D01*
X9366814Y-16568167D01*
X9443005Y-16768167D02*
X9452529Y-16758643D01*
X9471576Y-16730071D01*
X9481100Y-16711024D01*
X9490624Y-16682452D01*
X9500148Y-16634833D01*
X9500148Y-16596738D01*
X9490624Y-16549119D01*
X9481100Y-16520548D01*
X9471576Y-16501500D01*
X9452529Y-16472928D01*
X9443005Y-16463405D01*
M02*
