%TF.GenerationSoftware,KiCad,Pcbnew,(6.0.6-1)-1*%
%TF.CreationDate,2022-07-06T12:40:26-04:00*%
%TF.ProjectId,dad_bod,6461645f-626f-4642-9e6b-696361645f70,rev?*%
%TF.SameCoordinates,Original*%
%TF.FileFunction,Soldermask,Top*%
%TF.FilePolarity,Negative*%
%FSLAX46Y46*%
G04 Gerber Fmt 4.6, Leading zero omitted, Abs format (unit mm)*
G04 Created by KiCad (PCBNEW (6.0.6-1)-1) date 2022-07-06 12:40:26*
%MOMM*%
%LPD*%
G01*
G04 APERTURE LIST*
G04 Aperture macros list*
%AMRoundRect*
0 Rectangle with rounded corners*
0 $1 Rounding radius*
0 $2 $3 $4 $5 $6 $7 $8 $9 X,Y pos of 4 corners*
0 Add a 4 corners polygon primitive as box body*
4,1,4,$2,$3,$4,$5,$6,$7,$8,$9,$2,$3,0*
0 Add four circle primitives for the rounded corners*
1,1,$1+$1,$2,$3*
1,1,$1+$1,$4,$5*
1,1,$1+$1,$6,$7*
1,1,$1+$1,$8,$9*
0 Add four rect primitives between the rounded corners*
20,1,$1+$1,$2,$3,$4,$5,0*
20,1,$1+$1,$4,$5,$6,$7,0*
20,1,$1+$1,$6,$7,$8,$9,0*
20,1,$1+$1,$8,$9,$2,$3,0*%
G04 Aperture macros list end*
%ADD10O,1.800000X1.800000*%
%ADD11RoundRect,0.050000X-0.850000X-0.850000X0.850000X-0.850000X0.850000X0.850000X-0.850000X0.850000X0*%
%ADD12RoundRect,0.300000X0.325000X0.450000X-0.325000X0.450000X-0.325000X-0.450000X0.325000X-0.450000X0*%
%ADD13RoundRect,0.050000X0.525000X0.750000X-0.525000X0.750000X-0.525000X-0.750000X0.525000X-0.750000X0*%
%ADD14O,1.150000X1.600000*%
%ADD15RoundRect,0.300000X-0.325000X-0.450000X0.325000X-0.450000X0.325000X0.450000X-0.325000X0.450000X0*%
%ADD16RoundRect,0.050000X0.300000X0.575000X-0.300000X0.575000X-0.300000X-0.575000X0.300000X-0.575000X0*%
%ADD17RoundRect,0.050000X0.575000X-0.300000X0.575000X0.300000X-0.575000X0.300000X-0.575000X-0.300000X0*%
%ADD18C,0.750000*%
%ADD19O,1.208000X2.316000*%
%ADD20C,1.624000*%
%ADD21RoundRect,0.050000X-0.800000X-1.250000X0.800000X-1.250000X0.800000X1.250000X-0.800000X1.250000X0*%
%ADD22RoundRect,0.300000X-0.412500X-1.100000X0.412500X-1.100000X0.412500X1.100000X-0.412500X1.100000X0*%
%ADD23RoundRect,0.300000X1.100000X-0.412500X1.100000X0.412500X-1.100000X0.412500X-1.100000X-0.412500X0*%
%ADD24RoundRect,0.300000X0.450000X-0.325000X0.450000X0.325000X-0.450000X0.325000X-0.450000X-0.325000X0*%
%ADD25RoundRect,0.050000X-0.500000X0.275000X-0.500000X-0.275000X0.500000X-0.275000X0.500000X0.275000X0*%
%ADD26RoundRect,0.300000X-0.450000X0.325000X-0.450000X-0.325000X0.450000X-0.325000X0.450000X0.325000X0*%
%ADD27RoundRect,0.287500X-0.287500X-0.237500X0.287500X-0.237500X0.287500X0.237500X-0.287500X0.237500X0*%
%ADD28RoundRect,0.287500X0.287500X0.237500X-0.287500X0.237500X-0.287500X-0.237500X0.287500X-0.237500X0*%
%ADD29RoundRect,0.050000X-1.100000X-1.575000X1.100000X-1.575000X1.100000X1.575000X-1.100000X1.575000X0*%
%ADD30RoundRect,0.050000X-1.100000X1.100000X-1.100000X-1.100000X1.100000X-1.100000X1.100000X1.100000X0*%
%ADD31O,2.300000X2.300000*%
%ADD32RoundRect,0.050000X-1.100000X-1.100000X1.100000X-1.100000X1.100000X1.100000X-1.100000X1.100000X0*%
%ADD33RoundRect,0.050000X1.100000X-1.100000X1.100000X1.100000X-1.100000X1.100000X-1.100000X-1.100000X0*%
%ADD34RoundRect,0.300000X0.350000X0.450000X-0.350000X0.450000X-0.350000X-0.450000X0.350000X-0.450000X0*%
%ADD35RoundRect,0.300000X-0.450000X0.350000X-0.450000X-0.350000X0.450000X-0.350000X0.450000X0.350000X0*%
%ADD36C,3.300000*%
%ADD37C,2.400000*%
%ADD38RoundRect,0.050000X-0.850000X0.850000X-0.850000X-0.850000X0.850000X-0.850000X0.850000X0.850000X0*%
%ADD39C,1.855000*%
%ADD40C,2.125000*%
%ADD41RoundRect,0.300500X-0.499500X0.499500X-0.499500X-0.499500X0.499500X-0.499500X0.499500X0.499500X0*%
%ADD42C,1.600000*%
%ADD43RoundRect,0.300500X0.499500X0.499500X-0.499500X0.499500X-0.499500X-0.499500X0.499500X-0.499500X0*%
%ADD44RoundRect,0.050000X0.450000X0.400000X-0.450000X0.400000X-0.450000X-0.400000X0.450000X-0.400000X0*%
%ADD45RoundRect,0.050000X1.375000X1.600000X-1.375000X1.600000X-1.375000X-1.600000X1.375000X-1.600000X0*%
%ADD46RoundRect,0.050000X1.687500X-0.810000X1.687500X0.810000X-1.687500X0.810000X-1.687500X-0.810000X0*%
%ADD47RoundRect,0.050000X1.687500X-0.600000X1.687500X0.600000X-1.687500X0.600000X-1.687500X-0.600000X0*%
%ADD48RoundRect,0.050000X-2.500000X0.650000X-2.500000X-0.650000X2.500000X-0.650000X2.500000X0.650000X0*%
%ADD49RoundRect,0.050000X0.525000X-0.275000X0.525000X0.275000X-0.525000X0.275000X-0.525000X-0.275000X0*%
%ADD50RoundRect,0.050000X-0.325000X-0.764000X0.325000X-0.764000X0.325000X0.764000X-0.325000X0.764000X0*%
%ADD51RoundRect,0.050000X-0.225000X-0.712500X0.225000X-0.712500X0.225000X0.712500X-0.225000X0.712500X0*%
%ADD52RoundRect,0.050000X-0.940000X0.840000X-0.940000X-0.840000X0.940000X-0.840000X0.940000X0.840000X0*%
%ADD53RoundRect,0.050000X-1.575000X1.100000X-1.575000X-1.100000X1.575000X-1.100000X1.575000X1.100000X0*%
%ADD54C,1.500000*%
%ADD55O,1.500000X1.500000*%
%ADD56C,2.300000*%
G04 APERTURE END LIST*
D10*
X143764000Y-109987000D03*
X141224000Y-109987000D03*
X143764000Y-107447000D03*
X141224000Y-107447000D03*
X143764000Y-104907000D03*
X141224000Y-104907000D03*
X143764000Y-102367000D03*
X141224000Y-102367000D03*
X143764000Y-99827000D03*
X141224000Y-99827000D03*
X143764000Y-97287000D03*
X141224000Y-97287000D03*
X143764000Y-94747000D03*
X141224000Y-94747000D03*
X143764000Y-92207000D03*
X141224000Y-92207000D03*
X143764000Y-89667000D03*
X141224000Y-89667000D03*
X143764000Y-87127000D03*
X141224000Y-87127000D03*
X143764000Y-84587000D03*
X141224000Y-84587000D03*
X143764000Y-82047000D03*
X141224000Y-82047000D03*
X143764000Y-79507000D03*
X141224000Y-79507000D03*
X143764000Y-76967000D03*
X141224000Y-76967000D03*
X143764000Y-74427000D03*
D11*
X141224000Y-74427000D03*
D12*
X130066000Y-113284000D03*
X128016000Y-113284000D03*
D11*
X130302000Y-122682000D03*
D10*
X130302000Y-125222000D03*
X130302000Y-127762000D03*
D13*
X129794000Y-107950000D03*
D14*
X128524000Y-107950000D03*
X127254000Y-107950000D03*
X107424000Y-65149734D03*
X108694000Y-65149734D03*
D13*
X109964000Y-65149734D03*
D15*
X75302000Y-85870000D03*
X77352000Y-85870000D03*
D16*
X69850000Y-91610000D03*
X70800000Y-93810000D03*
X68900000Y-93810000D03*
D17*
X70442000Y-96774000D03*
X68242000Y-97724000D03*
X68242000Y-95824000D03*
D18*
X79829000Y-124499000D03*
X80679000Y-124499000D03*
X81529000Y-124499000D03*
X82379000Y-124499000D03*
X83229000Y-124499000D03*
X84079000Y-124499000D03*
X84929000Y-124499000D03*
X85779000Y-124499000D03*
X85779000Y-125849000D03*
X84929000Y-125849000D03*
X84079000Y-125849000D03*
X83229000Y-125849000D03*
X82379000Y-125849000D03*
X81529000Y-125849000D03*
X80679000Y-125849000D03*
X79829000Y-125849000D03*
D19*
X78479000Y-125479000D03*
X87129000Y-125479000D03*
X87129000Y-128859000D03*
X78479000Y-128859000D03*
D20*
X106172000Y-95250000D03*
X126492000Y-95250000D03*
D21*
X141986000Y-66068000D03*
X141986000Y-69568000D03*
X128524000Y-99850000D03*
X128524000Y-103350000D03*
D22*
X104609500Y-128778000D03*
X107734500Y-128778000D03*
D23*
X69088000Y-75721500D03*
X69088000Y-72596500D03*
X68834000Y-118148500D03*
X68834000Y-115023500D03*
D12*
X99314000Y-63754000D03*
X97264000Y-63754000D03*
D15*
X75342000Y-96901000D03*
X77392000Y-96901000D03*
X75342000Y-99441000D03*
X77392000Y-99441000D03*
X75324000Y-101981000D03*
X77374000Y-101981000D03*
X75324000Y-104521000D03*
X77374000Y-104521000D03*
D24*
X89662000Y-103650000D03*
X89662000Y-101600000D03*
X92329000Y-103650000D03*
X92329000Y-101600000D03*
D25*
X95250000Y-101291000D03*
X95250000Y-103941000D03*
D24*
X89662000Y-106408000D03*
X89662000Y-108458000D03*
X92329000Y-108476000D03*
X92329000Y-106426000D03*
D25*
X95250000Y-106117000D03*
X95250000Y-108767000D03*
D15*
X75206000Y-114935000D03*
X77256000Y-114935000D03*
X75206000Y-112395000D03*
X77256000Y-112395000D03*
X75206000Y-109982000D03*
X77256000Y-109982000D03*
X75206000Y-107696000D03*
X77256000Y-107696000D03*
D26*
X127444500Y-115851500D03*
X127444500Y-117901500D03*
D15*
X75302000Y-75710000D03*
X77352000Y-75710000D03*
X75302000Y-78250000D03*
X77352000Y-78250000D03*
X75302000Y-80663000D03*
X77352000Y-80663000D03*
X75302000Y-83076000D03*
X77352000Y-83076000D03*
D24*
X125222000Y-117856000D03*
X125222000Y-115806000D03*
D26*
X129678999Y-115826501D03*
X129678999Y-117876501D03*
D24*
X89662000Y-88782000D03*
X89662000Y-86732000D03*
X92075000Y-88782000D03*
X92075000Y-86732000D03*
D25*
X95059500Y-86441000D03*
X95059500Y-89091000D03*
D24*
X89662000Y-93227000D03*
X89662000Y-91177000D03*
X92075000Y-93245000D03*
X92075000Y-91195000D03*
D25*
X95059500Y-90886000D03*
X95059500Y-93536000D03*
D24*
X116967000Y-111760000D03*
X116967000Y-109710000D03*
X119126000Y-111769000D03*
X119126000Y-109719000D03*
D15*
X75302000Y-88283000D03*
X77352000Y-88283000D03*
X75302000Y-90696000D03*
X77352000Y-90696000D03*
X75302000Y-93109000D03*
X77352000Y-93109000D03*
D27*
X121535000Y-99949000D03*
X123285000Y-99949000D03*
D28*
X112127000Y-112014000D03*
X110377000Y-112014000D03*
D24*
X102702000Y-116840000D03*
X102702000Y-114790000D03*
X92288000Y-116840000D03*
X92288000Y-114790000D03*
X95091000Y-116840000D03*
X95091000Y-114790000D03*
X97622000Y-116831000D03*
X97622000Y-114781000D03*
X100162000Y-116831000D03*
X100162000Y-114781000D03*
X120396000Y-117890000D03*
X120396000Y-115840000D03*
X118110000Y-117872000D03*
X118110000Y-115822000D03*
X122682000Y-117881000D03*
X122682000Y-115831000D03*
D29*
X95560000Y-68326000D03*
X102560000Y-68326000D03*
D30*
X114989500Y-67310000D03*
D31*
X114989500Y-69850000D03*
D30*
X134366000Y-122936000D03*
D31*
X134366000Y-125476000D03*
D32*
X107614500Y-69848734D03*
D31*
X110154500Y-69848734D03*
D33*
X134366000Y-117602000D03*
D31*
X134366000Y-115062000D03*
D34*
X92572000Y-112640000D03*
X94572000Y-112640000D03*
D35*
X115824000Y-115840000D03*
X115824000Y-117840000D03*
D34*
X94508500Y-118863000D03*
X92508500Y-118863000D03*
D36*
X60452000Y-86614000D03*
D37*
X64252000Y-81534000D03*
X54092000Y-81534000D03*
X64252000Y-91694000D03*
X54092000Y-91694000D03*
X54092000Y-78232000D03*
X64252000Y-78232000D03*
X64252000Y-68072000D03*
X54092000Y-68072000D03*
D36*
X60452000Y-73152000D03*
X60452000Y-114554000D03*
D37*
X64252000Y-119634000D03*
X64252000Y-109474000D03*
X54092000Y-109474000D03*
X54092000Y-119634000D03*
D36*
X60452000Y-101092000D03*
D37*
X54092000Y-96012000D03*
X54092000Y-106172000D03*
X64252000Y-96012000D03*
X64252000Y-106172000D03*
D38*
X111506000Y-125222000D03*
D10*
X108966000Y-125222000D03*
X106426000Y-125222000D03*
D11*
X68834000Y-78994000D03*
D10*
X68834000Y-81534000D03*
X68834000Y-84074000D03*
D11*
X68834000Y-106934000D03*
D10*
X68834000Y-109474000D03*
X68834000Y-112014000D03*
D39*
X96266000Y-126492000D03*
D40*
X99966000Y-129032000D03*
X99966000Y-123952000D03*
X92566000Y-123952000D03*
X92566000Y-129032000D03*
D41*
X136906000Y-64516000D03*
D42*
X131826000Y-64516000D03*
X129286000Y-64516000D03*
X126746000Y-64516000D03*
X126746000Y-69596000D03*
X129286000Y-69596000D03*
X131826000Y-69596000D03*
X136906000Y-69596000D03*
D43*
X143437500Y-127943500D03*
D42*
X143437500Y-122863500D03*
X143437500Y-120323500D03*
X143437500Y-117783500D03*
X138357500Y-117783500D03*
X138357500Y-120323500D03*
X138357500Y-122863500D03*
X138357500Y-127943500D03*
D44*
X90240000Y-116765000D03*
X90240000Y-114865000D03*
X88240000Y-115815000D03*
D12*
X112268000Y-128778000D03*
X110218000Y-128778000D03*
D26*
X69088000Y-87621000D03*
X69088000Y-89671000D03*
D12*
X117284500Y-63698234D03*
X115234500Y-63698234D03*
D26*
X68834000Y-101083000D03*
X68834000Y-103133000D03*
D15*
X80159000Y-96901000D03*
X82209000Y-96901000D03*
X80150000Y-99441000D03*
X82200000Y-99441000D03*
X80159000Y-101981000D03*
X82209000Y-101981000D03*
X80159000Y-104521000D03*
X82209000Y-104521000D03*
D24*
X87376000Y-103641000D03*
X87376000Y-101591000D03*
D12*
X98307000Y-110490000D03*
X96257000Y-110490000D03*
D24*
X87376000Y-108467000D03*
X87376000Y-106417000D03*
D15*
X79905000Y-114935000D03*
X81955000Y-114935000D03*
X79905000Y-112395000D03*
X81955000Y-112395000D03*
X79923000Y-109982000D03*
X81973000Y-109982000D03*
X79905000Y-107696000D03*
X81955000Y-107696000D03*
D12*
X105428000Y-99314000D03*
X103378000Y-99314000D03*
D15*
X80255000Y-75710000D03*
X82305000Y-75710000D03*
X80255000Y-78250000D03*
X82305000Y-78250000D03*
X80255000Y-80663000D03*
X82305000Y-80663000D03*
X80255000Y-83076000D03*
X82305000Y-83076000D03*
D24*
X87249000Y-88782000D03*
X87249000Y-86732000D03*
X97917000Y-93245000D03*
X97917000Y-91195000D03*
D15*
X117085000Y-107188000D03*
X119135000Y-107188000D03*
D24*
X87249000Y-93245000D03*
X87249000Y-91195000D03*
D15*
X80137000Y-85870000D03*
X82187000Y-85870000D03*
X80128000Y-88283000D03*
X82178000Y-88283000D03*
X80128000Y-90696000D03*
X82178000Y-90696000D03*
X80128000Y-93109000D03*
X82178000Y-93109000D03*
X121394000Y-102362000D03*
X123444000Y-102362000D03*
D12*
X105428000Y-110934500D03*
X103378000Y-110934500D03*
X124215000Y-111760000D03*
X122165000Y-111760000D03*
X112268000Y-109982000D03*
X110218000Y-109982000D03*
D26*
X106934000Y-119888000D03*
X106934000Y-121938000D03*
D24*
X106934000Y-117856000D03*
X106934000Y-115806000D03*
D45*
X82632000Y-68834000D03*
X73832000Y-68834000D03*
D46*
X89070000Y-76154000D03*
D47*
X89070000Y-78994000D03*
D46*
X89070000Y-81834000D03*
X98890000Y-81834000D03*
D47*
X98890000Y-78994000D03*
D46*
X98890000Y-76154000D03*
D48*
X88900000Y-66322000D03*
X88900000Y-69822000D03*
D49*
X121382000Y-105730000D03*
X121382000Y-106680000D03*
X121382000Y-107630000D03*
X123982000Y-107630000D03*
X123982000Y-106680000D03*
X123982000Y-105730000D03*
D50*
X113157000Y-115653000D03*
X111887000Y-115653000D03*
X110617000Y-115653000D03*
X109347000Y-115653000D03*
X109347000Y-121075000D03*
X110617000Y-121075000D03*
X111887000Y-121075000D03*
X113157000Y-121075000D03*
D11*
X136672000Y-74422000D03*
D10*
X134132000Y-74422000D03*
X136672000Y-76962000D03*
X134132000Y-76962000D03*
X136672000Y-79502000D03*
X134132000Y-79502000D03*
X136672000Y-82042000D03*
X134132000Y-82042000D03*
X136672000Y-84582000D03*
X134132000Y-84582000D03*
X136672000Y-87122000D03*
X134132000Y-87122000D03*
X136672000Y-89662000D03*
X134132000Y-89662000D03*
X136672000Y-92202000D03*
X134132000Y-92202000D03*
X136672000Y-94742000D03*
X134132000Y-94742000D03*
X136672000Y-97282000D03*
X134132000Y-97282000D03*
X136672000Y-99822000D03*
X134132000Y-99822000D03*
X136672000Y-102362000D03*
X134132000Y-102362000D03*
X136672000Y-104902000D03*
X134132000Y-104902000D03*
X136672000Y-107442000D03*
X134132000Y-107442000D03*
X136672000Y-109982000D03*
X134132000Y-109982000D03*
D51*
X111900500Y-103452000D03*
X111250500Y-103452000D03*
X110600500Y-103452000D03*
X109950500Y-103452000D03*
X109950500Y-107876000D03*
X110600500Y-107876000D03*
X111250500Y-107876000D03*
X111900500Y-107876000D03*
D52*
X110925500Y-105664000D03*
D28*
X111909500Y-98869500D03*
X110159500Y-98869500D03*
D15*
X117003500Y-100139500D03*
X119053500Y-100139500D03*
D12*
X119062500Y-102362000D03*
X117012500Y-102362000D03*
X105482500Y-106172000D03*
X103432500Y-106172000D03*
X105500500Y-108458000D03*
X103450500Y-108458000D03*
D26*
X107578000Y-104067500D03*
X107578000Y-106117500D03*
D12*
X105500500Y-101663500D03*
X103450500Y-101663500D03*
X105500500Y-103886000D03*
X103450500Y-103886000D03*
D24*
X114046000Y-106680000D03*
X114046000Y-104630000D03*
D12*
X112068500Y-101155500D03*
X110018500Y-101155500D03*
D39*
X122682000Y-126492000D03*
D40*
X126382000Y-129032000D03*
X126382000Y-123952000D03*
X118982000Y-123952000D03*
X118982000Y-129032000D03*
D15*
X78976000Y-118618000D03*
X81026000Y-118618000D03*
D12*
X88410000Y-122428000D03*
X86360000Y-122428000D03*
D53*
X73914000Y-118420000D03*
X73914000Y-125420000D03*
D54*
X83566000Y-118872000D03*
D55*
X86106000Y-118872000D03*
D56*
X50500000Y-64008000D03*
X50500000Y-126500000D03*
M02*
