%TF.GenerationSoftware,KiCad,Pcbnew,(6.0.6-1)-1*%
%TF.CreationDate,2022-07-06T12:40:26-04:00*%
%TF.ProjectId,dad_bod,6461645f-626f-4642-9e6b-696361645f70,rev?*%
%TF.SameCoordinates,Original*%
%TF.FileFunction,Legend,Bot*%
%TF.FilePolarity,Positive*%
%FSLAX46Y46*%
G04 Gerber Fmt 4.6, Leading zero omitted, Abs format (unit mm)*
G04 Created by KiCad (PCBNEW (6.0.6-1)-1) date 2022-07-06 12:40:26*
%MOMM*%
%LPD*%
G01*
G04 APERTURE LIST*
G04 Aperture macros list*
%AMRoundRect*
0 Rectangle with rounded corners*
0 $1 Rounding radius*
0 $2 $3 $4 $5 $6 $7 $8 $9 X,Y pos of 4 corners*
0 Add a 4 corners polygon primitive as box body*
4,1,4,$2,$3,$4,$5,$6,$7,$8,$9,$2,$3,0*
0 Add four circle primitives for the rounded corners*
1,1,$1+$1,$2,$3*
1,1,$1+$1,$4,$5*
1,1,$1+$1,$6,$7*
1,1,$1+$1,$8,$9*
0 Add four rect primitives between the rounded corners*
20,1,$1+$1,$2,$3,$4,$5,0*
20,1,$1+$1,$4,$5,$6,$7,0*
20,1,$1+$1,$6,$7,$8,$9,0*
20,1,$1+$1,$8,$9,$2,$3,0*%
G04 Aperture macros list end*
%ADD10C,0.150000*%
%ADD11O,1.800000X1.800000*%
%ADD12RoundRect,0.050000X-0.850000X-0.850000X0.850000X-0.850000X0.850000X0.850000X-0.850000X0.850000X0*%
%ADD13RoundRect,0.050000X0.525000X0.750000X-0.525000X0.750000X-0.525000X-0.750000X0.525000X-0.750000X0*%
%ADD14O,1.150000X1.600000*%
%ADD15C,0.750000*%
%ADD16O,1.208000X2.316000*%
%ADD17C,1.624000*%
%ADD18RoundRect,0.050000X-1.100000X1.100000X-1.100000X-1.100000X1.100000X-1.100000X1.100000X1.100000X0*%
%ADD19O,2.300000X2.300000*%
%ADD20RoundRect,0.050000X-1.100000X-1.100000X1.100000X-1.100000X1.100000X1.100000X-1.100000X1.100000X0*%
%ADD21RoundRect,0.050000X1.100000X-1.100000X1.100000X1.100000X-1.100000X1.100000X-1.100000X-1.100000X0*%
%ADD22C,3.300000*%
%ADD23C,2.400000*%
%ADD24RoundRect,0.050000X-0.850000X0.850000X-0.850000X-0.850000X0.850000X-0.850000X0.850000X0.850000X0*%
%ADD25C,1.855000*%
%ADD26C,2.125000*%
%ADD27RoundRect,0.300500X-0.499500X0.499500X-0.499500X-0.499500X0.499500X-0.499500X0.499500X0.499500X0*%
%ADD28C,1.600000*%
%ADD29RoundRect,0.300500X0.499500X0.499500X-0.499500X0.499500X-0.499500X-0.499500X0.499500X-0.499500X0*%
%ADD30C,1.500000*%
%ADD31O,1.500000X1.500000*%
%ADD32C,2.300000*%
G04 APERTURE END LIST*
D10*
X61420952Y-129833619D02*
X61420952Y-129119333D01*
X61373333Y-128976476D01*
X61278095Y-128881238D01*
X61135238Y-128833619D01*
X61040000Y-128833619D01*
X62373333Y-128833619D02*
X61897142Y-128833619D01*
X61897142Y-129833619D01*
X63278095Y-128928857D02*
X63230476Y-128881238D01*
X63087619Y-128833619D01*
X62992380Y-128833619D01*
X62849523Y-128881238D01*
X62754285Y-128976476D01*
X62706666Y-129071714D01*
X62659047Y-129262190D01*
X62659047Y-129405047D01*
X62706666Y-129595523D01*
X62754285Y-129690761D01*
X62849523Y-129786000D01*
X62992380Y-129833619D01*
X63087619Y-129833619D01*
X63230476Y-129786000D01*
X63278095Y-129738380D01*
X63992380Y-129833619D02*
X63992380Y-129119333D01*
X63944761Y-128976476D01*
X63849523Y-128881238D01*
X63706666Y-128833619D01*
X63611428Y-128833619D01*
X64944761Y-128833619D02*
X64468571Y-128833619D01*
X64468571Y-129833619D01*
X65849523Y-128928857D02*
X65801904Y-128881238D01*
X65659047Y-128833619D01*
X65563809Y-128833619D01*
X65420952Y-128881238D01*
X65325714Y-128976476D01*
X65278095Y-129071714D01*
X65230476Y-129262190D01*
X65230476Y-129405047D01*
X65278095Y-129595523D01*
X65325714Y-129690761D01*
X65420952Y-129786000D01*
X65563809Y-129833619D01*
X65659047Y-129833619D01*
X65801904Y-129786000D01*
X65849523Y-129738380D01*
X66563809Y-129833619D02*
X66563809Y-129119333D01*
X66516190Y-128976476D01*
X66420952Y-128881238D01*
X66278095Y-128833619D01*
X66182857Y-128833619D01*
X67516190Y-128833619D02*
X67040000Y-128833619D01*
X67040000Y-129833619D01*
X68420952Y-128928857D02*
X68373333Y-128881238D01*
X68230476Y-128833619D01*
X68135238Y-128833619D01*
X67992380Y-128881238D01*
X67897142Y-128976476D01*
X67849523Y-129071714D01*
X67801904Y-129262190D01*
X67801904Y-129405047D01*
X67849523Y-129595523D01*
X67897142Y-129690761D01*
X67992380Y-129786000D01*
X68135238Y-129833619D01*
X68230476Y-129833619D01*
X68373333Y-129786000D01*
X68420952Y-129738380D01*
X69135238Y-129833619D02*
X69135238Y-129119333D01*
X69087619Y-128976476D01*
X68992380Y-128881238D01*
X68849523Y-128833619D01*
X68754285Y-128833619D01*
X70087619Y-128833619D02*
X69611428Y-128833619D01*
X69611428Y-129833619D01*
X70992380Y-128928857D02*
X70944761Y-128881238D01*
X70801904Y-128833619D01*
X70706666Y-128833619D01*
X70563809Y-128881238D01*
X70468571Y-128976476D01*
X70420952Y-129071714D01*
X70373333Y-129262190D01*
X70373333Y-129405047D01*
X70420952Y-129595523D01*
X70468571Y-129690761D01*
X70563809Y-129786000D01*
X70706666Y-129833619D01*
X70801904Y-129833619D01*
X70944761Y-129786000D01*
X70992380Y-129738380D01*
%LPC*%
D11*
X143764000Y-109987000D03*
X141224000Y-109987000D03*
X143764000Y-107447000D03*
X141224000Y-107447000D03*
X143764000Y-104907000D03*
X141224000Y-104907000D03*
X143764000Y-102367000D03*
X141224000Y-102367000D03*
X143764000Y-99827000D03*
X141224000Y-99827000D03*
X143764000Y-97287000D03*
X141224000Y-97287000D03*
X143764000Y-94747000D03*
X141224000Y-94747000D03*
X143764000Y-92207000D03*
X141224000Y-92207000D03*
X143764000Y-89667000D03*
X141224000Y-89667000D03*
X143764000Y-87127000D03*
X141224000Y-87127000D03*
X143764000Y-84587000D03*
X141224000Y-84587000D03*
X143764000Y-82047000D03*
X141224000Y-82047000D03*
X143764000Y-79507000D03*
X141224000Y-79507000D03*
X143764000Y-76967000D03*
X141224000Y-76967000D03*
X143764000Y-74427000D03*
D12*
X141224000Y-74427000D03*
X130302000Y-122682000D03*
D11*
X130302000Y-125222000D03*
X130302000Y-127762000D03*
D13*
X129794000Y-107950000D03*
D14*
X128524000Y-107950000D03*
X127254000Y-107950000D03*
X107424000Y-65149734D03*
X108694000Y-65149734D03*
D13*
X109964000Y-65149734D03*
D15*
X79829000Y-124499000D03*
X80679000Y-124499000D03*
X81529000Y-124499000D03*
X82379000Y-124499000D03*
X83229000Y-124499000D03*
X84079000Y-124499000D03*
X84929000Y-124499000D03*
X85779000Y-124499000D03*
X85779000Y-125849000D03*
X84929000Y-125849000D03*
X84079000Y-125849000D03*
X83229000Y-125849000D03*
X82379000Y-125849000D03*
X81529000Y-125849000D03*
X80679000Y-125849000D03*
X79829000Y-125849000D03*
D16*
X78479000Y-125479000D03*
X87129000Y-125479000D03*
X87129000Y-128859000D03*
X78479000Y-128859000D03*
D17*
X106172000Y-95250000D03*
X126492000Y-95250000D03*
D18*
X114989500Y-67310000D03*
D19*
X114989500Y-69850000D03*
D18*
X134366000Y-122936000D03*
D19*
X134366000Y-125476000D03*
D20*
X107614500Y-69848734D03*
D19*
X110154500Y-69848734D03*
D21*
X134366000Y-117602000D03*
D19*
X134366000Y-115062000D03*
D22*
X60452000Y-86614000D03*
D23*
X64252000Y-81534000D03*
X54092000Y-81534000D03*
X64252000Y-91694000D03*
X54092000Y-91694000D03*
X54092000Y-78232000D03*
X64252000Y-78232000D03*
X64252000Y-68072000D03*
X54092000Y-68072000D03*
D22*
X60452000Y-73152000D03*
X60452000Y-114554000D03*
D23*
X64252000Y-119634000D03*
X64252000Y-109474000D03*
X54092000Y-109474000D03*
X54092000Y-119634000D03*
D22*
X60452000Y-101092000D03*
D23*
X54092000Y-96012000D03*
X54092000Y-106172000D03*
X64252000Y-96012000D03*
X64252000Y-106172000D03*
D24*
X111506000Y-125222000D03*
D11*
X108966000Y-125222000D03*
X106426000Y-125222000D03*
D12*
X68834000Y-78994000D03*
D11*
X68834000Y-81534000D03*
X68834000Y-84074000D03*
D12*
X68834000Y-106934000D03*
D11*
X68834000Y-109474000D03*
X68834000Y-112014000D03*
D25*
X96266000Y-126492000D03*
D26*
X99966000Y-129032000D03*
X99966000Y-123952000D03*
X92566000Y-123952000D03*
X92566000Y-129032000D03*
D27*
X136906000Y-64516000D03*
D28*
X131826000Y-64516000D03*
X129286000Y-64516000D03*
X126746000Y-64516000D03*
X126746000Y-69596000D03*
X129286000Y-69596000D03*
X131826000Y-69596000D03*
X136906000Y-69596000D03*
D29*
X143437500Y-127943500D03*
D28*
X143437500Y-122863500D03*
X143437500Y-120323500D03*
X143437500Y-117783500D03*
X138357500Y-117783500D03*
X138357500Y-120323500D03*
X138357500Y-122863500D03*
X138357500Y-127943500D03*
D12*
X136672000Y-74422000D03*
D11*
X134132000Y-74422000D03*
X136672000Y-76962000D03*
X134132000Y-76962000D03*
X136672000Y-79502000D03*
X134132000Y-79502000D03*
X136672000Y-82042000D03*
X134132000Y-82042000D03*
X136672000Y-84582000D03*
X134132000Y-84582000D03*
X136672000Y-87122000D03*
X134132000Y-87122000D03*
X136672000Y-89662000D03*
X134132000Y-89662000D03*
X136672000Y-92202000D03*
X134132000Y-92202000D03*
X136672000Y-94742000D03*
X134132000Y-94742000D03*
X136672000Y-97282000D03*
X134132000Y-97282000D03*
X136672000Y-99822000D03*
X134132000Y-99822000D03*
X136672000Y-102362000D03*
X134132000Y-102362000D03*
X136672000Y-104902000D03*
X134132000Y-104902000D03*
X136672000Y-107442000D03*
X134132000Y-107442000D03*
X136672000Y-109982000D03*
X134132000Y-109982000D03*
D25*
X122682000Y-126492000D03*
D26*
X126382000Y-129032000D03*
X126382000Y-123952000D03*
X118982000Y-123952000D03*
X118982000Y-129032000D03*
D30*
X83566000Y-118872000D03*
D31*
X86106000Y-118872000D03*
D32*
X50500000Y-64008000D03*
X50500000Y-126500000D03*
M02*
