%TF.GenerationSoftware,KiCad,Pcbnew,(6.0.9-0)*%
%TF.CreationDate,2023-02-01T14:55:19-05:00*%
%TF.ProjectId,beach_bod_02,62656163-685f-4626-9f64-5f30322e6b69,rev?*%
%TF.SameCoordinates,Original*%
%TF.FileFunction,Drillmap*%
%TF.FilePolarity,Positive*%
%FSLAX45Y45*%
G04 Gerber Fmt 4.5, Leading zero omitted, Abs format (unit mm)*
G04 Created by KiCad (PCBNEW (6.0.9-0)) date 2023-02-01 14:55:19*
%MOMM*%
%LPD*%
G01*
G04 APERTURE LIST*
%ADD10C,0.050000*%
%ADD11C,0.200000*%
%ADD12C,0.030000*%
%ADD13C,0.040000*%
%ADD14C,0.060000*%
%ADD15C,0.100000*%
%ADD16C,0.117000*%
%ADD17C,0.130000*%
%ADD18C,0.135000*%
%ADD19C,0.220000*%
G04 APERTURE END LIST*
D10*
X9753600Y-7442200D02*
X17373600Y-7442200D01*
X17449800Y-7518400D02*
X17449800Y-10287000D01*
X9753600Y-7442200D02*
G75*
G03*
X9626600Y-7569200I0J-127000D01*
G01*
X17373600Y-10363200D02*
X9779000Y-10363200D01*
X17373600Y-10363200D02*
G75*
G03*
X17449800Y-10287000I0J76200D01*
G01*
X9626600Y-10210800D02*
G75*
G03*
X9779000Y-10363200I152400J0D01*
G01*
X17449800Y-7518400D02*
G75*
G03*
X17373600Y-7442200I-76200J0D01*
G01*
X9626600Y-7569200D02*
X9626600Y-10210800D01*
D11*
D12*
X10043400Y-8214600D02*
X10073400Y-8244600D01*
X10073400Y-8214600D02*
X10043400Y-8244600D01*
X10957800Y-9332200D02*
X10987800Y-9362200D01*
X10987800Y-9332200D02*
X10957800Y-9362200D01*
X10957800Y-9484600D02*
X10987800Y-9514600D01*
X10987800Y-9484600D02*
X10957800Y-9514600D01*
X11110200Y-8849600D02*
X11140200Y-8879600D01*
X11140200Y-8849600D02*
X11110200Y-8879600D01*
X11110200Y-8925800D02*
X11140200Y-8955800D01*
X11140200Y-8925800D02*
X11110200Y-8955800D01*
X11186400Y-8849600D02*
X11216400Y-8879600D01*
X11216400Y-8849600D02*
X11186400Y-8879600D01*
X11186400Y-8925800D02*
X11216400Y-8955800D01*
X11216400Y-8925800D02*
X11186400Y-8955800D01*
X11262600Y-8849600D02*
X11292600Y-8879600D01*
X11292600Y-8849600D02*
X11262600Y-8879600D01*
X11262600Y-8925800D02*
X11292600Y-8955800D01*
X11292600Y-8925800D02*
X11262600Y-8955800D01*
X11440400Y-7706600D02*
X11470400Y-7736600D01*
X11470400Y-7706600D02*
X11440400Y-7736600D01*
X11516600Y-10195800D02*
X11546600Y-10225800D01*
X11546600Y-10195800D02*
X11516600Y-10225800D01*
X11643600Y-10195800D02*
X11673600Y-10225800D01*
X11673600Y-10195800D02*
X11643600Y-10225800D01*
X11669000Y-8443200D02*
X11699000Y-8473200D01*
X11699000Y-8443200D02*
X11669000Y-8473200D01*
X11923000Y-8443200D02*
X11953000Y-8473200D01*
X11953000Y-8443200D02*
X11923000Y-8473200D01*
X11923000Y-9179800D02*
X11953000Y-9209800D01*
X11953000Y-9179800D02*
X11923000Y-9209800D01*
X11923000Y-9256000D02*
X11953000Y-9286000D01*
X11953000Y-9256000D02*
X11923000Y-9286000D01*
X11923000Y-9408400D02*
X11953000Y-9438400D01*
X11953000Y-9408400D02*
X11923000Y-9438400D01*
X11923000Y-9535400D02*
X11953000Y-9565400D01*
X11953000Y-9535400D02*
X11923000Y-9565400D01*
X11999200Y-8443200D02*
X12029200Y-8473200D01*
X12029200Y-8443200D02*
X11999200Y-8473200D01*
X12050000Y-9865600D02*
X12080000Y-9895600D01*
X12080000Y-9865600D02*
X12050000Y-9895600D01*
X12151600Y-9865600D02*
X12181600Y-9895600D01*
X12181600Y-9865600D02*
X12151600Y-9895600D01*
X12177000Y-8443200D02*
X12207000Y-8473200D01*
X12207000Y-8443200D02*
X12177000Y-8473200D01*
X12253200Y-8443200D02*
X12283200Y-8473200D01*
X12283200Y-8443200D02*
X12253200Y-8473200D01*
X12405600Y-8773400D02*
X12435600Y-8803400D01*
X12435600Y-8773400D02*
X12405600Y-8803400D01*
X12405600Y-9230600D02*
X12435600Y-9260600D01*
X12435600Y-9230600D02*
X12405600Y-9260600D01*
X12405600Y-9332200D02*
X12435600Y-9362200D01*
X12435600Y-9332200D02*
X12405600Y-9362200D01*
X12481800Y-8773400D02*
X12511800Y-8803400D01*
X12511800Y-8773400D02*
X12481800Y-8803400D01*
X12481800Y-9230600D02*
X12511800Y-9260600D01*
X12511800Y-9230600D02*
X12481800Y-9260600D01*
X12481800Y-9332200D02*
X12511800Y-9362200D01*
X12511800Y-9332200D02*
X12481800Y-9362200D01*
X12507200Y-8443200D02*
X12537200Y-8473200D01*
X12537200Y-8443200D02*
X12507200Y-8473200D01*
X12913600Y-8417800D02*
X12943600Y-8447800D01*
X12943600Y-8417800D02*
X12913600Y-8447800D01*
X12964400Y-9713200D02*
X12994400Y-9743200D01*
X12994400Y-9713200D02*
X12964400Y-9743200D01*
X12964400Y-9840200D02*
X12994400Y-9870200D01*
X12994400Y-9840200D02*
X12964400Y-9870200D01*
X12989800Y-8417800D02*
X13019800Y-8447800D01*
X13019800Y-8417800D02*
X12989800Y-8447800D01*
X13040600Y-9713200D02*
X13070600Y-9743200D01*
X13070600Y-9713200D02*
X13040600Y-9743200D01*
X13040600Y-9840200D02*
X13070600Y-9870200D01*
X13070600Y-9840200D02*
X13040600Y-9870200D01*
X13218400Y-8464750D02*
X13248400Y-8494750D01*
X13248400Y-8464750D02*
X13218400Y-8494750D01*
X13345400Y-9408400D02*
X13375400Y-9438400D01*
X13375400Y-9408400D02*
X13345400Y-9438400D01*
X13472400Y-9408400D02*
X13502400Y-9438400D01*
X13502400Y-9408400D02*
X13472400Y-9438400D01*
X13472400Y-9535400D02*
X13502400Y-9565400D01*
X13502400Y-9535400D02*
X13472400Y-9565400D01*
X13472400Y-9713200D02*
X13502400Y-9743200D01*
X13502400Y-9713200D02*
X13472400Y-9743200D01*
X13777200Y-7732000D02*
X13807200Y-7762000D01*
X13807200Y-7732000D02*
X13777200Y-7762000D01*
X13777200Y-7808200D02*
X13807200Y-7838200D01*
X13807200Y-7808200D02*
X13777200Y-7838200D01*
X13802600Y-8773400D02*
X13832600Y-8803400D01*
X13832600Y-8773400D02*
X13802600Y-8803400D01*
X13853400Y-8417800D02*
X13883400Y-8447800D01*
X13883400Y-8417800D02*
X13853400Y-8447800D01*
X13904200Y-8773400D02*
X13934200Y-8803400D01*
X13934200Y-8773400D02*
X13904200Y-8803400D01*
X13929600Y-8417800D02*
X13959600Y-8447800D01*
X13959600Y-8417800D02*
X13929600Y-8447800D01*
X13929600Y-9154400D02*
X13959600Y-9184400D01*
X13959600Y-9154400D02*
X13929600Y-9184400D01*
X13929600Y-9992600D02*
X13959600Y-10022600D01*
X13959600Y-9992600D02*
X13929600Y-10022600D01*
X14056600Y-9560800D02*
X14086600Y-9590800D01*
X14086600Y-9560800D02*
X14056600Y-9590800D01*
X14132800Y-8417800D02*
X14162800Y-8447800D01*
X14162800Y-8417800D02*
X14132800Y-8447800D01*
X14183600Y-9560800D02*
X14213600Y-9590800D01*
X14213600Y-9560800D02*
X14183600Y-9590800D01*
X14209000Y-8417800D02*
X14239000Y-8447800D01*
X14239000Y-8417800D02*
X14209000Y-8447800D01*
X14310600Y-9560800D02*
X14340600Y-9590800D01*
X14340600Y-9560800D02*
X14310600Y-9590800D01*
X14412200Y-8316200D02*
X14442200Y-8346200D01*
X14442200Y-8316200D02*
X14412200Y-8346200D01*
X14488400Y-8316200D02*
X14518400Y-8346200D01*
X14518400Y-8316200D02*
X14488400Y-8346200D01*
X14488400Y-9738600D02*
X14518400Y-9768600D01*
X14518400Y-9738600D02*
X14488400Y-9768600D01*
D13*
X10568300Y-7912900D02*
G75*
G03*
X10568300Y-7912900I-20000J0D01*
G01*
X10568300Y-8047900D02*
G75*
G03*
X10568300Y-8047900I-20000J0D01*
G01*
X10653300Y-7912900D02*
G75*
G03*
X10653300Y-7912900I-20000J0D01*
G01*
X10653300Y-8047900D02*
G75*
G03*
X10653300Y-8047900I-20000J0D01*
G01*
X10738300Y-7912900D02*
G75*
G03*
X10738300Y-7912900I-20000J0D01*
G01*
X10738300Y-8047900D02*
G75*
G03*
X10738300Y-8047900I-20000J0D01*
G01*
X10823300Y-7912900D02*
G75*
G03*
X10823300Y-7912900I-20000J0D01*
G01*
X10823300Y-8047900D02*
G75*
G03*
X10823300Y-8047900I-20000J0D01*
G01*
X10908300Y-7912900D02*
G75*
G03*
X10908300Y-7912900I-20000J0D01*
G01*
X10908300Y-8047900D02*
G75*
G03*
X10908300Y-8047900I-20000J0D01*
G01*
X10993300Y-7912900D02*
G75*
G03*
X10993300Y-7912900I-20000J0D01*
G01*
X10993300Y-8047900D02*
G75*
G03*
X10993300Y-8047900I-20000J0D01*
G01*
X11078300Y-7912900D02*
G75*
G03*
X11078300Y-7912900I-20000J0D01*
G01*
X11078300Y-8047900D02*
G75*
G03*
X11078300Y-8047900I-20000J0D01*
G01*
X11163300Y-7912900D02*
G75*
G03*
X11163300Y-7912900I-20000J0D01*
G01*
X11163300Y-8047900D02*
G75*
G03*
X11163300Y-8047900I-20000J0D01*
G01*
X11940400Y-7912900D02*
G75*
G03*
X11940400Y-7912900I-20000J0D01*
G01*
X11940400Y-8047900D02*
G75*
G03*
X11940400Y-8047900I-20000J0D01*
G01*
X12025400Y-7912900D02*
G75*
G03*
X12025400Y-7912900I-20000J0D01*
G01*
X12025400Y-8047900D02*
G75*
G03*
X12025400Y-8047900I-20000J0D01*
G01*
X12110400Y-7912900D02*
G75*
G03*
X12110400Y-7912900I-20000J0D01*
G01*
X12110400Y-8047900D02*
G75*
G03*
X12110400Y-8047900I-20000J0D01*
G01*
X12195400Y-7912900D02*
G75*
G03*
X12195400Y-7912900I-20000J0D01*
G01*
X12195400Y-8047900D02*
G75*
G03*
X12195400Y-8047900I-20000J0D01*
G01*
X12280400Y-7912900D02*
G75*
G03*
X12280400Y-7912900I-20000J0D01*
G01*
X12280400Y-8047900D02*
G75*
G03*
X12280400Y-8047900I-20000J0D01*
G01*
X12365400Y-7912900D02*
G75*
G03*
X12365400Y-7912900I-20000J0D01*
G01*
X12365400Y-8047900D02*
G75*
G03*
X12365400Y-8047900I-20000J0D01*
G01*
X12450400Y-7912900D02*
G75*
G03*
X12450400Y-7912900I-20000J0D01*
G01*
X12450400Y-8047900D02*
G75*
G03*
X12450400Y-8047900I-20000J0D01*
G01*
X12535400Y-7912900D02*
G75*
G03*
X12535400Y-7912900I-20000J0D01*
G01*
X12535400Y-8047900D02*
G75*
G03*
X12535400Y-8047900I-20000J0D01*
G01*
D14*
X10413300Y-7581900D02*
X10413300Y-7641900D01*
X10383300Y-7611900D02*
X10443300Y-7611900D01*
D11*
X10443300Y-7651900D02*
X10443300Y-7571900D01*
X10383300Y-7651900D02*
X10383300Y-7571900D01*
X10443300Y-7571900D02*
G75*
G03*
X10383300Y-7571900I-30000J0D01*
G01*
X10383300Y-7651900D02*
G75*
G03*
X10443300Y-7651900I30000J0D01*
G01*
D14*
X10413300Y-7919900D02*
X10413300Y-7979900D01*
X10383300Y-7949900D02*
X10443300Y-7949900D01*
D11*
X10443300Y-8024900D02*
X10443300Y-7874900D01*
X10383300Y-8024900D02*
X10383300Y-7874900D01*
X10443300Y-7874900D02*
G75*
G03*
X10383300Y-7874900I-30000J0D01*
G01*
X10383300Y-8024900D02*
G75*
G03*
X10443300Y-8024900I30000J0D01*
G01*
D14*
X11278300Y-7581900D02*
X11278300Y-7641900D01*
X11248300Y-7611900D02*
X11308300Y-7611900D01*
D11*
X11308300Y-7651900D02*
X11308300Y-7571900D01*
X11248300Y-7651900D02*
X11248300Y-7571900D01*
X11308300Y-7571900D02*
G75*
G03*
X11248300Y-7571900I-30000J0D01*
G01*
X11248300Y-7651900D02*
G75*
G03*
X11308300Y-7651900I30000J0D01*
G01*
D14*
X11278300Y-7919900D02*
X11278300Y-7979900D01*
X11248300Y-7949900D02*
X11308300Y-7949900D01*
D11*
X11308300Y-8024900D02*
X11308300Y-7874900D01*
X11248300Y-8024900D02*
X11248300Y-7874900D01*
X11308300Y-7874900D02*
G75*
G03*
X11248300Y-7874900I-30000J0D01*
G01*
X11248300Y-8024900D02*
G75*
G03*
X11308300Y-8024900I30000J0D01*
G01*
D14*
X11785400Y-7581900D02*
X11785400Y-7641900D01*
X11755400Y-7611900D02*
X11815400Y-7611900D01*
D11*
X11815400Y-7651900D02*
X11815400Y-7571900D01*
X11755400Y-7651900D02*
X11755400Y-7571900D01*
X11815400Y-7571900D02*
G75*
G03*
X11755400Y-7571900I-30000J0D01*
G01*
X11755400Y-7651900D02*
G75*
G03*
X11815400Y-7651900I30000J0D01*
G01*
D14*
X11785400Y-7919900D02*
X11785400Y-7979900D01*
X11755400Y-7949900D02*
X11815400Y-7949900D01*
D11*
X11815400Y-8024900D02*
X11815400Y-7874900D01*
X11755400Y-8024900D02*
X11755400Y-7874900D01*
X11815400Y-7874900D02*
G75*
G03*
X11755400Y-7874900I-30000J0D01*
G01*
X11755400Y-8024900D02*
G75*
G03*
X11815400Y-8024900I30000J0D01*
G01*
D14*
X12650400Y-7581900D02*
X12650400Y-7641900D01*
X12620400Y-7611900D02*
X12680400Y-7611900D01*
D11*
X12680400Y-7651900D02*
X12680400Y-7571900D01*
X12620400Y-7651900D02*
X12620400Y-7571900D01*
X12680400Y-7571900D02*
G75*
G03*
X12620400Y-7571900I-30000J0D01*
G01*
X12620400Y-7651900D02*
G75*
G03*
X12680400Y-7651900I30000J0D01*
G01*
D14*
X12650400Y-7919900D02*
X12650400Y-7979900D01*
X12620400Y-7949900D02*
X12680400Y-7949900D01*
D11*
X12680400Y-8024900D02*
X12680400Y-7874900D01*
X12620400Y-8024900D02*
X12620400Y-7874900D01*
X12680400Y-7874900D02*
G75*
G03*
X12620400Y-7874900I-30000J0D01*
G01*
X12620400Y-8024900D02*
G75*
G03*
X12680400Y-8024900I30000J0D01*
G01*
D15*
X11592356Y-9052356D02*
X11592356Y-8981644D01*
X11521644Y-8981644D01*
X11521644Y-9052356D01*
X11592356Y-9052356D01*
X13141756Y-9077756D02*
X13141756Y-9007044D01*
X13071044Y-9007044D01*
X13071044Y-9077756D01*
X13141756Y-9077756D01*
X13751356Y-9636556D02*
X13751356Y-9565844D01*
X13680644Y-9565844D01*
X13680644Y-9636556D01*
X13751356Y-9636556D01*
X14843556Y-9026956D02*
X14843556Y-8956244D01*
X14772844Y-8956244D01*
X14772844Y-9026956D01*
X14843556Y-9026956D01*
X14843556Y-10220756D02*
X14843556Y-10150044D01*
X14772844Y-10150044D01*
X14772844Y-10220756D01*
X14843556Y-10220756D01*
D16*
X10007600Y-8948500D02*
X10066100Y-8890000D01*
X10007600Y-8831500D01*
X9949100Y-8890000D01*
X10007600Y-8948500D01*
D17*
X15633200Y-7580400D02*
X15763200Y-7710400D01*
X15763200Y-7580400D02*
X15633200Y-7710400D01*
X15763200Y-7645400D02*
G75*
G03*
X15763200Y-7645400I-65000J0D01*
G01*
X15633200Y-8596400D02*
X15763200Y-8726400D01*
X15763200Y-8596400D02*
X15633200Y-8726400D01*
X15763200Y-8661400D02*
G75*
G03*
X15763200Y-8661400I-65000J0D01*
G01*
X15633200Y-9079000D02*
X15763200Y-9209000D01*
X15763200Y-9079000D02*
X15633200Y-9209000D01*
X15763200Y-9144000D02*
G75*
G03*
X15763200Y-9144000I-65000J0D01*
G01*
X15633200Y-10095000D02*
X15763200Y-10225000D01*
X15763200Y-10095000D02*
X15633200Y-10225000D01*
X15763200Y-10160000D02*
G75*
G03*
X15763200Y-10160000I-65000J0D01*
G01*
X16649200Y-7580400D02*
X16779200Y-7710400D01*
X16779200Y-7580400D02*
X16649200Y-7710400D01*
X16779200Y-7645400D02*
G75*
G03*
X16779200Y-7645400I-65000J0D01*
G01*
X16649200Y-8596400D02*
X16779200Y-8726400D01*
X16779200Y-8596400D02*
X16649200Y-8726400D01*
X16779200Y-8661400D02*
G75*
G03*
X16779200Y-8661400I-65000J0D01*
G01*
X16649200Y-9079000D02*
X16779200Y-9209000D01*
X16779200Y-9079000D02*
X16649200Y-9209000D01*
X16779200Y-9144000D02*
G75*
G03*
X16779200Y-9144000I-65000J0D01*
G01*
X16649200Y-10095000D02*
X16779200Y-10225000D01*
X16779200Y-10095000D02*
X16649200Y-10225000D01*
X16779200Y-10160000D02*
G75*
G03*
X16779200Y-10160000I-65000J0D01*
G01*
D18*
X9686100Y-8452500D02*
X9821100Y-8587500D01*
X9821100Y-8452500D02*
X9686100Y-8587500D01*
X9753600Y-8452500D02*
X9753600Y-8587500D01*
X9686100Y-8520000D02*
X9821100Y-8520000D01*
X9686100Y-9192500D02*
X9821100Y-9327500D01*
X9821100Y-9192500D02*
X9686100Y-9327500D01*
X9753600Y-9192500D02*
X9753600Y-9327500D01*
X9686100Y-9260000D02*
X9821100Y-9260000D01*
X10194100Y-8452500D02*
X10329100Y-8587500D01*
X10329100Y-8452500D02*
X10194100Y-8587500D01*
X10261600Y-8452500D02*
X10261600Y-8587500D01*
X10194100Y-8520000D02*
X10329100Y-8520000D01*
X10194100Y-9192500D02*
X10329100Y-9327500D01*
X10329100Y-9192500D02*
X10194100Y-9327500D01*
X10261600Y-9192500D02*
X10261600Y-9327500D01*
X10194100Y-9260000D02*
X10329100Y-9260000D01*
D19*
X9948400Y-7764000D02*
X10168400Y-7984000D01*
X10168400Y-7764000D02*
X9948400Y-7984000D01*
X10136183Y-7951782D02*
X10136183Y-7796217D01*
X9980618Y-7796217D01*
X9980618Y-7951782D01*
X10136183Y-7951782D01*
X9948400Y-9821400D02*
X10168400Y-10041400D01*
X10168400Y-9821400D02*
X9948400Y-10041400D01*
X10136183Y-10009183D02*
X10136183Y-9853618D01*
X9980618Y-9853618D01*
X9980618Y-10009183D01*
X10136183Y-10009183D01*
X15968200Y-8043400D02*
X16188200Y-8263400D01*
X16188200Y-8043400D02*
X15968200Y-8263400D01*
X16155982Y-8231182D02*
X16155982Y-8075617D01*
X16000417Y-8075617D01*
X16000417Y-8231182D01*
X16155982Y-8231182D01*
X15968200Y-9542000D02*
X16188200Y-9762000D01*
X16188200Y-9542000D02*
X15968200Y-9762000D01*
X16155982Y-9729783D02*
X16155982Y-9574218D01*
X16000417Y-9574218D01*
X16000417Y-9729783D01*
X16155982Y-9729783D01*
X16120600Y-8805400D02*
X16340600Y-9025400D01*
X16340600Y-8805400D02*
X16120600Y-9025400D01*
X16308382Y-8993183D02*
X16308382Y-8837618D01*
X16152817Y-8837618D01*
X16152817Y-8993183D01*
X16308382Y-8993183D01*
D11*
X9881719Y-10676176D02*
X9881719Y-10476176D01*
X9929338Y-10476176D01*
X9957910Y-10485700D01*
X9976957Y-10504748D01*
X9986481Y-10523795D01*
X9996005Y-10561890D01*
X9996005Y-10590462D01*
X9986481Y-10628557D01*
X9976957Y-10647605D01*
X9957910Y-10666652D01*
X9929338Y-10676176D01*
X9881719Y-10676176D01*
X10081719Y-10676176D02*
X10081719Y-10542843D01*
X10081719Y-10580938D02*
X10091243Y-10561890D01*
X10100767Y-10552367D01*
X10119814Y-10542843D01*
X10138862Y-10542843D01*
X10205529Y-10676176D02*
X10205529Y-10542843D01*
X10205529Y-10476176D02*
X10196005Y-10485700D01*
X10205529Y-10495224D01*
X10215052Y-10485700D01*
X10205529Y-10476176D01*
X10205529Y-10495224D01*
X10329338Y-10676176D02*
X10310290Y-10666652D01*
X10300767Y-10647605D01*
X10300767Y-10476176D01*
X10434100Y-10676176D02*
X10415052Y-10666652D01*
X10405529Y-10647605D01*
X10405529Y-10476176D01*
X10662671Y-10676176D02*
X10662671Y-10476176D01*
X10729338Y-10619033D01*
X10796005Y-10476176D01*
X10796005Y-10676176D01*
X10976957Y-10676176D02*
X10976957Y-10571414D01*
X10967433Y-10552367D01*
X10948386Y-10542843D01*
X10910290Y-10542843D01*
X10891243Y-10552367D01*
X10976957Y-10666652D02*
X10957910Y-10676176D01*
X10910290Y-10676176D01*
X10891243Y-10666652D01*
X10881719Y-10647605D01*
X10881719Y-10628557D01*
X10891243Y-10609510D01*
X10910290Y-10599986D01*
X10957910Y-10599986D01*
X10976957Y-10590462D01*
X11072195Y-10542843D02*
X11072195Y-10742843D01*
X11072195Y-10552367D02*
X11091243Y-10542843D01*
X11129338Y-10542843D01*
X11148386Y-10552367D01*
X11157910Y-10561890D01*
X11167433Y-10580938D01*
X11167433Y-10638081D01*
X11157910Y-10657129D01*
X11148386Y-10666652D01*
X11129338Y-10676176D01*
X11091243Y-10676176D01*
X11072195Y-10666652D01*
X11253148Y-10657129D02*
X11262671Y-10666652D01*
X11253148Y-10676176D01*
X11243624Y-10666652D01*
X11253148Y-10657129D01*
X11253148Y-10676176D01*
X11253148Y-10552367D02*
X11262671Y-10561890D01*
X11253148Y-10571414D01*
X11243624Y-10561890D01*
X11253148Y-10552367D01*
X11253148Y-10571414D01*
D12*
X9594100Y-10990700D02*
X9624100Y-11020700D01*
X9624100Y-10990700D02*
X9594100Y-11020700D01*
D11*
X9919814Y-10896176D02*
X9938862Y-10896176D01*
X9957910Y-10905700D01*
X9967433Y-10915224D01*
X9976957Y-10934271D01*
X9986481Y-10972367D01*
X9986481Y-11019986D01*
X9976957Y-11058081D01*
X9967433Y-11077129D01*
X9957910Y-11086652D01*
X9938862Y-11096176D01*
X9919814Y-11096176D01*
X9900767Y-11086652D01*
X9891243Y-11077129D01*
X9881719Y-11058081D01*
X9872195Y-11019986D01*
X9872195Y-10972367D01*
X9881719Y-10934271D01*
X9891243Y-10915224D01*
X9900767Y-10905700D01*
X9919814Y-10896176D01*
X10072195Y-11077129D02*
X10081719Y-11086652D01*
X10072195Y-11096176D01*
X10062671Y-11086652D01*
X10072195Y-11077129D01*
X10072195Y-11096176D01*
X10148386Y-10896176D02*
X10272195Y-10896176D01*
X10205529Y-10972367D01*
X10234100Y-10972367D01*
X10253148Y-10981890D01*
X10262671Y-10991414D01*
X10272195Y-11010462D01*
X10272195Y-11058081D01*
X10262671Y-11077129D01*
X10253148Y-11086652D01*
X10234100Y-11096176D01*
X10176957Y-11096176D01*
X10157910Y-11086652D01*
X10148386Y-11077129D01*
X10396005Y-10896176D02*
X10415052Y-10896176D01*
X10434100Y-10905700D01*
X10443624Y-10915224D01*
X10453148Y-10934271D01*
X10462671Y-10972367D01*
X10462671Y-11019986D01*
X10453148Y-11058081D01*
X10443624Y-11077129D01*
X10434100Y-11086652D01*
X10415052Y-11096176D01*
X10396005Y-11096176D01*
X10376957Y-11086652D01*
X10367433Y-11077129D01*
X10357910Y-11058081D01*
X10348386Y-11019986D01*
X10348386Y-10972367D01*
X10357910Y-10934271D01*
X10367433Y-10915224D01*
X10376957Y-10905700D01*
X10396005Y-10896176D01*
X10586481Y-10896176D02*
X10605529Y-10896176D01*
X10624576Y-10905700D01*
X10634100Y-10915224D01*
X10643624Y-10934271D01*
X10653148Y-10972367D01*
X10653148Y-11019986D01*
X10643624Y-11058081D01*
X10634100Y-11077129D01*
X10624576Y-11086652D01*
X10605529Y-11096176D01*
X10586481Y-11096176D01*
X10567433Y-11086652D01*
X10557910Y-11077129D01*
X10548386Y-11058081D01*
X10538862Y-11019986D01*
X10538862Y-10972367D01*
X10548386Y-10934271D01*
X10557910Y-10915224D01*
X10567433Y-10905700D01*
X10586481Y-10896176D01*
X10738862Y-11096176D02*
X10738862Y-10962843D01*
X10738862Y-10981890D02*
X10748386Y-10972367D01*
X10767433Y-10962843D01*
X10796005Y-10962843D01*
X10815052Y-10972367D01*
X10824576Y-10991414D01*
X10824576Y-11096176D01*
X10824576Y-10991414D02*
X10834100Y-10972367D01*
X10853148Y-10962843D01*
X10881719Y-10962843D01*
X10900767Y-10972367D01*
X10910290Y-10991414D01*
X10910290Y-11096176D01*
X11005529Y-11096176D02*
X11005529Y-10962843D01*
X11005529Y-10981890D02*
X11015052Y-10972367D01*
X11034100Y-10962843D01*
X11062671Y-10962843D01*
X11081719Y-10972367D01*
X11091243Y-10991414D01*
X11091243Y-11096176D01*
X11091243Y-10991414D02*
X11100767Y-10972367D01*
X11119814Y-10962843D01*
X11148386Y-10962843D01*
X11167433Y-10972367D01*
X11176957Y-10991414D01*
X11176957Y-11096176D01*
X11567433Y-10886652D02*
X11396005Y-11143795D01*
X11824576Y-10896176D02*
X11843624Y-10896176D01*
X11862671Y-10905700D01*
X11872195Y-10915224D01*
X11881719Y-10934271D01*
X11891243Y-10972367D01*
X11891243Y-11019986D01*
X11881719Y-11058081D01*
X11872195Y-11077129D01*
X11862671Y-11086652D01*
X11843624Y-11096176D01*
X11824576Y-11096176D01*
X11805528Y-11086652D01*
X11796005Y-11077129D01*
X11786481Y-11058081D01*
X11776957Y-11019986D01*
X11776957Y-10972367D01*
X11786481Y-10934271D01*
X11796005Y-10915224D01*
X11805528Y-10905700D01*
X11824576Y-10896176D01*
X11976957Y-11077129D02*
X11986481Y-11086652D01*
X11976957Y-11096176D01*
X11967433Y-11086652D01*
X11976957Y-11077129D01*
X11976957Y-11096176D01*
X12110290Y-10896176D02*
X12129338Y-10896176D01*
X12148386Y-10905700D01*
X12157909Y-10915224D01*
X12167433Y-10934271D01*
X12176957Y-10972367D01*
X12176957Y-11019986D01*
X12167433Y-11058081D01*
X12157909Y-11077129D01*
X12148386Y-11086652D01*
X12129338Y-11096176D01*
X12110290Y-11096176D01*
X12091243Y-11086652D01*
X12081719Y-11077129D01*
X12072195Y-11058081D01*
X12062671Y-11019986D01*
X12062671Y-10972367D01*
X12072195Y-10934271D01*
X12081719Y-10915224D01*
X12091243Y-10905700D01*
X12110290Y-10896176D01*
X12367433Y-11096176D02*
X12253148Y-11096176D01*
X12310290Y-11096176D02*
X12310290Y-10896176D01*
X12291243Y-10924748D01*
X12272195Y-10943795D01*
X12253148Y-10953319D01*
X12557909Y-11096176D02*
X12443624Y-11096176D01*
X12500767Y-11096176D02*
X12500767Y-10896176D01*
X12481719Y-10924748D01*
X12462671Y-10943795D01*
X12443624Y-10953319D01*
X12672195Y-10981890D02*
X12653148Y-10972367D01*
X12643624Y-10962843D01*
X12634100Y-10943795D01*
X12634100Y-10934271D01*
X12643624Y-10915224D01*
X12653148Y-10905700D01*
X12672195Y-10896176D01*
X12710290Y-10896176D01*
X12729338Y-10905700D01*
X12738862Y-10915224D01*
X12748386Y-10934271D01*
X12748386Y-10943795D01*
X12738862Y-10962843D01*
X12729338Y-10972367D01*
X12710290Y-10981890D01*
X12672195Y-10981890D01*
X12653148Y-10991414D01*
X12643624Y-11000938D01*
X12634100Y-11019986D01*
X12634100Y-11058081D01*
X12643624Y-11077129D01*
X12653148Y-11086652D01*
X12672195Y-11096176D01*
X12710290Y-11096176D01*
X12729338Y-11086652D01*
X12738862Y-11077129D01*
X12748386Y-11058081D01*
X12748386Y-11019986D01*
X12738862Y-11000938D01*
X12729338Y-10991414D01*
X12710290Y-10981890D01*
X12824576Y-10896176D02*
X12824576Y-10934271D01*
X12900767Y-10896176D02*
X12900767Y-10934271D01*
X13196005Y-11172367D02*
X13186481Y-11162843D01*
X13167433Y-11134271D01*
X13157909Y-11115224D01*
X13148386Y-11086652D01*
X13138862Y-11039033D01*
X13138862Y-11000938D01*
X13148386Y-10953319D01*
X13157909Y-10924748D01*
X13167433Y-10905700D01*
X13186481Y-10877129D01*
X13196005Y-10867605D01*
X13367433Y-10896176D02*
X13272195Y-10896176D01*
X13262671Y-10991414D01*
X13272195Y-10981890D01*
X13291243Y-10972367D01*
X13338862Y-10972367D01*
X13357909Y-10981890D01*
X13367433Y-10991414D01*
X13376957Y-11010462D01*
X13376957Y-11058081D01*
X13367433Y-11077129D01*
X13357909Y-11086652D01*
X13338862Y-11096176D01*
X13291243Y-11096176D01*
X13272195Y-11086652D01*
X13262671Y-11077129D01*
X13443624Y-10896176D02*
X13576957Y-10896176D01*
X13491243Y-11096176D01*
X13805528Y-11096176D02*
X13805528Y-10896176D01*
X13891243Y-11096176D02*
X13891243Y-10991414D01*
X13881719Y-10972367D01*
X13862671Y-10962843D01*
X13834100Y-10962843D01*
X13815052Y-10972367D01*
X13805528Y-10981890D01*
X14015052Y-11096176D02*
X13996005Y-11086652D01*
X13986481Y-11077129D01*
X13976957Y-11058081D01*
X13976957Y-11000938D01*
X13986481Y-10981890D01*
X13996005Y-10972367D01*
X14015052Y-10962843D01*
X14043624Y-10962843D01*
X14062671Y-10972367D01*
X14072195Y-10981890D01*
X14081719Y-11000938D01*
X14081719Y-11058081D01*
X14072195Y-11077129D01*
X14062671Y-11086652D01*
X14043624Y-11096176D01*
X14015052Y-11096176D01*
X14196005Y-11096176D02*
X14176957Y-11086652D01*
X14167433Y-11067605D01*
X14167433Y-10896176D01*
X14348386Y-11086652D02*
X14329338Y-11096176D01*
X14291243Y-11096176D01*
X14272195Y-11086652D01*
X14262671Y-11067605D01*
X14262671Y-10991414D01*
X14272195Y-10972367D01*
X14291243Y-10962843D01*
X14329338Y-10962843D01*
X14348386Y-10972367D01*
X14357909Y-10991414D01*
X14357909Y-11010462D01*
X14262671Y-11029510D01*
X14434100Y-11086652D02*
X14453148Y-11096176D01*
X14491243Y-11096176D01*
X14510290Y-11086652D01*
X14519814Y-11067605D01*
X14519814Y-11058081D01*
X14510290Y-11039033D01*
X14491243Y-11029510D01*
X14462671Y-11029510D01*
X14443624Y-11019986D01*
X14434100Y-11000938D01*
X14434100Y-10991414D01*
X14443624Y-10972367D01*
X14462671Y-10962843D01*
X14491243Y-10962843D01*
X14510290Y-10972367D01*
X14586481Y-11172367D02*
X14596005Y-11162843D01*
X14615052Y-11134271D01*
X14624576Y-11115224D01*
X14634100Y-11086652D01*
X14643624Y-11039033D01*
X14643624Y-11000938D01*
X14634100Y-10953319D01*
X14624576Y-10924748D01*
X14615052Y-10905700D01*
X14596005Y-10877129D01*
X14586481Y-10867605D01*
D13*
X9624100Y-11269700D02*
G75*
G03*
X9624100Y-11269700I-20000J0D01*
G01*
D11*
X9919814Y-11160176D02*
X9938862Y-11160176D01*
X9957910Y-11169700D01*
X9967433Y-11179224D01*
X9976957Y-11198271D01*
X9986481Y-11236367D01*
X9986481Y-11283986D01*
X9976957Y-11322081D01*
X9967433Y-11341128D01*
X9957910Y-11350652D01*
X9938862Y-11360176D01*
X9919814Y-11360176D01*
X9900767Y-11350652D01*
X9891243Y-11341128D01*
X9881719Y-11322081D01*
X9872195Y-11283986D01*
X9872195Y-11236367D01*
X9881719Y-11198271D01*
X9891243Y-11179224D01*
X9900767Y-11169700D01*
X9919814Y-11160176D01*
X10072195Y-11341128D02*
X10081719Y-11350652D01*
X10072195Y-11360176D01*
X10062671Y-11350652D01*
X10072195Y-11341128D01*
X10072195Y-11360176D01*
X10253148Y-11226843D02*
X10253148Y-11360176D01*
X10205529Y-11150652D02*
X10157910Y-11293509D01*
X10281719Y-11293509D01*
X10396005Y-11160176D02*
X10415052Y-11160176D01*
X10434100Y-11169700D01*
X10443624Y-11179224D01*
X10453148Y-11198271D01*
X10462671Y-11236367D01*
X10462671Y-11283986D01*
X10453148Y-11322081D01*
X10443624Y-11341128D01*
X10434100Y-11350652D01*
X10415052Y-11360176D01*
X10396005Y-11360176D01*
X10376957Y-11350652D01*
X10367433Y-11341128D01*
X10357910Y-11322081D01*
X10348386Y-11283986D01*
X10348386Y-11236367D01*
X10357910Y-11198271D01*
X10367433Y-11179224D01*
X10376957Y-11169700D01*
X10396005Y-11160176D01*
X10586481Y-11160176D02*
X10605529Y-11160176D01*
X10624576Y-11169700D01*
X10634100Y-11179224D01*
X10643624Y-11198271D01*
X10653148Y-11236367D01*
X10653148Y-11283986D01*
X10643624Y-11322081D01*
X10634100Y-11341128D01*
X10624576Y-11350652D01*
X10605529Y-11360176D01*
X10586481Y-11360176D01*
X10567433Y-11350652D01*
X10557910Y-11341128D01*
X10548386Y-11322081D01*
X10538862Y-11283986D01*
X10538862Y-11236367D01*
X10548386Y-11198271D01*
X10557910Y-11179224D01*
X10567433Y-11169700D01*
X10586481Y-11160176D01*
X10738862Y-11360176D02*
X10738862Y-11226843D01*
X10738862Y-11245890D02*
X10748386Y-11236367D01*
X10767433Y-11226843D01*
X10796005Y-11226843D01*
X10815052Y-11236367D01*
X10824576Y-11255414D01*
X10824576Y-11360176D01*
X10824576Y-11255414D02*
X10834100Y-11236367D01*
X10853148Y-11226843D01*
X10881719Y-11226843D01*
X10900767Y-11236367D01*
X10910290Y-11255414D01*
X10910290Y-11360176D01*
X11005529Y-11360176D02*
X11005529Y-11226843D01*
X11005529Y-11245890D02*
X11015052Y-11236367D01*
X11034100Y-11226843D01*
X11062671Y-11226843D01*
X11081719Y-11236367D01*
X11091243Y-11255414D01*
X11091243Y-11360176D01*
X11091243Y-11255414D02*
X11100767Y-11236367D01*
X11119814Y-11226843D01*
X11148386Y-11226843D01*
X11167433Y-11236367D01*
X11176957Y-11255414D01*
X11176957Y-11360176D01*
X11567433Y-11150652D02*
X11396005Y-11407795D01*
X11824576Y-11160176D02*
X11843624Y-11160176D01*
X11862671Y-11169700D01*
X11872195Y-11179224D01*
X11881719Y-11198271D01*
X11891243Y-11236367D01*
X11891243Y-11283986D01*
X11881719Y-11322081D01*
X11872195Y-11341128D01*
X11862671Y-11350652D01*
X11843624Y-11360176D01*
X11824576Y-11360176D01*
X11805528Y-11350652D01*
X11796005Y-11341128D01*
X11786481Y-11322081D01*
X11776957Y-11283986D01*
X11776957Y-11236367D01*
X11786481Y-11198271D01*
X11796005Y-11179224D01*
X11805528Y-11169700D01*
X11824576Y-11160176D01*
X11976957Y-11341128D02*
X11986481Y-11350652D01*
X11976957Y-11360176D01*
X11967433Y-11350652D01*
X11976957Y-11341128D01*
X11976957Y-11360176D01*
X12110290Y-11160176D02*
X12129338Y-11160176D01*
X12148386Y-11169700D01*
X12157909Y-11179224D01*
X12167433Y-11198271D01*
X12176957Y-11236367D01*
X12176957Y-11283986D01*
X12167433Y-11322081D01*
X12157909Y-11341128D01*
X12148386Y-11350652D01*
X12129338Y-11360176D01*
X12110290Y-11360176D01*
X12091243Y-11350652D01*
X12081719Y-11341128D01*
X12072195Y-11322081D01*
X12062671Y-11283986D01*
X12062671Y-11236367D01*
X12072195Y-11198271D01*
X12081719Y-11179224D01*
X12091243Y-11169700D01*
X12110290Y-11160176D01*
X12367433Y-11360176D02*
X12253148Y-11360176D01*
X12310290Y-11360176D02*
X12310290Y-11160176D01*
X12291243Y-11188748D01*
X12272195Y-11207795D01*
X12253148Y-11217319D01*
X12548386Y-11160176D02*
X12453148Y-11160176D01*
X12443624Y-11255414D01*
X12453148Y-11245890D01*
X12472195Y-11236367D01*
X12519814Y-11236367D01*
X12538862Y-11245890D01*
X12548386Y-11255414D01*
X12557909Y-11274462D01*
X12557909Y-11322081D01*
X12548386Y-11341128D01*
X12538862Y-11350652D01*
X12519814Y-11360176D01*
X12472195Y-11360176D01*
X12453148Y-11350652D01*
X12443624Y-11341128D01*
X12624576Y-11160176D02*
X12757909Y-11160176D01*
X12672195Y-11360176D01*
X12824576Y-11160176D02*
X12824576Y-11198271D01*
X12900767Y-11160176D02*
X12900767Y-11198271D01*
X13196005Y-11436367D02*
X13186481Y-11426843D01*
X13167433Y-11398271D01*
X13157909Y-11379224D01*
X13148386Y-11350652D01*
X13138862Y-11303033D01*
X13138862Y-11264938D01*
X13148386Y-11217319D01*
X13157909Y-11188748D01*
X13167433Y-11169700D01*
X13186481Y-11141129D01*
X13196005Y-11131605D01*
X13253148Y-11160176D02*
X13376957Y-11160176D01*
X13310290Y-11236367D01*
X13338862Y-11236367D01*
X13357909Y-11245890D01*
X13367433Y-11255414D01*
X13376957Y-11274462D01*
X13376957Y-11322081D01*
X13367433Y-11341128D01*
X13357909Y-11350652D01*
X13338862Y-11360176D01*
X13281719Y-11360176D01*
X13262671Y-11350652D01*
X13253148Y-11341128D01*
X13453148Y-11179224D02*
X13462671Y-11169700D01*
X13481719Y-11160176D01*
X13529338Y-11160176D01*
X13548386Y-11169700D01*
X13557909Y-11179224D01*
X13567433Y-11198271D01*
X13567433Y-11217319D01*
X13557909Y-11245890D01*
X13443624Y-11360176D01*
X13567433Y-11360176D01*
X13805528Y-11360176D02*
X13805528Y-11160176D01*
X13891243Y-11360176D02*
X13891243Y-11255414D01*
X13881719Y-11236367D01*
X13862671Y-11226843D01*
X13834100Y-11226843D01*
X13815052Y-11236367D01*
X13805528Y-11245890D01*
X14015052Y-11360176D02*
X13996005Y-11350652D01*
X13986481Y-11341128D01*
X13976957Y-11322081D01*
X13976957Y-11264938D01*
X13986481Y-11245890D01*
X13996005Y-11236367D01*
X14015052Y-11226843D01*
X14043624Y-11226843D01*
X14062671Y-11236367D01*
X14072195Y-11245890D01*
X14081719Y-11264938D01*
X14081719Y-11322081D01*
X14072195Y-11341128D01*
X14062671Y-11350652D01*
X14043624Y-11360176D01*
X14015052Y-11360176D01*
X14196005Y-11360176D02*
X14176957Y-11350652D01*
X14167433Y-11331605D01*
X14167433Y-11160176D01*
X14348386Y-11350652D02*
X14329338Y-11360176D01*
X14291243Y-11360176D01*
X14272195Y-11350652D01*
X14262671Y-11331605D01*
X14262671Y-11255414D01*
X14272195Y-11236367D01*
X14291243Y-11226843D01*
X14329338Y-11226843D01*
X14348386Y-11236367D01*
X14357909Y-11255414D01*
X14357909Y-11274462D01*
X14262671Y-11293509D01*
X14434100Y-11350652D02*
X14453148Y-11360176D01*
X14491243Y-11360176D01*
X14510290Y-11350652D01*
X14519814Y-11331605D01*
X14519814Y-11322081D01*
X14510290Y-11303033D01*
X14491243Y-11293509D01*
X14462671Y-11293509D01*
X14443624Y-11283986D01*
X14434100Y-11264938D01*
X14434100Y-11255414D01*
X14443624Y-11236367D01*
X14462671Y-11226843D01*
X14491243Y-11226843D01*
X14510290Y-11236367D01*
X14586481Y-11436367D02*
X14596005Y-11426843D01*
X14615052Y-11398271D01*
X14624576Y-11379224D01*
X14634100Y-11350652D01*
X14643624Y-11303033D01*
X14643624Y-11264938D01*
X14634100Y-11217319D01*
X14624576Y-11188748D01*
X14615052Y-11169700D01*
X14596005Y-11141129D01*
X14586481Y-11131605D01*
D14*
X9594100Y-11503700D02*
X9594100Y-11563700D01*
X9564100Y-11533700D02*
X9624100Y-11533700D01*
D11*
X9919814Y-11424176D02*
X9938862Y-11424176D01*
X9957910Y-11433700D01*
X9967433Y-11443224D01*
X9976957Y-11462271D01*
X9986481Y-11500367D01*
X9986481Y-11547986D01*
X9976957Y-11586081D01*
X9967433Y-11605128D01*
X9957910Y-11614652D01*
X9938862Y-11624176D01*
X9919814Y-11624176D01*
X9900767Y-11614652D01*
X9891243Y-11605128D01*
X9881719Y-11586081D01*
X9872195Y-11547986D01*
X9872195Y-11500367D01*
X9881719Y-11462271D01*
X9891243Y-11443224D01*
X9900767Y-11433700D01*
X9919814Y-11424176D01*
X10072195Y-11605128D02*
X10081719Y-11614652D01*
X10072195Y-11624176D01*
X10062671Y-11614652D01*
X10072195Y-11605128D01*
X10072195Y-11624176D01*
X10253148Y-11424176D02*
X10215052Y-11424176D01*
X10196005Y-11433700D01*
X10186481Y-11443224D01*
X10167433Y-11471795D01*
X10157910Y-11509890D01*
X10157910Y-11586081D01*
X10167433Y-11605128D01*
X10176957Y-11614652D01*
X10196005Y-11624176D01*
X10234100Y-11624176D01*
X10253148Y-11614652D01*
X10262671Y-11605128D01*
X10272195Y-11586081D01*
X10272195Y-11538462D01*
X10262671Y-11519414D01*
X10253148Y-11509890D01*
X10234100Y-11500367D01*
X10196005Y-11500367D01*
X10176957Y-11509890D01*
X10167433Y-11519414D01*
X10157910Y-11538462D01*
X10396005Y-11424176D02*
X10415052Y-11424176D01*
X10434100Y-11433700D01*
X10443624Y-11443224D01*
X10453148Y-11462271D01*
X10462671Y-11500367D01*
X10462671Y-11547986D01*
X10453148Y-11586081D01*
X10443624Y-11605128D01*
X10434100Y-11614652D01*
X10415052Y-11624176D01*
X10396005Y-11624176D01*
X10376957Y-11614652D01*
X10367433Y-11605128D01*
X10357910Y-11586081D01*
X10348386Y-11547986D01*
X10348386Y-11500367D01*
X10357910Y-11462271D01*
X10367433Y-11443224D01*
X10376957Y-11433700D01*
X10396005Y-11424176D01*
X10586481Y-11424176D02*
X10605529Y-11424176D01*
X10624576Y-11433700D01*
X10634100Y-11443224D01*
X10643624Y-11462271D01*
X10653148Y-11500367D01*
X10653148Y-11547986D01*
X10643624Y-11586081D01*
X10634100Y-11605128D01*
X10624576Y-11614652D01*
X10605529Y-11624176D01*
X10586481Y-11624176D01*
X10567433Y-11614652D01*
X10557910Y-11605128D01*
X10548386Y-11586081D01*
X10538862Y-11547986D01*
X10538862Y-11500367D01*
X10548386Y-11462271D01*
X10557910Y-11443224D01*
X10567433Y-11433700D01*
X10586481Y-11424176D01*
X10738862Y-11624176D02*
X10738862Y-11490843D01*
X10738862Y-11509890D02*
X10748386Y-11500367D01*
X10767433Y-11490843D01*
X10796005Y-11490843D01*
X10815052Y-11500367D01*
X10824576Y-11519414D01*
X10824576Y-11624176D01*
X10824576Y-11519414D02*
X10834100Y-11500367D01*
X10853148Y-11490843D01*
X10881719Y-11490843D01*
X10900767Y-11500367D01*
X10910290Y-11519414D01*
X10910290Y-11624176D01*
X11005529Y-11624176D02*
X11005529Y-11490843D01*
X11005529Y-11509890D02*
X11015052Y-11500367D01*
X11034100Y-11490843D01*
X11062671Y-11490843D01*
X11081719Y-11500367D01*
X11091243Y-11519414D01*
X11091243Y-11624176D01*
X11091243Y-11519414D02*
X11100767Y-11500367D01*
X11119814Y-11490843D01*
X11148386Y-11490843D01*
X11167433Y-11500367D01*
X11176957Y-11519414D01*
X11176957Y-11624176D01*
X11567433Y-11414652D02*
X11396005Y-11671795D01*
X11824576Y-11424176D02*
X11843624Y-11424176D01*
X11862671Y-11433700D01*
X11872195Y-11443224D01*
X11881719Y-11462271D01*
X11891243Y-11500367D01*
X11891243Y-11547986D01*
X11881719Y-11586081D01*
X11872195Y-11605128D01*
X11862671Y-11614652D01*
X11843624Y-11624176D01*
X11824576Y-11624176D01*
X11805528Y-11614652D01*
X11796005Y-11605128D01*
X11786481Y-11586081D01*
X11776957Y-11547986D01*
X11776957Y-11500367D01*
X11786481Y-11462271D01*
X11796005Y-11443224D01*
X11805528Y-11433700D01*
X11824576Y-11424176D01*
X11976957Y-11605128D02*
X11986481Y-11614652D01*
X11976957Y-11624176D01*
X11967433Y-11614652D01*
X11976957Y-11605128D01*
X11976957Y-11624176D01*
X12110290Y-11424176D02*
X12129338Y-11424176D01*
X12148386Y-11433700D01*
X12157909Y-11443224D01*
X12167433Y-11462271D01*
X12176957Y-11500367D01*
X12176957Y-11547986D01*
X12167433Y-11586081D01*
X12157909Y-11605128D01*
X12148386Y-11614652D01*
X12129338Y-11624176D01*
X12110290Y-11624176D01*
X12091243Y-11614652D01*
X12081719Y-11605128D01*
X12072195Y-11586081D01*
X12062671Y-11547986D01*
X12062671Y-11500367D01*
X12072195Y-11462271D01*
X12081719Y-11443224D01*
X12091243Y-11433700D01*
X12110290Y-11424176D01*
X12253148Y-11443224D02*
X12262671Y-11433700D01*
X12281719Y-11424176D01*
X12329338Y-11424176D01*
X12348386Y-11433700D01*
X12357909Y-11443224D01*
X12367433Y-11462271D01*
X12367433Y-11481319D01*
X12357909Y-11509890D01*
X12243624Y-11624176D01*
X12367433Y-11624176D01*
X12434100Y-11424176D02*
X12557909Y-11424176D01*
X12491243Y-11500367D01*
X12519814Y-11500367D01*
X12538862Y-11509890D01*
X12548386Y-11519414D01*
X12557909Y-11538462D01*
X12557909Y-11586081D01*
X12548386Y-11605128D01*
X12538862Y-11614652D01*
X12519814Y-11624176D01*
X12462671Y-11624176D01*
X12443624Y-11614652D01*
X12434100Y-11605128D01*
X12729338Y-11424176D02*
X12691243Y-11424176D01*
X12672195Y-11433700D01*
X12662671Y-11443224D01*
X12643624Y-11471795D01*
X12634100Y-11509890D01*
X12634100Y-11586081D01*
X12643624Y-11605128D01*
X12653148Y-11614652D01*
X12672195Y-11624176D01*
X12710290Y-11624176D01*
X12729338Y-11614652D01*
X12738862Y-11605128D01*
X12748386Y-11586081D01*
X12748386Y-11538462D01*
X12738862Y-11519414D01*
X12729338Y-11509890D01*
X12710290Y-11500367D01*
X12672195Y-11500367D01*
X12653148Y-11509890D01*
X12643624Y-11519414D01*
X12634100Y-11538462D01*
X12824576Y-11424176D02*
X12824576Y-11462271D01*
X12900767Y-11424176D02*
X12900767Y-11462271D01*
X13196005Y-11700367D02*
X13186481Y-11690843D01*
X13167433Y-11662271D01*
X13157909Y-11643224D01*
X13148386Y-11614652D01*
X13138862Y-11567033D01*
X13138862Y-11528938D01*
X13148386Y-11481319D01*
X13157909Y-11452748D01*
X13167433Y-11433700D01*
X13186481Y-11405128D01*
X13196005Y-11395605D01*
X13310290Y-11424176D02*
X13329338Y-11424176D01*
X13348386Y-11433700D01*
X13357909Y-11443224D01*
X13367433Y-11462271D01*
X13376957Y-11500367D01*
X13376957Y-11547986D01*
X13367433Y-11586081D01*
X13357909Y-11605128D01*
X13348386Y-11614652D01*
X13329338Y-11624176D01*
X13310290Y-11624176D01*
X13291243Y-11614652D01*
X13281719Y-11605128D01*
X13272195Y-11586081D01*
X13262671Y-11547986D01*
X13262671Y-11500367D01*
X13272195Y-11462271D01*
X13281719Y-11443224D01*
X13291243Y-11433700D01*
X13310290Y-11424176D01*
X13615052Y-11624176D02*
X13615052Y-11424176D01*
X13700767Y-11624176D02*
X13700767Y-11519414D01*
X13691243Y-11500367D01*
X13672195Y-11490843D01*
X13643624Y-11490843D01*
X13624576Y-11500367D01*
X13615052Y-11509890D01*
X13824576Y-11624176D02*
X13805528Y-11614652D01*
X13796005Y-11605128D01*
X13786481Y-11586081D01*
X13786481Y-11528938D01*
X13796005Y-11509890D01*
X13805528Y-11500367D01*
X13824576Y-11490843D01*
X13853148Y-11490843D01*
X13872195Y-11500367D01*
X13881719Y-11509890D01*
X13891243Y-11528938D01*
X13891243Y-11586081D01*
X13881719Y-11605128D01*
X13872195Y-11614652D01*
X13853148Y-11624176D01*
X13824576Y-11624176D01*
X14005528Y-11624176D02*
X13986481Y-11614652D01*
X13976957Y-11595605D01*
X13976957Y-11424176D01*
X14157909Y-11614652D02*
X14138862Y-11624176D01*
X14100767Y-11624176D01*
X14081719Y-11614652D01*
X14072195Y-11595605D01*
X14072195Y-11519414D01*
X14081719Y-11500367D01*
X14100767Y-11490843D01*
X14138862Y-11490843D01*
X14157909Y-11500367D01*
X14167433Y-11519414D01*
X14167433Y-11538462D01*
X14072195Y-11557509D01*
X14243624Y-11614652D02*
X14262671Y-11624176D01*
X14300767Y-11624176D01*
X14319814Y-11614652D01*
X14329338Y-11595605D01*
X14329338Y-11586081D01*
X14319814Y-11567033D01*
X14300767Y-11557509D01*
X14272195Y-11557509D01*
X14253148Y-11547986D01*
X14243624Y-11528938D01*
X14243624Y-11519414D01*
X14253148Y-11500367D01*
X14272195Y-11490843D01*
X14300767Y-11490843D01*
X14319814Y-11500367D01*
X14567433Y-11547986D02*
X14719814Y-11547986D01*
X14643624Y-11624176D02*
X14643624Y-11471795D01*
X14996005Y-11509890D02*
X14976957Y-11500367D01*
X14967433Y-11490843D01*
X14957909Y-11471795D01*
X14957909Y-11462271D01*
X14967433Y-11443224D01*
X14976957Y-11433700D01*
X14996005Y-11424176D01*
X15034100Y-11424176D01*
X15053148Y-11433700D01*
X15062671Y-11443224D01*
X15072195Y-11462271D01*
X15072195Y-11471795D01*
X15062671Y-11490843D01*
X15053148Y-11500367D01*
X15034100Y-11509890D01*
X14996005Y-11509890D01*
X14976957Y-11519414D01*
X14967433Y-11528938D01*
X14957909Y-11547986D01*
X14957909Y-11586081D01*
X14967433Y-11605128D01*
X14976957Y-11614652D01*
X14996005Y-11624176D01*
X15034100Y-11624176D01*
X15053148Y-11614652D01*
X15062671Y-11605128D01*
X15072195Y-11586081D01*
X15072195Y-11547986D01*
X15062671Y-11528938D01*
X15053148Y-11519414D01*
X15034100Y-11509890D01*
X15300767Y-11614652D02*
X15319814Y-11624176D01*
X15357909Y-11624176D01*
X15376957Y-11614652D01*
X15386481Y-11595605D01*
X15386481Y-11586081D01*
X15376957Y-11567033D01*
X15357909Y-11557509D01*
X15329338Y-11557509D01*
X15310290Y-11547986D01*
X15300767Y-11528938D01*
X15300767Y-11519414D01*
X15310290Y-11500367D01*
X15329338Y-11490843D01*
X15357909Y-11490843D01*
X15376957Y-11500367D01*
X15500767Y-11624176D02*
X15481719Y-11614652D01*
X15472195Y-11595605D01*
X15472195Y-11424176D01*
X15605528Y-11624176D02*
X15586481Y-11614652D01*
X15576957Y-11605128D01*
X15567433Y-11586081D01*
X15567433Y-11528938D01*
X15576957Y-11509890D01*
X15586481Y-11500367D01*
X15605528Y-11490843D01*
X15634100Y-11490843D01*
X15653148Y-11500367D01*
X15662671Y-11509890D01*
X15672195Y-11528938D01*
X15672195Y-11586081D01*
X15662671Y-11605128D01*
X15653148Y-11614652D01*
X15634100Y-11624176D01*
X15605528Y-11624176D01*
X15729338Y-11490843D02*
X15805528Y-11490843D01*
X15757909Y-11424176D02*
X15757909Y-11595605D01*
X15767433Y-11614652D01*
X15786481Y-11624176D01*
X15805528Y-11624176D01*
X15862671Y-11614652D02*
X15881719Y-11624176D01*
X15919814Y-11624176D01*
X15938862Y-11614652D01*
X15948386Y-11595605D01*
X15948386Y-11586081D01*
X15938862Y-11567033D01*
X15919814Y-11557509D01*
X15891243Y-11557509D01*
X15872195Y-11547986D01*
X15862671Y-11528938D01*
X15862671Y-11519414D01*
X15872195Y-11500367D01*
X15891243Y-11490843D01*
X15919814Y-11490843D01*
X15938862Y-11500367D01*
X16015052Y-11700367D02*
X16024576Y-11690843D01*
X16043624Y-11662271D01*
X16053148Y-11643224D01*
X16062671Y-11614652D01*
X16072195Y-11567033D01*
X16072195Y-11528938D01*
X16062671Y-11481319D01*
X16053148Y-11452748D01*
X16043624Y-11433700D01*
X16024576Y-11405128D01*
X16015052Y-11395605D01*
D15*
X9609456Y-11833056D02*
X9609456Y-11762344D01*
X9538744Y-11762344D01*
X9538744Y-11833056D01*
X9609456Y-11833056D01*
D11*
X9986481Y-11888176D02*
X9872195Y-11888176D01*
X9929338Y-11888176D02*
X9929338Y-11688176D01*
X9910290Y-11716748D01*
X9891243Y-11735795D01*
X9872195Y-11745319D01*
X10072195Y-11869128D02*
X10081719Y-11878652D01*
X10072195Y-11888176D01*
X10062671Y-11878652D01*
X10072195Y-11869128D01*
X10072195Y-11888176D01*
X10205529Y-11688176D02*
X10224576Y-11688176D01*
X10243624Y-11697700D01*
X10253148Y-11707224D01*
X10262671Y-11726271D01*
X10272195Y-11764367D01*
X10272195Y-11811986D01*
X10262671Y-11850081D01*
X10253148Y-11869128D01*
X10243624Y-11878652D01*
X10224576Y-11888176D01*
X10205529Y-11888176D01*
X10186481Y-11878652D01*
X10176957Y-11869128D01*
X10167433Y-11850081D01*
X10157910Y-11811986D01*
X10157910Y-11764367D01*
X10167433Y-11726271D01*
X10176957Y-11707224D01*
X10186481Y-11697700D01*
X10205529Y-11688176D01*
X10396005Y-11688176D02*
X10415052Y-11688176D01*
X10434100Y-11697700D01*
X10443624Y-11707224D01*
X10453148Y-11726271D01*
X10462671Y-11764367D01*
X10462671Y-11811986D01*
X10453148Y-11850081D01*
X10443624Y-11869128D01*
X10434100Y-11878652D01*
X10415052Y-11888176D01*
X10396005Y-11888176D01*
X10376957Y-11878652D01*
X10367433Y-11869128D01*
X10357910Y-11850081D01*
X10348386Y-11811986D01*
X10348386Y-11764367D01*
X10357910Y-11726271D01*
X10367433Y-11707224D01*
X10376957Y-11697700D01*
X10396005Y-11688176D01*
X10586481Y-11688176D02*
X10605529Y-11688176D01*
X10624576Y-11697700D01*
X10634100Y-11707224D01*
X10643624Y-11726271D01*
X10653148Y-11764367D01*
X10653148Y-11811986D01*
X10643624Y-11850081D01*
X10634100Y-11869128D01*
X10624576Y-11878652D01*
X10605529Y-11888176D01*
X10586481Y-11888176D01*
X10567433Y-11878652D01*
X10557910Y-11869128D01*
X10548386Y-11850081D01*
X10538862Y-11811986D01*
X10538862Y-11764367D01*
X10548386Y-11726271D01*
X10557910Y-11707224D01*
X10567433Y-11697700D01*
X10586481Y-11688176D01*
X10738862Y-11888176D02*
X10738862Y-11754843D01*
X10738862Y-11773890D02*
X10748386Y-11764367D01*
X10767433Y-11754843D01*
X10796005Y-11754843D01*
X10815052Y-11764367D01*
X10824576Y-11783414D01*
X10824576Y-11888176D01*
X10824576Y-11783414D02*
X10834100Y-11764367D01*
X10853148Y-11754843D01*
X10881719Y-11754843D01*
X10900767Y-11764367D01*
X10910290Y-11783414D01*
X10910290Y-11888176D01*
X11005529Y-11888176D02*
X11005529Y-11754843D01*
X11005529Y-11773890D02*
X11015052Y-11764367D01*
X11034100Y-11754843D01*
X11062671Y-11754843D01*
X11081719Y-11764367D01*
X11091243Y-11783414D01*
X11091243Y-11888176D01*
X11091243Y-11783414D02*
X11100767Y-11764367D01*
X11119814Y-11754843D01*
X11148386Y-11754843D01*
X11167433Y-11764367D01*
X11176957Y-11783414D01*
X11176957Y-11888176D01*
X11567433Y-11678652D02*
X11396005Y-11935795D01*
X11824576Y-11688176D02*
X11843624Y-11688176D01*
X11862671Y-11697700D01*
X11872195Y-11707224D01*
X11881719Y-11726271D01*
X11891243Y-11764367D01*
X11891243Y-11811986D01*
X11881719Y-11850081D01*
X11872195Y-11869128D01*
X11862671Y-11878652D01*
X11843624Y-11888176D01*
X11824576Y-11888176D01*
X11805528Y-11878652D01*
X11796005Y-11869128D01*
X11786481Y-11850081D01*
X11776957Y-11811986D01*
X11776957Y-11764367D01*
X11786481Y-11726271D01*
X11796005Y-11707224D01*
X11805528Y-11697700D01*
X11824576Y-11688176D01*
X11976957Y-11869128D02*
X11986481Y-11878652D01*
X11976957Y-11888176D01*
X11967433Y-11878652D01*
X11976957Y-11869128D01*
X11976957Y-11888176D01*
X12110290Y-11688176D02*
X12129338Y-11688176D01*
X12148386Y-11697700D01*
X12157909Y-11707224D01*
X12167433Y-11726271D01*
X12176957Y-11764367D01*
X12176957Y-11811986D01*
X12167433Y-11850081D01*
X12157909Y-11869128D01*
X12148386Y-11878652D01*
X12129338Y-11888176D01*
X12110290Y-11888176D01*
X12091243Y-11878652D01*
X12081719Y-11869128D01*
X12072195Y-11850081D01*
X12062671Y-11811986D01*
X12062671Y-11764367D01*
X12072195Y-11726271D01*
X12081719Y-11707224D01*
X12091243Y-11697700D01*
X12110290Y-11688176D01*
X12243624Y-11688176D02*
X12367433Y-11688176D01*
X12300767Y-11764367D01*
X12329338Y-11764367D01*
X12348386Y-11773890D01*
X12357909Y-11783414D01*
X12367433Y-11802462D01*
X12367433Y-11850081D01*
X12357909Y-11869128D01*
X12348386Y-11878652D01*
X12329338Y-11888176D01*
X12272195Y-11888176D01*
X12253148Y-11878652D01*
X12243624Y-11869128D01*
X12462671Y-11888176D02*
X12500767Y-11888176D01*
X12519814Y-11878652D01*
X12529338Y-11869128D01*
X12548386Y-11840557D01*
X12557909Y-11802462D01*
X12557909Y-11726271D01*
X12548386Y-11707224D01*
X12538862Y-11697700D01*
X12519814Y-11688176D01*
X12481719Y-11688176D01*
X12462671Y-11697700D01*
X12453148Y-11707224D01*
X12443624Y-11726271D01*
X12443624Y-11773890D01*
X12453148Y-11792938D01*
X12462671Y-11802462D01*
X12481719Y-11811986D01*
X12519814Y-11811986D01*
X12538862Y-11802462D01*
X12548386Y-11792938D01*
X12557909Y-11773890D01*
X12729338Y-11754843D02*
X12729338Y-11888176D01*
X12681719Y-11678652D02*
X12634100Y-11821509D01*
X12757909Y-11821509D01*
X12824576Y-11688176D02*
X12824576Y-11726271D01*
X12900767Y-11688176D02*
X12900767Y-11726271D01*
X13196005Y-11964367D02*
X13186481Y-11954843D01*
X13167433Y-11926271D01*
X13157909Y-11907224D01*
X13148386Y-11878652D01*
X13138862Y-11831033D01*
X13138862Y-11792938D01*
X13148386Y-11745319D01*
X13157909Y-11716748D01*
X13167433Y-11697700D01*
X13186481Y-11669128D01*
X13196005Y-11659605D01*
X13367433Y-11688176D02*
X13272195Y-11688176D01*
X13262671Y-11783414D01*
X13272195Y-11773890D01*
X13291243Y-11764367D01*
X13338862Y-11764367D01*
X13357909Y-11773890D01*
X13367433Y-11783414D01*
X13376957Y-11802462D01*
X13376957Y-11850081D01*
X13367433Y-11869128D01*
X13357909Y-11878652D01*
X13338862Y-11888176D01*
X13291243Y-11888176D01*
X13272195Y-11878652D01*
X13262671Y-11869128D01*
X13615052Y-11888176D02*
X13615052Y-11688176D01*
X13700767Y-11888176D02*
X13700767Y-11783414D01*
X13691243Y-11764367D01*
X13672195Y-11754843D01*
X13643624Y-11754843D01*
X13624576Y-11764367D01*
X13615052Y-11773890D01*
X13824576Y-11888176D02*
X13805528Y-11878652D01*
X13796005Y-11869128D01*
X13786481Y-11850081D01*
X13786481Y-11792938D01*
X13796005Y-11773890D01*
X13805528Y-11764367D01*
X13824576Y-11754843D01*
X13853148Y-11754843D01*
X13872195Y-11764367D01*
X13881719Y-11773890D01*
X13891243Y-11792938D01*
X13891243Y-11850081D01*
X13881719Y-11869128D01*
X13872195Y-11878652D01*
X13853148Y-11888176D01*
X13824576Y-11888176D01*
X14005528Y-11888176D02*
X13986481Y-11878652D01*
X13976957Y-11859605D01*
X13976957Y-11688176D01*
X14157909Y-11878652D02*
X14138862Y-11888176D01*
X14100767Y-11888176D01*
X14081719Y-11878652D01*
X14072195Y-11859605D01*
X14072195Y-11783414D01*
X14081719Y-11764367D01*
X14100767Y-11754843D01*
X14138862Y-11754843D01*
X14157909Y-11764367D01*
X14167433Y-11783414D01*
X14167433Y-11802462D01*
X14072195Y-11821509D01*
X14243624Y-11878652D02*
X14262671Y-11888176D01*
X14300767Y-11888176D01*
X14319814Y-11878652D01*
X14329338Y-11859605D01*
X14329338Y-11850081D01*
X14319814Y-11831033D01*
X14300767Y-11821509D01*
X14272195Y-11821509D01*
X14253148Y-11811986D01*
X14243624Y-11792938D01*
X14243624Y-11783414D01*
X14253148Y-11764367D01*
X14272195Y-11754843D01*
X14300767Y-11754843D01*
X14319814Y-11764367D01*
X14396005Y-11964367D02*
X14405528Y-11954843D01*
X14424576Y-11926271D01*
X14434100Y-11907224D01*
X14443624Y-11878652D01*
X14453148Y-11831033D01*
X14453148Y-11792938D01*
X14443624Y-11745319D01*
X14434100Y-11716748D01*
X14424576Y-11697700D01*
X14405528Y-11669128D01*
X14396005Y-11659605D01*
D16*
X9565600Y-12120200D02*
X9624100Y-12061700D01*
X9565600Y-12003200D01*
X9507100Y-12061700D01*
X9565600Y-12120200D01*
D11*
X9986481Y-12152176D02*
X9872195Y-12152176D01*
X9929338Y-12152176D02*
X9929338Y-11952176D01*
X9910290Y-11980748D01*
X9891243Y-11999795D01*
X9872195Y-12009319D01*
X10072195Y-12133128D02*
X10081719Y-12142652D01*
X10072195Y-12152176D01*
X10062671Y-12142652D01*
X10072195Y-12133128D01*
X10072195Y-12152176D01*
X10272195Y-12152176D02*
X10157910Y-12152176D01*
X10215052Y-12152176D02*
X10215052Y-11952176D01*
X10196005Y-11980748D01*
X10176957Y-11999795D01*
X10157910Y-12009319D01*
X10338862Y-11952176D02*
X10472195Y-11952176D01*
X10386481Y-12152176D01*
X10586481Y-11952176D02*
X10605529Y-11952176D01*
X10624576Y-11961700D01*
X10634100Y-11971224D01*
X10643624Y-11990271D01*
X10653148Y-12028367D01*
X10653148Y-12075986D01*
X10643624Y-12114081D01*
X10634100Y-12133128D01*
X10624576Y-12142652D01*
X10605529Y-12152176D01*
X10586481Y-12152176D01*
X10567433Y-12142652D01*
X10557910Y-12133128D01*
X10548386Y-12114081D01*
X10538862Y-12075986D01*
X10538862Y-12028367D01*
X10548386Y-11990271D01*
X10557910Y-11971224D01*
X10567433Y-11961700D01*
X10586481Y-11952176D01*
X10738862Y-12152176D02*
X10738862Y-12018843D01*
X10738862Y-12037890D02*
X10748386Y-12028367D01*
X10767433Y-12018843D01*
X10796005Y-12018843D01*
X10815052Y-12028367D01*
X10824576Y-12047414D01*
X10824576Y-12152176D01*
X10824576Y-12047414D02*
X10834100Y-12028367D01*
X10853148Y-12018843D01*
X10881719Y-12018843D01*
X10900767Y-12028367D01*
X10910290Y-12047414D01*
X10910290Y-12152176D01*
X11005529Y-12152176D02*
X11005529Y-12018843D01*
X11005529Y-12037890D02*
X11015052Y-12028367D01*
X11034100Y-12018843D01*
X11062671Y-12018843D01*
X11081719Y-12028367D01*
X11091243Y-12047414D01*
X11091243Y-12152176D01*
X11091243Y-12047414D02*
X11100767Y-12028367D01*
X11119814Y-12018843D01*
X11148386Y-12018843D01*
X11167433Y-12028367D01*
X11176957Y-12047414D01*
X11176957Y-12152176D01*
X11567433Y-11942652D02*
X11396005Y-12199795D01*
X11824576Y-11952176D02*
X11843624Y-11952176D01*
X11862671Y-11961700D01*
X11872195Y-11971224D01*
X11881719Y-11990271D01*
X11891243Y-12028367D01*
X11891243Y-12075986D01*
X11881719Y-12114081D01*
X11872195Y-12133128D01*
X11862671Y-12142652D01*
X11843624Y-12152176D01*
X11824576Y-12152176D01*
X11805528Y-12142652D01*
X11796005Y-12133128D01*
X11786481Y-12114081D01*
X11776957Y-12075986D01*
X11776957Y-12028367D01*
X11786481Y-11990271D01*
X11796005Y-11971224D01*
X11805528Y-11961700D01*
X11824576Y-11952176D01*
X11976957Y-12133128D02*
X11986481Y-12142652D01*
X11976957Y-12152176D01*
X11967433Y-12142652D01*
X11976957Y-12133128D01*
X11976957Y-12152176D01*
X12110290Y-11952176D02*
X12129338Y-11952176D01*
X12148386Y-11961700D01*
X12157909Y-11971224D01*
X12167433Y-11990271D01*
X12176957Y-12028367D01*
X12176957Y-12075986D01*
X12167433Y-12114081D01*
X12157909Y-12133128D01*
X12148386Y-12142652D01*
X12129338Y-12152176D01*
X12110290Y-12152176D01*
X12091243Y-12142652D01*
X12081719Y-12133128D01*
X12072195Y-12114081D01*
X12062671Y-12075986D01*
X12062671Y-12028367D01*
X12072195Y-11990271D01*
X12081719Y-11971224D01*
X12091243Y-11961700D01*
X12110290Y-11952176D01*
X12348386Y-12018843D02*
X12348386Y-12152176D01*
X12300767Y-11942652D02*
X12253148Y-12085509D01*
X12376957Y-12085509D01*
X12538862Y-11952176D02*
X12500767Y-11952176D01*
X12481719Y-11961700D01*
X12472195Y-11971224D01*
X12453148Y-11999795D01*
X12443624Y-12037890D01*
X12443624Y-12114081D01*
X12453148Y-12133128D01*
X12462671Y-12142652D01*
X12481719Y-12152176D01*
X12519814Y-12152176D01*
X12538862Y-12142652D01*
X12548386Y-12133128D01*
X12557909Y-12114081D01*
X12557909Y-12066462D01*
X12548386Y-12047414D01*
X12538862Y-12037890D01*
X12519814Y-12028367D01*
X12481719Y-12028367D01*
X12462671Y-12037890D01*
X12453148Y-12047414D01*
X12443624Y-12066462D01*
X12748386Y-12152176D02*
X12634100Y-12152176D01*
X12691243Y-12152176D02*
X12691243Y-11952176D01*
X12672195Y-11980748D01*
X12653148Y-11999795D01*
X12634100Y-12009319D01*
X12824576Y-11952176D02*
X12824576Y-11990271D01*
X12900767Y-11952176D02*
X12900767Y-11990271D01*
X13196005Y-12228367D02*
X13186481Y-12218843D01*
X13167433Y-12190271D01*
X13157909Y-12171224D01*
X13148386Y-12142652D01*
X13138862Y-12095033D01*
X13138862Y-12056938D01*
X13148386Y-12009319D01*
X13157909Y-11980748D01*
X13167433Y-11961700D01*
X13186481Y-11933128D01*
X13196005Y-11923605D01*
X13376957Y-12152176D02*
X13262671Y-12152176D01*
X13319814Y-12152176D02*
X13319814Y-11952176D01*
X13300767Y-11980748D01*
X13281719Y-11999795D01*
X13262671Y-12009319D01*
X13615052Y-12152176D02*
X13615052Y-11952176D01*
X13700767Y-12152176D02*
X13700767Y-12047414D01*
X13691243Y-12028367D01*
X13672195Y-12018843D01*
X13643624Y-12018843D01*
X13624576Y-12028367D01*
X13615052Y-12037890D01*
X13824576Y-12152176D02*
X13805528Y-12142652D01*
X13796005Y-12133128D01*
X13786481Y-12114081D01*
X13786481Y-12056938D01*
X13796005Y-12037890D01*
X13805528Y-12028367D01*
X13824576Y-12018843D01*
X13853148Y-12018843D01*
X13872195Y-12028367D01*
X13881719Y-12037890D01*
X13891243Y-12056938D01*
X13891243Y-12114081D01*
X13881719Y-12133128D01*
X13872195Y-12142652D01*
X13853148Y-12152176D01*
X13824576Y-12152176D01*
X14005528Y-12152176D02*
X13986481Y-12142652D01*
X13976957Y-12123605D01*
X13976957Y-11952176D01*
X14157909Y-12142652D02*
X14138862Y-12152176D01*
X14100767Y-12152176D01*
X14081719Y-12142652D01*
X14072195Y-12123605D01*
X14072195Y-12047414D01*
X14081719Y-12028367D01*
X14100767Y-12018843D01*
X14138862Y-12018843D01*
X14157909Y-12028367D01*
X14167433Y-12047414D01*
X14167433Y-12066462D01*
X14072195Y-12085509D01*
X14234100Y-12228367D02*
X14243624Y-12218843D01*
X14262671Y-12190271D01*
X14272195Y-12171224D01*
X14281719Y-12142652D01*
X14291243Y-12095033D01*
X14291243Y-12056938D01*
X14281719Y-12009319D01*
X14272195Y-11980748D01*
X14262671Y-11961700D01*
X14243624Y-11933128D01*
X14234100Y-11923605D01*
D17*
X9494100Y-12260700D02*
X9624100Y-12390700D01*
X9624100Y-12260700D02*
X9494100Y-12390700D01*
X9624100Y-12325700D02*
G75*
G03*
X9624100Y-12325700I-65000J0D01*
G01*
D11*
X9986481Y-12416176D02*
X9872195Y-12416176D01*
X9929338Y-12416176D02*
X9929338Y-12216176D01*
X9910290Y-12244748D01*
X9891243Y-12263795D01*
X9872195Y-12273319D01*
X10072195Y-12397128D02*
X10081719Y-12406652D01*
X10072195Y-12416176D01*
X10062671Y-12406652D01*
X10072195Y-12397128D01*
X10072195Y-12416176D01*
X10148386Y-12216176D02*
X10272195Y-12216176D01*
X10205529Y-12292367D01*
X10234100Y-12292367D01*
X10253148Y-12301890D01*
X10262671Y-12311414D01*
X10272195Y-12330462D01*
X10272195Y-12378081D01*
X10262671Y-12397128D01*
X10253148Y-12406652D01*
X10234100Y-12416176D01*
X10176957Y-12416176D01*
X10157910Y-12406652D01*
X10148386Y-12397128D01*
X10396005Y-12216176D02*
X10415052Y-12216176D01*
X10434100Y-12225700D01*
X10443624Y-12235224D01*
X10453148Y-12254271D01*
X10462671Y-12292367D01*
X10462671Y-12339986D01*
X10453148Y-12378081D01*
X10443624Y-12397128D01*
X10434100Y-12406652D01*
X10415052Y-12416176D01*
X10396005Y-12416176D01*
X10376957Y-12406652D01*
X10367433Y-12397128D01*
X10357910Y-12378081D01*
X10348386Y-12339986D01*
X10348386Y-12292367D01*
X10357910Y-12254271D01*
X10367433Y-12235224D01*
X10376957Y-12225700D01*
X10396005Y-12216176D01*
X10586481Y-12216176D02*
X10605529Y-12216176D01*
X10624576Y-12225700D01*
X10634100Y-12235224D01*
X10643624Y-12254271D01*
X10653148Y-12292367D01*
X10653148Y-12339986D01*
X10643624Y-12378081D01*
X10634100Y-12397128D01*
X10624576Y-12406652D01*
X10605529Y-12416176D01*
X10586481Y-12416176D01*
X10567433Y-12406652D01*
X10557910Y-12397128D01*
X10548386Y-12378081D01*
X10538862Y-12339986D01*
X10538862Y-12292367D01*
X10548386Y-12254271D01*
X10557910Y-12235224D01*
X10567433Y-12225700D01*
X10586481Y-12216176D01*
X10738862Y-12416176D02*
X10738862Y-12282843D01*
X10738862Y-12301890D02*
X10748386Y-12292367D01*
X10767433Y-12282843D01*
X10796005Y-12282843D01*
X10815052Y-12292367D01*
X10824576Y-12311414D01*
X10824576Y-12416176D01*
X10824576Y-12311414D02*
X10834100Y-12292367D01*
X10853148Y-12282843D01*
X10881719Y-12282843D01*
X10900767Y-12292367D01*
X10910290Y-12311414D01*
X10910290Y-12416176D01*
X11005529Y-12416176D02*
X11005529Y-12282843D01*
X11005529Y-12301890D02*
X11015052Y-12292367D01*
X11034100Y-12282843D01*
X11062671Y-12282843D01*
X11081719Y-12292367D01*
X11091243Y-12311414D01*
X11091243Y-12416176D01*
X11091243Y-12311414D02*
X11100767Y-12292367D01*
X11119814Y-12282843D01*
X11148386Y-12282843D01*
X11167433Y-12292367D01*
X11176957Y-12311414D01*
X11176957Y-12416176D01*
X11567433Y-12206652D02*
X11396005Y-12463795D01*
X11824576Y-12216176D02*
X11843624Y-12216176D01*
X11862671Y-12225700D01*
X11872195Y-12235224D01*
X11881719Y-12254271D01*
X11891243Y-12292367D01*
X11891243Y-12339986D01*
X11881719Y-12378081D01*
X11872195Y-12397128D01*
X11862671Y-12406652D01*
X11843624Y-12416176D01*
X11824576Y-12416176D01*
X11805528Y-12406652D01*
X11796005Y-12397128D01*
X11786481Y-12378081D01*
X11776957Y-12339986D01*
X11776957Y-12292367D01*
X11786481Y-12254271D01*
X11796005Y-12235224D01*
X11805528Y-12225700D01*
X11824576Y-12216176D01*
X11976957Y-12397128D02*
X11986481Y-12406652D01*
X11976957Y-12416176D01*
X11967433Y-12406652D01*
X11976957Y-12397128D01*
X11976957Y-12416176D01*
X12110290Y-12216176D02*
X12129338Y-12216176D01*
X12148386Y-12225700D01*
X12157909Y-12235224D01*
X12167433Y-12254271D01*
X12176957Y-12292367D01*
X12176957Y-12339986D01*
X12167433Y-12378081D01*
X12157909Y-12397128D01*
X12148386Y-12406652D01*
X12129338Y-12416176D01*
X12110290Y-12416176D01*
X12091243Y-12406652D01*
X12081719Y-12397128D01*
X12072195Y-12378081D01*
X12062671Y-12339986D01*
X12062671Y-12292367D01*
X12072195Y-12254271D01*
X12081719Y-12235224D01*
X12091243Y-12225700D01*
X12110290Y-12216176D01*
X12357909Y-12216176D02*
X12262671Y-12216176D01*
X12253148Y-12311414D01*
X12262671Y-12301890D01*
X12281719Y-12292367D01*
X12329338Y-12292367D01*
X12348386Y-12301890D01*
X12357909Y-12311414D01*
X12367433Y-12330462D01*
X12367433Y-12378081D01*
X12357909Y-12397128D01*
X12348386Y-12406652D01*
X12329338Y-12416176D01*
X12281719Y-12416176D01*
X12262671Y-12406652D01*
X12253148Y-12397128D01*
X12557909Y-12416176D02*
X12443624Y-12416176D01*
X12500767Y-12416176D02*
X12500767Y-12216176D01*
X12481719Y-12244748D01*
X12462671Y-12263795D01*
X12443624Y-12273319D01*
X12634100Y-12235224D02*
X12643624Y-12225700D01*
X12662671Y-12216176D01*
X12710290Y-12216176D01*
X12729338Y-12225700D01*
X12738862Y-12235224D01*
X12748386Y-12254271D01*
X12748386Y-12273319D01*
X12738862Y-12301890D01*
X12624576Y-12416176D01*
X12748386Y-12416176D01*
X12824576Y-12216176D02*
X12824576Y-12254271D01*
X12900767Y-12216176D02*
X12900767Y-12254271D01*
X13196005Y-12492367D02*
X13186481Y-12482843D01*
X13167433Y-12454271D01*
X13157909Y-12435224D01*
X13148386Y-12406652D01*
X13138862Y-12359033D01*
X13138862Y-12320938D01*
X13148386Y-12273319D01*
X13157909Y-12244748D01*
X13167433Y-12225700D01*
X13186481Y-12197128D01*
X13196005Y-12187605D01*
X13300767Y-12301890D02*
X13281719Y-12292367D01*
X13272195Y-12282843D01*
X13262671Y-12263795D01*
X13262671Y-12254271D01*
X13272195Y-12235224D01*
X13281719Y-12225700D01*
X13300767Y-12216176D01*
X13338862Y-12216176D01*
X13357909Y-12225700D01*
X13367433Y-12235224D01*
X13376957Y-12254271D01*
X13376957Y-12263795D01*
X13367433Y-12282843D01*
X13357909Y-12292367D01*
X13338862Y-12301890D01*
X13300767Y-12301890D01*
X13281719Y-12311414D01*
X13272195Y-12320938D01*
X13262671Y-12339986D01*
X13262671Y-12378081D01*
X13272195Y-12397128D01*
X13281719Y-12406652D01*
X13300767Y-12416176D01*
X13338862Y-12416176D01*
X13357909Y-12406652D01*
X13367433Y-12397128D01*
X13376957Y-12378081D01*
X13376957Y-12339986D01*
X13367433Y-12320938D01*
X13357909Y-12311414D01*
X13338862Y-12301890D01*
X13615052Y-12416176D02*
X13615052Y-12216176D01*
X13700767Y-12416176D02*
X13700767Y-12311414D01*
X13691243Y-12292367D01*
X13672195Y-12282843D01*
X13643624Y-12282843D01*
X13624576Y-12292367D01*
X13615052Y-12301890D01*
X13824576Y-12416176D02*
X13805528Y-12406652D01*
X13796005Y-12397128D01*
X13786481Y-12378081D01*
X13786481Y-12320938D01*
X13796005Y-12301890D01*
X13805528Y-12292367D01*
X13824576Y-12282843D01*
X13853148Y-12282843D01*
X13872195Y-12292367D01*
X13881719Y-12301890D01*
X13891243Y-12320938D01*
X13891243Y-12378081D01*
X13881719Y-12397128D01*
X13872195Y-12406652D01*
X13853148Y-12416176D01*
X13824576Y-12416176D01*
X14005528Y-12416176D02*
X13986481Y-12406652D01*
X13976957Y-12387605D01*
X13976957Y-12216176D01*
X14157909Y-12406652D02*
X14138862Y-12416176D01*
X14100767Y-12416176D01*
X14081719Y-12406652D01*
X14072195Y-12387605D01*
X14072195Y-12311414D01*
X14081719Y-12292367D01*
X14100767Y-12282843D01*
X14138862Y-12282843D01*
X14157909Y-12292367D01*
X14167433Y-12311414D01*
X14167433Y-12330462D01*
X14072195Y-12349509D01*
X14243624Y-12406652D02*
X14262671Y-12416176D01*
X14300767Y-12416176D01*
X14319814Y-12406652D01*
X14329338Y-12387605D01*
X14329338Y-12378081D01*
X14319814Y-12359033D01*
X14300767Y-12349509D01*
X14272195Y-12349509D01*
X14253148Y-12339986D01*
X14243624Y-12320938D01*
X14243624Y-12311414D01*
X14253148Y-12292367D01*
X14272195Y-12282843D01*
X14300767Y-12282843D01*
X14319814Y-12292367D01*
X14396005Y-12492367D02*
X14405528Y-12482843D01*
X14424576Y-12454271D01*
X14434100Y-12435224D01*
X14443624Y-12406652D01*
X14453148Y-12359033D01*
X14453148Y-12320938D01*
X14443624Y-12273319D01*
X14434100Y-12244748D01*
X14424576Y-12225700D01*
X14405528Y-12197128D01*
X14396005Y-12187605D01*
D18*
X9489100Y-12522200D02*
X9624100Y-12657200D01*
X9624100Y-12522200D02*
X9489100Y-12657200D01*
X9556600Y-12522200D02*
X9556600Y-12657200D01*
X9489100Y-12589700D02*
X9624100Y-12589700D01*
D11*
X9986481Y-12680176D02*
X9872195Y-12680176D01*
X9929338Y-12680176D02*
X9929338Y-12480176D01*
X9910290Y-12508748D01*
X9891243Y-12527795D01*
X9872195Y-12537319D01*
X10072195Y-12661128D02*
X10081719Y-12670652D01*
X10072195Y-12680176D01*
X10062671Y-12670652D01*
X10072195Y-12661128D01*
X10072195Y-12680176D01*
X10148386Y-12480176D02*
X10272195Y-12480176D01*
X10205529Y-12556367D01*
X10234100Y-12556367D01*
X10253148Y-12565890D01*
X10262671Y-12575414D01*
X10272195Y-12594462D01*
X10272195Y-12642081D01*
X10262671Y-12661128D01*
X10253148Y-12670652D01*
X10234100Y-12680176D01*
X10176957Y-12680176D01*
X10157910Y-12670652D01*
X10148386Y-12661128D01*
X10453148Y-12480176D02*
X10357910Y-12480176D01*
X10348386Y-12575414D01*
X10357910Y-12565890D01*
X10376957Y-12556367D01*
X10424576Y-12556367D01*
X10443624Y-12565890D01*
X10453148Y-12575414D01*
X10462671Y-12594462D01*
X10462671Y-12642081D01*
X10453148Y-12661128D01*
X10443624Y-12670652D01*
X10424576Y-12680176D01*
X10376957Y-12680176D01*
X10357910Y-12670652D01*
X10348386Y-12661128D01*
X10586481Y-12480176D02*
X10605529Y-12480176D01*
X10624576Y-12489700D01*
X10634100Y-12499224D01*
X10643624Y-12518271D01*
X10653148Y-12556367D01*
X10653148Y-12603986D01*
X10643624Y-12642081D01*
X10634100Y-12661128D01*
X10624576Y-12670652D01*
X10605529Y-12680176D01*
X10586481Y-12680176D01*
X10567433Y-12670652D01*
X10557910Y-12661128D01*
X10548386Y-12642081D01*
X10538862Y-12603986D01*
X10538862Y-12556367D01*
X10548386Y-12518271D01*
X10557910Y-12499224D01*
X10567433Y-12489700D01*
X10586481Y-12480176D01*
X10738862Y-12680176D02*
X10738862Y-12546843D01*
X10738862Y-12565890D02*
X10748386Y-12556367D01*
X10767433Y-12546843D01*
X10796005Y-12546843D01*
X10815052Y-12556367D01*
X10824576Y-12575414D01*
X10824576Y-12680176D01*
X10824576Y-12575414D02*
X10834100Y-12556367D01*
X10853148Y-12546843D01*
X10881719Y-12546843D01*
X10900767Y-12556367D01*
X10910290Y-12575414D01*
X10910290Y-12680176D01*
X11005529Y-12680176D02*
X11005529Y-12546843D01*
X11005529Y-12565890D02*
X11015052Y-12556367D01*
X11034100Y-12546843D01*
X11062671Y-12546843D01*
X11081719Y-12556367D01*
X11091243Y-12575414D01*
X11091243Y-12680176D01*
X11091243Y-12575414D02*
X11100767Y-12556367D01*
X11119814Y-12546843D01*
X11148386Y-12546843D01*
X11167433Y-12556367D01*
X11176957Y-12575414D01*
X11176957Y-12680176D01*
X11567433Y-12470652D02*
X11396005Y-12727795D01*
X11824576Y-12480176D02*
X11843624Y-12480176D01*
X11862671Y-12489700D01*
X11872195Y-12499224D01*
X11881719Y-12518271D01*
X11891243Y-12556367D01*
X11891243Y-12603986D01*
X11881719Y-12642081D01*
X11872195Y-12661128D01*
X11862671Y-12670652D01*
X11843624Y-12680176D01*
X11824576Y-12680176D01*
X11805528Y-12670652D01*
X11796005Y-12661128D01*
X11786481Y-12642081D01*
X11776957Y-12603986D01*
X11776957Y-12556367D01*
X11786481Y-12518271D01*
X11796005Y-12499224D01*
X11805528Y-12489700D01*
X11824576Y-12480176D01*
X11976957Y-12661128D02*
X11986481Y-12670652D01*
X11976957Y-12680176D01*
X11967433Y-12670652D01*
X11976957Y-12661128D01*
X11976957Y-12680176D01*
X12110290Y-12480176D02*
X12129338Y-12480176D01*
X12148386Y-12489700D01*
X12157909Y-12499224D01*
X12167433Y-12518271D01*
X12176957Y-12556367D01*
X12176957Y-12603986D01*
X12167433Y-12642081D01*
X12157909Y-12661128D01*
X12148386Y-12670652D01*
X12129338Y-12680176D01*
X12110290Y-12680176D01*
X12091243Y-12670652D01*
X12081719Y-12661128D01*
X12072195Y-12642081D01*
X12062671Y-12603986D01*
X12062671Y-12556367D01*
X12072195Y-12518271D01*
X12081719Y-12499224D01*
X12091243Y-12489700D01*
X12110290Y-12480176D01*
X12357909Y-12480176D02*
X12262671Y-12480176D01*
X12253148Y-12575414D01*
X12262671Y-12565890D01*
X12281719Y-12556367D01*
X12329338Y-12556367D01*
X12348386Y-12565890D01*
X12357909Y-12575414D01*
X12367433Y-12594462D01*
X12367433Y-12642081D01*
X12357909Y-12661128D01*
X12348386Y-12670652D01*
X12329338Y-12680176D01*
X12281719Y-12680176D01*
X12262671Y-12670652D01*
X12253148Y-12661128D01*
X12434100Y-12480176D02*
X12557909Y-12480176D01*
X12491243Y-12556367D01*
X12519814Y-12556367D01*
X12538862Y-12565890D01*
X12548386Y-12575414D01*
X12557909Y-12594462D01*
X12557909Y-12642081D01*
X12548386Y-12661128D01*
X12538862Y-12670652D01*
X12519814Y-12680176D01*
X12462671Y-12680176D01*
X12443624Y-12670652D01*
X12434100Y-12661128D01*
X12748386Y-12680176D02*
X12634100Y-12680176D01*
X12691243Y-12680176D02*
X12691243Y-12480176D01*
X12672195Y-12508748D01*
X12653148Y-12527795D01*
X12634100Y-12537319D01*
X12824576Y-12480176D02*
X12824576Y-12518271D01*
X12900767Y-12480176D02*
X12900767Y-12518271D01*
X13196005Y-12756367D02*
X13186481Y-12746843D01*
X13167433Y-12718271D01*
X13157909Y-12699224D01*
X13148386Y-12670652D01*
X13138862Y-12623033D01*
X13138862Y-12584938D01*
X13148386Y-12537319D01*
X13157909Y-12508748D01*
X13167433Y-12489700D01*
X13186481Y-12461128D01*
X13196005Y-12451605D01*
X13357909Y-12546843D02*
X13357909Y-12680176D01*
X13310290Y-12470652D02*
X13262671Y-12613509D01*
X13386481Y-12613509D01*
X13615052Y-12680176D02*
X13615052Y-12480176D01*
X13700767Y-12680176D02*
X13700767Y-12575414D01*
X13691243Y-12556367D01*
X13672195Y-12546843D01*
X13643624Y-12546843D01*
X13624576Y-12556367D01*
X13615052Y-12565890D01*
X13824576Y-12680176D02*
X13805528Y-12670652D01*
X13796005Y-12661128D01*
X13786481Y-12642081D01*
X13786481Y-12584938D01*
X13796005Y-12565890D01*
X13805528Y-12556367D01*
X13824576Y-12546843D01*
X13853148Y-12546843D01*
X13872195Y-12556367D01*
X13881719Y-12565890D01*
X13891243Y-12584938D01*
X13891243Y-12642081D01*
X13881719Y-12661128D01*
X13872195Y-12670652D01*
X13853148Y-12680176D01*
X13824576Y-12680176D01*
X14005528Y-12680176D02*
X13986481Y-12670652D01*
X13976957Y-12651605D01*
X13976957Y-12480176D01*
X14157909Y-12670652D02*
X14138862Y-12680176D01*
X14100767Y-12680176D01*
X14081719Y-12670652D01*
X14072195Y-12651605D01*
X14072195Y-12575414D01*
X14081719Y-12556367D01*
X14100767Y-12546843D01*
X14138862Y-12546843D01*
X14157909Y-12556367D01*
X14167433Y-12575414D01*
X14167433Y-12594462D01*
X14072195Y-12613509D01*
X14243624Y-12670652D02*
X14262671Y-12680176D01*
X14300767Y-12680176D01*
X14319814Y-12670652D01*
X14329338Y-12651605D01*
X14329338Y-12642081D01*
X14319814Y-12623033D01*
X14300767Y-12613509D01*
X14272195Y-12613509D01*
X14253148Y-12603986D01*
X14243624Y-12584938D01*
X14243624Y-12575414D01*
X14253148Y-12556367D01*
X14272195Y-12546843D01*
X14300767Y-12546843D01*
X14319814Y-12556367D01*
X14396005Y-12756367D02*
X14405528Y-12746843D01*
X14424576Y-12718271D01*
X14434100Y-12699224D01*
X14443624Y-12670652D01*
X14453148Y-12623033D01*
X14453148Y-12584938D01*
X14443624Y-12537319D01*
X14434100Y-12508748D01*
X14424576Y-12489700D01*
X14405528Y-12461128D01*
X14396005Y-12451605D01*
X9424100Y-12753700D02*
X9624100Y-12953700D01*
X9624100Y-12753700D02*
X9424100Y-12953700D01*
X9594811Y-12924411D02*
X9594811Y-12782989D01*
X9453389Y-12782989D01*
X9453389Y-12924411D01*
X9594811Y-12924411D01*
X9872195Y-12763224D02*
X9881719Y-12753700D01*
X9900767Y-12744176D01*
X9948386Y-12744176D01*
X9967433Y-12753700D01*
X9976957Y-12763224D01*
X9986481Y-12782271D01*
X9986481Y-12801319D01*
X9976957Y-12829890D01*
X9862671Y-12944176D01*
X9986481Y-12944176D01*
X10072195Y-12925128D02*
X10081719Y-12934652D01*
X10072195Y-12944176D01*
X10062671Y-12934652D01*
X10072195Y-12925128D01*
X10072195Y-12944176D01*
X10157910Y-12763224D02*
X10167433Y-12753700D01*
X10186481Y-12744176D01*
X10234100Y-12744176D01*
X10253148Y-12753700D01*
X10262671Y-12763224D01*
X10272195Y-12782271D01*
X10272195Y-12801319D01*
X10262671Y-12829890D01*
X10148386Y-12944176D01*
X10272195Y-12944176D01*
X10396005Y-12744176D02*
X10415052Y-12744176D01*
X10434100Y-12753700D01*
X10443624Y-12763224D01*
X10453148Y-12782271D01*
X10462671Y-12820367D01*
X10462671Y-12867986D01*
X10453148Y-12906081D01*
X10443624Y-12925128D01*
X10434100Y-12934652D01*
X10415052Y-12944176D01*
X10396005Y-12944176D01*
X10376957Y-12934652D01*
X10367433Y-12925128D01*
X10357910Y-12906081D01*
X10348386Y-12867986D01*
X10348386Y-12820367D01*
X10357910Y-12782271D01*
X10367433Y-12763224D01*
X10376957Y-12753700D01*
X10396005Y-12744176D01*
X10586481Y-12744176D02*
X10605529Y-12744176D01*
X10624576Y-12753700D01*
X10634100Y-12763224D01*
X10643624Y-12782271D01*
X10653148Y-12820367D01*
X10653148Y-12867986D01*
X10643624Y-12906081D01*
X10634100Y-12925128D01*
X10624576Y-12934652D01*
X10605529Y-12944176D01*
X10586481Y-12944176D01*
X10567433Y-12934652D01*
X10557910Y-12925128D01*
X10548386Y-12906081D01*
X10538862Y-12867986D01*
X10538862Y-12820367D01*
X10548386Y-12782271D01*
X10557910Y-12763224D01*
X10567433Y-12753700D01*
X10586481Y-12744176D01*
X10738862Y-12944176D02*
X10738862Y-12810843D01*
X10738862Y-12829890D02*
X10748386Y-12820367D01*
X10767433Y-12810843D01*
X10796005Y-12810843D01*
X10815052Y-12820367D01*
X10824576Y-12839414D01*
X10824576Y-12944176D01*
X10824576Y-12839414D02*
X10834100Y-12820367D01*
X10853148Y-12810843D01*
X10881719Y-12810843D01*
X10900767Y-12820367D01*
X10910290Y-12839414D01*
X10910290Y-12944176D01*
X11005529Y-12944176D02*
X11005529Y-12810843D01*
X11005529Y-12829890D02*
X11015052Y-12820367D01*
X11034100Y-12810843D01*
X11062671Y-12810843D01*
X11081719Y-12820367D01*
X11091243Y-12839414D01*
X11091243Y-12944176D01*
X11091243Y-12839414D02*
X11100767Y-12820367D01*
X11119814Y-12810843D01*
X11148386Y-12810843D01*
X11167433Y-12820367D01*
X11176957Y-12839414D01*
X11176957Y-12944176D01*
X11567433Y-12734652D02*
X11396005Y-12991795D01*
X11824576Y-12744176D02*
X11843624Y-12744176D01*
X11862671Y-12753700D01*
X11872195Y-12763224D01*
X11881719Y-12782271D01*
X11891243Y-12820367D01*
X11891243Y-12867986D01*
X11881719Y-12906081D01*
X11872195Y-12925128D01*
X11862671Y-12934652D01*
X11843624Y-12944176D01*
X11824576Y-12944176D01*
X11805528Y-12934652D01*
X11796005Y-12925128D01*
X11786481Y-12906081D01*
X11776957Y-12867986D01*
X11776957Y-12820367D01*
X11786481Y-12782271D01*
X11796005Y-12763224D01*
X11805528Y-12753700D01*
X11824576Y-12744176D01*
X11976957Y-12925128D02*
X11986481Y-12934652D01*
X11976957Y-12944176D01*
X11967433Y-12934652D01*
X11976957Y-12925128D01*
X11976957Y-12944176D01*
X12110290Y-12744176D02*
X12129338Y-12744176D01*
X12148386Y-12753700D01*
X12157909Y-12763224D01*
X12167433Y-12782271D01*
X12176957Y-12820367D01*
X12176957Y-12867986D01*
X12167433Y-12906081D01*
X12157909Y-12925128D01*
X12148386Y-12934652D01*
X12129338Y-12944176D01*
X12110290Y-12944176D01*
X12091243Y-12934652D01*
X12081719Y-12925128D01*
X12072195Y-12906081D01*
X12062671Y-12867986D01*
X12062671Y-12820367D01*
X12072195Y-12782271D01*
X12081719Y-12763224D01*
X12091243Y-12753700D01*
X12110290Y-12744176D01*
X12291243Y-12829890D02*
X12272195Y-12820367D01*
X12262671Y-12810843D01*
X12253148Y-12791795D01*
X12253148Y-12782271D01*
X12262671Y-12763224D01*
X12272195Y-12753700D01*
X12291243Y-12744176D01*
X12329338Y-12744176D01*
X12348386Y-12753700D01*
X12357909Y-12763224D01*
X12367433Y-12782271D01*
X12367433Y-12791795D01*
X12357909Y-12810843D01*
X12348386Y-12820367D01*
X12329338Y-12829890D01*
X12291243Y-12829890D01*
X12272195Y-12839414D01*
X12262671Y-12848938D01*
X12253148Y-12867986D01*
X12253148Y-12906081D01*
X12262671Y-12925128D01*
X12272195Y-12934652D01*
X12291243Y-12944176D01*
X12329338Y-12944176D01*
X12348386Y-12934652D01*
X12357909Y-12925128D01*
X12367433Y-12906081D01*
X12367433Y-12867986D01*
X12357909Y-12848938D01*
X12348386Y-12839414D01*
X12329338Y-12829890D01*
X12538862Y-12744176D02*
X12500767Y-12744176D01*
X12481719Y-12753700D01*
X12472195Y-12763224D01*
X12453148Y-12791795D01*
X12443624Y-12829890D01*
X12443624Y-12906081D01*
X12453148Y-12925128D01*
X12462671Y-12934652D01*
X12481719Y-12944176D01*
X12519814Y-12944176D01*
X12538862Y-12934652D01*
X12548386Y-12925128D01*
X12557909Y-12906081D01*
X12557909Y-12858462D01*
X12548386Y-12839414D01*
X12538862Y-12829890D01*
X12519814Y-12820367D01*
X12481719Y-12820367D01*
X12462671Y-12829890D01*
X12453148Y-12839414D01*
X12443624Y-12858462D01*
X12729338Y-12744176D02*
X12691243Y-12744176D01*
X12672195Y-12753700D01*
X12662671Y-12763224D01*
X12643624Y-12791795D01*
X12634100Y-12829890D01*
X12634100Y-12906081D01*
X12643624Y-12925128D01*
X12653148Y-12934652D01*
X12672195Y-12944176D01*
X12710290Y-12944176D01*
X12729338Y-12934652D01*
X12738862Y-12925128D01*
X12748386Y-12906081D01*
X12748386Y-12858462D01*
X12738862Y-12839414D01*
X12729338Y-12829890D01*
X12710290Y-12820367D01*
X12672195Y-12820367D01*
X12653148Y-12829890D01*
X12643624Y-12839414D01*
X12634100Y-12858462D01*
X12824576Y-12744176D02*
X12824576Y-12782271D01*
X12900767Y-12744176D02*
X12900767Y-12782271D01*
X13196005Y-13020367D02*
X13186481Y-13010843D01*
X13167433Y-12982271D01*
X13157909Y-12963224D01*
X13148386Y-12934652D01*
X13138862Y-12887033D01*
X13138862Y-12848938D01*
X13148386Y-12801319D01*
X13157909Y-12772748D01*
X13167433Y-12753700D01*
X13186481Y-12725128D01*
X13196005Y-12715605D01*
X13367433Y-12744176D02*
X13272195Y-12744176D01*
X13262671Y-12839414D01*
X13272195Y-12829890D01*
X13291243Y-12820367D01*
X13338862Y-12820367D01*
X13357909Y-12829890D01*
X13367433Y-12839414D01*
X13376957Y-12858462D01*
X13376957Y-12906081D01*
X13367433Y-12925128D01*
X13357909Y-12934652D01*
X13338862Y-12944176D01*
X13291243Y-12944176D01*
X13272195Y-12934652D01*
X13262671Y-12925128D01*
X13615052Y-12944176D02*
X13615052Y-12744176D01*
X13700767Y-12944176D02*
X13700767Y-12839414D01*
X13691243Y-12820367D01*
X13672195Y-12810843D01*
X13643624Y-12810843D01*
X13624576Y-12820367D01*
X13615052Y-12829890D01*
X13824576Y-12944176D02*
X13805528Y-12934652D01*
X13796005Y-12925128D01*
X13786481Y-12906081D01*
X13786481Y-12848938D01*
X13796005Y-12829890D01*
X13805528Y-12820367D01*
X13824576Y-12810843D01*
X13853148Y-12810843D01*
X13872195Y-12820367D01*
X13881719Y-12829890D01*
X13891243Y-12848938D01*
X13891243Y-12906081D01*
X13881719Y-12925128D01*
X13872195Y-12934652D01*
X13853148Y-12944176D01*
X13824576Y-12944176D01*
X14005528Y-12944176D02*
X13986481Y-12934652D01*
X13976957Y-12915605D01*
X13976957Y-12744176D01*
X14157909Y-12934652D02*
X14138862Y-12944176D01*
X14100767Y-12944176D01*
X14081719Y-12934652D01*
X14072195Y-12915605D01*
X14072195Y-12839414D01*
X14081719Y-12820367D01*
X14100767Y-12810843D01*
X14138862Y-12810843D01*
X14157909Y-12820367D01*
X14167433Y-12839414D01*
X14167433Y-12858462D01*
X14072195Y-12877509D01*
X14243624Y-12934652D02*
X14262671Y-12944176D01*
X14300767Y-12944176D01*
X14319814Y-12934652D01*
X14329338Y-12915605D01*
X14329338Y-12906081D01*
X14319814Y-12887033D01*
X14300767Y-12877509D01*
X14272195Y-12877509D01*
X14253148Y-12867986D01*
X14243624Y-12848938D01*
X14243624Y-12839414D01*
X14253148Y-12820367D01*
X14272195Y-12810843D01*
X14300767Y-12810843D01*
X14319814Y-12820367D01*
X14396005Y-13020367D02*
X14405528Y-13010843D01*
X14424576Y-12982271D01*
X14434100Y-12963224D01*
X14443624Y-12934652D01*
X14453148Y-12887033D01*
X14453148Y-12848938D01*
X14443624Y-12801319D01*
X14434100Y-12772748D01*
X14424576Y-12753700D01*
X14405528Y-12725128D01*
X14396005Y-12715605D01*
M02*
