M48
; DRILL file {KiCad (6.0.9-0)} date Wednesday, February 01, 2023 at 02:55:18 PM
; FORMAT={-:-/ absolute / metric / decimal}
; #@! TF.CreationDate,2023-02-01T14:55:18-05:00
; #@! TF.GenerationSoftware,Kicad,Pcbnew,(6.0.9-0)
; #@! TF.FileFunction,Plated,1,2,PTH
FMAT,2
METRIC
; #@! TA.AperFunction,Plated,PTH,ViaDrill
T1C0.300
; #@! TA.AperFunction,Plated,PTH,ComponentDrill
T2C0.400
; #@! TA.AperFunction,Plated,PTH,ComponentDrill
T3C0.600
; #@! TA.AperFunction,Plated,PTH,ComponentDrill
T4C1.000
; #@! TA.AperFunction,Plated,PTH,ComponentDrill
T5C1.170
; #@! TA.AperFunction,Plated,PTH,ComponentDrill
T6C1.300
; #@! TA.AperFunction,Plated,PTH,ComponentDrill
T7C1.350
; #@! TA.AperFunction,Plated,PTH,ComponentDrill
T8C2.200
%
G90
G05
T1
X100.584Y-82.296
X109.728Y-93.472
X109.728Y-94.996
X111.252Y-88.646
X111.252Y-89.408
X112.014Y-88.646
X112.014Y-89.408
X112.776Y-88.646
X112.776Y-89.408
X114.554Y-77.216
X115.316Y-102.108
X116.586Y-102.108
X116.84Y-84.582
X119.38Y-84.582
X119.38Y-91.948
X119.38Y-92.71
X119.38Y-94.234
X119.38Y-95.504
X120.142Y-84.582
X120.65Y-98.806
X121.666Y-98.806
X121.92Y-84.582
X122.682Y-84.582
X124.206Y-87.884
X124.206Y-92.456
X124.206Y-93.472
X124.968Y-87.884
X124.968Y-92.456
X124.968Y-93.472
X125.222Y-84.582
X129.286Y-84.328
X129.794Y-97.282
X129.794Y-98.552
X130.048Y-84.328
X130.556Y-97.282
X130.556Y-98.552
X132.334Y-84.797
X133.604Y-94.234
X134.874Y-94.234
X134.874Y-95.504
X134.874Y-97.282
X137.922Y-77.47
X137.922Y-78.232
X138.176Y-87.884
X138.684Y-84.328
X139.192Y-87.884
X139.446Y-84.328
X139.446Y-91.694
X139.446Y-100.076
X140.716Y-95.758
X141.478Y-84.328
X141.986Y-95.758
X142.24Y-84.328
X143.256Y-95.758
X144.272Y-83.312
X145.034Y-83.312
X145.034Y-97.536
T2
X105.483Y-79.129
X105.483Y-80.479
X106.333Y-79.129
X106.333Y-80.479
X107.183Y-79.129
X107.183Y-80.479
X108.033Y-79.129
X108.033Y-80.479
X108.883Y-79.129
X108.883Y-80.479
X109.733Y-79.129
X109.733Y-80.479
X110.583Y-79.129
X110.583Y-80.479
X111.433Y-79.129
X111.433Y-80.479
X119.204Y-79.129
X119.204Y-80.479
X120.054Y-79.129
X120.054Y-80.479
X120.904Y-79.129
X120.904Y-80.479
X121.754Y-79.129
X121.754Y-80.479
X122.604Y-79.129
X122.604Y-80.479
X123.454Y-79.129
X123.454Y-80.479
X124.304Y-79.129
X124.304Y-80.479
X125.154Y-79.129
X125.154Y-80.479
T4
X115.57Y-90.17
X131.064Y-90.424
X137.16Y-96.012
X148.082Y-89.916
X148.082Y-101.854
T5
X100.076Y-88.9
T6
X156.982Y-76.454
X156.982Y-86.614
X156.982Y-91.44
X156.982Y-101.6
X167.142Y-76.454
X167.142Y-86.614
X167.142Y-91.44
X167.142Y-101.6
T7
X97.536Y-85.2
X97.536Y-92.6
X102.616Y-85.2
X102.616Y-92.6
T8
X100.584Y-78.74
X100.584Y-99.314
X160.782Y-81.534
X160.782Y-96.52
X162.306Y-89.154
T3
X104.133Y-76.519G85X104.133Y-75.719
G05
X104.133Y-80.249G85X104.133Y-78.749
G05
X112.783Y-76.519G85X112.783Y-75.719
G05
X112.783Y-80.249G85X112.783Y-78.749
G05
X117.854Y-76.519G85X117.854Y-75.719
G05
X117.854Y-80.249G85X117.854Y-78.749
G05
X126.504Y-76.519G85X126.504Y-75.719
G05
X126.504Y-80.249G85X126.504Y-78.749
G05
T0
M30
