G04 #@! TF.GenerationSoftware,KiCad,Pcbnew,(6.0.9-0)*
G04 #@! TF.CreationDate,2023-02-01T14:54:16-05:00*
G04 #@! TF.ProjectId,beach_bod_02,62656163-685f-4626-9f64-5f30322e6b69,rev?*
G04 #@! TF.SameCoordinates,Original*
G04 #@! TF.FileFunction,Legend,Bot*
G04 #@! TF.FilePolarity,Positive*
%FSLAX46Y46*%
G04 Gerber Fmt 4.6, Leading zero omitted, Abs format (unit mm)*
G04 Created by KiCad (PCBNEW (6.0.9-0)) date 2023-02-01 14:54:16*
%MOMM*%
%LPD*%
G01*
G04 APERTURE LIST*
%ADD10C,0.150000*%
%ADD11C,0.100000*%
%ADD12C,3.200000*%
%ADD13C,2.300000*%
%ADD14C,4.400000*%
%ADD15C,1.755000*%
%ADD16C,2.025000*%
%ADD17R,1.700000X1.700000*%
%ADD18C,0.650000*%
%ADD19O,1.108000X2.216000*%
G04 APERTURE END LIST*
D10*
X172680380Y-91646952D02*
X173394666Y-91646952D01*
X173537523Y-91599333D01*
X173632761Y-91504095D01*
X173680380Y-91361238D01*
X173680380Y-91266000D01*
X173680380Y-92599333D02*
X173680380Y-92123142D01*
X172680380Y-92123142D01*
X173585142Y-93504095D02*
X173632761Y-93456476D01*
X173680380Y-93313619D01*
X173680380Y-93218380D01*
X173632761Y-93075523D01*
X173537523Y-92980285D01*
X173442285Y-92932666D01*
X173251809Y-92885047D01*
X173108952Y-92885047D01*
X172918476Y-92932666D01*
X172823238Y-92980285D01*
X172728000Y-93075523D01*
X172680380Y-93218380D01*
X172680380Y-93313619D01*
X172728000Y-93456476D01*
X172775619Y-93504095D01*
X172680380Y-94218380D02*
X173394666Y-94218380D01*
X173537523Y-94170761D01*
X173632761Y-94075523D01*
X173680380Y-93932666D01*
X173680380Y-93837428D01*
X173680380Y-95170761D02*
X173680380Y-94694571D01*
X172680380Y-94694571D01*
X173585142Y-96075523D02*
X173632761Y-96027904D01*
X173680380Y-95885047D01*
X173680380Y-95789809D01*
X173632761Y-95646952D01*
X173537523Y-95551714D01*
X173442285Y-95504095D01*
X173251809Y-95456476D01*
X173108952Y-95456476D01*
X172918476Y-95504095D01*
X172823238Y-95551714D01*
X172728000Y-95646952D01*
X172680380Y-95789809D01*
X172680380Y-95885047D01*
X172728000Y-96027904D01*
X172775619Y-96075523D01*
X172680380Y-96789809D02*
X173394666Y-96789809D01*
X173537523Y-96742190D01*
X173632761Y-96646952D01*
X173680380Y-96504095D01*
X173680380Y-96408857D01*
X173680380Y-97742190D02*
X173680380Y-97266000D01*
X172680380Y-97266000D01*
X173585142Y-98646952D02*
X173632761Y-98599333D01*
X173680380Y-98456476D01*
X173680380Y-98361238D01*
X173632761Y-98218380D01*
X173537523Y-98123142D01*
X173442285Y-98075523D01*
X173251809Y-98027904D01*
X173108952Y-98027904D01*
X172918476Y-98075523D01*
X172823238Y-98123142D01*
X172728000Y-98218380D01*
X172680380Y-98361238D01*
X172680380Y-98456476D01*
X172728000Y-98599333D01*
X172775619Y-98646952D01*
X172680380Y-99361238D02*
X173394666Y-99361238D01*
X173537523Y-99313619D01*
X173632761Y-99218380D01*
X173680380Y-99075523D01*
X173680380Y-98980285D01*
X173680380Y-100313619D02*
X173680380Y-99837428D01*
X172680380Y-99837428D01*
X173585142Y-101218380D02*
X173632761Y-101170761D01*
X173680380Y-101027904D01*
X173680380Y-100932666D01*
X173632761Y-100789809D01*
X173537523Y-100694571D01*
X173442285Y-100646952D01*
X173251809Y-100599333D01*
X173108952Y-100599333D01*
X172918476Y-100646952D01*
X172823238Y-100694571D01*
X172728000Y-100789809D01*
X172680380Y-100932666D01*
X172680380Y-101027904D01*
X172728000Y-101170761D01*
X172775619Y-101218380D01*
D11*
X136549190Y-76023690D02*
X136549190Y-75523690D01*
X136549190Y-75714166D02*
X136501571Y-75690357D01*
X136406333Y-75690357D01*
X136358714Y-75714166D01*
X136334904Y-75737976D01*
X136311095Y-75785595D01*
X136311095Y-75928452D01*
X136334904Y-75976071D01*
X136358714Y-75999880D01*
X136406333Y-76023690D01*
X136501571Y-76023690D01*
X136549190Y-75999880D01*
X135906333Y-75999880D02*
X135953952Y-76023690D01*
X136049190Y-76023690D01*
X136096809Y-75999880D01*
X136120619Y-75952261D01*
X136120619Y-75761785D01*
X136096809Y-75714166D01*
X136049190Y-75690357D01*
X135953952Y-75690357D01*
X135906333Y-75714166D01*
X135882523Y-75761785D01*
X135882523Y-75809404D01*
X136120619Y-75857023D01*
X135453952Y-76023690D02*
X135453952Y-75761785D01*
X135477761Y-75714166D01*
X135525380Y-75690357D01*
X135620619Y-75690357D01*
X135668238Y-75714166D01*
X135453952Y-75999880D02*
X135501571Y-76023690D01*
X135620619Y-76023690D01*
X135668238Y-75999880D01*
X135692047Y-75952261D01*
X135692047Y-75904642D01*
X135668238Y-75857023D01*
X135620619Y-75833214D01*
X135501571Y-75833214D01*
X135453952Y-75809404D01*
X135001571Y-75999880D02*
X135049190Y-76023690D01*
X135144428Y-76023690D01*
X135192047Y-75999880D01*
X135215857Y-75976071D01*
X135239666Y-75928452D01*
X135239666Y-75785595D01*
X135215857Y-75737976D01*
X135192047Y-75714166D01*
X135144428Y-75690357D01*
X135049190Y-75690357D01*
X135001571Y-75714166D01*
X134787285Y-76023690D02*
X134787285Y-75523690D01*
X134573000Y-76023690D02*
X134573000Y-75761785D01*
X134596809Y-75714166D01*
X134644428Y-75690357D01*
X134715857Y-75690357D01*
X134763476Y-75714166D01*
X134787285Y-75737976D01*
X134453952Y-76071309D02*
X134073000Y-76071309D01*
X133953952Y-76023690D02*
X133953952Y-75523690D01*
X133953952Y-75714166D02*
X133906333Y-75690357D01*
X133811095Y-75690357D01*
X133763476Y-75714166D01*
X133739666Y-75737976D01*
X133715857Y-75785595D01*
X133715857Y-75928452D01*
X133739666Y-75976071D01*
X133763476Y-75999880D01*
X133811095Y-76023690D01*
X133906333Y-76023690D01*
X133953952Y-75999880D01*
X133430142Y-76023690D02*
X133477761Y-75999880D01*
X133501571Y-75976071D01*
X133525380Y-75928452D01*
X133525380Y-75785595D01*
X133501571Y-75737976D01*
X133477761Y-75714166D01*
X133430142Y-75690357D01*
X133358714Y-75690357D01*
X133311095Y-75714166D01*
X133287285Y-75737976D01*
X133263476Y-75785595D01*
X133263476Y-75928452D01*
X133287285Y-75976071D01*
X133311095Y-75999880D01*
X133358714Y-76023690D01*
X133430142Y-76023690D01*
X132834904Y-76023690D02*
X132834904Y-75523690D01*
X132834904Y-75999880D02*
X132882523Y-76023690D01*
X132977761Y-76023690D01*
X133025380Y-75999880D01*
X133049190Y-75976071D01*
X133073000Y-75928452D01*
X133073000Y-75785595D01*
X133049190Y-75737976D01*
X133025380Y-75714166D01*
X132977761Y-75690357D01*
X132882523Y-75690357D01*
X132834904Y-75714166D01*
X132715857Y-76071309D02*
X132334904Y-76071309D01*
X132263476Y-75690357D02*
X132144428Y-76023690D01*
X132025380Y-75690357D01*
X131739666Y-75523690D02*
X131692047Y-75523690D01*
X131644428Y-75547500D01*
X131620619Y-75571309D01*
X131596809Y-75618928D01*
X131573000Y-75714166D01*
X131573000Y-75833214D01*
X131596809Y-75928452D01*
X131620619Y-75976071D01*
X131644428Y-75999880D01*
X131692047Y-76023690D01*
X131739666Y-76023690D01*
X131787285Y-75999880D01*
X131811095Y-75976071D01*
X131834904Y-75928452D01*
X131858714Y-75833214D01*
X131858714Y-75714166D01*
X131834904Y-75618928D01*
X131811095Y-75571309D01*
X131787285Y-75547500D01*
X131739666Y-75523690D01*
X131382523Y-75571309D02*
X131358714Y-75547500D01*
X131311095Y-75523690D01*
X131192047Y-75523690D01*
X131144428Y-75547500D01*
X131120619Y-75571309D01*
X131096809Y-75618928D01*
X131096809Y-75666547D01*
X131120619Y-75737976D01*
X131406333Y-76023690D01*
X131096809Y-76023690D01*
X130501571Y-75690357D02*
X130501571Y-76118928D01*
X130525380Y-76166547D01*
X130573000Y-76190357D01*
X130596809Y-76190357D01*
X130501571Y-75523690D02*
X130525380Y-75547500D01*
X130501571Y-75571309D01*
X130477761Y-75547500D01*
X130501571Y-75523690D01*
X130501571Y-75571309D01*
X130049190Y-76023690D02*
X130049190Y-75761785D01*
X130073000Y-75714166D01*
X130120619Y-75690357D01*
X130215857Y-75690357D01*
X130263476Y-75714166D01*
X130049190Y-75999880D02*
X130096809Y-76023690D01*
X130215857Y-76023690D01*
X130263476Y-75999880D01*
X130287285Y-75952261D01*
X130287285Y-75904642D01*
X130263476Y-75857023D01*
X130215857Y-75833214D01*
X130096809Y-75833214D01*
X130049190Y-75809404D01*
X129811095Y-75690357D02*
X129811095Y-76023690D01*
X129811095Y-75737976D02*
X129787285Y-75714166D01*
X129739666Y-75690357D01*
X129668238Y-75690357D01*
X129620619Y-75714166D01*
X129596809Y-75761785D01*
X129596809Y-76023690D01*
X129382523Y-75571309D02*
X129358714Y-75547500D01*
X129311095Y-75523690D01*
X129192047Y-75523690D01*
X129144428Y-75547500D01*
X129120619Y-75571309D01*
X129096809Y-75618928D01*
X129096809Y-75666547D01*
X129120619Y-75737976D01*
X129406333Y-76023690D01*
X129096809Y-76023690D01*
X128787285Y-75523690D02*
X128739666Y-75523690D01*
X128692047Y-75547500D01*
X128668238Y-75571309D01*
X128644428Y-75618928D01*
X128620619Y-75714166D01*
X128620619Y-75833214D01*
X128644428Y-75928452D01*
X128668238Y-75976071D01*
X128692047Y-75999880D01*
X128739666Y-76023690D01*
X128787285Y-76023690D01*
X128834904Y-75999880D01*
X128858714Y-75976071D01*
X128882523Y-75928452D01*
X128906333Y-75833214D01*
X128906333Y-75714166D01*
X128882523Y-75618928D01*
X128858714Y-75571309D01*
X128834904Y-75547500D01*
X128787285Y-75523690D01*
X128430142Y-75571309D02*
X128406333Y-75547500D01*
X128358714Y-75523690D01*
X128239666Y-75523690D01*
X128192047Y-75547500D01*
X128168238Y-75571309D01*
X128144428Y-75618928D01*
X128144428Y-75666547D01*
X128168238Y-75737976D01*
X128453952Y-76023690D01*
X128144428Y-76023690D01*
X127977761Y-75523690D02*
X127668238Y-75523690D01*
X127834904Y-75714166D01*
X127763476Y-75714166D01*
X127715857Y-75737976D01*
X127692047Y-75761785D01*
X127668238Y-75809404D01*
X127668238Y-75928452D01*
X127692047Y-75976071D01*
X127715857Y-75999880D01*
X127763476Y-76023690D01*
X127906333Y-76023690D01*
X127953952Y-75999880D01*
X127977761Y-75976071D01*
X131192047Y-76304880D02*
X131620619Y-76947738D01*
X130668238Y-76304880D02*
X131096809Y-76947738D01*
X130501571Y-76828690D02*
X130501571Y-76328690D01*
X130453952Y-76638214D02*
X130311095Y-76828690D01*
X130311095Y-76495357D02*
X130501571Y-76685833D01*
X129906333Y-76804880D02*
X129953952Y-76828690D01*
X130049190Y-76828690D01*
X130096809Y-76804880D01*
X130120619Y-76757261D01*
X130120619Y-76566785D01*
X130096809Y-76519166D01*
X130049190Y-76495357D01*
X129953952Y-76495357D01*
X129906333Y-76519166D01*
X129882523Y-76566785D01*
X129882523Y-76614404D01*
X130120619Y-76662023D01*
X129715857Y-76495357D02*
X129596809Y-76828690D01*
X129477761Y-76495357D02*
X129596809Y-76828690D01*
X129644428Y-76947738D01*
X129668238Y-76971547D01*
X129715857Y-76995357D01*
X129073000Y-76495357D02*
X129073000Y-76828690D01*
X129287285Y-76495357D02*
X129287285Y-76757261D01*
X129263476Y-76804880D01*
X129215857Y-76828690D01*
X129144428Y-76828690D01*
X129096809Y-76804880D01*
X129073000Y-76781071D01*
X128620619Y-76828690D02*
X128620619Y-76328690D01*
X128620619Y-76804880D02*
X128668238Y-76828690D01*
X128763476Y-76828690D01*
X128811095Y-76804880D01*
X128834904Y-76781071D01*
X128858714Y-76733452D01*
X128858714Y-76590595D01*
X128834904Y-76542976D01*
X128811095Y-76519166D01*
X128763476Y-76495357D01*
X128668238Y-76495357D01*
X128620619Y-76519166D01*
X128382523Y-76828690D02*
X128382523Y-76495357D01*
X128382523Y-76328690D02*
X128406333Y-76352500D01*
X128382523Y-76376309D01*
X128358714Y-76352500D01*
X128382523Y-76328690D01*
X128382523Y-76376309D01*
X128215857Y-76495357D02*
X128025380Y-76495357D01*
X128144428Y-76328690D02*
X128144428Y-76757261D01*
X128120619Y-76804880D01*
X128073000Y-76828690D01*
X128025380Y-76828690D01*
X127882523Y-76804880D02*
X127834904Y-76828690D01*
X127739666Y-76828690D01*
X127692047Y-76804880D01*
X127668238Y-76757261D01*
X127668238Y-76733452D01*
X127692047Y-76685833D01*
X127739666Y-76662023D01*
X127811095Y-76662023D01*
X127858714Y-76638214D01*
X127882523Y-76590595D01*
X127882523Y-76566785D01*
X127858714Y-76519166D01*
X127811095Y-76495357D01*
X127739666Y-76495357D01*
X127692047Y-76519166D01*
%LPC*%
D12*
X160782000Y-96520000D03*
D13*
X167142000Y-91440000D03*
X156982000Y-91440000D03*
X167142000Y-101600000D03*
X156982000Y-101600000D03*
D12*
X160782000Y-81534000D03*
D13*
X167142000Y-76454000D03*
X156982000Y-86614000D03*
X167142000Y-86614000D03*
X156982000Y-76454000D03*
D14*
X100584000Y-99314000D03*
X162306000Y-89154000D03*
D15*
X100076000Y-88900000D03*
D16*
X97536000Y-92600000D03*
X102616000Y-92600000D03*
X102616000Y-85200000D03*
X97536000Y-85200000D03*
D17*
X137160000Y-96012000D03*
X148082000Y-101854000D03*
X131064000Y-90424000D03*
X115570000Y-90170000D03*
D14*
X100584000Y-78740000D03*
D18*
X125154000Y-80479000D03*
X124304000Y-80479000D03*
X123454000Y-80479000D03*
X122604000Y-80479000D03*
X121754000Y-80479000D03*
X120904000Y-80479000D03*
X120054000Y-80479000D03*
X119204000Y-80479000D03*
X119204000Y-79129000D03*
X120054000Y-79129000D03*
X120904000Y-79129000D03*
X121754000Y-79129000D03*
X122604000Y-79129000D03*
X123454000Y-79129000D03*
X124304000Y-79129000D03*
X125154000Y-79129000D03*
D19*
X126504000Y-79499000D03*
X117854000Y-79499000D03*
X117854000Y-76119000D03*
X126504000Y-76119000D03*
D18*
X111433000Y-80479000D03*
X110583000Y-80479000D03*
X109733000Y-80479000D03*
X108883000Y-80479000D03*
X108033000Y-80479000D03*
X107183000Y-80479000D03*
X106333000Y-80479000D03*
X105483000Y-80479000D03*
X105483000Y-79129000D03*
X106333000Y-79129000D03*
X107183000Y-79129000D03*
X108033000Y-79129000D03*
X108883000Y-79129000D03*
X109733000Y-79129000D03*
X110583000Y-79129000D03*
X111433000Y-79129000D03*
D19*
X112783000Y-79499000D03*
X104133000Y-79499000D03*
X104133000Y-76119000D03*
X112783000Y-76119000D03*
D17*
X148082000Y-89916000D03*
M02*
