G04 #@! TF.GenerationSoftware,KiCad,Pcbnew,(6.0.9-0)*
G04 #@! TF.CreationDate,2023-02-01T14:54:16-05:00*
G04 #@! TF.ProjectId,beach_bod_02,62656163-685f-4626-9f64-5f30322e6b69,rev?*
G04 #@! TF.SameCoordinates,Original*
G04 #@! TF.FileFunction,Copper,L1,Top*
G04 #@! TF.FilePolarity,Positive*
%FSLAX46Y46*%
G04 Gerber Fmt 4.6, Leading zero omitted, Abs format (unit mm)*
G04 Created by KiCad (PCBNEW (6.0.9-0)) date 2023-02-01 14:54:16*
%MOMM*%
%LPD*%
G01*
G04 APERTURE LIST*
G04 Aperture macros list*
%AMRoundRect*
0 Rectangle with rounded corners*
0 $1 Rounding radius*
0 $2 $3 $4 $5 $6 $7 $8 $9 X,Y pos of 4 corners*
0 Add a 4 corners polygon primitive as box body*
4,1,4,$2,$3,$4,$5,$6,$7,$8,$9,$2,$3,0*
0 Add four circle primitives for the rounded corners*
1,1,$1+$1,$2,$3*
1,1,$1+$1,$4,$5*
1,1,$1+$1,$6,$7*
1,1,$1+$1,$8,$9*
0 Add four rect primitives between the rounded corners*
20,1,$1+$1,$2,$3,$4,$5,0*
20,1,$1+$1,$4,$5,$6,$7,0*
20,1,$1+$1,$6,$7,$8,$9,0*
20,1,$1+$1,$8,$9,$2,$3,0*%
G04 Aperture macros list end*
G04 #@! TA.AperFunction,ComponentPad*
%ADD10C,3.200000*%
G04 #@! TD*
G04 #@! TA.AperFunction,ComponentPad*
%ADD11C,2.300000*%
G04 #@! TD*
G04 #@! TA.AperFunction,ComponentPad*
%ADD12C,4.400000*%
G04 #@! TD*
G04 #@! TA.AperFunction,ComponentPad*
%ADD13C,1.755000*%
G04 #@! TD*
G04 #@! TA.AperFunction,ComponentPad*
%ADD14C,2.025000*%
G04 #@! TD*
G04 #@! TA.AperFunction,SMDPad,CuDef*
%ADD15RoundRect,0.250000X0.450000X-0.350000X0.450000X0.350000X-0.450000X0.350000X-0.450000X-0.350000X0*%
G04 #@! TD*
G04 #@! TA.AperFunction,SMDPad,CuDef*
%ADD16R,0.600000X1.150000*%
G04 #@! TD*
G04 #@! TA.AperFunction,SMDPad,CuDef*
%ADD17RoundRect,0.237500X0.300000X0.237500X-0.300000X0.237500X-0.300000X-0.237500X0.300000X-0.237500X0*%
G04 #@! TD*
G04 #@! TA.AperFunction,ComponentPad*
%ADD18R,1.700000X1.700000*%
G04 #@! TD*
G04 #@! TA.AperFunction,SMDPad,CuDef*
%ADD19RoundRect,0.250000X0.350000X0.450000X-0.350000X0.450000X-0.350000X-0.450000X0.350000X-0.450000X0*%
G04 #@! TD*
G04 #@! TA.AperFunction,SMDPad,CuDef*
%ADD20RoundRect,0.237500X0.237500X-0.300000X0.237500X0.300000X-0.237500X0.300000X-0.237500X-0.300000X0*%
G04 #@! TD*
G04 #@! TA.AperFunction,SMDPad,CuDef*
%ADD21RoundRect,0.250000X-0.350000X-0.450000X0.350000X-0.450000X0.350000X0.450000X-0.350000X0.450000X0*%
G04 #@! TD*
G04 #@! TA.AperFunction,SMDPad,CuDef*
%ADD22RoundRect,0.237500X0.250000X0.237500X-0.250000X0.237500X-0.250000X-0.237500X0.250000X-0.237500X0*%
G04 #@! TD*
G04 #@! TA.AperFunction,SMDPad,CuDef*
%ADD23RoundRect,0.237500X-0.250000X-0.237500X0.250000X-0.237500X0.250000X0.237500X-0.250000X0.237500X0*%
G04 #@! TD*
G04 #@! TA.AperFunction,SMDPad,CuDef*
%ADD24RoundRect,0.237500X-0.300000X-0.237500X0.300000X-0.237500X0.300000X0.237500X-0.300000X0.237500X0*%
G04 #@! TD*
G04 #@! TA.AperFunction,SMDPad,CuDef*
%ADD25RoundRect,0.250000X1.100000X-0.412500X1.100000X0.412500X-1.100000X0.412500X-1.100000X-0.412500X0*%
G04 #@! TD*
G04 #@! TA.AperFunction,SMDPad,CuDef*
%ADD26RoundRect,0.250000X-1.100000X0.412500X-1.100000X-0.412500X1.100000X-0.412500X1.100000X0.412500X0*%
G04 #@! TD*
G04 #@! TA.AperFunction,SMDPad,CuDef*
%ADD27RoundRect,0.237500X-0.237500X0.250000X-0.237500X-0.250000X0.237500X-0.250000X0.237500X0.250000X0*%
G04 #@! TD*
G04 #@! TA.AperFunction,SMDPad,CuDef*
%ADD28R,0.450000X1.425000*%
G04 #@! TD*
G04 #@! TA.AperFunction,SMDPad,CuDef*
%ADD29R,1.880000X1.680000*%
G04 #@! TD*
G04 #@! TA.AperFunction,SMDPad,CuDef*
%ADD30R,2.000000X1.300000*%
G04 #@! TD*
G04 #@! TA.AperFunction,SMDPad,CuDef*
%ADD31R,2.000000X2.000000*%
G04 #@! TD*
G04 #@! TA.AperFunction,SMDPad,CuDef*
%ADD32R,2.200000X3.150000*%
G04 #@! TD*
G04 #@! TA.AperFunction,SMDPad,CuDef*
%ADD33R,0.550000X1.050000*%
G04 #@! TD*
G04 #@! TA.AperFunction,ComponentPad*
%ADD34C,0.650000*%
G04 #@! TD*
G04 #@! TA.AperFunction,ComponentPad*
%ADD35O,1.108000X2.216000*%
G04 #@! TD*
G04 #@! TA.AperFunction,SMDPad,CuDef*
%ADD36RoundRect,0.150000X-0.587500X-0.150000X0.587500X-0.150000X0.587500X0.150000X-0.587500X0.150000X0*%
G04 #@! TD*
G04 #@! TA.AperFunction,SMDPad,CuDef*
%ADD37R,0.650000X1.560000*%
G04 #@! TD*
G04 #@! TA.AperFunction,SMDPad,CuDef*
%ADD38RoundRect,0.237500X-0.237500X0.300000X-0.237500X-0.300000X0.237500X-0.300000X0.237500X0.300000X0*%
G04 #@! TD*
G04 #@! TA.AperFunction,ViaPad*
%ADD39C,0.600000*%
G04 #@! TD*
G04 #@! TA.AperFunction,Conductor*
%ADD40C,0.750000*%
G04 #@! TD*
G04 #@! TA.AperFunction,Conductor*
%ADD41C,0.500000*%
G04 #@! TD*
G04 #@! TA.AperFunction,Conductor*
%ADD42C,0.250000*%
G04 #@! TD*
G04 #@! TA.AperFunction,Conductor*
%ADD43C,0.300000*%
G04 #@! TD*
G04 #@! TA.AperFunction,Conductor*
%ADD44C,0.200000*%
G04 #@! TD*
G04 #@! TA.AperFunction,Conductor*
%ADD45C,1.000000*%
G04 #@! TD*
G04 APERTURE END LIST*
D10*
X160782000Y-96520000D03*
D11*
X167142000Y-91440000D03*
X156982000Y-91440000D03*
X167142000Y-101600000D03*
X156982000Y-101600000D03*
D10*
X160782000Y-81534000D03*
D11*
X167142000Y-76454000D03*
X156982000Y-86614000D03*
X167142000Y-86614000D03*
X156982000Y-76454000D03*
D12*
X100584000Y-99314000D03*
X162306000Y-89154000D03*
D13*
X100076000Y-88900000D03*
D14*
X97536000Y-92600000D03*
X102616000Y-92600000D03*
X102616000Y-85200000D03*
X97536000Y-85200000D03*
D15*
X110844500Y-99448000D03*
X110844500Y-97448000D03*
X124968000Y-98044000D03*
X124968000Y-96044000D03*
D16*
X137226000Y-101430000D03*
X139126000Y-101430000D03*
X138176000Y-99230000D03*
D17*
X153472500Y-76200000D03*
X151747500Y-76200000D03*
D18*
X137160000Y-96012000D03*
D19*
X121396000Y-97282000D03*
X119396000Y-97282000D03*
D20*
X115062000Y-100785000D03*
X115062000Y-99060000D03*
X142748000Y-99010000D03*
X142748000Y-97285000D03*
D15*
X135890000Y-86321500D03*
X135890000Y-84321500D03*
D21*
X121190000Y-100838000D03*
X123190000Y-100838000D03*
D22*
X153670000Y-98044000D03*
X151845000Y-98044000D03*
D21*
X126778000Y-90424000D03*
X128778000Y-90424000D03*
D23*
X151694500Y-87122000D03*
X153519500Y-87122000D03*
D17*
X122682000Y-93980000D03*
X120957000Y-93980000D03*
D23*
X147677500Y-99314000D03*
X149502500Y-99314000D03*
D24*
X131879000Y-95504000D03*
X133604000Y-95504000D03*
D18*
X148082000Y-101854000D03*
D23*
X151845000Y-99568000D03*
X153670000Y-99568000D03*
D25*
X112252000Y-86614000D03*
X112252000Y-83489000D03*
D21*
X120174000Y-90170000D03*
X122174000Y-90170000D03*
D24*
X111151500Y-93472000D03*
X112876500Y-93472000D03*
D20*
X112876500Y-99427000D03*
X112876500Y-97702000D03*
D26*
X122682000Y-83235000D03*
X122682000Y-86360000D03*
D21*
X106812500Y-97536000D03*
X108812500Y-97536000D03*
D27*
X114554000Y-78740000D03*
X114554000Y-80565000D03*
D24*
X111151500Y-94996000D03*
X112876500Y-94996000D03*
D17*
X112723000Y-91440000D03*
X110998000Y-91440000D03*
D22*
X153566500Y-101092000D03*
X151741500Y-101092000D03*
D17*
X153516500Y-91694000D03*
X151791500Y-91694000D03*
D18*
X131064000Y-90424000D03*
X115570000Y-90170000D03*
D17*
X153516500Y-94742000D03*
X151791500Y-94742000D03*
D22*
X149502500Y-92456000D03*
X147677500Y-92456000D03*
D25*
X138684000Y-86360000D03*
X138684000Y-83235000D03*
D28*
X126787000Y-98478000D03*
X127437000Y-98478000D03*
X128087000Y-98478000D03*
X128737000Y-98478000D03*
X128737000Y-94054000D03*
X128087000Y-94054000D03*
X127437000Y-94054000D03*
X126787000Y-94054000D03*
D29*
X127762000Y-96266000D03*
D19*
X127238000Y-86321500D03*
X125238000Y-86321500D03*
X116824000Y-83273500D03*
X114824000Y-83273500D03*
D22*
X153623000Y-85598000D03*
X151798000Y-85598000D03*
D25*
X119380000Y-86360000D03*
X119380000Y-83235000D03*
D24*
X151791500Y-93218000D03*
X153516500Y-93218000D03*
D17*
X153419500Y-79248000D03*
X151694500Y-79248000D03*
D24*
X120957000Y-92456000D03*
X122682000Y-92456000D03*
D23*
X151845000Y-96520000D03*
X153670000Y-96520000D03*
D24*
X125275000Y-100330000D03*
X127000000Y-100330000D03*
D12*
X100584000Y-78740000D03*
D30*
X149574000Y-96908000D03*
D31*
X145574000Y-95758000D03*
D30*
X149574000Y-94608000D03*
D32*
X129342000Y-78232000D03*
X136342000Y-78232000D03*
D33*
X114874000Y-96550000D03*
X115824000Y-96550000D03*
X116774000Y-96550000D03*
X116774000Y-93950000D03*
X115824000Y-93950000D03*
X114874000Y-93950000D03*
D21*
X125476000Y-102108000D03*
X127476000Y-102108000D03*
D22*
X153566500Y-82550000D03*
X151741500Y-82550000D03*
D34*
X125154000Y-80479000D03*
X124304000Y-80479000D03*
X123454000Y-80479000D03*
X122604000Y-80479000D03*
X121754000Y-80479000D03*
X120904000Y-80479000D03*
X120054000Y-80479000D03*
X119204000Y-80479000D03*
X119204000Y-79129000D03*
X120054000Y-79129000D03*
X120904000Y-79129000D03*
X121754000Y-79129000D03*
X122604000Y-79129000D03*
X123454000Y-79129000D03*
X124304000Y-79129000D03*
X125154000Y-79129000D03*
D35*
X126504000Y-79499000D03*
X117854000Y-79499000D03*
X117854000Y-76119000D03*
X126504000Y-76119000D03*
D24*
X126799000Y-92202000D03*
X128524000Y-92202000D03*
D34*
X111433000Y-80479000D03*
X110583000Y-80479000D03*
X109733000Y-80479000D03*
X108883000Y-80479000D03*
X108033000Y-80479000D03*
X107183000Y-80479000D03*
X106333000Y-80479000D03*
X105483000Y-80479000D03*
X105483000Y-79129000D03*
X106333000Y-79129000D03*
X107183000Y-79129000D03*
X108033000Y-79129000D03*
X108883000Y-79129000D03*
X109733000Y-79129000D03*
X110583000Y-79129000D03*
X111433000Y-79129000D03*
D35*
X112783000Y-79499000D03*
X104133000Y-79499000D03*
X104133000Y-76119000D03*
X112783000Y-76119000D03*
D20*
X116840000Y-100838000D03*
X116840000Y-99113000D03*
D24*
X151791500Y-90170000D03*
X153516500Y-90170000D03*
D26*
X141986000Y-83235000D03*
X141986000Y-86360000D03*
D20*
X142748000Y-94334500D03*
X142748000Y-92609500D03*
D21*
X133366000Y-99314000D03*
X135366000Y-99314000D03*
D20*
X140970000Y-94435000D03*
X140970000Y-92710000D03*
D19*
X116824000Y-86575500D03*
X114824000Y-86575500D03*
D36*
X107520500Y-83847500D03*
X107520500Y-85747500D03*
X109395500Y-84797500D03*
D20*
X140970000Y-99010000D03*
X140970000Y-97285000D03*
D37*
X133538000Y-83447500D03*
X132588000Y-83447500D03*
X131638000Y-83447500D03*
X131638000Y-86147500D03*
X133538000Y-86147500D03*
D24*
X151694500Y-77724000D03*
X153419500Y-77724000D03*
X151694500Y-80772000D03*
X153419500Y-80772000D03*
D16*
X139126000Y-90256000D03*
X137226000Y-90256000D03*
X138176000Y-92456000D03*
D38*
X129794000Y-85751500D03*
X129794000Y-87476500D03*
D21*
X133366000Y-92456000D03*
X135366000Y-92456000D03*
D19*
X127238000Y-83273500D03*
X125238000Y-83273500D03*
D38*
X144526000Y-84582000D03*
X144526000Y-86307000D03*
D24*
X131979500Y-97282000D03*
X133704500Y-97282000D03*
D17*
X122581500Y-95504000D03*
X120856500Y-95504000D03*
D23*
X151741500Y-84074000D03*
X153566500Y-84074000D03*
D22*
X104290500Y-82296000D03*
X102465500Y-82296000D03*
D18*
X148082000Y-89916000D03*
D39*
X115316000Y-102108000D03*
X134874000Y-94234000D03*
X141986000Y-95758000D03*
X133604000Y-94234000D03*
X109728000Y-93472000D03*
X119380000Y-95504000D03*
X138176000Y-87884000D03*
X143256000Y-95758000D03*
X121666000Y-98806000D03*
X134874000Y-95504000D03*
X119380000Y-94234000D03*
X116586000Y-102108000D03*
X109728000Y-94996000D03*
X134874000Y-97282000D03*
X120650000Y-98806000D03*
X139192000Y-87884000D03*
X140716000Y-95758000D03*
X145034000Y-97536000D03*
X139446000Y-91694000D03*
X139446000Y-100076000D03*
X124206000Y-93472000D03*
X124968000Y-93472000D03*
X124206000Y-87884000D03*
X124206000Y-92456000D03*
X124968000Y-92456000D03*
X124968000Y-87884000D03*
X112776000Y-89408000D03*
X141478000Y-84328000D03*
X130048000Y-84328000D03*
X119380000Y-92710000D03*
X111252000Y-89408000D03*
X144272000Y-83312000D03*
X122682000Y-84582000D03*
X112014000Y-89408000D03*
X129794000Y-98552000D03*
X139446000Y-84328000D03*
X132334000Y-84797500D03*
X129286000Y-84328000D03*
X121920000Y-84582000D03*
X138684000Y-84328000D03*
X129794000Y-97282000D03*
X130556000Y-97282000D03*
X120142000Y-84582000D03*
X116840000Y-84582000D03*
X119380000Y-84582000D03*
X125222000Y-84582000D03*
X130556000Y-98552000D03*
X119380000Y-91948000D03*
X112014000Y-88646000D03*
X112776000Y-88646000D03*
X142240000Y-84328000D03*
X111252000Y-88646000D03*
X145034000Y-83312000D03*
X137922000Y-78232000D03*
X137922000Y-77470000D03*
X100584000Y-82296000D03*
X114554000Y-77216000D03*
D40*
X149502500Y-92456000D02*
X149502500Y-94536500D01*
X153419500Y-79248000D02*
X153419500Y-77724000D01*
D41*
X129832500Y-87630000D02*
X129540000Y-87337500D01*
X132055500Y-87630000D02*
X129832500Y-87630000D01*
D42*
X138410000Y-91440000D02*
X139192000Y-91440000D01*
D41*
X125238000Y-86321500D02*
X126800500Y-87884000D01*
X133538000Y-87818000D02*
X135976000Y-90256000D01*
D42*
X139126000Y-101430000D02*
X139126000Y-100396000D01*
X137226000Y-90256000D02*
X138410000Y-91440000D01*
X139192000Y-91440000D02*
X139446000Y-91694000D01*
D41*
X126800500Y-87884000D02*
X128993500Y-87884000D01*
D42*
X139126000Y-100396000D02*
X139446000Y-100076000D01*
D41*
X128993500Y-87884000D02*
X129540000Y-87337500D01*
X135976000Y-90256000D02*
X137226000Y-90256000D01*
X133538000Y-86147500D02*
X133538000Y-87818000D01*
X133538000Y-86147500D02*
X132055500Y-87630000D01*
D40*
X151694500Y-77724000D02*
X151694500Y-76253000D01*
D43*
X113538000Y-100584000D02*
X115062000Y-99060000D01*
X145034000Y-84582000D02*
X144526000Y-84582000D01*
D42*
X144526000Y-84582000D02*
X145326000Y-85382000D01*
D43*
X107862500Y-92797500D02*
X107862500Y-98234528D01*
D42*
X143510000Y-87630000D02*
X140884000Y-90256000D01*
D43*
X107862500Y-98234528D02*
X110211972Y-100584000D01*
D42*
X140884000Y-90256000D02*
X139126000Y-90256000D01*
D41*
X132588000Y-83447500D02*
X132588000Y-84543500D01*
D43*
X120885000Y-103158000D02*
X135498000Y-103158000D01*
X111252000Y-89408000D02*
X107862500Y-92797500D01*
X110211972Y-100584000D02*
X113538000Y-100584000D01*
D42*
X144535995Y-87630000D02*
X143510000Y-87630000D01*
X145326000Y-86839995D02*
X144535995Y-87630000D01*
D43*
X116840000Y-99113000D02*
X120885000Y-103158000D01*
D42*
X145326000Y-85382000D02*
X145326000Y-86839995D01*
D41*
X132588000Y-84543500D02*
X132334000Y-84797500D01*
D43*
X135498000Y-103158000D02*
X137226000Y-101430000D01*
X112876500Y-97047500D02*
X114420000Y-95504000D01*
X112876500Y-97702000D02*
X112876500Y-97047500D01*
X116774000Y-94808000D02*
X116774000Y-93950000D01*
X112876500Y-97702000D02*
X111098500Y-97702000D01*
D41*
X119920000Y-90170000D02*
X118618000Y-90170000D01*
X116774000Y-92014000D02*
X116774000Y-93950000D01*
D43*
X116922000Y-94808000D02*
X119396000Y-97282000D01*
X116078000Y-95504000D02*
X116774000Y-94808000D01*
D41*
X118618000Y-90170000D02*
X116774000Y-92014000D01*
D43*
X114420000Y-95504000D02*
X116078000Y-95504000D01*
X116774000Y-94808000D02*
X116922000Y-94808000D01*
D42*
X127000000Y-101632000D02*
X127476000Y-102108000D01*
X127000000Y-100330000D02*
X127000000Y-101632000D01*
X127362000Y-97440500D02*
X127437000Y-97515500D01*
X127437000Y-99893000D02*
X127000000Y-100330000D01*
X127437000Y-97515500D02*
X127437000Y-98478000D01*
X127362000Y-97440500D02*
X125571500Y-97440500D01*
X127437000Y-98478000D02*
X127437000Y-99893000D01*
X125571500Y-97440500D02*
X124968000Y-98044000D01*
D41*
X104290500Y-82296000D02*
X105918000Y-82296000D01*
X105483000Y-81810000D02*
X105943500Y-82270500D01*
X105483000Y-80479000D02*
X105483000Y-81810000D01*
X117854000Y-79499000D02*
X117854000Y-76119000D01*
X105943500Y-82270500D02*
X107520500Y-83847500D01*
X104133000Y-79499000D02*
X104133000Y-76119000D01*
X105918000Y-82296000D02*
X105943500Y-82270500D01*
X112783000Y-79499000D02*
X112783000Y-76119000D01*
X107774500Y-82374500D02*
X106333000Y-80933000D01*
D43*
X110583000Y-79129000D02*
X110583000Y-80479000D01*
D41*
X109395500Y-82374500D02*
X107774500Y-82374500D01*
X110583000Y-81187000D02*
X110583000Y-80479000D01*
D43*
X124304000Y-79129000D02*
X124304000Y-80479000D01*
D41*
X109395500Y-84797500D02*
X109395500Y-82374500D01*
D43*
X125287405Y-78041000D02*
X124304000Y-79024405D01*
X129151000Y-78041000D02*
X125287405Y-78041000D01*
D41*
X109395500Y-82374500D02*
X110583000Y-81187000D01*
D43*
X124304000Y-78838000D02*
X124304000Y-79129000D01*
X120396000Y-78232000D02*
X123698000Y-78232000D01*
X120054000Y-79129000D02*
X120054000Y-80479000D01*
X123698000Y-78232000D02*
X124304000Y-78838000D01*
X120054000Y-79129000D02*
X120054000Y-78574000D01*
D41*
X106333000Y-80933000D02*
X106333000Y-80479000D01*
D43*
X120054000Y-78574000D02*
X120396000Y-78232000D01*
X106333000Y-79129000D02*
X106333000Y-80479000D01*
D41*
X135016000Y-83447500D02*
X135890000Y-84321500D01*
D43*
X131903239Y-86147500D02*
X133538000Y-84512739D01*
D41*
X133538000Y-83447500D02*
X135016000Y-83447500D01*
D43*
X131638000Y-86147500D02*
X131903239Y-86147500D01*
X133538000Y-84512739D02*
X133538000Y-83447500D01*
X122604000Y-79129000D02*
X122604000Y-80479000D01*
X121754000Y-80479000D02*
X122604000Y-80479000D01*
X121754000Y-79129000D02*
X122604000Y-79129000D01*
X121754000Y-80479000D02*
X121754000Y-79129000D01*
D40*
X151798000Y-87018500D02*
X151694500Y-87122000D01*
X151798000Y-85598000D02*
X151798000Y-87018500D01*
X151694500Y-80772000D02*
X151694500Y-79248000D01*
D44*
X102465500Y-82296000D02*
X100584000Y-82296000D01*
X114554000Y-78740000D02*
X114554000Y-77216000D01*
D40*
X153566500Y-82550000D02*
X159766000Y-82550000D01*
X153566500Y-82550000D02*
X153566500Y-80919000D01*
X153566500Y-80919000D02*
X153419500Y-80772000D01*
X159766000Y-82550000D02*
X160782000Y-81534000D01*
X153670000Y-96520000D02*
X153670000Y-94895500D01*
X153670000Y-94895500D02*
X153516500Y-94742000D01*
X153670000Y-96520000D02*
X160782000Y-96520000D01*
D45*
X151791500Y-94742000D02*
X151791500Y-93218000D01*
X153516500Y-93218000D02*
X153516500Y-91694000D01*
X151791500Y-91694000D02*
X151791500Y-90170000D01*
D41*
X122174000Y-90170000D02*
X126778000Y-90170000D01*
D43*
X127437000Y-94054000D02*
X127437000Y-92840000D01*
X127437000Y-92840000D02*
X126799000Y-92202000D01*
X126778000Y-90424000D02*
X126778000Y-92181000D01*
D42*
X128012000Y-95091500D02*
X126650500Y-95091500D01*
X128087000Y-94054000D02*
X128087000Y-95016500D01*
X128087000Y-95016500D02*
X128012000Y-95091500D01*
D43*
X128778000Y-90424000D02*
X128778000Y-91948000D01*
D42*
X126650500Y-95091500D02*
X125698000Y-96044000D01*
D43*
X128087000Y-92639000D02*
X128087000Y-94054000D01*
X128524000Y-92202000D02*
X128087000Y-92639000D01*
D42*
X125698000Y-96044000D02*
X124968000Y-96044000D01*
D43*
X110844500Y-99448000D02*
X112855500Y-99448000D01*
X113792000Y-97632000D02*
X113792000Y-98511500D01*
X114874000Y-96550000D02*
X113792000Y-97632000D01*
X113792000Y-98511500D02*
X112876500Y-99427000D01*
X108932500Y-97536000D02*
X110844500Y-99448000D01*
X126787000Y-98818000D02*
X125275000Y-100330000D01*
D41*
X123190000Y-100838000D02*
X124767000Y-100838000D01*
X124767000Y-100838000D02*
X125275000Y-100330000D01*
D43*
X125275000Y-100330000D02*
X125275000Y-101907000D01*
D41*
X112252000Y-86614000D02*
X114785500Y-86614000D01*
X108387000Y-86614000D02*
X112252000Y-86614000D01*
X107520500Y-85747500D02*
X108387000Y-86614000D01*
X102870000Y-88900000D02*
X100076000Y-88900000D01*
X106812500Y-97536000D02*
X106812500Y-92842500D01*
X106812500Y-92842500D02*
X102870000Y-88900000D01*
D43*
X108033000Y-80479000D02*
X108033000Y-79129000D01*
X108883000Y-80479000D02*
X108033000Y-80479000D01*
X108033000Y-79129000D02*
X108883000Y-79129000D01*
X108883000Y-79129000D02*
X108883000Y-80479000D01*
D40*
X151741500Y-82550000D02*
X151741500Y-84074000D01*
X153566500Y-84074000D02*
X153566500Y-85541500D01*
X151845000Y-96520000D02*
X151845000Y-98044000D01*
X153670000Y-98044000D02*
X153670000Y-99568000D01*
D43*
X130335000Y-92456000D02*
X133366000Y-92456000D01*
X128737000Y-94054000D02*
X130335000Y-92456000D01*
D40*
X149502500Y-99314000D02*
X149502500Y-96979500D01*
D43*
X128418500Y-99822000D02*
X132858000Y-99822000D01*
X128087000Y-99490500D02*
X128418500Y-99822000D01*
X132858000Y-99822000D02*
X133366000Y-99314000D01*
X128087000Y-98478000D02*
X128087000Y-99490500D01*
D41*
X131464000Y-83273500D02*
X127238000Y-83273500D01*
X127238000Y-86321500D02*
X127238000Y-83273500D01*
X131638000Y-83447500D02*
X131464000Y-83273500D01*
D40*
X151845000Y-99568000D02*
X151845000Y-100988500D01*
X151845000Y-100988500D02*
X151741500Y-101092000D01*
D41*
X120074772Y-100838000D02*
X118110000Y-98873228D01*
X121190000Y-100838000D02*
X120074772Y-100838000D01*
X118110000Y-97886000D02*
X116774000Y-96550000D01*
X118110000Y-98873228D02*
X118110000Y-97886000D01*
D40*
X135620000Y-92710000D02*
X135366000Y-92456000D01*
D44*
X152582000Y-77090500D02*
X152582000Y-84884360D01*
D40*
X147270000Y-92609500D02*
X147677500Y-92202000D01*
X147677500Y-90828500D02*
X147677500Y-92202000D01*
X153519500Y-87122000D02*
X152249500Y-88392000D01*
D44*
X152582000Y-84884360D02*
X152654000Y-84956360D01*
D40*
X142748000Y-92609500D02*
X135519500Y-92609500D01*
D44*
X152654000Y-84956360D02*
X152654000Y-86256500D01*
X153472500Y-76200000D02*
X152582000Y-77090500D01*
X152654000Y-86256500D02*
X153519500Y-87122000D01*
D40*
X152249500Y-88392000D02*
X150114000Y-88392000D01*
X150114000Y-88392000D02*
X147677500Y-90828500D01*
X142748000Y-92609500D02*
X147270000Y-92609500D01*
X153566500Y-101195500D02*
X152146000Y-102616000D01*
D44*
X152679000Y-91007500D02*
X152679000Y-101117000D01*
D40*
X152146000Y-102616000D02*
X149098000Y-102616000D01*
D44*
X153516500Y-90170000D02*
X152679000Y-91007500D01*
X152679000Y-101117000D02*
X153162000Y-101600000D01*
D40*
X147373500Y-99010000D02*
X142748000Y-99010000D01*
X147677500Y-101195500D02*
X147677500Y-99314000D01*
X153566500Y-101092000D02*
X153566500Y-101195500D01*
X147677500Y-99314000D02*
X147373500Y-99010000D01*
X135670000Y-99010000D02*
X135366000Y-99314000D01*
X142748000Y-99010000D02*
X135670000Y-99010000D01*
X149098000Y-102616000D02*
X147677500Y-101195500D01*
G04 #@! TA.AperFunction,Conductor*
G36*
X125703121Y-91968002D02*
G01*
X125749614Y-92021658D01*
X125761000Y-92074000D01*
X125761001Y-92488534D01*
X125771678Y-92591445D01*
X125826141Y-92754690D01*
X125916697Y-92901028D01*
X126038489Y-93022608D01*
X126184984Y-93112908D01*
X126348324Y-93167086D01*
X126355157Y-93167786D01*
X126355161Y-93167787D01*
X126409431Y-93173347D01*
X126449965Y-93177500D01*
X126585500Y-93177500D01*
X126653621Y-93197502D01*
X126700114Y-93251158D01*
X126711500Y-93303500D01*
X126711501Y-94341672D01*
X126691499Y-94409793D01*
X126637843Y-94456286D01*
X126589458Y-94467610D01*
X126559796Y-94468542D01*
X126551872Y-94468791D01*
X126544259Y-94471003D01*
X126544252Y-94471004D01*
X126532782Y-94474336D01*
X126513426Y-94478345D01*
X126511366Y-94478605D01*
X126493708Y-94480836D01*
X126486342Y-94483753D01*
X126486336Y-94483754D01*
X126453183Y-94496881D01*
X126441950Y-94500727D01*
X126407720Y-94510671D01*
X126407713Y-94510674D01*
X126400110Y-94512883D01*
X126393294Y-94516914D01*
X126393291Y-94516915D01*
X126383004Y-94522999D01*
X126365252Y-94531695D01*
X126357835Y-94534632D01*
X126346768Y-94539014D01*
X126340353Y-94543675D01*
X126340349Y-94543677D01*
X126311513Y-94564627D01*
X126301594Y-94571143D01*
X126270902Y-94589294D01*
X126270897Y-94589298D01*
X126264079Y-94593330D01*
X126250026Y-94607383D01*
X126234993Y-94620223D01*
X126218913Y-94631906D01*
X126213860Y-94638014D01*
X126191135Y-94665484D01*
X126183145Y-94674264D01*
X126133736Y-94723673D01*
X126071424Y-94757699D01*
X126000609Y-94752634D01*
X125989770Y-94746202D01*
X125984000Y-94744947D01*
X125984000Y-94742000D01*
X123698000Y-94742000D01*
X123698000Y-96140000D01*
X123677998Y-96208121D01*
X123624342Y-96254614D01*
X123572000Y-96266000D01*
X122290866Y-96266000D01*
X122222745Y-96245998D01*
X122217695Y-96242394D01*
X122214311Y-96239016D01*
X122065334Y-96147186D01*
X122058386Y-96144881D01*
X122058383Y-96144880D01*
X122006333Y-96127616D01*
X121947973Y-96087186D01*
X121920736Y-96021621D01*
X121920000Y-96008023D01*
X121920000Y-94579764D01*
X121930677Y-94531605D01*
X121930408Y-94531516D01*
X121931279Y-94528890D01*
X121936589Y-94512883D01*
X121982422Y-94374700D01*
X121984586Y-94368176D01*
X121995000Y-94266535D01*
X121994999Y-93693466D01*
X121984322Y-93590555D01*
X121976606Y-93567427D01*
X121932176Y-93434253D01*
X121932174Y-93434248D01*
X121929859Y-93427310D01*
X121930441Y-93427116D01*
X121920000Y-93380212D01*
X121920000Y-93055764D01*
X121930677Y-93007605D01*
X121930408Y-93007516D01*
X121931279Y-93004890D01*
X121984586Y-92844176D01*
X121986060Y-92829796D01*
X121993117Y-92760910D01*
X121995000Y-92742535D01*
X121994999Y-92169466D01*
X121986443Y-92087001D01*
X121999308Y-92017182D01*
X122047879Y-91965400D01*
X122111770Y-91948000D01*
X125635000Y-91948000D01*
X125703121Y-91968002D01*
G37*
G04 #@! TD.AperFunction*
G04 #@! TA.AperFunction,Conductor*
G36*
X116288395Y-100086677D02*
G01*
X116288484Y-100086408D01*
X116295426Y-100088711D01*
X116295429Y-100088712D01*
X116425563Y-100131875D01*
X116451824Y-100140586D01*
X116458657Y-100141286D01*
X116458661Y-100141287D01*
X116512931Y-100146847D01*
X116553465Y-100151000D01*
X116576956Y-100151000D01*
X116905863Y-100150999D01*
X116973983Y-100171001D01*
X116994958Y-100187904D01*
X117565095Y-100758041D01*
X117599121Y-100820353D01*
X117602000Y-100847136D01*
X117602000Y-102490000D01*
X117581998Y-102558121D01*
X117528342Y-102604614D01*
X117476000Y-102616000D01*
X114426000Y-102616000D01*
X114357879Y-102595998D01*
X114311386Y-102542342D01*
X114300000Y-102490000D01*
X114300000Y-100794136D01*
X114320002Y-100726015D01*
X114336905Y-100705041D01*
X114907041Y-100134905D01*
X114969353Y-100100879D01*
X114996136Y-100098000D01*
X115324700Y-100097999D01*
X115348534Y-100097999D01*
X115351778Y-100097662D01*
X115351786Y-100097662D01*
X115397142Y-100092956D01*
X115451445Y-100087322D01*
X115457982Y-100085141D01*
X115457987Y-100085140D01*
X115465969Y-100082477D01*
X115505846Y-100076000D01*
X116240236Y-100076000D01*
X116288395Y-100086677D01*
G37*
G04 #@! TD.AperFunction*
G04 #@! TA.AperFunction,Conductor*
G36*
X145738121Y-82062002D02*
G01*
X145784614Y-82115658D01*
X145796000Y-82168000D01*
X145796000Y-84964000D01*
X145775998Y-85032121D01*
X145722342Y-85078614D01*
X145670000Y-85090000D01*
X137166465Y-85090000D01*
X137098344Y-85069998D01*
X137051851Y-85016342D01*
X137041747Y-84946068D01*
X137046872Y-84924332D01*
X137077744Y-84831259D01*
X137077745Y-84831257D01*
X137079910Y-84824728D01*
X137090500Y-84721366D01*
X137090500Y-83921634D01*
X137079641Y-83816981D01*
X137024256Y-83650971D01*
X137004353Y-83618809D01*
X136936020Y-83508382D01*
X136936017Y-83508378D01*
X136932166Y-83502155D01*
X136932132Y-83502121D01*
X136906617Y-83439083D01*
X136906000Y-83426629D01*
X136906000Y-82168000D01*
X136926002Y-82099879D01*
X136979658Y-82053386D01*
X137032000Y-82042000D01*
X145670000Y-82042000D01*
X145738121Y-82062002D01*
G37*
G04 #@! TD.AperFunction*
G04 #@! TA.AperFunction,Conductor*
G36*
X125926121Y-82023502D02*
G01*
X125972614Y-82077158D01*
X125984000Y-82129500D01*
X125984000Y-84925500D01*
X125963998Y-84993621D01*
X125910342Y-85040114D01*
X125858000Y-85051500D01*
X116204000Y-85051500D01*
X116135879Y-85031498D01*
X116089386Y-84977842D01*
X116078000Y-84925500D01*
X116078000Y-82165500D01*
X116098002Y-82097379D01*
X116151658Y-82050886D01*
X116204000Y-82039500D01*
X119254000Y-82039500D01*
X119257348Y-82039140D01*
X119257349Y-82039140D01*
X119283032Y-82036379D01*
X119361449Y-82027948D01*
X119364733Y-82027234D01*
X119364737Y-82027233D01*
X119410510Y-82017276D01*
X119410515Y-82017275D01*
X119413791Y-82016562D01*
X119433663Y-82009948D01*
X119473454Y-82003500D01*
X125858000Y-82003500D01*
X125926121Y-82023502D01*
G37*
G04 #@! TD.AperFunction*
G04 #@! TA.AperFunction,Conductor*
G36*
X138372121Y-76220002D02*
G01*
X138418614Y-76273658D01*
X138430000Y-76326000D01*
X138430000Y-80138000D01*
X138409998Y-80206121D01*
X138356342Y-80252614D01*
X138304000Y-80264000D01*
X135000000Y-80264000D01*
X134931879Y-80243998D01*
X134885386Y-80190342D01*
X134874000Y-80138000D01*
X134874000Y-76326000D01*
X134894002Y-76257879D01*
X134947658Y-76211386D01*
X135000000Y-76200000D01*
X138304000Y-76200000D01*
X138372121Y-76220002D01*
G37*
G04 #@! TD.AperFunction*
G04 #@! TA.AperFunction,Conductor*
G36*
X115940621Y-96286002D02*
G01*
X115987114Y-96339658D01*
X115998500Y-96392000D01*
X115998501Y-96864574D01*
X115998501Y-97122376D01*
X116005149Y-97183580D01*
X116055474Y-97317824D01*
X116060854Y-97325003D01*
X116060856Y-97325006D01*
X116074869Y-97343703D01*
X116141454Y-97432546D01*
X116148635Y-97437928D01*
X116248994Y-97513144D01*
X116248997Y-97513146D01*
X116256176Y-97518526D01*
X116345561Y-97552034D01*
X116383025Y-97566079D01*
X116383027Y-97566079D01*
X116390420Y-97568851D01*
X116398270Y-97569704D01*
X116398271Y-97569704D01*
X116448217Y-97575130D01*
X116451623Y-97575500D01*
X116573310Y-97575500D01*
X116641431Y-97595502D01*
X116662405Y-97612405D01*
X117322595Y-98272595D01*
X117356621Y-98334907D01*
X117359500Y-98361690D01*
X117359500Y-98806774D01*
X117358067Y-98825724D01*
X117354852Y-98846858D01*
X117355445Y-98854150D01*
X117355445Y-98854153D01*
X117359085Y-98898903D01*
X117359500Y-98909117D01*
X117359500Y-98917050D01*
X117359925Y-98920694D01*
X117362754Y-98944964D01*
X117363187Y-98949339D01*
X117364627Y-98967040D01*
X117369039Y-99021287D01*
X117371294Y-99028249D01*
X117372452Y-99034044D01*
X117373809Y-99039786D01*
X117374657Y-99047056D01*
X117399306Y-99114964D01*
X117400723Y-99119092D01*
X117422973Y-99187774D01*
X117426768Y-99194028D01*
X117429231Y-99199407D01*
X117431873Y-99204683D01*
X117434369Y-99211559D01*
X117455687Y-99244074D01*
X117473948Y-99271927D01*
X117476295Y-99275647D01*
X117510848Y-99332589D01*
X117510853Y-99332596D01*
X117513761Y-99337388D01*
X117517473Y-99341590D01*
X117517474Y-99341592D01*
X117521085Y-99345680D01*
X117521060Y-99345702D01*
X117523806Y-99348797D01*
X117526309Y-99351791D01*
X117530323Y-99357913D01*
X117535637Y-99362947D01*
X117562654Y-99388541D01*
X117598351Y-99449910D01*
X117602000Y-99480013D01*
X117602000Y-99699776D01*
X117581998Y-99767897D01*
X117528342Y-99814390D01*
X117479834Y-99825718D01*
X117419683Y-99827549D01*
X117313900Y-99830769D01*
X117270404Y-99824421D01*
X117228176Y-99810414D01*
X117221343Y-99809714D01*
X117221339Y-99809713D01*
X117167069Y-99804153D01*
X117126535Y-99800000D01*
X116842210Y-99800000D01*
X116553466Y-99800001D01*
X116550222Y-99800338D01*
X116550214Y-99800338D01*
X116504858Y-99805044D01*
X116450555Y-99810678D01*
X116444015Y-99812860D01*
X116444010Y-99812861D01*
X116315174Y-99855844D01*
X116279131Y-99862263D01*
X116250395Y-99863138D01*
X115760947Y-99878034D01*
X115690999Y-99859353D01*
X115613516Y-99811592D01*
X115579557Y-99800328D01*
X115456700Y-99759578D01*
X115456701Y-99759578D01*
X115450176Y-99757414D01*
X115443343Y-99756714D01*
X115443339Y-99756713D01*
X115389069Y-99751153D01*
X115348535Y-99747000D01*
X115064210Y-99747000D01*
X114775466Y-99747001D01*
X114772222Y-99747338D01*
X114772214Y-99747338D01*
X114726858Y-99752044D01*
X114672555Y-99757678D01*
X114509310Y-99812141D01*
X114503089Y-99815990D01*
X114503086Y-99815992D01*
X114492302Y-99822665D01*
X114423850Y-99841502D01*
X114356080Y-99820340D01*
X114310510Y-99765899D01*
X114300000Y-99715520D01*
X114300000Y-98967040D01*
X114322738Y-98897057D01*
X114322446Y-98896896D01*
X114323289Y-98895363D01*
X114332599Y-98878430D01*
X114343451Y-98861909D01*
X114351503Y-98851529D01*
X114351504Y-98851527D01*
X114356363Y-98845263D01*
X114374455Y-98803454D01*
X114379677Y-98792794D01*
X114397809Y-98759813D01*
X114397809Y-98759812D01*
X114401627Y-98752868D01*
X114406866Y-98732462D01*
X114413270Y-98713759D01*
X114418488Y-98701700D01*
X114421636Y-98694426D01*
X114422876Y-98686600D01*
X114422877Y-98686595D01*
X114428765Y-98649424D01*
X114431171Y-98637804D01*
X114440528Y-98601358D01*
X114440528Y-98601357D01*
X114442500Y-98593677D01*
X114442500Y-98572616D01*
X114444051Y-98552905D01*
X114446107Y-98539924D01*
X114447347Y-98532095D01*
X114443059Y-98486732D01*
X114442500Y-98474875D01*
X114442500Y-97953636D01*
X114462502Y-97885515D01*
X114479405Y-97864541D01*
X114731541Y-97612405D01*
X114793853Y-97578379D01*
X114820636Y-97575500D01*
X115170073Y-97575499D01*
X115196376Y-97575499D01*
X115199770Y-97575130D01*
X115199776Y-97575130D01*
X115249722Y-97569705D01*
X115249726Y-97569704D01*
X115257580Y-97568851D01*
X115391824Y-97518526D01*
X115399003Y-97513146D01*
X115399006Y-97513144D01*
X115499365Y-97437928D01*
X115506546Y-97432546D01*
X115573131Y-97343703D01*
X115587144Y-97325006D01*
X115587146Y-97325003D01*
X115592526Y-97317824D01*
X115642851Y-97183580D01*
X115649500Y-97122377D01*
X115649499Y-96391999D01*
X115669501Y-96323879D01*
X115723157Y-96277386D01*
X115775499Y-96266000D01*
X115872500Y-96266000D01*
X115940621Y-96286002D01*
G37*
G04 #@! TD.AperFunction*
G04 #@! TA.AperFunction,Conductor*
G36*
X140566210Y-93732407D02*
G01*
X140581824Y-93737586D01*
X140588657Y-93738286D01*
X140588661Y-93738287D01*
X140642931Y-93743847D01*
X140683465Y-93748000D01*
X140967790Y-93748000D01*
X141256534Y-93747999D01*
X141259778Y-93747662D01*
X141259786Y-93747662D01*
X141305142Y-93742956D01*
X141359445Y-93737322D01*
X141365982Y-93735141D01*
X141365987Y-93735140D01*
X141373969Y-93732477D01*
X141413846Y-93726000D01*
X143480255Y-93726000D01*
X143536604Y-93739302D01*
X144526000Y-94234000D01*
X147448000Y-94234000D01*
X147516121Y-94254002D01*
X147562614Y-94307658D01*
X147574000Y-94360000D01*
X147574000Y-97918000D01*
X147553998Y-97986121D01*
X147500342Y-98032614D01*
X147448000Y-98044000D01*
X143341331Y-98044000D01*
X143300091Y-98034859D01*
X143299516Y-98036592D01*
X143142700Y-97984578D01*
X143142701Y-97984578D01*
X143136176Y-97982414D01*
X143129343Y-97981714D01*
X143129339Y-97981713D01*
X143075069Y-97976153D01*
X143034535Y-97972000D01*
X142750210Y-97972000D01*
X142461466Y-97972001D01*
X142458222Y-97972338D01*
X142458214Y-97972338D01*
X142412858Y-97977044D01*
X142358555Y-97982678D01*
X142195310Y-98037141D01*
X142194628Y-98035097D01*
X142154616Y-98044000D01*
X141563331Y-98044000D01*
X141522091Y-98034859D01*
X141521516Y-98036592D01*
X141364700Y-97984578D01*
X141364701Y-97984578D01*
X141358176Y-97982414D01*
X141351343Y-97981714D01*
X141351339Y-97981713D01*
X141297069Y-97976153D01*
X141256535Y-97972000D01*
X140972210Y-97972000D01*
X140683466Y-97972001D01*
X140680222Y-97972338D01*
X140680214Y-97972338D01*
X140634858Y-97977044D01*
X140580555Y-97982678D01*
X140417310Y-98037141D01*
X140416628Y-98035097D01*
X140376616Y-98044000D01*
X133048846Y-98044000D01*
X132980725Y-98023998D01*
X132934232Y-97970342D01*
X132924128Y-97900068D01*
X132941586Y-97851885D01*
X132949064Y-97839753D01*
X132949066Y-97839750D01*
X132952908Y-97833516D01*
X133007086Y-97670176D01*
X133017500Y-97568535D01*
X133017499Y-96995466D01*
X133006822Y-96892555D01*
X132952359Y-96729310D01*
X132861803Y-96582972D01*
X132864278Y-96581441D01*
X132842617Y-96527932D01*
X132842000Y-96515473D01*
X132842000Y-96103764D01*
X132852677Y-96055605D01*
X132852408Y-96055516D01*
X132853279Y-96052890D01*
X132906586Y-95892176D01*
X132917000Y-95790535D01*
X132916999Y-95217466D01*
X132906322Y-95114555D01*
X132898606Y-95091427D01*
X132854176Y-94958253D01*
X132854174Y-94958248D01*
X132851859Y-94951310D01*
X132852441Y-94951116D01*
X132842000Y-94904212D01*
X132842000Y-93852000D01*
X132862002Y-93783879D01*
X132915658Y-93737386D01*
X132968000Y-93726000D01*
X140526542Y-93726000D01*
X140566210Y-93732407D01*
G37*
G04 #@! TD.AperFunction*
G04 #@! TA.AperFunction,Conductor*
G36*
X144122210Y-85604407D02*
G01*
X144137824Y-85609586D01*
X144144657Y-85610286D01*
X144144661Y-85610287D01*
X144198931Y-85615847D01*
X144239465Y-85620000D01*
X144252554Y-85620000D01*
X144574501Y-85619999D01*
X144642620Y-85640001D01*
X144689113Y-85693656D01*
X144700500Y-85745999D01*
X144700500Y-86528714D01*
X144680498Y-86596835D01*
X144663595Y-86617810D01*
X144313808Y-86967596D01*
X144251496Y-87001621D01*
X144224713Y-87004500D01*
X143587703Y-87004500D01*
X143576743Y-87003983D01*
X143569333Y-87002327D01*
X143561407Y-87002576D01*
X143561406Y-87002576D01*
X143502159Y-87004438D01*
X143498201Y-87004500D01*
X143470650Y-87004500D01*
X143466727Y-87004996D01*
X143466612Y-87005003D01*
X143454932Y-87005923D01*
X143411373Y-87007291D01*
X143392284Y-87012837D01*
X143372938Y-87016844D01*
X143353208Y-87019336D01*
X143312677Y-87035384D01*
X143301476Y-87039219D01*
X143259610Y-87051382D01*
X143242501Y-87061500D01*
X143224755Y-87070195D01*
X143206268Y-87077514D01*
X143173913Y-87101021D01*
X143171012Y-87103129D01*
X143161090Y-87109646D01*
X143130410Y-87127790D01*
X143130406Y-87127793D01*
X143123580Y-87131830D01*
X143109530Y-87145880D01*
X143094496Y-87158721D01*
X143078413Y-87170406D01*
X143073360Y-87176514D01*
X143050631Y-87203989D01*
X143042641Y-87212769D01*
X142388000Y-87867410D01*
X142330973Y-87900165D01*
X141459356Y-88129538D01*
X140477766Y-88387851D01*
X140445700Y-88392000D01*
X135225557Y-88392000D01*
X135157436Y-88371998D01*
X135136462Y-88355095D01*
X134910905Y-88129538D01*
X134876879Y-88067226D01*
X134874000Y-88040443D01*
X134874000Y-85724000D01*
X134894002Y-85655879D01*
X134947658Y-85609386D01*
X135000000Y-85598000D01*
X144082542Y-85598000D01*
X144122210Y-85604407D01*
G37*
G04 #@! TD.AperFunction*
G04 #@! TA.AperFunction,Conductor*
G36*
X132515839Y-94771584D02*
G01*
X132568881Y-94818775D01*
X132588000Y-94885502D01*
X132588000Y-95060542D01*
X132581593Y-95100210D01*
X132576414Y-95115824D01*
X132575714Y-95122657D01*
X132575713Y-95122661D01*
X132570812Y-95170501D01*
X132566000Y-95217465D01*
X132566001Y-95790534D01*
X132576678Y-95893445D01*
X132578859Y-95899982D01*
X132578860Y-95899987D01*
X132581523Y-95907969D01*
X132588000Y-95947846D01*
X132588000Y-97979159D01*
X132567998Y-98047280D01*
X132535237Y-98081688D01*
X131185900Y-99045500D01*
X131042358Y-99148030D01*
X130969122Y-99171500D01*
X128938500Y-99171500D01*
X128870379Y-99151498D01*
X128823886Y-99097842D01*
X128812500Y-99045500D01*
X128812499Y-97721542D01*
X128812499Y-97718124D01*
X128810643Y-97701038D01*
X128823171Y-97631157D01*
X128871492Y-97579141D01*
X128891676Y-97569450D01*
X128893613Y-97568724D01*
X128944824Y-97549526D01*
X128952003Y-97544146D01*
X128952006Y-97544144D01*
X129052365Y-97468928D01*
X129059546Y-97463546D01*
X129106488Y-97400912D01*
X129140144Y-97356006D01*
X129140146Y-97356003D01*
X129145526Y-97348824D01*
X129195851Y-97214580D01*
X129202500Y-97153377D01*
X129202499Y-95378624D01*
X129195851Y-95317420D01*
X129196920Y-95317304D01*
X129200245Y-95253684D01*
X129241693Y-95196043D01*
X129302827Y-95170501D01*
X130145845Y-95060542D01*
X132445705Y-94760560D01*
X132515839Y-94771584D01*
G37*
G04 #@! TD.AperFunction*
G04 #@! TA.AperFunction,Conductor*
G36*
X113734121Y-87904002D02*
G01*
X113780614Y-87957658D01*
X113792000Y-88010000D01*
X113792000Y-89096825D01*
X113771998Y-89164946D01*
X113748974Y-89191648D01*
X112307943Y-90452550D01*
X112264846Y-90477249D01*
X112107810Y-90529641D01*
X111961472Y-90620197D01*
X111839892Y-90741989D01*
X111749592Y-90888484D01*
X111695414Y-91051824D01*
X111685000Y-91153465D01*
X111685001Y-91726534D01*
X111695678Y-91829445D01*
X111697859Y-91835982D01*
X111747824Y-91985747D01*
X111747826Y-91985752D01*
X111748262Y-91987058D01*
X111750141Y-91992690D01*
X111749559Y-91992884D01*
X111760000Y-92039788D01*
X111760000Y-92076000D01*
X111739998Y-92144121D01*
X111686342Y-92190614D01*
X111634000Y-92202000D01*
X110362000Y-92202000D01*
X110293879Y-92181998D01*
X110247386Y-92128342D01*
X110236000Y-92076000D01*
X110236000Y-88010000D01*
X110256002Y-87941879D01*
X110309658Y-87895386D01*
X110362000Y-87884000D01*
X113666000Y-87884000D01*
X113734121Y-87904002D01*
G37*
G04 #@! TD.AperFunction*
G04 #@! TA.AperFunction,Conductor*
G36*
X121608121Y-91460002D02*
G01*
X121654614Y-91513658D01*
X121666000Y-91566000D01*
X121666000Y-92012542D01*
X121659593Y-92052210D01*
X121654414Y-92067824D01*
X121653714Y-92074657D01*
X121653713Y-92074661D01*
X121648153Y-92128931D01*
X121644000Y-92169465D01*
X121644001Y-92742534D01*
X121654678Y-92845445D01*
X121656859Y-92851982D01*
X121656860Y-92851987D01*
X121659523Y-92859969D01*
X121666000Y-92899846D01*
X121666000Y-92926054D01*
X121645998Y-92994175D01*
X121592342Y-93040668D01*
X121522068Y-93050772D01*
X121500332Y-93045647D01*
X121414200Y-93017078D01*
X121414201Y-93017078D01*
X121407676Y-93014914D01*
X121400843Y-93014214D01*
X121400839Y-93014213D01*
X121346569Y-93008653D01*
X121306035Y-93004500D01*
X120959692Y-93004500D01*
X120607966Y-93004501D01*
X120604722Y-93004838D01*
X120604714Y-93004838D01*
X120559358Y-93009544D01*
X120505055Y-93015178D01*
X120341810Y-93069641D01*
X120195472Y-93160197D01*
X120190303Y-93165375D01*
X120174687Y-93181018D01*
X120112404Y-93215097D01*
X120085514Y-93218000D01*
X118744000Y-93218000D01*
X118675879Y-93197998D01*
X118629386Y-93144342D01*
X118618000Y-93092000D01*
X118618000Y-91566000D01*
X118638002Y-91497879D01*
X118691658Y-91451386D01*
X118744000Y-91440000D01*
X121540000Y-91440000D01*
X121608121Y-91460002D01*
G37*
G04 #@! TD.AperFunction*
G04 #@! TA.AperFunction,Conductor*
G36*
X111702121Y-92730002D02*
G01*
X111748614Y-92783658D01*
X111760000Y-92836000D01*
X111760000Y-95632000D01*
X111739998Y-95700121D01*
X111686342Y-95746614D01*
X111634000Y-95758000D01*
X109092000Y-95758000D01*
X109023879Y-95737998D01*
X108977386Y-95684342D01*
X108966000Y-95632000D01*
X108966000Y-92836000D01*
X108986002Y-92767879D01*
X109039658Y-92721386D01*
X109092000Y-92710000D01*
X111634000Y-92710000D01*
X111702121Y-92730002D01*
G37*
G04 #@! TD.AperFunction*
G04 #@! TA.AperFunction,Conductor*
G36*
X121584006Y-93499539D02*
G01*
X121635166Y-93548765D01*
X121651106Y-93624111D01*
X121644000Y-93693465D01*
X121644001Y-94266534D01*
X121654678Y-94369445D01*
X121656859Y-94375982D01*
X121656860Y-94375987D01*
X121659523Y-94383969D01*
X121666000Y-94423846D01*
X121666000Y-94822825D01*
X121647260Y-94888940D01*
X121611936Y-94946247D01*
X121611934Y-94946250D01*
X121608092Y-94952484D01*
X121553914Y-95115824D01*
X121543500Y-95217465D01*
X121543501Y-95790534D01*
X121554178Y-95893445D01*
X121608641Y-96056690D01*
X121612490Y-96062911D01*
X121612492Y-96062914D01*
X121647144Y-96118911D01*
X121666000Y-96185214D01*
X121666000Y-96266000D01*
X121710152Y-96266000D01*
X121778273Y-96286002D01*
X121799170Y-96302827D01*
X121820989Y-96324608D01*
X121967484Y-96414908D01*
X122130824Y-96469086D01*
X122137657Y-96469786D01*
X122137661Y-96469787D01*
X122191931Y-96475347D01*
X122232465Y-96479500D01*
X122302000Y-96479500D01*
X122370121Y-96499502D01*
X122416614Y-96553158D01*
X122428000Y-96605500D01*
X122428000Y-99442000D01*
X122407998Y-99510121D01*
X122354342Y-99556614D01*
X122302000Y-99568000D01*
X120268000Y-99568000D01*
X120199879Y-99547998D01*
X120153386Y-99494342D01*
X120142000Y-99442000D01*
X120142000Y-98439757D01*
X120162002Y-98371636D01*
X120201695Y-98332614D01*
X120209120Y-98328019D01*
X120209125Y-98328015D01*
X120215345Y-98324166D01*
X120338984Y-98200311D01*
X120430814Y-98051334D01*
X120485910Y-97885228D01*
X120496500Y-97781866D01*
X120496500Y-96782134D01*
X120485641Y-96677481D01*
X120461627Y-96605500D01*
X120432574Y-96518419D01*
X120430256Y-96511471D01*
X120338166Y-96362655D01*
X120294873Y-96319437D01*
X120219491Y-96244187D01*
X120214311Y-96239016D01*
X120065334Y-96147186D01*
X120058385Y-96144881D01*
X119905759Y-96094256D01*
X119905757Y-96094255D01*
X119899228Y-96092090D01*
X119795866Y-96081500D01*
X119167636Y-96081500D01*
X119099515Y-96061498D01*
X119078541Y-96044595D01*
X118908905Y-95874959D01*
X118874879Y-95812647D01*
X118872000Y-95785864D01*
X118872000Y-93841066D01*
X118892002Y-93772945D01*
X118945658Y-93726452D01*
X118986592Y-93715583D01*
X121514354Y-93485786D01*
X121584006Y-93499539D01*
G37*
G04 #@! TD.AperFunction*
G04 #@! TA.AperFunction,Conductor*
G36*
X130498121Y-84044002D02*
G01*
X130544614Y-84097658D01*
X130556000Y-84150000D01*
X130556000Y-86234000D01*
X130535998Y-86302121D01*
X130482342Y-86348614D01*
X130430000Y-86360000D01*
X128904000Y-86360000D01*
X128835879Y-86339998D01*
X128789386Y-86286342D01*
X128778000Y-86234000D01*
X128778000Y-84150000D01*
X128798002Y-84081879D01*
X128851658Y-84035386D01*
X128904000Y-84024000D01*
X130430000Y-84024000D01*
X130498121Y-84044002D01*
G37*
G04 #@! TD.AperFunction*
G04 #@! TA.AperFunction,Conductor*
G36*
X119233102Y-80030002D02*
G01*
X119279595Y-80083658D01*
X119289699Y-80153932D01*
X119284814Y-80174935D01*
X119244133Y-80300141D01*
X119242092Y-80306424D01*
X119223953Y-80479000D01*
X119242092Y-80651576D01*
X119295714Y-80816611D01*
X119299016Y-80822330D01*
X119363119Y-80933360D01*
X119380000Y-80996360D01*
X119380000Y-81408000D01*
X119359998Y-81476121D01*
X119306342Y-81522614D01*
X119254000Y-81534000D01*
X115570000Y-81534000D01*
X115570000Y-84202000D01*
X115549998Y-84270121D01*
X115496342Y-84316614D01*
X115444000Y-84328000D01*
X110870000Y-84328000D01*
X110801879Y-84307998D01*
X110755386Y-84254342D01*
X110744000Y-84202000D01*
X110744000Y-82139558D01*
X110764002Y-82071437D01*
X110780905Y-82050463D01*
X111066693Y-81764675D01*
X111081105Y-81752289D01*
X111092429Y-81743956D01*
X111092433Y-81743953D01*
X111098324Y-81739617D01*
X111132135Y-81699819D01*
X111139065Y-81692303D01*
X111144671Y-81686697D01*
X111146934Y-81683836D01*
X111146939Y-81683831D01*
X111162117Y-81664646D01*
X111164906Y-81661245D01*
X111206891Y-81611826D01*
X111206893Y-81611824D01*
X111211632Y-81606245D01*
X111214963Y-81599722D01*
X111218256Y-81594784D01*
X111221340Y-81589790D01*
X111225881Y-81584051D01*
X111228978Y-81577424D01*
X111228982Y-81577418D01*
X111256454Y-81518637D01*
X111258385Y-81514685D01*
X111287890Y-81456903D01*
X111291219Y-81450384D01*
X111292959Y-81443273D01*
X111295020Y-81437731D01*
X111296881Y-81432138D01*
X111299980Y-81425507D01*
X111303622Y-81408000D01*
X111314689Y-81354791D01*
X111315660Y-81350502D01*
X111331480Y-81285849D01*
X111332815Y-81280394D01*
X111333500Y-81269352D01*
X111333532Y-81269354D01*
X111333779Y-81265241D01*
X111334128Y-81261334D01*
X111335618Y-81254169D01*
X111333546Y-81177600D01*
X111333500Y-81174192D01*
X111333500Y-80859183D01*
X111342466Y-80816994D01*
X111341286Y-80816611D01*
X111392867Y-80657859D01*
X111392868Y-80657855D01*
X111394908Y-80651576D01*
X111413047Y-80479000D01*
X111398001Y-80335853D01*
X111405334Y-80278442D01*
X111475341Y-80091758D01*
X111517988Y-80034998D01*
X111584552Y-80010305D01*
X111593318Y-80010000D01*
X119164981Y-80010000D01*
X119233102Y-80030002D01*
G37*
G04 #@! TD.AperFunction*
G04 #@! TA.AperFunction,Conductor*
G36*
X116510040Y-85313402D02*
G01*
X116521847Y-85317793D01*
X116645116Y-85363636D01*
X116652097Y-85364567D01*
X116652099Y-85364568D01*
X116816149Y-85386457D01*
X116816153Y-85386457D01*
X116823130Y-85387388D01*
X116830142Y-85386750D01*
X116830146Y-85386750D01*
X116994960Y-85371751D01*
X116994961Y-85371751D01*
X117001981Y-85371112D01*
X117172782Y-85315615D01*
X117172838Y-85315787D01*
X117220422Y-85305500D01*
X119006120Y-85305500D01*
X119050040Y-85313402D01*
X119061847Y-85317793D01*
X119185116Y-85363636D01*
X119192097Y-85364567D01*
X119192099Y-85364568D01*
X119356149Y-85386457D01*
X119356153Y-85386457D01*
X119363130Y-85387388D01*
X119370142Y-85386750D01*
X119370146Y-85386750D01*
X119534960Y-85371751D01*
X119534961Y-85371751D01*
X119541981Y-85371112D01*
X119712782Y-85315615D01*
X119712838Y-85315787D01*
X119760422Y-85305500D01*
X119768120Y-85305500D01*
X119812040Y-85313402D01*
X119823847Y-85317793D01*
X119947116Y-85363636D01*
X119954097Y-85364567D01*
X119954099Y-85364568D01*
X120118149Y-85386457D01*
X120118153Y-85386457D01*
X120125130Y-85387388D01*
X120132142Y-85386750D01*
X120132146Y-85386750D01*
X120296960Y-85371751D01*
X120296961Y-85371751D01*
X120303981Y-85371112D01*
X120474782Y-85315615D01*
X120474838Y-85315787D01*
X120522422Y-85305500D01*
X121546120Y-85305500D01*
X121590040Y-85313402D01*
X121601847Y-85317793D01*
X121725116Y-85363636D01*
X121732097Y-85364567D01*
X121732099Y-85364568D01*
X121896149Y-85386457D01*
X121896153Y-85386457D01*
X121903130Y-85387388D01*
X121910142Y-85386750D01*
X121910146Y-85386750D01*
X122074960Y-85371751D01*
X122074961Y-85371751D01*
X122081981Y-85371112D01*
X122252782Y-85315615D01*
X122252838Y-85315787D01*
X122300422Y-85305500D01*
X122308120Y-85305500D01*
X122352040Y-85313402D01*
X122363847Y-85317793D01*
X122487116Y-85363636D01*
X122494097Y-85364567D01*
X122494099Y-85364568D01*
X122658149Y-85386457D01*
X122658153Y-85386457D01*
X122665130Y-85387388D01*
X122672142Y-85386750D01*
X122672146Y-85386750D01*
X122836960Y-85371751D01*
X122836961Y-85371751D01*
X122843981Y-85371112D01*
X123014782Y-85315615D01*
X123014838Y-85315787D01*
X123062422Y-85305500D01*
X124848120Y-85305500D01*
X124892040Y-85313402D01*
X124903847Y-85317793D01*
X125027116Y-85363636D01*
X125034097Y-85364567D01*
X125034099Y-85364568D01*
X125198149Y-85386457D01*
X125198153Y-85386457D01*
X125205130Y-85387388D01*
X125212142Y-85386750D01*
X125212146Y-85386750D01*
X125376960Y-85371751D01*
X125376961Y-85371751D01*
X125383981Y-85371112D01*
X125554782Y-85315615D01*
X125554838Y-85315787D01*
X125602422Y-85305500D01*
X125858000Y-85305500D01*
X125926121Y-85325502D01*
X125972614Y-85379158D01*
X125984000Y-85431500D01*
X125984000Y-88228180D01*
X125963998Y-88296301D01*
X125910342Y-88342794D01*
X125858682Y-88354178D01*
X119994265Y-88385925D01*
X118872000Y-88392000D01*
X117282421Y-89769635D01*
X115075692Y-91682133D01*
X115075691Y-91682134D01*
X115062000Y-91694000D01*
X115062000Y-93277098D01*
X115058583Y-93306244D01*
X115057923Y-93309020D01*
X115055149Y-93316420D01*
X115048500Y-93377623D01*
X115048501Y-94522376D01*
X115055149Y-94583580D01*
X115057922Y-94590976D01*
X115058583Y-94593758D01*
X115062000Y-94622902D01*
X115062000Y-94727500D01*
X115041998Y-94795621D01*
X114988342Y-94842114D01*
X114936000Y-94853500D01*
X114501001Y-94853500D01*
X114489360Y-94852951D01*
X114481704Y-94851240D01*
X114413355Y-94853388D01*
X114411756Y-94853438D01*
X114407799Y-94853500D01*
X114379075Y-94853500D01*
X114374812Y-94854038D01*
X114362983Y-94854970D01*
X114317431Y-94856402D01*
X114297193Y-94862281D01*
X114277840Y-94866289D01*
X114274227Y-94866745D01*
X114264808Y-94867935D01*
X114264806Y-94867935D01*
X114256942Y-94868929D01*
X114249570Y-94871848D01*
X114249569Y-94871848D01*
X114214584Y-94885699D01*
X114203354Y-94889544D01*
X114167212Y-94900044D01*
X114159602Y-94902255D01*
X114152783Y-94906288D01*
X114152778Y-94906290D01*
X114141467Y-94912980D01*
X114123708Y-94921680D01*
X114111504Y-94926512D01*
X114104129Y-94929432D01*
X114097715Y-94934092D01*
X114067273Y-94956209D01*
X114057353Y-94962725D01*
X114030759Y-94978453D01*
X113966619Y-94996000D01*
X113792000Y-94996000D01*
X113792000Y-95159864D01*
X113771998Y-95227985D01*
X113755095Y-95248959D01*
X113282959Y-95721095D01*
X113220647Y-95755121D01*
X113193864Y-95758000D01*
X112220846Y-95758000D01*
X112152725Y-95737998D01*
X112106232Y-95684342D01*
X112096128Y-95614068D01*
X112113586Y-95565885D01*
X112121064Y-95553753D01*
X112121066Y-95553750D01*
X112124908Y-95547516D01*
X112179086Y-95384176D01*
X112180061Y-95374666D01*
X112189172Y-95285733D01*
X112189500Y-95282535D01*
X112189499Y-94709466D01*
X112187661Y-94691745D01*
X112179533Y-94613412D01*
X112178822Y-94606555D01*
X112124359Y-94443310D01*
X112035949Y-94300440D01*
X112017112Y-94231988D01*
X112035833Y-94168023D01*
X112124908Y-94023516D01*
X112179086Y-93860176D01*
X112189500Y-93758535D01*
X112189499Y-93185466D01*
X112188673Y-93177499D01*
X112179533Y-93089412D01*
X112178822Y-93082555D01*
X112124359Y-92919310D01*
X112033803Y-92772972D01*
X112036278Y-92771441D01*
X112014617Y-92717932D01*
X112014000Y-92705473D01*
X112014000Y-91883458D01*
X112020407Y-91843790D01*
X112023422Y-91834700D01*
X112025586Y-91828176D01*
X112027057Y-91813824D01*
X112035672Y-91729733D01*
X112036000Y-91726535D01*
X112035999Y-91153466D01*
X112025322Y-91050555D01*
X112023141Y-91044018D01*
X112023140Y-91044013D01*
X112020477Y-91036031D01*
X112014000Y-90996154D01*
X112014000Y-90989176D01*
X112034002Y-90921055D01*
X112057028Y-90894351D01*
X112813312Y-90232602D01*
X112884864Y-90201946D01*
X112930960Y-90197751D01*
X112930961Y-90197751D01*
X112937981Y-90197112D01*
X112944683Y-90194934D01*
X112944685Y-90194934D01*
X113102082Y-90143792D01*
X113108782Y-90141615D01*
X113154981Y-90114075D01*
X113256992Y-90053265D01*
X113256994Y-90053264D01*
X113263044Y-90049657D01*
X113393099Y-89925807D01*
X113410570Y-89899512D01*
X113488582Y-89782093D01*
X113492483Y-89776222D01*
X113556257Y-89608336D01*
X113557176Y-89608685D01*
X113593123Y-89550267D01*
X116078000Y-87376000D01*
X116078000Y-85431500D01*
X116098002Y-85363379D01*
X116151658Y-85316886D01*
X116204000Y-85305500D01*
X116466120Y-85305500D01*
X116510040Y-85313402D01*
G37*
G04 #@! TD.AperFunction*
M02*
