G04 #@! TF.GenerationSoftware,KiCad,Pcbnew,(6.0.9-0)*
G04 #@! TF.CreationDate,2023-02-01T14:54:16-05:00*
G04 #@! TF.ProjectId,beach_bod_02,62656163-685f-4626-9f64-5f30322e6b69,rev?*
G04 #@! TF.SameCoordinates,Original*
G04 #@! TF.FileFunction,Copper,L2,Bot*
G04 #@! TF.FilePolarity,Positive*
%FSLAX46Y46*%
G04 Gerber Fmt 4.6, Leading zero omitted, Abs format (unit mm)*
G04 Created by KiCad (PCBNEW (6.0.9-0)) date 2023-02-01 14:54:16*
%MOMM*%
%LPD*%
G01*
G04 APERTURE LIST*
G04 #@! TA.AperFunction,ComponentPad*
%ADD10C,3.200000*%
G04 #@! TD*
G04 #@! TA.AperFunction,ComponentPad*
%ADD11C,2.300000*%
G04 #@! TD*
G04 #@! TA.AperFunction,ComponentPad*
%ADD12C,4.400000*%
G04 #@! TD*
G04 #@! TA.AperFunction,ComponentPad*
%ADD13C,1.755000*%
G04 #@! TD*
G04 #@! TA.AperFunction,ComponentPad*
%ADD14C,2.025000*%
G04 #@! TD*
G04 #@! TA.AperFunction,ComponentPad*
%ADD15R,1.700000X1.700000*%
G04 #@! TD*
G04 #@! TA.AperFunction,ComponentPad*
%ADD16C,0.650000*%
G04 #@! TD*
G04 #@! TA.AperFunction,ComponentPad*
%ADD17O,1.108000X2.216000*%
G04 #@! TD*
G04 #@! TA.AperFunction,ViaPad*
%ADD18C,0.600000*%
G04 #@! TD*
G04 #@! TA.AperFunction,Conductor*
%ADD19C,0.250000*%
G04 #@! TD*
G04 #@! TA.AperFunction,Conductor*
%ADD20C,0.300000*%
G04 #@! TD*
G04 #@! TA.AperFunction,Conductor*
%ADD21C,0.200000*%
G04 #@! TD*
G04 APERTURE END LIST*
D10*
X160782000Y-96520000D03*
D11*
X167142000Y-91440000D03*
X156982000Y-91440000D03*
X167142000Y-101600000D03*
X156982000Y-101600000D03*
D10*
X160782000Y-81534000D03*
D11*
X167142000Y-76454000D03*
X156982000Y-86614000D03*
X167142000Y-86614000D03*
X156982000Y-76454000D03*
D12*
X100584000Y-99314000D03*
X162306000Y-89154000D03*
D13*
X100076000Y-88900000D03*
D14*
X97536000Y-92600000D03*
X102616000Y-92600000D03*
X102616000Y-85200000D03*
X97536000Y-85200000D03*
D15*
X137160000Y-96012000D03*
X148082000Y-101854000D03*
X131064000Y-90424000D03*
X115570000Y-90170000D03*
D12*
X100584000Y-78740000D03*
D16*
X125154000Y-80479000D03*
X124304000Y-80479000D03*
X123454000Y-80479000D03*
X122604000Y-80479000D03*
X121754000Y-80479000D03*
X120904000Y-80479000D03*
X120054000Y-80479000D03*
X119204000Y-80479000D03*
X119204000Y-79129000D03*
X120054000Y-79129000D03*
X120904000Y-79129000D03*
X121754000Y-79129000D03*
X122604000Y-79129000D03*
X123454000Y-79129000D03*
X124304000Y-79129000D03*
X125154000Y-79129000D03*
D17*
X126504000Y-79499000D03*
X117854000Y-79499000D03*
X117854000Y-76119000D03*
X126504000Y-76119000D03*
D16*
X111433000Y-80479000D03*
X110583000Y-80479000D03*
X109733000Y-80479000D03*
X108883000Y-80479000D03*
X108033000Y-80479000D03*
X107183000Y-80479000D03*
X106333000Y-80479000D03*
X105483000Y-80479000D03*
X105483000Y-79129000D03*
X106333000Y-79129000D03*
X107183000Y-79129000D03*
X108033000Y-79129000D03*
X108883000Y-79129000D03*
X109733000Y-79129000D03*
X110583000Y-79129000D03*
X111433000Y-79129000D03*
D17*
X112783000Y-79499000D03*
X104133000Y-79499000D03*
X104133000Y-76119000D03*
X112783000Y-76119000D03*
D15*
X148082000Y-89916000D03*
D18*
X115316000Y-102108000D03*
X134874000Y-94234000D03*
X141986000Y-95758000D03*
X133604000Y-94234000D03*
X109728000Y-93472000D03*
X119380000Y-95504000D03*
X138176000Y-87884000D03*
X143256000Y-95758000D03*
X121666000Y-98806000D03*
X134874000Y-95504000D03*
X119380000Y-94234000D03*
X116586000Y-102108000D03*
X109728000Y-94996000D03*
X134874000Y-97282000D03*
X120650000Y-98806000D03*
X139192000Y-87884000D03*
X140716000Y-95758000D03*
X145034000Y-97536000D03*
X139446000Y-91694000D03*
X139446000Y-100076000D03*
X124206000Y-93472000D03*
X124968000Y-93472000D03*
X124206000Y-87884000D03*
X124206000Y-92456000D03*
X124968000Y-92456000D03*
X124968000Y-87884000D03*
X112776000Y-89408000D03*
X141478000Y-84328000D03*
X130048000Y-84328000D03*
X119380000Y-92710000D03*
X111252000Y-89408000D03*
X144272000Y-83312000D03*
X122682000Y-84582000D03*
X112014000Y-89408000D03*
X129794000Y-98552000D03*
X139446000Y-84328000D03*
X132334000Y-84797500D03*
X129286000Y-84328000D03*
X121920000Y-84582000D03*
X138684000Y-84328000D03*
X129794000Y-97282000D03*
X130556000Y-97282000D03*
X120142000Y-84582000D03*
X116840000Y-84582000D03*
X119380000Y-84582000D03*
X125222000Y-84582000D03*
X130556000Y-98552000D03*
X119380000Y-91948000D03*
X112014000Y-88646000D03*
X112776000Y-88646000D03*
X142240000Y-84328000D03*
X111252000Y-88646000D03*
X145034000Y-83312000D03*
X137922000Y-78232000D03*
X137922000Y-77470000D03*
X100584000Y-82296000D03*
X114554000Y-77216000D03*
D19*
X139446000Y-91694000D02*
X139446000Y-100076000D01*
D20*
X110583000Y-80938619D02*
X110798381Y-81154000D01*
X120054000Y-80938619D02*
X120054000Y-80479000D01*
X110583000Y-80479000D02*
X110583000Y-80938619D01*
X110798381Y-81154000D02*
X119838619Y-81154000D01*
X119838619Y-81154000D02*
X120054000Y-80938619D01*
D21*
X107949884Y-82296000D02*
X109733000Y-80512884D01*
X110582381Y-81788000D02*
X122428000Y-81788000D01*
X109733000Y-80938619D02*
X110582381Y-81788000D01*
X109733000Y-80479000D02*
X109733000Y-80938619D01*
X122428000Y-81788000D02*
X123444000Y-80772000D01*
X100584000Y-82296000D02*
X107949884Y-82296000D01*
X114554000Y-77216000D02*
X114554000Y-77978000D01*
X107183000Y-79129000D02*
X107442000Y-78870000D01*
X107950000Y-77978000D02*
X114554000Y-77978000D01*
X119888000Y-77978000D02*
X120904000Y-78994000D01*
X114554000Y-77978000D02*
X119888000Y-77978000D01*
X107442000Y-78486000D02*
X107950000Y-77978000D01*
X107442000Y-78870000D02*
X107442000Y-78486000D01*
G04 #@! TA.AperFunction,Conductor*
G36*
X138372121Y-74942502D02*
G01*
X138418614Y-74996158D01*
X138430000Y-75048500D01*
X138430000Y-81408000D01*
X138409998Y-81476121D01*
X138356342Y-81522614D01*
X138304000Y-81534000D01*
X125094000Y-81534000D01*
X125025879Y-81513998D01*
X124979386Y-81460342D01*
X124968000Y-81408000D01*
X124968000Y-81013680D01*
X124984881Y-80950680D01*
X125058984Y-80822330D01*
X125058986Y-80822326D01*
X125062286Y-80816611D01*
X125115908Y-80651576D01*
X125134047Y-80479000D01*
X125115908Y-80306424D01*
X125062286Y-80141389D01*
X125005685Y-80043354D01*
X124984881Y-80007320D01*
X124968000Y-79944320D01*
X124968000Y-79663680D01*
X124984881Y-79600680D01*
X125058984Y-79472330D01*
X125058986Y-79472326D01*
X125062286Y-79466611D01*
X125115908Y-79301576D01*
X125134047Y-79129000D01*
X125115908Y-78956424D01*
X125062286Y-78791389D01*
X125016259Y-78711669D01*
X124984881Y-78657320D01*
X124968000Y-78594320D01*
X124968000Y-78232000D01*
X121043425Y-78232000D01*
X120975304Y-78211998D01*
X120954330Y-78195095D01*
X120346297Y-77587062D01*
X120335429Y-77574671D01*
X120321305Y-77556264D01*
X120316282Y-77549718D01*
X120190841Y-77453464D01*
X120044762Y-77392956D01*
X119927361Y-77377500D01*
X119888000Y-77372318D01*
X119879812Y-77373396D01*
X119856827Y-77376422D01*
X119840381Y-77377500D01*
X115484373Y-77377500D01*
X115416252Y-77357498D01*
X115369759Y-77303842D01*
X115358766Y-77241945D01*
X115359251Y-77238493D01*
X115359565Y-77216000D01*
X115339546Y-77037528D01*
X115333427Y-77019955D01*
X115282803Y-76874584D01*
X115280485Y-76867927D01*
X115185316Y-76715625D01*
X115121771Y-76651635D01*
X115063733Y-76593190D01*
X115063729Y-76593187D01*
X115058770Y-76588193D01*
X115047761Y-76581206D01*
X114948846Y-76518433D01*
X114907136Y-76491963D01*
X114877352Y-76481357D01*
X114744586Y-76434081D01*
X114744581Y-76434080D01*
X114737951Y-76431719D01*
X114730965Y-76430886D01*
X114730961Y-76430885D01*
X114603177Y-76415648D01*
X114559624Y-76410455D01*
X114552621Y-76411191D01*
X114552620Y-76411191D01*
X114388025Y-76428490D01*
X114388021Y-76428491D01*
X114381017Y-76429227D01*
X114374346Y-76431498D01*
X114217677Y-76484832D01*
X114217674Y-76484833D01*
X114211007Y-76487103D01*
X114205009Y-76490793D01*
X114205007Y-76490794D01*
X114186165Y-76502386D01*
X114058045Y-76581206D01*
X114053014Y-76586132D01*
X114053011Y-76586135D01*
X114045807Y-76593190D01*
X113929732Y-76706859D01*
X113925913Y-76712784D01*
X113925912Y-76712786D01*
X113836265Y-76851891D01*
X113832446Y-76857817D01*
X113771022Y-77026578D01*
X113748514Y-77204753D01*
X113749201Y-77211760D01*
X113749201Y-77211763D01*
X113751892Y-77239205D01*
X113738632Y-77308952D01*
X113689770Y-77360459D01*
X113626493Y-77377500D01*
X107997619Y-77377500D01*
X107981173Y-77376422D01*
X107958188Y-77373396D01*
X107950000Y-77372318D01*
X107793238Y-77392956D01*
X107647159Y-77453464D01*
X107603999Y-77486582D01*
X107521718Y-77549718D01*
X107516692Y-77556268D01*
X107502577Y-77574663D01*
X107491710Y-77587054D01*
X107051055Y-78027709D01*
X107038675Y-78038567D01*
X107013718Y-78057718D01*
X106954600Y-78134762D01*
X106917464Y-78183159D01*
X106867617Y-78303500D01*
X106861193Y-78319009D01*
X106816645Y-78374290D01*
X106749281Y-78396711D01*
X106693535Y-78385898D01*
X106595530Y-78342263D01*
X106595529Y-78342263D01*
X106589499Y-78339578D01*
X106492729Y-78319009D01*
X106426221Y-78304872D01*
X106426217Y-78304872D01*
X106419764Y-78303500D01*
X106246236Y-78303500D01*
X106239783Y-78304872D01*
X106239779Y-78304872D01*
X106173271Y-78319009D01*
X106076501Y-78339578D01*
X106070472Y-78342262D01*
X106070470Y-78342263D01*
X105924007Y-78407473D01*
X105924005Y-78407474D01*
X105917977Y-78410158D01*
X105777590Y-78512155D01*
X105661478Y-78641111D01*
X105574714Y-78791389D01*
X105521092Y-78956424D01*
X105502953Y-79129000D01*
X105521092Y-79301576D01*
X105574714Y-79466611D01*
X105661478Y-79616889D01*
X105688014Y-79646360D01*
X105754040Y-79719690D01*
X105784758Y-79783697D01*
X105775993Y-79854151D01*
X105754040Y-79888310D01*
X105661478Y-79991111D01*
X105574714Y-80141389D01*
X105521092Y-80306424D01*
X105502953Y-80479000D01*
X105521092Y-80651576D01*
X105574714Y-80816611D01*
X105661478Y-80966889D01*
X105777590Y-81095845D01*
X105917976Y-81197842D01*
X105924004Y-81200526D01*
X105924006Y-81200527D01*
X106070470Y-81265737D01*
X106076501Y-81268422D01*
X106139586Y-81281831D01*
X106153333Y-81284753D01*
X106215806Y-81318481D01*
X106250128Y-81380631D01*
X106245400Y-81451470D01*
X106203124Y-81508507D01*
X106136723Y-81533635D01*
X106127136Y-81534000D01*
X103250000Y-81534000D01*
X103181879Y-81513998D01*
X103135386Y-81460342D01*
X103124000Y-81408000D01*
X103124000Y-79680244D01*
X103130476Y-79640368D01*
X103149495Y-79583360D01*
X103197251Y-79440218D01*
X103262446Y-79121199D01*
X103288843Y-78796658D01*
X103289436Y-78740000D01*
X103286935Y-78698506D01*
X103270069Y-78418755D01*
X103270069Y-78418751D01*
X103269841Y-78414977D01*
X103266506Y-78396711D01*
X103212022Y-78098385D01*
X103212021Y-78098381D01*
X103211342Y-78094663D01*
X103210222Y-78091055D01*
X103210217Y-78091036D01*
X103129668Y-77831627D01*
X103124000Y-77794263D01*
X103124000Y-75048500D01*
X103144002Y-74980379D01*
X103197658Y-74933886D01*
X103250000Y-74922500D01*
X138304000Y-74922500D01*
X138372121Y-74942502D01*
G37*
G04 #@! TD.AperFunction*
G04 #@! TA.AperFunction,Conductor*
G36*
X114522827Y-78579578D02*
G01*
X114554000Y-78583682D01*
X114562188Y-78582604D01*
X114585173Y-78579578D01*
X114601619Y-78578500D01*
X119200387Y-78578500D01*
X119268508Y-78598502D01*
X119315001Y-78652158D01*
X119325105Y-78722432D01*
X119309506Y-78767501D01*
X119295714Y-78791389D01*
X119242092Y-78956424D01*
X119223953Y-79129000D01*
X119242092Y-79301576D01*
X119295714Y-79466611D01*
X119299014Y-79472326D01*
X119299016Y-79472330D01*
X119363119Y-79583360D01*
X119380000Y-79646360D01*
X119380000Y-79961640D01*
X119363119Y-80024640D01*
X119352315Y-80043354D01*
X119295714Y-80141389D01*
X119242092Y-80306424D01*
X119241402Y-80312991D01*
X119233237Y-80390671D01*
X119206223Y-80456328D01*
X119148002Y-80496957D01*
X119107927Y-80503500D01*
X111529073Y-80503500D01*
X111460952Y-80483498D01*
X111414459Y-80429842D01*
X111403763Y-80390671D01*
X111395598Y-80312991D01*
X111394908Y-80306424D01*
X111341286Y-80141389D01*
X111254522Y-79991111D01*
X111161960Y-79888310D01*
X111131242Y-79824303D01*
X111140007Y-79753849D01*
X111161960Y-79719690D01*
X111227986Y-79646360D01*
X111254522Y-79616889D01*
X111341286Y-79466611D01*
X111394908Y-79301576D01*
X111413047Y-79129000D01*
X111394908Y-78956424D01*
X111341286Y-78791389D01*
X111327494Y-78767501D01*
X111310756Y-78698506D01*
X111333976Y-78631414D01*
X111389783Y-78587526D01*
X111436613Y-78578500D01*
X114506381Y-78578500D01*
X114522827Y-78579578D01*
G37*
G04 #@! TD.AperFunction*
G04 #@! TA.AperFunction,Conductor*
G36*
X145738121Y-82062002D02*
G01*
X145784614Y-82115658D01*
X145796000Y-82168000D01*
X145796000Y-84964000D01*
X145775998Y-85032121D01*
X145722342Y-85078614D01*
X145670000Y-85090000D01*
X131061216Y-85090000D01*
X131061216Y-99188000D01*
X131041214Y-99256121D01*
X130987558Y-99302614D01*
X130935216Y-99314000D01*
X129158000Y-99314000D01*
X129089879Y-99293998D01*
X129043386Y-99240342D01*
X129032000Y-99188000D01*
X129032000Y-85090000D01*
X119888000Y-85090000D01*
X119888000Y-93092000D01*
X119867998Y-93160121D01*
X119814342Y-93206614D01*
X119762000Y-93218000D01*
X118744000Y-93218000D01*
X118675879Y-93197998D01*
X118629386Y-93144342D01*
X118618000Y-93092000D01*
X118618000Y-85090000D01*
X113792000Y-85090000D01*
X113792000Y-89093441D01*
X113771998Y-89161562D01*
X113744712Y-89191830D01*
X112556514Y-90142389D01*
X112490825Y-90169325D01*
X112477802Y-90170000D01*
X110616000Y-90170000D01*
X110547879Y-90149998D01*
X110501386Y-90096342D01*
X110490000Y-90044000D01*
X110490000Y-82516343D01*
X110510002Y-82448222D01*
X110563658Y-82401729D01*
X110599555Y-82391421D01*
X110613555Y-82389578D01*
X110630000Y-82388500D01*
X122380381Y-82388500D01*
X122396827Y-82389578D01*
X122428000Y-82393682D01*
X122436188Y-82392604D01*
X122467361Y-82388500D01*
X122576574Y-82374122D01*
X122584762Y-82373044D01*
X122730841Y-82312536D01*
X122856282Y-82216282D01*
X122875430Y-82191328D01*
X122886297Y-82178938D01*
X122986330Y-82078905D01*
X123048642Y-82044879D01*
X123075425Y-82042000D01*
X145670000Y-82042000D01*
X145738121Y-82062002D01*
G37*
G04 #@! TD.AperFunction*
G04 #@! TA.AperFunction,Conductor*
G36*
X102560621Y-74942502D02*
G01*
X102607114Y-74996158D01*
X102618500Y-75048500D01*
X102618500Y-76650692D01*
X102598498Y-76718813D01*
X102544842Y-76765306D01*
X102474568Y-76775410D01*
X102409988Y-76745916D01*
X102403172Y-76739554D01*
X102386410Y-76722704D01*
X102383738Y-76720018D01*
X102128029Y-76518433D01*
X101849954Y-76349029D01*
X101731453Y-76295150D01*
X101556994Y-76215827D01*
X101556986Y-76215824D01*
X101553542Y-76214258D01*
X101243085Y-76116073D01*
X101101071Y-76089368D01*
X100926805Y-76056597D01*
X100926800Y-76056596D01*
X100923081Y-76055897D01*
X100598166Y-76034601D01*
X100594386Y-76034809D01*
X100594385Y-76034809D01*
X100497156Y-76040160D01*
X100273045Y-76052494D01*
X100269318Y-76053155D01*
X100269314Y-76053155D01*
X100010625Y-76099001D01*
X99952429Y-76109315D01*
X99948804Y-76110420D01*
X99948799Y-76110421D01*
X99747196Y-76171866D01*
X99640961Y-76204244D01*
X99637497Y-76205775D01*
X99637490Y-76205778D01*
X99453938Y-76286926D01*
X99343153Y-76335903D01*
X99339899Y-76337839D01*
X99339893Y-76337842D01*
X99317780Y-76350998D01*
X99063319Y-76502386D01*
X98805513Y-76701282D01*
X98802812Y-76703941D01*
X98802805Y-76703947D01*
X98576177Y-76927044D01*
X98573469Y-76929710D01*
X98370548Y-77184360D01*
X98199690Y-77461544D01*
X98063369Y-77757247D01*
X97963560Y-78067185D01*
X97962841Y-78070901D01*
X97962839Y-78070909D01*
X97902428Y-78383151D01*
X97902427Y-78383160D01*
X97901709Y-78386870D01*
X97878712Y-78711669D01*
X97894902Y-79036879D01*
X97950045Y-79357789D01*
X98043341Y-79669749D01*
X98173439Y-79968242D01*
X98338455Y-80248944D01*
X98340756Y-80251959D01*
X98533698Y-80504775D01*
X98533703Y-80504781D01*
X98535998Y-80507788D01*
X98763208Y-80741025D01*
X99016792Y-80945276D01*
X99293078Y-81117583D01*
X99588063Y-81255451D01*
X99897474Y-81356881D01*
X100097180Y-81396605D01*
X100100362Y-81397238D01*
X100163271Y-81430146D01*
X100198403Y-81491841D01*
X100194603Y-81562735D01*
X100153077Y-81620321D01*
X100141801Y-81628135D01*
X100094048Y-81657512D01*
X100094042Y-81657516D01*
X100088045Y-81661206D01*
X100083014Y-81666132D01*
X100083011Y-81666135D01*
X100053025Y-81695500D01*
X99959732Y-81786859D01*
X99862446Y-81937817D01*
X99801022Y-82106578D01*
X99778514Y-82284753D01*
X99796039Y-82463486D01*
X99852726Y-82633896D01*
X99856373Y-82639918D01*
X99910508Y-82729305D01*
X99945759Y-82787512D01*
X99950648Y-82792575D01*
X99950649Y-82792576D01*
X100027713Y-82872378D01*
X100070514Y-82916699D01*
X100220789Y-83015036D01*
X100389116Y-83077636D01*
X100396097Y-83078567D01*
X100396099Y-83078568D01*
X100560149Y-83100457D01*
X100560153Y-83100457D01*
X100567130Y-83101388D01*
X100574142Y-83100750D01*
X100574146Y-83100750D01*
X100738960Y-83085751D01*
X100738961Y-83085751D01*
X100745981Y-83085112D01*
X100916782Y-83029615D01*
X100947714Y-83011176D01*
X101064992Y-82941265D01*
X101064994Y-82941264D01*
X101071044Y-82937657D01*
X101076143Y-82932801D01*
X101076146Y-82932799D01*
X101077769Y-82931253D01*
X101079053Y-82930592D01*
X101081758Y-82928539D01*
X101082119Y-82929014D01*
X101140895Y-82898762D01*
X101164660Y-82896500D01*
X107902265Y-82896500D01*
X107918711Y-82897578D01*
X107930203Y-82899091D01*
X107949884Y-82901682D01*
X107958072Y-82900604D01*
X107989245Y-82896500D01*
X108098458Y-82882122D01*
X108106646Y-82881044D01*
X108252725Y-82820536D01*
X108378166Y-82724282D01*
X108397314Y-82699328D01*
X108408181Y-82686938D01*
X109431038Y-81664082D01*
X109493350Y-81630056D01*
X109564166Y-81635121D01*
X109609228Y-81664082D01*
X110033963Y-82088817D01*
X110067989Y-82151129D01*
X110062924Y-82221944D01*
X110059483Y-82230252D01*
X110024978Y-82305807D01*
X110004976Y-82373928D01*
X110004338Y-82378368D01*
X110004337Y-82378371D01*
X109992100Y-82463486D01*
X109984500Y-82516343D01*
X109984500Y-90044000D01*
X109996052Y-90151449D01*
X110007438Y-90203791D01*
X110041567Y-90306333D01*
X110119354Y-90427373D01*
X110165847Y-90481029D01*
X110169240Y-90483969D01*
X110267774Y-90569350D01*
X110267777Y-90569352D01*
X110274586Y-90575252D01*
X110405464Y-90635022D01*
X110473585Y-90655024D01*
X110478025Y-90655662D01*
X110478028Y-90655663D01*
X110611554Y-90674861D01*
X110611557Y-90674861D01*
X110616000Y-90675500D01*
X112477802Y-90675500D01*
X112503968Y-90674822D01*
X112510826Y-90674467D01*
X112516186Y-90674189D01*
X112516207Y-90674188D01*
X112516991Y-90674147D01*
X112533673Y-90672849D01*
X112537765Y-90672531D01*
X112537766Y-90672531D01*
X112543073Y-90672118D01*
X112548227Y-90670822D01*
X112548233Y-90670821D01*
X112678242Y-90638129D01*
X112678241Y-90638129D01*
X112682609Y-90637031D01*
X112686767Y-90635326D01*
X112686773Y-90635324D01*
X112744141Y-90611800D01*
X112744146Y-90611798D01*
X112748298Y-90610095D01*
X112752167Y-90607818D01*
X112752173Y-90607815D01*
X112868422Y-90539399D01*
X112868426Y-90539396D01*
X112872297Y-90537118D01*
X114014790Y-89623123D01*
X114080477Y-89596188D01*
X114150300Y-89609042D01*
X114202090Y-89657605D01*
X114219500Y-89721513D01*
X114219501Y-90423579D01*
X114219501Y-91067376D01*
X114219870Y-91070770D01*
X114219870Y-91070776D01*
X114222305Y-91093188D01*
X114226149Y-91128580D01*
X114276474Y-91262824D01*
X114281854Y-91270003D01*
X114281856Y-91270006D01*
X114354982Y-91367576D01*
X114362454Y-91377546D01*
X114369635Y-91382928D01*
X114469994Y-91458144D01*
X114469997Y-91458146D01*
X114477176Y-91463526D01*
X114566561Y-91497034D01*
X114604025Y-91511079D01*
X114604027Y-91511079D01*
X114611420Y-91513851D01*
X114619270Y-91514704D01*
X114619271Y-91514704D01*
X114669217Y-91520130D01*
X114672623Y-91520500D01*
X115569868Y-91520500D01*
X116467376Y-91520499D01*
X116470770Y-91520130D01*
X116470776Y-91520130D01*
X116520722Y-91514705D01*
X116520726Y-91514704D01*
X116528580Y-91513851D01*
X116662824Y-91463526D01*
X116670003Y-91458146D01*
X116670006Y-91458144D01*
X116770365Y-91382928D01*
X116777546Y-91377546D01*
X116785018Y-91367576D01*
X116858144Y-91270006D01*
X116858146Y-91270003D01*
X116863526Y-91262824D01*
X116897034Y-91173439D01*
X116911079Y-91135975D01*
X116911079Y-91135973D01*
X116913851Y-91128580D01*
X116920500Y-91067377D01*
X116920499Y-89272624D01*
X116913851Y-89211420D01*
X116863526Y-89077176D01*
X116858146Y-89069997D01*
X116858144Y-89069994D01*
X116782928Y-88969635D01*
X116777546Y-88962454D01*
X116757593Y-88947500D01*
X116670006Y-88881856D01*
X116670003Y-88881854D01*
X116662824Y-88876474D01*
X116573439Y-88842966D01*
X116535975Y-88828921D01*
X116535973Y-88828921D01*
X116528580Y-88826149D01*
X116520730Y-88825296D01*
X116520729Y-88825296D01*
X116470774Y-88819869D01*
X116470773Y-88819869D01*
X116467377Y-88819500D01*
X115570132Y-88819500D01*
X114672624Y-88819501D01*
X114669230Y-88819870D01*
X114669224Y-88819870D01*
X114619278Y-88825295D01*
X114619274Y-88825296D01*
X114611420Y-88826149D01*
X114477176Y-88876474D01*
X114476901Y-88875739D01*
X114414650Y-88889353D01*
X114348102Y-88864615D01*
X114305493Y-88807827D01*
X114297500Y-88763664D01*
X114297500Y-85721500D01*
X114317502Y-85653379D01*
X114371158Y-85606886D01*
X114423500Y-85595500D01*
X117986500Y-85595500D01*
X118054621Y-85615502D01*
X118101114Y-85669158D01*
X118112500Y-85721500D01*
X118112500Y-93092000D01*
X118124052Y-93199449D01*
X118135438Y-93251791D01*
X118169567Y-93354333D01*
X118247354Y-93475373D01*
X118293847Y-93529029D01*
X118297240Y-93531969D01*
X118395774Y-93617350D01*
X118395777Y-93617352D01*
X118402586Y-93623252D01*
X118533464Y-93683022D01*
X118601585Y-93703024D01*
X118606025Y-93703662D01*
X118606028Y-93703663D01*
X118739554Y-93722861D01*
X118739557Y-93722861D01*
X118744000Y-93723500D01*
X119762000Y-93723500D01*
X119765348Y-93723140D01*
X119765349Y-93723140D01*
X119791032Y-93720379D01*
X119869449Y-93711948D01*
X119872733Y-93711234D01*
X119872737Y-93711233D01*
X119897808Y-93705779D01*
X119921791Y-93700562D01*
X120024333Y-93666433D01*
X120145373Y-93588646D01*
X120199029Y-93542153D01*
X120255487Y-93476997D01*
X120287350Y-93440226D01*
X120287352Y-93440223D01*
X120293252Y-93433414D01*
X120353022Y-93302536D01*
X120373024Y-93234415D01*
X120377579Y-93202737D01*
X120392861Y-93096446D01*
X120392861Y-93096443D01*
X120393500Y-93092000D01*
X120393500Y-85721500D01*
X120413502Y-85653379D01*
X120467158Y-85606886D01*
X120519500Y-85595500D01*
X128400500Y-85595500D01*
X128468621Y-85615502D01*
X128515114Y-85669158D01*
X128526500Y-85721500D01*
X128526500Y-99188000D01*
X128538052Y-99295449D01*
X128538766Y-99298733D01*
X128538767Y-99298737D01*
X128544221Y-99323808D01*
X128549438Y-99347791D01*
X128583567Y-99450333D01*
X128661354Y-99571373D01*
X128664303Y-99574776D01*
X128664305Y-99574779D01*
X128686110Y-99599943D01*
X128707847Y-99625029D01*
X128711240Y-99627969D01*
X128809774Y-99713350D01*
X128809777Y-99713352D01*
X128816586Y-99719252D01*
X128824783Y-99722996D01*
X128824784Y-99722996D01*
X128850158Y-99734584D01*
X128947464Y-99779022D01*
X129015585Y-99799024D01*
X129020025Y-99799662D01*
X129020028Y-99799663D01*
X129153554Y-99818861D01*
X129153557Y-99818861D01*
X129158000Y-99819500D01*
X130935216Y-99819500D01*
X130938564Y-99819140D01*
X130938565Y-99819140D01*
X130964248Y-99816379D01*
X131042665Y-99807948D01*
X131045949Y-99807234D01*
X131045953Y-99807233D01*
X131071024Y-99801779D01*
X131095007Y-99796562D01*
X131197549Y-99762433D01*
X131318589Y-99684646D01*
X131372245Y-99638153D01*
X131427159Y-99574779D01*
X131460566Y-99536226D01*
X131460568Y-99536223D01*
X131466468Y-99529414D01*
X131526238Y-99398536D01*
X131546240Y-99330415D01*
X131550795Y-99298737D01*
X131566077Y-99192446D01*
X131566077Y-99192443D01*
X131566716Y-99188000D01*
X131566716Y-96906669D01*
X135802001Y-96906669D01*
X135802371Y-96913490D01*
X135807895Y-96964352D01*
X135811521Y-96979604D01*
X135856676Y-97100054D01*
X135865214Y-97115649D01*
X135941715Y-97217724D01*
X135954276Y-97230285D01*
X136056351Y-97306786D01*
X136071946Y-97315324D01*
X136192394Y-97360478D01*
X136207649Y-97364105D01*
X136258514Y-97369631D01*
X136265328Y-97370000D01*
X136887885Y-97370000D01*
X136903124Y-97365525D01*
X136904329Y-97364135D01*
X136906000Y-97356452D01*
X136906000Y-97351884D01*
X137414000Y-97351884D01*
X137418475Y-97367123D01*
X137419865Y-97368328D01*
X137427548Y-97369999D01*
X138054669Y-97369999D01*
X138061490Y-97369629D01*
X138112352Y-97364105D01*
X138127604Y-97360479D01*
X138248054Y-97315324D01*
X138263649Y-97306786D01*
X138365724Y-97230285D01*
X138378285Y-97217724D01*
X138454786Y-97115649D01*
X138463324Y-97100054D01*
X138508478Y-96979606D01*
X138512105Y-96964351D01*
X138517631Y-96913486D01*
X138518000Y-96906672D01*
X138518000Y-96284115D01*
X138513525Y-96268876D01*
X138512135Y-96267671D01*
X138504452Y-96266000D01*
X137432115Y-96266000D01*
X137416876Y-96270475D01*
X137415671Y-96271865D01*
X137414000Y-96279548D01*
X137414000Y-97351884D01*
X136906000Y-97351884D01*
X136906000Y-96284115D01*
X136901525Y-96268876D01*
X136900135Y-96267671D01*
X136892452Y-96266000D01*
X135820116Y-96266000D01*
X135804877Y-96270475D01*
X135803672Y-96271865D01*
X135802001Y-96279548D01*
X135802001Y-96906669D01*
X131566716Y-96906669D01*
X131566716Y-95739885D01*
X135802000Y-95739885D01*
X135806475Y-95755124D01*
X135807865Y-95756329D01*
X135815548Y-95758000D01*
X136887885Y-95758000D01*
X136903124Y-95753525D01*
X136904329Y-95752135D01*
X136906000Y-95744452D01*
X136906000Y-95739885D01*
X137414000Y-95739885D01*
X137418475Y-95755124D01*
X137419865Y-95756329D01*
X137427548Y-95758000D01*
X138499884Y-95758000D01*
X138515123Y-95753525D01*
X138516328Y-95752135D01*
X138517999Y-95744452D01*
X138517999Y-95117331D01*
X138517629Y-95110510D01*
X138512105Y-95059648D01*
X138508479Y-95044396D01*
X138463324Y-94923946D01*
X138454786Y-94908351D01*
X138378285Y-94806276D01*
X138365724Y-94793715D01*
X138263649Y-94717214D01*
X138248054Y-94708676D01*
X138127606Y-94663522D01*
X138112351Y-94659895D01*
X138061486Y-94654369D01*
X138054672Y-94654000D01*
X137432115Y-94654000D01*
X137416876Y-94658475D01*
X137415671Y-94659865D01*
X137414000Y-94667548D01*
X137414000Y-95739885D01*
X136906000Y-95739885D01*
X136906000Y-94672116D01*
X136901525Y-94656877D01*
X136900135Y-94655672D01*
X136892452Y-94654001D01*
X136265331Y-94654001D01*
X136258510Y-94654371D01*
X136207648Y-94659895D01*
X136192396Y-94663521D01*
X136071946Y-94708676D01*
X136056351Y-94717214D01*
X135954276Y-94793715D01*
X135941715Y-94806276D01*
X135865214Y-94908351D01*
X135856676Y-94923946D01*
X135811522Y-95044394D01*
X135807895Y-95059649D01*
X135802369Y-95110514D01*
X135802000Y-95117328D01*
X135802000Y-95739885D01*
X131566716Y-95739885D01*
X131566716Y-91900499D01*
X131586718Y-91832378D01*
X131640374Y-91785885D01*
X131692716Y-91774499D01*
X131961376Y-91774499D01*
X131964770Y-91774130D01*
X131964776Y-91774130D01*
X132014722Y-91768705D01*
X132014726Y-91768704D01*
X132022580Y-91767851D01*
X132156824Y-91717526D01*
X132164003Y-91712146D01*
X132164006Y-91712144D01*
X132264365Y-91636928D01*
X132271546Y-91631546D01*
X132276928Y-91624365D01*
X132352144Y-91524006D01*
X132352146Y-91524003D01*
X132357526Y-91516824D01*
X132407851Y-91382580D01*
X132414500Y-91321377D01*
X132414499Y-89526624D01*
X132413633Y-89518652D01*
X132408705Y-89473278D01*
X132408704Y-89473274D01*
X132407851Y-89465420D01*
X132357526Y-89331176D01*
X132352146Y-89323997D01*
X132352144Y-89323994D01*
X132276928Y-89223635D01*
X132271546Y-89216454D01*
X132232346Y-89187075D01*
X132164006Y-89135856D01*
X132164003Y-89135854D01*
X132156824Y-89130474D01*
X132067439Y-89096966D01*
X132029975Y-89082921D01*
X132029973Y-89082921D01*
X132022580Y-89080149D01*
X132014730Y-89079296D01*
X132014729Y-89079296D01*
X131964774Y-89073869D01*
X131964773Y-89073869D01*
X131961377Y-89073500D01*
X131692716Y-89073500D01*
X131624595Y-89053498D01*
X131578102Y-88999842D01*
X131566716Y-88947500D01*
X131566716Y-85721500D01*
X131586718Y-85653379D01*
X131640374Y-85606886D01*
X131692716Y-85595500D01*
X132253392Y-85595500D01*
X132270056Y-85596607D01*
X132310149Y-85601957D01*
X132310153Y-85601957D01*
X132317130Y-85602888D01*
X132324142Y-85602250D01*
X132324146Y-85602250D01*
X132392611Y-85596019D01*
X132404030Y-85595500D01*
X145670000Y-85595500D01*
X145673348Y-85595140D01*
X145673349Y-85595140D01*
X145699032Y-85592379D01*
X145777449Y-85583948D01*
X145780733Y-85583234D01*
X145780737Y-85583233D01*
X145805808Y-85577779D01*
X145829791Y-85572562D01*
X145932333Y-85538433D01*
X146053373Y-85460646D01*
X146107029Y-85414153D01*
X146130135Y-85387487D01*
X146189860Y-85349104D01*
X146225359Y-85344000D01*
X146432000Y-85344000D01*
X146500121Y-85364002D01*
X146546614Y-85417658D01*
X146558000Y-85470000D01*
X146558000Y-93726000D01*
X147702000Y-93726000D01*
X147770121Y-93746002D01*
X147816614Y-93799658D01*
X147828000Y-93852000D01*
X147828000Y-98158336D01*
X147807998Y-98226457D01*
X147754342Y-98272950D01*
X147703504Y-98284327D01*
X147650358Y-98284961D01*
X146558000Y-98298000D01*
X146558000Y-103005500D01*
X146537998Y-103073621D01*
X146484342Y-103120114D01*
X146432000Y-103131500D01*
X97838741Y-103131500D01*
X97819357Y-103130000D01*
X97805050Y-103127772D01*
X97805047Y-103127772D01*
X97796177Y-103126391D01*
X97787276Y-103127555D01*
X97787272Y-103127555D01*
X97783918Y-103127994D01*
X97756604Y-103128578D01*
X97650002Y-103119252D01*
X97623253Y-103116912D01*
X97601624Y-103113098D01*
X97450589Y-103072628D01*
X97429953Y-103065117D01*
X97365612Y-103035114D01*
X97288240Y-102999035D01*
X97269219Y-102988053D01*
X97141133Y-102898366D01*
X97124309Y-102884248D01*
X97013752Y-102773691D01*
X96999634Y-102756867D01*
X96909947Y-102628781D01*
X96898965Y-102609760D01*
X96832884Y-102468050D01*
X96825372Y-102447411D01*
X96784902Y-102296376D01*
X96781088Y-102274747D01*
X96770300Y-102151439D01*
X96770325Y-102129194D01*
X96770687Y-102125162D01*
X96771496Y-102120354D01*
X96771647Y-102108000D01*
X96767773Y-102080949D01*
X96766500Y-102063087D01*
X96766500Y-99285669D01*
X97878712Y-99285669D01*
X97881805Y-99347791D01*
X97894358Y-99599943D01*
X97894902Y-99610879D01*
X97895543Y-99614610D01*
X97895544Y-99614618D01*
X97944158Y-99897528D01*
X97950045Y-99931789D01*
X97951133Y-99935428D01*
X97951134Y-99935431D01*
X97998716Y-100094532D01*
X98043341Y-100243749D01*
X98173439Y-100542242D01*
X98175362Y-100545514D01*
X98175364Y-100545517D01*
X98188294Y-100567512D01*
X98338455Y-100822944D01*
X98340756Y-100825959D01*
X98533698Y-101078775D01*
X98533703Y-101078781D01*
X98535998Y-101081788D01*
X98763208Y-101315025D01*
X99016792Y-101519276D01*
X99293078Y-101691583D01*
X99588063Y-101829451D01*
X99897474Y-101930881D01*
X100216830Y-101994405D01*
X100220602Y-101994692D01*
X100220610Y-101994693D01*
X100537728Y-102018815D01*
X100537733Y-102018815D01*
X100541505Y-102019102D01*
X100866795Y-102004615D01*
X101187989Y-101951154D01*
X101500434Y-101859493D01*
X101799604Y-101730959D01*
X101802882Y-101729055D01*
X101802888Y-101729052D01*
X101966708Y-101633897D01*
X102081165Y-101567415D01*
X102341040Y-101371230D01*
X102575464Y-101145245D01*
X102577862Y-101142300D01*
X102778643Y-100895678D01*
X102778647Y-100895672D01*
X102781040Y-100892733D01*
X102954792Y-100617354D01*
X103094202Y-100323095D01*
X103180391Y-100064753D01*
X138640514Y-100064753D01*
X138641201Y-100071760D01*
X138641201Y-100071763D01*
X138642005Y-100079963D01*
X138658039Y-100243486D01*
X138660262Y-100250168D01*
X138660262Y-100250169D01*
X138668967Y-100276336D01*
X138714726Y-100413896D01*
X138718373Y-100419918D01*
X138803497Y-100560474D01*
X138807759Y-100567512D01*
X138932514Y-100696699D01*
X139082789Y-100795036D01*
X139251116Y-100857636D01*
X139258097Y-100858567D01*
X139258099Y-100858568D01*
X139422149Y-100880457D01*
X139422153Y-100880457D01*
X139429130Y-100881388D01*
X139436142Y-100880750D01*
X139436146Y-100880750D01*
X139600960Y-100865751D01*
X139600961Y-100865751D01*
X139607981Y-100865112D01*
X139778782Y-100809615D01*
X139860040Y-100761176D01*
X139926992Y-100721265D01*
X139926994Y-100721264D01*
X139933044Y-100717657D01*
X140063099Y-100593807D01*
X140080570Y-100567512D01*
X140158582Y-100450093D01*
X140162483Y-100444222D01*
X140208495Y-100323095D01*
X140223757Y-100282919D01*
X140223758Y-100282914D01*
X140226257Y-100276336D01*
X140251251Y-100098493D01*
X140251565Y-100076000D01*
X140231546Y-99897528D01*
X140225427Y-99879955D01*
X140174803Y-99734584D01*
X140172485Y-99727927D01*
X140090646Y-99596957D01*
X140071500Y-99530187D01*
X140071500Y-92237203D01*
X140092551Y-92167477D01*
X140162483Y-92062222D01*
X140177168Y-92023564D01*
X140223757Y-91900919D01*
X140223758Y-91900914D01*
X140226257Y-91894336D01*
X140244423Y-91765076D01*
X140250700Y-91720416D01*
X140250700Y-91720411D01*
X140251251Y-91716493D01*
X140251565Y-91694000D01*
X140231546Y-91515528D01*
X140225427Y-91497955D01*
X140174803Y-91352584D01*
X140172485Y-91345927D01*
X140157145Y-91321377D01*
X140081049Y-91199599D01*
X140077316Y-91193625D01*
X139979110Y-91094731D01*
X139955733Y-91071190D01*
X139955729Y-91071187D01*
X139950770Y-91066193D01*
X139939761Y-91059206D01*
X139860371Y-91008824D01*
X139799136Y-90969963D01*
X139769352Y-90959357D01*
X139636586Y-90912081D01*
X139636581Y-90912080D01*
X139629951Y-90909719D01*
X139622965Y-90908886D01*
X139622961Y-90908885D01*
X139495177Y-90893648D01*
X139451624Y-90888455D01*
X139444621Y-90889191D01*
X139444620Y-90889191D01*
X139280025Y-90906490D01*
X139280021Y-90906491D01*
X139273017Y-90907227D01*
X139266346Y-90909498D01*
X139109677Y-90962832D01*
X139109674Y-90962833D01*
X139103007Y-90965103D01*
X139097009Y-90968793D01*
X139097007Y-90968794D01*
X139031940Y-91008824D01*
X138950045Y-91059206D01*
X138945014Y-91064132D01*
X138945011Y-91064135D01*
X138913768Y-91094731D01*
X138821732Y-91184859D01*
X138817913Y-91190784D01*
X138817912Y-91190786D01*
X138783861Y-91243623D01*
X138724446Y-91335817D01*
X138722037Y-91342437D01*
X138722035Y-91342440D01*
X138707299Y-91382928D01*
X138663022Y-91504578D01*
X138640514Y-91682753D01*
X138641201Y-91689760D01*
X138641201Y-91689763D01*
X138645130Y-91729830D01*
X138658039Y-91861486D01*
X138660262Y-91868168D01*
X138660262Y-91868169D01*
X138668967Y-91894336D01*
X138714726Y-92031896D01*
X138796836Y-92167475D01*
X138802276Y-92176458D01*
X138820500Y-92241729D01*
X138820500Y-99531688D01*
X138800411Y-99599943D01*
X138724446Y-99717817D01*
X138663022Y-99886578D01*
X138640514Y-100064753D01*
X103180391Y-100064753D01*
X103197251Y-100014218D01*
X103262446Y-99695199D01*
X103288843Y-99370658D01*
X103289436Y-99314000D01*
X103269841Y-98988977D01*
X103265399Y-98964651D01*
X103212025Y-98672404D01*
X103211342Y-98668663D01*
X103114784Y-98357696D01*
X102981567Y-98060582D01*
X102813621Y-97781624D01*
X102811294Y-97778640D01*
X102811289Y-97778633D01*
X102615713Y-97527858D01*
X102615711Y-97527856D01*
X102613377Y-97524863D01*
X102383738Y-97294018D01*
X102128029Y-97092433D01*
X101849954Y-96923029D01*
X101731453Y-96869150D01*
X101556994Y-96789827D01*
X101556986Y-96789824D01*
X101553542Y-96788258D01*
X101243085Y-96690073D01*
X101101071Y-96663368D01*
X100926805Y-96630597D01*
X100926800Y-96630596D01*
X100923081Y-96629897D01*
X100598166Y-96608601D01*
X100594386Y-96608809D01*
X100594385Y-96608809D01*
X100497156Y-96614160D01*
X100273045Y-96626494D01*
X100269318Y-96627155D01*
X100269314Y-96627155D01*
X100010625Y-96673001D01*
X99952429Y-96683315D01*
X99948804Y-96684420D01*
X99948799Y-96684421D01*
X99747196Y-96745866D01*
X99640961Y-96778244D01*
X99637497Y-96779775D01*
X99637490Y-96779778D01*
X99453938Y-96860926D01*
X99343153Y-96909903D01*
X99339899Y-96911839D01*
X99339893Y-96911842D01*
X99225992Y-96979606D01*
X99063319Y-97076386D01*
X98805513Y-97275282D01*
X98802812Y-97277941D01*
X98802805Y-97277947D01*
X98576177Y-97501044D01*
X98573469Y-97503710D01*
X98571105Y-97506677D01*
X98571102Y-97506680D01*
X98556613Y-97524863D01*
X98370548Y-97758360D01*
X98199690Y-98035544D01*
X98063369Y-98331247D01*
X98062210Y-98334848D01*
X98062207Y-98334854D01*
X98053682Y-98361327D01*
X97963560Y-98641185D01*
X97962841Y-98644901D01*
X97962839Y-98644909D01*
X97902428Y-98957151D01*
X97902427Y-98957160D01*
X97901709Y-98960870D01*
X97901442Y-98964646D01*
X97901441Y-98964651D01*
X97878980Y-99281880D01*
X97878712Y-99285669D01*
X96766500Y-99285669D01*
X96766500Y-94115613D01*
X96786502Y-94047492D01*
X96840158Y-94000999D01*
X96910432Y-93990895D01*
X96940718Y-93999204D01*
X97060113Y-94048659D01*
X97069499Y-94051708D01*
X97292593Y-94105269D01*
X97302340Y-94106812D01*
X97531070Y-94124814D01*
X97540930Y-94124814D01*
X97769660Y-94106812D01*
X97779407Y-94105269D01*
X98002501Y-94051708D01*
X98011886Y-94048659D01*
X98223855Y-93960859D01*
X98232650Y-93956377D01*
X98403535Y-93851658D01*
X98412490Y-93841760D01*
X101739070Y-93841760D01*
X101744797Y-93849410D01*
X101919350Y-93956377D01*
X101928145Y-93960859D01*
X102140114Y-94048659D01*
X102149499Y-94051708D01*
X102372593Y-94105269D01*
X102382340Y-94106812D01*
X102611070Y-94124814D01*
X102620930Y-94124814D01*
X102834565Y-94108000D01*
X123192500Y-94108000D01*
X123204052Y-94215449D01*
X123215438Y-94267791D01*
X123249567Y-94370333D01*
X123327354Y-94491373D01*
X123373847Y-94545029D01*
X123377240Y-94547969D01*
X123475774Y-94633350D01*
X123475777Y-94633352D01*
X123482586Y-94639252D01*
X123613464Y-94699022D01*
X123646343Y-94708676D01*
X123675421Y-94717214D01*
X123681585Y-94719024D01*
X123686025Y-94719662D01*
X123686028Y-94719663D01*
X123819554Y-94738861D01*
X123819557Y-94738861D01*
X123824000Y-94739500D01*
X125350000Y-94739500D01*
X125353348Y-94739140D01*
X125353349Y-94739140D01*
X125379032Y-94736379D01*
X125457449Y-94727948D01*
X125460733Y-94727234D01*
X125460737Y-94727233D01*
X125485808Y-94721779D01*
X125509791Y-94716562D01*
X125612333Y-94682433D01*
X125733373Y-94604646D01*
X125787029Y-94558153D01*
X125841943Y-94494779D01*
X125875350Y-94456226D01*
X125875352Y-94456223D01*
X125881252Y-94449414D01*
X125941022Y-94318536D01*
X125961024Y-94250415D01*
X125965579Y-94218737D01*
X125980861Y-94112446D01*
X125980861Y-94112443D01*
X125981500Y-94108000D01*
X125981500Y-87248000D01*
X125969948Y-87140551D01*
X125958562Y-87088209D01*
X125924433Y-86985667D01*
X125846646Y-86864627D01*
X125800153Y-86810971D01*
X125734757Y-86754305D01*
X125698226Y-86722650D01*
X125698223Y-86722648D01*
X125691414Y-86716748D01*
X125560536Y-86656978D01*
X125492415Y-86636976D01*
X125487975Y-86636338D01*
X125487972Y-86636337D01*
X125354446Y-86617139D01*
X125354443Y-86617139D01*
X125350000Y-86616500D01*
X123824000Y-86616500D01*
X123820652Y-86616860D01*
X123820651Y-86616860D01*
X123818056Y-86617139D01*
X123716551Y-86628052D01*
X123713267Y-86628766D01*
X123713263Y-86628767D01*
X123688192Y-86634221D01*
X123664209Y-86639438D01*
X123561667Y-86673567D01*
X123440627Y-86751354D01*
X123386971Y-86797847D01*
X123384031Y-86801240D01*
X123298650Y-86899774D01*
X123298648Y-86899777D01*
X123292748Y-86906586D01*
X123232978Y-87037464D01*
X123212976Y-87105585D01*
X123212338Y-87110025D01*
X123212337Y-87110028D01*
X123207949Y-87140551D01*
X123192500Y-87248000D01*
X123192500Y-94108000D01*
X102834565Y-94108000D01*
X102849660Y-94106812D01*
X102859407Y-94105269D01*
X103082501Y-94051708D01*
X103091886Y-94048659D01*
X103303855Y-93960859D01*
X103312650Y-93956377D01*
X103483535Y-93851658D01*
X103492997Y-93841200D01*
X103489214Y-93832424D01*
X102628812Y-92972022D01*
X102614868Y-92964408D01*
X102613035Y-92964539D01*
X102606420Y-92968790D01*
X101745830Y-93829380D01*
X101739070Y-93841760D01*
X98412490Y-93841760D01*
X98412997Y-93841200D01*
X98409214Y-93832424D01*
X97265885Y-92689095D01*
X97231859Y-92626783D01*
X97233694Y-92601132D01*
X97900408Y-92601132D01*
X97900539Y-92602965D01*
X97904790Y-92609580D01*
X98765380Y-93470170D01*
X98777760Y-93476930D01*
X98785410Y-93471203D01*
X98892377Y-93296650D01*
X98896859Y-93287855D01*
X98984659Y-93075886D01*
X98987708Y-93066501D01*
X99041269Y-92843407D01*
X99042812Y-92833660D01*
X99060814Y-92604930D01*
X101091186Y-92604930D01*
X101109188Y-92833660D01*
X101110731Y-92843407D01*
X101164292Y-93066501D01*
X101167341Y-93075886D01*
X101255141Y-93287855D01*
X101259623Y-93296650D01*
X101364342Y-93467535D01*
X101374800Y-93476997D01*
X101383576Y-93473214D01*
X102243978Y-92612812D01*
X102250356Y-92601132D01*
X102980408Y-92601132D01*
X102980539Y-92602965D01*
X102984790Y-92609580D01*
X103845380Y-93470170D01*
X103857760Y-93476930D01*
X103865410Y-93471203D01*
X103972377Y-93296650D01*
X103976859Y-93287855D01*
X104064659Y-93075886D01*
X104067708Y-93066501D01*
X104121269Y-92843407D01*
X104122812Y-92833660D01*
X104140814Y-92604930D01*
X104140814Y-92595070D01*
X104122812Y-92366340D01*
X104121269Y-92356593D01*
X104067708Y-92133499D01*
X104064659Y-92124114D01*
X103976859Y-91912145D01*
X103972377Y-91903350D01*
X103867658Y-91732465D01*
X103857200Y-91723003D01*
X103848424Y-91726786D01*
X102988022Y-92587188D01*
X102980408Y-92601132D01*
X102250356Y-92601132D01*
X102251592Y-92598868D01*
X102251461Y-92597035D01*
X102247210Y-92590420D01*
X101386620Y-91729830D01*
X101374240Y-91723070D01*
X101366590Y-91728797D01*
X101259623Y-91903350D01*
X101255141Y-91912145D01*
X101167341Y-92124114D01*
X101164292Y-92133499D01*
X101110731Y-92356593D01*
X101109188Y-92366340D01*
X101091186Y-92595070D01*
X101091186Y-92604930D01*
X99060814Y-92604930D01*
X99060814Y-92595070D01*
X99042812Y-92366340D01*
X99041269Y-92356593D01*
X98987708Y-92133499D01*
X98984659Y-92124114D01*
X98896859Y-91912145D01*
X98892377Y-91903350D01*
X98787658Y-91732465D01*
X98777200Y-91723003D01*
X98768424Y-91726786D01*
X97908022Y-92587188D01*
X97900408Y-92601132D01*
X97233694Y-92601132D01*
X97236924Y-92555968D01*
X97265885Y-92510905D01*
X98406170Y-91370620D01*
X98412624Y-91358800D01*
X101739003Y-91358800D01*
X101742786Y-91367576D01*
X102603188Y-92227978D01*
X102617132Y-92235592D01*
X102618965Y-92235461D01*
X102625580Y-92231210D01*
X103486170Y-91370620D01*
X103492930Y-91358240D01*
X103487203Y-91350590D01*
X103312650Y-91243623D01*
X103303855Y-91239141D01*
X103091886Y-91151341D01*
X103082501Y-91148292D01*
X102859407Y-91094731D01*
X102849660Y-91093188D01*
X102620930Y-91075186D01*
X102611070Y-91075186D01*
X102382340Y-91093188D01*
X102372593Y-91094731D01*
X102149499Y-91148292D01*
X102140114Y-91151341D01*
X101928145Y-91239141D01*
X101919350Y-91243623D01*
X101748465Y-91348342D01*
X101739003Y-91358800D01*
X98412624Y-91358800D01*
X98412930Y-91358240D01*
X98407203Y-91350590D01*
X98232650Y-91243623D01*
X98223855Y-91239141D01*
X98011886Y-91151341D01*
X98002501Y-91148292D01*
X97779407Y-91094731D01*
X97769660Y-91093188D01*
X97540930Y-91075186D01*
X97531070Y-91075186D01*
X97302340Y-91093188D01*
X97292593Y-91094731D01*
X97069499Y-91148292D01*
X97060113Y-91151341D01*
X96940718Y-91200796D01*
X96870128Y-91208385D01*
X96806641Y-91176605D01*
X96770414Y-91115547D01*
X96766500Y-91084387D01*
X96766500Y-88866217D01*
X98693690Y-88866217D01*
X98693987Y-88871369D01*
X98693987Y-88871373D01*
X98695638Y-88900000D01*
X98706734Y-89092438D01*
X98707869Y-89097475D01*
X98707870Y-89097481D01*
X98755412Y-89308442D01*
X98756550Y-89313491D01*
X98758494Y-89318277D01*
X98758495Y-89318282D01*
X98832296Y-89500031D01*
X98841801Y-89523439D01*
X98960197Y-89716644D01*
X99108559Y-89887918D01*
X99282903Y-90032660D01*
X99287359Y-90035264D01*
X99287362Y-90035266D01*
X99474087Y-90144380D01*
X99478545Y-90146985D01*
X99690233Y-90227820D01*
X99695299Y-90228851D01*
X99695300Y-90228851D01*
X99747356Y-90239442D01*
X99912280Y-90272996D01*
X100039466Y-90277660D01*
X100133560Y-90281111D01*
X100133565Y-90281111D01*
X100138724Y-90281300D01*
X100143844Y-90280644D01*
X100143846Y-90280644D01*
X100215901Y-90271413D01*
X100363484Y-90252507D01*
X100368433Y-90251022D01*
X100368439Y-90251021D01*
X100575581Y-90188875D01*
X100580524Y-90187392D01*
X100784013Y-90087704D01*
X100840588Y-90047349D01*
X100964277Y-89959123D01*
X100964282Y-89959119D01*
X100968489Y-89956118D01*
X101128997Y-89796170D01*
X101261225Y-89612155D01*
X101269117Y-89596188D01*
X101329862Y-89473278D01*
X101361623Y-89409014D01*
X101417946Y-89223635D01*
X101425991Y-89197156D01*
X101425992Y-89197150D01*
X101427495Y-89192204D01*
X101441532Y-89085580D01*
X101456635Y-88970868D01*
X101456636Y-88970861D01*
X101457072Y-88967546D01*
X101457154Y-88964193D01*
X101458641Y-88903364D01*
X101458641Y-88903360D01*
X101458723Y-88900000D01*
X101442975Y-88708454D01*
X101440580Y-88679316D01*
X101440579Y-88679310D01*
X101440156Y-88674165D01*
X101384954Y-88454396D01*
X101382895Y-88449660D01*
X101296659Y-88251330D01*
X101296657Y-88251327D01*
X101294599Y-88246593D01*
X101291793Y-88242255D01*
X101174328Y-88060682D01*
X101174323Y-88060676D01*
X101171517Y-88056338D01*
X101019015Y-87888740D01*
X101014964Y-87885541D01*
X101014960Y-87885537D01*
X100845241Y-87751502D01*
X100845236Y-87751499D01*
X100841187Y-87748301D01*
X100836671Y-87745808D01*
X100836668Y-87745806D01*
X100647334Y-87641288D01*
X100647330Y-87641286D01*
X100642810Y-87638791D01*
X100637941Y-87637067D01*
X100637937Y-87637065D01*
X100434086Y-87564877D01*
X100434082Y-87564876D01*
X100429211Y-87563151D01*
X100424118Y-87562244D01*
X100424115Y-87562243D01*
X100329480Y-87545386D01*
X100206126Y-87523414D01*
X100120153Y-87522363D01*
X99984716Y-87520708D01*
X99984714Y-87520708D01*
X99979546Y-87520645D01*
X99850531Y-87540387D01*
X99760666Y-87554138D01*
X99760663Y-87554139D01*
X99755557Y-87554920D01*
X99725094Y-87564877D01*
X99545086Y-87623713D01*
X99545084Y-87623714D01*
X99540173Y-87625319D01*
X99339180Y-87729949D01*
X99335047Y-87733052D01*
X99335044Y-87733054D01*
X99318060Y-87745806D01*
X99157974Y-87866002D01*
X99001422Y-88029824D01*
X98873729Y-88217015D01*
X98778324Y-88422548D01*
X98717769Y-88640904D01*
X98693690Y-88866217D01*
X96766500Y-88866217D01*
X96766500Y-86715613D01*
X96786502Y-86647492D01*
X96840158Y-86600999D01*
X96910432Y-86590895D01*
X96940718Y-86599204D01*
X97060113Y-86648659D01*
X97069499Y-86651708D01*
X97292593Y-86705269D01*
X97302340Y-86706812D01*
X97531070Y-86724814D01*
X97540930Y-86724814D01*
X97769660Y-86706812D01*
X97779407Y-86705269D01*
X98002501Y-86651708D01*
X98011886Y-86648659D01*
X98223855Y-86560859D01*
X98232650Y-86556377D01*
X98403535Y-86451658D01*
X98412490Y-86441760D01*
X101739070Y-86441760D01*
X101744797Y-86449410D01*
X101919350Y-86556377D01*
X101928145Y-86560859D01*
X102140114Y-86648659D01*
X102149499Y-86651708D01*
X102372593Y-86705269D01*
X102382340Y-86706812D01*
X102611070Y-86724814D01*
X102620930Y-86724814D01*
X102849660Y-86706812D01*
X102859407Y-86705269D01*
X103082501Y-86651708D01*
X103091886Y-86648659D01*
X103303855Y-86560859D01*
X103312650Y-86556377D01*
X103483535Y-86451658D01*
X103492997Y-86441200D01*
X103489214Y-86432424D01*
X102628812Y-85572022D01*
X102614868Y-85564408D01*
X102613035Y-85564539D01*
X102606420Y-85568790D01*
X101745830Y-86429380D01*
X101739070Y-86441760D01*
X98412490Y-86441760D01*
X98412997Y-86441200D01*
X98409214Y-86432424D01*
X97265885Y-85289095D01*
X97231859Y-85226783D01*
X97233694Y-85201132D01*
X97900408Y-85201132D01*
X97900539Y-85202965D01*
X97904790Y-85209580D01*
X98765380Y-86070170D01*
X98777760Y-86076930D01*
X98785410Y-86071203D01*
X98892377Y-85896650D01*
X98896859Y-85887855D01*
X98984659Y-85675886D01*
X98987708Y-85666501D01*
X99041269Y-85443407D01*
X99042812Y-85433660D01*
X99060814Y-85204930D01*
X101091186Y-85204930D01*
X101109188Y-85433660D01*
X101110731Y-85443407D01*
X101164292Y-85666501D01*
X101167341Y-85675886D01*
X101255141Y-85887855D01*
X101259623Y-85896650D01*
X101364342Y-86067535D01*
X101374800Y-86076997D01*
X101383576Y-86073214D01*
X102243978Y-85212812D01*
X102250356Y-85201132D01*
X102980408Y-85201132D01*
X102980539Y-85202965D01*
X102984790Y-85209580D01*
X103845380Y-86070170D01*
X103857760Y-86076930D01*
X103865410Y-86071203D01*
X103972377Y-85896650D01*
X103976859Y-85887855D01*
X104064659Y-85675886D01*
X104067708Y-85666501D01*
X104121269Y-85443407D01*
X104122812Y-85433660D01*
X104140814Y-85204930D01*
X104140814Y-85195070D01*
X104122812Y-84966340D01*
X104121269Y-84956593D01*
X104067708Y-84733499D01*
X104064659Y-84724114D01*
X103976859Y-84512145D01*
X103972377Y-84503350D01*
X103867658Y-84332465D01*
X103857200Y-84323003D01*
X103848424Y-84326786D01*
X102988022Y-85187188D01*
X102980408Y-85201132D01*
X102250356Y-85201132D01*
X102251592Y-85198868D01*
X102251461Y-85197035D01*
X102247210Y-85190420D01*
X101386620Y-84329830D01*
X101374240Y-84323070D01*
X101366590Y-84328797D01*
X101259623Y-84503350D01*
X101255141Y-84512145D01*
X101167341Y-84724114D01*
X101164292Y-84733499D01*
X101110731Y-84956593D01*
X101109188Y-84966340D01*
X101091186Y-85195070D01*
X101091186Y-85204930D01*
X99060814Y-85204930D01*
X99060814Y-85195070D01*
X99042812Y-84966340D01*
X99041269Y-84956593D01*
X98987708Y-84733499D01*
X98984659Y-84724114D01*
X98896859Y-84512145D01*
X98892377Y-84503350D01*
X98787658Y-84332465D01*
X98777200Y-84323003D01*
X98768424Y-84326786D01*
X97908022Y-85187188D01*
X97900408Y-85201132D01*
X97233694Y-85201132D01*
X97236924Y-85155968D01*
X97265885Y-85110905D01*
X98406170Y-83970620D01*
X98412624Y-83958800D01*
X101739003Y-83958800D01*
X101742786Y-83967576D01*
X102603188Y-84827978D01*
X102617132Y-84835592D01*
X102618965Y-84835461D01*
X102625580Y-84831210D01*
X103486170Y-83970620D01*
X103492930Y-83958240D01*
X103487203Y-83950590D01*
X103312650Y-83843623D01*
X103303855Y-83839141D01*
X103091886Y-83751341D01*
X103082501Y-83748292D01*
X102859407Y-83694731D01*
X102849660Y-83693188D01*
X102620930Y-83675186D01*
X102611070Y-83675186D01*
X102382340Y-83693188D01*
X102372593Y-83694731D01*
X102149499Y-83748292D01*
X102140114Y-83751341D01*
X101928145Y-83839141D01*
X101919350Y-83843623D01*
X101748465Y-83948342D01*
X101739003Y-83958800D01*
X98412624Y-83958800D01*
X98412930Y-83958240D01*
X98407203Y-83950590D01*
X98232650Y-83843623D01*
X98223855Y-83839141D01*
X98011886Y-83751341D01*
X98002501Y-83748292D01*
X97779407Y-83694731D01*
X97769660Y-83693188D01*
X97540930Y-83675186D01*
X97531070Y-83675186D01*
X97302340Y-83693188D01*
X97292593Y-83694731D01*
X97069499Y-83748292D01*
X97060113Y-83751341D01*
X96940718Y-83800796D01*
X96870128Y-83808385D01*
X96806641Y-83776605D01*
X96770414Y-83715547D01*
X96766500Y-83684387D01*
X96766500Y-75744576D01*
X96768246Y-75723671D01*
X96770689Y-75709148D01*
X96771496Y-75704354D01*
X96771647Y-75692000D01*
X96770755Y-75685772D01*
X96770699Y-75683232D01*
X96770640Y-75682326D01*
X96770679Y-75682323D01*
X96770089Y-75655557D01*
X96780070Y-75554226D01*
X96784886Y-75530009D01*
X96821475Y-75409392D01*
X96830924Y-75386582D01*
X96890334Y-75275434D01*
X96904057Y-75254897D01*
X96984009Y-75157475D01*
X97001475Y-75140009D01*
X97098897Y-75060057D01*
X97119434Y-75046334D01*
X97186191Y-75010651D01*
X97230583Y-74986924D01*
X97253392Y-74977475D01*
X97374009Y-74940886D01*
X97398226Y-74936070D01*
X97496190Y-74926421D01*
X97511966Y-74926864D01*
X97511975Y-74926118D01*
X97520952Y-74926228D01*
X97529823Y-74927609D01*
X97538725Y-74926445D01*
X97538728Y-74926445D01*
X97560756Y-74923564D01*
X97577093Y-74922500D01*
X102492500Y-74922500D01*
X102560621Y-74942502D01*
G37*
G04 #@! TD.AperFunction*
G04 #@! TA.AperFunction,Conductor*
G36*
X125418121Y-87142002D02*
G01*
X125464614Y-87195658D01*
X125476000Y-87248000D01*
X125476000Y-94108000D01*
X125455998Y-94176121D01*
X125402342Y-94222614D01*
X125350000Y-94234000D01*
X123824000Y-94234000D01*
X123755879Y-94213998D01*
X123709386Y-94160342D01*
X123698000Y-94108000D01*
X123698000Y-87248000D01*
X123718002Y-87179879D01*
X123771658Y-87133386D01*
X123824000Y-87122000D01*
X125350000Y-87122000D01*
X125418121Y-87142002D01*
G37*
G04 #@! TD.AperFunction*
M02*
