G04 #@! TF.GenerationSoftware,KiCad,Pcbnew,(6.0.9-0)*
G04 #@! TF.CreationDate,2023-02-01T14:54:16-05:00*
G04 #@! TF.ProjectId,beach_bod_02,62656163-685f-4626-9f64-5f30322e6b69,rev?*
G04 #@! TF.SameCoordinates,Original*
G04 #@! TF.FileFunction,Paste,Top*
G04 #@! TF.FilePolarity,Positive*
%FSLAX46Y46*%
G04 Gerber Fmt 4.6, Leading zero omitted, Abs format (unit mm)*
G04 Created by KiCad (PCBNEW (6.0.9-0)) date 2023-02-01 14:54:16*
%MOMM*%
%LPD*%
G01*
G04 APERTURE LIST*
G04 Aperture macros list*
%AMRoundRect*
0 Rectangle with rounded corners*
0 $1 Rounding radius*
0 $2 $3 $4 $5 $6 $7 $8 $9 X,Y pos of 4 corners*
0 Add a 4 corners polygon primitive as box body*
4,1,4,$2,$3,$4,$5,$6,$7,$8,$9,$2,$3,0*
0 Add four circle primitives for the rounded corners*
1,1,$1+$1,$2,$3*
1,1,$1+$1,$4,$5*
1,1,$1+$1,$6,$7*
1,1,$1+$1,$8,$9*
0 Add four rect primitives between the rounded corners*
20,1,$1+$1,$2,$3,$4,$5,0*
20,1,$1+$1,$4,$5,$6,$7,0*
20,1,$1+$1,$6,$7,$8,$9,0*
20,1,$1+$1,$8,$9,$2,$3,0*%
G04 Aperture macros list end*
%ADD10RoundRect,0.250000X0.450000X-0.350000X0.450000X0.350000X-0.450000X0.350000X-0.450000X-0.350000X0*%
%ADD11R,0.600000X1.150000*%
%ADD12RoundRect,0.237500X0.300000X0.237500X-0.300000X0.237500X-0.300000X-0.237500X0.300000X-0.237500X0*%
%ADD13RoundRect,0.250000X0.350000X0.450000X-0.350000X0.450000X-0.350000X-0.450000X0.350000X-0.450000X0*%
%ADD14RoundRect,0.237500X0.237500X-0.300000X0.237500X0.300000X-0.237500X0.300000X-0.237500X-0.300000X0*%
%ADD15RoundRect,0.250000X-0.350000X-0.450000X0.350000X-0.450000X0.350000X0.450000X-0.350000X0.450000X0*%
%ADD16RoundRect,0.237500X0.250000X0.237500X-0.250000X0.237500X-0.250000X-0.237500X0.250000X-0.237500X0*%
%ADD17RoundRect,0.237500X-0.250000X-0.237500X0.250000X-0.237500X0.250000X0.237500X-0.250000X0.237500X0*%
%ADD18RoundRect,0.237500X-0.300000X-0.237500X0.300000X-0.237500X0.300000X0.237500X-0.300000X0.237500X0*%
%ADD19RoundRect,0.250000X1.100000X-0.412500X1.100000X0.412500X-1.100000X0.412500X-1.100000X-0.412500X0*%
%ADD20RoundRect,0.250000X-1.100000X0.412500X-1.100000X-0.412500X1.100000X-0.412500X1.100000X0.412500X0*%
%ADD21RoundRect,0.237500X-0.237500X0.250000X-0.237500X-0.250000X0.237500X-0.250000X0.237500X0.250000X0*%
%ADD22R,0.450000X1.425000*%
%ADD23R,1.880000X1.680000*%
%ADD24R,2.000000X1.300000*%
%ADD25R,2.000000X2.000000*%
%ADD26R,2.200000X3.150000*%
%ADD27R,0.550000X1.050000*%
%ADD28RoundRect,0.150000X-0.587500X-0.150000X0.587500X-0.150000X0.587500X0.150000X-0.587500X0.150000X0*%
%ADD29R,0.650000X1.560000*%
%ADD30RoundRect,0.237500X-0.237500X0.300000X-0.237500X-0.300000X0.237500X-0.300000X0.237500X0.300000X0*%
G04 APERTURE END LIST*
D10*
X110844500Y-99448000D03*
X110844500Y-97448000D03*
X124968000Y-98044000D03*
X124968000Y-96044000D03*
D11*
X137226000Y-101430000D03*
X139126000Y-101430000D03*
X138176000Y-99230000D03*
D12*
X153472500Y-76200000D03*
X151747500Y-76200000D03*
D13*
X121396000Y-97282000D03*
X119396000Y-97282000D03*
D14*
X115062000Y-100785000D03*
X115062000Y-99060000D03*
X142748000Y-99010000D03*
X142748000Y-97285000D03*
D10*
X135890000Y-86321500D03*
X135890000Y-84321500D03*
D15*
X121190000Y-100838000D03*
X123190000Y-100838000D03*
D16*
X153670000Y-98044000D03*
X151845000Y-98044000D03*
D15*
X126778000Y-90424000D03*
X128778000Y-90424000D03*
D17*
X151694500Y-87122000D03*
X153519500Y-87122000D03*
D12*
X122682000Y-93980000D03*
X120957000Y-93980000D03*
D17*
X147677500Y-99314000D03*
X149502500Y-99314000D03*
D18*
X131879000Y-95504000D03*
X133604000Y-95504000D03*
D17*
X151845000Y-99568000D03*
X153670000Y-99568000D03*
D19*
X112252000Y-86614000D03*
X112252000Y-83489000D03*
D15*
X120174000Y-90170000D03*
X122174000Y-90170000D03*
D18*
X111151500Y-93472000D03*
X112876500Y-93472000D03*
D14*
X112876500Y-99427000D03*
X112876500Y-97702000D03*
D20*
X122682000Y-83235000D03*
X122682000Y-86360000D03*
D15*
X106812500Y-97536000D03*
X108812500Y-97536000D03*
D21*
X114554000Y-78740000D03*
X114554000Y-80565000D03*
D18*
X111151500Y-94996000D03*
X112876500Y-94996000D03*
D12*
X112723000Y-91440000D03*
X110998000Y-91440000D03*
D16*
X153566500Y-101092000D03*
X151741500Y-101092000D03*
D12*
X153516500Y-91694000D03*
X151791500Y-91694000D03*
X153516500Y-94742000D03*
X151791500Y-94742000D03*
D16*
X149502500Y-92456000D03*
X147677500Y-92456000D03*
D19*
X138684000Y-86360000D03*
X138684000Y-83235000D03*
D22*
X126787000Y-98478000D03*
X127437000Y-98478000D03*
X128087000Y-98478000D03*
X128737000Y-98478000D03*
X128737000Y-94054000D03*
X128087000Y-94054000D03*
X127437000Y-94054000D03*
X126787000Y-94054000D03*
D23*
X127762000Y-96266000D03*
D13*
X127238000Y-86321500D03*
X125238000Y-86321500D03*
X116824000Y-83273500D03*
X114824000Y-83273500D03*
D16*
X153623000Y-85598000D03*
X151798000Y-85598000D03*
D19*
X119380000Y-86360000D03*
X119380000Y-83235000D03*
D18*
X151791500Y-93218000D03*
X153516500Y-93218000D03*
D12*
X153419500Y-79248000D03*
X151694500Y-79248000D03*
D18*
X120957000Y-92456000D03*
X122682000Y-92456000D03*
D17*
X151845000Y-96520000D03*
X153670000Y-96520000D03*
D18*
X125275000Y-100330000D03*
X127000000Y-100330000D03*
D24*
X149574000Y-96908000D03*
D25*
X145574000Y-95758000D03*
D24*
X149574000Y-94608000D03*
D26*
X129342000Y-78232000D03*
X136342000Y-78232000D03*
D27*
X114874000Y-96550000D03*
X115824000Y-96550000D03*
X116774000Y-96550000D03*
X116774000Y-93950000D03*
X115824000Y-93950000D03*
X114874000Y-93950000D03*
D15*
X125476000Y-102108000D03*
X127476000Y-102108000D03*
D16*
X153566500Y-82550000D03*
X151741500Y-82550000D03*
D18*
X126799000Y-92202000D03*
X128524000Y-92202000D03*
D14*
X116840000Y-100838000D03*
X116840000Y-99113000D03*
D18*
X151791500Y-90170000D03*
X153516500Y-90170000D03*
D20*
X141986000Y-83235000D03*
X141986000Y-86360000D03*
D14*
X142748000Y-94334500D03*
X142748000Y-92609500D03*
D15*
X133366000Y-99314000D03*
X135366000Y-99314000D03*
D14*
X140970000Y-94435000D03*
X140970000Y-92710000D03*
D13*
X116824000Y-86575500D03*
X114824000Y-86575500D03*
D28*
X107520500Y-83847500D03*
X107520500Y-85747500D03*
X109395500Y-84797500D03*
D14*
X140970000Y-99010000D03*
X140970000Y-97285000D03*
D29*
X133538000Y-83447500D03*
X132588000Y-83447500D03*
X131638000Y-83447500D03*
X131638000Y-86147500D03*
X133538000Y-86147500D03*
D18*
X151694500Y-77724000D03*
X153419500Y-77724000D03*
X151694500Y-80772000D03*
X153419500Y-80772000D03*
D11*
X139126000Y-90256000D03*
X137226000Y-90256000D03*
X138176000Y-92456000D03*
D30*
X129794000Y-85751500D03*
X129794000Y-87476500D03*
D15*
X133366000Y-92456000D03*
X135366000Y-92456000D03*
D13*
X127238000Y-83273500D03*
X125238000Y-83273500D03*
D30*
X144526000Y-84582000D03*
X144526000Y-86307000D03*
D18*
X131979500Y-97282000D03*
X133704500Y-97282000D03*
D12*
X122581500Y-95504000D03*
X120856500Y-95504000D03*
D17*
X151741500Y-84074000D03*
X153566500Y-84074000D03*
D16*
X104290500Y-82296000D03*
X102465500Y-82296000D03*
M02*
