%TF.GenerationSoftware,KiCad,Pcbnew,(6.0.9-0)*%
%TF.CreationDate,2023-03-20T13:18:36-04:00*%
%TF.ProjectId,dad_bod_02,6461645f-626f-4645-9f30-322e6b696361,rev?*%
%TF.SameCoordinates,Original*%
%TF.FileFunction,Copper,L1,Top*%
%TF.FilePolarity,Positive*%
%FSLAX46Y46*%
G04 Gerber Fmt 4.6, Leading zero omitted, Abs format (unit mm)*
G04 Created by KiCad (PCBNEW (6.0.9-0)) date 2023-03-20 13:18:36*
%MOMM*%
%LPD*%
G01*
G04 APERTURE LIST*
G04 Aperture macros list*
%AMRoundRect*
0 Rectangle with rounded corners*
0 $1 Rounding radius*
0 $2 $3 $4 $5 $6 $7 $8 $9 X,Y pos of 4 corners*
0 Add a 4 corners polygon primitive as box body*
4,1,4,$2,$3,$4,$5,$6,$7,$8,$9,$2,$3,0*
0 Add four circle primitives for the rounded corners*
1,1,$1+$1,$2,$3*
1,1,$1+$1,$4,$5*
1,1,$1+$1,$6,$7*
1,1,$1+$1,$8,$9*
0 Add four rect primitives between the rounded corners*
20,1,$1+$1,$2,$3,$4,$5,0*
20,1,$1+$1,$4,$5,$6,$7,0*
20,1,$1+$1,$6,$7,$8,$9,0*
20,1,$1+$1,$8,$9,$2,$3,0*%
G04 Aperture macros list end*
%TA.AperFunction,ComponentPad*%
%ADD10C,1.524000*%
%TD*%
%TA.AperFunction,SMDPad,CuDef*%
%ADD11RoundRect,0.237500X0.300000X0.237500X-0.300000X0.237500X-0.300000X-0.237500X0.300000X-0.237500X0*%
%TD*%
%TA.AperFunction,SMDPad,CuDef*%
%ADD12RoundRect,0.250000X-0.412500X-1.100000X0.412500X-1.100000X0.412500X1.100000X-0.412500X1.100000X0*%
%TD*%
%TA.AperFunction,SMDPad,CuDef*%
%ADD13R,2.500000X1.600000*%
%TD*%
%TA.AperFunction,SMDPad,CuDef*%
%ADD14RoundRect,0.237500X0.237500X-0.300000X0.237500X0.300000X-0.237500X0.300000X-0.237500X-0.300000X0*%
%TD*%
%TA.AperFunction,SMDPad,CuDef*%
%ADD15R,1.000000X0.550000*%
%TD*%
%TA.AperFunction,SMDPad,CuDef*%
%ADD16RoundRect,0.237500X-0.300000X-0.237500X0.300000X-0.237500X0.300000X0.237500X-0.300000X0.237500X0*%
%TD*%
%TA.AperFunction,SMDPad,CuDef*%
%ADD17R,2.200000X3.150000*%
%TD*%
%TA.AperFunction,ComponentPad*%
%ADD18R,2.200000X2.200000*%
%TD*%
%TA.AperFunction,ComponentPad*%
%ADD19O,2.200000X2.200000*%
%TD*%
%TA.AperFunction,ComponentPad*%
%ADD20C,3.200000*%
%TD*%
%TA.AperFunction,ComponentPad*%
%ADD21C,2.300000*%
%TD*%
%TA.AperFunction,ComponentPad*%
%ADD22C,1.755000*%
%TD*%
%TA.AperFunction,ComponentPad*%
%ADD23C,2.025000*%
%TD*%
%TA.AperFunction,ComponentPad*%
%ADD24R,1.700000X1.700000*%
%TD*%
%TA.AperFunction,ComponentPad*%
%ADD25O,1.700000X1.700000*%
%TD*%
%TA.AperFunction,ComponentPad*%
%ADD26RoundRect,0.250500X-0.499500X0.499500X-0.499500X-0.499500X0.499500X-0.499500X0.499500X0.499500X0*%
%TD*%
%TA.AperFunction,ComponentPad*%
%ADD27C,1.500000*%
%TD*%
%TA.AperFunction,ComponentPad*%
%ADD28RoundRect,0.250500X0.499500X0.499500X-0.499500X0.499500X-0.499500X-0.499500X0.499500X-0.499500X0*%
%TD*%
%TA.AperFunction,SMDPad,CuDef*%
%ADD29R,2.000000X1.300000*%
%TD*%
%TA.AperFunction,SMDPad,CuDef*%
%ADD30R,2.000000X2.000000*%
%TD*%
%TA.AperFunction,SMDPad,CuDef*%
%ADD31RoundRect,0.237500X0.250000X0.237500X-0.250000X0.237500X-0.250000X-0.237500X0.250000X-0.237500X0*%
%TD*%
%TA.AperFunction,SMDPad,CuDef*%
%ADD32RoundRect,0.237500X0.237500X-0.250000X0.237500X0.250000X-0.237500X0.250000X-0.237500X-0.250000X0*%
%TD*%
%TA.AperFunction,SMDPad,CuDef*%
%ADD33RoundRect,0.237500X-0.250000X-0.237500X0.250000X-0.237500X0.250000X0.237500X-0.250000X0.237500X0*%
%TD*%
%TA.AperFunction,SMDPad,CuDef*%
%ADD34RoundRect,0.237500X-0.237500X0.250000X-0.237500X-0.250000X0.237500X-0.250000X0.237500X0.250000X0*%
%TD*%
%TA.AperFunction,SMDPad,CuDef*%
%ADD35R,2.750000X3.200000*%
%TD*%
%TA.AperFunction,SMDPad,CuDef*%
%ADD36R,1.620000X3.375000*%
%TD*%
%TA.AperFunction,SMDPad,CuDef*%
%ADD37R,1.200000X3.375000*%
%TD*%
%TA.AperFunction,SMDPad,CuDef*%
%ADD38R,5.000000X1.300000*%
%TD*%
%TA.AperFunction,ComponentPad*%
%ADD39R,1.050000X1.500000*%
%TD*%
%TA.AperFunction,ComponentPad*%
%ADD40O,1.050000X1.500000*%
%TD*%
%TA.AperFunction,SMDPad,CuDef*%
%ADD41RoundRect,0.249999X-0.450001X-1.075001X0.450001X-1.075001X0.450001X1.075001X-0.450001X1.075001X0*%
%TD*%
%TA.AperFunction,ViaPad*%
%ADD42C,0.800000*%
%TD*%
%TA.AperFunction,Conductor*%
%ADD43C,0.500000*%
%TD*%
%TA.AperFunction,Conductor*%
%ADD44C,1.000000*%
%TD*%
%TA.AperFunction,Conductor*%
%ADD45C,0.300000*%
%TD*%
%TA.AperFunction,Conductor*%
%ADD46C,0.250000*%
%TD*%
%TA.AperFunction,Conductor*%
%ADD47C,0.200000*%
%TD*%
G04 APERTURE END LIST*
D10*
X113538000Y-107696000D03*
X113538000Y-87376000D03*
D11*
X109220000Y-65278000D03*
X107495000Y-65278000D03*
X121359000Y-105764500D03*
X119634000Y-105764500D03*
D12*
X128485500Y-85598000D03*
X131610500Y-85598000D03*
D13*
X162306000Y-80264000D03*
X165806000Y-80264000D03*
X162814000Y-127254000D03*
X166314000Y-127254000D03*
D12*
X126199500Y-120650000D03*
X129324500Y-120650000D03*
D11*
X121616000Y-90977500D03*
X119891000Y-90977500D03*
X126087500Y-90977500D03*
X124362500Y-90977500D03*
X130659500Y-90977500D03*
X128934500Y-90977500D03*
X134977500Y-90977500D03*
X133252500Y-90977500D03*
D14*
X148082000Y-93364000D03*
X148082000Y-91639000D03*
X150622000Y-93364000D03*
X150622000Y-91639000D03*
D15*
X153416000Y-91430500D03*
X153416000Y-94080500D03*
D14*
X148082000Y-98444000D03*
X148082000Y-96719000D03*
X150622000Y-98444000D03*
X150622000Y-96719000D03*
D15*
X153416000Y-96002500D03*
X153416000Y-98652500D03*
D16*
X119941000Y-99359500D03*
X121666000Y-99359500D03*
X124259000Y-99359500D03*
X125984000Y-99359500D03*
X128577000Y-99359500D03*
X130302000Y-99359500D03*
X133149000Y-99359500D03*
X134874000Y-99359500D03*
X119533500Y-113892500D03*
X121258500Y-113892500D03*
D11*
X125423000Y-105764500D03*
X123698000Y-105764500D03*
D16*
X123497000Y-113892500D03*
X125222000Y-113892500D03*
D11*
X129741000Y-105764500D03*
X128016000Y-105764500D03*
D16*
X127815000Y-113892500D03*
X129540000Y-113892500D03*
D11*
X134212500Y-105764500D03*
X132487500Y-105764500D03*
D16*
X132233500Y-113892500D03*
X133958500Y-113892500D03*
D14*
X148082000Y-107389000D03*
X148082000Y-105664000D03*
X148082000Y-113384500D03*
X148082000Y-111659500D03*
X150622000Y-107542500D03*
X150622000Y-105817500D03*
D15*
X153416000Y-105863000D03*
X153416000Y-108513000D03*
X153416000Y-110943000D03*
X153416000Y-113593000D03*
D12*
X107657500Y-129032000D03*
X110782500Y-129032000D03*
D17*
X104704000Y-69850000D03*
X111704000Y-69850000D03*
D18*
X166878000Y-74676000D03*
D19*
X164338000Y-74676000D03*
D18*
X157170234Y-124460000D03*
D19*
X154630234Y-124460000D03*
D18*
X156464000Y-74676000D03*
D19*
X153924000Y-74676000D03*
D18*
X154432000Y-128778000D03*
D19*
X151892000Y-128778000D03*
D20*
X134132000Y-77256000D03*
D21*
X139212000Y-81056000D03*
X139212000Y-70896000D03*
X129052000Y-81056000D03*
X129052000Y-70896000D03*
D20*
X120650000Y-77256000D03*
D21*
X125730000Y-70896000D03*
X125730000Y-81056000D03*
X115570000Y-81056000D03*
X115570000Y-70896000D03*
D20*
X134132000Y-128808000D03*
D21*
X139212000Y-125008000D03*
X129052000Y-125008000D03*
X129052000Y-135168000D03*
X139212000Y-135168000D03*
D20*
X120670000Y-128808000D03*
D21*
X115590000Y-135168000D03*
X125750000Y-135168000D03*
X115590000Y-125008000D03*
X125750000Y-125008000D03*
D22*
X100330000Y-138684000D03*
D23*
X104030000Y-141224000D03*
X104030000Y-136144000D03*
X96630000Y-136144000D03*
X96630000Y-141224000D03*
D24*
X124953000Y-85384000D03*
D25*
X122413000Y-85384000D03*
X119873000Y-85384000D03*
D24*
X122936000Y-120650000D03*
D25*
X120396000Y-120650000D03*
X117856000Y-120650000D03*
D26*
X155629500Y-65604500D03*
D27*
X150549500Y-65604500D03*
X148009500Y-65604500D03*
X145469500Y-65604500D03*
X145469500Y-70684500D03*
X148009500Y-70684500D03*
X150549500Y-70684500D03*
X155629500Y-70684500D03*
D28*
X147755500Y-130810000D03*
D27*
X147755500Y-125730000D03*
X147755500Y-123190000D03*
X147755500Y-120650000D03*
X142675500Y-120650000D03*
X142675500Y-123190000D03*
X142675500Y-125730000D03*
X142675500Y-130810000D03*
D29*
X141510000Y-94145500D03*
D30*
X145510000Y-95295500D03*
D29*
X141510000Y-96445500D03*
D31*
X128420500Y-76200000D03*
X126595500Y-76200000D03*
D32*
X161290000Y-89558500D03*
X161290000Y-87733500D03*
D31*
X160932500Y-121158000D03*
X159107500Y-121158000D03*
X128317000Y-129794000D03*
X126492000Y-129794000D03*
D33*
X119944500Y-94279500D03*
X121769500Y-94279500D03*
X124309500Y-94279500D03*
X126134500Y-94279500D03*
X128731000Y-94279500D03*
X130556000Y-94279500D03*
X132945500Y-94279500D03*
X134770500Y-94279500D03*
D32*
X138176000Y-93519000D03*
X138176000Y-91694000D03*
D33*
X119634000Y-108812500D03*
X121459000Y-108812500D03*
D32*
X138176000Y-98448500D03*
X138176000Y-96623500D03*
D31*
X121816500Y-96311500D03*
X119991500Y-96311500D03*
X126134500Y-96311500D03*
X124309500Y-96311500D03*
X130452500Y-96311500D03*
X128627500Y-96311500D03*
X135024500Y-96311500D03*
X133199500Y-96311500D03*
X121412000Y-110844500D03*
X119587000Y-110844500D03*
X125222000Y-110844500D03*
X123397000Y-110844500D03*
D33*
X128016000Y-108812500D03*
X129841000Y-108812500D03*
D31*
X129690500Y-110844500D03*
X127865500Y-110844500D03*
D33*
X132287000Y-108812500D03*
X134112000Y-108812500D03*
D29*
X141573500Y-108532500D03*
D30*
X145573500Y-109682500D03*
D29*
X141573500Y-110832500D03*
D32*
X137668000Y-107743000D03*
X137668000Y-105918000D03*
D34*
X107442000Y-134065000D03*
X107442000Y-135890000D03*
D35*
X104820000Y-116586000D03*
X113620000Y-116586000D03*
D36*
X93934000Y-77808000D03*
D37*
X96774000Y-77808000D03*
D36*
X99614000Y-77808000D03*
X99614000Y-67988000D03*
D37*
X96774000Y-67988000D03*
D36*
X93934000Y-67988000D03*
D38*
X97536000Y-118336000D03*
X97536000Y-114836000D03*
D14*
X150622000Y-113384500D03*
X150622000Y-111659500D03*
D33*
X123547500Y-108812500D03*
X125372500Y-108812500D03*
D32*
X137668000Y-113331000D03*
X137668000Y-111506000D03*
D31*
X134112000Y-110844500D03*
X132287000Y-110844500D03*
D39*
X154940000Y-80264000D03*
D40*
X156210000Y-80264000D03*
X157480000Y-80264000D03*
D39*
X154178000Y-120502000D03*
D40*
X155448000Y-120502000D03*
X156718000Y-120502000D03*
D24*
X110744000Y-138938000D03*
D25*
X110744000Y-136398000D03*
X110744000Y-133858000D03*
D24*
X165257500Y-85374000D03*
D25*
X167797500Y-85374000D03*
X165257500Y-87914000D03*
X167797500Y-87914000D03*
X165257500Y-90454000D03*
X167797500Y-90454000D03*
X165257500Y-92994000D03*
X167797500Y-92994000D03*
X165257500Y-95534000D03*
X167797500Y-95534000D03*
X165257500Y-98074000D03*
X167797500Y-98074000D03*
X165257500Y-100614000D03*
X167797500Y-100614000D03*
X165257500Y-103154000D03*
X167797500Y-103154000D03*
X165257500Y-105694000D03*
X167797500Y-105694000D03*
X165257500Y-108234000D03*
X167797500Y-108234000D03*
X165257500Y-110774000D03*
X167797500Y-110774000D03*
X165257500Y-113314000D03*
X167797500Y-113314000D03*
X165257500Y-115854000D03*
X167797500Y-115854000D03*
X165257500Y-118394000D03*
X167797500Y-118394000D03*
X165257500Y-120934000D03*
X167797500Y-120934000D03*
D41*
X105804000Y-80264000D03*
X110604000Y-80264000D03*
D22*
X154432500Y-138684000D03*
D23*
X158132500Y-141224000D03*
X158132500Y-136144000D03*
X150732500Y-136144000D03*
X150732500Y-141224000D03*
D42*
X118110000Y-110744000D03*
X117602000Y-94234000D03*
X116840000Y-108712000D03*
X163322000Y-140970000D03*
X164084000Y-131572000D03*
X167640000Y-82042000D03*
X167640000Y-78232000D03*
X159766000Y-76962000D03*
X149098000Y-109474000D03*
X165354000Y-66802000D03*
X157734000Y-116840000D03*
X150622000Y-109474000D03*
X162814000Y-131572000D03*
X147828000Y-109474000D03*
X165862000Y-140970000D03*
X151638000Y-124968000D03*
X147574000Y-94996000D03*
X164592000Y-140970000D03*
X161544000Y-131572000D03*
X167894000Y-135890000D03*
X167132000Y-68580000D03*
X165608000Y-123698000D03*
X166243000Y-67691000D03*
X161036000Y-76962000D03*
X167894000Y-137414000D03*
X167894000Y-138938000D03*
X150368000Y-94996000D03*
X148844000Y-94996000D03*
X166624000Y-123698000D03*
X152146000Y-123190000D03*
X144018000Y-91186000D03*
X144526000Y-99314000D03*
X144526000Y-105918000D03*
X145796000Y-114046000D03*
X161290000Y-122936000D03*
X161290000Y-118364000D03*
X118618000Y-96266000D03*
D43*
X113538000Y-87376000D02*
X113538000Y-83198000D01*
X113538000Y-83198000D02*
X110604000Y-80264000D01*
D44*
X119587000Y-110844500D02*
X119587000Y-113839000D01*
D43*
X129303000Y-128808000D02*
X128317000Y-129794000D01*
D44*
X119587000Y-110844500D02*
X118210500Y-110844500D01*
X118210500Y-110844500D02*
X118110000Y-110744000D01*
D43*
X134132000Y-128808000D02*
X129303000Y-128808000D01*
D44*
X119587000Y-113839000D02*
X119533500Y-113892500D01*
D45*
X108511000Y-64262000D02*
X149207000Y-64262000D01*
D43*
X93934000Y-67988000D02*
X93934000Y-67110500D01*
D45*
X107495000Y-65278000D02*
X108511000Y-64262000D01*
D43*
X95766500Y-65278000D02*
X107495000Y-65278000D01*
X104704000Y-68069000D02*
X107495000Y-65278000D01*
D45*
X149207000Y-64262000D02*
X150549500Y-65604500D01*
D43*
X93934000Y-67110500D02*
X95766500Y-65278000D01*
X104704000Y-69850000D02*
X104704000Y-68069000D01*
X97536000Y-106180500D02*
X97536000Y-114836000D01*
D44*
X119944500Y-94279500D02*
X117647500Y-94279500D01*
D43*
X124968000Y-85852000D02*
X124968000Y-85384000D01*
D44*
X117647500Y-94279500D02*
X117602000Y-94234000D01*
D43*
X109482500Y-94234000D02*
X97536000Y-106180500D01*
D44*
X119891000Y-90977500D02*
X119891000Y-94226000D01*
D43*
X126539000Y-83798000D02*
X129810500Y-83798000D01*
X93934000Y-78685500D02*
X109482500Y-94234000D01*
X109482500Y-94234000D02*
X117602000Y-94234000D01*
X93934000Y-77808000D02*
X93934000Y-78685500D01*
X129810500Y-83798000D02*
X131610500Y-85598000D01*
X124953000Y-85384000D02*
X126539000Y-83798000D01*
D44*
X119891000Y-94226000D02*
X119944500Y-94279500D01*
D43*
X110782500Y-129032000D02*
X112044000Y-130293500D01*
D45*
X143775500Y-138672500D02*
X141732000Y-140716000D01*
X110744000Y-138938000D02*
X112522000Y-140716000D01*
D43*
X112044000Y-130293500D02*
X112044000Y-137638000D01*
X112044000Y-137638000D02*
X110744000Y-138938000D01*
D45*
X142675500Y-125730000D02*
X143775500Y-126830000D01*
X143775500Y-126830000D02*
X143775500Y-138672500D01*
X112522000Y-140716000D02*
X141732000Y-140716000D01*
D44*
X116940500Y-108812500D02*
X116840000Y-108712000D01*
D43*
X127524500Y-122450000D02*
X124736000Y-122450000D01*
X129324500Y-120650000D02*
X127524500Y-122450000D01*
D44*
X119634000Y-108812500D02*
X116940500Y-108812500D01*
X119634000Y-105764500D02*
X119634000Y-108812500D01*
D43*
X124736000Y-122450000D02*
X122936000Y-120650000D01*
X127215500Y-86868000D02*
X128485500Y-85598000D01*
X121357000Y-86868000D02*
X127215500Y-86868000D01*
X119873000Y-85384000D02*
X121357000Y-86868000D01*
D45*
X168997500Y-91654000D02*
X168997500Y-94146500D01*
X168997500Y-94146500D02*
X168910000Y-94234000D01*
X167797500Y-90454000D02*
X168997500Y-91654000D01*
X166243000Y-67691000D02*
X165354000Y-66802000D01*
X168997500Y-70445500D02*
X167132000Y-68580000D01*
X168910000Y-94234000D02*
X168997500Y-94321500D01*
X168997500Y-99274000D02*
X168997500Y-122594500D01*
X167894000Y-123698000D02*
X166624000Y-123698000D01*
D46*
X165806000Y-80264000D02*
X166432500Y-80890500D01*
D45*
X168997500Y-96874000D02*
X167797500Y-98074000D01*
X167132000Y-68580000D02*
X166243000Y-67691000D01*
X168997500Y-94321500D02*
X168997500Y-96874000D01*
X167797500Y-90454000D02*
X168997500Y-89254000D01*
X168997500Y-89254000D02*
X168997500Y-70445500D01*
X168997500Y-122594500D02*
X167894000Y-123698000D01*
X167797500Y-98074000D02*
X168997500Y-99274000D01*
D43*
X155629500Y-65604500D02*
X161907000Y-71882000D01*
X163322000Y-83820000D02*
X162306000Y-82804000D01*
X166878000Y-75692000D02*
X166878000Y-74676000D01*
X162306000Y-82804000D02*
X162306000Y-80264000D01*
X164846000Y-71882000D02*
X166878000Y-73914000D01*
X165257500Y-92994000D02*
X163322000Y-91058500D01*
X161907000Y-71882000D02*
X164846000Y-71882000D01*
X165257500Y-92994000D02*
X162814000Y-95437500D01*
X159258000Y-130810000D02*
X162814000Y-127254000D01*
X163322000Y-91058500D02*
X163322000Y-83820000D01*
X157170234Y-124460000D02*
X159964234Y-127254000D01*
X159964234Y-127254000D02*
X162814000Y-127254000D01*
X166878000Y-73914000D02*
X166878000Y-74676000D01*
X162814000Y-95437500D02*
X162814000Y-127254000D01*
X147755500Y-130810000D02*
X159258000Y-130810000D01*
X162306000Y-80264000D02*
X166878000Y-75692000D01*
X126199500Y-120650000D02*
X124421500Y-118872000D01*
X119634000Y-118872000D02*
X117856000Y-120650000D01*
X124421500Y-118872000D02*
X119634000Y-118872000D01*
D44*
X121616000Y-90977500D02*
X124362500Y-90977500D01*
X126087500Y-90977500D02*
X128934500Y-90977500D01*
X130659500Y-90977500D02*
X133252500Y-90977500D01*
D47*
X148399500Y-91321500D02*
X148082000Y-91639000D01*
D45*
X110617000Y-66675000D02*
X111252000Y-67310000D01*
D43*
X99614000Y-69388000D02*
X103124000Y-72898000D01*
X108656000Y-72898000D02*
X111704000Y-69850000D01*
X103124000Y-72898000D02*
X108656000Y-72898000D01*
X110617000Y-66675000D02*
X111704000Y-67762000D01*
D45*
X147175000Y-67310000D02*
X150549500Y-70684500D01*
X111252000Y-67310000D02*
X147175000Y-67310000D01*
D43*
X111704000Y-67762000D02*
X111704000Y-69850000D01*
X99614000Y-67988000D02*
X99614000Y-69388000D01*
X109220000Y-65278000D02*
X110617000Y-66675000D01*
D44*
X121666000Y-99359500D02*
X124259000Y-99359500D01*
X121359000Y-105764500D02*
X123698000Y-105764500D01*
X125984000Y-99359500D02*
X128577000Y-99359500D01*
X130302000Y-99359500D02*
X133149000Y-99359500D01*
X121258500Y-113892500D02*
X123497000Y-113892500D01*
X125423000Y-105764500D02*
X128016000Y-105764500D01*
X125222000Y-113892500D02*
X127815000Y-113892500D01*
X129741000Y-105764500D02*
X132487500Y-105764500D01*
X129540000Y-113892500D02*
X132233500Y-113892500D01*
D43*
X107657500Y-130771500D02*
X107657500Y-129032000D01*
X110744000Y-133858000D02*
X107657500Y-130771500D01*
D44*
X141510000Y-94145500D02*
X138802500Y-94145500D01*
X138802500Y-94145500D02*
X138176000Y-93519000D01*
X138354000Y-96445500D02*
X138176000Y-96623500D01*
X141510000Y-96445500D02*
X138354000Y-96445500D01*
X121459000Y-108812500D02*
X123547500Y-108812500D01*
X125372500Y-108812500D02*
X128016000Y-108812500D01*
X125222000Y-110844500D02*
X127865500Y-110844500D01*
X129690500Y-110844500D02*
X132287000Y-110844500D01*
D43*
X164338000Y-74676000D02*
X156464000Y-74676000D01*
X156464000Y-71519000D02*
X156464000Y-74676000D01*
X157480000Y-75692000D02*
X156464000Y-74676000D01*
X157480000Y-80264000D02*
X157480000Y-75692000D01*
X155629500Y-70684500D02*
X156464000Y-71519000D01*
X156718000Y-121158000D02*
X154630234Y-123245766D01*
X154630234Y-128579766D02*
X154432000Y-128778000D01*
X156718000Y-120502000D02*
X156718000Y-121158000D01*
X154630234Y-124460000D02*
X154630234Y-128579766D01*
X154630234Y-123245766D02*
X154630234Y-124460000D01*
D44*
X141573500Y-108532500D02*
X138457500Y-108532500D01*
X138457500Y-108532500D02*
X137668000Y-107743000D01*
D43*
X125539500Y-77256000D02*
X126595500Y-76200000D01*
X120650000Y-77256000D02*
X125539500Y-77256000D01*
X120650000Y-83621000D02*
X122413000Y-85384000D01*
X120650000Y-77256000D02*
X120650000Y-83621000D01*
X120670000Y-128808000D02*
X120670000Y-120924000D01*
X125506000Y-128808000D02*
X126492000Y-129794000D01*
X120670000Y-120924000D02*
X120396000Y-120650000D01*
X120670000Y-128808000D02*
X125506000Y-128808000D01*
D45*
X160678500Y-121158000D02*
X160678500Y-122324500D01*
X160678500Y-122324500D02*
X161290000Y-122936000D01*
X161290000Y-118364000D02*
X161290000Y-89558500D01*
D44*
X141573500Y-110832500D02*
X138341500Y-110832500D01*
X138341500Y-110832500D02*
X137668000Y-111506000D01*
D45*
X159766000Y-87733500D02*
X161290000Y-87733500D01*
X156210000Y-80264000D02*
X156210000Y-84177500D01*
X156210000Y-84177500D02*
X159766000Y-87733500D01*
X159107500Y-121158000D02*
X157351500Y-119402000D01*
X157351500Y-119402000D02*
X156188000Y-119402000D01*
X156188000Y-119402000D02*
X155448000Y-120142000D01*
X155448000Y-120142000D02*
X155448000Y-120502000D01*
D44*
X121769500Y-94279500D02*
X124309500Y-94279500D01*
X126134500Y-94279500D02*
X128731000Y-94279500D01*
X130556000Y-94279500D02*
X132945500Y-94279500D01*
X121816500Y-96311500D02*
X124309500Y-96311500D01*
X126134500Y-96311500D02*
X128627500Y-96311500D01*
X130452500Y-96311500D02*
X133199500Y-96311500D01*
X121412000Y-110844500D02*
X123397000Y-110844500D01*
X129841000Y-108812500D02*
X132287000Y-108812500D01*
D43*
X103070000Y-118336000D02*
X104820000Y-116586000D01*
X97536000Y-118336000D02*
X103070000Y-118336000D01*
X106934000Y-136398000D02*
X106807000Y-136525000D01*
X100330000Y-138684000D02*
X104648000Y-138684000D01*
X110744000Y-136398000D02*
X106934000Y-136398000D01*
X104648000Y-138684000D02*
X106807000Y-136525000D01*
X106807000Y-136525000D02*
X107442000Y-135890000D01*
X106109000Y-134065000D02*
X107442000Y-134065000D01*
D45*
X141986000Y-141224000D02*
X104030000Y-141224000D01*
D43*
X96630000Y-141224000D02*
X96630000Y-136144000D01*
X96630000Y-136144000D02*
X104030000Y-136144000D01*
D45*
X147755500Y-125730000D02*
X144275500Y-129210000D01*
X144275500Y-138934500D02*
X141986000Y-141224000D01*
D43*
X96630000Y-141224000D02*
X104030000Y-141224000D01*
X104030000Y-136144000D02*
X106109000Y-134065000D01*
D45*
X144275500Y-129210000D02*
X144275500Y-138934500D01*
D43*
X113620000Y-116586000D02*
X113620000Y-107778000D01*
X129476500Y-77256000D02*
X128420500Y-76200000D01*
D44*
X119991500Y-99309000D02*
X119941000Y-99359500D01*
D43*
X118618000Y-96266000D02*
X113538000Y-101346000D01*
X134132000Y-78760000D02*
X134132000Y-77256000D01*
D44*
X119991500Y-96311500D02*
X118663500Y-96311500D01*
X119991500Y-96311500D02*
X119991500Y-99309000D01*
D43*
X113620000Y-107778000D02*
X113538000Y-107696000D01*
X134132000Y-77256000D02*
X129476500Y-77256000D01*
D44*
X118663500Y-96311500D02*
X118618000Y-96266000D01*
D43*
X113538000Y-101346000D02*
X113538000Y-107696000D01*
X102070000Y-80264000D02*
X105804000Y-80264000D01*
X99614000Y-77808000D02*
X102070000Y-80264000D01*
%TA.AperFunction,Conductor*%
G36*
X136365047Y-95524002D02*
G01*
X136411540Y-95577658D01*
X136419926Y-95602667D01*
X136684261Y-96792176D01*
X136686400Y-96804808D01*
X136699639Y-96917500D01*
X136700366Y-96929910D01*
X136700396Y-96929909D01*
X136700464Y-96931595D01*
X136700500Y-96932201D01*
X136700500Y-96935024D01*
X136700707Y-96937563D01*
X136700707Y-96937575D01*
X136704858Y-96988609D01*
X136711834Y-97074374D01*
X136766793Y-97288423D01*
X136769124Y-97293514D01*
X136769127Y-97293523D01*
X136815161Y-97394069D01*
X136823597Y-97419187D01*
X136906000Y-97790000D01*
X137051897Y-97790000D01*
X137120018Y-97810002D01*
X137132475Y-97820041D01*
X137132907Y-97819524D01*
X137137205Y-97823118D01*
X137141176Y-97827089D01*
X137145782Y-97830290D01*
X137145784Y-97830292D01*
X137312266Y-97946000D01*
X137322643Y-97953212D01*
X137327739Y-97955545D01*
X137327744Y-97955548D01*
X137518472Y-98042870D01*
X137518474Y-98042871D01*
X137523577Y-98045207D01*
X137737626Y-98100166D01*
X137801149Y-98105333D01*
X137874425Y-98111293D01*
X137874437Y-98111293D01*
X137876976Y-98111500D01*
X137972438Y-98111500D01*
X137990192Y-98112757D01*
X138081589Y-98125765D01*
X138081592Y-98125765D01*
X138086706Y-98126493D01*
X138091868Y-98126376D01*
X138091871Y-98126376D01*
X138232506Y-98123184D01*
X138333382Y-98120895D01*
X138338454Y-98119937D01*
X138338460Y-98119936D01*
X138371508Y-98113691D01*
X138394902Y-98111500D01*
X138475024Y-98111500D01*
X138477563Y-98111293D01*
X138477575Y-98111293D01*
X138550851Y-98105333D01*
X138614374Y-98100166D01*
X138828423Y-98045207D01*
X138833526Y-98042871D01*
X138833528Y-98042870D01*
X139020131Y-97957436D01*
X139072582Y-97946000D01*
X139946356Y-97946000D01*
X140004731Y-97960338D01*
X140136530Y-98029241D01*
X140331913Y-98085266D01*
X140363545Y-98088089D01*
X140449391Y-98095751D01*
X140449397Y-98095751D01*
X140452184Y-98096000D01*
X142567816Y-98096000D01*
X142570603Y-98095751D01*
X142570609Y-98095751D01*
X142656455Y-98088089D01*
X142688087Y-98085266D01*
X142883470Y-98029241D01*
X143063596Y-97935073D01*
X143206705Y-97818357D01*
X143272136Y-97790803D01*
X143286340Y-97790000D01*
X146812397Y-97790000D01*
X146880518Y-97810002D01*
X146901492Y-97826905D01*
X147047176Y-97972589D01*
X147051782Y-97975790D01*
X147051784Y-97975792D01*
X147224037Y-98095511D01*
X147228643Y-98098712D01*
X147233739Y-98101045D01*
X147233744Y-98101048D01*
X147424472Y-98188370D01*
X147424474Y-98188371D01*
X147429577Y-98190707D01*
X147643626Y-98245666D01*
X147707149Y-98250833D01*
X147780425Y-98256793D01*
X147780437Y-98256793D01*
X147782976Y-98257000D01*
X148381024Y-98257000D01*
X148383563Y-98256793D01*
X148383575Y-98256793D01*
X148456851Y-98250833D01*
X148520374Y-98245666D01*
X148734423Y-98190707D01*
X148739526Y-98188371D01*
X148739528Y-98188370D01*
X148930256Y-98101048D01*
X148930261Y-98101045D01*
X148935357Y-98098712D01*
X148939963Y-98095511D01*
X149112216Y-97975792D01*
X149112218Y-97975790D01*
X149116824Y-97972589D01*
X149262508Y-97826905D01*
X149324820Y-97792879D01*
X149351603Y-97790000D01*
X149352397Y-97790000D01*
X149420518Y-97810002D01*
X149441492Y-97826905D01*
X149587176Y-97972589D01*
X149591782Y-97975790D01*
X149591784Y-97975792D01*
X149764037Y-98095511D01*
X149768643Y-98098712D01*
X149773739Y-98101045D01*
X149773744Y-98101048D01*
X149964472Y-98188370D01*
X149964474Y-98188371D01*
X149969577Y-98190707D01*
X150183626Y-98245666D01*
X150247149Y-98250833D01*
X150320425Y-98256793D01*
X150320437Y-98256793D01*
X150322976Y-98257000D01*
X150921024Y-98257000D01*
X150923563Y-98256793D01*
X150923575Y-98256793D01*
X150996851Y-98250833D01*
X151060374Y-98245666D01*
X151274423Y-98190707D01*
X151279526Y-98188371D01*
X151279528Y-98188370D01*
X151470256Y-98101048D01*
X151470261Y-98101045D01*
X151475357Y-98098712D01*
X151479963Y-98095511D01*
X151652216Y-97975792D01*
X151652218Y-97975790D01*
X151656824Y-97972589D01*
X151802508Y-97826905D01*
X151864820Y-97792879D01*
X151891603Y-97790000D01*
X155068000Y-97790000D01*
X155136121Y-97810002D01*
X155182614Y-97863658D01*
X155194000Y-97916000D01*
X155194000Y-100204000D01*
X155173998Y-100272121D01*
X155120342Y-100318614D01*
X155068000Y-100330000D01*
X134671345Y-100330000D01*
X134603224Y-100309998D01*
X134556731Y-100256342D01*
X134546627Y-100186068D01*
X134556780Y-100151551D01*
X134620707Y-100011923D01*
X134675666Y-99797874D01*
X134687000Y-99658524D01*
X134687000Y-99060476D01*
X134675666Y-98921126D01*
X134620707Y-98707077D01*
X134618370Y-98701972D01*
X134531048Y-98511244D01*
X134531045Y-98511239D01*
X134528712Y-98506143D01*
X134402589Y-98324676D01*
X134246324Y-98168411D01*
X134166090Y-98112647D01*
X134121568Y-98057345D01*
X134112000Y-98009182D01*
X134112000Y-97662166D01*
X134132002Y-97594045D01*
X134166090Y-97558701D01*
X134242216Y-97505792D01*
X134242218Y-97505790D01*
X134246824Y-97502589D01*
X134403089Y-97346324D01*
X134427546Y-97311136D01*
X134526011Y-97169463D01*
X134526012Y-97169461D01*
X134529212Y-97164857D01*
X134531545Y-97159761D01*
X134531548Y-97159756D01*
X134618870Y-96969028D01*
X134618871Y-96969026D01*
X134621207Y-96963923D01*
X134676166Y-96749874D01*
X134683441Y-96660430D01*
X134687293Y-96613075D01*
X134687293Y-96613063D01*
X134687500Y-96610524D01*
X134687500Y-96525861D01*
X134689453Y-96503765D01*
X134697555Y-96458283D01*
X134697556Y-96458277D01*
X134698461Y-96453194D01*
X134701475Y-96206472D01*
X134688950Y-96124620D01*
X134687500Y-96105561D01*
X134687500Y-96012476D01*
X134677637Y-95891214D01*
X134692050Y-95821697D01*
X134741760Y-95771007D01*
X134803222Y-95755000D01*
X135082024Y-95755000D01*
X135084563Y-95754793D01*
X135084575Y-95754793D01*
X135157851Y-95748833D01*
X135221374Y-95743666D01*
X135435423Y-95688707D01*
X135440526Y-95686371D01*
X135440528Y-95686370D01*
X135631256Y-95599048D01*
X135631261Y-95599045D01*
X135636357Y-95596712D01*
X135665905Y-95576176D01*
X135737328Y-95526535D01*
X135809238Y-95504000D01*
X136296926Y-95504000D01*
X136365047Y-95524002D01*
G37*
%TD.AperFunction*%
%TA.AperFunction,Conductor*%
G36*
X135160724Y-110092316D02*
G01*
X135209180Y-110144360D01*
X136398000Y-112522000D01*
X136414984Y-112522000D01*
X136425017Y-112524755D01*
X136480750Y-112557163D01*
X136633176Y-112709589D01*
X136637782Y-112712790D01*
X136637784Y-112712792D01*
X136715791Y-112767008D01*
X136814643Y-112835712D01*
X136819739Y-112838045D01*
X136819744Y-112838048D01*
X137010472Y-112925370D01*
X137010474Y-112925371D01*
X137015577Y-112927707D01*
X137229626Y-112982666D01*
X137293149Y-112987833D01*
X137366425Y-112993793D01*
X137366437Y-112993793D01*
X137368976Y-112994000D01*
X137464438Y-112994000D01*
X137482192Y-112995257D01*
X137573589Y-113008265D01*
X137573592Y-113008265D01*
X137578706Y-113008993D01*
X137583868Y-113008876D01*
X137583871Y-113008876D01*
X137724506Y-113005684D01*
X137825382Y-113003395D01*
X137830454Y-113002437D01*
X137830460Y-113002436D01*
X137863508Y-112996191D01*
X137886902Y-112994000D01*
X137967024Y-112994000D01*
X137969563Y-112993793D01*
X137969575Y-112993793D01*
X138042851Y-112987833D01*
X138106374Y-112982666D01*
X138320423Y-112927707D01*
X138325526Y-112925371D01*
X138325528Y-112925370D01*
X138516256Y-112838048D01*
X138516261Y-112838045D01*
X138521357Y-112835712D01*
X138620209Y-112767008D01*
X138698216Y-112712792D01*
X138698218Y-112712790D01*
X138702824Y-112709589D01*
X138853508Y-112558905D01*
X138915820Y-112524879D01*
X138942603Y-112522000D01*
X146661832Y-112522000D01*
X146729953Y-112542002D01*
X146765297Y-112576090D01*
X146887708Y-112752216D01*
X146890911Y-112756824D01*
X147047176Y-112913089D01*
X147051782Y-112916290D01*
X147051784Y-112916292D01*
X147224037Y-113036011D01*
X147228643Y-113039212D01*
X147233739Y-113041545D01*
X147233744Y-113041548D01*
X147424472Y-113128870D01*
X147424474Y-113128871D01*
X147429577Y-113131207D01*
X147643626Y-113186166D01*
X147707149Y-113191333D01*
X147780425Y-113197293D01*
X147780437Y-113197293D01*
X147782976Y-113197500D01*
X148381024Y-113197500D01*
X148383563Y-113197293D01*
X148383575Y-113197293D01*
X148456851Y-113191333D01*
X148520374Y-113186166D01*
X148734423Y-113131207D01*
X148739526Y-113128871D01*
X148739528Y-113128870D01*
X148930256Y-113041548D01*
X148930261Y-113041545D01*
X148935357Y-113039212D01*
X148939963Y-113036011D01*
X149112216Y-112916292D01*
X149112218Y-112916290D01*
X149116824Y-112913089D01*
X149262905Y-112767008D01*
X149325217Y-112732982D01*
X149396032Y-112738047D01*
X149441095Y-112767008D01*
X149587176Y-112913089D01*
X149591782Y-112916290D01*
X149591784Y-112916292D01*
X149764037Y-113036011D01*
X149768643Y-113039212D01*
X149773739Y-113041545D01*
X149773744Y-113041548D01*
X149964472Y-113128870D01*
X149964474Y-113128871D01*
X149969577Y-113131207D01*
X150183626Y-113186166D01*
X150247149Y-113191333D01*
X150320425Y-113197293D01*
X150320437Y-113197293D01*
X150322976Y-113197500D01*
X150921024Y-113197500D01*
X150923563Y-113197293D01*
X150923575Y-113197293D01*
X150996851Y-113191333D01*
X151060374Y-113186166D01*
X151274423Y-113131207D01*
X151279526Y-113128871D01*
X151279528Y-113128870D01*
X151470256Y-113041548D01*
X151470261Y-113041545D01*
X151475357Y-113039212D01*
X151479963Y-113036011D01*
X151652216Y-112916292D01*
X151652218Y-112916290D01*
X151656824Y-112913089D01*
X151813089Y-112756824D01*
X151816292Y-112752216D01*
X151938703Y-112576090D01*
X151994006Y-112531568D01*
X152042168Y-112522000D01*
X154814000Y-112522000D01*
X154882121Y-112542002D01*
X154928614Y-112595658D01*
X154940000Y-112648000D01*
X154940000Y-114682000D01*
X154919998Y-114750121D01*
X154866342Y-114796614D01*
X154814000Y-114808000D01*
X133781026Y-114808000D01*
X133712905Y-114787998D01*
X133666412Y-114734342D01*
X133656308Y-114664068D01*
X133666461Y-114629551D01*
X133705207Y-114544923D01*
X133760166Y-114330874D01*
X133771500Y-114191524D01*
X133771500Y-113593476D01*
X133760166Y-113454126D01*
X133705207Y-113240077D01*
X133656002Y-113132604D01*
X133615548Y-113044244D01*
X133615545Y-113044239D01*
X133613212Y-113039143D01*
X133588448Y-113003512D01*
X133490292Y-112862284D01*
X133490290Y-112862282D01*
X133487089Y-112857676D01*
X133330824Y-112701411D01*
X133268850Y-112658338D01*
X133224328Y-112603036D01*
X133214934Y-112548250D01*
X133217169Y-112505798D01*
X133220714Y-112438429D01*
X133235165Y-112163875D01*
X133258720Y-112096900D01*
X133289081Y-112067034D01*
X133329707Y-112038798D01*
X133329708Y-112038797D01*
X133334324Y-112035589D01*
X133490589Y-111879324D01*
X133506821Y-111855970D01*
X133613511Y-111702463D01*
X133613512Y-111702461D01*
X133616712Y-111697857D01*
X133619045Y-111692761D01*
X133619048Y-111692756D01*
X133706370Y-111502028D01*
X133706371Y-111502026D01*
X133708707Y-111496923D01*
X133763666Y-111282874D01*
X133775000Y-111143524D01*
X133775000Y-111058861D01*
X133776953Y-111036765D01*
X133785055Y-110991283D01*
X133785056Y-110991277D01*
X133785961Y-110986194D01*
X133788975Y-110739472D01*
X133776450Y-110657620D01*
X133775000Y-110638561D01*
X133775000Y-110545476D01*
X133765137Y-110424214D01*
X133779550Y-110354697D01*
X133829260Y-110304007D01*
X133890722Y-110288000D01*
X134423524Y-110288000D01*
X134426063Y-110287793D01*
X134426075Y-110287793D01*
X134499351Y-110281833D01*
X134562874Y-110276666D01*
X134776923Y-110221707D01*
X134782026Y-110219371D01*
X134782028Y-110219370D01*
X134972756Y-110132048D01*
X134972761Y-110132045D01*
X134977857Y-110129712D01*
X135024573Y-110097244D01*
X135091924Y-110074791D01*
X135160724Y-110092316D01*
G37*
%TD.AperFunction*%
%TA.AperFunction,Conductor*%
G36*
X155135871Y-90190002D02*
G01*
X155182364Y-90243658D01*
X155193750Y-90296248D01*
X155192997Y-90675925D01*
X155190720Y-91824033D01*
X155170583Y-91892114D01*
X155116835Y-91938500D01*
X155066470Y-91949771D01*
X151535006Y-91998819D01*
X151475701Y-91983537D01*
X151475357Y-91984288D01*
X151375348Y-91938500D01*
X151279528Y-91894630D01*
X151279526Y-91894629D01*
X151274423Y-91892293D01*
X151060374Y-91837334D01*
X150996851Y-91832167D01*
X150923575Y-91826207D01*
X150923563Y-91826207D01*
X150921024Y-91826000D01*
X150322976Y-91826000D01*
X150320437Y-91826207D01*
X150320425Y-91826207D01*
X150247149Y-91832167D01*
X150183626Y-91837334D01*
X149969577Y-91892293D01*
X149964474Y-91894629D01*
X149964472Y-91894630D01*
X149773744Y-91981952D01*
X149773739Y-91981955D01*
X149768643Y-91984288D01*
X149764039Y-91987488D01*
X149764037Y-91987489D01*
X149742927Y-92002161D01*
X149672768Y-92024684D01*
X149047232Y-92033372D01*
X148973573Y-92010849D01*
X148969065Y-92007716D01*
X148935357Y-91984288D01*
X148930260Y-91981954D01*
X148930254Y-91981951D01*
X148739528Y-91894630D01*
X148739526Y-91894629D01*
X148734423Y-91892293D01*
X148520374Y-91837334D01*
X148456851Y-91832167D01*
X148383575Y-91826207D01*
X148383563Y-91826207D01*
X148381024Y-91826000D01*
X147782976Y-91826000D01*
X147780437Y-91826207D01*
X147780425Y-91826207D01*
X147707149Y-91832167D01*
X147643626Y-91837334D01*
X147429577Y-91892293D01*
X147424474Y-91894629D01*
X147424472Y-91894630D01*
X147233744Y-91981952D01*
X147233739Y-91981955D01*
X147228643Y-91984288D01*
X147224039Y-91987488D01*
X147224037Y-91987489D01*
X147151134Y-92038158D01*
X147080974Y-92060681D01*
X139022175Y-92172609D01*
X138967975Y-92161185D01*
X138833528Y-92099630D01*
X138833526Y-92099629D01*
X138828423Y-92097293D01*
X138614374Y-92042334D01*
X138550851Y-92037167D01*
X138477575Y-92031207D01*
X138477563Y-92031207D01*
X138475024Y-92031000D01*
X138407079Y-92031000D01*
X138380667Y-92028201D01*
X138374974Y-92026980D01*
X138374968Y-92026979D01*
X138369920Y-92025897D01*
X138364759Y-92025654D01*
X138364754Y-92025653D01*
X138246687Y-92020086D01*
X138123453Y-92014274D01*
X138015295Y-92026980D01*
X137988404Y-92030139D01*
X137973703Y-92031000D01*
X137876976Y-92031000D01*
X137874437Y-92031207D01*
X137874425Y-92031207D01*
X137801149Y-92037167D01*
X137737626Y-92042334D01*
X137523577Y-92097293D01*
X137518474Y-92099629D01*
X137518472Y-92099630D01*
X137331189Y-92185375D01*
X137280489Y-92196799D01*
X137170953Y-92198320D01*
X136920586Y-92201797D01*
X136920584Y-92201797D01*
X136902474Y-92202049D01*
X136900654Y-92212131D01*
X136799256Y-92773707D01*
X136789825Y-92803771D01*
X136766793Y-92854077D01*
X136711834Y-93068126D01*
X136700500Y-93207476D01*
X136700500Y-93227608D01*
X136699243Y-93245362D01*
X136673007Y-93429706D01*
X136673124Y-93434869D01*
X136673124Y-93434872D01*
X136673589Y-93455374D01*
X136671616Y-93480618D01*
X136416708Y-94892388D01*
X136384920Y-94955871D01*
X136323857Y-94992090D01*
X136292713Y-94996000D01*
X135921569Y-94996000D01*
X135869118Y-94984564D01*
X135694528Y-94904630D01*
X135694526Y-94904629D01*
X135689423Y-94902293D01*
X135475374Y-94847334D01*
X135411851Y-94842167D01*
X135338575Y-94836207D01*
X135338563Y-94836207D01*
X135336024Y-94836000D01*
X134712976Y-94836000D01*
X134710437Y-94836207D01*
X134710425Y-94836207D01*
X134578969Y-94846899D01*
X134578964Y-94846900D01*
X134573626Y-94847334D01*
X134568794Y-94848575D01*
X134498413Y-94840133D01*
X134443683Y-94794909D01*
X134422092Y-94727275D01*
X134422472Y-94714110D01*
X134433293Y-94581073D01*
X134433293Y-94581065D01*
X134433500Y-94578524D01*
X134433500Y-94493861D01*
X134435453Y-94471765D01*
X134443555Y-94426283D01*
X134443556Y-94426277D01*
X134444461Y-94421194D01*
X134447475Y-94174472D01*
X134434950Y-94092620D01*
X134433500Y-94073561D01*
X134433500Y-93980476D01*
X134422166Y-93841126D01*
X134367207Y-93627077D01*
X134300153Y-93480618D01*
X134277548Y-93431244D01*
X134277545Y-93431239D01*
X134275212Y-93426143D01*
X134272013Y-93421540D01*
X134272010Y-93421535D01*
X134224927Y-93353793D01*
X134202473Y-93286440D01*
X134202565Y-93275260D01*
X134254188Y-92294429D01*
X134277743Y-92227453D01*
X134308103Y-92197587D01*
X134345213Y-92171794D01*
X134345215Y-92171792D01*
X134349824Y-92168589D01*
X134506089Y-92012324D01*
X134513153Y-92002161D01*
X134629011Y-91835463D01*
X134629012Y-91835461D01*
X134632212Y-91830857D01*
X134634545Y-91825761D01*
X134634548Y-91825756D01*
X134721870Y-91635028D01*
X134721871Y-91635026D01*
X134724207Y-91629923D01*
X134779166Y-91415874D01*
X134790500Y-91276524D01*
X134790500Y-90678476D01*
X134779166Y-90539126D01*
X134764114Y-90480502D01*
X134724787Y-90327335D01*
X134727219Y-90256380D01*
X134767627Y-90198004D01*
X134833180Y-90170741D01*
X134846828Y-90170000D01*
X155067750Y-90170000D01*
X155135871Y-90190002D01*
G37*
%TD.AperFunction*%
%TA.AperFunction,Conductor*%
G36*
X154882121Y-104922002D02*
G01*
X154928614Y-104975658D01*
X154940000Y-105028000D01*
X154940000Y-106554000D01*
X154919998Y-106622121D01*
X154866342Y-106668614D01*
X154814000Y-106680000D01*
X152042168Y-106680000D01*
X151974047Y-106659998D01*
X151938703Y-106625910D01*
X151816292Y-106449784D01*
X151816290Y-106449782D01*
X151813089Y-106445176D01*
X151656824Y-106288911D01*
X151652218Y-106285710D01*
X151652216Y-106285708D01*
X151479963Y-106165989D01*
X151479961Y-106165988D01*
X151475357Y-106162788D01*
X151470261Y-106160455D01*
X151470256Y-106160452D01*
X151279528Y-106073130D01*
X151279526Y-106073129D01*
X151274423Y-106070793D01*
X151060374Y-106015834D01*
X150996851Y-106010667D01*
X150923575Y-106004707D01*
X150923563Y-106004707D01*
X150921024Y-106004500D01*
X150322976Y-106004500D01*
X150320437Y-106004707D01*
X150320425Y-106004707D01*
X150247149Y-106010667D01*
X150183626Y-106015834D01*
X149969577Y-106070793D01*
X149964474Y-106073129D01*
X149964472Y-106073130D01*
X149773744Y-106160452D01*
X149773739Y-106160455D01*
X149768643Y-106162788D01*
X149764039Y-106165988D01*
X149764037Y-106165989D01*
X149591784Y-106285708D01*
X149591782Y-106285710D01*
X149587176Y-106288911D01*
X149507299Y-106368788D01*
X149444987Y-106402814D01*
X149374172Y-106397749D01*
X149314739Y-106351603D01*
X149312207Y-106347960D01*
X149273089Y-106291676D01*
X149116824Y-106135411D01*
X149112218Y-106132210D01*
X149112216Y-106132208D01*
X148939963Y-106012489D01*
X148939961Y-106012488D01*
X148935357Y-106009288D01*
X148930261Y-106006955D01*
X148930256Y-106006952D01*
X148739528Y-105919630D01*
X148739526Y-105919629D01*
X148734423Y-105917293D01*
X148520374Y-105862334D01*
X148456851Y-105857167D01*
X148383575Y-105851207D01*
X148383563Y-105851207D01*
X148381024Y-105851000D01*
X147782976Y-105851000D01*
X147780437Y-105851207D01*
X147780425Y-105851207D01*
X147707149Y-105857167D01*
X147643626Y-105862334D01*
X147429577Y-105917293D01*
X147424474Y-105919629D01*
X147424472Y-105919630D01*
X147233744Y-106006952D01*
X147233739Y-106006955D01*
X147228643Y-106009288D01*
X147224039Y-106012488D01*
X147224037Y-106012489D01*
X147051784Y-106132208D01*
X147051782Y-106132210D01*
X147047176Y-106135411D01*
X146890911Y-106291676D01*
X146887710Y-106296282D01*
X146887708Y-106296284D01*
X146781023Y-106449784D01*
X146764788Y-106473143D01*
X146735915Y-106536208D01*
X146703755Y-106606451D01*
X146657211Y-106660063D01*
X146589191Y-106680000D01*
X138895603Y-106680000D01*
X138827482Y-106659998D01*
X138806508Y-106643095D01*
X138702824Y-106539411D01*
X138698218Y-106536210D01*
X138698216Y-106536208D01*
X138525963Y-106416489D01*
X138525961Y-106416488D01*
X138521357Y-106413288D01*
X138516261Y-106410955D01*
X138516256Y-106410952D01*
X138325528Y-106323630D01*
X138325526Y-106323629D01*
X138320423Y-106321293D01*
X138106374Y-106266334D01*
X138042851Y-106261167D01*
X137969575Y-106255207D01*
X137969563Y-106255207D01*
X137967024Y-106255000D01*
X137899079Y-106255000D01*
X137872667Y-106252201D01*
X137866974Y-106250980D01*
X137866968Y-106250979D01*
X137861920Y-106249897D01*
X137856759Y-106249654D01*
X137856754Y-106249653D01*
X137738686Y-106244085D01*
X137615453Y-106238274D01*
X137507295Y-106250980D01*
X137480404Y-106254139D01*
X137465703Y-106255000D01*
X137368976Y-106255000D01*
X137366437Y-106255207D01*
X137366425Y-106255207D01*
X137293149Y-106261167D01*
X137229626Y-106266334D01*
X137015577Y-106321293D01*
X137010474Y-106323629D01*
X137010472Y-106323630D01*
X136819744Y-106410952D01*
X136819739Y-106410955D01*
X136814643Y-106413288D01*
X136810039Y-106416488D01*
X136810037Y-106416489D01*
X136637784Y-106536208D01*
X136637782Y-106536210D01*
X136633176Y-106539411D01*
X136529492Y-106643095D01*
X136467180Y-106677121D01*
X136440397Y-106680000D01*
X136398000Y-106680000D01*
X135250544Y-109433896D01*
X135219172Y-109509188D01*
X135174508Y-109564375D01*
X135107098Y-109586655D01*
X135038343Y-109568953D01*
X135030955Y-109564191D01*
X134982469Y-109530493D01*
X134982466Y-109530491D01*
X134977857Y-109527288D01*
X134972761Y-109524955D01*
X134972756Y-109524952D01*
X134782028Y-109437630D01*
X134782026Y-109437629D01*
X134776923Y-109435293D01*
X134562874Y-109380334D01*
X134499351Y-109375167D01*
X134426075Y-109369207D01*
X134426063Y-109369207D01*
X134423524Y-109369000D01*
X133890722Y-109369000D01*
X133822601Y-109348998D01*
X133776108Y-109295342D01*
X133765137Y-109232785D01*
X133774793Y-109114073D01*
X133774793Y-109114065D01*
X133775000Y-109111524D01*
X133775000Y-109026861D01*
X133776953Y-109004765D01*
X133785055Y-108959283D01*
X133785056Y-108959277D01*
X133785961Y-108954194D01*
X133788975Y-108707472D01*
X133776450Y-108625620D01*
X133775000Y-108606561D01*
X133775000Y-108513476D01*
X133763666Y-108374126D01*
X133708707Y-108160077D01*
X133694435Y-108128904D01*
X133619048Y-107964244D01*
X133619045Y-107964239D01*
X133616712Y-107959143D01*
X133535940Y-107842927D01*
X133493792Y-107782284D01*
X133493790Y-107782282D01*
X133490589Y-107777676D01*
X133386905Y-107673992D01*
X133352879Y-107611680D01*
X133350000Y-107584897D01*
X133350000Y-107184668D01*
X133370002Y-107116547D01*
X133404090Y-107081203D01*
X133580216Y-106958792D01*
X133580218Y-106958790D01*
X133584824Y-106955589D01*
X133741089Y-106799324D01*
X133765546Y-106764136D01*
X133864011Y-106622463D01*
X133864012Y-106622461D01*
X133867212Y-106617857D01*
X133869545Y-106612761D01*
X133869548Y-106612756D01*
X133956870Y-106422028D01*
X133956871Y-106422026D01*
X133959207Y-106416923D01*
X134014166Y-106202874D01*
X134024909Y-106070793D01*
X134025293Y-106066075D01*
X134025293Y-106066063D01*
X134025500Y-106063524D01*
X134025500Y-105465476D01*
X134014166Y-105326126D01*
X133959207Y-105112077D01*
X133944728Y-105080452D01*
X133934556Y-105010189D01*
X133963987Y-104945579D01*
X134023676Y-104907138D01*
X134059291Y-104902000D01*
X154814000Y-104902000D01*
X154882121Y-104922002D01*
G37*
%TD.AperFunction*%
%TA.AperFunction,Conductor*%
G36*
X155194000Y-96797313D02*
G01*
X155071179Y-96784823D01*
X155071174Y-96784823D01*
X155068000Y-96784500D01*
X151891603Y-96784500D01*
X151834701Y-96787549D01*
X151785830Y-96790168D01*
X151785820Y-96790169D01*
X151784137Y-96790259D01*
X151757354Y-96793138D01*
X151754424Y-96793738D01*
X151754420Y-96793739D01*
X151693749Y-96806171D01*
X151570434Y-96831439D01*
X151382923Y-96910379D01*
X151320611Y-96944405D01*
X151319521Y-96945060D01*
X151318356Y-96945728D01*
X151318181Y-96945422D01*
X151250800Y-96963048D01*
X151223217Y-96959146D01*
X151060374Y-96917334D01*
X150993601Y-96911903D01*
X150923575Y-96906207D01*
X150923563Y-96906207D01*
X150921024Y-96906000D01*
X150322976Y-96906000D01*
X150320437Y-96906207D01*
X150320425Y-96906207D01*
X150250399Y-96911903D01*
X150183626Y-96917334D01*
X150178422Y-96918670D01*
X150178423Y-96918670D01*
X150022848Y-96958615D01*
X149951893Y-96956183D01*
X149922114Y-96941740D01*
X149920235Y-96940500D01*
X149892207Y-96922004D01*
X149886478Y-96919669D01*
X149886475Y-96919668D01*
X149706748Y-96846433D01*
X149706747Y-96846433D01*
X149703798Y-96845231D01*
X149635677Y-96825229D01*
X149634396Y-96824910D01*
X149634389Y-96824908D01*
X149597979Y-96815838D01*
X149554803Y-96805083D01*
X149475895Y-96797059D01*
X149355576Y-96784823D01*
X149355571Y-96784823D01*
X149352397Y-96784500D01*
X149351603Y-96784500D01*
X149294701Y-96787549D01*
X149245830Y-96790168D01*
X149245820Y-96790169D01*
X149244137Y-96790259D01*
X149217354Y-96793138D01*
X149214424Y-96793738D01*
X149214420Y-96793739D01*
X149153749Y-96806171D01*
X149030434Y-96831439D01*
X148842923Y-96910379D01*
X148780611Y-96944405D01*
X148779521Y-96945060D01*
X148778356Y-96945728D01*
X148778181Y-96945422D01*
X148710800Y-96963048D01*
X148683217Y-96959146D01*
X148520374Y-96917334D01*
X148453601Y-96911903D01*
X148383575Y-96906207D01*
X148383563Y-96906207D01*
X148381024Y-96906000D01*
X147782976Y-96906000D01*
X147780437Y-96906207D01*
X147780425Y-96906207D01*
X147710399Y-96911903D01*
X147643626Y-96917334D01*
X147638422Y-96918670D01*
X147638423Y-96918670D01*
X147482848Y-96958615D01*
X147411893Y-96956183D01*
X147382114Y-96941740D01*
X147380235Y-96940500D01*
X147352207Y-96922004D01*
X147346478Y-96919669D01*
X147346475Y-96919668D01*
X147166748Y-96846433D01*
X147166747Y-96846433D01*
X147163798Y-96845231D01*
X147095677Y-96825229D01*
X147094396Y-96824910D01*
X147094389Y-96824908D01*
X147057979Y-96815838D01*
X147014803Y-96805083D01*
X146935895Y-96797059D01*
X146815576Y-96784823D01*
X146815571Y-96784823D01*
X146812397Y-96784500D01*
X144144000Y-96784500D01*
X144075879Y-96764498D01*
X144029386Y-96710842D01*
X144018000Y-96658500D01*
X144018000Y-93233081D01*
X144038002Y-93164960D01*
X144091658Y-93118467D01*
X144142247Y-93107094D01*
X146445811Y-93075100D01*
X147093439Y-93066105D01*
X147093447Y-93066105D01*
X147094938Y-93066084D01*
X147189305Y-93060328D01*
X147193868Y-93059359D01*
X147193874Y-93059358D01*
X147237519Y-93050088D01*
X147308309Y-93055501D01*
X147316148Y-93058775D01*
X147380670Y-93088316D01*
X147429577Y-93110707D01*
X147643626Y-93165666D01*
X147707149Y-93170833D01*
X147780425Y-93176793D01*
X147780437Y-93176793D01*
X147782976Y-93177000D01*
X148381024Y-93177000D01*
X148383563Y-93176793D01*
X148383575Y-93176793D01*
X148456851Y-93170833D01*
X148520374Y-93165666D01*
X148734423Y-93110707D01*
X148888526Y-93040153D01*
X148951983Y-93029199D01*
X148991437Y-93032658D01*
X149058001Y-93038495D01*
X149058004Y-93038495D01*
X149061196Y-93038775D01*
X149064388Y-93038731D01*
X149064397Y-93038731D01*
X149685233Y-93030108D01*
X149685241Y-93030108D01*
X149686732Y-93030087D01*
X149749474Y-93026260D01*
X149809596Y-93037462D01*
X149969577Y-93110707D01*
X150183626Y-93165666D01*
X150247149Y-93170833D01*
X150320425Y-93176793D01*
X150320437Y-93176793D01*
X150322976Y-93177000D01*
X150921024Y-93177000D01*
X150923563Y-93176793D01*
X150923575Y-93176793D01*
X150996851Y-93170833D01*
X151060374Y-93165666D01*
X151274423Y-93110707D01*
X151279526Y-93108371D01*
X151279528Y-93108370D01*
X151434161Y-93037573D01*
X151475357Y-93018712D01*
X151475593Y-93019228D01*
X151542577Y-93004571D01*
X151542605Y-93003825D01*
X151545501Y-93003932D01*
X151545546Y-93003922D01*
X151548970Y-93004222D01*
X151552163Y-93004178D01*
X151552172Y-93004178D01*
X154276369Y-92966342D01*
X155080434Y-92955174D01*
X155194000Y-92941823D01*
X155194000Y-96797313D01*
G37*
%TD.AperFunction*%
%TA.AperFunction,Conductor*%
G36*
X153794484Y-65423330D02*
G01*
X153852222Y-65464645D01*
X153878457Y-65530617D01*
X153879000Y-65542305D01*
X153879000Y-66166174D01*
X153879207Y-66168714D01*
X153879207Y-66168724D01*
X153884199Y-66230089D01*
X153890453Y-66306984D01*
X153945989Y-66523280D01*
X154038949Y-66726324D01*
X154166397Y-66909697D01*
X154324303Y-67067603D01*
X154328909Y-67070804D01*
X154328911Y-67070806D01*
X154503070Y-67191850D01*
X154507676Y-67195051D01*
X154543788Y-67211584D01*
X154705615Y-67285674D01*
X154705617Y-67285675D01*
X154710720Y-67288011D01*
X154716161Y-67289408D01*
X154921812Y-67342211D01*
X154921814Y-67342211D01*
X154927016Y-67343547D01*
X155003911Y-67349801D01*
X155065276Y-67354793D01*
X155065286Y-67354793D01*
X155067826Y-67355000D01*
X155559336Y-67355000D01*
X155627457Y-67375002D01*
X155648431Y-67391905D01*
X160958510Y-72701984D01*
X160969377Y-72714374D01*
X160982790Y-72731854D01*
X161042342Y-72786042D01*
X161042676Y-72786346D01*
X161046971Y-72790445D01*
X161062807Y-72806281D01*
X161064960Y-72808081D01*
X161064962Y-72808083D01*
X161082702Y-72822916D01*
X161086669Y-72826376D01*
X161147893Y-72882086D01*
X161162948Y-72891530D01*
X161176806Y-72901599D01*
X161190438Y-72912997D01*
X161195314Y-72915778D01*
X161262337Y-72954008D01*
X161266843Y-72956704D01*
X161336990Y-73000707D01*
X161353479Y-73007335D01*
X161368909Y-73014795D01*
X161384337Y-73023595D01*
X161450226Y-73046928D01*
X161462366Y-73051227D01*
X161467302Y-73053092D01*
X161544105Y-73083966D01*
X161549599Y-73085104D01*
X161549603Y-73085105D01*
X161561497Y-73087568D01*
X161578009Y-73092178D01*
X161594757Y-73098109D01*
X161665963Y-73109769D01*
X161676450Y-73111486D01*
X161681641Y-73112448D01*
X161762690Y-73129233D01*
X161767300Y-73129499D01*
X161767301Y-73129499D01*
X161790262Y-73130823D01*
X161803368Y-73132270D01*
X161809504Y-73133275D01*
X161809509Y-73133275D01*
X161815046Y-73134182D01*
X161820660Y-73134094D01*
X161820662Y-73134094D01*
X161921135Y-73132516D01*
X161923113Y-73132500D01*
X162615034Y-73132500D01*
X162683155Y-73152502D01*
X162729648Y-73206158D01*
X162739752Y-73276432D01*
X162714632Y-73333155D01*
X162715755Y-73333962D01*
X162687683Y-73373029D01*
X162631692Y-73416674D01*
X162585363Y-73425500D01*
X158656624Y-73425500D01*
X158588503Y-73405498D01*
X158542010Y-73351842D01*
X158535505Y-73334230D01*
X158499501Y-73208668D01*
X158497741Y-73202530D01*
X158419616Y-73053092D01*
X158406529Y-73028058D01*
X158406528Y-73028057D01*
X158403573Y-73022404D01*
X158393896Y-73010538D01*
X158279138Y-72869831D01*
X158275109Y-72864891D01*
X158225712Y-72824604D01*
X158122540Y-72740459D01*
X158122539Y-72740458D01*
X158117596Y-72736427D01*
X158093124Y-72723633D01*
X158009839Y-72680093D01*
X157937470Y-72642259D01*
X157805769Y-72604495D01*
X157745801Y-72566491D01*
X157715899Y-72502099D01*
X157714500Y-72483376D01*
X157714500Y-71609861D01*
X157715578Y-71593414D01*
X157717720Y-71577146D01*
X157717720Y-71577144D01*
X157718453Y-71571577D01*
X157714640Y-71490728D01*
X157714500Y-71484792D01*
X157714500Y-71462370D01*
X157712196Y-71436550D01*
X157711837Y-71431287D01*
X157711073Y-71415092D01*
X157707937Y-71348602D01*
X157706686Y-71343139D01*
X157706685Y-71343133D01*
X157703972Y-71331289D01*
X157701290Y-71314355D01*
X157700210Y-71302257D01*
X157699711Y-71296661D01*
X157696490Y-71284885D01*
X157677870Y-71216823D01*
X157676584Y-71211705D01*
X157659355Y-71136478D01*
X157659355Y-71136477D01*
X157658103Y-71131012D01*
X157651131Y-71114665D01*
X157645498Y-71098490D01*
X157642289Y-71086761D01*
X157642288Y-71086757D01*
X157640808Y-71081349D01*
X157605171Y-71006634D01*
X157603000Y-71001825D01*
X157572725Y-70930847D01*
X157572725Y-70930846D01*
X157570524Y-70925687D01*
X157560764Y-70910829D01*
X157552358Y-70895909D01*
X157544708Y-70879871D01*
X157541437Y-70875318D01*
X157541434Y-70875314D01*
X157496411Y-70812659D01*
X157493421Y-70808310D01*
X157450505Y-70742976D01*
X157450502Y-70742972D01*
X157447969Y-70739116D01*
X157429601Y-70718499D01*
X157421356Y-70708209D01*
X157414448Y-70698595D01*
X157410506Y-70694775D01*
X157381152Y-70630170D01*
X157380251Y-70621817D01*
X157365974Y-70429700D01*
X157365972Y-70429683D01*
X157365626Y-70425034D01*
X157308205Y-70171268D01*
X157306512Y-70166914D01*
X157215598Y-69933130D01*
X157215597Y-69933128D01*
X157213905Y-69928777D01*
X157084799Y-69702888D01*
X156923723Y-69498564D01*
X156734214Y-69320292D01*
X156520437Y-69171989D01*
X156516247Y-69169923D01*
X156516244Y-69169921D01*
X156291275Y-69058979D01*
X156291272Y-69058978D01*
X156287087Y-69056914D01*
X156039292Y-68977594D01*
X155899069Y-68954757D01*
X155787106Y-68936523D01*
X155787105Y-68936523D01*
X155782494Y-68935772D01*
X155652415Y-68934069D01*
X155527012Y-68932427D01*
X155527009Y-68932427D01*
X155522335Y-68932366D01*
X155264530Y-68967452D01*
X155014743Y-69040258D01*
X155010490Y-69042218D01*
X155010489Y-69042219D01*
X154974134Y-69058979D01*
X154778461Y-69149186D01*
X154774556Y-69151746D01*
X154774551Y-69151749D01*
X154564788Y-69289275D01*
X154564783Y-69289279D01*
X154560875Y-69291841D01*
X154366765Y-69465091D01*
X154200395Y-69665129D01*
X154065420Y-69887561D01*
X154063611Y-69891875D01*
X154063610Y-69891877D01*
X154049838Y-69924721D01*
X153964805Y-70127501D01*
X153900761Y-70379677D01*
X153874694Y-70638549D01*
X153874918Y-70643215D01*
X153874918Y-70643220D01*
X153879710Y-70742976D01*
X153887177Y-70898430D01*
X153937935Y-71153612D01*
X154025855Y-71398489D01*
X154149004Y-71627680D01*
X154151799Y-71631423D01*
X154151801Y-71631426D01*
X154301885Y-71832413D01*
X154301890Y-71832419D01*
X154304677Y-71836151D01*
X154307986Y-71839431D01*
X154307991Y-71839437D01*
X154486137Y-72016035D01*
X154489454Y-72019323D01*
X154493216Y-72022081D01*
X154493219Y-72022084D01*
X154605832Y-72104655D01*
X154699275Y-72173170D01*
X154703410Y-72175346D01*
X154703414Y-72175348D01*
X154829274Y-72241566D01*
X154929533Y-72294315D01*
X155129041Y-72363986D01*
X155186758Y-72405328D01*
X155212962Y-72471312D01*
X155213500Y-72482941D01*
X155213500Y-72483376D01*
X155193498Y-72551497D01*
X155139842Y-72597990D01*
X155122233Y-72604494D01*
X154990530Y-72642259D01*
X154918161Y-72680093D01*
X154834877Y-72723633D01*
X154810404Y-72736427D01*
X154805461Y-72740458D01*
X154805460Y-72740459D01*
X154702288Y-72824604D01*
X154652891Y-72864891D01*
X154648862Y-72869831D01*
X154534105Y-73010538D01*
X154524427Y-73022404D01*
X154521472Y-73028057D01*
X154521471Y-73028058D01*
X154508384Y-73053092D01*
X154430259Y-73202530D01*
X154374234Y-73397913D01*
X154363500Y-73518184D01*
X154363500Y-75833816D01*
X154374234Y-75954087D01*
X154430259Y-76149470D01*
X154524427Y-76329596D01*
X154652891Y-76487109D01*
X154657831Y-76491138D01*
X154709487Y-76533267D01*
X154810404Y-76615573D01*
X154816057Y-76618528D01*
X154816058Y-76618529D01*
X154850338Y-76636450D01*
X154990530Y-76709741D01*
X155185913Y-76765766D01*
X155217545Y-76768589D01*
X155303391Y-76776251D01*
X155303397Y-76776251D01*
X155306184Y-76776500D01*
X156103500Y-76776500D01*
X156171621Y-76796502D01*
X156218114Y-76850158D01*
X156229500Y-76902500D01*
X156229500Y-78388771D01*
X156209498Y-78456892D01*
X156155842Y-78503385D01*
X156117983Y-78513936D01*
X155912732Y-78537684D01*
X155907861Y-78539062D01*
X155907858Y-78539063D01*
X155799456Y-78569738D01*
X155676523Y-78604525D01*
X155565281Y-78656398D01*
X155458622Y-78706133D01*
X155458618Y-78706135D01*
X155454040Y-78708270D01*
X155449859Y-78711112D01*
X155449858Y-78711112D01*
X155255193Y-78843406D01*
X155255189Y-78843409D01*
X155251006Y-78846252D01*
X155072644Y-79014920D01*
X155069566Y-79018946D01*
X155069565Y-79018947D01*
X154926617Y-79205916D01*
X154926614Y-79205920D01*
X154923544Y-79209936D01*
X154921154Y-79214394D01*
X154921153Y-79214395D01*
X154879603Y-79291886D01*
X154807541Y-79426281D01*
X154805895Y-79431062D01*
X154805893Y-79431066D01*
X154762905Y-79555911D01*
X154727619Y-79658389D01*
X154685836Y-79900290D01*
X154684500Y-79929710D01*
X154684500Y-80550686D01*
X154684702Y-80553194D01*
X154684702Y-80553199D01*
X154691012Y-80631620D01*
X154699224Y-80733692D01*
X154757780Y-80972089D01*
X154759755Y-80976741D01*
X154759756Y-80976745D01*
X154822521Y-81124609D01*
X154853698Y-81198057D01*
X154984510Y-81405783D01*
X154987855Y-81409577D01*
X155028014Y-81455129D01*
X155058059Y-81519455D01*
X155059500Y-81538454D01*
X155059500Y-84134463D01*
X155059230Y-84142703D01*
X155054967Y-84207746D01*
X155055646Y-84213479D01*
X155065434Y-84296175D01*
X155065778Y-84299457D01*
X155071652Y-84363383D01*
X155073919Y-84388060D01*
X155075488Y-84393622D01*
X155076051Y-84396661D01*
X155078501Y-84408981D01*
X155079142Y-84411994D01*
X155079820Y-84417727D01*
X155081533Y-84423244D01*
X155081534Y-84423248D01*
X155106205Y-84502701D01*
X155107142Y-84505864D01*
X155129744Y-84586007D01*
X155129749Y-84586021D01*
X155131314Y-84591569D01*
X155133866Y-84596744D01*
X155134975Y-84599633D01*
X155139611Y-84611252D01*
X155140810Y-84614146D01*
X155142523Y-84619663D01*
X155145213Y-84624775D01*
X155145213Y-84624776D01*
X155183963Y-84698427D01*
X155185461Y-84701367D01*
X155222277Y-84776024D01*
X155222280Y-84776029D01*
X155224835Y-84781210D01*
X155228293Y-84785841D01*
X155229944Y-84788535D01*
X155236621Y-84799118D01*
X155238292Y-84801691D01*
X155240976Y-84806792D01*
X155244548Y-84811323D01*
X155296087Y-84876700D01*
X155298083Y-84879301D01*
X155351349Y-84950633D01*
X155412121Y-85006810D01*
X155415687Y-85010240D01*
X158922034Y-88516587D01*
X158927671Y-88522605D01*
X158970655Y-88571619D01*
X158975188Y-88575193D01*
X158975197Y-88575201D01*
X159040565Y-88626732D01*
X159043129Y-88628808D01*
X159107111Y-88682021D01*
X159107115Y-88682024D01*
X159111558Y-88685719D01*
X159116600Y-88688543D01*
X159119221Y-88690344D01*
X159129525Y-88697229D01*
X159132171Y-88698948D01*
X159136708Y-88702524D01*
X159141819Y-88705213D01*
X159141822Y-88705215D01*
X159215473Y-88743965D01*
X159218371Y-88745538D01*
X159287692Y-88784359D01*
X159296045Y-88789037D01*
X159301517Y-88790894D01*
X159304407Y-88792181D01*
X159315829Y-88797088D01*
X159318721Y-88798286D01*
X159323836Y-88800977D01*
X159364049Y-88813464D01*
X159408849Y-88827375D01*
X159411969Y-88828388D01*
X159496270Y-88857004D01*
X159501992Y-88857834D01*
X159504967Y-88858548D01*
X159517286Y-88861336D01*
X159520258Y-88861968D01*
X159525773Y-88863680D01*
X159607863Y-88873396D01*
X159614204Y-88874147D01*
X159617476Y-88874578D01*
X159705529Y-88887345D01*
X159712885Y-88887056D01*
X159715133Y-88886968D01*
X159716898Y-88887412D01*
X159717072Y-88887421D01*
X159717070Y-88887455D01*
X159783986Y-88904282D01*
X159832549Y-88956072D01*
X159845402Y-89025895D01*
X159842119Y-89044199D01*
X159825834Y-89107626D01*
X159825399Y-89112979D01*
X159814878Y-89242332D01*
X159814500Y-89246976D01*
X159814500Y-89870024D01*
X159825834Y-90009374D01*
X159880793Y-90223423D01*
X159883129Y-90228526D01*
X159883130Y-90228528D01*
X159970452Y-90419256D01*
X159970455Y-90419261D01*
X159972788Y-90424357D01*
X159975988Y-90428961D01*
X159975989Y-90428963D01*
X160079152Y-90577394D01*
X160098911Y-90605824D01*
X160102882Y-90609795D01*
X160106476Y-90614093D01*
X160105530Y-90614884D01*
X160136621Y-90671820D01*
X160139500Y-90698603D01*
X160139500Y-117526311D01*
X160117588Y-117597315D01*
X160068099Y-117669863D01*
X160065923Y-117674552D01*
X160065919Y-117674558D01*
X159973315Y-117874057D01*
X159971136Y-117878752D01*
X159909592Y-118100673D01*
X159909043Y-118105810D01*
X159885798Y-118323314D01*
X159885119Y-118329665D01*
X159885416Y-118334817D01*
X159885416Y-118334821D01*
X159891778Y-118445156D01*
X159898376Y-118559580D01*
X159899513Y-118564626D01*
X159899514Y-118564632D01*
X159910393Y-118612903D01*
X159949006Y-118784242D01*
X159950948Y-118789024D01*
X159950949Y-118789028D01*
X160015953Y-118949112D01*
X160035649Y-118997618D01*
X160155979Y-119193978D01*
X160306763Y-119368048D01*
X160310738Y-119371348D01*
X160310741Y-119371351D01*
X160457933Y-119493552D01*
X160497568Y-119552455D01*
X160499066Y-119623435D01*
X160461951Y-119683958D01*
X160408783Y-119712537D01*
X160267577Y-119748793D01*
X160072450Y-119838129D01*
X160002187Y-119848300D01*
X159967551Y-119838130D01*
X159772423Y-119748793D01*
X159558374Y-119693834D01*
X159494851Y-119688667D01*
X159421575Y-119682707D01*
X159421563Y-119682707D01*
X159419024Y-119682500D01*
X159311243Y-119682500D01*
X159243122Y-119662498D01*
X159222148Y-119645595D01*
X158195473Y-118618921D01*
X158189836Y-118612903D01*
X158150657Y-118568228D01*
X158146845Y-118563881D01*
X158076873Y-118508720D01*
X158074382Y-118506702D01*
X158010390Y-118453479D01*
X158010380Y-118453472D01*
X158005942Y-118449781D01*
X158000901Y-118446958D01*
X157998279Y-118445156D01*
X157987975Y-118438271D01*
X157985329Y-118436552D01*
X157980792Y-118432976D01*
X157975681Y-118430287D01*
X157975678Y-118430285D01*
X157902027Y-118391535D01*
X157899129Y-118389962D01*
X157826494Y-118349285D01*
X157821455Y-118346463D01*
X157815983Y-118344606D01*
X157813093Y-118343319D01*
X157801671Y-118338412D01*
X157798778Y-118337214D01*
X157793664Y-118334523D01*
X157739971Y-118317851D01*
X157708667Y-118308130D01*
X157705533Y-118307112D01*
X157626691Y-118280350D01*
X157626690Y-118280350D01*
X157621229Y-118278496D01*
X157615517Y-118277668D01*
X157612590Y-118276965D01*
X157600214Y-118274164D01*
X157597242Y-118273532D01*
X157591727Y-118271820D01*
X157503289Y-118261352D01*
X157500086Y-118260930D01*
X157433185Y-118251230D01*
X157417682Y-118248982D01*
X157417680Y-118248982D01*
X157411970Y-118248154D01*
X157329284Y-118251403D01*
X157324337Y-118251500D01*
X156231037Y-118251500D01*
X156222796Y-118251230D01*
X156157754Y-118246967D01*
X156069309Y-118257436D01*
X156066050Y-118257777D01*
X156046227Y-118259599D01*
X155983194Y-118265390D01*
X155983191Y-118265391D01*
X155977440Y-118265919D01*
X155971878Y-118267488D01*
X155968839Y-118268051D01*
X155956519Y-118270501D01*
X155953506Y-118271142D01*
X155947773Y-118271820D01*
X155942256Y-118273533D01*
X155942252Y-118273534D01*
X155862799Y-118298205D01*
X155859636Y-118299142D01*
X155779493Y-118321744D01*
X155779479Y-118321749D01*
X155773931Y-118323314D01*
X155768756Y-118325866D01*
X155765867Y-118326975D01*
X155754248Y-118331611D01*
X155751354Y-118332810D01*
X155745837Y-118334523D01*
X155740725Y-118337213D01*
X155740724Y-118337213D01*
X155667073Y-118375963D01*
X155664133Y-118377461D01*
X155589476Y-118414277D01*
X155589471Y-118414280D01*
X155584290Y-118416835D01*
X155579659Y-118420293D01*
X155576965Y-118421944D01*
X155566382Y-118428621D01*
X155563809Y-118430292D01*
X155558708Y-118432976D01*
X155554177Y-118436548D01*
X155488800Y-118488087D01*
X155486199Y-118490083D01*
X155414867Y-118543349D01*
X155391869Y-118568228D01*
X155358689Y-118604122D01*
X155355259Y-118607688D01*
X155222836Y-118740111D01*
X155158216Y-118774616D01*
X155155762Y-118775102D01*
X155150732Y-118775684D01*
X154914523Y-118842525D01*
X154803282Y-118894397D01*
X154696622Y-118944133D01*
X154696618Y-118944135D01*
X154692040Y-118946270D01*
X154687859Y-118949112D01*
X154687858Y-118949112D01*
X154493193Y-119081406D01*
X154493189Y-119081409D01*
X154489006Y-119084252D01*
X154310644Y-119252920D01*
X154307566Y-119256946D01*
X154307565Y-119256947D01*
X154164617Y-119443916D01*
X154164614Y-119443920D01*
X154161544Y-119447936D01*
X154045541Y-119664281D01*
X154043895Y-119669062D01*
X154043893Y-119669066D01*
X153980538Y-119853061D01*
X153965619Y-119896389D01*
X153964757Y-119901381D01*
X153931659Y-120093001D01*
X153923836Y-120138290D01*
X153922500Y-120167710D01*
X153922500Y-120788686D01*
X153937224Y-120971692D01*
X153995780Y-121210089D01*
X153997755Y-121214741D01*
X153997756Y-121214745D01*
X154061107Y-121363989D01*
X154091698Y-121436057D01*
X154222510Y-121643783D01*
X154257292Y-121683236D01*
X154287336Y-121747559D01*
X154277835Y-121817917D01*
X154251872Y-121855654D01*
X153810250Y-122297276D01*
X153797860Y-122308143D01*
X153780380Y-122321556D01*
X153749439Y-122355560D01*
X153725888Y-122381442D01*
X153721789Y-122385737D01*
X153705954Y-122401572D01*
X153689317Y-122421470D01*
X153685866Y-122425425D01*
X153630148Y-122486659D01*
X153620704Y-122501714D01*
X153610635Y-122515572D01*
X153599237Y-122529204D01*
X153596456Y-122534080D01*
X153558226Y-122601103D01*
X153555517Y-122605630D01*
X153521787Y-122659400D01*
X153479756Y-122700559D01*
X153432332Y-122728941D01*
X153432324Y-122728947D01*
X153428649Y-122731146D01*
X153425309Y-122733822D01*
X153425303Y-122733826D01*
X153320393Y-122817875D01*
X153205134Y-122910215D01*
X153094957Y-123026317D01*
X153027281Y-123097633D01*
X153007989Y-123117962D01*
X152840863Y-123350543D01*
X152706848Y-123603653D01*
X152608424Y-123872610D01*
X152547412Y-124152436D01*
X152543405Y-124203345D01*
X152532465Y-124342359D01*
X152524941Y-124437953D01*
X152541428Y-124723878D01*
X152542253Y-124728083D01*
X152542254Y-124728091D01*
X152549813Y-124766619D01*
X152596566Y-125004920D01*
X152689336Y-125275878D01*
X152691263Y-125279709D01*
X152812247Y-125520259D01*
X152818021Y-125531740D01*
X152820447Y-125535269D01*
X152820450Y-125535275D01*
X152874850Y-125614427D01*
X152980240Y-125767770D01*
X153172990Y-125979600D01*
X153293701Y-126080530D01*
X153334557Y-126114691D01*
X153373986Y-126173732D01*
X153379734Y-126211354D01*
X153379734Y-126552824D01*
X153359732Y-126620945D01*
X153306076Y-126667438D01*
X153264935Y-126678325D01*
X153175643Y-126686295D01*
X153153913Y-126688234D01*
X152958530Y-126744259D01*
X152778404Y-126838427D01*
X152620891Y-126966891D01*
X152492427Y-127124404D01*
X152398259Y-127304530D01*
X152342234Y-127499913D01*
X152331500Y-127620184D01*
X152331500Y-129433500D01*
X152311498Y-129501621D01*
X152257842Y-129548114D01*
X152205500Y-129559500D01*
X149322490Y-129559500D01*
X149254369Y-129539498D01*
X149226595Y-129512724D01*
X149225407Y-129513718D01*
X149221806Y-129509411D01*
X149218603Y-129504803D01*
X149060697Y-129346897D01*
X149024798Y-129321946D01*
X148881930Y-129222650D01*
X148881928Y-129222649D01*
X148877324Y-129219449D01*
X148750045Y-129161176D01*
X148679385Y-129128826D01*
X148679383Y-129128825D01*
X148674280Y-129126489D01*
X148548758Y-129094260D01*
X148463188Y-129072289D01*
X148463186Y-129072289D01*
X148457984Y-129070953D01*
X148381089Y-129064699D01*
X148319724Y-129059707D01*
X148319714Y-129059707D01*
X148317174Y-129059500D01*
X147193826Y-129059500D01*
X147191286Y-129059707D01*
X147191276Y-129059707D01*
X147129911Y-129064699D01*
X147053016Y-129070953D01*
X147047814Y-129072289D01*
X147047812Y-129072289D01*
X146962242Y-129094260D01*
X146836720Y-129126489D01*
X146831617Y-129128825D01*
X146831615Y-129128826D01*
X146760955Y-129161176D01*
X146633676Y-129219449D01*
X146629072Y-129222649D01*
X146629070Y-129222650D01*
X146486203Y-129321946D01*
X146450303Y-129346897D01*
X146292397Y-129504803D01*
X146289196Y-129509409D01*
X146289194Y-129509411D01*
X146177149Y-129670622D01*
X146164949Y-129688176D01*
X146071989Y-129891220D01*
X146016453Y-130107516D01*
X146005000Y-130248326D01*
X146005000Y-131371674D01*
X146016453Y-131512484D01*
X146071989Y-131728780D01*
X146074325Y-131733883D01*
X146074326Y-131733885D01*
X146087985Y-131763718D01*
X146164949Y-131931824D01*
X146168149Y-131936428D01*
X146168150Y-131936430D01*
X146287318Y-132107889D01*
X146292397Y-132115197D01*
X146450303Y-132273103D01*
X146454909Y-132276304D01*
X146454911Y-132276306D01*
X146629070Y-132397350D01*
X146633676Y-132400551D01*
X146675753Y-132419815D01*
X146831615Y-132491174D01*
X146831617Y-132491175D01*
X146836720Y-132493511D01*
X146842161Y-132494908D01*
X147047812Y-132547711D01*
X147047814Y-132547711D01*
X147053016Y-132549047D01*
X147128554Y-132555191D01*
X147191276Y-132560293D01*
X147191286Y-132560293D01*
X147193826Y-132560500D01*
X148317174Y-132560500D01*
X148319714Y-132560293D01*
X148319724Y-132560293D01*
X148382446Y-132555191D01*
X148457984Y-132549047D01*
X148463186Y-132547711D01*
X148463188Y-132547711D01*
X148668839Y-132494908D01*
X148674280Y-132493511D01*
X148679383Y-132491175D01*
X148679385Y-132491174D01*
X148835247Y-132419815D01*
X148877324Y-132400551D01*
X148881930Y-132397350D01*
X149056089Y-132276306D01*
X149056091Y-132276304D01*
X149060697Y-132273103D01*
X149218603Y-132115197D01*
X149221806Y-132110588D01*
X149225407Y-132106282D01*
X149227329Y-132107889D01*
X149274383Y-132070045D01*
X149322490Y-132060500D01*
X159167138Y-132060500D01*
X159183585Y-132061578D01*
X159199853Y-132063720D01*
X159199855Y-132063720D01*
X159205422Y-132064453D01*
X159286270Y-132060640D01*
X159292207Y-132060500D01*
X159314630Y-132060500D01*
X159333517Y-132058815D01*
X159340452Y-132058196D01*
X159345713Y-132057837D01*
X159346499Y-132057800D01*
X159428398Y-132053937D01*
X159433861Y-132052686D01*
X159433867Y-132052685D01*
X159445711Y-132049972D01*
X159462645Y-132047290D01*
X159480339Y-132045711D01*
X159485755Y-132044229D01*
X159485757Y-132044229D01*
X159560181Y-132023869D01*
X159565299Y-132022583D01*
X159640521Y-132005355D01*
X159640522Y-132005355D01*
X159645987Y-132004103D01*
X159651141Y-132001905D01*
X159651152Y-132001901D01*
X159662326Y-131997134D01*
X159678517Y-131991495D01*
X159690233Y-131988290D01*
X159690232Y-131988290D01*
X159695651Y-131986808D01*
X159770377Y-131951165D01*
X159775157Y-131949007D01*
X159815442Y-131931824D01*
X159851313Y-131916524D01*
X159866171Y-131906764D01*
X159881091Y-131898358D01*
X159897129Y-131890708D01*
X159901682Y-131887437D01*
X159901686Y-131887434D01*
X159964341Y-131842411D01*
X159968690Y-131839421D01*
X160034024Y-131796505D01*
X160034028Y-131796502D01*
X160037884Y-131793969D01*
X160058501Y-131775601D01*
X160068786Y-131767360D01*
X160078405Y-131760448D01*
X160152286Y-131684209D01*
X160153675Y-131682799D01*
X162745069Y-129091405D01*
X162807381Y-129057379D01*
X162834164Y-129054500D01*
X164121816Y-129054500D01*
X164124603Y-129054251D01*
X164124609Y-129054251D01*
X164210455Y-129046589D01*
X164242087Y-129043766D01*
X164437470Y-128987741D01*
X164617596Y-128893573D01*
X164775109Y-128765109D01*
X164903573Y-128607596D01*
X164997741Y-128427470D01*
X165053766Y-128232087D01*
X165058568Y-128178281D01*
X165064251Y-128114609D01*
X165064251Y-128114603D01*
X165064500Y-128111816D01*
X165064500Y-126396184D01*
X165053766Y-126275913D01*
X164997741Y-126080530D01*
X164922118Y-125935877D01*
X164906529Y-125906058D01*
X164906528Y-125906057D01*
X164903573Y-125900404D01*
X164899539Y-125895457D01*
X164779138Y-125747831D01*
X164775109Y-125742891D01*
X164617596Y-125614427D01*
X164437470Y-125520259D01*
X164242087Y-125464234D01*
X164222949Y-125462526D01*
X164179299Y-125458630D01*
X164113226Y-125432651D01*
X164071687Y-125375075D01*
X164064500Y-125333129D01*
X164064500Y-122598784D01*
X164084502Y-122530663D01*
X164138158Y-122484170D01*
X164208432Y-122474066D01*
X164255489Y-122490838D01*
X164415245Y-122587019D01*
X164493878Y-122620316D01*
X164652462Y-122687468D01*
X164652466Y-122687469D01*
X164656560Y-122689203D01*
X164660852Y-122690341D01*
X164660855Y-122690342D01*
X164699389Y-122700559D01*
X164909865Y-122756366D01*
X164914289Y-122756890D01*
X164914291Y-122756890D01*
X165040066Y-122771776D01*
X165170107Y-122787167D01*
X165432092Y-122780993D01*
X165436486Y-122780262D01*
X165436493Y-122780261D01*
X165686192Y-122738700D01*
X165686196Y-122738699D01*
X165690594Y-122737967D01*
X165933692Y-122661085D01*
X165936209Y-122660289D01*
X165936211Y-122660288D01*
X165940455Y-122658946D01*
X165944466Y-122657020D01*
X165944471Y-122657018D01*
X166172669Y-122547439D01*
X166172670Y-122547438D01*
X166176688Y-122545509D01*
X166362347Y-122421456D01*
X166390874Y-122402395D01*
X166390878Y-122402392D01*
X166394582Y-122399917D01*
X166397898Y-122396946D01*
X166397903Y-122396943D01*
X166444106Y-122355560D01*
X166508194Y-122325011D01*
X166578625Y-122333960D01*
X166607721Y-122351704D01*
X166727278Y-122449039D01*
X166727282Y-122449042D01*
X166730735Y-122451853D01*
X166734557Y-122454154D01*
X166867314Y-122534080D01*
X166955245Y-122587019D01*
X167033878Y-122620316D01*
X167192462Y-122687468D01*
X167192466Y-122687469D01*
X167196560Y-122689203D01*
X167200852Y-122690341D01*
X167200855Y-122690342D01*
X167239389Y-122700559D01*
X167449865Y-122756366D01*
X167454289Y-122756890D01*
X167454291Y-122756890D01*
X167580066Y-122771776D01*
X167710107Y-122787167D01*
X167972092Y-122780993D01*
X167976486Y-122780262D01*
X167976493Y-122780261D01*
X168226192Y-122738700D01*
X168226196Y-122738699D01*
X168230594Y-122737967D01*
X168473692Y-122661085D01*
X168476209Y-122660289D01*
X168476211Y-122660288D01*
X168480455Y-122658946D01*
X168510960Y-122644298D01*
X168581025Y-122632842D01*
X168646162Y-122661085D01*
X168685690Y-122720061D01*
X168691500Y-122757882D01*
X168691500Y-141651500D01*
X168671498Y-141719621D01*
X168617842Y-141766114D01*
X168565500Y-141777500D01*
X143363743Y-141777500D01*
X143295622Y-141757498D01*
X143249129Y-141703842D01*
X143239025Y-141633568D01*
X143268519Y-141568988D01*
X143274648Y-141562405D01*
X145058579Y-139778473D01*
X145064597Y-139772836D01*
X145109272Y-139733657D01*
X145113619Y-139729845D01*
X145168780Y-139659873D01*
X145170798Y-139657382D01*
X145224021Y-139593390D01*
X145224028Y-139593380D01*
X145227719Y-139588942D01*
X145230542Y-139583901D01*
X145232344Y-139581279D01*
X145239229Y-139570975D01*
X145240948Y-139568329D01*
X145244524Y-139563792D01*
X145247215Y-139558678D01*
X145285965Y-139485027D01*
X145287538Y-139482129D01*
X145328215Y-139409494D01*
X145331037Y-139404455D01*
X145332894Y-139398983D01*
X145334181Y-139396093D01*
X145339088Y-139384671D01*
X145340286Y-139381778D01*
X145342977Y-139376664D01*
X145369370Y-139291667D01*
X145370388Y-139288533D01*
X145397150Y-139209691D01*
X145397150Y-139209690D01*
X145399004Y-139204229D01*
X145399832Y-139198517D01*
X145400535Y-139195590D01*
X145403336Y-139183214D01*
X145403968Y-139180242D01*
X145405680Y-139174727D01*
X145416148Y-139086289D01*
X145416570Y-139083086D01*
X145429346Y-138994970D01*
X145426097Y-138912283D01*
X145426000Y-138907337D01*
X145426000Y-138624860D01*
X152550632Y-138624860D01*
X152561073Y-138890607D01*
X152561871Y-138894979D01*
X152561872Y-138894984D01*
X152588131Y-139038758D01*
X152608855Y-139152233D01*
X152610259Y-139156442D01*
X152610261Y-139156449D01*
X152688209Y-139390090D01*
X152693022Y-139404515D01*
X152695014Y-139408502D01*
X152695015Y-139408504D01*
X152809345Y-139637314D01*
X152811897Y-139642422D01*
X152963108Y-139861205D01*
X152966130Y-139864474D01*
X153140621Y-140053238D01*
X153140626Y-140053243D01*
X153143637Y-140056500D01*
X153349882Y-140224410D01*
X153353699Y-140226708D01*
X153573912Y-140359287D01*
X153573916Y-140359289D01*
X153577728Y-140361584D01*
X153714990Y-140419707D01*
X153818526Y-140463550D01*
X153818531Y-140463552D01*
X153822629Y-140465287D01*
X153826926Y-140466426D01*
X153826931Y-140466428D01*
X153951164Y-140499367D01*
X154079699Y-140533447D01*
X154343808Y-140564707D01*
X154609687Y-140558441D01*
X154614085Y-140557709D01*
X154867640Y-140515506D01*
X154867644Y-140515505D01*
X154872030Y-140514775D01*
X154876271Y-140513434D01*
X154876274Y-140513433D01*
X155121358Y-140435923D01*
X155121360Y-140435922D01*
X155125604Y-140434580D01*
X155129615Y-140432654D01*
X155129620Y-140432652D01*
X155361329Y-140321387D01*
X155361330Y-140321386D01*
X155365348Y-140319457D01*
X155486007Y-140238835D01*
X155582772Y-140174179D01*
X155582776Y-140174176D01*
X155586480Y-140171701D01*
X155589797Y-140168730D01*
X155589801Y-140168727D01*
X155781268Y-139997235D01*
X155781269Y-139997234D01*
X155784586Y-139994263D01*
X155955715Y-139790680D01*
X155993655Y-139729845D01*
X156094091Y-139568802D01*
X156094094Y-139568796D01*
X156096451Y-139565017D01*
X156203987Y-139321775D01*
X156276178Y-139065807D01*
X156297463Y-138907337D01*
X156311155Y-138805403D01*
X156311155Y-138805398D01*
X156311582Y-138802222D01*
X156315297Y-138684000D01*
X156296514Y-138418712D01*
X156240538Y-138158716D01*
X156235020Y-138143757D01*
X156150028Y-137913379D01*
X156148487Y-137909202D01*
X156022198Y-137675147D01*
X155864190Y-137461221D01*
X155817491Y-137413782D01*
X155680747Y-137274874D01*
X155677616Y-137271693D01*
X155674076Y-137268992D01*
X155674070Y-137268986D01*
X155469740Y-137113046D01*
X155469736Y-137113043D01*
X155466199Y-137110344D01*
X155234156Y-136980394D01*
X154986118Y-136884436D01*
X154981793Y-136883433D01*
X154981788Y-136883432D01*
X154878116Y-136859402D01*
X154727034Y-136824383D01*
X154462074Y-136801435D01*
X154457639Y-136801679D01*
X154457635Y-136801679D01*
X154349748Y-136807617D01*
X154196523Y-136816049D01*
X153935681Y-136867934D01*
X153769162Y-136926411D01*
X153688959Y-136954576D01*
X153688956Y-136954577D01*
X153684751Y-136956054D01*
X153680798Y-136958107D01*
X153680792Y-136958110D01*
X153547788Y-137027201D01*
X153448741Y-137078652D01*
X153445126Y-137081235D01*
X153445120Y-137081239D01*
X153404392Y-137110344D01*
X153232360Y-137233280D01*
X153039925Y-137416854D01*
X152875275Y-137625711D01*
X152844286Y-137679063D01*
X152743930Y-137851837D01*
X152743927Y-137851843D01*
X152741696Y-137855684D01*
X152641854Y-138102184D01*
X152640783Y-138106497D01*
X152640781Y-138106502D01*
X152578812Y-138355971D01*
X152577739Y-138360292D01*
X152577285Y-138364720D01*
X152577285Y-138364722D01*
X152551086Y-138620428D01*
X152550632Y-138624860D01*
X145426000Y-138624860D01*
X145426000Y-129738743D01*
X145446002Y-129670622D01*
X145462905Y-129649648D01*
X146297648Y-128814905D01*
X146359960Y-128780879D01*
X146386743Y-128778000D01*
X149860000Y-128778000D01*
X149860000Y-115939500D01*
X149880002Y-115871379D01*
X149933658Y-115824886D01*
X149986000Y-115813500D01*
X154814000Y-115813500D01*
X155027729Y-115790522D01*
X155031013Y-115789808D01*
X155031017Y-115789807D01*
X155078641Y-115779447D01*
X155080071Y-115779136D01*
X155171766Y-115754605D01*
X155176048Y-115752744D01*
X155176051Y-115752743D01*
X155230599Y-115729036D01*
X155358356Y-115673513D01*
X155524803Y-115556522D01*
X155578459Y-115510029D01*
X155580277Y-115508168D01*
X155580284Y-115508162D01*
X155690807Y-115395063D01*
X155690809Y-115395061D01*
X155694868Y-115390907D01*
X155807996Y-115221810D01*
X155884769Y-115033401D01*
X155904771Y-114965280D01*
X155924917Y-114884406D01*
X155945500Y-114682000D01*
X155945500Y-112648000D01*
X155922522Y-112434271D01*
X155911136Y-112381929D01*
X155886605Y-112290234D01*
X155805513Y-112103644D01*
X155688522Y-111937197D01*
X155644013Y-111885831D01*
X155643737Y-111885512D01*
X155643735Y-111885510D01*
X155642029Y-111883541D01*
X155640168Y-111881723D01*
X155640162Y-111881716D01*
X155527063Y-111771193D01*
X155527061Y-111771191D01*
X155522907Y-111767132D01*
X155518080Y-111763903D01*
X155518078Y-111763901D01*
X155359120Y-111657556D01*
X155359117Y-111657554D01*
X155353810Y-111654004D01*
X155165401Y-111577231D01*
X155097280Y-111557229D01*
X155095999Y-111556910D01*
X155095992Y-111556908D01*
X155049557Y-111545341D01*
X155016406Y-111537083D01*
X154937498Y-111529059D01*
X154817179Y-111516823D01*
X154817174Y-111516823D01*
X154814000Y-111516500D01*
X152042168Y-111516500D01*
X151846241Y-111535773D01*
X151843208Y-111536376D01*
X151843205Y-111536376D01*
X151799245Y-111545109D01*
X151799227Y-111545113D01*
X151798079Y-111545341D01*
X151749667Y-111556895D01*
X151727708Y-111562136D01*
X151727706Y-111562137D01*
X151723435Y-111563156D01*
X151534033Y-111637445D01*
X151528679Y-111640926D01*
X151528675Y-111640928D01*
X151469641Y-111679309D01*
X151363464Y-111748340D01*
X151308161Y-111792862D01*
X151245456Y-111847778D01*
X151244162Y-111846301D01*
X151189108Y-111876738D01*
X151130346Y-111875800D01*
X151120656Y-111873312D01*
X151060374Y-111857834D01*
X150996851Y-111852667D01*
X150923575Y-111846707D01*
X150923563Y-111846707D01*
X150921024Y-111846500D01*
X150322976Y-111846500D01*
X150320437Y-111846707D01*
X150320425Y-111846707D01*
X150247149Y-111852667D01*
X150183626Y-111857834D01*
X150023399Y-111898974D01*
X149952446Y-111896542D01*
X149929023Y-111886028D01*
X149861524Y-111847022D01*
X149861520Y-111847020D01*
X149857467Y-111844678D01*
X149668188Y-111770079D01*
X149661903Y-111768982D01*
X149661898Y-111768981D01*
X149470913Y-111735658D01*
X149470914Y-111735658D01*
X149467767Y-111735109D01*
X149461914Y-111734690D01*
X149399545Y-111730229D01*
X149399534Y-111730229D01*
X149396952Y-111730044D01*
X149312151Y-111731021D01*
X149236201Y-111731896D01*
X149236200Y-111731896D01*
X149230393Y-111731963D01*
X149030831Y-111771542D01*
X148843320Y-111850482D01*
X148781008Y-111884508D01*
X148779922Y-111885161D01*
X148779283Y-111885545D01*
X148779226Y-111885560D01*
X148778753Y-111885831D01*
X148778679Y-111885703D01*
X148710594Y-111903500D01*
X148683029Y-111899597D01*
X148665001Y-111894968D01*
X148520374Y-111857834D01*
X148456851Y-111852667D01*
X148383575Y-111846707D01*
X148383563Y-111846707D01*
X148381024Y-111846500D01*
X147782976Y-111846500D01*
X147780437Y-111846707D01*
X147780425Y-111846707D01*
X147707149Y-111852667D01*
X147643626Y-111857834D01*
X147573871Y-111875744D01*
X147502917Y-111873312D01*
X147455070Y-111844397D01*
X147427973Y-111818263D01*
X147427074Y-111817460D01*
X147427058Y-111817445D01*
X147374017Y-111770060D01*
X147374013Y-111770057D01*
X147370739Y-111767132D01*
X147367086Y-111764688D01*
X147206952Y-111657556D01*
X147206949Y-111657554D01*
X147201642Y-111654004D01*
X147013233Y-111577231D01*
X146945112Y-111557229D01*
X146943831Y-111556910D01*
X146943824Y-111556908D01*
X146897389Y-111545341D01*
X146864238Y-111537083D01*
X146785330Y-111529059D01*
X146665011Y-111516823D01*
X146665006Y-111516823D01*
X146661832Y-111516500D01*
X144144000Y-111516500D01*
X144075879Y-111496498D01*
X144029386Y-111442842D01*
X144018000Y-111390500D01*
X144018000Y-107811500D01*
X144038002Y-107743379D01*
X144091658Y-107696886D01*
X144144000Y-107685500D01*
X146589191Y-107685500D01*
X146637729Y-107683498D01*
X146667502Y-107682270D01*
X146667503Y-107682270D01*
X146671986Y-107682085D01*
X146775299Y-107662882D01*
X146868865Y-107645491D01*
X146868873Y-107645489D01*
X146872010Y-107644906D01*
X146930324Y-107627814D01*
X146937530Y-107625702D01*
X146937535Y-107625700D01*
X146940030Y-107624969D01*
X147095007Y-107565251D01*
X147204320Y-107497956D01*
X147262813Y-107461947D01*
X147262815Y-107461945D01*
X147268259Y-107458594D01*
X147272915Y-107454217D01*
X147272919Y-107454214D01*
X147377926Y-107355500D01*
X147416493Y-107319245D01*
X147418579Y-107316842D01*
X147418585Y-107316836D01*
X147462182Y-107266618D01*
X147462185Y-107266614D01*
X147463037Y-107265633D01*
X147492541Y-107228659D01*
X147550662Y-107187888D01*
X147622362Y-107185206D01*
X147643626Y-107190666D01*
X147707149Y-107195833D01*
X147780425Y-107201793D01*
X147780437Y-107201793D01*
X147782976Y-107202000D01*
X148381024Y-107202000D01*
X148383563Y-107201793D01*
X148383575Y-107201793D01*
X148456851Y-107195833D01*
X148520374Y-107190666D01*
X148637512Y-107160590D01*
X148708467Y-107163022D01*
X148746121Y-107183109D01*
X148757518Y-107191958D01*
X148759947Y-107193509D01*
X148759953Y-107193514D01*
X148860769Y-107257919D01*
X148912737Y-107291118D01*
X149102016Y-107365717D01*
X149108301Y-107366814D01*
X149108306Y-107366815D01*
X149273859Y-107395701D01*
X149302437Y-107400687D01*
X149305625Y-107400915D01*
X149370659Y-107405567D01*
X149370670Y-107405567D01*
X149373252Y-107405752D01*
X149458053Y-107404775D01*
X149534003Y-107403900D01*
X149534004Y-107403900D01*
X149539811Y-107403833D01*
X149739373Y-107364254D01*
X149898199Y-107297390D01*
X149968744Y-107289394D01*
X149978416Y-107291476D01*
X150183626Y-107344166D01*
X150247149Y-107349333D01*
X150320425Y-107355293D01*
X150320437Y-107355293D01*
X150322976Y-107355500D01*
X150921024Y-107355500D01*
X150923563Y-107355293D01*
X150923575Y-107355293D01*
X150996851Y-107349333D01*
X151060374Y-107344166D01*
X151130129Y-107326256D01*
X151201083Y-107328688D01*
X151248930Y-107357603D01*
X151276027Y-107383737D01*
X151276926Y-107384540D01*
X151276942Y-107384555D01*
X151329983Y-107431940D01*
X151329987Y-107431943D01*
X151333261Y-107434868D01*
X151336913Y-107437311D01*
X151336914Y-107437312D01*
X151497048Y-107544444D01*
X151497051Y-107544446D01*
X151502358Y-107547996D01*
X151690767Y-107624769D01*
X151758888Y-107644771D01*
X151760169Y-107645090D01*
X151760176Y-107645092D01*
X151785688Y-107651447D01*
X151839762Y-107664917D01*
X151918670Y-107672941D01*
X152038989Y-107685177D01*
X152038994Y-107685177D01*
X152042168Y-107685500D01*
X154814000Y-107685500D01*
X154845765Y-107682085D01*
X154867702Y-107679726D01*
X155027729Y-107662522D01*
X155031013Y-107661808D01*
X155031017Y-107661807D01*
X155078641Y-107651447D01*
X155080071Y-107651136D01*
X155171766Y-107626605D01*
X155176048Y-107624744D01*
X155176051Y-107624743D01*
X155230599Y-107601036D01*
X155358356Y-107545513D01*
X155524803Y-107428522D01*
X155578459Y-107382029D01*
X155580277Y-107380168D01*
X155580284Y-107380162D01*
X155690807Y-107267063D01*
X155690809Y-107267061D01*
X155694868Y-107262907D01*
X155698205Y-107257919D01*
X155804444Y-107099120D01*
X155804446Y-107099117D01*
X155807996Y-107093810D01*
X155884769Y-106905401D01*
X155904771Y-106837280D01*
X155924917Y-106756406D01*
X155945500Y-106554000D01*
X155945500Y-105028000D01*
X155922522Y-104814271D01*
X155911136Y-104761929D01*
X155886605Y-104670234D01*
X155805513Y-104483644D01*
X155688522Y-104317197D01*
X155642029Y-104263541D01*
X155640168Y-104261723D01*
X155640162Y-104261716D01*
X155527063Y-104151193D01*
X155527061Y-104151191D01*
X155522907Y-104147132D01*
X155518080Y-104143903D01*
X155518078Y-104143901D01*
X155359120Y-104037556D01*
X155359117Y-104037554D01*
X155353810Y-104034004D01*
X155165401Y-103957231D01*
X155097280Y-103937229D01*
X155095999Y-103936910D01*
X155095992Y-103936908D01*
X155059582Y-103927838D01*
X155016406Y-103917083D01*
X154937498Y-103909059D01*
X154817179Y-103896823D01*
X154817174Y-103896823D01*
X154814000Y-103896500D01*
X144144000Y-103896500D01*
X144075879Y-103876498D01*
X144029386Y-103822842D01*
X144018000Y-103770500D01*
X144018000Y-101461500D01*
X144038002Y-101393379D01*
X144091658Y-101346886D01*
X144144000Y-101335500D01*
X155068000Y-101335500D01*
X155281729Y-101312522D01*
X155285013Y-101311808D01*
X155285017Y-101311807D01*
X155332641Y-101301447D01*
X155334071Y-101301136D01*
X155425766Y-101276605D01*
X155430048Y-101274744D01*
X155430051Y-101274743D01*
X155484599Y-101251036D01*
X155612356Y-101195513D01*
X155778803Y-101078522D01*
X155832459Y-101032029D01*
X155834277Y-101030168D01*
X155834284Y-101030162D01*
X155944807Y-100917063D01*
X155944809Y-100917061D01*
X155948868Y-100912907D01*
X156061996Y-100743810D01*
X156138769Y-100555401D01*
X156158771Y-100487280D01*
X156178917Y-100406406D01*
X156199500Y-100204000D01*
X156199500Y-97916000D01*
X156176522Y-97702271D01*
X156165136Y-97649929D01*
X156140605Y-97558234D01*
X156059513Y-97371644D01*
X155942522Y-97205197D01*
X155896029Y-97151541D01*
X155894168Y-97149723D01*
X155894162Y-97149716D01*
X155781063Y-97039193D01*
X155781061Y-97039191D01*
X155776907Y-97035132D01*
X155772080Y-97031903D01*
X155772078Y-97031901D01*
X155613120Y-96925556D01*
X155613117Y-96925554D01*
X155607810Y-96922004D01*
X155419401Y-96845231D01*
X155351280Y-96825229D01*
X155349999Y-96824910D01*
X155349992Y-96824908D01*
X155313582Y-96815838D01*
X155270406Y-96805083D01*
X155191498Y-96797059D01*
X155071179Y-96784823D01*
X155071174Y-96784823D01*
X155068000Y-96784500D01*
X151891603Y-96784500D01*
X151834701Y-96787549D01*
X151785830Y-96790168D01*
X151785820Y-96790169D01*
X151784137Y-96790259D01*
X151757354Y-96793138D01*
X151754424Y-96793738D01*
X151754420Y-96793739D01*
X151693749Y-96806171D01*
X151570434Y-96831439D01*
X151382923Y-96910379D01*
X151320611Y-96944405D01*
X151319521Y-96945060D01*
X151318356Y-96945728D01*
X151318181Y-96945422D01*
X151250800Y-96963048D01*
X151223217Y-96959146D01*
X151060374Y-96917334D01*
X150993601Y-96911903D01*
X150923575Y-96906207D01*
X150923563Y-96906207D01*
X150921024Y-96906000D01*
X150322976Y-96906000D01*
X150320437Y-96906207D01*
X150320425Y-96906207D01*
X150250399Y-96911903D01*
X150183626Y-96917334D01*
X150152161Y-96925413D01*
X150022848Y-96958615D01*
X149951893Y-96956183D01*
X149922114Y-96941740D01*
X149892207Y-96922004D01*
X149886478Y-96919669D01*
X149886475Y-96919668D01*
X149706748Y-96846433D01*
X149706747Y-96846433D01*
X149703798Y-96845231D01*
X149635677Y-96825229D01*
X149634396Y-96824910D01*
X149634389Y-96824908D01*
X149597979Y-96815838D01*
X149554803Y-96805083D01*
X149475895Y-96797059D01*
X149355576Y-96784823D01*
X149355571Y-96784823D01*
X149352397Y-96784500D01*
X149351603Y-96784500D01*
X149294701Y-96787549D01*
X149245830Y-96790168D01*
X149245820Y-96790169D01*
X149244137Y-96790259D01*
X149217354Y-96793138D01*
X149214424Y-96793738D01*
X149214420Y-96793739D01*
X149153749Y-96806171D01*
X149030434Y-96831439D01*
X148842923Y-96910379D01*
X148780611Y-96944405D01*
X148779521Y-96945060D01*
X148778356Y-96945728D01*
X148778181Y-96945422D01*
X148710800Y-96963048D01*
X148683217Y-96959146D01*
X148520374Y-96917334D01*
X148453601Y-96911903D01*
X148383575Y-96906207D01*
X148383563Y-96906207D01*
X148381024Y-96906000D01*
X147782976Y-96906000D01*
X147780437Y-96906207D01*
X147780425Y-96906207D01*
X147710399Y-96911903D01*
X147643626Y-96917334D01*
X147612161Y-96925413D01*
X147482848Y-96958615D01*
X147411893Y-96956183D01*
X147382114Y-96941740D01*
X147352207Y-96922004D01*
X147346478Y-96919669D01*
X147346475Y-96919668D01*
X147166748Y-96846433D01*
X147166747Y-96846433D01*
X147163798Y-96845231D01*
X147095677Y-96825229D01*
X147094396Y-96824910D01*
X147094389Y-96824908D01*
X147057979Y-96815838D01*
X147014803Y-96805083D01*
X146935895Y-96797059D01*
X146815576Y-96784823D01*
X146815571Y-96784823D01*
X146812397Y-96784500D01*
X144144000Y-96784500D01*
X144075879Y-96764498D01*
X144029386Y-96710842D01*
X144018000Y-96658500D01*
X144018000Y-93233081D01*
X144038002Y-93164960D01*
X144091658Y-93118467D01*
X144142247Y-93107094D01*
X146497109Y-93074387D01*
X147093439Y-93066105D01*
X147093447Y-93066105D01*
X147094938Y-93066084D01*
X147189305Y-93060328D01*
X147193868Y-93059359D01*
X147193874Y-93059358D01*
X147237519Y-93050088D01*
X147308309Y-93055501D01*
X147316148Y-93058775D01*
X147380363Y-93088175D01*
X147429577Y-93110707D01*
X147643626Y-93165666D01*
X147707149Y-93170833D01*
X147780425Y-93176793D01*
X147780437Y-93176793D01*
X147782976Y-93177000D01*
X148381024Y-93177000D01*
X148383563Y-93176793D01*
X148383575Y-93176793D01*
X148456851Y-93170833D01*
X148520374Y-93165666D01*
X148734423Y-93110707D01*
X148888526Y-93040153D01*
X148951983Y-93029199D01*
X148991437Y-93032658D01*
X149058001Y-93038495D01*
X149058004Y-93038495D01*
X149061196Y-93038775D01*
X149064388Y-93038731D01*
X149064397Y-93038731D01*
X149685233Y-93030108D01*
X149685241Y-93030108D01*
X149686732Y-93030087D01*
X149749474Y-93026260D01*
X149809596Y-93037462D01*
X149969577Y-93110707D01*
X150183626Y-93165666D01*
X150247149Y-93170833D01*
X150320425Y-93176793D01*
X150320437Y-93176793D01*
X150322976Y-93177000D01*
X150921024Y-93177000D01*
X150923563Y-93176793D01*
X150923575Y-93176793D01*
X150996851Y-93170833D01*
X151060374Y-93165666D01*
X151274423Y-93110707D01*
X151279526Y-93108371D01*
X151279528Y-93108370D01*
X151432147Y-93038495D01*
X151475357Y-93018712D01*
X151475593Y-93019228D01*
X151542577Y-93004571D01*
X151542605Y-93003825D01*
X151545501Y-93003932D01*
X151545546Y-93003922D01*
X151548970Y-93004222D01*
X151552163Y-93004178D01*
X151552172Y-93004178D01*
X154276369Y-92966342D01*
X155080434Y-92955174D01*
X155117340Y-92950835D01*
X155282834Y-92931380D01*
X155282838Y-92931379D01*
X155286056Y-92931001D01*
X155289210Y-92930295D01*
X155289217Y-92930294D01*
X155335081Y-92920030D01*
X155335087Y-92920029D01*
X155336421Y-92919730D01*
X155337745Y-92919373D01*
X155337757Y-92919370D01*
X155369818Y-92910724D01*
X155420354Y-92897096D01*
X155424539Y-92895287D01*
X155424545Y-92895285D01*
X155601238Y-92818912D01*
X155601239Y-92818912D01*
X155607105Y-92816376D01*
X155612339Y-92812713D01*
X155612342Y-92812711D01*
X155771161Y-92701551D01*
X155771163Y-92701550D01*
X155773784Y-92699715D01*
X155827532Y-92653329D01*
X155944181Y-92534435D01*
X156057644Y-92365563D01*
X156134790Y-92177307D01*
X156154927Y-92109226D01*
X156175234Y-92028392D01*
X156196218Y-91826027D01*
X156199248Y-90298242D01*
X156191317Y-90223423D01*
X156176837Y-90086843D01*
X156176481Y-90083482D01*
X156165095Y-90030892D01*
X156140355Y-89938234D01*
X156059263Y-89751644D01*
X155942272Y-89585197D01*
X155895779Y-89531541D01*
X155893918Y-89529723D01*
X155893912Y-89529716D01*
X155780813Y-89419193D01*
X155780811Y-89419191D01*
X155776657Y-89415132D01*
X155771830Y-89411903D01*
X155771828Y-89411901D01*
X155612870Y-89305556D01*
X155612867Y-89305554D01*
X155607560Y-89302004D01*
X155419151Y-89225231D01*
X155351030Y-89205229D01*
X155349749Y-89204910D01*
X155349742Y-89204908D01*
X155313332Y-89195838D01*
X155270156Y-89185083D01*
X155191248Y-89177059D01*
X155070929Y-89164823D01*
X155070924Y-89164823D01*
X155067750Y-89164500D01*
X146456936Y-89164500D01*
X146388815Y-89144498D01*
X146342322Y-89090842D01*
X146332218Y-89020568D01*
X146353107Y-88967117D01*
X146360701Y-88956072D01*
X151638000Y-81280000D01*
X151891636Y-74431816D01*
X151893882Y-74412353D01*
X152067808Y-73520986D01*
X152942352Y-69038947D01*
X153629332Y-65518175D01*
X153662010Y-65455145D01*
X153723576Y-65419789D01*
X153794484Y-65423330D01*
G37*
%TD.AperFunction*%
%TA.AperFunction,Conductor*%
G36*
X166578625Y-96933960D02*
G01*
X166607721Y-96951704D01*
X166727278Y-97049039D01*
X166727282Y-97049042D01*
X166730735Y-97051853D01*
X166955245Y-97187019D01*
X166998174Y-97205197D01*
X167192462Y-97287468D01*
X167192466Y-97287469D01*
X167196560Y-97289203D01*
X167200852Y-97290341D01*
X167200855Y-97290342D01*
X167277881Y-97310765D01*
X167449865Y-97356366D01*
X167454289Y-97356890D01*
X167454291Y-97356890D01*
X167578951Y-97371644D01*
X167710107Y-97387167D01*
X167972092Y-97380993D01*
X167976486Y-97380262D01*
X167976493Y-97380261D01*
X168226192Y-97338700D01*
X168226196Y-97338699D01*
X168230594Y-97337967D01*
X168473692Y-97261085D01*
X168476209Y-97260289D01*
X168476211Y-97260288D01*
X168480455Y-97258946D01*
X168510960Y-97244298D01*
X168581025Y-97232842D01*
X168646162Y-97261085D01*
X168685690Y-97320061D01*
X168691500Y-97357882D01*
X168691500Y-98791760D01*
X168671498Y-98859881D01*
X168617842Y-98906374D01*
X168547568Y-98916478D01*
X168520038Y-98909273D01*
X168392367Y-98859881D01*
X168343012Y-98840787D01*
X168338691Y-98839785D01*
X168338683Y-98839783D01*
X168170569Y-98800817D01*
X168087721Y-98781614D01*
X167826641Y-98759002D01*
X167822206Y-98759246D01*
X167822202Y-98759246D01*
X167569421Y-98773157D01*
X167569414Y-98773158D01*
X167564978Y-98773402D01*
X167307956Y-98824527D01*
X167303746Y-98826005D01*
X167303744Y-98826006D01*
X167207283Y-98859881D01*
X167060701Y-98911357D01*
X167056750Y-98913410D01*
X167056744Y-98913412D01*
X166929394Y-98979565D01*
X166828147Y-99032159D01*
X166824532Y-99034742D01*
X166824526Y-99034746D01*
X166618555Y-99181935D01*
X166618551Y-99181938D01*
X166614934Y-99184523D01*
X166611715Y-99187594D01*
X166608277Y-99190438D01*
X166607400Y-99189378D01*
X166549617Y-99219172D01*
X166478941Y-99212429D01*
X166449320Y-99195614D01*
X166279607Y-99066093D01*
X166279603Y-99066090D01*
X166276062Y-99063388D01*
X166047417Y-98935340D01*
X166043268Y-98933735D01*
X166043264Y-98933733D01*
X165852367Y-98859881D01*
X165803012Y-98840787D01*
X165798691Y-98839785D01*
X165798683Y-98839783D01*
X165630569Y-98800817D01*
X165547721Y-98781614D01*
X165286641Y-98759002D01*
X165282206Y-98759246D01*
X165282202Y-98759246D01*
X165029421Y-98773157D01*
X165029414Y-98773158D01*
X165024978Y-98773402D01*
X164767956Y-98824527D01*
X164763746Y-98826005D01*
X164763744Y-98826006D01*
X164667283Y-98859881D01*
X164520701Y-98911357D01*
X164516750Y-98913410D01*
X164516744Y-98913412D01*
X164389394Y-98979565D01*
X164288147Y-99032159D01*
X164284527Y-99034746D01*
X164284524Y-99034748D01*
X164263759Y-99049587D01*
X164196706Y-99072920D01*
X164127683Y-99056298D01*
X164078604Y-99004997D01*
X164064500Y-98947073D01*
X164064500Y-97198784D01*
X164084502Y-97130663D01*
X164138158Y-97084170D01*
X164208432Y-97074066D01*
X164255489Y-97090838D01*
X164415245Y-97187019D01*
X164458174Y-97205197D01*
X164652462Y-97287468D01*
X164652466Y-97287469D01*
X164656560Y-97289203D01*
X164660852Y-97290341D01*
X164660855Y-97290342D01*
X164737881Y-97310765D01*
X164909865Y-97356366D01*
X164914289Y-97356890D01*
X164914291Y-97356890D01*
X165038951Y-97371644D01*
X165170107Y-97387167D01*
X165432092Y-97380993D01*
X165436486Y-97380262D01*
X165436493Y-97380261D01*
X165686192Y-97338700D01*
X165686196Y-97338699D01*
X165690594Y-97337967D01*
X165933692Y-97261085D01*
X165936209Y-97260289D01*
X165936211Y-97260288D01*
X165940455Y-97258946D01*
X165944466Y-97257020D01*
X165944471Y-97257018D01*
X166172669Y-97147439D01*
X166172670Y-97147438D01*
X166176688Y-97145509D01*
X166321066Y-97049039D01*
X166390874Y-97002395D01*
X166390878Y-97002392D01*
X166394582Y-96999917D01*
X166397898Y-96996946D01*
X166397903Y-96996943D01*
X166444106Y-96955560D01*
X166508194Y-96925011D01*
X166578625Y-96933960D01*
G37*
%TD.AperFunction*%
%TA.AperFunction,Conductor*%
G36*
X166578625Y-89313960D02*
G01*
X166607721Y-89331704D01*
X166727278Y-89429039D01*
X166727282Y-89429042D01*
X166730735Y-89431853D01*
X166955245Y-89567019D01*
X166998174Y-89585197D01*
X167192462Y-89667468D01*
X167192466Y-89667469D01*
X167196560Y-89669203D01*
X167200852Y-89670341D01*
X167200855Y-89670342D01*
X167252736Y-89684098D01*
X167449865Y-89736366D01*
X167454289Y-89736890D01*
X167454291Y-89736890D01*
X167578951Y-89751644D01*
X167710107Y-89767167D01*
X167972092Y-89760993D01*
X167976486Y-89760262D01*
X167976493Y-89760261D01*
X168226192Y-89718700D01*
X168226196Y-89718699D01*
X168230594Y-89717967D01*
X168473692Y-89641085D01*
X168476209Y-89640289D01*
X168476211Y-89640288D01*
X168480455Y-89638946D01*
X168510960Y-89624298D01*
X168581025Y-89612842D01*
X168646162Y-89641085D01*
X168685690Y-89700061D01*
X168691500Y-89737882D01*
X168691500Y-91171760D01*
X168671498Y-91239881D01*
X168617842Y-91286374D01*
X168547568Y-91296478D01*
X168520038Y-91289273D01*
X168381547Y-91235695D01*
X168343012Y-91220787D01*
X168338691Y-91219785D01*
X168338683Y-91219783D01*
X168170569Y-91180817D01*
X168087721Y-91161614D01*
X167826641Y-91139002D01*
X167822206Y-91139246D01*
X167822202Y-91139246D01*
X167569421Y-91153157D01*
X167569414Y-91153158D01*
X167564978Y-91153402D01*
X167307956Y-91204527D01*
X167303746Y-91206005D01*
X167303744Y-91206006D01*
X167219203Y-91235695D01*
X167060701Y-91291357D01*
X167056750Y-91293410D01*
X167056744Y-91293412D01*
X166984972Y-91330695D01*
X166828147Y-91412159D01*
X166824532Y-91414742D01*
X166824526Y-91414746D01*
X166618555Y-91561935D01*
X166618551Y-91561938D01*
X166614934Y-91564523D01*
X166611715Y-91567594D01*
X166608277Y-91570438D01*
X166607400Y-91569378D01*
X166549617Y-91599172D01*
X166478941Y-91592429D01*
X166449320Y-91575614D01*
X166279607Y-91446093D01*
X166279603Y-91446090D01*
X166276062Y-91443388D01*
X166047417Y-91315340D01*
X166043268Y-91313735D01*
X166043264Y-91313733D01*
X165841547Y-91235695D01*
X165803012Y-91220787D01*
X165798691Y-91219785D01*
X165798683Y-91219783D01*
X165630569Y-91180817D01*
X165547721Y-91161614D01*
X165286641Y-91139002D01*
X165282206Y-91139246D01*
X165282203Y-91139246D01*
X165259976Y-91140469D01*
X165233219Y-91141942D01*
X165164103Y-91125713D01*
X165137201Y-91105227D01*
X164609405Y-90577431D01*
X164575379Y-90515119D01*
X164572500Y-90488336D01*
X164572500Y-89810678D01*
X164592502Y-89742557D01*
X164646158Y-89696064D01*
X164716432Y-89685960D01*
X164730792Y-89688886D01*
X164905555Y-89735224D01*
X164905566Y-89735226D01*
X164909865Y-89736366D01*
X164914289Y-89736890D01*
X164914291Y-89736890D01*
X165038951Y-89751644D01*
X165170107Y-89767167D01*
X165432092Y-89760993D01*
X165436486Y-89760262D01*
X165436493Y-89760261D01*
X165686192Y-89718700D01*
X165686196Y-89718699D01*
X165690594Y-89717967D01*
X165933692Y-89641085D01*
X165936209Y-89640289D01*
X165936211Y-89640288D01*
X165940455Y-89638946D01*
X165944466Y-89637020D01*
X165944471Y-89637018D01*
X166172669Y-89527439D01*
X166172670Y-89527438D01*
X166176688Y-89525509D01*
X166321066Y-89429039D01*
X166390874Y-89382395D01*
X166390878Y-89382392D01*
X166394582Y-89379917D01*
X166397898Y-89376946D01*
X166397903Y-89376943D01*
X166444106Y-89335560D01*
X166508194Y-89305011D01*
X166578625Y-89313960D01*
G37*
%TD.AperFunction*%
%TA.AperFunction,Conductor*%
G36*
X162650474Y-75946502D02*
G01*
X162682297Y-75977355D01*
X162682909Y-75976870D01*
X162685578Y-75980237D01*
X162688006Y-75983770D01*
X162880756Y-76195600D01*
X163100472Y-76379311D01*
X163343088Y-76531503D01*
X163346990Y-76533265D01*
X163346994Y-76533267D01*
X163600202Y-76647595D01*
X163600206Y-76647597D01*
X163604114Y-76649361D01*
X163692716Y-76675606D01*
X163823858Y-76714453D01*
X163883493Y-76752979D01*
X163912832Y-76817630D01*
X163902561Y-76887879D01*
X163877167Y-76924359D01*
X162374931Y-78426595D01*
X162312619Y-78460621D01*
X162285836Y-78463500D01*
X160998184Y-78463500D01*
X160995397Y-78463749D01*
X160995391Y-78463749D01*
X160909545Y-78471411D01*
X160877913Y-78474234D01*
X160682530Y-78530259D01*
X160502404Y-78624427D01*
X160344891Y-78752891D01*
X160216427Y-78910404D01*
X160122259Y-79090530D01*
X160066234Y-79285913D01*
X160055500Y-79406184D01*
X160055500Y-81121816D01*
X160066234Y-81242087D01*
X160122259Y-81437470D01*
X160216427Y-81617596D01*
X160344891Y-81775109D01*
X160502404Y-81903573D01*
X160682530Y-81997741D01*
X160877913Y-82053766D01*
X160897051Y-82055474D01*
X160940701Y-82059370D01*
X161006774Y-82085349D01*
X161048313Y-82142925D01*
X161055500Y-82184871D01*
X161055500Y-82713138D01*
X161054422Y-82729585D01*
X161051547Y-82751422D01*
X161051812Y-82757034D01*
X161055360Y-82832271D01*
X161055500Y-82838207D01*
X161055500Y-82860630D01*
X161055750Y-82863428D01*
X161057804Y-82886452D01*
X161058163Y-82891713D01*
X161062063Y-82974398D01*
X161063314Y-82979861D01*
X161063315Y-82979867D01*
X161066028Y-82991711D01*
X161068710Y-83008645D01*
X161070289Y-83026339D01*
X161071771Y-83031755D01*
X161071771Y-83031757D01*
X161092131Y-83106181D01*
X161093417Y-83111299D01*
X161111897Y-83191987D01*
X161114095Y-83197141D01*
X161114099Y-83197152D01*
X161118866Y-83208326D01*
X161124505Y-83224516D01*
X161129192Y-83241651D01*
X161164835Y-83316377D01*
X161166993Y-83321157D01*
X161199476Y-83397313D01*
X161209236Y-83412171D01*
X161217642Y-83427091D01*
X161225292Y-83443129D01*
X161228563Y-83447682D01*
X161228566Y-83447686D01*
X161273589Y-83510341D01*
X161276579Y-83514690D01*
X161294926Y-83542620D01*
X161322031Y-83583884D01*
X161325106Y-83587335D01*
X161340398Y-83604499D01*
X161348640Y-83614786D01*
X161355552Y-83624405D01*
X161404003Y-83671357D01*
X161431757Y-83698253D01*
X161433168Y-83699642D01*
X162034596Y-84301071D01*
X162068621Y-84363383D01*
X162071500Y-84390166D01*
X162071500Y-86182497D01*
X162051498Y-86250618D01*
X161997842Y-86297111D01*
X161927568Y-86307215D01*
X161914177Y-86304541D01*
X161728374Y-86256834D01*
X161664851Y-86251667D01*
X161591575Y-86245707D01*
X161591563Y-86245707D01*
X161589024Y-86245500D01*
X160990976Y-86245500D01*
X160988437Y-86245707D01*
X160988425Y-86245707D01*
X160915149Y-86251667D01*
X160851626Y-86256834D01*
X160637577Y-86311793D01*
X160632474Y-86314129D01*
X160632472Y-86314130D01*
X160441744Y-86401452D01*
X160441739Y-86401455D01*
X160436643Y-86403788D01*
X160302916Y-86496731D01*
X160235566Y-86519183D01*
X160166766Y-86501658D01*
X160141913Y-86482360D01*
X157397405Y-83737853D01*
X157363379Y-83675541D01*
X157360500Y-83648758D01*
X157360500Y-82142530D01*
X157380502Y-82074409D01*
X157434158Y-82027916D01*
X157492216Y-82016660D01*
X157533412Y-82018531D01*
X157538432Y-82017950D01*
X157538436Y-82017950D01*
X157772238Y-81990898D01*
X157777268Y-81990316D01*
X157782139Y-81988938D01*
X157782142Y-81988937D01*
X157890544Y-81958262D01*
X158013477Y-81923475D01*
X158124719Y-81871602D01*
X158231378Y-81821867D01*
X158231382Y-81821865D01*
X158235960Y-81819730D01*
X158240142Y-81816888D01*
X158434807Y-81684594D01*
X158434811Y-81684591D01*
X158438994Y-81681748D01*
X158617356Y-81513080D01*
X158620435Y-81509053D01*
X158763383Y-81322084D01*
X158763386Y-81322080D01*
X158766456Y-81318064D01*
X158807195Y-81242087D01*
X158852215Y-81158124D01*
X158882459Y-81101719D01*
X158925492Y-80976745D01*
X158960732Y-80874400D01*
X158962381Y-80869611D01*
X159004164Y-80627710D01*
X159005500Y-80598290D01*
X159005500Y-79977314D01*
X158999303Y-79900290D01*
X158991182Y-79799349D01*
X158991181Y-79799344D01*
X158990776Y-79794308D01*
X158987747Y-79781974D01*
X158933427Y-79560825D01*
X158932220Y-79555911D01*
X158868665Y-79406184D01*
X158838278Y-79334598D01*
X158838278Y-79334597D01*
X158836302Y-79329943D01*
X158749880Y-79192707D01*
X158730500Y-79125565D01*
X158730500Y-76052500D01*
X158750502Y-75984379D01*
X158804158Y-75937886D01*
X158856500Y-75926500D01*
X162582353Y-75926500D01*
X162650474Y-75946502D01*
G37*
%TD.AperFunction*%
%TA.AperFunction,Conductor*%
G36*
X168642821Y-76640542D02*
G01*
X168684333Y-76698138D01*
X168691500Y-76740028D01*
X168691500Y-83551760D01*
X168671498Y-83619881D01*
X168617842Y-83666374D01*
X168547568Y-83676478D01*
X168520038Y-83669273D01*
X168365355Y-83609431D01*
X168343012Y-83600787D01*
X168338691Y-83599785D01*
X168338683Y-83599783D01*
X168170569Y-83560817D01*
X168087721Y-83541614D01*
X167826641Y-83519002D01*
X167822206Y-83519246D01*
X167822202Y-83519246D01*
X167569421Y-83533157D01*
X167569414Y-83533158D01*
X167564978Y-83533402D01*
X167307956Y-83584527D01*
X167303746Y-83586005D01*
X167303744Y-83586006D01*
X167251084Y-83604499D01*
X167060701Y-83671357D01*
X167056750Y-83673410D01*
X167056744Y-83673412D01*
X166880309Y-83765063D01*
X166810637Y-83778715D01*
X166742591Y-83750892D01*
X166681353Y-83700948D01*
X166661096Y-83684427D01*
X166480970Y-83590259D01*
X166285587Y-83534234D01*
X166253955Y-83531411D01*
X166168109Y-83523749D01*
X166168103Y-83523749D01*
X166165316Y-83523500D01*
X164636849Y-83523500D01*
X164568728Y-83503498D01*
X164522235Y-83449842D01*
X164517260Y-83437065D01*
X164516103Y-83432013D01*
X164510698Y-83419341D01*
X164509134Y-83415674D01*
X164503495Y-83399483D01*
X164500290Y-83387767D01*
X164498808Y-83382349D01*
X164463165Y-83307623D01*
X164461007Y-83302843D01*
X164453121Y-83284354D01*
X164428524Y-83226687D01*
X164418764Y-83211829D01*
X164410358Y-83196909D01*
X164402708Y-83180871D01*
X164354402Y-83113646D01*
X164351413Y-83109297D01*
X164308506Y-83043977D01*
X164305970Y-83040116D01*
X164302896Y-83036666D01*
X164302890Y-83036658D01*
X164287596Y-83019492D01*
X164279352Y-83009203D01*
X164278951Y-83008645D01*
X164272448Y-82999595D01*
X164196209Y-82925714D01*
X164194799Y-82924325D01*
X163593405Y-82322931D01*
X163559379Y-82260619D01*
X163556500Y-82233836D01*
X163556500Y-82184871D01*
X163576502Y-82116750D01*
X163630158Y-82070257D01*
X163671299Y-82059370D01*
X163714949Y-82055474D01*
X163734087Y-82053766D01*
X163929470Y-81997741D01*
X164109596Y-81903573D01*
X164267109Y-81775109D01*
X164395573Y-81617596D01*
X164489741Y-81437470D01*
X164545766Y-81242087D01*
X164556500Y-81121816D01*
X164556500Y-79834164D01*
X164576502Y-79766043D01*
X164593405Y-79745069D01*
X167525069Y-76813405D01*
X167587381Y-76779379D01*
X167614164Y-76776500D01*
X168035816Y-76776500D01*
X168038603Y-76776251D01*
X168038609Y-76776251D01*
X168124455Y-76768589D01*
X168156087Y-76765766D01*
X168351470Y-76709741D01*
X168357128Y-76706783D01*
X168357131Y-76706782D01*
X168507124Y-76628367D01*
X168576760Y-76614532D01*
X168642821Y-76640542D01*
G37*
%TD.AperFunction*%
%TA.AperFunction,Conductor*%
G36*
X168633621Y-64296502D02*
G01*
X168680114Y-64350158D01*
X168691500Y-64402500D01*
X168691500Y-72611972D01*
X168671498Y-72680093D01*
X168617842Y-72726586D01*
X168547568Y-72736690D01*
X168507124Y-72723633D01*
X168357131Y-72645218D01*
X168357127Y-72645216D01*
X168351470Y-72642259D01*
X168156087Y-72586234D01*
X168124455Y-72583411D01*
X168038609Y-72575749D01*
X168038603Y-72575749D01*
X168035816Y-72575500D01*
X167360164Y-72575500D01*
X167292043Y-72555498D01*
X167271069Y-72538595D01*
X165794490Y-71062016D01*
X165783622Y-71049625D01*
X165773620Y-71036590D01*
X165770210Y-71032146D01*
X165710324Y-70977654D01*
X165706029Y-70973555D01*
X165690194Y-70957720D01*
X165670296Y-70941083D01*
X165666331Y-70937624D01*
X165658884Y-70930847D01*
X165623258Y-70898430D01*
X165609256Y-70885689D01*
X165609254Y-70885687D01*
X165605107Y-70881914D01*
X165590052Y-70872470D01*
X165576193Y-70862400D01*
X165566868Y-70854603D01*
X165566866Y-70854602D01*
X165562562Y-70851003D01*
X165530325Y-70832615D01*
X165490663Y-70809992D01*
X165486157Y-70807296D01*
X165416010Y-70763293D01*
X165399521Y-70756665D01*
X165384091Y-70749205D01*
X165373539Y-70743186D01*
X165373537Y-70743185D01*
X165368663Y-70740405D01*
X165290639Y-70712775D01*
X165285703Y-70710910D01*
X165214094Y-70682124D01*
X165208895Y-70680034D01*
X165203409Y-70678898D01*
X165203403Y-70678896D01*
X165191494Y-70676430D01*
X165174998Y-70671825D01*
X165158244Y-70665892D01*
X165101796Y-70656648D01*
X165076551Y-70652514D01*
X165071363Y-70651552D01*
X165008572Y-70638549D01*
X164990310Y-70634767D01*
X164985699Y-70634501D01*
X164985698Y-70634501D01*
X164962739Y-70633177D01*
X164949636Y-70631730D01*
X164943502Y-70630726D01*
X164943496Y-70630726D01*
X164937954Y-70629818D01*
X164932340Y-70629906D01*
X164932338Y-70629906D01*
X164831895Y-70631484D01*
X164829916Y-70631500D01*
X162477164Y-70631500D01*
X162409043Y-70611498D01*
X162388069Y-70594595D01*
X157416905Y-65623431D01*
X157382879Y-65561119D01*
X157380000Y-65534336D01*
X157380000Y-65042826D01*
X157368547Y-64902016D01*
X157354878Y-64848777D01*
X157314408Y-64691161D01*
X157313011Y-64685720D01*
X157220051Y-64482676D01*
X157214306Y-64474410D01*
X157191853Y-64407057D01*
X157209379Y-64338257D01*
X157261318Y-64289854D01*
X157317771Y-64276500D01*
X168565500Y-64276500D01*
X168633621Y-64296502D01*
G37*
%TD.AperFunction*%
%TA.AperFunction,Conductor*%
G36*
X148708467Y-107163022D02*
G01*
X148746121Y-107183109D01*
X148757518Y-107191958D01*
X148759947Y-107193509D01*
X148759953Y-107193514D01*
X148856045Y-107254901D01*
X148912737Y-107291118D01*
X149102016Y-107365717D01*
X149108301Y-107366814D01*
X149108306Y-107366815D01*
X149273859Y-107395701D01*
X149302437Y-107400687D01*
X149305625Y-107400915D01*
X149370659Y-107405567D01*
X149370670Y-107405567D01*
X149373252Y-107405752D01*
X149458053Y-107404775D01*
X149534003Y-107403900D01*
X149534004Y-107403900D01*
X149539811Y-107403833D01*
X149739373Y-107364254D01*
X149898199Y-107297390D01*
X149968744Y-107289394D01*
X149978416Y-107291476D01*
X150183626Y-107344166D01*
X150247149Y-107349333D01*
X150320425Y-107355293D01*
X150320437Y-107355293D01*
X150322976Y-107355500D01*
X150921024Y-107355500D01*
X150923563Y-107355293D01*
X150923575Y-107355293D01*
X150996851Y-107349333D01*
X151060374Y-107344166D01*
X151130129Y-107326256D01*
X151201083Y-107328688D01*
X151248930Y-107357603D01*
X151276027Y-107383737D01*
X151276926Y-107384540D01*
X151276942Y-107384555D01*
X151329983Y-107431940D01*
X151329987Y-107431943D01*
X151333261Y-107434868D01*
X151336913Y-107437311D01*
X151336914Y-107437312D01*
X151497048Y-107544444D01*
X151497051Y-107544446D01*
X151502358Y-107547996D01*
X151690767Y-107624769D01*
X151758888Y-107644771D01*
X151760169Y-107645090D01*
X151760176Y-107645092D01*
X151796586Y-107654162D01*
X151839762Y-107664917D01*
X151918670Y-107672941D01*
X152038989Y-107685177D01*
X152038994Y-107685177D01*
X152042168Y-107685500D01*
X154814000Y-107685500D01*
X154817349Y-107685140D01*
X154940000Y-107671954D01*
X154940000Y-111529313D01*
X154817179Y-111516823D01*
X154817174Y-111516823D01*
X154814000Y-111516500D01*
X152042168Y-111516500D01*
X151846241Y-111535773D01*
X151843208Y-111536376D01*
X151843205Y-111536376D01*
X151799245Y-111545109D01*
X151799227Y-111545113D01*
X151798079Y-111545341D01*
X151749667Y-111556895D01*
X151727708Y-111562136D01*
X151727706Y-111562137D01*
X151723435Y-111563156D01*
X151534033Y-111637445D01*
X151528679Y-111640926D01*
X151528675Y-111640928D01*
X151474108Y-111676405D01*
X151363464Y-111748340D01*
X151308161Y-111792862D01*
X151245456Y-111847778D01*
X151244162Y-111846301D01*
X151189108Y-111876738D01*
X151130346Y-111875800D01*
X151120656Y-111873312D01*
X151060374Y-111857834D01*
X150996851Y-111852667D01*
X150923575Y-111846707D01*
X150923563Y-111846707D01*
X150921024Y-111846500D01*
X150322976Y-111846500D01*
X150320437Y-111846707D01*
X150320425Y-111846707D01*
X150247149Y-111852667D01*
X150183626Y-111857834D01*
X150023399Y-111898974D01*
X149952446Y-111896542D01*
X149929023Y-111886028D01*
X149861524Y-111847022D01*
X149861520Y-111847020D01*
X149857467Y-111844678D01*
X149668188Y-111770079D01*
X149661903Y-111768982D01*
X149661898Y-111768981D01*
X149470913Y-111735658D01*
X149470914Y-111735658D01*
X149467767Y-111735109D01*
X149461914Y-111734690D01*
X149399545Y-111730229D01*
X149399534Y-111730229D01*
X149396952Y-111730044D01*
X149312151Y-111731021D01*
X149236201Y-111731896D01*
X149236200Y-111731896D01*
X149230393Y-111731963D01*
X149030831Y-111771542D01*
X148843320Y-111850482D01*
X148781008Y-111884508D01*
X148779922Y-111885161D01*
X148779283Y-111885545D01*
X148779226Y-111885560D01*
X148778753Y-111885831D01*
X148778679Y-111885703D01*
X148710594Y-111903500D01*
X148683029Y-111899597D01*
X148665001Y-111894968D01*
X148520374Y-111857834D01*
X148456851Y-111852667D01*
X148383575Y-111846707D01*
X148383563Y-111846707D01*
X148381024Y-111846500D01*
X147782976Y-111846500D01*
X147780437Y-111846707D01*
X147780425Y-111846707D01*
X147707149Y-111852667D01*
X147643626Y-111857834D01*
X147573871Y-111875744D01*
X147502917Y-111873312D01*
X147455070Y-111844397D01*
X147427973Y-111818263D01*
X147427074Y-111817460D01*
X147427058Y-111817445D01*
X147374017Y-111770060D01*
X147374013Y-111770057D01*
X147370739Y-111767132D01*
X147342650Y-111748340D01*
X147206952Y-111657556D01*
X147206949Y-111657554D01*
X147201642Y-111654004D01*
X147013233Y-111577231D01*
X146945112Y-111557229D01*
X146943831Y-111556910D01*
X146943824Y-111556908D01*
X146897389Y-111545341D01*
X146864238Y-111537083D01*
X146785330Y-111529059D01*
X146665011Y-111516823D01*
X146665006Y-111516823D01*
X146661832Y-111516500D01*
X143890000Y-111516500D01*
X143821879Y-111496498D01*
X143775386Y-111442842D01*
X143764000Y-111390500D01*
X143764000Y-107811500D01*
X143784002Y-107743379D01*
X143837658Y-107696886D01*
X143890000Y-107685500D01*
X146589191Y-107685500D01*
X146637729Y-107683498D01*
X146667502Y-107682270D01*
X146667503Y-107682270D01*
X146671986Y-107682085D01*
X146770204Y-107663829D01*
X146868865Y-107645491D01*
X146868873Y-107645489D01*
X146872010Y-107644906D01*
X146900925Y-107636431D01*
X146937530Y-107625702D01*
X146937535Y-107625700D01*
X146940030Y-107624969D01*
X147095007Y-107565251D01*
X147204320Y-107497956D01*
X147262813Y-107461947D01*
X147262815Y-107461945D01*
X147268259Y-107458594D01*
X147272915Y-107454217D01*
X147272919Y-107454214D01*
X147377926Y-107355500D01*
X147416493Y-107319245D01*
X147418579Y-107316842D01*
X147418585Y-107316836D01*
X147462182Y-107266618D01*
X147462185Y-107266614D01*
X147463037Y-107265633D01*
X147492541Y-107228659D01*
X147550662Y-107187888D01*
X147622362Y-107185206D01*
X147643626Y-107190666D01*
X147707149Y-107195833D01*
X147780425Y-107201793D01*
X147780437Y-107201793D01*
X147782976Y-107202000D01*
X148381024Y-107202000D01*
X148383563Y-107201793D01*
X148383575Y-107201793D01*
X148456851Y-107195833D01*
X148520374Y-107190666D01*
X148637512Y-107160590D01*
X148708467Y-107163022D01*
G37*
%TD.AperFunction*%
M02*
