%TF.GenerationSoftware,KiCad,Pcbnew,(6.0.9-0)*%
%TF.CreationDate,2023-03-20T13:18:44-04:00*%
%TF.ProjectId,dad_bod_02,6461645f-626f-4645-9f30-322e6b696361,rev?*%
%TF.SameCoordinates,Original*%
%TF.FileFunction,Drillmap*%
%TF.FilePolarity,Positive*%
%FSLAX45Y45*%
G04 Gerber Fmt 4.5, Leading zero omitted, Abs format (unit mm)*
G04 Created by KiCad (PCBNEW (6.0.9-0)) date 2023-03-20 13:18:44*
%MOMM*%
%LPD*%
G01*
G04 APERTURE LIST*
%ADD10C,0.050000*%
%ADD11C,0.200000*%
G04 APERTURE END LIST*
D10*
X8993600Y-6327600D02*
X16969200Y-6327600D01*
X16969200Y-6327600D02*
X16969200Y-14277800D01*
X16969200Y-14277800D02*
X8993600Y-14277800D01*
X8993600Y-14277800D02*
X8993600Y-6327600D01*
D11*
X9248719Y-14590776D02*
X9248719Y-14390776D01*
X9296338Y-14390776D01*
X9324910Y-14400300D01*
X9343957Y-14419348D01*
X9353481Y-14438395D01*
X9363005Y-14476490D01*
X9363005Y-14505062D01*
X9353481Y-14543157D01*
X9343957Y-14562205D01*
X9324910Y-14581252D01*
X9296338Y-14590776D01*
X9248719Y-14590776D01*
X9448719Y-14590776D02*
X9448719Y-14457443D01*
X9448719Y-14495538D02*
X9458243Y-14476490D01*
X9467767Y-14466967D01*
X9486814Y-14457443D01*
X9505862Y-14457443D01*
X9572529Y-14590776D02*
X9572529Y-14457443D01*
X9572529Y-14390776D02*
X9563005Y-14400300D01*
X9572529Y-14409824D01*
X9582052Y-14400300D01*
X9572529Y-14390776D01*
X9572529Y-14409824D01*
X9696338Y-14590776D02*
X9677290Y-14581252D01*
X9667767Y-14562205D01*
X9667767Y-14390776D01*
X9801100Y-14590776D02*
X9782052Y-14581252D01*
X9772529Y-14562205D01*
X9772529Y-14390776D01*
X10029671Y-14590776D02*
X10029671Y-14390776D01*
X10096338Y-14533633D01*
X10163005Y-14390776D01*
X10163005Y-14590776D01*
X10343957Y-14590776D02*
X10343957Y-14486014D01*
X10334433Y-14466967D01*
X10315386Y-14457443D01*
X10277290Y-14457443D01*
X10258243Y-14466967D01*
X10343957Y-14581252D02*
X10324910Y-14590776D01*
X10277290Y-14590776D01*
X10258243Y-14581252D01*
X10248719Y-14562205D01*
X10248719Y-14543157D01*
X10258243Y-14524109D01*
X10277290Y-14514586D01*
X10324910Y-14514586D01*
X10343957Y-14505062D01*
X10439195Y-14457443D02*
X10439195Y-14657443D01*
X10439195Y-14466967D02*
X10458243Y-14457443D01*
X10496338Y-14457443D01*
X10515386Y-14466967D01*
X10524910Y-14476490D01*
X10534433Y-14495538D01*
X10534433Y-14552681D01*
X10524910Y-14571728D01*
X10515386Y-14581252D01*
X10496338Y-14590776D01*
X10458243Y-14590776D01*
X10439195Y-14581252D01*
X10620148Y-14571728D02*
X10629671Y-14581252D01*
X10620148Y-14590776D01*
X10610624Y-14581252D01*
X10620148Y-14571728D01*
X10620148Y-14590776D01*
X10620148Y-14466967D02*
X10629671Y-14476490D01*
X10620148Y-14486014D01*
X10610624Y-14476490D01*
X10620148Y-14466967D01*
X10620148Y-14486014D01*
M02*
