%TF.GenerationSoftware,KiCad,Pcbnew,(6.0.9-0)*%
%TF.CreationDate,2023-03-20T13:18:37-04:00*%
%TF.ProjectId,dad_bod_02,6461645f-626f-4645-9f30-322e6b696361,rev?*%
%TF.SameCoordinates,Original*%
%TF.FileFunction,Soldermask,Bot*%
%TF.FilePolarity,Negative*%
%FSLAX46Y46*%
G04 Gerber Fmt 4.6, Leading zero omitted, Abs format (unit mm)*
G04 Created by KiCad (PCBNEW (6.0.9-0)) date 2023-03-20 13:18:37*
%MOMM*%
%LPD*%
G01*
G04 APERTURE LIST*
G04 Aperture macros list*
%AMRoundRect*
0 Rectangle with rounded corners*
0 $1 Rounding radius*
0 $2 $3 $4 $5 $6 $7 $8 $9 X,Y pos of 4 corners*
0 Add a 4 corners polygon primitive as box body*
4,1,4,$2,$3,$4,$5,$6,$7,$8,$9,$2,$3,0*
0 Add four circle primitives for the rounded corners*
1,1,$1+$1,$2,$3*
1,1,$1+$1,$4,$5*
1,1,$1+$1,$6,$7*
1,1,$1+$1,$8,$9*
0 Add four rect primitives between the rounded corners*
20,1,$1+$1,$2,$3,$4,$5,0*
20,1,$1+$1,$4,$5,$6,$7,0*
20,1,$1+$1,$6,$7,$8,$9,0*
20,1,$1+$1,$8,$9,$2,$3,0*%
G04 Aperture macros list end*
%ADD10C,1.524000*%
%ADD11R,2.200000X2.200000*%
%ADD12O,2.200000X2.200000*%
%ADD13C,3.200000*%
%ADD14C,2.300000*%
%ADD15C,1.755000*%
%ADD16C,2.025000*%
%ADD17R,1.700000X1.700000*%
%ADD18O,1.700000X1.700000*%
%ADD19RoundRect,0.250500X-0.499500X0.499500X-0.499500X-0.499500X0.499500X-0.499500X0.499500X0.499500X0*%
%ADD20C,1.500000*%
%ADD21RoundRect,0.250500X0.499500X0.499500X-0.499500X0.499500X-0.499500X-0.499500X0.499500X-0.499500X0*%
%ADD22R,1.050000X1.500000*%
%ADD23O,1.050000X1.500000*%
G04 APERTURE END LIST*
D10*
X113538000Y-107696000D03*
X113538000Y-87376000D03*
D11*
X166878000Y-74676000D03*
D12*
X164338000Y-74676000D03*
D11*
X157170234Y-124460000D03*
D12*
X154630234Y-124460000D03*
D11*
X156464000Y-74676000D03*
D12*
X153924000Y-74676000D03*
D11*
X154432000Y-128778000D03*
D12*
X151892000Y-128778000D03*
D13*
X134132000Y-77256000D03*
D14*
X139212000Y-81056000D03*
X139212000Y-70896000D03*
X129052000Y-81056000D03*
X129052000Y-70896000D03*
D13*
X120650000Y-77256000D03*
D14*
X125730000Y-70896000D03*
X125730000Y-81056000D03*
X115570000Y-81056000D03*
X115570000Y-70896000D03*
D13*
X134132000Y-128808000D03*
D14*
X139212000Y-125008000D03*
X129052000Y-125008000D03*
X129052000Y-135168000D03*
X139212000Y-135168000D03*
D13*
X120670000Y-128808000D03*
D14*
X115590000Y-135168000D03*
X125750000Y-135168000D03*
X115590000Y-125008000D03*
X125750000Y-125008000D03*
D15*
X100330000Y-138684000D03*
D16*
X104030000Y-141224000D03*
X104030000Y-136144000D03*
X96630000Y-136144000D03*
X96630000Y-141224000D03*
D17*
X124953000Y-85384000D03*
D18*
X122413000Y-85384000D03*
X119873000Y-85384000D03*
D17*
X122936000Y-120650000D03*
D18*
X120396000Y-120650000D03*
X117856000Y-120650000D03*
D19*
X155629500Y-65604500D03*
D20*
X150549500Y-65604500D03*
X148009500Y-65604500D03*
X145469500Y-65604500D03*
X145469500Y-70684500D03*
X148009500Y-70684500D03*
X150549500Y-70684500D03*
X155629500Y-70684500D03*
D21*
X147755500Y-130810000D03*
D20*
X147755500Y-125730000D03*
X147755500Y-123190000D03*
X147755500Y-120650000D03*
X142675500Y-120650000D03*
X142675500Y-123190000D03*
X142675500Y-125730000D03*
X142675500Y-130810000D03*
D22*
X154940000Y-80264000D03*
D23*
X156210000Y-80264000D03*
X157480000Y-80264000D03*
D22*
X154178000Y-120502000D03*
D23*
X155448000Y-120502000D03*
X156718000Y-120502000D03*
D17*
X110744000Y-138938000D03*
D18*
X110744000Y-136398000D03*
X110744000Y-133858000D03*
D17*
X165257500Y-85374000D03*
D18*
X167797500Y-85374000D03*
X165257500Y-87914000D03*
X167797500Y-87914000D03*
X165257500Y-90454000D03*
X167797500Y-90454000D03*
X165257500Y-92994000D03*
X167797500Y-92994000D03*
X165257500Y-95534000D03*
X167797500Y-95534000D03*
X165257500Y-98074000D03*
X167797500Y-98074000D03*
X165257500Y-100614000D03*
X167797500Y-100614000D03*
X165257500Y-103154000D03*
X167797500Y-103154000D03*
X165257500Y-105694000D03*
X167797500Y-105694000D03*
X165257500Y-108234000D03*
X167797500Y-108234000D03*
X165257500Y-110774000D03*
X167797500Y-110774000D03*
X165257500Y-113314000D03*
X167797500Y-113314000D03*
X165257500Y-115854000D03*
X167797500Y-115854000D03*
X165257500Y-118394000D03*
X167797500Y-118394000D03*
X165257500Y-120934000D03*
X167797500Y-120934000D03*
D15*
X154432500Y-138684000D03*
D16*
X158132500Y-141224000D03*
X158132500Y-136144000D03*
X150732500Y-136144000D03*
X150732500Y-141224000D03*
M02*
