M48
; DRILL file {KiCad (6.0.9-0)} date Monday, March 20, 2023 at 01:18:43 PM
; FORMAT={-:-/ absolute / metric / decimal}
; #@! TF.CreationDate,2023-03-20T13:18:43-04:00
; #@! TF.GenerationSoftware,Kicad,Pcbnew,(6.0.9-0)
; #@! TF.FileFunction,Plated,1,2,PTH
FMAT,2
METRIC
; #@! TA.AperFunction,Plated,PTH,ViaDrill
T1C0.400
; #@! TA.AperFunction,Plated,PTH,ComponentDrill
T2C0.750
; #@! TA.AperFunction,Plated,PTH,ComponentDrill
T3C0.800
; #@! TA.AperFunction,Plated,PTH,ComponentDrill
T4C1.000
; #@! TA.AperFunction,Plated,PTH,ComponentDrill
T5C1.100
; #@! TA.AperFunction,Plated,PTH,ComponentDrill
T6C1.170
; #@! TA.AperFunction,Plated,PTH,ComponentDrill
T7C1.300
; #@! TA.AperFunction,Plated,PTH,ComponentDrill
T8C1.350
; #@! TA.AperFunction,Plated,PTH,ComponentDrill
T9C2.200
%
G90
G05
T1
X116.84Y-108.712
X117.602Y-94.234
X118.11Y-110.744
X118.618Y-96.266
X144.018Y-91.186
X144.526Y-99.314
X144.526Y-105.918
X145.796Y-114.046
X147.574Y-94.996
X147.828Y-109.474
X148.844Y-94.996
X149.098Y-109.474
X150.368Y-94.996
X150.622Y-109.474
X151.638Y-124.968
X152.146Y-123.19
X157.734Y-116.84
X159.766Y-76.962
X161.036Y-76.962
X161.29Y-118.364
X161.29Y-122.936
X161.544Y-131.572
X162.814Y-131.572
X163.322Y-140.97
X164.084Y-131.572
X164.592Y-140.97
X165.354Y-66.802
X165.608Y-123.698
X165.862Y-140.97
X166.243Y-67.691
X166.624Y-123.698
X167.132Y-68.58
X167.64Y-78.232
X167.64Y-82.042
X167.894Y-135.89
X167.894Y-137.414
X167.894Y-138.938
T2
X154.178Y-120.502
X154.94Y-80.264
X155.448Y-120.502
X156.21Y-80.264
X156.718Y-120.502
X157.48Y-80.264
T3
X142.675Y-120.65
X142.675Y-123.19
X142.675Y-125.73
X142.675Y-130.81
X145.469Y-65.605
X145.469Y-70.684
X147.755Y-120.65
X147.755Y-123.19
X147.755Y-125.73
X147.755Y-130.81
X148.01Y-65.605
X148.01Y-70.684
X150.549Y-65.605
X150.549Y-70.684
X155.629Y-65.605
X155.629Y-70.684
T4
X110.744Y-133.858
X110.744Y-136.398
X110.744Y-138.938
X113.538Y-87.376
X113.538Y-107.696
X117.856Y-120.65
X119.873Y-85.384
X120.396Y-120.65
X122.413Y-85.384
X122.936Y-120.65
X124.953Y-85.384
X165.257Y-85.374
X165.257Y-87.914
X165.257Y-90.454
X165.257Y-92.994
X165.257Y-95.534
X165.257Y-98.074
X165.257Y-100.614
X165.257Y-103.154
X165.257Y-105.694
X165.257Y-108.234
X165.257Y-110.774
X165.257Y-113.314
X165.257Y-115.854
X165.257Y-118.394
X165.257Y-120.934
X167.797Y-85.374
X167.797Y-87.914
X167.797Y-90.454
X167.797Y-92.994
X167.797Y-95.534
X167.797Y-98.074
X167.797Y-100.614
X167.797Y-103.154
X167.797Y-105.694
X167.797Y-108.234
X167.797Y-110.774
X167.797Y-113.314
X167.797Y-115.854
X167.797Y-118.394
X167.797Y-120.934
T5
X151.892Y-128.778
X153.924Y-74.676
X154.432Y-128.778
X154.63Y-124.46
X156.464Y-74.676
X157.17Y-124.46
X164.338Y-74.676
X166.878Y-74.676
T6
X100.33Y-138.684
X154.433Y-138.684
T7
X115.57Y-70.896
X115.57Y-81.056
X115.59Y-125.008
X115.59Y-135.168
X125.73Y-70.896
X125.73Y-81.056
X125.75Y-125.008
X125.75Y-135.168
X129.052Y-70.896
X129.052Y-81.056
X129.052Y-125.008
X129.052Y-135.168
X139.212Y-70.896
X139.212Y-81.056
X139.212Y-125.008
X139.212Y-135.168
T8
X96.63Y-136.144
X96.63Y-141.224
X104.03Y-136.144
X104.03Y-141.224
X150.732Y-136.144
X150.732Y-141.224
X158.132Y-136.144
X158.132Y-141.224
T9
X120.65Y-77.256
X120.67Y-128.808
X134.132Y-77.256
X134.132Y-128.808
T0
M30
