%TF.GenerationSoftware,KiCad,Pcbnew,(6.0.9-0)*%
%TF.CreationDate,2023-03-20T13:18:36-04:00*%
%TF.ProjectId,dad_bod_02,6461645f-626f-4645-9f30-322e6b696361,rev?*%
%TF.SameCoordinates,Original*%
%TF.FileFunction,Copper,L2,Bot*%
%TF.FilePolarity,Positive*%
%FSLAX46Y46*%
G04 Gerber Fmt 4.6, Leading zero omitted, Abs format (unit mm)*
G04 Created by KiCad (PCBNEW (6.0.9-0)) date 2023-03-20 13:18:36*
%MOMM*%
%LPD*%
G01*
G04 APERTURE LIST*
G04 Aperture macros list*
%AMRoundRect*
0 Rectangle with rounded corners*
0 $1 Rounding radius*
0 $2 $3 $4 $5 $6 $7 $8 $9 X,Y pos of 4 corners*
0 Add a 4 corners polygon primitive as box body*
4,1,4,$2,$3,$4,$5,$6,$7,$8,$9,$2,$3,0*
0 Add four circle primitives for the rounded corners*
1,1,$1+$1,$2,$3*
1,1,$1+$1,$4,$5*
1,1,$1+$1,$6,$7*
1,1,$1+$1,$8,$9*
0 Add four rect primitives between the rounded corners*
20,1,$1+$1,$2,$3,$4,$5,0*
20,1,$1+$1,$4,$5,$6,$7,0*
20,1,$1+$1,$6,$7,$8,$9,0*
20,1,$1+$1,$8,$9,$2,$3,0*%
G04 Aperture macros list end*
%TA.AperFunction,ComponentPad*%
%ADD10C,1.524000*%
%TD*%
%TA.AperFunction,ComponentPad*%
%ADD11R,2.200000X2.200000*%
%TD*%
%TA.AperFunction,ComponentPad*%
%ADD12O,2.200000X2.200000*%
%TD*%
%TA.AperFunction,ComponentPad*%
%ADD13C,3.200000*%
%TD*%
%TA.AperFunction,ComponentPad*%
%ADD14C,2.300000*%
%TD*%
%TA.AperFunction,ComponentPad*%
%ADD15C,1.755000*%
%TD*%
%TA.AperFunction,ComponentPad*%
%ADD16C,2.025000*%
%TD*%
%TA.AperFunction,ComponentPad*%
%ADD17R,1.700000X1.700000*%
%TD*%
%TA.AperFunction,ComponentPad*%
%ADD18O,1.700000X1.700000*%
%TD*%
%TA.AperFunction,ComponentPad*%
%ADD19RoundRect,0.250500X-0.499500X0.499500X-0.499500X-0.499500X0.499500X-0.499500X0.499500X0.499500X0*%
%TD*%
%TA.AperFunction,ComponentPad*%
%ADD20C,1.500000*%
%TD*%
%TA.AperFunction,ComponentPad*%
%ADD21RoundRect,0.250500X0.499500X0.499500X-0.499500X0.499500X-0.499500X-0.499500X0.499500X-0.499500X0*%
%TD*%
%TA.AperFunction,ComponentPad*%
%ADD22R,1.050000X1.500000*%
%TD*%
%TA.AperFunction,ComponentPad*%
%ADD23O,1.050000X1.500000*%
%TD*%
%TA.AperFunction,ViaPad*%
%ADD24C,0.800000*%
%TD*%
%TA.AperFunction,Conductor*%
%ADD25C,0.500000*%
%TD*%
%TA.AperFunction,Conductor*%
%ADD26C,0.300000*%
%TD*%
%TA.AperFunction,Conductor*%
%ADD27C,0.200000*%
%TD*%
G04 APERTURE END LIST*
D10*
X113538000Y-107696000D03*
X113538000Y-87376000D03*
D11*
X166878000Y-74676000D03*
D12*
X164338000Y-74676000D03*
D11*
X157170234Y-124460000D03*
D12*
X154630234Y-124460000D03*
D11*
X156464000Y-74676000D03*
D12*
X153924000Y-74676000D03*
D11*
X154432000Y-128778000D03*
D12*
X151892000Y-128778000D03*
D13*
X134132000Y-77256000D03*
D14*
X139212000Y-81056000D03*
X139212000Y-70896000D03*
X129052000Y-81056000D03*
X129052000Y-70896000D03*
D13*
X120650000Y-77256000D03*
D14*
X125730000Y-70896000D03*
X125730000Y-81056000D03*
X115570000Y-81056000D03*
X115570000Y-70896000D03*
D13*
X134132000Y-128808000D03*
D14*
X139212000Y-125008000D03*
X129052000Y-125008000D03*
X129052000Y-135168000D03*
X139212000Y-135168000D03*
D13*
X120670000Y-128808000D03*
D14*
X115590000Y-135168000D03*
X125750000Y-135168000D03*
X115590000Y-125008000D03*
X125750000Y-125008000D03*
D15*
X100330000Y-138684000D03*
D16*
X104030000Y-141224000D03*
X104030000Y-136144000D03*
X96630000Y-136144000D03*
X96630000Y-141224000D03*
D17*
X124953000Y-85384000D03*
D18*
X122413000Y-85384000D03*
X119873000Y-85384000D03*
D17*
X122936000Y-120650000D03*
D18*
X120396000Y-120650000D03*
X117856000Y-120650000D03*
D19*
X155629500Y-65604500D03*
D20*
X150549500Y-65604500D03*
X148009500Y-65604500D03*
X145469500Y-65604500D03*
X145469500Y-70684500D03*
X148009500Y-70684500D03*
X150549500Y-70684500D03*
X155629500Y-70684500D03*
D21*
X147755500Y-130810000D03*
D20*
X147755500Y-125730000D03*
X147755500Y-123190000D03*
X147755500Y-120650000D03*
X142675500Y-120650000D03*
X142675500Y-123190000D03*
X142675500Y-125730000D03*
X142675500Y-130810000D03*
D22*
X154940000Y-80264000D03*
D23*
X156210000Y-80264000D03*
X157480000Y-80264000D03*
D22*
X154178000Y-120502000D03*
D23*
X155448000Y-120502000D03*
X156718000Y-120502000D03*
D17*
X110744000Y-138938000D03*
D18*
X110744000Y-136398000D03*
X110744000Y-133858000D03*
D17*
X165257500Y-85374000D03*
D18*
X167797500Y-85374000D03*
X165257500Y-87914000D03*
X167797500Y-87914000D03*
X165257500Y-90454000D03*
X167797500Y-90454000D03*
X165257500Y-92994000D03*
X167797500Y-92994000D03*
X165257500Y-95534000D03*
X167797500Y-95534000D03*
X165257500Y-98074000D03*
X167797500Y-98074000D03*
X165257500Y-100614000D03*
X167797500Y-100614000D03*
X165257500Y-103154000D03*
X167797500Y-103154000D03*
X165257500Y-105694000D03*
X167797500Y-105694000D03*
X165257500Y-108234000D03*
X167797500Y-108234000D03*
X165257500Y-110774000D03*
X167797500Y-110774000D03*
X165257500Y-113314000D03*
X167797500Y-113314000D03*
X165257500Y-115854000D03*
X167797500Y-115854000D03*
X165257500Y-118394000D03*
X167797500Y-118394000D03*
X165257500Y-120934000D03*
X167797500Y-120934000D03*
D15*
X154432500Y-138684000D03*
D16*
X158132500Y-141224000D03*
X158132500Y-136144000D03*
X150732500Y-136144000D03*
X150732500Y-141224000D03*
D24*
X118110000Y-110744000D03*
X117602000Y-94234000D03*
X116840000Y-108712000D03*
X163322000Y-140970000D03*
X164084000Y-131572000D03*
X167640000Y-82042000D03*
X167640000Y-78232000D03*
X159766000Y-76962000D03*
X149098000Y-109474000D03*
X165354000Y-66802000D03*
X157734000Y-116840000D03*
X150622000Y-109474000D03*
X162814000Y-131572000D03*
X147828000Y-109474000D03*
X165862000Y-140970000D03*
X151638000Y-124968000D03*
X147574000Y-94996000D03*
X164592000Y-140970000D03*
X161544000Y-131572000D03*
X167894000Y-135890000D03*
X167132000Y-68580000D03*
X165608000Y-123698000D03*
X166243000Y-67691000D03*
X161036000Y-76962000D03*
X167894000Y-137414000D03*
X167894000Y-138938000D03*
X150368000Y-94996000D03*
X148844000Y-94996000D03*
X166624000Y-123698000D03*
X152146000Y-123190000D03*
X144018000Y-91186000D03*
X144526000Y-99314000D03*
X144526000Y-105918000D03*
X145796000Y-114046000D03*
X161290000Y-122936000D03*
X161290000Y-118364000D03*
X118618000Y-96266000D03*
D25*
X124426741Y-116840000D02*
X119380000Y-116840000D01*
X119380000Y-116840000D02*
X118110000Y-115570000D01*
X134132000Y-126545259D02*
X124426741Y-116840000D01*
X118110000Y-115570000D02*
X118110000Y-110744000D01*
X134132000Y-128808000D02*
X134132000Y-126545259D01*
X117602000Y-91186000D02*
X117602000Y-94234000D01*
X122199000Y-88138000D02*
X120650000Y-88138000D01*
X124953000Y-85384000D02*
X122199000Y-88138000D01*
X120650000Y-88138000D02*
X117602000Y-91186000D01*
X122936000Y-120650000D02*
X120142000Y-117856000D01*
X120142000Y-117856000D02*
X118872000Y-117856000D01*
X116840000Y-115824000D02*
X116840000Y-108712000D01*
X118872000Y-117856000D02*
X116840000Y-115824000D01*
D26*
X143718000Y-81650000D02*
X144668000Y-81650000D01*
X144018000Y-67056000D02*
X145469500Y-65604500D01*
X143718000Y-82250000D02*
X143318000Y-82250000D01*
X144018000Y-80300005D02*
X144018000Y-67056000D01*
X144018000Y-80750000D02*
X144018000Y-80300005D01*
X144668000Y-81050000D02*
X144318000Y-81050000D01*
X143318000Y-81650000D02*
X143718000Y-81650000D01*
X144018000Y-91186000D02*
X144018000Y-82550000D01*
X143718000Y-82250000D02*
G75*
G02*
X144018000Y-82550000I0J-300000D01*
G01*
X144668000Y-81050000D02*
G75*
G02*
X144968000Y-81350000I0J-300000D01*
G01*
X143318000Y-81650000D02*
G75*
G03*
X143018000Y-81950000I0J-300000D01*
G01*
X143018000Y-81950000D02*
G75*
G03*
X143318000Y-82250000I300000J0D01*
G01*
X144968000Y-81350000D02*
G75*
G02*
X144668000Y-81650000I-300000J0D01*
G01*
X144018000Y-80750000D02*
G75*
G03*
X144318000Y-81050000I300000J0D01*
G01*
X145469500Y-70684500D02*
X145469500Y-98370500D01*
X145469500Y-98370500D02*
X144526000Y-99314000D01*
X144526000Y-118799500D02*
X142675500Y-120650000D01*
X144526000Y-105918000D02*
X144526000Y-118799500D01*
X145346000Y-115962000D02*
X145496000Y-115962000D01*
X145796000Y-117162000D02*
X146496000Y-117162000D01*
X145796000Y-118690500D02*
X147755500Y-120650000D01*
X145496000Y-115962000D02*
X146496000Y-115962000D01*
X146496000Y-116562000D02*
X145796000Y-116562000D01*
X146496000Y-117762000D02*
X146096000Y-117762000D01*
X145796000Y-116562000D02*
X145346000Y-116562000D01*
X145796000Y-118062000D02*
X145796000Y-118690500D01*
X145346000Y-117162000D02*
X145796000Y-117162000D01*
X145796000Y-114046000D02*
X145796000Y-115062000D01*
X145496000Y-115362000D02*
X145346000Y-115362000D01*
X145046000Y-115662000D02*
G75*
G02*
X145346000Y-115362000I300000J0D01*
G01*
X145046000Y-116862000D02*
G75*
G02*
X145346000Y-116562000I300000J0D01*
G01*
X145346000Y-117162000D02*
G75*
G02*
X145046000Y-116862000I0J300000D01*
G01*
X146796000Y-116262000D02*
G75*
G03*
X146496000Y-115962000I-300000J0D01*
G01*
X145496000Y-115362000D02*
G75*
G03*
X145796000Y-115062000I0J300000D01*
G01*
X146496000Y-117762000D02*
G75*
G03*
X146796000Y-117462000I0J300000D01*
G01*
X145796000Y-118062000D02*
G75*
G02*
X146096000Y-117762000I300000J0D01*
G01*
X145346000Y-115962000D02*
G75*
G02*
X145046000Y-115662000I0J300000D01*
G01*
X146796000Y-117462000D02*
G75*
G03*
X146496000Y-117162000I-300000J0D01*
G01*
X146496000Y-116562000D02*
G75*
G03*
X146796000Y-116262000I0J300000D01*
G01*
D25*
X154432000Y-128778000D02*
X152882000Y-127228000D01*
X145542000Y-130810000D02*
X142675500Y-130810000D01*
X149124000Y-127228000D02*
X145542000Y-130810000D01*
X152882000Y-127228000D02*
X149124000Y-127228000D01*
D27*
X120670000Y-77256000D02*
X120239390Y-77256000D01*
D26*
X163255500Y-122936000D02*
X161290000Y-122936000D01*
X165257500Y-120934000D02*
X163255500Y-122936000D01*
X165257500Y-118394000D02*
X161320000Y-118394000D01*
X161320000Y-118394000D02*
X161290000Y-118364000D01*
D27*
X155084000Y-86524000D02*
X155084000Y-86124000D01*
X164107500Y-85824000D02*
X155984000Y-85824000D01*
X167347500Y-85824000D02*
X166407500Y-85824000D01*
X154734000Y-85824000D02*
X153577800Y-85824000D01*
X154784000Y-85824000D02*
X154734000Y-85824000D01*
X155684000Y-86124000D02*
X155684000Y-86524000D01*
X166407500Y-86524000D02*
X164107500Y-86524000D01*
X166407500Y-85824000D02*
X166407500Y-86524000D01*
X148009500Y-80255700D02*
X148009500Y-70684500D01*
X167797500Y-85374000D02*
X167347500Y-85824000D01*
X153577800Y-85824000D02*
X148009500Y-80255700D01*
X164107500Y-86524000D02*
X164107500Y-85824000D01*
X155084000Y-86524000D02*
G75*
G03*
X155384000Y-86824000I300000J0D01*
G01*
X155684000Y-86124000D02*
G75*
G02*
X155984000Y-85824000I300000J0D01*
G01*
X155384000Y-86824000D02*
G75*
G03*
X155684000Y-86524000I0J300000D01*
G01*
X154784000Y-85824000D02*
G75*
G02*
X155084000Y-86124000I0J-300000D01*
G01*
X149059500Y-71119425D02*
X148459500Y-71719425D01*
X148459500Y-69649575D02*
X149059500Y-70249575D01*
X149059500Y-70249575D02*
X149059500Y-71119425D01*
X153764200Y-85374000D02*
X165257500Y-85374000D01*
X148459500Y-80069300D02*
X153764200Y-85374000D01*
X148009500Y-65604500D02*
X148459500Y-66054500D01*
X148459500Y-71719425D02*
X148459500Y-80069300D01*
X148459500Y-66054500D02*
X148459500Y-69649575D01*
X156178363Y-114640529D02*
X156107652Y-114711239D01*
X156107651Y-115418346D02*
X156107652Y-115418346D01*
X157132957Y-114393040D02*
X157627933Y-114888017D01*
X157026893Y-113791999D02*
X157026892Y-113792000D01*
X156107652Y-115418346D02*
X148336000Y-123190000D01*
X161290000Y-110236000D02*
X157734000Y-113792000D01*
X157203669Y-115312281D02*
X156708695Y-114817307D01*
X164931154Y-89154000D02*
X163547000Y-90538154D01*
X163547000Y-108013575D02*
X163512425Y-108013575D01*
X163547000Y-90538154D02*
X163547000Y-108013575D01*
X166557500Y-89154000D02*
X164931154Y-89154000D01*
X163512425Y-108013575D02*
X161290000Y-110236000D01*
X157026892Y-113792000D02*
X156956181Y-113862710D01*
X156708695Y-114817307D02*
X156531917Y-114640529D01*
X148336000Y-123190000D02*
X147755500Y-123190000D01*
X167797500Y-87914000D02*
X166557500Y-89154000D01*
X156956181Y-114216264D02*
X157132957Y-114393040D01*
X157203670Y-115312280D02*
G75*
G03*
X157627932Y-115312280I212131J212131D01*
G01*
X157380446Y-113792000D02*
G75*
G03*
X157734000Y-113792000I176777J176778D01*
G01*
X156956168Y-114216277D02*
G75*
G02*
X156956181Y-113862710I176832J176777D01*
G01*
X156107681Y-115418376D02*
G75*
G03*
X156107651Y-115064794I-176781J176776D01*
G01*
X156107668Y-115064777D02*
G75*
G02*
X156107652Y-114711239I176732J176777D01*
G01*
X156178363Y-114640529D02*
G75*
G02*
X156531917Y-114640529I176777J-176778D01*
G01*
X157627884Y-115312232D02*
G75*
G03*
X157627933Y-114888017I-212084J212132D01*
G01*
X157026925Y-113792031D02*
G75*
G02*
X157380445Y-113792001I176775J-176769D01*
G01*
X163097000Y-107094800D02*
X163097000Y-90074500D01*
X163097000Y-90074500D02*
X165257500Y-87914000D01*
X144165500Y-121700000D02*
X148491800Y-121700000D01*
X142675500Y-123190000D02*
X144165500Y-121700000D01*
X148491800Y-121700000D02*
X163097000Y-107094800D01*
D26*
X165257500Y-95534000D02*
X166457500Y-96734000D01*
X166457500Y-122007500D02*
X167386000Y-122936000D01*
X160381866Y-138684000D02*
X154940000Y-138684000D01*
X167386000Y-131679866D02*
X160381866Y-138684000D01*
X166457500Y-96734000D02*
X166457500Y-122007500D01*
X167386000Y-122936000D02*
X167386000Y-131679866D01*
D25*
X134132000Y-77256000D02*
X134132000Y-79518741D01*
X124496741Y-89154000D02*
X121158000Y-89154000D01*
X121158000Y-89154000D02*
X118618000Y-91694000D01*
X124968000Y-88682741D02*
X124496741Y-89154000D01*
X118618000Y-91694000D02*
X118618000Y-96266000D01*
X124968000Y-88682741D02*
X124968000Y-88900000D01*
X134132000Y-79518741D02*
X124968000Y-88682741D01*
%TA.AperFunction,Conductor*%
G36*
X163730722Y-109455786D02*
G01*
X163787558Y-109498333D01*
X163812369Y-109564853D01*
X163797278Y-109634227D01*
X163785640Y-109651848D01*
X163723078Y-109731208D01*
X163591455Y-109957813D01*
X163493074Y-110200703D01*
X163429899Y-110455032D01*
X163403188Y-110715726D01*
X163413477Y-110977582D01*
X163460558Y-111235376D01*
X163543494Y-111483965D01*
X163660628Y-111718387D01*
X163809624Y-111933967D01*
X163833355Y-111959638D01*
X163864906Y-112023237D01*
X163857065Y-112093800D01*
X163839779Y-112123171D01*
X163725838Y-112267705D01*
X163725828Y-112267719D01*
X163723078Y-112271208D01*
X163591455Y-112497813D01*
X163493074Y-112740703D01*
X163429899Y-112995032D01*
X163403188Y-113255726D01*
X163413477Y-113517582D01*
X163460558Y-113775376D01*
X163543494Y-114023965D01*
X163556185Y-114049364D01*
X163642330Y-114221766D01*
X163660628Y-114258387D01*
X163809624Y-114473967D01*
X163833355Y-114499638D01*
X163864906Y-114563237D01*
X163857065Y-114633800D01*
X163839779Y-114663171D01*
X163725838Y-114807705D01*
X163725828Y-114807719D01*
X163723078Y-114811208D01*
X163720846Y-114815050D01*
X163720843Y-114815055D01*
X163633400Y-114965599D01*
X163591455Y-115037813D01*
X163493074Y-115280703D01*
X163429899Y-115535032D01*
X163403188Y-115795726D01*
X163413477Y-116057582D01*
X163460558Y-116315376D01*
X163543494Y-116563965D01*
X163545487Y-116567953D01*
X163617271Y-116711615D01*
X163660628Y-116798387D01*
X163663157Y-116802046D01*
X163804843Y-117007049D01*
X163809624Y-117013967D01*
X163826268Y-117031972D01*
X163857820Y-117095570D01*
X163849979Y-117166132D01*
X163805235Y-117221254D01*
X163733743Y-117243500D01*
X162174752Y-117243500D01*
X162106631Y-117223498D01*
X162096660Y-117216382D01*
X162071735Y-117196697D01*
X162071730Y-117196694D01*
X162067681Y-117193496D01*
X162063165Y-117191003D01*
X162063162Y-117191001D01*
X161870589Y-117084695D01*
X161870585Y-117084693D01*
X161866065Y-117082198D01*
X161861196Y-117080474D01*
X161861192Y-117080472D01*
X161653853Y-117007049D01*
X161653849Y-117007048D01*
X161648978Y-117005323D01*
X161643885Y-117004416D01*
X161643882Y-117004415D01*
X161547707Y-116987284D01*
X161422250Y-116964937D01*
X161335802Y-116963881D01*
X161197141Y-116962186D01*
X161197139Y-116962186D01*
X161191971Y-116962123D01*
X160964325Y-116996958D01*
X160745424Y-117068506D01*
X160541149Y-117174845D01*
X160356984Y-117313119D01*
X160197877Y-117479616D01*
X160194963Y-117483888D01*
X160194962Y-117483889D01*
X160105281Y-117615356D01*
X160068099Y-117669863D01*
X160065923Y-117674552D01*
X160065919Y-117674558D01*
X159973315Y-117874057D01*
X159971136Y-117878752D01*
X159909592Y-118100673D01*
X159885119Y-118329665D01*
X159898376Y-118559580D01*
X159899513Y-118564626D01*
X159899514Y-118564632D01*
X159914176Y-118629692D01*
X159949006Y-118784242D01*
X159950948Y-118789024D01*
X159950949Y-118789028D01*
X160015953Y-118949112D01*
X160035649Y-118997618D01*
X160050844Y-119022414D01*
X160143042Y-119172866D01*
X160155979Y-119193978D01*
X160306763Y-119368048D01*
X160483953Y-119515154D01*
X160682790Y-119631345D01*
X160897934Y-119713501D01*
X160903000Y-119714532D01*
X160903001Y-119714532D01*
X161003697Y-119735018D01*
X161123607Y-119759414D01*
X161253352Y-119764172D01*
X161348585Y-119767664D01*
X161348589Y-119767664D01*
X161353749Y-119767853D01*
X161358869Y-119767197D01*
X161358871Y-119767197D01*
X161428272Y-119758307D01*
X161582178Y-119738591D01*
X161587126Y-119737106D01*
X161587133Y-119737105D01*
X161797811Y-119673898D01*
X161797810Y-119673898D01*
X161802761Y-119672413D01*
X161913509Y-119618158D01*
X162004923Y-119573375D01*
X162004928Y-119573372D01*
X162009574Y-119571096D01*
X162013809Y-119568075D01*
X162014027Y-119567920D01*
X162014127Y-119567888D01*
X162018227Y-119565444D01*
X162018793Y-119566394D01*
X162087193Y-119544500D01*
X163736625Y-119544500D01*
X163804746Y-119564502D01*
X163851239Y-119618158D01*
X163861343Y-119688432D01*
X163835575Y-119748505D01*
X163795907Y-119798825D01*
X163753151Y-119853061D01*
X163723078Y-119891208D01*
X163720846Y-119895050D01*
X163720843Y-119895055D01*
X163717169Y-119901381D01*
X163591455Y-120117813D01*
X163589790Y-120121925D01*
X163589787Y-120121930D01*
X163499363Y-120345177D01*
X163493074Y-120360703D01*
X163429899Y-120615032D01*
X163403188Y-120875726D01*
X163403363Y-120880178D01*
X163411819Y-121095395D01*
X163394507Y-121164249D01*
X163375011Y-121189437D01*
X162815853Y-121748595D01*
X162753541Y-121782621D01*
X162726758Y-121785500D01*
X162135066Y-121785500D01*
X162067843Y-121765203D01*
X162067681Y-121765496D01*
X162066312Y-121764740D01*
X162066311Y-121764740D01*
X162063158Y-121762999D01*
X161870589Y-121656695D01*
X161870585Y-121656693D01*
X161866065Y-121654198D01*
X161861196Y-121652474D01*
X161861192Y-121652472D01*
X161653853Y-121579049D01*
X161653849Y-121579048D01*
X161648978Y-121577323D01*
X161643885Y-121576416D01*
X161643882Y-121576415D01*
X161529629Y-121556064D01*
X161422250Y-121536937D01*
X161335802Y-121535881D01*
X161197141Y-121534186D01*
X161197139Y-121534186D01*
X161191971Y-121534123D01*
X160964325Y-121568958D01*
X160745424Y-121640506D01*
X160541149Y-121746845D01*
X160356984Y-121885119D01*
X160197877Y-122051616D01*
X160194963Y-122055888D01*
X160194962Y-122055889D01*
X160161681Y-122104677D01*
X160068099Y-122241863D01*
X160065923Y-122246552D01*
X160065919Y-122246558D01*
X159983322Y-122424499D01*
X159971136Y-122450752D01*
X159909592Y-122672673D01*
X159909043Y-122677810D01*
X159891684Y-122840240D01*
X159885119Y-122901665D01*
X159885416Y-122906817D01*
X159885416Y-122906821D01*
X159889686Y-122980873D01*
X159898376Y-123131580D01*
X159899513Y-123136626D01*
X159899514Y-123136632D01*
X159930592Y-123274531D01*
X159949006Y-123356242D01*
X159950948Y-123361024D01*
X159950949Y-123361028D01*
X160023611Y-123539972D01*
X160035649Y-123569618D01*
X160155979Y-123765978D01*
X160306763Y-123940048D01*
X160483953Y-124087154D01*
X160682790Y-124203345D01*
X160897934Y-124285501D01*
X160903000Y-124286532D01*
X160903001Y-124286532D01*
X161003697Y-124307018D01*
X161123607Y-124331414D01*
X161253352Y-124336172D01*
X161348585Y-124339664D01*
X161348589Y-124339664D01*
X161353749Y-124339853D01*
X161358869Y-124339197D01*
X161358871Y-124339197D01*
X161428272Y-124330307D01*
X161582178Y-124310591D01*
X161587126Y-124309106D01*
X161587133Y-124309105D01*
X161774882Y-124252777D01*
X161802761Y-124244413D01*
X162009574Y-124143096D01*
X162056084Y-124109921D01*
X162129252Y-124086500D01*
X163212463Y-124086500D01*
X163220703Y-124086770D01*
X163285746Y-124091033D01*
X163374191Y-124080564D01*
X163377450Y-124080223D01*
X163397273Y-124078401D01*
X163460306Y-124072610D01*
X163460309Y-124072609D01*
X163466060Y-124072081D01*
X163471622Y-124070512D01*
X163474661Y-124069949D01*
X163486981Y-124067499D01*
X163489994Y-124066858D01*
X163495727Y-124066180D01*
X163501244Y-124064467D01*
X163501248Y-124064466D01*
X163580701Y-124039795D01*
X163583864Y-124038858D01*
X163664007Y-124016256D01*
X163664021Y-124016251D01*
X163669569Y-124014686D01*
X163674744Y-124012134D01*
X163677633Y-124011025D01*
X163689252Y-124006389D01*
X163692146Y-124005190D01*
X163697663Y-124003477D01*
X163776436Y-123962033D01*
X163779367Y-123960539D01*
X163854024Y-123923723D01*
X163854029Y-123923720D01*
X163859210Y-123921165D01*
X163863841Y-123917707D01*
X163866535Y-123916056D01*
X163877118Y-123909379D01*
X163879691Y-123907708D01*
X163884792Y-123905024D01*
X163954715Y-123849902D01*
X163957317Y-123847905D01*
X164024009Y-123798104D01*
X164024010Y-123798103D01*
X164028633Y-123794651D01*
X164084811Y-123733878D01*
X164088240Y-123730313D01*
X165002852Y-122815701D01*
X165065164Y-122781675D01*
X165106756Y-122779669D01*
X165170107Y-122787167D01*
X165432092Y-122780993D01*
X165512845Y-122767552D01*
X165583325Y-122776098D01*
X165619061Y-122799317D01*
X165659621Y-122836810D01*
X165663187Y-122840240D01*
X166198595Y-123375648D01*
X166232621Y-123437960D01*
X166235500Y-123464743D01*
X166235500Y-131151123D01*
X166215498Y-131219244D01*
X166198595Y-131240218D01*
X159942219Y-137496595D01*
X159879907Y-137530621D01*
X159853124Y-137533500D01*
X155981154Y-137533500D01*
X155913033Y-137513498D01*
X155879803Y-137482360D01*
X155864190Y-137461221D01*
X155817491Y-137413782D01*
X155680747Y-137274874D01*
X155677616Y-137271693D01*
X155674076Y-137268992D01*
X155674070Y-137268986D01*
X155469740Y-137113046D01*
X155469736Y-137113043D01*
X155466199Y-137110344D01*
X155234156Y-136980394D01*
X154986118Y-136884436D01*
X154981793Y-136883433D01*
X154981788Y-136883432D01*
X154878116Y-136859402D01*
X154727034Y-136824383D01*
X154462074Y-136801435D01*
X154457639Y-136801679D01*
X154457635Y-136801679D01*
X154349748Y-136807617D01*
X154196523Y-136816049D01*
X153935681Y-136867934D01*
X153769162Y-136926411D01*
X153688959Y-136954576D01*
X153688956Y-136954577D01*
X153684751Y-136956054D01*
X153680798Y-136958107D01*
X153680792Y-136958110D01*
X153547788Y-137027201D01*
X153448741Y-137078652D01*
X153445126Y-137081235D01*
X153445120Y-137081239D01*
X153404392Y-137110344D01*
X153232360Y-137233280D01*
X153039925Y-137416854D01*
X152875275Y-137625711D01*
X152873038Y-137629563D01*
X152743930Y-137851837D01*
X152743927Y-137851843D01*
X152741696Y-137855684D01*
X152641854Y-138102184D01*
X152577739Y-138360292D01*
X152550632Y-138624860D01*
X152561073Y-138890607D01*
X152608855Y-139152233D01*
X152610259Y-139156442D01*
X152610261Y-139156449D01*
X152691611Y-139400286D01*
X152693022Y-139404515D01*
X152695014Y-139408502D01*
X152695015Y-139408504D01*
X152730780Y-139480080D01*
X152811897Y-139642422D01*
X152963108Y-139861205D01*
X153002063Y-139903346D01*
X153140621Y-140053238D01*
X153140626Y-140053243D01*
X153143637Y-140056500D01*
X153349882Y-140224410D01*
X153353699Y-140226708D01*
X153573912Y-140359287D01*
X153573916Y-140359289D01*
X153577728Y-140361584D01*
X153714990Y-140419707D01*
X153818526Y-140463550D01*
X153818531Y-140463552D01*
X153822629Y-140465287D01*
X153826926Y-140466426D01*
X153826931Y-140466428D01*
X153951164Y-140499367D01*
X154079699Y-140533447D01*
X154343808Y-140564707D01*
X154609687Y-140558441D01*
X154614085Y-140557709D01*
X154867640Y-140515506D01*
X154867644Y-140515505D01*
X154872030Y-140514775D01*
X154876271Y-140513434D01*
X154876274Y-140513433D01*
X155121358Y-140435923D01*
X155121360Y-140435922D01*
X155125604Y-140434580D01*
X155129615Y-140432654D01*
X155129620Y-140432652D01*
X155361329Y-140321387D01*
X155361330Y-140321386D01*
X155365348Y-140319457D01*
X155476534Y-140245165D01*
X155582772Y-140174179D01*
X155582776Y-140174176D01*
X155586480Y-140171701D01*
X155589797Y-140168730D01*
X155589801Y-140168727D01*
X155781268Y-139997235D01*
X155781269Y-139997234D01*
X155784586Y-139994263D01*
X155881119Y-139879423D01*
X155940262Y-139840150D01*
X155977569Y-139834500D01*
X160338829Y-139834500D01*
X160347069Y-139834770D01*
X160412112Y-139839033D01*
X160500557Y-139828564D01*
X160503816Y-139828223D01*
X160523639Y-139826401D01*
X160586672Y-139820610D01*
X160586675Y-139820609D01*
X160592426Y-139820081D01*
X160597988Y-139818512D01*
X160601027Y-139817949D01*
X160613347Y-139815499D01*
X160616360Y-139814858D01*
X160622093Y-139814180D01*
X160627610Y-139812467D01*
X160627614Y-139812466D01*
X160707067Y-139787795D01*
X160710230Y-139786858D01*
X160790373Y-139764256D01*
X160790387Y-139764251D01*
X160795935Y-139762686D01*
X160801110Y-139760134D01*
X160803999Y-139759025D01*
X160815618Y-139754389D01*
X160818512Y-139753190D01*
X160824029Y-139751477D01*
X160902802Y-139710033D01*
X160905733Y-139708539D01*
X160980390Y-139671723D01*
X160980395Y-139671720D01*
X160985576Y-139669165D01*
X160990207Y-139665707D01*
X160992901Y-139664056D01*
X161003484Y-139657379D01*
X161006057Y-139655708D01*
X161011158Y-139653024D01*
X161081081Y-139597902D01*
X161083683Y-139595905D01*
X161150375Y-139546104D01*
X161150376Y-139546103D01*
X161154999Y-139542651D01*
X161211177Y-139481878D01*
X161214606Y-139478313D01*
X168169087Y-132523832D01*
X168175105Y-132518195D01*
X168201659Y-132494908D01*
X168224119Y-132475211D01*
X168227693Y-132470678D01*
X168227701Y-132470669D01*
X168279232Y-132405301D01*
X168281308Y-132402737D01*
X168334521Y-132338755D01*
X168334524Y-132338751D01*
X168338219Y-132334308D01*
X168341043Y-132329266D01*
X168342844Y-132326645D01*
X168349729Y-132316341D01*
X168351448Y-132313695D01*
X168355024Y-132309158D01*
X168357715Y-132304044D01*
X168396465Y-132230393D01*
X168398038Y-132227495D01*
X168438715Y-132154860D01*
X168441537Y-132149821D01*
X168443394Y-132144349D01*
X168444681Y-132141459D01*
X168451029Y-132126683D01*
X168453476Y-132122032D01*
X168455605Y-132123152D01*
X168493649Y-132075950D01*
X168561014Y-132053536D01*
X168629804Y-132071100D01*
X168678178Y-132123066D01*
X168691500Y-132179456D01*
X168691500Y-141651500D01*
X168671498Y-141719621D01*
X168617842Y-141766114D01*
X168565500Y-141777500D01*
X141604000Y-141777500D01*
X141535879Y-141757498D01*
X141489386Y-141703842D01*
X141478000Y-141651500D01*
X141478000Y-132351324D01*
X141498002Y-132283203D01*
X141551658Y-132236710D01*
X141621932Y-132226606D01*
X141678504Y-132249712D01*
X141745275Y-132298670D01*
X141749410Y-132300846D01*
X141749414Y-132300848D01*
X141875274Y-132367066D01*
X141975533Y-132419815D01*
X142113299Y-132467925D01*
X142186567Y-132493511D01*
X142221167Y-132505594D01*
X142225760Y-132506466D01*
X142472193Y-132553253D01*
X142472196Y-132553253D01*
X142476782Y-132554124D01*
X142606773Y-132559232D01*
X142732095Y-132564156D01*
X142732101Y-132564156D01*
X142736763Y-132564339D01*
X142837989Y-132553253D01*
X142990745Y-132536524D01*
X142990750Y-132536523D01*
X142995398Y-132536014D01*
X142999922Y-132534823D01*
X143242482Y-132470962D01*
X143242484Y-132470961D01*
X143247005Y-132469771D01*
X143408119Y-132400551D01*
X143481763Y-132368911D01*
X143481765Y-132368910D01*
X143486057Y-132367066D01*
X143675699Y-132249712D01*
X143703320Y-132232620D01*
X143703322Y-132232618D01*
X143707303Y-132230155D01*
X143829530Y-132126683D01*
X143872468Y-132090333D01*
X143937383Y-132061584D01*
X143953879Y-132060500D01*
X145451138Y-132060500D01*
X145467585Y-132061578D01*
X145483853Y-132063720D01*
X145483855Y-132063720D01*
X145489422Y-132064453D01*
X145570270Y-132060640D01*
X145576207Y-132060500D01*
X145598630Y-132060500D01*
X145617517Y-132058815D01*
X145624452Y-132058196D01*
X145629713Y-132057837D01*
X145630499Y-132057800D01*
X145712398Y-132053937D01*
X145717861Y-132052686D01*
X145717867Y-132052685D01*
X145729711Y-132049972D01*
X145746645Y-132047290D01*
X145764339Y-132045711D01*
X145769755Y-132044229D01*
X145769757Y-132044229D01*
X145844181Y-132023869D01*
X145849299Y-132022583D01*
X145924521Y-132005355D01*
X145924522Y-132005355D01*
X145929987Y-132004103D01*
X145935141Y-132001905D01*
X145935152Y-132001901D01*
X145946326Y-131997134D01*
X145962517Y-131991495D01*
X145974233Y-131988290D01*
X145974232Y-131988290D01*
X145979651Y-131986808D01*
X146050897Y-131952825D01*
X146120993Y-131941551D01*
X146186056Y-131969964D01*
X146208607Y-131994640D01*
X146275116Y-132090333D01*
X146292397Y-132115197D01*
X146450303Y-132273103D01*
X146454909Y-132276304D01*
X146454911Y-132276306D01*
X146588152Y-132368911D01*
X146633676Y-132400551D01*
X146675753Y-132419815D01*
X146831615Y-132491174D01*
X146831617Y-132491175D01*
X146836720Y-132493511D01*
X146842161Y-132494908D01*
X147047812Y-132547711D01*
X147047814Y-132547711D01*
X147053016Y-132549047D01*
X147129911Y-132555301D01*
X147191276Y-132560293D01*
X147191286Y-132560293D01*
X147193826Y-132560500D01*
X148317174Y-132560500D01*
X148319714Y-132560293D01*
X148319724Y-132560293D01*
X148381089Y-132555301D01*
X148457984Y-132549047D01*
X148463186Y-132547711D01*
X148463188Y-132547711D01*
X148668839Y-132494908D01*
X148674280Y-132493511D01*
X148679383Y-132491175D01*
X148679385Y-132491174D01*
X148835247Y-132419815D01*
X148877324Y-132400551D01*
X148922848Y-132368911D01*
X149056089Y-132276306D01*
X149056091Y-132276304D01*
X149060697Y-132273103D01*
X149218603Y-132115197D01*
X149245881Y-132075950D01*
X149342850Y-131936430D01*
X149342851Y-131936428D01*
X149346051Y-131931824D01*
X149439011Y-131728780D01*
X149494547Y-131512484D01*
X149506000Y-131371674D01*
X149506000Y-130248326D01*
X149505757Y-130245332D01*
X149494982Y-130112870D01*
X149494547Y-130107516D01*
X149439011Y-129891220D01*
X149346051Y-129688176D01*
X149342850Y-129683570D01*
X149221806Y-129509411D01*
X149221804Y-129509409D01*
X149218603Y-129504803D01*
X149060697Y-129346897D01*
X149015049Y-129315171D01*
X148970527Y-129259869D01*
X148962972Y-129189276D01*
X148997864Y-129122611D01*
X149305570Y-128814905D01*
X149367882Y-128780879D01*
X149394665Y-128778000D01*
X149860000Y-128778000D01*
X149860000Y-128604500D01*
X149880002Y-128536379D01*
X149933658Y-128489886D01*
X149986000Y-128478500D01*
X152205500Y-128478500D01*
X152273621Y-128498502D01*
X152320114Y-128552158D01*
X152331500Y-128604500D01*
X152331500Y-129935816D01*
X152342234Y-130056087D01*
X152398259Y-130251470D01*
X152492427Y-130431596D01*
X152620891Y-130589109D01*
X152778404Y-130717573D01*
X152958530Y-130811741D01*
X153153913Y-130867766D01*
X153185545Y-130870589D01*
X153271391Y-130878251D01*
X153271397Y-130878251D01*
X153274184Y-130878500D01*
X155589816Y-130878500D01*
X155592603Y-130878251D01*
X155592609Y-130878251D01*
X155678455Y-130870589D01*
X155710087Y-130867766D01*
X155905470Y-130811741D01*
X156085596Y-130717573D01*
X156243109Y-130589109D01*
X156371573Y-130431596D01*
X156465741Y-130251470D01*
X156521766Y-130056087D01*
X156532500Y-129935816D01*
X156532500Y-127620184D01*
X156521766Y-127499913D01*
X156465741Y-127304530D01*
X156371573Y-127124404D01*
X156243109Y-126966891D01*
X156085596Y-126838427D01*
X156008575Y-126798161D01*
X155957474Y-126748876D01*
X155941130Y-126679786D01*
X155964734Y-126612828D01*
X156020790Y-126569260D01*
X156066951Y-126560500D01*
X158328050Y-126560500D01*
X158330837Y-126560251D01*
X158330843Y-126560251D01*
X158416689Y-126552589D01*
X158448321Y-126549766D01*
X158643704Y-126493741D01*
X158823830Y-126399573D01*
X158981343Y-126271109D01*
X159109807Y-126113596D01*
X159203975Y-125933470D01*
X159260000Y-125738087D01*
X159270734Y-125617816D01*
X159270734Y-123302184D01*
X159260000Y-123181913D01*
X159203975Y-122986530D01*
X159114676Y-122815718D01*
X159112763Y-122812058D01*
X159112762Y-122812057D01*
X159109807Y-122806404D01*
X159089083Y-122780993D01*
X158985372Y-122653831D01*
X158981343Y-122648891D01*
X158869414Y-122557604D01*
X158828774Y-122524459D01*
X158828773Y-122524458D01*
X158823830Y-122520427D01*
X158643704Y-122426259D01*
X158448321Y-122370234D01*
X158416689Y-122367411D01*
X158330843Y-122359749D01*
X158330837Y-122359749D01*
X158328050Y-122359500D01*
X157395161Y-122359500D01*
X157327040Y-122339498D01*
X157280547Y-122285842D01*
X157270443Y-122215568D01*
X157299937Y-122150988D01*
X157341911Y-122119305D01*
X157349261Y-122115878D01*
X157376917Y-122102982D01*
X157469378Y-122059867D01*
X157469382Y-122059865D01*
X157473960Y-122057730D01*
X157478142Y-122054888D01*
X157672807Y-121922594D01*
X157672811Y-121922591D01*
X157676994Y-121919748D01*
X157855356Y-121751080D01*
X157860421Y-121744455D01*
X158001383Y-121560084D01*
X158001386Y-121560080D01*
X158004456Y-121556064D01*
X158014226Y-121537844D01*
X158118067Y-121344180D01*
X158120459Y-121339719D01*
X158163492Y-121214745D01*
X158198732Y-121112400D01*
X158200381Y-121107611D01*
X158240434Y-120875726D01*
X158241489Y-120869620D01*
X158241490Y-120869614D01*
X158242164Y-120865710D01*
X158243500Y-120836290D01*
X158243500Y-120215314D01*
X158237303Y-120138290D01*
X158229182Y-120037349D01*
X158229181Y-120037344D01*
X158228776Y-120032308D01*
X158194119Y-119891208D01*
X158171427Y-119798825D01*
X158170220Y-119793911D01*
X158146108Y-119737105D01*
X158076278Y-119572598D01*
X158076278Y-119572597D01*
X158074302Y-119567943D01*
X157943490Y-119360217D01*
X157852793Y-119257341D01*
X157784497Y-119179874D01*
X157784494Y-119179871D01*
X157781149Y-119176077D01*
X157706410Y-119114686D01*
X157595362Y-119023470D01*
X157595359Y-119023468D01*
X157591456Y-119020262D01*
X157379291Y-118896779D01*
X157150113Y-118808805D01*
X157145167Y-118807772D01*
X157145161Y-118807770D01*
X156914772Y-118759640D01*
X156914773Y-118759640D01*
X156909818Y-118758605D01*
X156904769Y-118758376D01*
X156904763Y-118758375D01*
X156792846Y-118753293D01*
X156664588Y-118747469D01*
X156659568Y-118748050D01*
X156659564Y-118748050D01*
X156425762Y-118775102D01*
X156420732Y-118775684D01*
X156415861Y-118777062D01*
X156415858Y-118777063D01*
X156307343Y-118807770D01*
X156184523Y-118842525D01*
X156135211Y-118865519D01*
X156065021Y-118876180D01*
X156036808Y-118868955D01*
X155884833Y-118810617D01*
X155884835Y-118810617D01*
X155880113Y-118808805D01*
X155875167Y-118807772D01*
X155875161Y-118807770D01*
X155644772Y-118759640D01*
X155644773Y-118759640D01*
X155639818Y-118758605D01*
X155634769Y-118758376D01*
X155634763Y-118758375D01*
X155522846Y-118753293D01*
X155394588Y-118747469D01*
X155389568Y-118748050D01*
X155389564Y-118748050D01*
X155155762Y-118775102D01*
X155150732Y-118775684D01*
X155145861Y-118777062D01*
X155145858Y-118777063D01*
X155037456Y-118807738D01*
X154914523Y-118842525D01*
X154803282Y-118894397D01*
X154696622Y-118944133D01*
X154696618Y-118944135D01*
X154692040Y-118946270D01*
X154687859Y-118949112D01*
X154687858Y-118949112D01*
X154493193Y-119081406D01*
X154493189Y-119081409D01*
X154489006Y-119084252D01*
X154310644Y-119252920D01*
X154307566Y-119256946D01*
X154307565Y-119256947D01*
X154164617Y-119443916D01*
X154164614Y-119443920D01*
X154161544Y-119447936D01*
X154045541Y-119664281D01*
X154043895Y-119669062D01*
X154043893Y-119669066D01*
X154000905Y-119793911D01*
X153965619Y-119896389D01*
X153964757Y-119901381D01*
X153926662Y-120121930D01*
X153923836Y-120138290D01*
X153922500Y-120167710D01*
X153922500Y-120788686D01*
X153922702Y-120791194D01*
X153922702Y-120791199D01*
X153929012Y-120869620D01*
X153937224Y-120971692D01*
X153938429Y-120976600D01*
X153938430Y-120976603D01*
X153980751Y-121148903D01*
X153995780Y-121210089D01*
X154091698Y-121436057D01*
X154222510Y-121643783D01*
X154260726Y-121687131D01*
X154329148Y-121764740D01*
X154384851Y-121827923D01*
X154388759Y-121831133D01*
X154388760Y-121831134D01*
X154570638Y-121980530D01*
X154570641Y-121980532D01*
X154574544Y-121983738D01*
X154786709Y-122107221D01*
X154791427Y-122109032D01*
X154791433Y-122109035D01*
X154810923Y-122116516D01*
X154867351Y-122159602D01*
X154891527Y-122226356D01*
X154875775Y-122295583D01*
X154825097Y-122345305D01*
X154765109Y-122360145D01*
X154703863Y-122359824D01*
X154502320Y-122358769D01*
X154502314Y-122358769D01*
X154498034Y-122358747D01*
X154493790Y-122359306D01*
X154493786Y-122359306D01*
X154410780Y-122370234D01*
X154214085Y-122396129D01*
X154209945Y-122397262D01*
X154209943Y-122397262D01*
X154133154Y-122418269D01*
X153937836Y-122471702D01*
X153933888Y-122473386D01*
X153678351Y-122582382D01*
X153678347Y-122582384D01*
X153674399Y-122584068D01*
X153428649Y-122731146D01*
X153425298Y-122733830D01*
X153425296Y-122733832D01*
X153327654Y-122812058D01*
X153205134Y-122910215D01*
X153007989Y-123117962D01*
X152840863Y-123350543D01*
X152706848Y-123603653D01*
X152608424Y-123872610D01*
X152547412Y-124152436D01*
X152524941Y-124437953D01*
X152541428Y-124723878D01*
X152542253Y-124728083D01*
X152542254Y-124728091D01*
X152574087Y-124890342D01*
X152596566Y-125004920D01*
X152689336Y-125275878D01*
X152818021Y-125531740D01*
X152820447Y-125535269D01*
X152820450Y-125535275D01*
X152877179Y-125617816D01*
X152980240Y-125767770D01*
X152983128Y-125770944D01*
X152984695Y-125772921D01*
X153011332Y-125838731D01*
X152998161Y-125908495D01*
X152949363Y-125960064D01*
X152887930Y-125977169D01*
X152870293Y-125977446D01*
X152867892Y-125977484D01*
X152865916Y-125977500D01*
X149986000Y-125977500D01*
X149917879Y-125957498D01*
X149871386Y-125903842D01*
X149860000Y-125851500D01*
X149860000Y-123274531D01*
X149880002Y-123206410D01*
X149896905Y-123185436D01*
X156684871Y-116397469D01*
X156747183Y-116363443D01*
X156822184Y-116370155D01*
X156977112Y-116434328D01*
X156981685Y-116436222D01*
X157055731Y-116453999D01*
X157191224Y-116486528D01*
X157191230Y-116486529D01*
X157196037Y-116487683D01*
X157415801Y-116504979D01*
X157635565Y-116487683D01*
X157640372Y-116486529D01*
X157640378Y-116486528D01*
X157775871Y-116453999D01*
X157849917Y-116436222D01*
X157854490Y-116434328D01*
X158049006Y-116353757D01*
X158049010Y-116353755D01*
X158053580Y-116351862D01*
X158106228Y-116319599D01*
X158237325Y-116239263D01*
X158237331Y-116239259D01*
X158241539Y-116236680D01*
X158245294Y-116233473D01*
X158245298Y-116233470D01*
X158322457Y-116167569D01*
X158328911Y-116162413D01*
X158365015Y-116135459D01*
X158367373Y-116133699D01*
X158367445Y-116133631D01*
X158367466Y-116133615D01*
X158390650Y-116111615D01*
X158390659Y-116111607D01*
X158407025Y-116096080D01*
X158407027Y-116096078D01*
X158409350Y-116093874D01*
X158409368Y-116093853D01*
X158409438Y-116093786D01*
X158411086Y-116091804D01*
X158411095Y-116091795D01*
X158431278Y-116067528D01*
X158432349Y-116066257D01*
X158462469Y-116030999D01*
X158552211Y-115925948D01*
X158554795Y-115921733D01*
X158554799Y-115921727D01*
X158664823Y-115742229D01*
X158667411Y-115738007D01*
X158751792Y-115534359D01*
X158803276Y-115320018D01*
X158806701Y-115276570D01*
X158820208Y-115105201D01*
X158820208Y-115105197D01*
X158820597Y-115100262D01*
X158803327Y-114880502D01*
X158751892Y-114666149D01*
X158685796Y-114506527D01*
X158678215Y-114435936D01*
X158713115Y-114369227D01*
X163597595Y-109484747D01*
X163659907Y-109450721D01*
X163730722Y-109455786D01*
G37*
%TD.AperFunction*%
%TA.AperFunction,Conductor*%
G36*
X150050073Y-83852615D02*
G01*
X152726383Y-86528925D01*
X152733315Y-86537135D01*
X152733551Y-86536931D01*
X152737466Y-86541467D01*
X152740937Y-86546360D01*
X152745268Y-86550506D01*
X152807430Y-86610013D01*
X152809394Y-86611936D01*
X152836730Y-86639272D01*
X152839039Y-86641179D01*
X152839049Y-86641188D01*
X152842374Y-86643934D01*
X152849267Y-86650064D01*
X152892631Y-86691575D01*
X152897665Y-86694825D01*
X152897667Y-86694827D01*
X152920527Y-86709587D01*
X152932411Y-86718285D01*
X152958010Y-86739425D01*
X153010701Y-86768213D01*
X153018594Y-86772908D01*
X153069046Y-86805485D01*
X153074614Y-86807729D01*
X153074616Y-86807730D01*
X153099844Y-86817897D01*
X153113157Y-86824190D01*
X153137033Y-86837235D01*
X153137036Y-86837236D01*
X153142294Y-86840109D01*
X153148002Y-86841936D01*
X153148004Y-86841937D01*
X153199452Y-86858405D01*
X153208139Y-86861541D01*
X153263819Y-86883981D01*
X153269705Y-86885131D01*
X153269707Y-86885131D01*
X153284241Y-86887969D01*
X153296415Y-86890347D01*
X153310667Y-86894005D01*
X153342294Y-86904129D01*
X153348242Y-86904844D01*
X153348249Y-86904845D01*
X153401886Y-86911289D01*
X153411006Y-86912725D01*
X153456584Y-86921625D01*
X153469922Y-86924230D01*
X153475443Y-86924500D01*
X153504320Y-86924500D01*
X153519348Y-86925399D01*
X153544842Y-86928462D01*
X153544848Y-86928462D01*
X153550790Y-86929176D01*
X153556766Y-86928753D01*
X153556769Y-86928753D01*
X153612384Y-86924815D01*
X153621283Y-86924500D01*
X153949811Y-86924500D01*
X154017932Y-86944502D01*
X154066220Y-87002282D01*
X154113284Y-87115904D01*
X154132286Y-87161780D01*
X154247468Y-87349739D01*
X154390634Y-87517366D01*
X154558261Y-87660532D01*
X154746220Y-87775714D01*
X154750790Y-87777607D01*
X154750794Y-87777609D01*
X154939386Y-87855726D01*
X154949883Y-87860074D01*
X155023441Y-87877734D01*
X155159423Y-87910380D01*
X155159429Y-87910381D01*
X155164236Y-87911535D01*
X155270447Y-87919894D01*
X155278632Y-87920810D01*
X155302772Y-87924309D01*
X155322481Y-87927167D01*
X155322483Y-87927167D01*
X155326158Y-87927700D01*
X155376183Y-87929010D01*
X155380296Y-87929118D01*
X155384000Y-87929215D01*
X155412274Y-87926617D01*
X155413880Y-87926480D01*
X155526333Y-87917629D01*
X155603764Y-87911535D01*
X155608571Y-87910381D01*
X155608577Y-87910380D01*
X155744559Y-87877734D01*
X155818117Y-87860074D01*
X155828614Y-87855726D01*
X156017206Y-87777609D01*
X156017210Y-87777607D01*
X156021780Y-87775714D01*
X156209739Y-87660532D01*
X156377366Y-87517366D01*
X156520532Y-87349739D01*
X156635714Y-87161780D01*
X156654717Y-87115904D01*
X156701780Y-87002282D01*
X156746328Y-86947001D01*
X156818189Y-86924500D01*
X162999042Y-86924500D01*
X163067163Y-86944502D01*
X163111056Y-86992804D01*
X163115394Y-87001226D01*
X163118081Y-87006771D01*
X163146657Y-87069622D01*
X163146661Y-87069630D01*
X163149140Y-87075081D01*
X163159648Y-87089895D01*
X163168890Y-87105095D01*
X163177205Y-87121239D01*
X163180911Y-87125957D01*
X163180913Y-87125960D01*
X163223541Y-87180228D01*
X163227224Y-87185161D01*
X163267165Y-87241466D01*
X163270637Y-87246360D01*
X163274965Y-87250503D01*
X163283756Y-87258919D01*
X163295709Y-87272102D01*
X163306924Y-87286379D01*
X163311454Y-87290310D01*
X163311455Y-87290311D01*
X163363590Y-87335551D01*
X163368141Y-87339699D01*
X163416514Y-87386006D01*
X163451890Y-87447561D01*
X163451667Y-87507399D01*
X163429899Y-87595032D01*
X163403188Y-87855726D01*
X163413477Y-88117582D01*
X163414276Y-88121956D01*
X163414277Y-88121967D01*
X163414593Y-88123695D01*
X163414532Y-88124273D01*
X163414766Y-88126392D01*
X163414303Y-88126443D01*
X163407151Y-88194301D01*
X163379737Y-88235421D01*
X162392075Y-89223083D01*
X162383865Y-89230015D01*
X162384069Y-89230251D01*
X162379533Y-89234166D01*
X162374640Y-89237637D01*
X162370494Y-89241968D01*
X162310987Y-89304130D01*
X162309064Y-89306094D01*
X162281728Y-89333430D01*
X162279821Y-89335739D01*
X162279812Y-89335749D01*
X162277066Y-89339074D01*
X162270936Y-89345967D01*
X162229425Y-89389331D01*
X162226175Y-89394365D01*
X162226173Y-89394367D01*
X162211413Y-89417227D01*
X162202715Y-89429111D01*
X162181575Y-89454710D01*
X162178702Y-89459969D01*
X162152793Y-89507390D01*
X162148082Y-89515310D01*
X162115515Y-89565746D01*
X162113271Y-89571314D01*
X162113270Y-89571316D01*
X162103105Y-89596539D01*
X162096812Y-89609852D01*
X162080890Y-89638994D01*
X162079063Y-89644702D01*
X162079062Y-89644704D01*
X162062590Y-89696164D01*
X162059454Y-89704851D01*
X162054711Y-89716621D01*
X162037019Y-89760519D01*
X162035869Y-89766408D01*
X162030657Y-89793099D01*
X162026995Y-89807363D01*
X162016870Y-89838994D01*
X162016155Y-89844946D01*
X162009710Y-89898596D01*
X162008273Y-89907716D01*
X162000007Y-89950045D01*
X161996770Y-89966622D01*
X161996500Y-89972143D01*
X161996500Y-90001021D01*
X161995601Y-90016049D01*
X161991824Y-90047491D01*
X161992247Y-90053467D01*
X161992247Y-90053470D01*
X161996185Y-90109085D01*
X161996500Y-90117984D01*
X161996500Y-106586768D01*
X161976498Y-106654889D01*
X161959595Y-106675863D01*
X150075095Y-118560363D01*
X150012783Y-118594389D01*
X149941968Y-118589324D01*
X149885132Y-118546777D01*
X149860321Y-118480257D01*
X149860000Y-118471268D01*
X149860000Y-115824000D01*
X149846633Y-115816445D01*
X149846631Y-115816443D01*
X148074943Y-114815055D01*
X147248442Y-114347902D01*
X147198982Y-114296971D01*
X147185520Y-114221766D01*
X147199185Y-114117971D01*
X147199185Y-114117965D01*
X147199622Y-114114649D01*
X147201300Y-114046000D01*
X147182430Y-113816478D01*
X147126326Y-113593120D01*
X147034496Y-113381924D01*
X146909405Y-113188563D01*
X146754412Y-113018229D01*
X146750361Y-113015030D01*
X146750357Y-113015026D01*
X146577735Y-112878697D01*
X146577730Y-112878693D01*
X146573681Y-112875496D01*
X146569165Y-112873003D01*
X146569162Y-112873001D01*
X146376589Y-112766695D01*
X146376585Y-112766693D01*
X146372065Y-112764198D01*
X146367196Y-112762474D01*
X146367192Y-112762472D01*
X146159853Y-112689049D01*
X146159849Y-112689048D01*
X146154978Y-112687323D01*
X146149885Y-112686416D01*
X146149882Y-112686415D01*
X146053707Y-112669284D01*
X145928250Y-112646937D01*
X145800959Y-112645382D01*
X145733090Y-112624549D01*
X145687256Y-112570329D01*
X145676500Y-112519391D01*
X145676500Y-106757614D01*
X145700176Y-106684090D01*
X145730577Y-106641783D01*
X145832615Y-106435325D01*
X145862111Y-106338242D01*
X145898059Y-106219927D01*
X145898060Y-106219921D01*
X145899563Y-106214975D01*
X145929622Y-105986649D01*
X145931300Y-105918000D01*
X145912430Y-105688478D01*
X145856326Y-105465120D01*
X145764496Y-105253924D01*
X145639405Y-105060563D01*
X145484412Y-104890229D01*
X145480361Y-104887030D01*
X145480357Y-104887026D01*
X145307735Y-104750697D01*
X145307730Y-104750693D01*
X145303681Y-104747496D01*
X145299165Y-104745003D01*
X145299162Y-104745001D01*
X145106589Y-104638695D01*
X145106585Y-104638693D01*
X145102065Y-104636198D01*
X145097196Y-104634474D01*
X145097192Y-104634472D01*
X144889853Y-104561049D01*
X144889849Y-104561048D01*
X144884978Y-104559323D01*
X144879885Y-104558416D01*
X144879882Y-104558415D01*
X144783707Y-104541284D01*
X144658250Y-104518937D01*
X144571802Y-104517881D01*
X144433141Y-104516186D01*
X144433139Y-104516186D01*
X144427971Y-104516123D01*
X144200325Y-104550958D01*
X144183143Y-104556574D01*
X144112179Y-104558724D01*
X144051318Y-104522167D01*
X144019883Y-104458509D01*
X144018000Y-104436808D01*
X144018000Y-100794131D01*
X144038002Y-100726010D01*
X144091658Y-100679517D01*
X144161932Y-100669413D01*
X144169120Y-100670660D01*
X144260486Y-100689248D01*
X144359607Y-100709414D01*
X144489352Y-100714172D01*
X144584585Y-100717664D01*
X144584589Y-100717664D01*
X144589749Y-100717853D01*
X144594869Y-100717197D01*
X144594871Y-100717197D01*
X144664272Y-100708307D01*
X144818178Y-100688591D01*
X144823126Y-100687106D01*
X144823133Y-100687105D01*
X145033811Y-100623898D01*
X145033810Y-100623898D01*
X145038761Y-100622413D01*
X145245574Y-100521096D01*
X145433062Y-100387363D01*
X145596190Y-100224803D01*
X145654269Y-100143978D01*
X145727559Y-100041983D01*
X145730577Y-100037783D01*
X145832615Y-99831325D01*
X145899563Y-99610975D01*
X145900573Y-99603305D01*
X145900993Y-99602355D01*
X145901331Y-99600792D01*
X145901654Y-99600862D01*
X145929292Y-99538378D01*
X145936400Y-99530653D01*
X146252587Y-99214466D01*
X146258605Y-99208829D01*
X146303272Y-99169657D01*
X146307619Y-99165845D01*
X146362765Y-99095892D01*
X146364783Y-99093401D01*
X146418023Y-99029388D01*
X146418027Y-99029382D01*
X146421719Y-99024943D01*
X146424542Y-99019903D01*
X146426288Y-99017362D01*
X146433300Y-99006866D01*
X146434948Y-99004329D01*
X146438524Y-98999792D01*
X146479975Y-98921007D01*
X146481544Y-98918117D01*
X146522214Y-98845497D01*
X146522215Y-98845496D01*
X146525037Y-98840456D01*
X146526895Y-98834983D01*
X146528172Y-98832114D01*
X146533038Y-98820789D01*
X146534282Y-98817786D01*
X146536977Y-98812664D01*
X146538691Y-98807144D01*
X146538696Y-98807132D01*
X146563381Y-98727633D01*
X146564400Y-98724496D01*
X146591146Y-98645705D01*
X146591147Y-98645700D01*
X146593004Y-98640230D01*
X146593834Y-98634509D01*
X146594548Y-98631533D01*
X146597336Y-98619214D01*
X146597968Y-98616242D01*
X146599680Y-98610727D01*
X146610147Y-98522296D01*
X146610578Y-98519027D01*
X146622516Y-98436686D01*
X146623345Y-98430971D01*
X146620097Y-98348300D01*
X146620000Y-98343353D01*
X146620000Y-88618043D01*
X146642171Y-88546660D01*
X146931070Y-88126443D01*
X149857152Y-83870325D01*
X149912224Y-83825525D01*
X149982778Y-83817610D01*
X150050073Y-83852615D01*
G37*
%TD.AperFunction*%
%TA.AperFunction,Conductor*%
G36*
X168646162Y-97261085D02*
G01*
X168685690Y-97320061D01*
X168691500Y-97357882D01*
X168691500Y-98791760D01*
X168671498Y-98859881D01*
X168617842Y-98906374D01*
X168547568Y-98916478D01*
X168520038Y-98909273D01*
X168392367Y-98859881D01*
X168343012Y-98840787D01*
X168338691Y-98839785D01*
X168338683Y-98839783D01*
X168170569Y-98800817D01*
X168087721Y-98781614D01*
X167826641Y-98759002D01*
X167822206Y-98759246D01*
X167822202Y-98759246D01*
X167740923Y-98763719D01*
X167671806Y-98747490D01*
X167622436Y-98696470D01*
X167608000Y-98637909D01*
X167608000Y-97512639D01*
X167628002Y-97444518D01*
X167681658Y-97398025D01*
X167731031Y-97386674D01*
X167861085Y-97383609D01*
X167972092Y-97380993D01*
X167976486Y-97380262D01*
X167976493Y-97380261D01*
X168226192Y-97338700D01*
X168226196Y-97338699D01*
X168230594Y-97337967D01*
X168473692Y-97261085D01*
X168476209Y-97260289D01*
X168476211Y-97260288D01*
X168480455Y-97258946D01*
X168510960Y-97244298D01*
X168581025Y-97232842D01*
X168646162Y-97261085D01*
G37*
%TD.AperFunction*%
%TA.AperFunction,Conductor*%
G36*
X164805792Y-97328772D02*
G01*
X164905555Y-97355224D01*
X164905566Y-97355226D01*
X164909865Y-97356366D01*
X164914289Y-97356890D01*
X164914291Y-97356890D01*
X165018691Y-97369246D01*
X165170107Y-97387167D01*
X165178029Y-97386980D01*
X165246601Y-97405370D01*
X165294347Y-97457914D01*
X165307000Y-97512945D01*
X165307000Y-98638625D01*
X165286998Y-98706746D01*
X165233342Y-98753239D01*
X165187925Y-98764435D01*
X165124528Y-98767923D01*
X165029422Y-98773157D01*
X165029416Y-98773158D01*
X165024978Y-98773402D01*
X164798080Y-98818535D01*
X164727368Y-98812207D01*
X164671300Y-98768653D01*
X164647500Y-98694956D01*
X164647500Y-97450564D01*
X164667502Y-97382443D01*
X164721158Y-97335950D01*
X164791432Y-97325846D01*
X164805792Y-97328772D01*
G37*
%TD.AperFunction*%
%TA.AperFunction,Conductor*%
G36*
X168646162Y-89641085D02*
G01*
X168685690Y-89700061D01*
X168691500Y-89737882D01*
X168691500Y-91171760D01*
X168671498Y-91239881D01*
X168617842Y-91286374D01*
X168547568Y-91296478D01*
X168520038Y-91289273D01*
X168392367Y-91239881D01*
X168343012Y-91220787D01*
X168338691Y-91219785D01*
X168338683Y-91219783D01*
X168170569Y-91180817D01*
X168087721Y-91161614D01*
X167826641Y-91139002D01*
X167822206Y-91139246D01*
X167822202Y-91139246D01*
X167569421Y-91153157D01*
X167569414Y-91153158D01*
X167564978Y-91153402D01*
X167307956Y-91204527D01*
X167303746Y-91206005D01*
X167303744Y-91206006D01*
X167207283Y-91239881D01*
X167060701Y-91291357D01*
X167056750Y-91293410D01*
X167056744Y-91293412D01*
X166929394Y-91359566D01*
X166828147Y-91412159D01*
X166824532Y-91414742D01*
X166824526Y-91414746D01*
X166618555Y-91561935D01*
X166618551Y-91561938D01*
X166614934Y-91564523D01*
X166611715Y-91567594D01*
X166608277Y-91570438D01*
X166607400Y-91569378D01*
X166549617Y-91599172D01*
X166478941Y-91592429D01*
X166449320Y-91575614D01*
X166279607Y-91446093D01*
X166279603Y-91446090D01*
X166276062Y-91443388D01*
X166047417Y-91315340D01*
X166043268Y-91313735D01*
X166043264Y-91313733D01*
X165852367Y-91239881D01*
X165803012Y-91220787D01*
X165798691Y-91219785D01*
X165798683Y-91219783D01*
X165630569Y-91180817D01*
X165547721Y-91161614D01*
X165286641Y-91139002D01*
X165282206Y-91139246D01*
X165282202Y-91139246D01*
X165029421Y-91153157D01*
X165029414Y-91153158D01*
X165024978Y-91153402D01*
X164798080Y-91198535D01*
X164727368Y-91192207D01*
X164671300Y-91148653D01*
X164647500Y-91074956D01*
X164647500Y-91046186D01*
X164667502Y-90978065D01*
X164684405Y-90957091D01*
X165350091Y-90291405D01*
X165412403Y-90257379D01*
X165439186Y-90254500D01*
X166453919Y-90254500D01*
X166464619Y-90255403D01*
X166464642Y-90255092D01*
X166470616Y-90255531D01*
X166476534Y-90256537D01*
X166568515Y-90254530D01*
X166571264Y-90254500D01*
X166609969Y-90254500D01*
X166617263Y-90253804D01*
X166626464Y-90253265D01*
X166659124Y-90252553D01*
X166680484Y-90252087D01*
X166680486Y-90252087D01*
X166686481Y-90251956D01*
X166692340Y-90250695D01*
X166692345Y-90250694D01*
X166718950Y-90244966D01*
X166733501Y-90242714D01*
X166746965Y-90241429D01*
X166766546Y-90239561D01*
X166772307Y-90237871D01*
X166824153Y-90222662D01*
X166833100Y-90220390D01*
X166847760Y-90217234D01*
X166891771Y-90207758D01*
X166922329Y-90194756D01*
X166936169Y-90189800D01*
X166968049Y-90180447D01*
X167021422Y-90152958D01*
X167029764Y-90149042D01*
X167079480Y-90127888D01*
X167079483Y-90127886D01*
X167085002Y-90125538D01*
X167107057Y-90110690D01*
X167112545Y-90106995D01*
X167125219Y-90099499D01*
X167149404Y-90087043D01*
X167149406Y-90087042D01*
X167154739Y-90084295D01*
X167201939Y-90047219D01*
X167209403Y-90041786D01*
X167209763Y-90041544D01*
X167218187Y-90035873D01*
X167255433Y-90010797D01*
X167255438Y-90010793D01*
X167259199Y-90008261D01*
X167263294Y-90004548D01*
X167283712Y-89984130D01*
X167294974Y-89974139D01*
X167304544Y-89966622D01*
X167319879Y-89954576D01*
X167360360Y-89907926D01*
X167366430Y-89901412D01*
X167479624Y-89788218D01*
X167541936Y-89754192D01*
X167583528Y-89752186D01*
X167651757Y-89760261D01*
X167710107Y-89767167D01*
X167972092Y-89760993D01*
X167976486Y-89760262D01*
X167976493Y-89760261D01*
X168226192Y-89718700D01*
X168226196Y-89718699D01*
X168230594Y-89717967D01*
X168394561Y-89666111D01*
X168476209Y-89640289D01*
X168476211Y-89640288D01*
X168480455Y-89638946D01*
X168510960Y-89624298D01*
X168581025Y-89612842D01*
X168646162Y-89641085D01*
G37*
%TD.AperFunction*%
%TA.AperFunction,Conductor*%
G36*
X168633621Y-64296502D02*
G01*
X168680114Y-64350158D01*
X168691500Y-64402500D01*
X168691500Y-72611972D01*
X168671498Y-72680093D01*
X168617842Y-72726586D01*
X168547568Y-72736690D01*
X168507124Y-72723633D01*
X168357131Y-72645218D01*
X168357127Y-72645216D01*
X168351470Y-72642259D01*
X168156087Y-72586234D01*
X168124455Y-72583411D01*
X168038609Y-72575749D01*
X168038603Y-72575749D01*
X168035816Y-72575500D01*
X165720184Y-72575500D01*
X165717397Y-72575749D01*
X165717391Y-72575749D01*
X165631545Y-72583411D01*
X165599913Y-72586234D01*
X165404530Y-72642259D01*
X165317606Y-72687702D01*
X165241969Y-72727244D01*
X165172334Y-72741078D01*
X165132948Y-72730955D01*
X165055110Y-72696786D01*
X165055106Y-72696785D01*
X165051182Y-72695062D01*
X164775739Y-72616600D01*
X164558631Y-72585701D01*
X164496448Y-72576851D01*
X164496446Y-72576851D01*
X164492196Y-72576246D01*
X164340333Y-72575451D01*
X164210086Y-72574769D01*
X164210080Y-72574769D01*
X164205800Y-72574747D01*
X164201556Y-72575306D01*
X164201552Y-72575306D01*
X164118546Y-72586234D01*
X163921851Y-72612129D01*
X163917711Y-72613262D01*
X163917709Y-72613262D01*
X163901209Y-72617776D01*
X163645602Y-72687702D01*
X163641654Y-72689386D01*
X163386117Y-72798382D01*
X163386113Y-72798384D01*
X163382165Y-72800068D01*
X163136415Y-72947146D01*
X163133064Y-72949830D01*
X163133062Y-72949832D01*
X163035420Y-73028058D01*
X162912900Y-73126215D01*
X162715755Y-73333962D01*
X162548629Y-73566543D01*
X162414614Y-73819653D01*
X162316190Y-74088610D01*
X162255178Y-74368436D01*
X162232707Y-74653953D01*
X162249194Y-74939878D01*
X162250019Y-74944083D01*
X162250020Y-74944091D01*
X162281853Y-75106342D01*
X162304332Y-75220920D01*
X162397102Y-75491878D01*
X162525787Y-75747740D01*
X162528213Y-75751269D01*
X162528216Y-75751275D01*
X162584945Y-75833816D01*
X162688006Y-75983770D01*
X162880756Y-76195600D01*
X163100472Y-76379311D01*
X163343088Y-76531503D01*
X163346990Y-76533265D01*
X163346994Y-76533267D01*
X163600202Y-76647595D01*
X163600206Y-76647597D01*
X163604114Y-76649361D01*
X163608233Y-76650581D01*
X163874606Y-76729485D01*
X163874611Y-76729486D01*
X163878719Y-76730703D01*
X163882953Y-76731351D01*
X163882958Y-76731352D01*
X164111341Y-76766299D01*
X164161824Y-76774024D01*
X164307589Y-76776314D01*
X164443898Y-76778456D01*
X164443904Y-76778456D01*
X164448189Y-76778523D01*
X164452441Y-76778008D01*
X164452449Y-76778008D01*
X164672221Y-76751411D01*
X164732514Y-76744115D01*
X164736662Y-76743027D01*
X164736666Y-76743026D01*
X165005388Y-76672528D01*
X165009539Y-76671439D01*
X165013499Y-76669799D01*
X165013504Y-76669797D01*
X165134636Y-76619622D01*
X165205226Y-76612033D01*
X165241229Y-76624369D01*
X165257120Y-76632677D01*
X165404530Y-76709741D01*
X165599913Y-76765766D01*
X165631545Y-76768589D01*
X165717391Y-76776251D01*
X165717397Y-76776251D01*
X165720184Y-76776500D01*
X168035816Y-76776500D01*
X168038603Y-76776251D01*
X168038609Y-76776251D01*
X168124455Y-76768589D01*
X168156087Y-76765766D01*
X168351470Y-76709741D01*
X168357128Y-76706783D01*
X168357131Y-76706782D01*
X168507124Y-76628367D01*
X168576760Y-76614532D01*
X168642821Y-76640542D01*
X168684333Y-76698138D01*
X168691500Y-76740028D01*
X168691500Y-83551760D01*
X168671498Y-83619881D01*
X168617842Y-83666374D01*
X168547568Y-83676478D01*
X168520038Y-83669273D01*
X168392367Y-83619881D01*
X168343012Y-83600787D01*
X168338691Y-83599785D01*
X168338683Y-83599783D01*
X168170569Y-83560817D01*
X168087721Y-83541614D01*
X167826641Y-83519002D01*
X167822206Y-83519246D01*
X167822202Y-83519246D01*
X167569421Y-83533157D01*
X167569414Y-83533158D01*
X167564978Y-83533402D01*
X167307956Y-83584527D01*
X167303746Y-83586005D01*
X167303744Y-83586006D01*
X167207283Y-83619881D01*
X167060701Y-83671357D01*
X167056750Y-83673410D01*
X167056744Y-83673412D01*
X166880309Y-83765063D01*
X166810637Y-83778715D01*
X166742591Y-83750892D01*
X166702441Y-83718147D01*
X166661096Y-83684427D01*
X166480970Y-83590259D01*
X166285587Y-83534234D01*
X166253955Y-83531411D01*
X166168109Y-83523749D01*
X166168103Y-83523749D01*
X166165316Y-83523500D01*
X164349684Y-83523500D01*
X164346897Y-83523749D01*
X164346891Y-83523749D01*
X164261045Y-83531411D01*
X164229413Y-83534234D01*
X164034030Y-83590259D01*
X163853904Y-83684427D01*
X163848961Y-83688458D01*
X163848960Y-83688459D01*
X163769052Y-83753630D01*
X163696391Y-83812891D01*
X163567927Y-83970404D01*
X163473759Y-84150530D01*
X163472000Y-84156666D01*
X163464669Y-84182231D01*
X163426665Y-84242199D01*
X163362272Y-84272101D01*
X163343550Y-84273500D01*
X154272232Y-84273500D01*
X154204111Y-84253498D01*
X154183137Y-84236595D01*
X151544480Y-81597938D01*
X151510454Y-81535626D01*
X151515519Y-81464811D01*
X151529746Y-81437460D01*
X151627845Y-81294771D01*
X151638000Y-81280000D01*
X151665012Y-80550686D01*
X154684500Y-80550686D01*
X154684702Y-80553194D01*
X154684702Y-80553199D01*
X154693798Y-80666249D01*
X154699224Y-80733692D01*
X154700429Y-80738600D01*
X154700430Y-80738603D01*
X154728514Y-80852939D01*
X154757780Y-80972089D01*
X154759755Y-80976741D01*
X154759756Y-80976745D01*
X154795721Y-81061473D01*
X154853698Y-81198057D01*
X154984510Y-81405783D01*
X154987855Y-81409577D01*
X155075555Y-81509053D01*
X155146851Y-81589923D01*
X155150759Y-81593133D01*
X155150760Y-81593134D01*
X155332638Y-81742530D01*
X155332641Y-81742532D01*
X155336544Y-81745738D01*
X155548709Y-81869221D01*
X155777887Y-81957195D01*
X155782833Y-81958228D01*
X155782839Y-81958230D01*
X155987377Y-82000960D01*
X156018182Y-82007395D01*
X156023231Y-82007624D01*
X156023237Y-82007625D01*
X156135154Y-82012707D01*
X156263412Y-82018531D01*
X156268432Y-82017950D01*
X156268436Y-82017950D01*
X156502238Y-81990898D01*
X156507268Y-81990316D01*
X156512139Y-81988938D01*
X156512142Y-81988937D01*
X156686631Y-81939561D01*
X156743477Y-81923475D01*
X156792789Y-81900481D01*
X156862979Y-81889820D01*
X156891193Y-81897045D01*
X157047887Y-81957195D01*
X157052833Y-81958228D01*
X157052839Y-81958230D01*
X157257377Y-82000960D01*
X157288182Y-82007395D01*
X157293231Y-82007624D01*
X157293237Y-82007625D01*
X157405154Y-82012707D01*
X157533412Y-82018531D01*
X157538432Y-82017950D01*
X157538436Y-82017950D01*
X157772238Y-81990898D01*
X157777268Y-81990316D01*
X157782139Y-81988938D01*
X157782142Y-81988937D01*
X157894314Y-81957195D01*
X158013477Y-81923475D01*
X158152772Y-81858521D01*
X158231378Y-81821867D01*
X158231382Y-81821865D01*
X158235960Y-81819730D01*
X158240142Y-81816888D01*
X158434807Y-81684594D01*
X158434811Y-81684591D01*
X158438994Y-81681748D01*
X158617356Y-81513080D01*
X158654260Y-81464811D01*
X158763383Y-81322084D01*
X158763386Y-81322080D01*
X158766456Y-81318064D01*
X158882459Y-81101719D01*
X158925492Y-80976745D01*
X158960732Y-80874400D01*
X158962381Y-80869611D01*
X158987581Y-80723717D01*
X159003489Y-80631620D01*
X159003490Y-80631614D01*
X159004164Y-80627710D01*
X159005500Y-80598290D01*
X159005500Y-79977314D01*
X158999303Y-79900290D01*
X158991182Y-79799349D01*
X158991181Y-79799344D01*
X158990776Y-79794308D01*
X158932220Y-79555911D01*
X158836302Y-79329943D01*
X158705490Y-79122217D01*
X158667274Y-79078869D01*
X158546497Y-78941874D01*
X158546494Y-78941871D01*
X158543149Y-78938077D01*
X158539240Y-78934866D01*
X158357362Y-78785470D01*
X158357359Y-78785468D01*
X158353456Y-78782262D01*
X158141291Y-78658779D01*
X157912113Y-78570805D01*
X157907167Y-78569772D01*
X157907161Y-78569770D01*
X157676772Y-78521640D01*
X157676773Y-78521640D01*
X157671818Y-78520605D01*
X157666769Y-78520376D01*
X157666763Y-78520375D01*
X157554846Y-78515293D01*
X157426588Y-78509469D01*
X157421568Y-78510050D01*
X157421564Y-78510050D01*
X157187762Y-78537102D01*
X157182732Y-78537684D01*
X157177861Y-78539062D01*
X157177858Y-78539063D01*
X157069343Y-78569770D01*
X156946523Y-78604525D01*
X156897211Y-78627519D01*
X156827021Y-78638180D01*
X156798808Y-78630955D01*
X156646833Y-78572617D01*
X156646835Y-78572617D01*
X156642113Y-78570805D01*
X156637167Y-78569772D01*
X156637161Y-78569770D01*
X156406772Y-78521640D01*
X156406773Y-78521640D01*
X156401818Y-78520605D01*
X156396769Y-78520376D01*
X156396763Y-78520375D01*
X156284846Y-78515293D01*
X156156588Y-78509469D01*
X156151568Y-78510050D01*
X156151564Y-78510050D01*
X155917762Y-78537102D01*
X155912732Y-78537684D01*
X155907861Y-78539062D01*
X155907858Y-78539063D01*
X155799456Y-78569738D01*
X155676523Y-78604525D01*
X155565281Y-78656398D01*
X155458622Y-78706133D01*
X155458618Y-78706135D01*
X155454040Y-78708270D01*
X155449859Y-78711112D01*
X155449858Y-78711112D01*
X155255193Y-78843406D01*
X155255189Y-78843409D01*
X155251006Y-78846252D01*
X155072644Y-79014920D01*
X155069566Y-79018946D01*
X155069565Y-79018947D01*
X154926617Y-79205916D01*
X154926614Y-79205920D01*
X154923544Y-79209936D01*
X154807541Y-79426281D01*
X154805895Y-79431062D01*
X154805893Y-79431066D01*
X154762905Y-79555911D01*
X154727619Y-79658389D01*
X154685836Y-79900290D01*
X154684500Y-79929710D01*
X154684500Y-80550686D01*
X151665012Y-80550686D01*
X151891636Y-74431816D01*
X151893882Y-74412353D01*
X151956234Y-74092802D01*
X152630235Y-70638549D01*
X153874694Y-70638549D01*
X153887177Y-70898430D01*
X153937935Y-71153612D01*
X154025855Y-71398489D01*
X154149004Y-71627680D01*
X154151799Y-71631423D01*
X154151801Y-71631426D01*
X154301885Y-71832413D01*
X154301890Y-71832419D01*
X154304677Y-71836151D01*
X154307986Y-71839431D01*
X154307991Y-71839437D01*
X154409003Y-71939571D01*
X154489454Y-72019323D01*
X154493216Y-72022081D01*
X154493219Y-72022084D01*
X154605832Y-72104655D01*
X154699275Y-72173170D01*
X154703410Y-72175346D01*
X154703414Y-72175348D01*
X154829274Y-72241566D01*
X154929533Y-72294315D01*
X155042406Y-72333732D01*
X155129724Y-72364225D01*
X155187442Y-72405567D01*
X155213645Y-72471551D01*
X155200015Y-72541227D01*
X155150880Y-72592474D01*
X155122914Y-72604299D01*
X154990530Y-72642259D01*
X154889528Y-72695062D01*
X154834877Y-72723633D01*
X154810404Y-72736427D01*
X154805461Y-72740458D01*
X154805460Y-72740459D01*
X154734439Y-72798382D01*
X154652891Y-72864891D01*
X154524427Y-73022404D01*
X154430259Y-73202530D01*
X154374234Y-73397913D01*
X154363500Y-73518184D01*
X154363500Y-75833816D01*
X154374234Y-75954087D01*
X154430259Y-76149470D01*
X154524427Y-76329596D01*
X154652891Y-76487109D01*
X154657831Y-76491138D01*
X154709487Y-76533267D01*
X154810404Y-76615573D01*
X154816057Y-76618528D01*
X154816058Y-76618529D01*
X154850338Y-76636450D01*
X154990530Y-76709741D01*
X155185913Y-76765766D01*
X155217545Y-76768589D01*
X155303391Y-76776251D01*
X155303397Y-76776251D01*
X155306184Y-76776500D01*
X157621816Y-76776500D01*
X157624603Y-76776251D01*
X157624609Y-76776251D01*
X157710455Y-76768589D01*
X157742087Y-76765766D01*
X157937470Y-76709741D01*
X158077662Y-76636450D01*
X158111942Y-76618529D01*
X158111943Y-76618528D01*
X158117596Y-76615573D01*
X158218514Y-76533267D01*
X158270169Y-76491138D01*
X158275109Y-76487109D01*
X158403573Y-76329596D01*
X158497741Y-76149470D01*
X158553766Y-75954087D01*
X158564500Y-75833816D01*
X158564500Y-73518184D01*
X158553766Y-73397913D01*
X158497741Y-73202530D01*
X158403573Y-73022404D01*
X158275109Y-72864891D01*
X158193561Y-72798382D01*
X158122540Y-72740459D01*
X158122539Y-72740458D01*
X158117596Y-72736427D01*
X158093124Y-72723633D01*
X158038472Y-72695062D01*
X157937470Y-72642259D01*
X157742087Y-72586234D01*
X157710455Y-72583411D01*
X157624609Y-72575749D01*
X157624603Y-72575749D01*
X157621816Y-72575500D01*
X156275273Y-72575500D01*
X156207152Y-72555498D01*
X156160659Y-72501842D01*
X156150555Y-72431568D01*
X156180049Y-72366988D01*
X156225535Y-72333732D01*
X156435763Y-72243411D01*
X156435765Y-72243410D01*
X156440057Y-72241566D01*
X156661303Y-72104655D01*
X156859882Y-71936546D01*
X157031431Y-71740931D01*
X157172183Y-71522108D01*
X157279044Y-71284885D01*
X157280314Y-71280382D01*
X157348398Y-71038976D01*
X157348399Y-71038973D01*
X157349668Y-71034472D01*
X157366391Y-70903018D01*
X157382104Y-70779501D01*
X157382104Y-70779497D01*
X157382502Y-70776371D01*
X157384908Y-70684500D01*
X157365626Y-70425034D01*
X157308205Y-70171268D01*
X157306512Y-70166914D01*
X157215598Y-69933130D01*
X157215597Y-69933128D01*
X157213905Y-69928777D01*
X157084799Y-69702888D01*
X156923723Y-69498564D01*
X156734214Y-69320292D01*
X156520437Y-69171989D01*
X156516247Y-69169923D01*
X156516244Y-69169921D01*
X156291275Y-69058979D01*
X156291272Y-69058978D01*
X156287087Y-69056914D01*
X156039292Y-68977594D01*
X155899069Y-68954757D01*
X155787106Y-68936523D01*
X155787105Y-68936523D01*
X155782494Y-68935772D01*
X155652415Y-68934069D01*
X155527012Y-68932427D01*
X155527009Y-68932427D01*
X155522335Y-68932366D01*
X155264530Y-68967452D01*
X155014743Y-69040258D01*
X155010490Y-69042218D01*
X155010489Y-69042219D01*
X154974134Y-69058979D01*
X154778461Y-69149186D01*
X154774556Y-69151746D01*
X154774551Y-69151749D01*
X154564788Y-69289275D01*
X154564783Y-69289279D01*
X154560875Y-69291841D01*
X154366765Y-69465091D01*
X154200395Y-69665129D01*
X154065420Y-69887561D01*
X154063611Y-69891875D01*
X154063610Y-69891877D01*
X154049838Y-69924721D01*
X153964805Y-70127501D01*
X153900761Y-70379677D01*
X153874694Y-70638549D01*
X152630235Y-70638549D01*
X152942352Y-69038947D01*
X153629332Y-65518175D01*
X153662010Y-65455145D01*
X153723576Y-65419789D01*
X153794484Y-65423330D01*
X153852222Y-65464645D01*
X153878457Y-65530617D01*
X153879000Y-65542305D01*
X153879000Y-66166174D01*
X153879207Y-66168714D01*
X153879207Y-66168724D01*
X153882967Y-66214948D01*
X153890453Y-66306984D01*
X153945989Y-66523280D01*
X154038949Y-66726324D01*
X154166397Y-66909697D01*
X154324303Y-67067603D01*
X154328909Y-67070804D01*
X154328911Y-67070806D01*
X154503070Y-67191850D01*
X154507676Y-67195051D01*
X154549753Y-67214315D01*
X154705615Y-67285674D01*
X154705617Y-67285675D01*
X154710720Y-67288011D01*
X154716161Y-67289408D01*
X154921812Y-67342211D01*
X154921814Y-67342211D01*
X154927016Y-67343547D01*
X155003911Y-67349801D01*
X155065276Y-67354793D01*
X155065286Y-67354793D01*
X155067826Y-67355000D01*
X156191174Y-67355000D01*
X156193714Y-67354793D01*
X156193724Y-67354793D01*
X156255089Y-67349801D01*
X156331984Y-67343547D01*
X156337186Y-67342211D01*
X156337188Y-67342211D01*
X156542839Y-67289408D01*
X156548280Y-67288011D01*
X156553383Y-67285675D01*
X156553385Y-67285674D01*
X156709247Y-67214315D01*
X156751324Y-67195051D01*
X156755930Y-67191850D01*
X156930089Y-67070806D01*
X156930091Y-67070804D01*
X156934697Y-67067603D01*
X157092603Y-66909697D01*
X157220051Y-66726324D01*
X157313011Y-66523280D01*
X157368547Y-66306984D01*
X157376033Y-66214948D01*
X157379793Y-66168724D01*
X157379793Y-66168714D01*
X157380000Y-66166174D01*
X157380000Y-65042826D01*
X157368547Y-64902016D01*
X157354878Y-64848777D01*
X157314408Y-64691161D01*
X157313011Y-64685720D01*
X157220051Y-64482676D01*
X157214306Y-64474410D01*
X157191853Y-64407057D01*
X157209379Y-64338257D01*
X157261318Y-64289854D01*
X157317771Y-64276500D01*
X168565500Y-64276500D01*
X168633621Y-64296502D01*
G37*
%TD.AperFunction*%
M02*
