%TF.GenerationSoftware,KiCad,Pcbnew,(6.0.9-0)*%
%TF.CreationDate,2023-03-20T13:18:36-04:00*%
%TF.ProjectId,dad_bod_02,6461645f-626f-4645-9f30-322e6b696361,rev?*%
%TF.SameCoordinates,Original*%
%TF.FileFunction,Legend,Top*%
%TF.FilePolarity,Positive*%
%FSLAX46Y46*%
G04 Gerber Fmt 4.6, Leading zero omitted, Abs format (unit mm)*
G04 Created by KiCad (PCBNEW (6.0.9-0)) date 2023-03-20 13:18:36*
%MOMM*%
%LPD*%
G01*
G04 APERTURE LIST*
G04 Aperture macros list*
%AMRoundRect*
0 Rectangle with rounded corners*
0 $1 Rounding radius*
0 $2 $3 $4 $5 $6 $7 $8 $9 X,Y pos of 4 corners*
0 Add a 4 corners polygon primitive as box body*
4,1,4,$2,$3,$4,$5,$6,$7,$8,$9,$2,$3,0*
0 Add four circle primitives for the rounded corners*
1,1,$1+$1,$2,$3*
1,1,$1+$1,$4,$5*
1,1,$1+$1,$6,$7*
1,1,$1+$1,$8,$9*
0 Add four rect primitives between the rounded corners*
20,1,$1+$1,$2,$3,$4,$5,0*
20,1,$1+$1,$4,$5,$6,$7,0*
20,1,$1+$1,$6,$7,$8,$9,0*
20,1,$1+$1,$8,$9,$2,$3,0*%
G04 Aperture macros list end*
%ADD10C,0.150000*%
%ADD11C,0.254000*%
%ADD12C,0.120000*%
%ADD13C,0.200000*%
%ADD14C,0.050000*%
%ADD15C,0.100000*%
%ADD16C,1.524000*%
%ADD17RoundRect,0.237500X0.300000X0.237500X-0.300000X0.237500X-0.300000X-0.237500X0.300000X-0.237500X0*%
%ADD18RoundRect,0.250000X-0.412500X-1.100000X0.412500X-1.100000X0.412500X1.100000X-0.412500X1.100000X0*%
%ADD19R,2.500000X1.600000*%
%ADD20RoundRect,0.237500X0.237500X-0.300000X0.237500X0.300000X-0.237500X0.300000X-0.237500X-0.300000X0*%
%ADD21R,1.000000X0.550000*%
%ADD22RoundRect,0.237500X-0.300000X-0.237500X0.300000X-0.237500X0.300000X0.237500X-0.300000X0.237500X0*%
%ADD23R,2.200000X3.150000*%
%ADD24R,2.200000X2.200000*%
%ADD25O,2.200000X2.200000*%
%ADD26C,3.200000*%
%ADD27C,2.300000*%
%ADD28C,1.755000*%
%ADD29C,2.025000*%
%ADD30R,1.700000X1.700000*%
%ADD31O,1.700000X1.700000*%
%ADD32RoundRect,0.250500X-0.499500X0.499500X-0.499500X-0.499500X0.499500X-0.499500X0.499500X0.499500X0*%
%ADD33C,1.500000*%
%ADD34RoundRect,0.250500X0.499500X0.499500X-0.499500X0.499500X-0.499500X-0.499500X0.499500X-0.499500X0*%
%ADD35R,2.000000X1.300000*%
%ADD36R,2.000000X2.000000*%
%ADD37RoundRect,0.237500X0.250000X0.237500X-0.250000X0.237500X-0.250000X-0.237500X0.250000X-0.237500X0*%
%ADD38RoundRect,0.237500X0.237500X-0.250000X0.237500X0.250000X-0.237500X0.250000X-0.237500X-0.250000X0*%
%ADD39RoundRect,0.237500X-0.250000X-0.237500X0.250000X-0.237500X0.250000X0.237500X-0.250000X0.237500X0*%
%ADD40RoundRect,0.237500X-0.237500X0.250000X-0.237500X-0.250000X0.237500X-0.250000X0.237500X0.250000X0*%
%ADD41R,2.750000X3.200000*%
%ADD42R,1.620000X3.375000*%
%ADD43R,1.200000X3.375000*%
%ADD44R,5.000000X1.300000*%
%ADD45R,1.050000X1.500000*%
%ADD46O,1.050000X1.500000*%
%ADD47RoundRect,0.249999X-0.450001X-1.075001X0.450001X-1.075001X0.450001X1.075001X-0.450001X1.075001X0*%
G04 APERTURE END LIST*
D10*
X147359714Y-141745642D02*
X148026380Y-141555166D01*
X147550190Y-141364690D01*
X148026380Y-141174214D01*
X147359714Y-140983738D01*
X148026380Y-140174214D02*
X147502571Y-140174214D01*
X147407333Y-140221833D01*
X147359714Y-140317071D01*
X147359714Y-140507547D01*
X147407333Y-140602785D01*
X147978761Y-140174214D02*
X148026380Y-140269452D01*
X148026380Y-140507547D01*
X147978761Y-140602785D01*
X147883523Y-140650404D01*
X147788285Y-140650404D01*
X147693047Y-140602785D01*
X147645428Y-140507547D01*
X147645428Y-140269452D01*
X147597809Y-140174214D01*
X147359714Y-139793261D02*
X148026380Y-139555166D01*
X147359714Y-139317071D01*
X147978761Y-138555166D02*
X148026380Y-138650404D01*
X148026380Y-138840880D01*
X147978761Y-138936119D01*
X147883523Y-138983738D01*
X147502571Y-138983738D01*
X147407333Y-138936119D01*
X147359714Y-138840880D01*
X147359714Y-138650404D01*
X147407333Y-138555166D01*
X147502571Y-138507547D01*
X147597809Y-138507547D01*
X147693047Y-138983738D01*
X147359714Y-138221833D02*
X147359714Y-137840880D01*
X148026380Y-138078976D02*
X147169238Y-138078976D01*
X147074000Y-138031357D01*
X147026380Y-137936119D01*
X147026380Y-137840880D01*
X148026380Y-137364690D02*
X147978761Y-137459928D01*
X147931142Y-137507547D01*
X147835904Y-137555166D01*
X147550190Y-137555166D01*
X147454952Y-137507547D01*
X147407333Y-137459928D01*
X147359714Y-137364690D01*
X147359714Y-137221833D01*
X147407333Y-137126595D01*
X147454952Y-137078976D01*
X147550190Y-137031357D01*
X147835904Y-137031357D01*
X147931142Y-137078976D01*
X147978761Y-137126595D01*
X148026380Y-137221833D01*
X148026380Y-137364690D01*
X148026380Y-136602785D02*
X147359714Y-136602785D01*
X147550190Y-136602785D02*
X147454952Y-136555166D01*
X147407333Y-136507547D01*
X147359714Y-136412309D01*
X147359714Y-136317071D01*
X148026380Y-135983738D02*
X147359714Y-135983738D01*
X147454952Y-135983738D02*
X147407333Y-135936119D01*
X147359714Y-135840880D01*
X147359714Y-135698023D01*
X147407333Y-135602785D01*
X147502571Y-135555166D01*
X148026380Y-135555166D01*
X147502571Y-135555166D02*
X147407333Y-135507547D01*
X147359714Y-135412309D01*
X147359714Y-135269452D01*
X147407333Y-135174214D01*
X147502571Y-135126595D01*
X148026380Y-135126595D01*
X148026380Y-134126595D02*
X148026380Y-134698023D01*
X148026380Y-134412309D02*
X147026380Y-134412309D01*
X147169238Y-134507547D01*
X147264476Y-134602785D01*
X147312095Y-134698023D01*
X133231047Y-71318380D02*
X133231047Y-70318380D01*
X133231047Y-70699333D02*
X133326285Y-70651714D01*
X133516761Y-70651714D01*
X133612000Y-70699333D01*
X133659619Y-70746952D01*
X133707238Y-70842190D01*
X133707238Y-71127904D01*
X133659619Y-71223142D01*
X133612000Y-71270761D01*
X133516761Y-71318380D01*
X133326285Y-71318380D01*
X133231047Y-71270761D01*
X134278666Y-71318380D02*
X134183428Y-71270761D01*
X134135809Y-71175523D01*
X134135809Y-70318380D01*
X134659619Y-71318380D02*
X134659619Y-70318380D01*
X134754857Y-70937428D02*
X135040571Y-71318380D01*
X135040571Y-70651714D02*
X134659619Y-71032666D01*
X102790761Y-132278380D02*
X102790761Y-131278380D01*
X102790761Y-131659333D02*
X102886000Y-131611714D01*
X103076476Y-131611714D01*
X103171714Y-131659333D01*
X103219333Y-131706952D01*
X103266952Y-131802190D01*
X103266952Y-132087904D01*
X103219333Y-132183142D01*
X103171714Y-132230761D01*
X103076476Y-132278380D01*
X102886000Y-132278380D01*
X102790761Y-132230761D01*
X103695523Y-131611714D02*
X103695523Y-132278380D01*
X103695523Y-131706952D02*
X103743142Y-131659333D01*
X103838380Y-131611714D01*
X103981238Y-131611714D01*
X104076476Y-131659333D01*
X104124095Y-131754571D01*
X104124095Y-132278380D01*
X105028857Y-132230761D02*
X104933619Y-132278380D01*
X104743142Y-132278380D01*
X104647904Y-132230761D01*
X104600285Y-132183142D01*
X104552666Y-132087904D01*
X104552666Y-131802190D01*
X104600285Y-131706952D01*
X104647904Y-131659333D01*
X104743142Y-131611714D01*
X104933619Y-131611714D01*
X105028857Y-131659333D01*
X134342476Y-122118380D02*
X134342476Y-121118380D01*
X134342476Y-122070761D02*
X134247238Y-122118380D01*
X134056761Y-122118380D01*
X133961523Y-122070761D01*
X133913904Y-122023142D01*
X133866285Y-121927904D01*
X133866285Y-121642190D01*
X133913904Y-121546952D01*
X133961523Y-121499333D01*
X134056761Y-121451714D01*
X134247238Y-121451714D01*
X134342476Y-121499333D01*
X134818666Y-122118380D02*
X134818666Y-121451714D01*
X134818666Y-121118380D02*
X134771047Y-121166000D01*
X134818666Y-121213619D01*
X134866285Y-121166000D01*
X134818666Y-121118380D01*
X134818666Y-121213619D01*
X135199619Y-121451714D02*
X135437714Y-122118380D01*
X135675809Y-121451714D01*
X136056761Y-122118380D02*
X136056761Y-121451714D01*
X136056761Y-121118380D02*
X136009142Y-121166000D01*
X136056761Y-121213619D01*
X136104380Y-121166000D01*
X136056761Y-121118380D01*
X136056761Y-121213619D01*
X136961523Y-122118380D02*
X136961523Y-121118380D01*
X136961523Y-122070761D02*
X136866285Y-122118380D01*
X136675809Y-122118380D01*
X136580571Y-122070761D01*
X136532952Y-122023142D01*
X136485333Y-121927904D01*
X136485333Y-121642190D01*
X136532952Y-121546952D01*
X136580571Y-121499333D01*
X136675809Y-121451714D01*
X136866285Y-121451714D01*
X136961523Y-121499333D01*
X137818666Y-122070761D02*
X137723428Y-122118380D01*
X137532952Y-122118380D01*
X137437714Y-122070761D01*
X137390095Y-121975523D01*
X137390095Y-121594571D01*
X137437714Y-121499333D01*
X137532952Y-121451714D01*
X137723428Y-121451714D01*
X137818666Y-121499333D01*
X137866285Y-121594571D01*
X137866285Y-121689809D01*
X137390095Y-121785047D01*
X138294857Y-122118380D02*
X138294857Y-121451714D01*
X138294857Y-121642190D02*
X138342476Y-121546952D01*
X138390095Y-121499333D01*
X138485333Y-121451714D01*
X138580571Y-121451714D01*
X139437714Y-122118380D02*
X138866285Y-122118380D01*
X139152000Y-122118380D02*
X139152000Y-121118380D01*
X139056761Y-121261238D01*
X138961523Y-121356476D01*
X138866285Y-121404095D01*
X119769047Y-135580380D02*
X119769047Y-134580380D01*
X119769047Y-134961333D02*
X119864285Y-134913714D01*
X120054761Y-134913714D01*
X120150000Y-134961333D01*
X120197619Y-135008952D01*
X120245238Y-135104190D01*
X120245238Y-135389904D01*
X120197619Y-135485142D01*
X120150000Y-135532761D01*
X120054761Y-135580380D01*
X119864285Y-135580380D01*
X119769047Y-135532761D01*
X120816666Y-135580380D02*
X120721428Y-135532761D01*
X120673809Y-135437523D01*
X120673809Y-134580380D01*
X121197619Y-135580380D02*
X121197619Y-134580380D01*
X121292857Y-135199428D02*
X121578571Y-135580380D01*
X121578571Y-134913714D02*
X121197619Y-135294666D01*
X119697619Y-71318380D02*
X119697619Y-70651714D01*
X119697619Y-70842190D02*
X119745238Y-70746952D01*
X119792857Y-70699333D01*
X119888095Y-70651714D01*
X119983333Y-70651714D01*
X120697619Y-71270761D02*
X120602380Y-71318380D01*
X120411904Y-71318380D01*
X120316666Y-71270761D01*
X120269047Y-71175523D01*
X120269047Y-70794571D01*
X120316666Y-70699333D01*
X120411904Y-70651714D01*
X120602380Y-70651714D01*
X120697619Y-70699333D01*
X120745238Y-70794571D01*
X120745238Y-70889809D01*
X120269047Y-70985047D01*
X121602380Y-71318380D02*
X121602380Y-70318380D01*
X121602380Y-71270761D02*
X121507142Y-71318380D01*
X121316666Y-71318380D01*
X121221428Y-71270761D01*
X121173809Y-71223142D01*
X121126190Y-71127904D01*
X121126190Y-70842190D01*
X121173809Y-70746952D01*
X121221428Y-70699333D01*
X121316666Y-70651714D01*
X121507142Y-70651714D01*
X121602380Y-70699333D01*
X135104476Y-84780380D02*
X135104476Y-83780380D01*
X135104476Y-84732761D02*
X135009238Y-84780380D01*
X134818761Y-84780380D01*
X134723523Y-84732761D01*
X134675904Y-84685142D01*
X134628285Y-84589904D01*
X134628285Y-84304190D01*
X134675904Y-84208952D01*
X134723523Y-84161333D01*
X134818761Y-84113714D01*
X135009238Y-84113714D01*
X135104476Y-84161333D01*
X135580666Y-84780380D02*
X135580666Y-84113714D01*
X135580666Y-83780380D02*
X135533047Y-83828000D01*
X135580666Y-83875619D01*
X135628285Y-83828000D01*
X135580666Y-83780380D01*
X135580666Y-83875619D01*
X135961619Y-84113714D02*
X136199714Y-84780380D01*
X136437809Y-84113714D01*
X136818761Y-84780380D02*
X136818761Y-84113714D01*
X136818761Y-83780380D02*
X136771142Y-83828000D01*
X136818761Y-83875619D01*
X136866380Y-83828000D01*
X136818761Y-83780380D01*
X136818761Y-83875619D01*
X137723523Y-84780380D02*
X137723523Y-83780380D01*
X137723523Y-84732761D02*
X137628285Y-84780380D01*
X137437809Y-84780380D01*
X137342571Y-84732761D01*
X137294952Y-84685142D01*
X137247333Y-84589904D01*
X137247333Y-84304190D01*
X137294952Y-84208952D01*
X137342571Y-84161333D01*
X137437809Y-84113714D01*
X137628285Y-84113714D01*
X137723523Y-84161333D01*
X138580666Y-84732761D02*
X138485428Y-84780380D01*
X138294952Y-84780380D01*
X138199714Y-84732761D01*
X138152095Y-84637523D01*
X138152095Y-84256571D01*
X138199714Y-84161333D01*
X138294952Y-84113714D01*
X138485428Y-84113714D01*
X138580666Y-84161333D01*
X138628285Y-84256571D01*
X138628285Y-84351809D01*
X138152095Y-84447047D01*
X139056857Y-84780380D02*
X139056857Y-84113714D01*
X139056857Y-84304190D02*
X139104476Y-84208952D01*
X139152095Y-84161333D01*
X139247333Y-84113714D01*
X139342571Y-84113714D01*
X139628285Y-83875619D02*
X139675904Y-83828000D01*
X139771142Y-83780380D01*
X140009238Y-83780380D01*
X140104476Y-83828000D01*
X140152095Y-83875619D01*
X140199714Y-83970857D01*
X140199714Y-84066095D01*
X140152095Y-84208952D01*
X139580666Y-84780380D01*
X140199714Y-84780380D01*
X133159619Y-135834380D02*
X133159619Y-135167714D01*
X133159619Y-135358190D02*
X133207238Y-135262952D01*
X133254857Y-135215333D01*
X133350095Y-135167714D01*
X133445333Y-135167714D01*
X134159619Y-135786761D02*
X134064380Y-135834380D01*
X133873904Y-135834380D01*
X133778666Y-135786761D01*
X133731047Y-135691523D01*
X133731047Y-135310571D01*
X133778666Y-135215333D01*
X133873904Y-135167714D01*
X134064380Y-135167714D01*
X134159619Y-135215333D01*
X134207238Y-135310571D01*
X134207238Y-135405809D01*
X133731047Y-135501047D01*
X135064380Y-135834380D02*
X135064380Y-134834380D01*
X135064380Y-135786761D02*
X134969142Y-135834380D01*
X134778666Y-135834380D01*
X134683428Y-135786761D01*
X134635809Y-135739142D01*
X134588190Y-135643904D01*
X134588190Y-135358190D01*
X134635809Y-135262952D01*
X134683428Y-135215333D01*
X134778666Y-135167714D01*
X134969142Y-135167714D01*
X135064380Y-135215333D01*
X103489238Y-75223714D02*
X103489238Y-76223714D01*
X103489238Y-75271333D02*
X103584476Y-75223714D01*
X103774952Y-75223714D01*
X103870190Y-75271333D01*
X103917809Y-75318952D01*
X103965428Y-75414190D01*
X103965428Y-75699904D01*
X103917809Y-75795142D01*
X103870190Y-75842761D01*
X103774952Y-75890380D01*
X103584476Y-75890380D01*
X103489238Y-75842761D01*
X104536857Y-75890380D02*
X104441619Y-75842761D01*
X104394000Y-75747523D01*
X104394000Y-74890380D01*
X105346380Y-75842761D02*
X105251142Y-75890380D01*
X105060666Y-75890380D01*
X104965428Y-75842761D01*
X104917809Y-75795142D01*
X104870190Y-75699904D01*
X104870190Y-75414190D01*
X104917809Y-75318952D01*
X104965428Y-75271333D01*
X105060666Y-75223714D01*
X105251142Y-75223714D01*
X105346380Y-75271333D01*
X91683535Y-137832500D02*
X90933535Y-137832500D01*
X91647821Y-137832500D02*
X91683535Y-137903928D01*
X91683535Y-138046785D01*
X91647821Y-138118214D01*
X91612107Y-138153928D01*
X91540678Y-138189642D01*
X91326392Y-138189642D01*
X91254964Y-138153928D01*
X91219250Y-138118214D01*
X91183535Y-138046785D01*
X91183535Y-137903928D01*
X91219250Y-137832500D01*
X91683535Y-137153928D02*
X91290678Y-137153928D01*
X91219250Y-137189642D01*
X91183535Y-137261071D01*
X91183535Y-137403928D01*
X91219250Y-137475357D01*
X91647821Y-137153928D02*
X91683535Y-137225357D01*
X91683535Y-137403928D01*
X91647821Y-137475357D01*
X91576392Y-137511071D01*
X91504964Y-137511071D01*
X91433535Y-137475357D01*
X91397821Y-137403928D01*
X91397821Y-137225357D01*
X91362107Y-137153928D01*
X91683535Y-136475357D02*
X90933535Y-136475357D01*
X91647821Y-136475357D02*
X91683535Y-136546785D01*
X91683535Y-136689642D01*
X91647821Y-136761071D01*
X91612107Y-136796785D01*
X91540678Y-136832500D01*
X91326392Y-136832500D01*
X91254964Y-136796785D01*
X91219250Y-136761071D01*
X91183535Y-136689642D01*
X91183535Y-136546785D01*
X91219250Y-136475357D01*
X91754964Y-136296785D02*
X91754964Y-135725357D01*
X91683535Y-135546785D02*
X90933535Y-135546785D01*
X91219250Y-135546785D02*
X91183535Y-135475357D01*
X91183535Y-135332500D01*
X91219250Y-135261071D01*
X91254964Y-135225357D01*
X91326392Y-135189642D01*
X91540678Y-135189642D01*
X91612107Y-135225357D01*
X91647821Y-135261071D01*
X91683535Y-135332500D01*
X91683535Y-135475357D01*
X91647821Y-135546785D01*
X91683535Y-134761071D02*
X91647821Y-134832500D01*
X91612107Y-134868214D01*
X91540678Y-134903928D01*
X91326392Y-134903928D01*
X91254964Y-134868214D01*
X91219250Y-134832500D01*
X91183535Y-134761071D01*
X91183535Y-134653928D01*
X91219250Y-134582500D01*
X91254964Y-134546785D01*
X91326392Y-134511071D01*
X91540678Y-134511071D01*
X91612107Y-134546785D01*
X91647821Y-134582500D01*
X91683535Y-134653928D01*
X91683535Y-134761071D01*
X91683535Y-133868214D02*
X90933535Y-133868214D01*
X91647821Y-133868214D02*
X91683535Y-133939642D01*
X91683535Y-134082500D01*
X91647821Y-134153928D01*
X91612107Y-134189642D01*
X91540678Y-134225357D01*
X91326392Y-134225357D01*
X91254964Y-134189642D01*
X91219250Y-134153928D01*
X91183535Y-134082500D01*
X91183535Y-133939642D01*
X91219250Y-133868214D01*
X90897821Y-132975357D02*
X91862107Y-133618214D01*
X90897821Y-132189642D02*
X91862107Y-132832500D01*
X91683535Y-131939642D02*
X90933535Y-131939642D01*
X91397821Y-131868214D02*
X91683535Y-131653928D01*
X91183535Y-131653928D02*
X91469250Y-131939642D01*
X91647821Y-131046785D02*
X91683535Y-131118214D01*
X91683535Y-131261071D01*
X91647821Y-131332500D01*
X91576392Y-131368214D01*
X91290678Y-131368214D01*
X91219250Y-131332500D01*
X91183535Y-131261071D01*
X91183535Y-131118214D01*
X91219250Y-131046785D01*
X91290678Y-131011071D01*
X91362107Y-131011071D01*
X91433535Y-131368214D01*
X91183535Y-130761071D02*
X91683535Y-130582500D01*
X91183535Y-130403928D02*
X91683535Y-130582500D01*
X91862107Y-130653928D01*
X91897821Y-130689642D01*
X91933535Y-130761071D01*
X91183535Y-129796785D02*
X91683535Y-129796785D01*
X91183535Y-130118214D02*
X91576392Y-130118214D01*
X91647821Y-130082500D01*
X91683535Y-130011071D01*
X91683535Y-129903928D01*
X91647821Y-129832500D01*
X91612107Y-129796785D01*
X91683535Y-129118214D02*
X90933535Y-129118214D01*
X91647821Y-129118214D02*
X91683535Y-129189642D01*
X91683535Y-129332500D01*
X91647821Y-129403928D01*
X91612107Y-129439642D01*
X91540678Y-129475357D01*
X91326392Y-129475357D01*
X91254964Y-129439642D01*
X91219250Y-129403928D01*
X91183535Y-129332500D01*
X91183535Y-129189642D01*
X91219250Y-129118214D01*
X91683535Y-128761071D02*
X91183535Y-128761071D01*
X90933535Y-128761071D02*
X90969250Y-128796785D01*
X91004964Y-128761071D01*
X90969250Y-128725357D01*
X90933535Y-128761071D01*
X91004964Y-128761071D01*
X91183535Y-128511071D02*
X91183535Y-128225357D01*
X90933535Y-128403928D02*
X91576392Y-128403928D01*
X91647821Y-128368214D01*
X91683535Y-128296785D01*
X91683535Y-128225357D01*
X91647821Y-128011071D02*
X91683535Y-127939642D01*
X91683535Y-127796785D01*
X91647821Y-127725357D01*
X91576392Y-127689642D01*
X91540678Y-127689642D01*
X91469250Y-127725357D01*
X91433535Y-127796785D01*
X91433535Y-127903928D01*
X91397821Y-127975357D01*
X91326392Y-128011071D01*
X91290678Y-128011071D01*
X91219250Y-127975357D01*
X91183535Y-127903928D01*
X91183535Y-127796785D01*
X91219250Y-127725357D01*
X92891035Y-138153928D02*
X92391035Y-138153928D01*
X92533892Y-138153928D02*
X92462464Y-138118214D01*
X92426750Y-138082500D01*
X92391035Y-138011071D01*
X92391035Y-137939642D01*
X92855321Y-137403928D02*
X92891035Y-137475357D01*
X92891035Y-137618214D01*
X92855321Y-137689642D01*
X92783892Y-137725357D01*
X92498178Y-137725357D01*
X92426750Y-137689642D01*
X92391035Y-137618214D01*
X92391035Y-137475357D01*
X92426750Y-137403928D01*
X92498178Y-137368214D01*
X92569607Y-137368214D01*
X92641035Y-137725357D01*
X92391035Y-137118214D02*
X92891035Y-136939642D01*
X92391035Y-136761071D01*
X92212464Y-136511071D02*
X92176750Y-136475357D01*
X92141035Y-136403928D01*
X92141035Y-136225357D01*
X92176750Y-136153928D01*
X92212464Y-136118214D01*
X92283892Y-136082500D01*
X92355321Y-136082500D01*
X92462464Y-136118214D01*
X92891035Y-136546785D01*
X92891035Y-136082500D01*
X92819607Y-135761071D02*
X92855321Y-135725357D01*
X92891035Y-135761071D01*
X92855321Y-135796785D01*
X92819607Y-135761071D01*
X92891035Y-135761071D01*
X92141035Y-135261071D02*
X92141035Y-135189642D01*
X92176750Y-135118214D01*
X92212464Y-135082500D01*
X92283892Y-135046785D01*
X92426750Y-135011071D01*
X92605321Y-135011071D01*
X92748178Y-135046785D01*
X92819607Y-135082500D01*
X92855321Y-135118214D01*
X92891035Y-135189642D01*
X92891035Y-135261071D01*
X92855321Y-135332500D01*
X92819607Y-135368214D01*
X92748178Y-135403928D01*
X92605321Y-135439642D01*
X92426750Y-135439642D01*
X92283892Y-135403928D01*
X92212464Y-135368214D01*
X92176750Y-135332500D01*
X92141035Y-135261071D01*
X92891035Y-134118214D02*
X92391035Y-134118214D01*
X92462464Y-134118214D02*
X92426750Y-134082500D01*
X92391035Y-134011071D01*
X92391035Y-133903928D01*
X92426750Y-133832500D01*
X92498178Y-133796785D01*
X92891035Y-133796785D01*
X92498178Y-133796785D02*
X92426750Y-133761071D01*
X92391035Y-133689642D01*
X92391035Y-133582500D01*
X92426750Y-133511071D01*
X92498178Y-133475357D01*
X92891035Y-133475357D01*
X92891035Y-132796785D02*
X92498178Y-132796785D01*
X92426750Y-132832500D01*
X92391035Y-132903928D01*
X92391035Y-133046785D01*
X92426750Y-133118214D01*
X92855321Y-132796785D02*
X92891035Y-132868214D01*
X92891035Y-133046785D01*
X92855321Y-133118214D01*
X92783892Y-133153928D01*
X92712464Y-133153928D01*
X92641035Y-133118214D01*
X92605321Y-133046785D01*
X92605321Y-132868214D01*
X92569607Y-132796785D01*
X92891035Y-132439642D02*
X92391035Y-132439642D01*
X92533892Y-132439642D02*
X92462464Y-132403928D01*
X92426750Y-132368214D01*
X92391035Y-132296785D01*
X92391035Y-132225357D01*
X92212464Y-132011071D02*
X92176750Y-131975357D01*
X92141035Y-131903928D01*
X92141035Y-131725357D01*
X92176750Y-131653928D01*
X92212464Y-131618214D01*
X92283892Y-131582500D01*
X92355321Y-131582500D01*
X92462464Y-131618214D01*
X92891035Y-132046785D01*
X92891035Y-131582500D01*
X92141035Y-131118214D02*
X92141035Y-131046785D01*
X92176750Y-130975357D01*
X92212464Y-130939642D01*
X92283892Y-130903928D01*
X92426750Y-130868214D01*
X92605321Y-130868214D01*
X92748178Y-130903928D01*
X92819607Y-130939642D01*
X92855321Y-130975357D01*
X92891035Y-131046785D01*
X92891035Y-131118214D01*
X92855321Y-131189642D01*
X92819607Y-131225357D01*
X92748178Y-131261071D01*
X92605321Y-131296785D01*
X92426750Y-131296785D01*
X92283892Y-131261071D01*
X92212464Y-131225357D01*
X92176750Y-131189642D01*
X92141035Y-131118214D01*
X92212464Y-130582500D02*
X92176750Y-130546785D01*
X92141035Y-130475357D01*
X92141035Y-130296785D01*
X92176750Y-130225357D01*
X92212464Y-130189642D01*
X92283892Y-130153928D01*
X92355321Y-130153928D01*
X92462464Y-130189642D01*
X92891035Y-130618214D01*
X92891035Y-130153928D01*
X92141035Y-129903928D02*
X92141035Y-129439642D01*
X92426750Y-129689642D01*
X92426750Y-129582500D01*
X92462464Y-129511071D01*
X92498178Y-129475357D01*
X92569607Y-129439642D01*
X92748178Y-129439642D01*
X92819607Y-129475357D01*
X92855321Y-129511071D01*
X92891035Y-129582500D01*
X92891035Y-129796785D01*
X92855321Y-129868214D01*
X92819607Y-129903928D01*
X114657142Y-97448666D02*
X114704761Y-97496285D01*
X114752380Y-97639142D01*
X114752380Y-97734380D01*
X114704761Y-97877238D01*
X114609523Y-97972476D01*
X114514285Y-98020095D01*
X114323809Y-98067714D01*
X114180952Y-98067714D01*
X113990476Y-98020095D01*
X113895238Y-97972476D01*
X113800000Y-97877238D01*
X113752380Y-97734380D01*
X113752380Y-97639142D01*
X113800000Y-97496285D01*
X113847619Y-97448666D01*
X114752380Y-96496285D02*
X114752380Y-97067714D01*
X114752380Y-96782000D02*
X113752380Y-96782000D01*
X113895238Y-96877238D01*
X113990476Y-96972476D01*
X114038095Y-97067714D01*
X111392333Y-65635142D02*
X111344714Y-65682761D01*
X111201857Y-65730380D01*
X111106619Y-65730380D01*
X110963761Y-65682761D01*
X110868523Y-65587523D01*
X110820904Y-65492285D01*
X110773285Y-65301809D01*
X110773285Y-65158952D01*
X110820904Y-64968476D01*
X110868523Y-64873238D01*
X110963761Y-64778000D01*
X111106619Y-64730380D01*
X111201857Y-64730380D01*
X111344714Y-64778000D01*
X111392333Y-64825619D01*
X111773285Y-64825619D02*
X111820904Y-64778000D01*
X111916142Y-64730380D01*
X112154238Y-64730380D01*
X112249476Y-64778000D01*
X112297095Y-64825619D01*
X112344714Y-64920857D01*
X112344714Y-65016095D01*
X112297095Y-65158952D01*
X111725666Y-65730380D01*
X112344714Y-65730380D01*
X120476100Y-104851642D02*
X120428481Y-104899261D01*
X120285624Y-104946880D01*
X120190386Y-104946880D01*
X120047528Y-104899261D01*
X119952290Y-104804023D01*
X119904671Y-104708785D01*
X119857052Y-104518309D01*
X119857052Y-104375452D01*
X119904671Y-104184976D01*
X119952290Y-104089738D01*
X120047528Y-103994500D01*
X120190386Y-103946880D01*
X120285624Y-103946880D01*
X120428481Y-103994500D01*
X120476100Y-104042119D01*
X120809433Y-103946880D02*
X121428481Y-103946880D01*
X121095147Y-104327833D01*
X121238005Y-104327833D01*
X121333243Y-104375452D01*
X121380862Y-104423071D01*
X121428481Y-104518309D01*
X121428481Y-104756404D01*
X121380862Y-104851642D01*
X121333243Y-104899261D01*
X121238005Y-104946880D01*
X120952290Y-104946880D01*
X120857052Y-104899261D01*
X120809433Y-104851642D01*
X133691333Y-86971142D02*
X133643714Y-87018761D01*
X133500857Y-87066380D01*
X133405619Y-87066380D01*
X133262761Y-87018761D01*
X133167523Y-86923523D01*
X133119904Y-86828285D01*
X133072285Y-86637809D01*
X133072285Y-86494952D01*
X133119904Y-86304476D01*
X133167523Y-86209238D01*
X133262761Y-86114000D01*
X133405619Y-86066380D01*
X133500857Y-86066380D01*
X133643714Y-86114000D01*
X133691333Y-86161619D01*
X134548476Y-86399714D02*
X134548476Y-87066380D01*
X134310380Y-86018761D02*
X134072285Y-86733047D01*
X134691333Y-86733047D01*
D11*
X161050333Y-78685571D02*
X160989857Y-78746047D01*
X160808428Y-78806523D01*
X160687476Y-78806523D01*
X160506047Y-78746047D01*
X160385095Y-78625095D01*
X160324619Y-78504142D01*
X160264142Y-78262238D01*
X160264142Y-78080809D01*
X160324619Y-77838904D01*
X160385095Y-77717952D01*
X160506047Y-77597000D01*
X160687476Y-77536523D01*
X160808428Y-77536523D01*
X160989857Y-77597000D01*
X161050333Y-77657476D01*
X162199380Y-77536523D02*
X161594619Y-77536523D01*
X161534142Y-78141285D01*
X161594619Y-78080809D01*
X161715571Y-78020333D01*
X162017952Y-78020333D01*
X162138904Y-78080809D01*
X162199380Y-78141285D01*
X162259857Y-78262238D01*
X162259857Y-78564619D01*
X162199380Y-78685571D01*
X162138904Y-78746047D01*
X162017952Y-78806523D01*
X161715571Y-78806523D01*
X161594619Y-78746047D01*
X161534142Y-78685571D01*
X161812333Y-129739571D02*
X161751857Y-129800047D01*
X161570428Y-129860523D01*
X161449476Y-129860523D01*
X161268047Y-129800047D01*
X161147095Y-129679095D01*
X161086619Y-129558142D01*
X161026142Y-129316238D01*
X161026142Y-129134809D01*
X161086619Y-128892904D01*
X161147095Y-128771952D01*
X161268047Y-128651000D01*
X161449476Y-128590523D01*
X161570428Y-128590523D01*
X161751857Y-128651000D01*
X161812333Y-128711476D01*
X162900904Y-128590523D02*
X162659000Y-128590523D01*
X162538047Y-128651000D01*
X162477571Y-128711476D01*
X162356619Y-128892904D01*
X162296142Y-129134809D01*
X162296142Y-129618619D01*
X162356619Y-129739571D01*
X162417095Y-129800047D01*
X162538047Y-129860523D01*
X162779952Y-129860523D01*
X162900904Y-129800047D01*
X162961380Y-129739571D01*
X163021857Y-129618619D01*
X163021857Y-129316238D01*
X162961380Y-129195285D01*
X162900904Y-129134809D01*
X162779952Y-129074333D01*
X162538047Y-129074333D01*
X162417095Y-129134809D01*
X162356619Y-129195285D01*
X162296142Y-129316238D01*
D10*
X131405333Y-121769142D02*
X131357714Y-121816761D01*
X131214857Y-121864380D01*
X131119619Y-121864380D01*
X130976761Y-121816761D01*
X130881523Y-121721523D01*
X130833904Y-121626285D01*
X130786285Y-121435809D01*
X130786285Y-121292952D01*
X130833904Y-121102476D01*
X130881523Y-121007238D01*
X130976761Y-120912000D01*
X131119619Y-120864380D01*
X131214857Y-120864380D01*
X131357714Y-120912000D01*
X131405333Y-120959619D01*
X131738666Y-120864380D02*
X132405333Y-120864380D01*
X131976761Y-121864380D01*
X120586833Y-90064642D02*
X120539214Y-90112261D01*
X120396357Y-90159880D01*
X120301119Y-90159880D01*
X120158261Y-90112261D01*
X120063023Y-90017023D01*
X120015404Y-89921785D01*
X119967785Y-89731309D01*
X119967785Y-89588452D01*
X120015404Y-89397976D01*
X120063023Y-89302738D01*
X120158261Y-89207500D01*
X120301119Y-89159880D01*
X120396357Y-89159880D01*
X120539214Y-89207500D01*
X120586833Y-89255119D01*
X121158261Y-89588452D02*
X121063023Y-89540833D01*
X121015404Y-89493214D01*
X120967785Y-89397976D01*
X120967785Y-89350357D01*
X121015404Y-89255119D01*
X121063023Y-89207500D01*
X121158261Y-89159880D01*
X121348738Y-89159880D01*
X121443976Y-89207500D01*
X121491595Y-89255119D01*
X121539214Y-89350357D01*
X121539214Y-89397976D01*
X121491595Y-89493214D01*
X121443976Y-89540833D01*
X121348738Y-89588452D01*
X121158261Y-89588452D01*
X121063023Y-89636071D01*
X121015404Y-89683690D01*
X120967785Y-89778928D01*
X120967785Y-89969404D01*
X121015404Y-90064642D01*
X121063023Y-90112261D01*
X121158261Y-90159880D01*
X121348738Y-90159880D01*
X121443976Y-90112261D01*
X121491595Y-90064642D01*
X121539214Y-89969404D01*
X121539214Y-89778928D01*
X121491595Y-89683690D01*
X121443976Y-89636071D01*
X121348738Y-89588452D01*
X124801333Y-89810642D02*
X124753714Y-89858261D01*
X124610857Y-89905880D01*
X124515619Y-89905880D01*
X124372761Y-89858261D01*
X124277523Y-89763023D01*
X124229904Y-89667785D01*
X124182285Y-89477309D01*
X124182285Y-89334452D01*
X124229904Y-89143976D01*
X124277523Y-89048738D01*
X124372761Y-88953500D01*
X124515619Y-88905880D01*
X124610857Y-88905880D01*
X124753714Y-88953500D01*
X124801333Y-89001119D01*
X125277523Y-89905880D02*
X125468000Y-89905880D01*
X125563238Y-89858261D01*
X125610857Y-89810642D01*
X125706095Y-89667785D01*
X125753714Y-89477309D01*
X125753714Y-89096357D01*
X125706095Y-89001119D01*
X125658476Y-88953500D01*
X125563238Y-88905880D01*
X125372761Y-88905880D01*
X125277523Y-88953500D01*
X125229904Y-89001119D01*
X125182285Y-89096357D01*
X125182285Y-89334452D01*
X125229904Y-89429690D01*
X125277523Y-89477309D01*
X125372761Y-89524928D01*
X125563238Y-89524928D01*
X125658476Y-89477309D01*
X125706095Y-89429690D01*
X125753714Y-89334452D01*
X129007875Y-89810642D02*
X128960256Y-89858261D01*
X128817399Y-89905880D01*
X128722161Y-89905880D01*
X128579304Y-89858261D01*
X128484066Y-89763023D01*
X128436447Y-89667785D01*
X128388828Y-89477309D01*
X128388828Y-89334452D01*
X128436447Y-89143976D01*
X128484066Y-89048738D01*
X128579304Y-88953500D01*
X128722161Y-88905880D01*
X128817399Y-88905880D01*
X128960256Y-88953500D01*
X129007875Y-89001119D01*
X129960256Y-89905880D02*
X129388828Y-89905880D01*
X129674542Y-89905880D02*
X129674542Y-88905880D01*
X129579304Y-89048738D01*
X129484066Y-89143976D01*
X129388828Y-89191595D01*
X130579304Y-88905880D02*
X130674542Y-88905880D01*
X130769780Y-88953500D01*
X130817399Y-89001119D01*
X130865018Y-89096357D01*
X130912637Y-89286833D01*
X130912637Y-89524928D01*
X130865018Y-89715404D01*
X130817399Y-89810642D01*
X130769780Y-89858261D01*
X130674542Y-89905880D01*
X130579304Y-89905880D01*
X130484066Y-89858261D01*
X130436447Y-89810642D01*
X130388828Y-89715404D01*
X130341209Y-89524928D01*
X130341209Y-89286833D01*
X130388828Y-89096357D01*
X130436447Y-89001119D01*
X130484066Y-88953500D01*
X130579304Y-88905880D01*
X133469142Y-89810642D02*
X133421523Y-89858261D01*
X133278666Y-89905880D01*
X133183428Y-89905880D01*
X133040571Y-89858261D01*
X132945333Y-89763023D01*
X132897714Y-89667785D01*
X132850095Y-89477309D01*
X132850095Y-89334452D01*
X132897714Y-89143976D01*
X132945333Y-89048738D01*
X133040571Y-88953500D01*
X133183428Y-88905880D01*
X133278666Y-88905880D01*
X133421523Y-88953500D01*
X133469142Y-89001119D01*
X134421523Y-89905880D02*
X133850095Y-89905880D01*
X134135809Y-89905880D02*
X134135809Y-88905880D01*
X134040571Y-89048738D01*
X133945333Y-89143976D01*
X133850095Y-89191595D01*
X135373904Y-89905880D02*
X134802476Y-89905880D01*
X135088190Y-89905880D02*
X135088190Y-88905880D01*
X134992952Y-89048738D01*
X134897714Y-89143976D01*
X134802476Y-89191595D01*
X146931142Y-90309642D02*
X146883523Y-90357261D01*
X146740666Y-90404880D01*
X146645428Y-90404880D01*
X146502571Y-90357261D01*
X146407333Y-90262023D01*
X146359714Y-90166785D01*
X146312095Y-89976309D01*
X146312095Y-89833452D01*
X146359714Y-89642976D01*
X146407333Y-89547738D01*
X146502571Y-89452500D01*
X146645428Y-89404880D01*
X146740666Y-89404880D01*
X146883523Y-89452500D01*
X146931142Y-89500119D01*
X147883523Y-90404880D02*
X147312095Y-90404880D01*
X147597809Y-90404880D02*
X147597809Y-89404880D01*
X147502571Y-89547738D01*
X147407333Y-89642976D01*
X147312095Y-89690595D01*
X148264476Y-89500119D02*
X148312095Y-89452500D01*
X148407333Y-89404880D01*
X148645428Y-89404880D01*
X148740666Y-89452500D01*
X148788285Y-89500119D01*
X148835904Y-89595357D01*
X148835904Y-89690595D01*
X148788285Y-89833452D01*
X148216857Y-90404880D01*
X148835904Y-90404880D01*
X149852142Y-90309642D02*
X149804523Y-90357261D01*
X149661666Y-90404880D01*
X149566428Y-90404880D01*
X149423571Y-90357261D01*
X149328333Y-90262023D01*
X149280714Y-90166785D01*
X149233095Y-89976309D01*
X149233095Y-89833452D01*
X149280714Y-89642976D01*
X149328333Y-89547738D01*
X149423571Y-89452500D01*
X149566428Y-89404880D01*
X149661666Y-89404880D01*
X149804523Y-89452500D01*
X149852142Y-89500119D01*
X150804523Y-90404880D02*
X150233095Y-90404880D01*
X150518809Y-90404880D02*
X150518809Y-89404880D01*
X150423571Y-89547738D01*
X150328333Y-89642976D01*
X150233095Y-89690595D01*
X151137857Y-89404880D02*
X151756904Y-89404880D01*
X151423571Y-89785833D01*
X151566428Y-89785833D01*
X151661666Y-89833452D01*
X151709285Y-89881071D01*
X151756904Y-89976309D01*
X151756904Y-90214404D01*
X151709285Y-90309642D01*
X151661666Y-90357261D01*
X151566428Y-90404880D01*
X151280714Y-90404880D01*
X151185476Y-90357261D01*
X151137857Y-90309642D01*
X153027142Y-90064642D02*
X152979523Y-90112261D01*
X152836666Y-90159880D01*
X152741428Y-90159880D01*
X152598571Y-90112261D01*
X152503333Y-90017023D01*
X152455714Y-89921785D01*
X152408095Y-89731309D01*
X152408095Y-89588452D01*
X152455714Y-89397976D01*
X152503333Y-89302738D01*
X152598571Y-89207500D01*
X152741428Y-89159880D01*
X152836666Y-89159880D01*
X152979523Y-89207500D01*
X153027142Y-89255119D01*
X153979523Y-90159880D02*
X153408095Y-90159880D01*
X153693809Y-90159880D02*
X153693809Y-89159880D01*
X153598571Y-89302738D01*
X153503333Y-89397976D01*
X153408095Y-89445595D01*
X154836666Y-89493214D02*
X154836666Y-90159880D01*
X154598571Y-89112261D02*
X154360476Y-89826547D01*
X154979523Y-89826547D01*
X146677142Y-100487642D02*
X146629523Y-100535261D01*
X146486666Y-100582880D01*
X146391428Y-100582880D01*
X146248571Y-100535261D01*
X146153333Y-100440023D01*
X146105714Y-100344785D01*
X146058095Y-100154309D01*
X146058095Y-100011452D01*
X146105714Y-99820976D01*
X146153333Y-99725738D01*
X146248571Y-99630500D01*
X146391428Y-99582880D01*
X146486666Y-99582880D01*
X146629523Y-99630500D01*
X146677142Y-99678119D01*
X147629523Y-100582880D02*
X147058095Y-100582880D01*
X147343809Y-100582880D02*
X147343809Y-99582880D01*
X147248571Y-99725738D01*
X147153333Y-99820976D01*
X147058095Y-99868595D01*
X148534285Y-99582880D02*
X148058095Y-99582880D01*
X148010476Y-100059071D01*
X148058095Y-100011452D01*
X148153333Y-99963833D01*
X148391428Y-99963833D01*
X148486666Y-100011452D01*
X148534285Y-100059071D01*
X148581904Y-100154309D01*
X148581904Y-100392404D01*
X148534285Y-100487642D01*
X148486666Y-100535261D01*
X148391428Y-100582880D01*
X148153333Y-100582880D01*
X148058095Y-100535261D01*
X148010476Y-100487642D01*
X149852142Y-100469642D02*
X149804523Y-100517261D01*
X149661666Y-100564880D01*
X149566428Y-100564880D01*
X149423571Y-100517261D01*
X149328333Y-100422023D01*
X149280714Y-100326785D01*
X149233095Y-100136309D01*
X149233095Y-99993452D01*
X149280714Y-99802976D01*
X149328333Y-99707738D01*
X149423571Y-99612500D01*
X149566428Y-99564880D01*
X149661666Y-99564880D01*
X149804523Y-99612500D01*
X149852142Y-99660119D01*
X150804523Y-100564880D02*
X150233095Y-100564880D01*
X150518809Y-100564880D02*
X150518809Y-99564880D01*
X150423571Y-99707738D01*
X150328333Y-99802976D01*
X150233095Y-99850595D01*
X151661666Y-99564880D02*
X151471190Y-99564880D01*
X151375952Y-99612500D01*
X151328333Y-99660119D01*
X151233095Y-99802976D01*
X151185476Y-99993452D01*
X151185476Y-100374404D01*
X151233095Y-100469642D01*
X151280714Y-100517261D01*
X151375952Y-100564880D01*
X151566428Y-100564880D01*
X151661666Y-100517261D01*
X151709285Y-100469642D01*
X151756904Y-100374404D01*
X151756904Y-100136309D01*
X151709285Y-100041071D01*
X151661666Y-99993452D01*
X151566428Y-99945833D01*
X151375952Y-99945833D01*
X151280714Y-99993452D01*
X151233095Y-100041071D01*
X151185476Y-100136309D01*
X153027142Y-100478642D02*
X152979523Y-100526261D01*
X152836666Y-100573880D01*
X152741428Y-100573880D01*
X152598571Y-100526261D01*
X152503333Y-100431023D01*
X152455714Y-100335785D01*
X152408095Y-100145309D01*
X152408095Y-100002452D01*
X152455714Y-99811976D01*
X152503333Y-99716738D01*
X152598571Y-99621500D01*
X152741428Y-99573880D01*
X152836666Y-99573880D01*
X152979523Y-99621500D01*
X153027142Y-99669119D01*
X153979523Y-100573880D02*
X153408095Y-100573880D01*
X153693809Y-100573880D02*
X153693809Y-99573880D01*
X153598571Y-99716738D01*
X153503333Y-99811976D01*
X153408095Y-99859595D01*
X154312857Y-99573880D02*
X154979523Y-99573880D01*
X154550952Y-100573880D01*
X120160642Y-101240642D02*
X120113023Y-101288261D01*
X119970166Y-101335880D01*
X119874928Y-101335880D01*
X119732071Y-101288261D01*
X119636833Y-101193023D01*
X119589214Y-101097785D01*
X119541595Y-100907309D01*
X119541595Y-100764452D01*
X119589214Y-100573976D01*
X119636833Y-100478738D01*
X119732071Y-100383500D01*
X119874928Y-100335880D01*
X119970166Y-100335880D01*
X120113023Y-100383500D01*
X120160642Y-100431119D01*
X121113023Y-101335880D02*
X120541595Y-101335880D01*
X120827309Y-101335880D02*
X120827309Y-100335880D01*
X120732071Y-100478738D01*
X120636833Y-100573976D01*
X120541595Y-100621595D01*
X121684452Y-100764452D02*
X121589214Y-100716833D01*
X121541595Y-100669214D01*
X121493976Y-100573976D01*
X121493976Y-100526357D01*
X121541595Y-100431119D01*
X121589214Y-100383500D01*
X121684452Y-100335880D01*
X121874928Y-100335880D01*
X121970166Y-100383500D01*
X122017785Y-100431119D01*
X122065404Y-100526357D01*
X122065404Y-100573976D01*
X122017785Y-100669214D01*
X121970166Y-100716833D01*
X121874928Y-100764452D01*
X121684452Y-100764452D01*
X121589214Y-100812071D01*
X121541595Y-100859690D01*
X121493976Y-100954928D01*
X121493976Y-101145404D01*
X121541595Y-101240642D01*
X121589214Y-101288261D01*
X121684452Y-101335880D01*
X121874928Y-101335880D01*
X121970166Y-101288261D01*
X122017785Y-101240642D01*
X122065404Y-101145404D01*
X122065404Y-100954928D01*
X122017785Y-100859690D01*
X121970166Y-100812071D01*
X121874928Y-100764452D01*
X124579142Y-101240642D02*
X124531523Y-101288261D01*
X124388666Y-101335880D01*
X124293428Y-101335880D01*
X124150571Y-101288261D01*
X124055333Y-101193023D01*
X124007714Y-101097785D01*
X123960095Y-100907309D01*
X123960095Y-100764452D01*
X124007714Y-100573976D01*
X124055333Y-100478738D01*
X124150571Y-100383500D01*
X124293428Y-100335880D01*
X124388666Y-100335880D01*
X124531523Y-100383500D01*
X124579142Y-100431119D01*
X125531523Y-101335880D02*
X124960095Y-101335880D01*
X125245809Y-101335880D02*
X125245809Y-100335880D01*
X125150571Y-100478738D01*
X125055333Y-100573976D01*
X124960095Y-100621595D01*
X126007714Y-101335880D02*
X126198190Y-101335880D01*
X126293428Y-101288261D01*
X126341047Y-101240642D01*
X126436285Y-101097785D01*
X126483904Y-100907309D01*
X126483904Y-100526357D01*
X126436285Y-100431119D01*
X126388666Y-100383500D01*
X126293428Y-100335880D01*
X126102952Y-100335880D01*
X126007714Y-100383500D01*
X125960095Y-100431119D01*
X125912476Y-100526357D01*
X125912476Y-100764452D01*
X125960095Y-100859690D01*
X126007714Y-100907309D01*
X126102952Y-100954928D01*
X126293428Y-100954928D01*
X126388666Y-100907309D01*
X126436285Y-100859690D01*
X126483904Y-100764452D01*
X128650375Y-101240642D02*
X128602756Y-101288261D01*
X128459899Y-101335880D01*
X128364661Y-101335880D01*
X128221804Y-101288261D01*
X128126566Y-101193023D01*
X128078947Y-101097785D01*
X128031328Y-100907309D01*
X128031328Y-100764452D01*
X128078947Y-100573976D01*
X128126566Y-100478738D01*
X128221804Y-100383500D01*
X128364661Y-100335880D01*
X128459899Y-100335880D01*
X128602756Y-100383500D01*
X128650375Y-100431119D01*
X129031328Y-100431119D02*
X129078947Y-100383500D01*
X129174185Y-100335880D01*
X129412280Y-100335880D01*
X129507518Y-100383500D01*
X129555137Y-100431119D01*
X129602756Y-100526357D01*
X129602756Y-100621595D01*
X129555137Y-100764452D01*
X128983709Y-101335880D01*
X129602756Y-101335880D01*
X130221804Y-100335880D02*
X130317042Y-100335880D01*
X130412280Y-100383500D01*
X130459899Y-100431119D01*
X130507518Y-100526357D01*
X130555137Y-100716833D01*
X130555137Y-100954928D01*
X130507518Y-101145404D01*
X130459899Y-101240642D01*
X130412280Y-101288261D01*
X130317042Y-101335880D01*
X130221804Y-101335880D01*
X130126566Y-101288261D01*
X130078947Y-101240642D01*
X130031328Y-101145404D01*
X129983709Y-100954928D01*
X129983709Y-100716833D01*
X130031328Y-100526357D01*
X130078947Y-100431119D01*
X130126566Y-100383500D01*
X130221804Y-100335880D01*
X133514909Y-101240642D02*
X133467290Y-101288261D01*
X133324433Y-101335880D01*
X133229195Y-101335880D01*
X133086338Y-101288261D01*
X132991100Y-101193023D01*
X132943481Y-101097785D01*
X132895862Y-100907309D01*
X132895862Y-100764452D01*
X132943481Y-100573976D01*
X132991100Y-100478738D01*
X133086338Y-100383500D01*
X133229195Y-100335880D01*
X133324433Y-100335880D01*
X133467290Y-100383500D01*
X133514909Y-100431119D01*
X133895862Y-100431119D02*
X133943481Y-100383500D01*
X134038719Y-100335880D01*
X134276814Y-100335880D01*
X134372052Y-100383500D01*
X134419671Y-100431119D01*
X134467290Y-100526357D01*
X134467290Y-100621595D01*
X134419671Y-100764452D01*
X133848243Y-101335880D01*
X134467290Y-101335880D01*
X135419671Y-101335880D02*
X134848243Y-101335880D01*
X135133957Y-101335880D02*
X135133957Y-100335880D01*
X135038719Y-100478738D01*
X134943481Y-100573976D01*
X134848243Y-100621595D01*
X119606875Y-116027642D02*
X119559256Y-116075261D01*
X119416399Y-116122880D01*
X119321161Y-116122880D01*
X119178304Y-116075261D01*
X119083066Y-115980023D01*
X119035447Y-115884785D01*
X118987828Y-115694309D01*
X118987828Y-115551452D01*
X119035447Y-115360976D01*
X119083066Y-115265738D01*
X119178304Y-115170500D01*
X119321161Y-115122880D01*
X119416399Y-115122880D01*
X119559256Y-115170500D01*
X119606875Y-115218119D01*
X119987828Y-115218119D02*
X120035447Y-115170500D01*
X120130685Y-115122880D01*
X120368780Y-115122880D01*
X120464018Y-115170500D01*
X120511637Y-115218119D01*
X120559256Y-115313357D01*
X120559256Y-115408595D01*
X120511637Y-115551452D01*
X119940209Y-116122880D01*
X120559256Y-116122880D01*
X120940209Y-115218119D02*
X120987828Y-115170500D01*
X121083066Y-115122880D01*
X121321161Y-115122880D01*
X121416399Y-115170500D01*
X121464018Y-115218119D01*
X121511637Y-115313357D01*
X121511637Y-115408595D01*
X121464018Y-115551452D01*
X120892590Y-116122880D01*
X121511637Y-116122880D01*
X123771375Y-104597642D02*
X123723756Y-104645261D01*
X123580899Y-104692880D01*
X123485661Y-104692880D01*
X123342804Y-104645261D01*
X123247566Y-104550023D01*
X123199947Y-104454785D01*
X123152328Y-104264309D01*
X123152328Y-104121452D01*
X123199947Y-103930976D01*
X123247566Y-103835738D01*
X123342804Y-103740500D01*
X123485661Y-103692880D01*
X123580899Y-103692880D01*
X123723756Y-103740500D01*
X123771375Y-103788119D01*
X124152328Y-103788119D02*
X124199947Y-103740500D01*
X124295185Y-103692880D01*
X124533280Y-103692880D01*
X124628518Y-103740500D01*
X124676137Y-103788119D01*
X124723756Y-103883357D01*
X124723756Y-103978595D01*
X124676137Y-104121452D01*
X124104709Y-104692880D01*
X124723756Y-104692880D01*
X125057090Y-103692880D02*
X125676137Y-103692880D01*
X125342804Y-104073833D01*
X125485661Y-104073833D01*
X125580899Y-104121452D01*
X125628518Y-104169071D01*
X125676137Y-104264309D01*
X125676137Y-104502404D01*
X125628518Y-104597642D01*
X125580899Y-104645261D01*
X125485661Y-104692880D01*
X125199947Y-104692880D01*
X125104709Y-104645261D01*
X125057090Y-104597642D01*
X123570375Y-115773642D02*
X123522756Y-115821261D01*
X123379899Y-115868880D01*
X123284661Y-115868880D01*
X123141804Y-115821261D01*
X123046566Y-115726023D01*
X122998947Y-115630785D01*
X122951328Y-115440309D01*
X122951328Y-115297452D01*
X122998947Y-115106976D01*
X123046566Y-115011738D01*
X123141804Y-114916500D01*
X123284661Y-114868880D01*
X123379899Y-114868880D01*
X123522756Y-114916500D01*
X123570375Y-114964119D01*
X123951328Y-114964119D02*
X123998947Y-114916500D01*
X124094185Y-114868880D01*
X124332280Y-114868880D01*
X124427518Y-114916500D01*
X124475137Y-114964119D01*
X124522756Y-115059357D01*
X124522756Y-115154595D01*
X124475137Y-115297452D01*
X123903709Y-115868880D01*
X124522756Y-115868880D01*
X125379899Y-115202214D02*
X125379899Y-115868880D01*
X125141804Y-114821261D02*
X124903709Y-115535547D01*
X125522756Y-115535547D01*
X128089375Y-104597642D02*
X128041756Y-104645261D01*
X127898899Y-104692880D01*
X127803661Y-104692880D01*
X127660804Y-104645261D01*
X127565566Y-104550023D01*
X127517947Y-104454785D01*
X127470328Y-104264309D01*
X127470328Y-104121452D01*
X127517947Y-103930976D01*
X127565566Y-103835738D01*
X127660804Y-103740500D01*
X127803661Y-103692880D01*
X127898899Y-103692880D01*
X128041756Y-103740500D01*
X128089375Y-103788119D01*
X128470328Y-103788119D02*
X128517947Y-103740500D01*
X128613185Y-103692880D01*
X128851280Y-103692880D01*
X128946518Y-103740500D01*
X128994137Y-103788119D01*
X129041756Y-103883357D01*
X129041756Y-103978595D01*
X128994137Y-104121452D01*
X128422709Y-104692880D01*
X129041756Y-104692880D01*
X129946518Y-103692880D02*
X129470328Y-103692880D01*
X129422709Y-104169071D01*
X129470328Y-104121452D01*
X129565566Y-104073833D01*
X129803661Y-104073833D01*
X129898899Y-104121452D01*
X129946518Y-104169071D01*
X129994137Y-104264309D01*
X129994137Y-104502404D01*
X129946518Y-104597642D01*
X129898899Y-104645261D01*
X129803661Y-104692880D01*
X129565566Y-104692880D01*
X129470328Y-104645261D01*
X129422709Y-104597642D01*
X128034642Y-115773642D02*
X127987023Y-115821261D01*
X127844166Y-115868880D01*
X127748928Y-115868880D01*
X127606071Y-115821261D01*
X127510833Y-115726023D01*
X127463214Y-115630785D01*
X127415595Y-115440309D01*
X127415595Y-115297452D01*
X127463214Y-115106976D01*
X127510833Y-115011738D01*
X127606071Y-114916500D01*
X127748928Y-114868880D01*
X127844166Y-114868880D01*
X127987023Y-114916500D01*
X128034642Y-114964119D01*
X128415595Y-114964119D02*
X128463214Y-114916500D01*
X128558452Y-114868880D01*
X128796547Y-114868880D01*
X128891785Y-114916500D01*
X128939404Y-114964119D01*
X128987023Y-115059357D01*
X128987023Y-115154595D01*
X128939404Y-115297452D01*
X128367976Y-115868880D01*
X128987023Y-115868880D01*
X129844166Y-114868880D02*
X129653690Y-114868880D01*
X129558452Y-114916500D01*
X129510833Y-114964119D01*
X129415595Y-115106976D01*
X129367976Y-115297452D01*
X129367976Y-115678404D01*
X129415595Y-115773642D01*
X129463214Y-115821261D01*
X129558452Y-115868880D01*
X129748928Y-115868880D01*
X129844166Y-115821261D01*
X129891785Y-115773642D01*
X129939404Y-115678404D01*
X129939404Y-115440309D01*
X129891785Y-115345071D01*
X129844166Y-115297452D01*
X129748928Y-115249833D01*
X129558452Y-115249833D01*
X129463214Y-115297452D01*
X129415595Y-115345071D01*
X129367976Y-115440309D01*
X132853409Y-104597642D02*
X132805790Y-104645261D01*
X132662933Y-104692880D01*
X132567695Y-104692880D01*
X132424838Y-104645261D01*
X132329600Y-104550023D01*
X132281981Y-104454785D01*
X132234362Y-104264309D01*
X132234362Y-104121452D01*
X132281981Y-103930976D01*
X132329600Y-103835738D01*
X132424838Y-103740500D01*
X132567695Y-103692880D01*
X132662933Y-103692880D01*
X132805790Y-103740500D01*
X132853409Y-103788119D01*
X133234362Y-103788119D02*
X133281981Y-103740500D01*
X133377219Y-103692880D01*
X133615314Y-103692880D01*
X133710552Y-103740500D01*
X133758171Y-103788119D01*
X133805790Y-103883357D01*
X133805790Y-103978595D01*
X133758171Y-104121452D01*
X133186743Y-104692880D01*
X133805790Y-104692880D01*
X134139124Y-103692880D02*
X134805790Y-103692880D01*
X134377219Y-104692880D01*
X132453142Y-115773642D02*
X132405523Y-115821261D01*
X132262666Y-115868880D01*
X132167428Y-115868880D01*
X132024571Y-115821261D01*
X131929333Y-115726023D01*
X131881714Y-115630785D01*
X131834095Y-115440309D01*
X131834095Y-115297452D01*
X131881714Y-115106976D01*
X131929333Y-115011738D01*
X132024571Y-114916500D01*
X132167428Y-114868880D01*
X132262666Y-114868880D01*
X132405523Y-114916500D01*
X132453142Y-114964119D01*
X132834095Y-114964119D02*
X132881714Y-114916500D01*
X132976952Y-114868880D01*
X133215047Y-114868880D01*
X133310285Y-114916500D01*
X133357904Y-114964119D01*
X133405523Y-115059357D01*
X133405523Y-115154595D01*
X133357904Y-115297452D01*
X132786476Y-115868880D01*
X133405523Y-115868880D01*
X133976952Y-115297452D02*
X133881714Y-115249833D01*
X133834095Y-115202214D01*
X133786476Y-115106976D01*
X133786476Y-115059357D01*
X133834095Y-114964119D01*
X133881714Y-114916500D01*
X133976952Y-114868880D01*
X134167428Y-114868880D01*
X134262666Y-114916500D01*
X134310285Y-114964119D01*
X134357904Y-115059357D01*
X134357904Y-115106976D01*
X134310285Y-115202214D01*
X134262666Y-115249833D01*
X134167428Y-115297452D01*
X133976952Y-115297452D01*
X133881714Y-115345071D01*
X133834095Y-115392690D01*
X133786476Y-115487928D01*
X133786476Y-115678404D01*
X133834095Y-115773642D01*
X133881714Y-115821261D01*
X133976952Y-115868880D01*
X134167428Y-115868880D01*
X134262666Y-115821261D01*
X134310285Y-115773642D01*
X134357904Y-115678404D01*
X134357904Y-115487928D01*
X134310285Y-115392690D01*
X134262666Y-115345071D01*
X134167428Y-115297452D01*
X146931142Y-104597642D02*
X146883523Y-104645261D01*
X146740666Y-104692880D01*
X146645428Y-104692880D01*
X146502571Y-104645261D01*
X146407333Y-104550023D01*
X146359714Y-104454785D01*
X146312095Y-104264309D01*
X146312095Y-104121452D01*
X146359714Y-103930976D01*
X146407333Y-103835738D01*
X146502571Y-103740500D01*
X146645428Y-103692880D01*
X146740666Y-103692880D01*
X146883523Y-103740500D01*
X146931142Y-103788119D01*
X147312095Y-103788119D02*
X147359714Y-103740500D01*
X147454952Y-103692880D01*
X147693047Y-103692880D01*
X147788285Y-103740500D01*
X147835904Y-103788119D01*
X147883523Y-103883357D01*
X147883523Y-103978595D01*
X147835904Y-104121452D01*
X147264476Y-104692880D01*
X147883523Y-104692880D01*
X148359714Y-104692880D02*
X148550190Y-104692880D01*
X148645428Y-104645261D01*
X148693047Y-104597642D01*
X148788285Y-104454785D01*
X148835904Y-104264309D01*
X148835904Y-103883357D01*
X148788285Y-103788119D01*
X148740666Y-103740500D01*
X148645428Y-103692880D01*
X148454952Y-103692880D01*
X148359714Y-103740500D01*
X148312095Y-103788119D01*
X148264476Y-103883357D01*
X148264476Y-104121452D01*
X148312095Y-104216690D01*
X148359714Y-104264309D01*
X148454952Y-104311928D01*
X148645428Y-104311928D01*
X148740666Y-104264309D01*
X148788285Y-104216690D01*
X148835904Y-104121452D01*
X147185142Y-115519642D02*
X147137523Y-115567261D01*
X146994666Y-115614880D01*
X146899428Y-115614880D01*
X146756571Y-115567261D01*
X146661333Y-115472023D01*
X146613714Y-115376785D01*
X146566095Y-115186309D01*
X146566095Y-115043452D01*
X146613714Y-114852976D01*
X146661333Y-114757738D01*
X146756571Y-114662500D01*
X146899428Y-114614880D01*
X146994666Y-114614880D01*
X147137523Y-114662500D01*
X147185142Y-114710119D01*
X147518476Y-114614880D02*
X148137523Y-114614880D01*
X147804190Y-114995833D01*
X147947047Y-114995833D01*
X148042285Y-115043452D01*
X148089904Y-115091071D01*
X148137523Y-115186309D01*
X148137523Y-115424404D01*
X148089904Y-115519642D01*
X148042285Y-115567261D01*
X147947047Y-115614880D01*
X147661333Y-115614880D01*
X147566095Y-115567261D01*
X147518476Y-115519642D01*
X148756571Y-114614880D02*
X148851809Y-114614880D01*
X148947047Y-114662500D01*
X148994666Y-114710119D01*
X149042285Y-114805357D01*
X149089904Y-114995833D01*
X149089904Y-115233928D01*
X149042285Y-115424404D01*
X148994666Y-115519642D01*
X148947047Y-115567261D01*
X148851809Y-115614880D01*
X148756571Y-115614880D01*
X148661333Y-115567261D01*
X148613714Y-115519642D01*
X148566095Y-115424404D01*
X148518476Y-115233928D01*
X148518476Y-114995833D01*
X148566095Y-114805357D01*
X148613714Y-114710119D01*
X148661333Y-114662500D01*
X148756571Y-114614880D01*
X150233142Y-104597642D02*
X150185523Y-104645261D01*
X150042666Y-104692880D01*
X149947428Y-104692880D01*
X149804571Y-104645261D01*
X149709333Y-104550023D01*
X149661714Y-104454785D01*
X149614095Y-104264309D01*
X149614095Y-104121452D01*
X149661714Y-103930976D01*
X149709333Y-103835738D01*
X149804571Y-103740500D01*
X149947428Y-103692880D01*
X150042666Y-103692880D01*
X150185523Y-103740500D01*
X150233142Y-103788119D01*
X150566476Y-103692880D02*
X151185523Y-103692880D01*
X150852190Y-104073833D01*
X150995047Y-104073833D01*
X151090285Y-104121452D01*
X151137904Y-104169071D01*
X151185523Y-104264309D01*
X151185523Y-104502404D01*
X151137904Y-104597642D01*
X151090285Y-104645261D01*
X150995047Y-104692880D01*
X150709333Y-104692880D01*
X150614095Y-104645261D01*
X150566476Y-104597642D01*
X152137904Y-104692880D02*
X151566476Y-104692880D01*
X151852190Y-104692880D02*
X151852190Y-103692880D01*
X151756952Y-103835738D01*
X151661714Y-103930976D01*
X151566476Y-103978595D01*
X153281142Y-104597642D02*
X153233523Y-104645261D01*
X153090666Y-104692880D01*
X152995428Y-104692880D01*
X152852571Y-104645261D01*
X152757333Y-104550023D01*
X152709714Y-104454785D01*
X152662095Y-104264309D01*
X152662095Y-104121452D01*
X152709714Y-103930976D01*
X152757333Y-103835738D01*
X152852571Y-103740500D01*
X152995428Y-103692880D01*
X153090666Y-103692880D01*
X153233523Y-103740500D01*
X153281142Y-103788119D01*
X153614476Y-103692880D02*
X154233523Y-103692880D01*
X153900190Y-104073833D01*
X154043047Y-104073833D01*
X154138285Y-104121452D01*
X154185904Y-104169071D01*
X154233523Y-104264309D01*
X154233523Y-104502404D01*
X154185904Y-104597642D01*
X154138285Y-104645261D01*
X154043047Y-104692880D01*
X153757333Y-104692880D01*
X153662095Y-104645261D01*
X153614476Y-104597642D01*
X154566857Y-103692880D02*
X155185904Y-103692880D01*
X154852571Y-104073833D01*
X154995428Y-104073833D01*
X155090666Y-104121452D01*
X155138285Y-104169071D01*
X155185904Y-104264309D01*
X155185904Y-104502404D01*
X155138285Y-104597642D01*
X155090666Y-104645261D01*
X154995428Y-104692880D01*
X154709714Y-104692880D01*
X154614476Y-104645261D01*
X154566857Y-104597642D01*
X153789142Y-115519642D02*
X153741523Y-115567261D01*
X153598666Y-115614880D01*
X153503428Y-115614880D01*
X153360571Y-115567261D01*
X153265333Y-115472023D01*
X153217714Y-115376785D01*
X153170095Y-115186309D01*
X153170095Y-115043452D01*
X153217714Y-114852976D01*
X153265333Y-114757738D01*
X153360571Y-114662500D01*
X153503428Y-114614880D01*
X153598666Y-114614880D01*
X153741523Y-114662500D01*
X153789142Y-114710119D01*
X154122476Y-114614880D02*
X154741523Y-114614880D01*
X154408190Y-114995833D01*
X154551047Y-114995833D01*
X154646285Y-115043452D01*
X154693904Y-115091071D01*
X154741523Y-115186309D01*
X154741523Y-115424404D01*
X154693904Y-115519642D01*
X154646285Y-115567261D01*
X154551047Y-115614880D01*
X154265333Y-115614880D01*
X154170095Y-115567261D01*
X154122476Y-115519642D01*
X155598666Y-114948214D02*
X155598666Y-115614880D01*
X155360571Y-114567261D02*
X155122476Y-115281547D01*
X155741523Y-115281547D01*
X108577142Y-127089142D02*
X108529523Y-127136761D01*
X108386666Y-127184380D01*
X108291428Y-127184380D01*
X108148571Y-127136761D01*
X108053333Y-127041523D01*
X108005714Y-126946285D01*
X107958095Y-126755809D01*
X107958095Y-126612952D01*
X108005714Y-126422476D01*
X108053333Y-126327238D01*
X108148571Y-126232000D01*
X108291428Y-126184380D01*
X108386666Y-126184380D01*
X108529523Y-126232000D01*
X108577142Y-126279619D01*
X108910476Y-126184380D02*
X109529523Y-126184380D01*
X109196190Y-126565333D01*
X109339047Y-126565333D01*
X109434285Y-126612952D01*
X109481904Y-126660571D01*
X109529523Y-126755809D01*
X109529523Y-126993904D01*
X109481904Y-127089142D01*
X109434285Y-127136761D01*
X109339047Y-127184380D01*
X109053333Y-127184380D01*
X108958095Y-127136761D01*
X108910476Y-127089142D01*
X110434285Y-126184380D02*
X109958095Y-126184380D01*
X109910476Y-126660571D01*
X109958095Y-126612952D01*
X110053333Y-126565333D01*
X110291428Y-126565333D01*
X110386666Y-126612952D01*
X110434285Y-126660571D01*
X110481904Y-126755809D01*
X110481904Y-126993904D01*
X110434285Y-127089142D01*
X110386666Y-127136761D01*
X110291428Y-127184380D01*
X110053333Y-127184380D01*
X109958095Y-127136761D01*
X109910476Y-127089142D01*
D11*
X107012619Y-69154523D02*
X107012619Y-67884523D01*
X107315000Y-67884523D01*
X107496428Y-67945000D01*
X107617380Y-68065952D01*
X107677857Y-68186904D01*
X107738333Y-68428809D01*
X107738333Y-68610238D01*
X107677857Y-68852142D01*
X107617380Y-68973095D01*
X107496428Y-69094047D01*
X107315000Y-69154523D01*
X107012619Y-69154523D01*
X108947857Y-69154523D02*
X108222142Y-69154523D01*
X108585000Y-69154523D02*
X108585000Y-67884523D01*
X108464047Y-68065952D01*
X108343095Y-68186904D01*
X108222142Y-68247380D01*
D10*
X160805904Y-73858380D02*
X160805904Y-72858380D01*
X161044000Y-72858380D01*
X161186857Y-72906000D01*
X161282095Y-73001238D01*
X161329714Y-73096476D01*
X161377333Y-73286952D01*
X161377333Y-73429809D01*
X161329714Y-73620285D01*
X161282095Y-73715523D01*
X161186857Y-73810761D01*
X161044000Y-73858380D01*
X160805904Y-73858380D01*
X161758285Y-72953619D02*
X161805904Y-72906000D01*
X161901142Y-72858380D01*
X162139238Y-72858380D01*
X162234476Y-72906000D01*
X162282095Y-72953619D01*
X162329714Y-73048857D01*
X162329714Y-73144095D01*
X162282095Y-73286952D01*
X161710666Y-73858380D01*
X162329714Y-73858380D01*
X168703861Y-74366380D02*
X168703861Y-73366380D01*
X169275289Y-74366380D02*
X168846718Y-73794952D01*
X169275289Y-73366380D02*
X168703861Y-73937809D01*
X158972138Y-126182380D02*
X158972138Y-125182380D01*
X159210234Y-125182380D01*
X159353091Y-125230000D01*
X159448329Y-125325238D01*
X159495948Y-125420476D01*
X159543567Y-125610952D01*
X159543567Y-125753809D01*
X159495948Y-125944285D01*
X159448329Y-126039523D01*
X159353091Y-126134761D01*
X159210234Y-126182380D01*
X158972138Y-126182380D01*
X159876900Y-125182380D02*
X160495948Y-125182380D01*
X160162614Y-125563333D01*
X160305472Y-125563333D01*
X160400710Y-125610952D01*
X160448329Y-125658571D01*
X160495948Y-125753809D01*
X160495948Y-125991904D01*
X160448329Y-126087142D01*
X160400710Y-126134761D01*
X160305472Y-126182380D01*
X160019757Y-126182380D01*
X159924519Y-126134761D01*
X159876900Y-126087142D01*
X158940329Y-124912380D02*
X158940329Y-123912380D01*
X159511757Y-124912380D02*
X159083186Y-124340952D01*
X159511757Y-123912380D02*
X158940329Y-124483809D01*
X150645904Y-76652380D02*
X150645904Y-75652380D01*
X150884000Y-75652380D01*
X151026857Y-75700000D01*
X151122095Y-75795238D01*
X151169714Y-75890476D01*
X151217333Y-76080952D01*
X151217333Y-76223809D01*
X151169714Y-76414285D01*
X151122095Y-76509523D01*
X151026857Y-76604761D01*
X150884000Y-76652380D01*
X150645904Y-76652380D01*
X152074476Y-75985714D02*
X152074476Y-76652380D01*
X151836380Y-75604761D02*
X151598285Y-76319047D01*
X152217333Y-76319047D01*
X158302095Y-75128380D02*
X158302095Y-74128380D01*
X158873523Y-75128380D02*
X158444952Y-74556952D01*
X158873523Y-74128380D02*
X158302095Y-74699809D01*
X153439904Y-131262380D02*
X153439904Y-130262380D01*
X153678000Y-130262380D01*
X153820857Y-130310000D01*
X153916095Y-130405238D01*
X153963714Y-130500476D01*
X154011333Y-130690952D01*
X154011333Y-130833809D01*
X153963714Y-131024285D01*
X153916095Y-131119523D01*
X153820857Y-131214761D01*
X153678000Y-131262380D01*
X153439904Y-131262380D01*
X154916095Y-130262380D02*
X154439904Y-130262380D01*
X154392285Y-130738571D01*
X154439904Y-130690952D01*
X154535142Y-130643333D01*
X154773238Y-130643333D01*
X154868476Y-130690952D01*
X154916095Y-130738571D01*
X154963714Y-130833809D01*
X154963714Y-131071904D01*
X154916095Y-131167142D01*
X154868476Y-131214761D01*
X154773238Y-131262380D01*
X154535142Y-131262380D01*
X154439904Y-131214761D01*
X154392285Y-131167142D01*
X156270095Y-129230380D02*
X156270095Y-128230380D01*
X156841523Y-129230380D02*
X156412952Y-128658952D01*
X156841523Y-128230380D02*
X156270095Y-128801809D01*
X135576666Y-81280380D02*
X135576666Y-81994666D01*
X135529047Y-82137523D01*
X135433809Y-82232761D01*
X135290952Y-82280380D01*
X135195714Y-82280380D01*
X136576666Y-82280380D02*
X136005238Y-82280380D01*
X136290952Y-82280380D02*
X136290952Y-81280380D01*
X136195714Y-81423238D01*
X136100476Y-81518476D01*
X136005238Y-81566095D01*
X117776666Y-81534380D02*
X117776666Y-82248666D01*
X117729047Y-82391523D01*
X117633809Y-82486761D01*
X117490952Y-82534380D01*
X117395714Y-82534380D01*
X118205238Y-81629619D02*
X118252857Y-81582000D01*
X118348095Y-81534380D01*
X118586190Y-81534380D01*
X118681428Y-81582000D01*
X118729047Y-81629619D01*
X118776666Y-81724857D01*
X118776666Y-81820095D01*
X118729047Y-81962952D01*
X118157619Y-82534380D01*
X118776666Y-82534380D01*
X134052666Y-123688380D02*
X134052666Y-124402666D01*
X134005047Y-124545523D01*
X133909809Y-124640761D01*
X133766952Y-124688380D01*
X133671714Y-124688380D01*
X134433619Y-123688380D02*
X135052666Y-123688380D01*
X134719333Y-124069333D01*
X134862190Y-124069333D01*
X134957428Y-124116952D01*
X135005047Y-124164571D01*
X135052666Y-124259809D01*
X135052666Y-124497904D01*
X135005047Y-124593142D01*
X134957428Y-124640761D01*
X134862190Y-124688380D01*
X134576476Y-124688380D01*
X134481238Y-124640761D01*
X134433619Y-124593142D01*
X118050666Y-123434380D02*
X118050666Y-124148666D01*
X118003047Y-124291523D01*
X117907809Y-124386761D01*
X117764952Y-124434380D01*
X117669714Y-124434380D01*
X118955428Y-123767714D02*
X118955428Y-124434380D01*
X118717333Y-123386761D02*
X118479238Y-124101047D01*
X119098285Y-124101047D01*
D11*
X92286666Y-139766523D02*
X92286666Y-140673666D01*
X92226190Y-140855095D01*
X92105238Y-140976047D01*
X91923809Y-141036523D01*
X91802857Y-141036523D01*
X93496190Y-139766523D02*
X92891428Y-139766523D01*
X92830952Y-140371285D01*
X92891428Y-140310809D01*
X93012380Y-140250333D01*
X93314761Y-140250333D01*
X93435714Y-140310809D01*
X93496190Y-140371285D01*
X93556666Y-140492238D01*
X93556666Y-140794619D01*
X93496190Y-140915571D01*
X93435714Y-140976047D01*
X93314761Y-141036523D01*
X93012380Y-141036523D01*
X92891428Y-140976047D01*
X92830952Y-140915571D01*
D10*
X116745666Y-83860380D02*
X116745666Y-84574666D01*
X116698047Y-84717523D01*
X116602809Y-84812761D01*
X116459952Y-84860380D01*
X116364714Y-84860380D01*
X117364714Y-84288952D02*
X117269476Y-84241333D01*
X117221857Y-84193714D01*
X117174238Y-84098476D01*
X117174238Y-84050857D01*
X117221857Y-83955619D01*
X117269476Y-83908000D01*
X117364714Y-83860380D01*
X117555190Y-83860380D01*
X117650428Y-83908000D01*
X117698047Y-83955619D01*
X117745666Y-84050857D01*
X117745666Y-84098476D01*
X117698047Y-84193714D01*
X117650428Y-84241333D01*
X117555190Y-84288952D01*
X117364714Y-84288952D01*
X117269476Y-84336571D01*
X117221857Y-84384190D01*
X117174238Y-84479428D01*
X117174238Y-84669904D01*
X117221857Y-84765142D01*
X117269476Y-84812761D01*
X117364714Y-84860380D01*
X117555190Y-84860380D01*
X117650428Y-84812761D01*
X117698047Y-84765142D01*
X117745666Y-84669904D01*
X117745666Y-84479428D01*
X117698047Y-84384190D01*
X117650428Y-84336571D01*
X117555190Y-84288952D01*
X113744476Y-121372380D02*
X113744476Y-122086666D01*
X113696857Y-122229523D01*
X113601619Y-122324761D01*
X113458761Y-122372380D01*
X113363523Y-122372380D01*
X114744476Y-122372380D02*
X114173047Y-122372380D01*
X114458761Y-122372380D02*
X114458761Y-121372380D01*
X114363523Y-121515238D01*
X114268285Y-121610476D01*
X114173047Y-121658095D01*
X115363523Y-121372380D02*
X115458761Y-121372380D01*
X115554000Y-121420000D01*
X115601619Y-121467619D01*
X115649238Y-121562857D01*
X115696857Y-121753333D01*
X115696857Y-121991428D01*
X115649238Y-122181904D01*
X115601619Y-122277142D01*
X115554000Y-122324761D01*
X115458761Y-122372380D01*
X115363523Y-122372380D01*
X115268285Y-122324761D01*
X115220666Y-122277142D01*
X115173047Y-122181904D01*
X115125428Y-121991428D01*
X115125428Y-121753333D01*
X115173047Y-121562857D01*
X115220666Y-121467619D01*
X115268285Y-121420000D01*
X115363523Y-121372380D01*
X157685404Y-64786880D02*
X157685404Y-63786880D01*
X158256833Y-64786880D02*
X157828261Y-64215452D01*
X158256833Y-63786880D02*
X157685404Y-64358309D01*
X159209214Y-64786880D02*
X158637785Y-64786880D01*
X158923500Y-64786880D02*
X158923500Y-63786880D01*
X158828261Y-63929738D01*
X158733023Y-64024976D01*
X158637785Y-64072595D01*
X149811404Y-118308380D02*
X149811404Y-117308380D01*
X150382833Y-118308380D02*
X149954261Y-117736952D01*
X150382833Y-117308380D02*
X149811404Y-117879809D01*
X150763785Y-117403619D02*
X150811404Y-117356000D01*
X150906642Y-117308380D01*
X151144738Y-117308380D01*
X151239976Y-117356000D01*
X151287595Y-117403619D01*
X151335214Y-117498857D01*
X151335214Y-117594095D01*
X151287595Y-117736952D01*
X150716166Y-118308380D01*
X151335214Y-118308380D01*
X142327333Y-92292380D02*
X141994000Y-91816190D01*
X141755904Y-92292380D02*
X141755904Y-91292380D01*
X142136857Y-91292380D01*
X142232095Y-91340000D01*
X142279714Y-91387619D01*
X142327333Y-91482857D01*
X142327333Y-91625714D01*
X142279714Y-91720952D01*
X142232095Y-91768571D01*
X142136857Y-91816190D01*
X141755904Y-91816190D01*
X143279714Y-92292380D02*
X142708285Y-92292380D01*
X142994000Y-92292380D02*
X142994000Y-91292380D01*
X142898761Y-91435238D01*
X142803523Y-91530476D01*
X142708285Y-91578095D01*
X130389333Y-76652380D02*
X130056000Y-76176190D01*
X129817904Y-76652380D02*
X129817904Y-75652380D01*
X130198857Y-75652380D01*
X130294095Y-75700000D01*
X130341714Y-75747619D01*
X130389333Y-75842857D01*
X130389333Y-75985714D01*
X130341714Y-76080952D01*
X130294095Y-76128571D01*
X130198857Y-76176190D01*
X129817904Y-76176190D01*
X130770285Y-75747619D02*
X130817904Y-75700000D01*
X130913142Y-75652380D01*
X131151238Y-75652380D01*
X131246476Y-75700000D01*
X131294095Y-75747619D01*
X131341714Y-75842857D01*
X131341714Y-75938095D01*
X131294095Y-76080952D01*
X130722666Y-76652380D01*
X131341714Y-76652380D01*
X160312380Y-88812666D02*
X159836190Y-89146000D01*
X160312380Y-89384095D02*
X159312380Y-89384095D01*
X159312380Y-89003142D01*
X159360000Y-88907904D01*
X159407619Y-88860285D01*
X159502857Y-88812666D01*
X159645714Y-88812666D01*
X159740952Y-88860285D01*
X159788571Y-88907904D01*
X159836190Y-89003142D01*
X159836190Y-89384095D01*
X159312380Y-88479333D02*
X159312380Y-87860285D01*
X159693333Y-88193619D01*
X159693333Y-88050761D01*
X159740952Y-87955523D01*
X159788571Y-87907904D01*
X159883809Y-87860285D01*
X160121904Y-87860285D01*
X160217142Y-87907904D01*
X160264761Y-87955523D01*
X160312380Y-88050761D01*
X160312380Y-88336476D01*
X160264761Y-88431714D01*
X160217142Y-88479333D01*
X159598609Y-119832380D02*
X159265276Y-119356190D01*
X159027180Y-119832380D02*
X159027180Y-118832380D01*
X159408133Y-118832380D01*
X159503371Y-118880000D01*
X159550990Y-118927619D01*
X159598609Y-119022857D01*
X159598609Y-119165714D01*
X159550990Y-119260952D01*
X159503371Y-119308571D01*
X159408133Y-119356190D01*
X159027180Y-119356190D01*
X160455752Y-119165714D02*
X160455752Y-119832380D01*
X160217656Y-118784761D02*
X159979561Y-119499047D01*
X160598609Y-119499047D01*
X127237833Y-131676380D02*
X126904500Y-131200190D01*
X126666404Y-131676380D02*
X126666404Y-130676380D01*
X127047357Y-130676380D01*
X127142595Y-130724000D01*
X127190214Y-130771619D01*
X127237833Y-130866857D01*
X127237833Y-131009714D01*
X127190214Y-131104952D01*
X127142595Y-131152571D01*
X127047357Y-131200190D01*
X126666404Y-131200190D01*
X128142595Y-130676380D02*
X127666404Y-130676380D01*
X127618785Y-131152571D01*
X127666404Y-131104952D01*
X127761642Y-131057333D01*
X127999738Y-131057333D01*
X128094976Y-131104952D01*
X128142595Y-131152571D01*
X128190214Y-131247809D01*
X128190214Y-131485904D01*
X128142595Y-131581142D01*
X128094976Y-131628761D01*
X127999738Y-131676380D01*
X127761642Y-131676380D01*
X127666404Y-131628761D01*
X127618785Y-131581142D01*
X120690333Y-93301880D02*
X120357000Y-92825690D01*
X120118904Y-93301880D02*
X120118904Y-92301880D01*
X120499857Y-92301880D01*
X120595095Y-92349500D01*
X120642714Y-92397119D01*
X120690333Y-92492357D01*
X120690333Y-92635214D01*
X120642714Y-92730452D01*
X120595095Y-92778071D01*
X120499857Y-92825690D01*
X120118904Y-92825690D01*
X121547476Y-92301880D02*
X121357000Y-92301880D01*
X121261761Y-92349500D01*
X121214142Y-92397119D01*
X121118904Y-92539976D01*
X121071285Y-92730452D01*
X121071285Y-93111404D01*
X121118904Y-93206642D01*
X121166523Y-93254261D01*
X121261761Y-93301880D01*
X121452238Y-93301880D01*
X121547476Y-93254261D01*
X121595095Y-93206642D01*
X121642714Y-93111404D01*
X121642714Y-92873309D01*
X121595095Y-92778071D01*
X121547476Y-92730452D01*
X121452238Y-92682833D01*
X121261761Y-92682833D01*
X121166523Y-92730452D01*
X121118904Y-92778071D01*
X121071285Y-92873309D01*
X125055333Y-93301880D02*
X124722000Y-92825690D01*
X124483904Y-93301880D02*
X124483904Y-92301880D01*
X124864857Y-92301880D01*
X124960095Y-92349500D01*
X125007714Y-92397119D01*
X125055333Y-92492357D01*
X125055333Y-92635214D01*
X125007714Y-92730452D01*
X124960095Y-92778071D01*
X124864857Y-92825690D01*
X124483904Y-92825690D01*
X125388666Y-92301880D02*
X126055333Y-92301880D01*
X125626761Y-93301880D01*
X129476833Y-93301880D02*
X129143500Y-92825690D01*
X128905404Y-93301880D02*
X128905404Y-92301880D01*
X129286357Y-92301880D01*
X129381595Y-92349500D01*
X129429214Y-92397119D01*
X129476833Y-92492357D01*
X129476833Y-92635214D01*
X129429214Y-92730452D01*
X129381595Y-92778071D01*
X129286357Y-92825690D01*
X128905404Y-92825690D01*
X130048261Y-92730452D02*
X129953023Y-92682833D01*
X129905404Y-92635214D01*
X129857785Y-92539976D01*
X129857785Y-92492357D01*
X129905404Y-92397119D01*
X129953023Y-92349500D01*
X130048261Y-92301880D01*
X130238738Y-92301880D01*
X130333976Y-92349500D01*
X130381595Y-92397119D01*
X130429214Y-92492357D01*
X130429214Y-92539976D01*
X130381595Y-92635214D01*
X130333976Y-92682833D01*
X130238738Y-92730452D01*
X130048261Y-92730452D01*
X129953023Y-92778071D01*
X129905404Y-92825690D01*
X129857785Y-92920928D01*
X129857785Y-93111404D01*
X129905404Y-93206642D01*
X129953023Y-93254261D01*
X130048261Y-93301880D01*
X130238738Y-93301880D01*
X130333976Y-93254261D01*
X130381595Y-93206642D01*
X130429214Y-93111404D01*
X130429214Y-92920928D01*
X130381595Y-92825690D01*
X130333976Y-92778071D01*
X130238738Y-92730452D01*
X133691333Y-93301880D02*
X133358000Y-92825690D01*
X133119904Y-93301880D02*
X133119904Y-92301880D01*
X133500857Y-92301880D01*
X133596095Y-92349500D01*
X133643714Y-92397119D01*
X133691333Y-92492357D01*
X133691333Y-92635214D01*
X133643714Y-92730452D01*
X133596095Y-92778071D01*
X133500857Y-92825690D01*
X133119904Y-92825690D01*
X134167523Y-93301880D02*
X134358000Y-93301880D01*
X134453238Y-93254261D01*
X134500857Y-93206642D01*
X134596095Y-93063785D01*
X134643714Y-92873309D01*
X134643714Y-92492357D01*
X134596095Y-92397119D01*
X134548476Y-92349500D01*
X134453238Y-92301880D01*
X134262761Y-92301880D01*
X134167523Y-92349500D01*
X134119904Y-92397119D01*
X134072285Y-92492357D01*
X134072285Y-92730452D01*
X134119904Y-92825690D01*
X134167523Y-92873309D01*
X134262761Y-92920928D01*
X134453238Y-92920928D01*
X134548476Y-92873309D01*
X134596095Y-92825690D01*
X134643714Y-92730452D01*
X140152380Y-91217357D02*
X139676190Y-91550690D01*
X140152380Y-91788785D02*
X139152380Y-91788785D01*
X139152380Y-91407833D01*
X139200000Y-91312595D01*
X139247619Y-91264976D01*
X139342857Y-91217357D01*
X139485714Y-91217357D01*
X139580952Y-91264976D01*
X139628571Y-91312595D01*
X139676190Y-91407833D01*
X139676190Y-91788785D01*
X140152380Y-90264976D02*
X140152380Y-90836404D01*
X140152380Y-90550690D02*
X139152380Y-90550690D01*
X139295238Y-90645928D01*
X139390476Y-90741166D01*
X139438095Y-90836404D01*
X139152380Y-89645928D02*
X139152380Y-89550690D01*
X139200000Y-89455452D01*
X139247619Y-89407833D01*
X139342857Y-89360214D01*
X139533333Y-89312595D01*
X139771428Y-89312595D01*
X139961904Y-89360214D01*
X140057142Y-89407833D01*
X140104761Y-89455452D01*
X140152380Y-89550690D01*
X140152380Y-89645928D01*
X140104761Y-89741166D01*
X140057142Y-89788785D01*
X139961904Y-89836404D01*
X139771428Y-89884023D01*
X139533333Y-89884023D01*
X139342857Y-89836404D01*
X139247619Y-89788785D01*
X139200000Y-89741166D01*
X139152380Y-89645928D01*
X119903642Y-107834880D02*
X119570309Y-107358690D01*
X119332214Y-107834880D02*
X119332214Y-106834880D01*
X119713166Y-106834880D01*
X119808404Y-106882500D01*
X119856023Y-106930119D01*
X119903642Y-107025357D01*
X119903642Y-107168214D01*
X119856023Y-107263452D01*
X119808404Y-107311071D01*
X119713166Y-107358690D01*
X119332214Y-107358690D01*
X120856023Y-107834880D02*
X120284595Y-107834880D01*
X120570309Y-107834880D02*
X120570309Y-106834880D01*
X120475071Y-106977738D01*
X120379833Y-107072976D01*
X120284595Y-107120595D01*
X121808404Y-107834880D02*
X121236976Y-107834880D01*
X121522690Y-107834880D02*
X121522690Y-106834880D01*
X121427452Y-106977738D01*
X121332214Y-107072976D01*
X121236976Y-107120595D01*
X140152380Y-99956857D02*
X139676190Y-100290190D01*
X140152380Y-100528285D02*
X139152380Y-100528285D01*
X139152380Y-100147333D01*
X139200000Y-100052095D01*
X139247619Y-100004476D01*
X139342857Y-99956857D01*
X139485714Y-99956857D01*
X139580952Y-100004476D01*
X139628571Y-100052095D01*
X139676190Y-100147333D01*
X139676190Y-100528285D01*
X140152380Y-99004476D02*
X140152380Y-99575904D01*
X140152380Y-99290190D02*
X139152380Y-99290190D01*
X139295238Y-99385428D01*
X139390476Y-99480666D01*
X139438095Y-99575904D01*
X139247619Y-98623523D02*
X139200000Y-98575904D01*
X139152380Y-98480666D01*
X139152380Y-98242571D01*
X139200000Y-98147333D01*
X139247619Y-98099714D01*
X139342857Y-98052095D01*
X139438095Y-98052095D01*
X139580952Y-98099714D01*
X140152380Y-98671142D01*
X140152380Y-98052095D01*
X120261142Y-98193880D02*
X119927809Y-97717690D01*
X119689714Y-98193880D02*
X119689714Y-97193880D01*
X120070666Y-97193880D01*
X120165904Y-97241500D01*
X120213523Y-97289119D01*
X120261142Y-97384357D01*
X120261142Y-97527214D01*
X120213523Y-97622452D01*
X120165904Y-97670071D01*
X120070666Y-97717690D01*
X119689714Y-97717690D01*
X121213523Y-98193880D02*
X120642095Y-98193880D01*
X120927809Y-98193880D02*
X120927809Y-97193880D01*
X120832571Y-97336738D01*
X120737333Y-97431976D01*
X120642095Y-97479595D01*
X121546857Y-97193880D02*
X122165904Y-97193880D01*
X121832571Y-97574833D01*
X121975428Y-97574833D01*
X122070666Y-97622452D01*
X122118285Y-97670071D01*
X122165904Y-97765309D01*
X122165904Y-98003404D01*
X122118285Y-98098642D01*
X122070666Y-98146261D01*
X121975428Y-98193880D01*
X121689714Y-98193880D01*
X121594476Y-98146261D01*
X121546857Y-98098642D01*
X124579142Y-98193880D02*
X124245809Y-97717690D01*
X124007714Y-98193880D02*
X124007714Y-97193880D01*
X124388666Y-97193880D01*
X124483904Y-97241500D01*
X124531523Y-97289119D01*
X124579142Y-97384357D01*
X124579142Y-97527214D01*
X124531523Y-97622452D01*
X124483904Y-97670071D01*
X124388666Y-97717690D01*
X124007714Y-97717690D01*
X125531523Y-98193880D02*
X124960095Y-98193880D01*
X125245809Y-98193880D02*
X125245809Y-97193880D01*
X125150571Y-97336738D01*
X125055333Y-97431976D01*
X124960095Y-97479595D01*
X126388666Y-97527214D02*
X126388666Y-98193880D01*
X126150571Y-97146261D02*
X125912476Y-97860547D01*
X126531523Y-97860547D01*
X128897142Y-98193880D02*
X128563809Y-97717690D01*
X128325714Y-98193880D02*
X128325714Y-97193880D01*
X128706666Y-97193880D01*
X128801904Y-97241500D01*
X128849523Y-97289119D01*
X128897142Y-97384357D01*
X128897142Y-97527214D01*
X128849523Y-97622452D01*
X128801904Y-97670071D01*
X128706666Y-97717690D01*
X128325714Y-97717690D01*
X129849523Y-98193880D02*
X129278095Y-98193880D01*
X129563809Y-98193880D02*
X129563809Y-97193880D01*
X129468571Y-97336738D01*
X129373333Y-97431976D01*
X129278095Y-97479595D01*
X130754285Y-97193880D02*
X130278095Y-97193880D01*
X130230476Y-97670071D01*
X130278095Y-97622452D01*
X130373333Y-97574833D01*
X130611428Y-97574833D01*
X130706666Y-97622452D01*
X130754285Y-97670071D01*
X130801904Y-97765309D01*
X130801904Y-98003404D01*
X130754285Y-98098642D01*
X130706666Y-98146261D01*
X130611428Y-98193880D01*
X130373333Y-98193880D01*
X130278095Y-98146261D01*
X130230476Y-98098642D01*
X133469142Y-98193880D02*
X133135809Y-97717690D01*
X132897714Y-98193880D02*
X132897714Y-97193880D01*
X133278666Y-97193880D01*
X133373904Y-97241500D01*
X133421523Y-97289119D01*
X133469142Y-97384357D01*
X133469142Y-97527214D01*
X133421523Y-97622452D01*
X133373904Y-97670071D01*
X133278666Y-97717690D01*
X132897714Y-97717690D01*
X134421523Y-98193880D02*
X133850095Y-98193880D01*
X134135809Y-98193880D02*
X134135809Y-97193880D01*
X134040571Y-97336738D01*
X133945333Y-97431976D01*
X133850095Y-97479595D01*
X135278666Y-97193880D02*
X135088190Y-97193880D01*
X134992952Y-97241500D01*
X134945333Y-97289119D01*
X134850095Y-97431976D01*
X134802476Y-97622452D01*
X134802476Y-98003404D01*
X134850095Y-98098642D01*
X134897714Y-98146261D01*
X134992952Y-98193880D01*
X135183428Y-98193880D01*
X135278666Y-98146261D01*
X135326285Y-98098642D01*
X135373904Y-98003404D01*
X135373904Y-97765309D01*
X135326285Y-97670071D01*
X135278666Y-97622452D01*
X135183428Y-97574833D01*
X134992952Y-97574833D01*
X134897714Y-97622452D01*
X134850095Y-97670071D01*
X134802476Y-97765309D01*
X119856642Y-112726880D02*
X119523309Y-112250690D01*
X119285214Y-112726880D02*
X119285214Y-111726880D01*
X119666166Y-111726880D01*
X119761404Y-111774500D01*
X119809023Y-111822119D01*
X119856642Y-111917357D01*
X119856642Y-112060214D01*
X119809023Y-112155452D01*
X119761404Y-112203071D01*
X119666166Y-112250690D01*
X119285214Y-112250690D01*
X120809023Y-112726880D02*
X120237595Y-112726880D01*
X120523309Y-112726880D02*
X120523309Y-111726880D01*
X120428071Y-111869738D01*
X120332833Y-111964976D01*
X120237595Y-112012595D01*
X121142357Y-111726880D02*
X121809023Y-111726880D01*
X121380452Y-112726880D01*
X123666642Y-112726880D02*
X123333309Y-112250690D01*
X123095214Y-112726880D02*
X123095214Y-111726880D01*
X123476166Y-111726880D01*
X123571404Y-111774500D01*
X123619023Y-111822119D01*
X123666642Y-111917357D01*
X123666642Y-112060214D01*
X123619023Y-112155452D01*
X123571404Y-112203071D01*
X123476166Y-112250690D01*
X123095214Y-112250690D01*
X124619023Y-112726880D02*
X124047595Y-112726880D01*
X124333309Y-112726880D02*
X124333309Y-111726880D01*
X124238071Y-111869738D01*
X124142833Y-111964976D01*
X124047595Y-112012595D01*
X125095214Y-112726880D02*
X125285690Y-112726880D01*
X125380928Y-112679261D01*
X125428547Y-112631642D01*
X125523785Y-112488785D01*
X125571404Y-112298309D01*
X125571404Y-111917357D01*
X125523785Y-111822119D01*
X125476166Y-111774500D01*
X125380928Y-111726880D01*
X125190452Y-111726880D01*
X125095214Y-111774500D01*
X125047595Y-111822119D01*
X124999976Y-111917357D01*
X124999976Y-112155452D01*
X125047595Y-112250690D01*
X125095214Y-112298309D01*
X125190452Y-112345928D01*
X125380928Y-112345928D01*
X125476166Y-112298309D01*
X125523785Y-112250690D01*
X125571404Y-112155452D01*
X128285642Y-107834880D02*
X127952309Y-107358690D01*
X127714214Y-107834880D02*
X127714214Y-106834880D01*
X128095166Y-106834880D01*
X128190404Y-106882500D01*
X128238023Y-106930119D01*
X128285642Y-107025357D01*
X128285642Y-107168214D01*
X128238023Y-107263452D01*
X128190404Y-107311071D01*
X128095166Y-107358690D01*
X127714214Y-107358690D01*
X128666595Y-106930119D02*
X128714214Y-106882500D01*
X128809452Y-106834880D01*
X129047547Y-106834880D01*
X129142785Y-106882500D01*
X129190404Y-106930119D01*
X129238023Y-107025357D01*
X129238023Y-107120595D01*
X129190404Y-107263452D01*
X128618976Y-107834880D01*
X129238023Y-107834880D01*
X129857071Y-106834880D02*
X129952309Y-106834880D01*
X130047547Y-106882500D01*
X130095166Y-106930119D01*
X130142785Y-107025357D01*
X130190404Y-107215833D01*
X130190404Y-107453928D01*
X130142785Y-107644404D01*
X130095166Y-107739642D01*
X130047547Y-107787261D01*
X129952309Y-107834880D01*
X129857071Y-107834880D01*
X129761833Y-107787261D01*
X129714214Y-107739642D01*
X129666595Y-107644404D01*
X129618976Y-107453928D01*
X129618976Y-107215833D01*
X129666595Y-107025357D01*
X129714214Y-106930119D01*
X129761833Y-106882500D01*
X129857071Y-106834880D01*
X128135142Y-112820880D02*
X127801809Y-112344690D01*
X127563714Y-112820880D02*
X127563714Y-111820880D01*
X127944666Y-111820880D01*
X128039904Y-111868500D01*
X128087523Y-111916119D01*
X128135142Y-112011357D01*
X128135142Y-112154214D01*
X128087523Y-112249452D01*
X128039904Y-112297071D01*
X127944666Y-112344690D01*
X127563714Y-112344690D01*
X128516095Y-111916119D02*
X128563714Y-111868500D01*
X128658952Y-111820880D01*
X128897047Y-111820880D01*
X128992285Y-111868500D01*
X129039904Y-111916119D01*
X129087523Y-112011357D01*
X129087523Y-112106595D01*
X129039904Y-112249452D01*
X128468476Y-112820880D01*
X129087523Y-112820880D01*
X130039904Y-112820880D02*
X129468476Y-112820880D01*
X129754190Y-112820880D02*
X129754190Y-111820880D01*
X129658952Y-111963738D01*
X129563714Y-112058976D01*
X129468476Y-112106595D01*
X132556642Y-107834880D02*
X132223309Y-107358690D01*
X131985214Y-107834880D02*
X131985214Y-106834880D01*
X132366166Y-106834880D01*
X132461404Y-106882500D01*
X132509023Y-106930119D01*
X132556642Y-107025357D01*
X132556642Y-107168214D01*
X132509023Y-107263452D01*
X132461404Y-107311071D01*
X132366166Y-107358690D01*
X131985214Y-107358690D01*
X132937595Y-106930119D02*
X132985214Y-106882500D01*
X133080452Y-106834880D01*
X133318547Y-106834880D01*
X133413785Y-106882500D01*
X133461404Y-106930119D01*
X133509023Y-107025357D01*
X133509023Y-107120595D01*
X133461404Y-107263452D01*
X132889976Y-107834880D01*
X133509023Y-107834880D01*
X133889976Y-106930119D02*
X133937595Y-106882500D01*
X134032833Y-106834880D01*
X134270928Y-106834880D01*
X134366166Y-106882500D01*
X134413785Y-106930119D01*
X134461404Y-107025357D01*
X134461404Y-107120595D01*
X134413785Y-107263452D01*
X133842357Y-107834880D01*
X134461404Y-107834880D01*
X141851142Y-113736380D02*
X141517809Y-113260190D01*
X141279714Y-113736380D02*
X141279714Y-112736380D01*
X141660666Y-112736380D01*
X141755904Y-112784000D01*
X141803523Y-112831619D01*
X141851142Y-112926857D01*
X141851142Y-113069714D01*
X141803523Y-113164952D01*
X141755904Y-113212571D01*
X141660666Y-113260190D01*
X141279714Y-113260190D01*
X142232095Y-112831619D02*
X142279714Y-112784000D01*
X142374952Y-112736380D01*
X142613047Y-112736380D01*
X142708285Y-112784000D01*
X142755904Y-112831619D01*
X142803523Y-112926857D01*
X142803523Y-113022095D01*
X142755904Y-113164952D01*
X142184476Y-113736380D01*
X142803523Y-113736380D01*
X143660666Y-113069714D02*
X143660666Y-113736380D01*
X143422571Y-112688761D02*
X143184476Y-113403047D01*
X143803523Y-113403047D01*
X139898380Y-107473357D02*
X139422190Y-107806690D01*
X139898380Y-108044785D02*
X138898380Y-108044785D01*
X138898380Y-107663833D01*
X138946000Y-107568595D01*
X138993619Y-107520976D01*
X139088857Y-107473357D01*
X139231714Y-107473357D01*
X139326952Y-107520976D01*
X139374571Y-107568595D01*
X139422190Y-107663833D01*
X139422190Y-108044785D01*
X138993619Y-107092404D02*
X138946000Y-107044785D01*
X138898380Y-106949547D01*
X138898380Y-106711452D01*
X138946000Y-106616214D01*
X138993619Y-106568595D01*
X139088857Y-106520976D01*
X139184095Y-106520976D01*
X139326952Y-106568595D01*
X139898380Y-107140023D01*
X139898380Y-106520976D01*
X138898380Y-105616214D02*
X138898380Y-106092404D01*
X139374571Y-106140023D01*
X139326952Y-106092404D01*
X139279333Y-105997166D01*
X139279333Y-105759071D01*
X139326952Y-105663833D01*
X139374571Y-105616214D01*
X139469809Y-105568595D01*
X139707904Y-105568595D01*
X139803142Y-105616214D01*
X139850761Y-105663833D01*
X139898380Y-105759071D01*
X139898380Y-105997166D01*
X139850761Y-106092404D01*
X139803142Y-106140023D01*
X107894380Y-139072857D02*
X107418190Y-139406190D01*
X107894380Y-139644285D02*
X106894380Y-139644285D01*
X106894380Y-139263333D01*
X106942000Y-139168095D01*
X106989619Y-139120476D01*
X107084857Y-139072857D01*
X107227714Y-139072857D01*
X107322952Y-139120476D01*
X107370571Y-139168095D01*
X107418190Y-139263333D01*
X107418190Y-139644285D01*
X106989619Y-138691904D02*
X106942000Y-138644285D01*
X106894380Y-138549047D01*
X106894380Y-138310952D01*
X106942000Y-138215714D01*
X106989619Y-138168095D01*
X107084857Y-138120476D01*
X107180095Y-138120476D01*
X107322952Y-138168095D01*
X107894380Y-138739523D01*
X107894380Y-138120476D01*
X106894380Y-137787142D02*
X106894380Y-137120476D01*
X107894380Y-137549047D01*
D11*
X108210047Y-117414523D02*
X107786714Y-116809761D01*
X107484333Y-117414523D02*
X107484333Y-116144523D01*
X107968142Y-116144523D01*
X108089095Y-116205000D01*
X108149571Y-116265476D01*
X108210047Y-116386428D01*
X108210047Y-116567857D01*
X108149571Y-116688809D01*
X108089095Y-116749285D01*
X107968142Y-116809761D01*
X107484333Y-116809761D01*
X108572904Y-116144523D02*
X108996238Y-117414523D01*
X109419571Y-116144523D01*
X110508142Y-117414523D02*
X109782428Y-117414523D01*
X110145285Y-117414523D02*
X110145285Y-116144523D01*
X110024333Y-116325952D01*
X109903380Y-116446904D01*
X109782428Y-116507380D01*
X92268523Y-74373619D02*
X92268523Y-73647904D01*
X93538523Y-74010761D02*
X92268523Y-74010761D01*
X93538523Y-72559333D02*
X93538523Y-73285047D01*
X93538523Y-72922190D02*
X92268523Y-72922190D01*
X92449952Y-73043142D01*
X92570904Y-73164095D01*
X92631380Y-73285047D01*
X96568380Y-115890523D02*
X96568380Y-116918619D01*
X96628857Y-117039571D01*
X96689333Y-117100047D01*
X96810285Y-117160523D01*
X97052190Y-117160523D01*
X97173142Y-117100047D01*
X97233619Y-117039571D01*
X97294095Y-116918619D01*
X97294095Y-115890523D01*
X98564095Y-117160523D02*
X97838380Y-117160523D01*
X98201238Y-117160523D02*
X98201238Y-115890523D01*
X98080285Y-116071952D01*
X97959333Y-116192904D01*
X97838380Y-116253380D01*
D10*
X150487142Y-115519642D02*
X150439523Y-115567261D01*
X150296666Y-115614880D01*
X150201428Y-115614880D01*
X150058571Y-115567261D01*
X149963333Y-115472023D01*
X149915714Y-115376785D01*
X149868095Y-115186309D01*
X149868095Y-115043452D01*
X149915714Y-114852976D01*
X149963333Y-114757738D01*
X150058571Y-114662500D01*
X150201428Y-114614880D01*
X150296666Y-114614880D01*
X150439523Y-114662500D01*
X150487142Y-114710119D01*
X150820476Y-114614880D02*
X151439523Y-114614880D01*
X151106190Y-114995833D01*
X151249047Y-114995833D01*
X151344285Y-115043452D01*
X151391904Y-115091071D01*
X151439523Y-115186309D01*
X151439523Y-115424404D01*
X151391904Y-115519642D01*
X151344285Y-115567261D01*
X151249047Y-115614880D01*
X150963333Y-115614880D01*
X150868095Y-115567261D01*
X150820476Y-115519642D01*
X151820476Y-114710119D02*
X151868095Y-114662500D01*
X151963333Y-114614880D01*
X152201428Y-114614880D01*
X152296666Y-114662500D01*
X152344285Y-114710119D01*
X152391904Y-114805357D01*
X152391904Y-114900595D01*
X152344285Y-115043452D01*
X151772857Y-115614880D01*
X152391904Y-115614880D01*
X123817142Y-107834880D02*
X123483809Y-107358690D01*
X123245714Y-107834880D02*
X123245714Y-106834880D01*
X123626666Y-106834880D01*
X123721904Y-106882500D01*
X123769523Y-106930119D01*
X123817142Y-107025357D01*
X123817142Y-107168214D01*
X123769523Y-107263452D01*
X123721904Y-107311071D01*
X123626666Y-107358690D01*
X123245714Y-107358690D01*
X124769523Y-107834880D02*
X124198095Y-107834880D01*
X124483809Y-107834880D02*
X124483809Y-106834880D01*
X124388571Y-106977738D01*
X124293333Y-107072976D01*
X124198095Y-107120595D01*
X125340952Y-107263452D02*
X125245714Y-107215833D01*
X125198095Y-107168214D01*
X125150476Y-107072976D01*
X125150476Y-107025357D01*
X125198095Y-106930119D01*
X125245714Y-106882500D01*
X125340952Y-106834880D01*
X125531428Y-106834880D01*
X125626666Y-106882500D01*
X125674285Y-106930119D01*
X125721904Y-107025357D01*
X125721904Y-107072976D01*
X125674285Y-107168214D01*
X125626666Y-107215833D01*
X125531428Y-107263452D01*
X125340952Y-107263452D01*
X125245714Y-107311071D01*
X125198095Y-107358690D01*
X125150476Y-107453928D01*
X125150476Y-107644404D01*
X125198095Y-107739642D01*
X125245714Y-107787261D01*
X125340952Y-107834880D01*
X125531428Y-107834880D01*
X125626666Y-107787261D01*
X125674285Y-107739642D01*
X125721904Y-107644404D01*
X125721904Y-107453928D01*
X125674285Y-107358690D01*
X125626666Y-107311071D01*
X125531428Y-107263452D01*
X139998880Y-112807357D02*
X139522690Y-113140690D01*
X139998880Y-113378785D02*
X138998880Y-113378785D01*
X138998880Y-112997833D01*
X139046500Y-112902595D01*
X139094119Y-112854976D01*
X139189357Y-112807357D01*
X139332214Y-112807357D01*
X139427452Y-112854976D01*
X139475071Y-112902595D01*
X139522690Y-112997833D01*
X139522690Y-113378785D01*
X139094119Y-112426404D02*
X139046500Y-112378785D01*
X138998880Y-112283547D01*
X138998880Y-112045452D01*
X139046500Y-111950214D01*
X139094119Y-111902595D01*
X139189357Y-111854976D01*
X139284595Y-111854976D01*
X139427452Y-111902595D01*
X139998880Y-112474023D01*
X139998880Y-111854976D01*
X138998880Y-110997833D02*
X138998880Y-111188309D01*
X139046500Y-111283547D01*
X139094119Y-111331166D01*
X139236976Y-111426404D01*
X139427452Y-111474023D01*
X139808404Y-111474023D01*
X139903642Y-111426404D01*
X139951261Y-111378785D01*
X139998880Y-111283547D01*
X139998880Y-111093071D01*
X139951261Y-110997833D01*
X139903642Y-110950214D01*
X139808404Y-110902595D01*
X139570309Y-110902595D01*
X139475071Y-110950214D01*
X139427452Y-110997833D01*
X139379833Y-111093071D01*
X139379833Y-111283547D01*
X139427452Y-111378785D01*
X139475071Y-111426404D01*
X139570309Y-111474023D01*
X132556642Y-112726880D02*
X132223309Y-112250690D01*
X131985214Y-112726880D02*
X131985214Y-111726880D01*
X132366166Y-111726880D01*
X132461404Y-111774500D01*
X132509023Y-111822119D01*
X132556642Y-111917357D01*
X132556642Y-112060214D01*
X132509023Y-112155452D01*
X132461404Y-112203071D01*
X132366166Y-112250690D01*
X131985214Y-112250690D01*
X132937595Y-111822119D02*
X132985214Y-111774500D01*
X133080452Y-111726880D01*
X133318547Y-111726880D01*
X133413785Y-111774500D01*
X133461404Y-111822119D01*
X133509023Y-111917357D01*
X133509023Y-112012595D01*
X133461404Y-112155452D01*
X132889976Y-112726880D01*
X133509023Y-112726880D01*
X133842357Y-111726880D02*
X134461404Y-111726880D01*
X134128071Y-112107833D01*
X134270928Y-112107833D01*
X134366166Y-112155452D01*
X134413785Y-112203071D01*
X134461404Y-112298309D01*
X134461404Y-112536404D01*
X134413785Y-112631642D01*
X134366166Y-112679261D01*
X134270928Y-112726880D01*
X133985214Y-112726880D01*
X133889976Y-112679261D01*
X133842357Y-112631642D01*
X152431761Y-82018119D02*
X152336523Y-81970500D01*
X152241285Y-81875261D01*
X152098428Y-81732404D01*
X152003190Y-81684785D01*
X151907952Y-81684785D01*
X151955571Y-81922880D02*
X151860333Y-81875261D01*
X151765095Y-81780023D01*
X151717476Y-81589547D01*
X151717476Y-81256214D01*
X151765095Y-81065738D01*
X151860333Y-80970500D01*
X151955571Y-80922880D01*
X152146047Y-80922880D01*
X152241285Y-80970500D01*
X152336523Y-81065738D01*
X152384142Y-81256214D01*
X152384142Y-81589547D01*
X152336523Y-81780023D01*
X152241285Y-81875261D01*
X152146047Y-81922880D01*
X151955571Y-81922880D01*
X153336523Y-81922880D02*
X152765095Y-81922880D01*
X153050809Y-81922880D02*
X153050809Y-80922880D01*
X152955571Y-81065738D01*
X152860333Y-81160976D01*
X152765095Y-81208595D01*
X155352761Y-117489619D02*
X155257523Y-117442000D01*
X155162285Y-117346761D01*
X155019428Y-117203904D01*
X154924190Y-117156285D01*
X154828952Y-117156285D01*
X154876571Y-117394380D02*
X154781333Y-117346761D01*
X154686095Y-117251523D01*
X154638476Y-117061047D01*
X154638476Y-116727714D01*
X154686095Y-116537238D01*
X154781333Y-116442000D01*
X154876571Y-116394380D01*
X155067047Y-116394380D01*
X155162285Y-116442000D01*
X155257523Y-116537238D01*
X155305142Y-116727714D01*
X155305142Y-117061047D01*
X155257523Y-117251523D01*
X155162285Y-117346761D01*
X155067047Y-117394380D01*
X154876571Y-117394380D01*
X155686095Y-116489619D02*
X155733714Y-116442000D01*
X155828952Y-116394380D01*
X156067047Y-116394380D01*
X156162285Y-116442000D01*
X156209904Y-116489619D01*
X156257523Y-116584857D01*
X156257523Y-116680095D01*
X156209904Y-116822952D01*
X155638476Y-117394380D01*
X156257523Y-117394380D01*
X110410666Y-140720380D02*
X110410666Y-141434666D01*
X110363047Y-141577523D01*
X110267809Y-141672761D01*
X110124952Y-141720380D01*
X110029714Y-141720380D01*
X110791619Y-140720380D02*
X111458285Y-140720380D01*
X111029714Y-141720380D01*
X166290666Y-83018380D02*
X166290666Y-83732666D01*
X166243047Y-83875523D01*
X166147809Y-83970761D01*
X166004952Y-84018380D01*
X165909714Y-84018380D01*
X167195428Y-83018380D02*
X167004952Y-83018380D01*
X166909714Y-83066000D01*
X166862095Y-83113619D01*
X166766857Y-83256476D01*
X166719238Y-83446952D01*
X166719238Y-83827904D01*
X166766857Y-83923142D01*
X166814476Y-83970761D01*
X166909714Y-84018380D01*
X167100190Y-84018380D01*
X167195428Y-83970761D01*
X167243047Y-83923142D01*
X167290666Y-83827904D01*
X167290666Y-83589809D01*
X167243047Y-83494571D01*
X167195428Y-83446952D01*
X167100190Y-83399333D01*
X166909714Y-83399333D01*
X166814476Y-83446952D01*
X166766857Y-83494571D01*
X166719238Y-83589809D01*
X107561142Y-78436380D02*
X107227809Y-77960190D01*
X106989714Y-78436380D02*
X106989714Y-77436380D01*
X107370666Y-77436380D01*
X107465904Y-77484000D01*
X107513523Y-77531619D01*
X107561142Y-77626857D01*
X107561142Y-77769714D01*
X107513523Y-77864952D01*
X107465904Y-77912571D01*
X107370666Y-77960190D01*
X106989714Y-77960190D01*
X107942095Y-77531619D02*
X107989714Y-77484000D01*
X108084952Y-77436380D01*
X108323047Y-77436380D01*
X108418285Y-77484000D01*
X108465904Y-77531619D01*
X108513523Y-77626857D01*
X108513523Y-77722095D01*
X108465904Y-77864952D01*
X107894476Y-78436380D01*
X108513523Y-78436380D01*
X109084952Y-77864952D02*
X108989714Y-77817333D01*
X108942095Y-77769714D01*
X108894476Y-77674476D01*
X108894476Y-77626857D01*
X108942095Y-77531619D01*
X108989714Y-77484000D01*
X109084952Y-77436380D01*
X109275428Y-77436380D01*
X109370666Y-77484000D01*
X109418285Y-77531619D01*
X109465904Y-77626857D01*
X109465904Y-77674476D01*
X109418285Y-77769714D01*
X109370666Y-77817333D01*
X109275428Y-77864952D01*
X109084952Y-77864952D01*
X108989714Y-77912571D01*
X108942095Y-77960190D01*
X108894476Y-78055428D01*
X108894476Y-78245904D01*
X108942095Y-78341142D01*
X108989714Y-78388761D01*
X109084952Y-78436380D01*
X109275428Y-78436380D01*
X109370666Y-78388761D01*
X109418285Y-78341142D01*
X109465904Y-78245904D01*
X109465904Y-78055428D01*
X109418285Y-77960190D01*
X109370666Y-77912571D01*
X109275428Y-77864952D01*
D11*
X161278404Y-133924523D02*
X161278404Y-134831666D01*
X161217928Y-135013095D01*
X161096976Y-135134047D01*
X160915547Y-135194523D01*
X160794595Y-135194523D01*
X162548404Y-135194523D02*
X161822690Y-135194523D01*
X162185547Y-135194523D02*
X162185547Y-133924523D01*
X162064595Y-134105952D01*
X161943642Y-134226904D01*
X161822690Y-134287380D01*
X163757928Y-135194523D02*
X163032214Y-135194523D01*
X163395071Y-135194523D02*
X163395071Y-133924523D01*
X163274119Y-134105952D01*
X163153166Y-134226904D01*
X163032214Y-134287380D01*
D12*
X112268000Y-84536000D02*
X91268000Y-84536000D01*
X112268000Y-110536000D02*
X91268000Y-110536000D01*
X91268000Y-110536000D02*
X91268000Y-84536000D01*
X112268000Y-110536000D02*
X112268000Y-84536000D01*
X108503767Y-64768000D02*
X108211233Y-64768000D01*
X108503767Y-65788000D02*
X108211233Y-65788000D01*
X120642767Y-106274500D02*
X120350233Y-106274500D01*
X120642767Y-105254500D02*
X120350233Y-105254500D01*
X129336748Y-86958000D02*
X130759252Y-86958000D01*
X129336748Y-84238000D02*
X130759252Y-84238000D01*
D13*
X166206000Y-78764000D02*
X166206000Y-78114000D01*
X163056000Y-78114000D02*
X166206000Y-78114000D01*
X166206000Y-82414000D02*
X166206000Y-81764000D01*
X166206000Y-78114000D02*
X163056000Y-78114000D01*
X166206000Y-78114000D02*
X166206000Y-78764000D01*
D14*
X160431000Y-80264000D02*
X160431000Y-80264000D01*
D13*
X163056000Y-82414000D02*
X166206000Y-82414000D01*
D14*
X160481000Y-80264000D02*
X160481000Y-80264000D01*
X160431000Y-80264000D02*
G75*
G03*
X160481000Y-80264000I25000J0D01*
G01*
X160481000Y-80264000D02*
G75*
G03*
X160431000Y-80264000I-25000J0D01*
G01*
D13*
X166714000Y-125104000D02*
X166714000Y-125754000D01*
D14*
X160939000Y-127254000D02*
X160939000Y-127254000D01*
D13*
X163564000Y-129404000D02*
X166714000Y-129404000D01*
X166714000Y-129404000D02*
X166714000Y-128754000D01*
D14*
X160989000Y-127254000D02*
X160989000Y-127254000D01*
D13*
X166714000Y-125754000D02*
X166714000Y-125104000D01*
X166714000Y-125104000D02*
X163564000Y-125104000D01*
X163564000Y-125104000D02*
X166714000Y-125104000D01*
D14*
X160989000Y-127254000D02*
G75*
G03*
X160939000Y-127254000I-25000J0D01*
G01*
X160939000Y-127254000D02*
G75*
G03*
X160989000Y-127254000I25000J0D01*
G01*
D12*
X127050748Y-119290000D02*
X128473252Y-119290000D01*
X127050748Y-122010000D02*
X128473252Y-122010000D01*
X120899767Y-91487500D02*
X120607233Y-91487500D01*
X120899767Y-90467500D02*
X120607233Y-90467500D01*
X125371267Y-91487500D02*
X125078733Y-91487500D01*
X125371267Y-90467500D02*
X125078733Y-90467500D01*
X129943267Y-91487500D02*
X129650733Y-91487500D01*
X129943267Y-90467500D02*
X129650733Y-90467500D01*
X134261267Y-90467500D02*
X133968733Y-90467500D01*
X134261267Y-91487500D02*
X133968733Y-91487500D01*
X148592000Y-92647767D02*
X148592000Y-92355233D01*
X147572000Y-92647767D02*
X147572000Y-92355233D01*
X150112000Y-92647767D02*
X150112000Y-92355233D01*
X151132000Y-92647767D02*
X151132000Y-92355233D01*
X154516000Y-94205500D02*
X154516000Y-93705500D01*
X154516000Y-91305500D02*
X154516000Y-91805500D01*
X152316000Y-94205500D02*
X152316000Y-93705500D01*
X152316000Y-91305500D02*
X152316000Y-91805500D01*
X154516000Y-91305500D02*
X154016000Y-91305500D01*
X152316000Y-94205500D02*
X152816000Y-94205500D01*
X154516000Y-94205500D02*
X154016000Y-94205500D01*
X152316000Y-91305500D02*
X152816000Y-91305500D01*
X147572000Y-97727767D02*
X147572000Y-97435233D01*
X148592000Y-97727767D02*
X148592000Y-97435233D01*
X150112000Y-97727767D02*
X150112000Y-97435233D01*
X151132000Y-97727767D02*
X151132000Y-97435233D01*
X154516000Y-95877500D02*
X154016000Y-95877500D01*
X154516000Y-98777500D02*
X154016000Y-98777500D01*
X152316000Y-95877500D02*
X152816000Y-95877500D01*
X154516000Y-98777500D02*
X154516000Y-98277500D01*
X152316000Y-98777500D02*
X152816000Y-98777500D01*
X154516000Y-95877500D02*
X154516000Y-96377500D01*
X152316000Y-98777500D02*
X152316000Y-98277500D01*
X152316000Y-95877500D02*
X152316000Y-96377500D01*
X120657233Y-99869500D02*
X120949767Y-99869500D01*
X120657233Y-98849500D02*
X120949767Y-98849500D01*
X124975233Y-99869500D02*
X125267767Y-99869500D01*
X124975233Y-98849500D02*
X125267767Y-98849500D01*
X129293233Y-98849500D02*
X129585767Y-98849500D01*
X129293233Y-99869500D02*
X129585767Y-99869500D01*
X133865233Y-98849500D02*
X134157767Y-98849500D01*
X133865233Y-99869500D02*
X134157767Y-99869500D01*
X120249733Y-113382500D02*
X120542267Y-113382500D01*
X120249733Y-114402500D02*
X120542267Y-114402500D01*
X124706767Y-106274500D02*
X124414233Y-106274500D01*
X124706767Y-105254500D02*
X124414233Y-105254500D01*
X124213233Y-113382500D02*
X124505767Y-113382500D01*
X124213233Y-114402500D02*
X124505767Y-114402500D01*
X129024767Y-105254500D02*
X128732233Y-105254500D01*
X129024767Y-106274500D02*
X128732233Y-106274500D01*
X128531233Y-113382500D02*
X128823767Y-113382500D01*
X128531233Y-114402500D02*
X128823767Y-114402500D01*
X133496267Y-105254500D02*
X133203733Y-105254500D01*
X133496267Y-106274500D02*
X133203733Y-106274500D01*
X132949733Y-113382500D02*
X133242267Y-113382500D01*
X132949733Y-114402500D02*
X133242267Y-114402500D01*
X148592000Y-106672767D02*
X148592000Y-106380233D01*
X147572000Y-106672767D02*
X147572000Y-106380233D01*
X147572000Y-112668267D02*
X147572000Y-112375733D01*
X148592000Y-112668267D02*
X148592000Y-112375733D01*
X150112000Y-106826267D02*
X150112000Y-106533733D01*
X151132000Y-106826267D02*
X151132000Y-106533733D01*
X154516000Y-105738000D02*
X154516000Y-106238000D01*
X152316000Y-105738000D02*
X152816000Y-105738000D01*
X152316000Y-108638000D02*
X152316000Y-108138000D01*
X152316000Y-108638000D02*
X152816000Y-108638000D01*
X154516000Y-108638000D02*
X154016000Y-108638000D01*
X152316000Y-105738000D02*
X152316000Y-106238000D01*
X154516000Y-108638000D02*
X154516000Y-108138000D01*
X154516000Y-105738000D02*
X154016000Y-105738000D01*
X152316000Y-110818000D02*
X152316000Y-111318000D01*
X152316000Y-113718000D02*
X152816000Y-113718000D01*
X154516000Y-113718000D02*
X154016000Y-113718000D01*
X154516000Y-110818000D02*
X154016000Y-110818000D01*
X154516000Y-113718000D02*
X154516000Y-113218000D01*
X154516000Y-110818000D02*
X154516000Y-111318000D01*
X152316000Y-110818000D02*
X152816000Y-110818000D01*
X152316000Y-113718000D02*
X152316000Y-113218000D01*
X108508748Y-127672000D02*
X109931252Y-127672000D01*
X108508748Y-130392000D02*
X109931252Y-130392000D01*
D13*
X104234000Y-72802000D02*
X112174000Y-72802000D01*
X112174000Y-66898000D02*
X104234000Y-66898000D01*
D12*
X165589551Y-73508634D02*
G75*
G03*
X165649153Y-75776000I-1251551J-1167366D01*
G01*
X155881785Y-123292634D02*
G75*
G03*
X155941387Y-125560000I-1251551J-1167366D01*
G01*
X155175551Y-73508634D02*
G75*
G03*
X155235153Y-75776000I-1251551J-1167366D01*
G01*
X153143551Y-127610634D02*
G75*
G03*
X153203153Y-129878000I-1251551J-1167366D01*
G01*
X127632000Y-63756000D02*
X127632000Y-82956000D01*
X127632000Y-63756000D02*
X140632000Y-63756000D01*
X140632000Y-82956000D02*
X140632000Y-63756000D01*
X127632000Y-82956000D02*
X140632000Y-82956000D01*
X114150000Y-63756000D02*
X127150000Y-63756000D01*
X114150000Y-82956000D02*
X127150000Y-82956000D01*
X127150000Y-82956000D02*
X127150000Y-63756000D01*
X114150000Y-63756000D02*
X114150000Y-82956000D01*
X127632000Y-123108000D02*
X127632000Y-142308000D01*
X140632000Y-142308000D02*
X140632000Y-123108000D01*
X140632000Y-123108000D02*
X127632000Y-123108000D01*
X140632000Y-142308000D02*
X127632000Y-142308000D01*
X114170000Y-123108000D02*
X114170000Y-142308000D01*
X127170000Y-142308000D02*
X114170000Y-142308000D01*
X127170000Y-142308000D02*
X127170000Y-123108000D01*
X127170000Y-123108000D02*
X114170000Y-123108000D01*
D15*
X104830000Y-134874000D02*
X104830000Y-133874000D01*
X104830000Y-142674000D02*
X95830000Y-142674000D01*
X95830000Y-133874000D02*
X95830000Y-134874000D01*
X104830000Y-133874000D02*
X95830000Y-133874000D01*
D12*
X123683000Y-84054000D02*
X118543000Y-84054000D01*
X123683000Y-84054000D02*
X123683000Y-86714000D01*
X123683000Y-86714000D02*
X118543000Y-86714000D01*
X124953000Y-84054000D02*
X126283000Y-84054000D01*
X118543000Y-84054000D02*
X118543000Y-86714000D01*
X126283000Y-84054000D02*
X126283000Y-85384000D01*
X122936000Y-119320000D02*
X124266000Y-119320000D01*
X121666000Y-121980000D02*
X116526000Y-121980000D01*
X116526000Y-119320000D02*
X116526000Y-121980000D01*
X124266000Y-119320000D02*
X124266000Y-120650000D01*
X121666000Y-119320000D02*
X121666000Y-121980000D01*
X121666000Y-119320000D02*
X116526000Y-119320000D01*
X155029500Y-68434500D02*
X156229500Y-68434500D01*
X154799500Y-64034500D02*
X157139500Y-64034500D01*
X155429500Y-67734500D02*
X155829500Y-68434500D01*
X156899500Y-64254500D02*
X141639500Y-64254500D01*
X157139500Y-64034500D02*
X157139500Y-66224500D01*
X156919500Y-72034500D02*
X156919500Y-64254500D01*
X141639500Y-72034500D02*
X141639500Y-64254500D01*
X155029500Y-67734500D02*
X155029500Y-68434500D01*
X156919500Y-72034500D02*
X141639500Y-72034500D01*
X156229500Y-68434500D02*
X156229500Y-67734500D01*
X156229500Y-67734500D02*
X155029500Y-67734500D01*
X145625500Y-130210000D02*
X144925500Y-130210000D01*
X145625500Y-131410000D02*
X145625500Y-130210000D01*
X145625500Y-130610000D02*
X144925500Y-131010000D01*
X149325500Y-132320000D02*
X147135500Y-132320000D01*
X144925500Y-130210000D02*
X144925500Y-131410000D01*
X141325500Y-132100000D02*
X141325500Y-116820000D01*
X144925500Y-131410000D02*
X145625500Y-131410000D01*
X141325500Y-132100000D02*
X149105500Y-132100000D01*
X141325500Y-116820000D02*
X149105500Y-116820000D01*
X149325500Y-129980000D02*
X149325500Y-132320000D01*
X149105500Y-132080000D02*
X149105500Y-116820000D01*
X145880000Y-94055500D02*
X145880000Y-92925500D01*
X141140000Y-97665500D02*
X145880000Y-97665500D01*
X141140000Y-93255500D02*
X141140000Y-92925500D01*
X145880000Y-97665500D02*
X145880000Y-96535500D01*
X141140000Y-97665500D02*
X141140000Y-97334500D01*
X141140000Y-92925500D02*
X145880000Y-92925500D01*
X141140000Y-95554500D02*
X141140000Y-95035500D01*
X127762724Y-76722500D02*
X127253276Y-76722500D01*
X127762724Y-75677500D02*
X127253276Y-75677500D01*
X161812500Y-88900724D02*
X161812500Y-88391276D01*
X160767500Y-88900724D02*
X160767500Y-88391276D01*
X160274724Y-121680500D02*
X159765276Y-121680500D01*
X160274724Y-120635500D02*
X159765276Y-120635500D01*
X127659224Y-130316500D02*
X127149776Y-130316500D01*
X127659224Y-129271500D02*
X127149776Y-129271500D01*
X120602276Y-93757000D02*
X121111724Y-93757000D01*
X120602276Y-94802000D02*
X121111724Y-94802000D01*
X124967276Y-94802000D02*
X125476724Y-94802000D01*
X124967276Y-93757000D02*
X125476724Y-93757000D01*
X129388776Y-94802000D02*
X129898224Y-94802000D01*
X129388776Y-93757000D02*
X129898224Y-93757000D01*
X133603276Y-93757000D02*
X134112724Y-93757000D01*
X133603276Y-94802000D02*
X134112724Y-94802000D01*
X138698500Y-92861224D02*
X138698500Y-92351776D01*
X137653500Y-92861224D02*
X137653500Y-92351776D01*
X120291776Y-108290000D02*
X120801224Y-108290000D01*
X120291776Y-109335000D02*
X120801224Y-109335000D01*
X138698500Y-97790724D02*
X138698500Y-97281276D01*
X137653500Y-97790724D02*
X137653500Y-97281276D01*
X121158724Y-96834000D02*
X120649276Y-96834000D01*
X121158724Y-95789000D02*
X120649276Y-95789000D01*
X125476724Y-96834000D02*
X124967276Y-96834000D01*
X125476724Y-95789000D02*
X124967276Y-95789000D01*
X129794724Y-96834000D02*
X129285276Y-96834000D01*
X129794724Y-95789000D02*
X129285276Y-95789000D01*
X134366724Y-95789000D02*
X133857276Y-95789000D01*
X134366724Y-96834000D02*
X133857276Y-96834000D01*
X120754224Y-110322000D02*
X120244776Y-110322000D01*
X120754224Y-111367000D02*
X120244776Y-111367000D01*
X124564224Y-110322000D02*
X124054776Y-110322000D01*
X124564224Y-111367000D02*
X124054776Y-111367000D01*
X128673776Y-109335000D02*
X129183224Y-109335000D01*
X128673776Y-108290000D02*
X129183224Y-108290000D01*
X129032724Y-110322000D02*
X128523276Y-110322000D01*
X129032724Y-111367000D02*
X128523276Y-111367000D01*
X132944776Y-108290000D02*
X133454224Y-108290000D01*
X132944776Y-109335000D02*
X133454224Y-109335000D01*
X141203500Y-112052500D02*
X145943500Y-112052500D01*
X141203500Y-107312500D02*
X145943500Y-107312500D01*
X141203500Y-107642500D02*
X141203500Y-107312500D01*
X141203500Y-109941500D02*
X141203500Y-109422500D01*
X145943500Y-108442500D02*
X145943500Y-107312500D01*
X141203500Y-112052500D02*
X141203500Y-111721500D01*
X145943500Y-112052500D02*
X145943500Y-110922500D01*
X138190500Y-107085224D02*
X138190500Y-106575776D01*
X137145500Y-107085224D02*
X137145500Y-106575776D01*
X106919500Y-134722776D02*
X106919500Y-135232224D01*
X107964500Y-134722776D02*
X107964500Y-135232224D01*
D13*
X114220000Y-112586000D02*
X103445000Y-112586000D01*
X104220000Y-120586000D02*
X114220000Y-120586000D01*
D15*
X91774000Y-76998000D02*
X91774000Y-68798000D01*
D13*
X92074000Y-78398000D02*
X92074000Y-78398000D01*
D15*
X101774000Y-68798000D02*
X101774000Y-76998000D01*
X91774000Y-68798000D02*
X101774000Y-68798000D01*
D13*
X92074000Y-78398000D02*
X92074000Y-78398000D01*
X91974000Y-78398000D02*
X91974000Y-78398000D01*
D15*
X101774000Y-76998000D02*
X91774000Y-76998000D01*
D13*
X92074000Y-78398000D02*
G75*
G03*
X91974000Y-78398000I-50000J0D01*
G01*
X91974000Y-78398000D02*
G75*
G03*
X92074000Y-78398000I50000J0D01*
G01*
X92074000Y-78398000D02*
G75*
G03*
X91974000Y-78398000I-50000J0D01*
G01*
D15*
X100636000Y-113486000D02*
X100636000Y-119686000D01*
X94436000Y-113486000D02*
X100636000Y-113486000D01*
X100636000Y-119686000D02*
X94436000Y-119686000D01*
X94436000Y-119686000D02*
X94436000Y-113486000D01*
D12*
X150112000Y-112668267D02*
X150112000Y-112375733D01*
X151132000Y-112668267D02*
X151132000Y-112375733D01*
X124205276Y-109335000D02*
X124714724Y-109335000D01*
X124205276Y-108290000D02*
X124714724Y-108290000D01*
X138190500Y-112673224D02*
X138190500Y-112163776D01*
X137145500Y-112673224D02*
X137145500Y-112163776D01*
X133454224Y-110322000D02*
X132944776Y-110322000D01*
X133454224Y-111367000D02*
X132944776Y-111367000D01*
X154410000Y-82114000D02*
X158010000Y-82114000D01*
X156210000Y-77663999D02*
G75*
G03*
X154371522Y-82102478I0J-2600001D01*
G01*
X158048478Y-82102478D02*
G75*
G03*
X156210000Y-77664000I-1838478J1838478D01*
G01*
X153648000Y-122352000D02*
X157248000Y-122352000D01*
X157286478Y-122340478D02*
G75*
G03*
X155448000Y-117902000I-1838478J1838478D01*
G01*
X155448000Y-117901999D02*
G75*
G03*
X153609522Y-122340478I0J-2600001D01*
G01*
X109414000Y-137668000D02*
X109414000Y-132528000D01*
X112074000Y-137668000D02*
X109414000Y-137668000D01*
X112074000Y-140268000D02*
X110744000Y-140268000D01*
X112074000Y-137668000D02*
X112074000Y-132528000D01*
X112074000Y-138938000D02*
X112074000Y-140268000D01*
X112074000Y-132528000D02*
X109414000Y-132528000D01*
X168840429Y-102774000D02*
X169237500Y-102774000D01*
X168840429Y-113694000D02*
X169237500Y-113694000D01*
X166300429Y-105314000D02*
X166754571Y-105314000D01*
X166300429Y-113694000D02*
X166754571Y-113694000D01*
X166300429Y-121314000D02*
X166754571Y-121314000D01*
X168840429Y-107854000D02*
X169237500Y-107854000D01*
X166300429Y-90074000D02*
X166754571Y-90074000D01*
X168840429Y-105314000D02*
X169237500Y-105314000D01*
X168840429Y-95914000D02*
X169237500Y-95914000D01*
X169237500Y-84044000D02*
X169237500Y-122264000D01*
X168840429Y-115474000D02*
X169237500Y-115474000D01*
X168840429Y-100994000D02*
X169237500Y-100994000D01*
X166300429Y-112934000D02*
X166754571Y-112934000D01*
X168840429Y-106074000D02*
X169237500Y-106074000D01*
X168840429Y-84994000D02*
X169237500Y-84994000D01*
X168840429Y-95154000D02*
X169237500Y-95154000D01*
X168840429Y-118014000D02*
X169237500Y-118014000D01*
X166300429Y-118014000D02*
X166754571Y-118014000D01*
X168840429Y-88294000D02*
X169237500Y-88294000D01*
X168840429Y-93374000D02*
X169237500Y-93374000D01*
X168840429Y-92614000D02*
X169237500Y-92614000D01*
X168840429Y-121314000D02*
X169237500Y-121314000D01*
X168840429Y-112934000D02*
X169237500Y-112934000D01*
X166300429Y-111154000D02*
X166754571Y-111154000D01*
X168840429Y-85754000D02*
X169237500Y-85754000D01*
X168840429Y-87534000D02*
X169237500Y-87534000D01*
X166300429Y-108614000D02*
X166754571Y-108614000D01*
X168840429Y-100234000D02*
X169237500Y-100234000D01*
X168840429Y-116234000D02*
X169237500Y-116234000D01*
X163987500Y-85374000D02*
X163987500Y-84104000D01*
X166300429Y-106074000D02*
X166754571Y-106074000D01*
X166300429Y-98454000D02*
X166754571Y-98454000D01*
X168840429Y-97694000D02*
X169237500Y-97694000D01*
X168840429Y-118774000D02*
X169237500Y-118774000D01*
X168840429Y-110394000D02*
X169237500Y-110394000D01*
X166300429Y-97694000D02*
X166754571Y-97694000D01*
X166300429Y-120554000D02*
X166754571Y-120554000D01*
X166300429Y-95914000D02*
X166754571Y-95914000D01*
X166300429Y-107854000D02*
X166754571Y-107854000D01*
X168840429Y-90074000D02*
X169237500Y-90074000D01*
X168840429Y-108614000D02*
X169237500Y-108614000D01*
X166300429Y-103534000D02*
X166754571Y-103534000D01*
X166300429Y-118774000D02*
X166754571Y-118774000D01*
X166300429Y-92614000D02*
X166754571Y-92614000D01*
X166300429Y-110394000D02*
X166754571Y-110394000D01*
X168840429Y-98454000D02*
X169237500Y-98454000D01*
X168840429Y-111154000D02*
X169237500Y-111154000D01*
X166300429Y-116234000D02*
X166754571Y-116234000D01*
X166300429Y-93374000D02*
X166754571Y-93374000D01*
X168840429Y-103534000D02*
X169237500Y-103534000D01*
X166300429Y-87534000D02*
X166754571Y-87534000D01*
X166367500Y-85754000D02*
X166754571Y-85754000D01*
X168840429Y-90834000D02*
X169237500Y-90834000D01*
X166300429Y-115474000D02*
X166754571Y-115474000D01*
X166300429Y-90834000D02*
X166754571Y-90834000D01*
X166300429Y-95154000D02*
X166754571Y-95154000D01*
X168840429Y-120554000D02*
X169237500Y-120554000D01*
X166300429Y-100234000D02*
X166754571Y-100234000D01*
X166367500Y-84994000D02*
X166754571Y-84994000D01*
X166300429Y-102774000D02*
X166754571Y-102774000D01*
X163987500Y-84104000D02*
X165257500Y-84104000D01*
X166300429Y-100994000D02*
X166754571Y-100994000D01*
X166300429Y-88294000D02*
X166754571Y-88294000D01*
X106676936Y-81624000D02*
X109731064Y-81624000D01*
X106676936Y-78904000D02*
X109731064Y-78904000D01*
G36*
X107252974Y-102158059D02*
G01*
X107227554Y-102298772D01*
X106882098Y-102561472D01*
X106806288Y-102571890D01*
X106559300Y-102363572D01*
X106552022Y-102298772D01*
X106771965Y-102059080D01*
X106973288Y-102025654D01*
X107252974Y-102158059D01*
G37*
G36*
X99005326Y-102571890D02*
G01*
X99250878Y-102347710D01*
X99333143Y-102162213D01*
X99796703Y-102162213D01*
X99931809Y-102298772D01*
X100066916Y-102162213D01*
X99931809Y-102025654D01*
X99796703Y-102162213D01*
X99333143Y-102162213D01*
X99385753Y-102043586D01*
X99759764Y-101614179D01*
X100086146Y-101555976D01*
X100471776Y-101728860D01*
X100487367Y-101947722D01*
X100541761Y-102260726D01*
X100669864Y-102298772D01*
X100844477Y-102391746D01*
X100682499Y-102605171D01*
X100498568Y-103100023D01*
X100536403Y-103356247D01*
X100570905Y-103634994D01*
X100474452Y-103600329D01*
X100165469Y-103624570D01*
X99899567Y-103873447D01*
X99613334Y-104143603D01*
X99535084Y-103989643D01*
X99392073Y-103752404D01*
X99287176Y-103781621D01*
X99068004Y-103668900D01*
X98919328Y-103251503D01*
X98913017Y-103118127D01*
X99526490Y-103118127D01*
X99625357Y-103342934D01*
X99706632Y-103300206D01*
X99738971Y-102976078D01*
X99706632Y-102936048D01*
X99545991Y-102973539D01*
X99526490Y-103118127D01*
X98913017Y-103118127D01*
X98895372Y-102745226D01*
X99005326Y-102571890D01*
G37*
G36*
X107269775Y-88263944D02*
G01*
X107227554Y-88369740D01*
X106984739Y-88630290D01*
X106941394Y-88642858D01*
X106825333Y-88431549D01*
X106822235Y-88369740D01*
X107029961Y-88107117D01*
X107108395Y-88096622D01*
X107269775Y-88263944D01*
G37*
G36*
X106544170Y-99229189D02*
G01*
X106552022Y-99294471D01*
X106346397Y-99559653D01*
X106281809Y-99567589D01*
X106019449Y-99359753D01*
X106011596Y-99294471D01*
X106217222Y-99029289D01*
X106281809Y-99021353D01*
X106544170Y-99229189D01*
G37*
G36*
X100337128Y-105439632D02*
G01*
X100202022Y-105576191D01*
X100066916Y-105439632D01*
X100202022Y-105303073D01*
X100337128Y-105439632D01*
G37*
G36*
X105110887Y-105667231D02*
G01*
X105073795Y-105829599D01*
X104930745Y-105849310D01*
X104708330Y-105749380D01*
X104750604Y-105667231D01*
X105071283Y-105634544D01*
X105110887Y-105667231D01*
G37*
G36*
X99976845Y-93923145D02*
G01*
X99939753Y-94085513D01*
X99796703Y-94105224D01*
X99574287Y-94005294D01*
X99616561Y-93923145D01*
X99937240Y-93890458D01*
X99976845Y-93923145D01*
G37*
G36*
X106210725Y-101986163D02*
G01*
X106281809Y-102435331D01*
X106163322Y-102977262D01*
X105885174Y-103112064D01*
X105617817Y-102863881D01*
X105652671Y-102513652D01*
X105741384Y-102435331D01*
X105901835Y-102108212D01*
X105864951Y-102006782D01*
X105904787Y-101768948D01*
X105995649Y-101752536D01*
X106210725Y-101986163D01*
G37*
G36*
X105471171Y-104893396D02*
G01*
X105336065Y-105029955D01*
X105200958Y-104893396D01*
X105336065Y-104756837D01*
X105471171Y-104893396D01*
G37*
G36*
X106240059Y-103501724D02*
G01*
X106527868Y-103755610D01*
X106552022Y-103817041D01*
X106423786Y-103929296D01*
X106156799Y-103677762D01*
X106120900Y-103622164D01*
X106089052Y-103435271D01*
X106240059Y-103501724D01*
G37*
G36*
X100247579Y-104365880D02*
G01*
X99972304Y-104600369D01*
X99651546Y-105010699D01*
X99650485Y-105284901D01*
X99645538Y-105549433D01*
X99542437Y-105576191D01*
X99288656Y-105355234D01*
X99256277Y-105166514D01*
X99086636Y-104803454D01*
X98941029Y-104756837D01*
X98704480Y-104696733D01*
X98879311Y-104557831D01*
X99354769Y-104402248D01*
X99695996Y-104333413D01*
X100207989Y-104269717D01*
X100247579Y-104365880D01*
G37*
G36*
X108443511Y-89052536D02*
G01*
X108308405Y-89189095D01*
X108173299Y-89052536D01*
X108308405Y-88915976D01*
X108443511Y-89052536D01*
G37*
G36*
X105278225Y-95123314D02*
G01*
X105336065Y-95197697D01*
X105431173Y-95443342D01*
X105175522Y-95350825D01*
X104930745Y-95197697D01*
X104723011Y-94978444D01*
X104847245Y-94928761D01*
X105278225Y-95123314D01*
G37*
G36*
X99526490Y-93422428D02*
G01*
X99391384Y-93558987D01*
X99256277Y-93422428D01*
X99391384Y-93285869D01*
X99526490Y-93422428D01*
G37*
G36*
X107621876Y-93757247D02*
G01*
X107632873Y-93832105D01*
X107540681Y-94098123D01*
X107513714Y-94105224D01*
X107283014Y-93913840D01*
X107227554Y-93832105D01*
X107248978Y-93580431D01*
X107346713Y-93558987D01*
X107621876Y-93757247D01*
G37*
G36*
X105613427Y-103990229D02*
G01*
X105532338Y-104193394D01*
X105280165Y-104329600D01*
X104964480Y-104412753D01*
X105093989Y-104212680D01*
X105128901Y-104176709D01*
X105483182Y-103960978D01*
X105613427Y-103990229D01*
G37*
G36*
X99436419Y-99112392D02*
G01*
X99468758Y-99436520D01*
X99436419Y-99476550D01*
X99275778Y-99439059D01*
X99256277Y-99294471D01*
X99355144Y-99069664D01*
X99436419Y-99112392D01*
G37*
G36*
X107362660Y-100250385D02*
G01*
X107227554Y-100386944D01*
X107092448Y-100250385D01*
X107227554Y-100113826D01*
X107362660Y-100250385D01*
G37*
G36*
X107415597Y-92006118D02*
G01*
X107624510Y-92325509D01*
X107632873Y-92466514D01*
X107448966Y-92952265D01*
X106884722Y-93059477D01*
X106734597Y-93038327D01*
X106619421Y-93161714D01*
X106649214Y-93223863D01*
X106637180Y-93613773D01*
X106522925Y-93845146D01*
X106334182Y-94054951D01*
X106327124Y-93775456D01*
X106338095Y-93695546D01*
X106266411Y-93273017D01*
X106046000Y-93228758D01*
X105796657Y-93131400D01*
X105843340Y-92865023D01*
X105991703Y-92341386D01*
X106011596Y-92171058D01*
X106246496Y-91994948D01*
X106812433Y-91920296D01*
X106822235Y-91920278D01*
X107415597Y-92006118D01*
G37*
G36*
X100751554Y-100671389D02*
G01*
X100719724Y-100757991D01*
X100476705Y-101093598D01*
X100188914Y-101235821D01*
X100066916Y-101103182D01*
X100246175Y-100867807D01*
X100478420Y-100654874D01*
X100771370Y-100455602D01*
X100751554Y-100671389D01*
G37*
G36*
X99796703Y-101069740D02*
G01*
X99661596Y-101206299D01*
X99526490Y-101069740D01*
X99661596Y-100933181D01*
X99796703Y-101069740D01*
G37*
G36*
X104120107Y-104893396D02*
G01*
X103985001Y-105029955D01*
X103849894Y-104893396D01*
X103985001Y-104756837D01*
X104120107Y-104893396D01*
G37*
G36*
X101962385Y-101615976D02*
G01*
X103579682Y-101615976D01*
X103714788Y-101752536D01*
X103849894Y-101615976D01*
X103714788Y-101479417D01*
X103579682Y-101615976D01*
X101962385Y-101615976D01*
X101859057Y-101076194D01*
X101891198Y-100834472D01*
X102099897Y-100938726D01*
X102119680Y-100955132D01*
X102423649Y-101116809D01*
X102498830Y-100830063D01*
X102329011Y-100443894D01*
X102161065Y-100382762D01*
X101975312Y-100311857D01*
X102133518Y-100177923D01*
X102315835Y-99789097D01*
X102380003Y-99079577D01*
X102337511Y-98258955D01*
X102199848Y-97536824D01*
X101978502Y-97122778D01*
X101965567Y-97113999D01*
X101787154Y-96882136D01*
X102047370Y-96660382D01*
X102231852Y-96467642D01*
X102175383Y-96148090D01*
X101836734Y-95595550D01*
X101405782Y-95008087D01*
X101121532Y-94586163D01*
X103426665Y-94586163D01*
X103692270Y-94629898D01*
X104042740Y-94579684D01*
X104046924Y-94486451D01*
X103685274Y-94421253D01*
X103529017Y-94464889D01*
X103426665Y-94586163D01*
X101121532Y-94586163D01*
X100877935Y-94224582D01*
X100548508Y-93569017D01*
X100487330Y-93208034D01*
X100385204Y-92786569D01*
X99903568Y-92336367D01*
X99417238Y-92035780D01*
X99271574Y-92045223D01*
X99346475Y-92310152D01*
X99382688Y-92619840D01*
X99253182Y-92601140D01*
X99024425Y-92664867D01*
X98986065Y-92860073D01*
X98763946Y-93229316D01*
X98513192Y-93304354D01*
X98255812Y-93360501D01*
X98471708Y-93529877D01*
X98648299Y-93619208D01*
X99108170Y-93901247D01*
X99252140Y-94078681D01*
X99010414Y-94546894D01*
X98467142Y-94849571D01*
X98398562Y-94863519D01*
X97959180Y-94707849D01*
X97733091Y-94102942D01*
X97738681Y-93162391D01*
X97895254Y-92584771D01*
X98140607Y-92263123D01*
X98362609Y-92278467D01*
X98449777Y-92648593D01*
X98496752Y-92974245D01*
X98679352Y-92788694D01*
X98702160Y-92752673D01*
X98862540Y-92320355D01*
X98841602Y-92178094D01*
X98973104Y-91951589D01*
X99399857Y-91692952D01*
X99888302Y-91521701D01*
X100057484Y-91660780D01*
X100066916Y-91789574D01*
X100198516Y-92149491D01*
X100307105Y-92193396D01*
X100522248Y-91978336D01*
X100534750Y-91851998D01*
X100570112Y-91006400D01*
X100755870Y-90677365D01*
X100916732Y-90715719D01*
X101122101Y-90688772D01*
X101097918Y-90231121D01*
X101100782Y-90145009D01*
X103849894Y-90145009D01*
X103985001Y-90281568D01*
X104120107Y-90145009D01*
X103985001Y-90008450D01*
X103849894Y-90145009D01*
X101100782Y-90145009D01*
X101116761Y-89664531D01*
X101290938Y-89535824D01*
X103639092Y-89535824D01*
X103717088Y-89696893D01*
X104187660Y-89713769D01*
X104528021Y-89650592D01*
X104456189Y-89553883D01*
X104257384Y-89249045D01*
X104305399Y-89097488D01*
X104289018Y-88987268D01*
X104036870Y-89154257D01*
X103639092Y-89535824D01*
X101290938Y-89535824D01*
X101328953Y-89507733D01*
X101846645Y-89444431D01*
X103105507Y-89444431D01*
X103142468Y-89462213D01*
X103389060Y-89269943D01*
X103444575Y-89189095D01*
X103513431Y-88933759D01*
X103476469Y-88915976D01*
X103229877Y-89108246D01*
X103174362Y-89189095D01*
X103105507Y-89444431D01*
X101846645Y-89444431D01*
X101937373Y-89433337D01*
X102078500Y-89416693D01*
X102397730Y-89226963D01*
X102416265Y-89099473D01*
X102609005Y-88833402D01*
X103177544Y-88588368D01*
X103958708Y-88425437D01*
X104293466Y-88396964D01*
X104663687Y-88444288D01*
X104800365Y-88732452D01*
X104772085Y-89408788D01*
X104770786Y-89422328D01*
X104590122Y-90358543D01*
X104287832Y-91212734D01*
X104261326Y-91265877D01*
X103917739Y-92077103D01*
X103922360Y-92596967D01*
X104279857Y-92955772D01*
X104322767Y-92980812D01*
X104650900Y-93208731D01*
X104495092Y-93363094D01*
X104315870Y-93435957D01*
X103999587Y-93677045D01*
X104133077Y-93984460D01*
X104248562Y-94366554D01*
X104003642Y-94914947D01*
X103818945Y-95181597D01*
X103207837Y-96017052D01*
X103822872Y-96857876D01*
X104179212Y-97432963D01*
X104297960Y-97813666D01*
X104279007Y-97859310D01*
X104129345Y-97818180D01*
X104120107Y-97730502D01*
X103903735Y-97392011D01*
X103708535Y-97281451D01*
X103440967Y-97241414D01*
X103516871Y-97532402D01*
X103588399Y-97672224D01*
X103750406Y-98364652D01*
X103700809Y-98792753D01*
X103647668Y-99191453D01*
X103820945Y-99175996D01*
X104090641Y-99162791D01*
X104120107Y-99262234D01*
X103922263Y-99646160D01*
X103836773Y-99712345D01*
X103715425Y-100019749D01*
X103869859Y-100274700D01*
X104049836Y-100589580D01*
X103867033Y-100660062D01*
X103682417Y-100828583D01*
X103729337Y-100956974D01*
X104104654Y-101139132D01*
X104447543Y-101112038D01*
X104809032Y-101061684D01*
X104826567Y-101129519D01*
X104882394Y-101394012D01*
X105137605Y-101652061D01*
X105448427Y-101966284D01*
X105313206Y-102204887D01*
X105201023Y-102283580D01*
X104813311Y-102372352D01*
X104612036Y-102083931D01*
X104464250Y-101775428D01*
X104414923Y-101994715D01*
X104409312Y-102123154D01*
X104245834Y-102491022D01*
X104007363Y-102481797D01*
X103593064Y-102553610D01*
X103478739Y-102716948D01*
X103483828Y-103130870D01*
X103738999Y-103301449D01*
X103955133Y-103193836D01*
X104351033Y-102986956D01*
X104765394Y-102975387D01*
X104930745Y-103142294D01*
X104873600Y-103397000D01*
X104863192Y-103401560D01*
X104579715Y-103441874D01*
X103954413Y-103529933D01*
X103714788Y-103563589D01*
X102959575Y-103722326D01*
X102433381Y-103927089D01*
X102363724Y-103979132D01*
X102291402Y-104137312D01*
X102531887Y-104074381D01*
X102900765Y-104102533D01*
X103100832Y-104596172D01*
X103122716Y-105053452D01*
X103000222Y-105142130D01*
X102801466Y-105226980D01*
X102769043Y-105423514D01*
X102927031Y-105796917D01*
X103072342Y-105849310D01*
X103221945Y-105973289D01*
X103049080Y-106247023D01*
X102854847Y-106711228D01*
X102896834Y-106929819D01*
X103225610Y-107161900D01*
X103635504Y-107201289D01*
X103850106Y-107024736D01*
X103850751Y-107010062D01*
X104091153Y-106878323D01*
X104689935Y-106799953D01*
X104922390Y-106792242D01*
X105827620Y-106649497D01*
X106668025Y-106176406D01*
X107015682Y-105892832D01*
X107795998Y-105254909D01*
X108552478Y-104696076D01*
X108788829Y-104540223D01*
X109480110Y-103887666D01*
X109716677Y-103034875D01*
X109512345Y-101919035D01*
X109421491Y-101663279D01*
X109107056Y-100335960D01*
X109001171Y-98698384D01*
X109104551Y-96944523D01*
X109398209Y-95343569D01*
X109718754Y-94060776D01*
X109915259Y-93160306D01*
X110016057Y-92500407D01*
X110044708Y-92108998D01*
X110164583Y-91766778D01*
X110302831Y-91763623D01*
X110383664Y-92003349D01*
X110351983Y-92585012D01*
X110200564Y-93554735D01*
X109922183Y-94958643D01*
X109509615Y-96842860D01*
X109501856Y-96877285D01*
X109310864Y-97978691D01*
X109317356Y-98937016D01*
X109506687Y-100018145D01*
X109738399Y-101483906D01*
X109849572Y-103093437D01*
X109824177Y-104560505D01*
X109783478Y-104961675D01*
X109636042Y-105469089D01*
X109278927Y-105919143D01*
X108618672Y-106393698D01*
X107561817Y-106974615D01*
X107378214Y-107068418D01*
X105328879Y-107864188D01*
X103277340Y-108197170D01*
X101320833Y-108057223D01*
X100383807Y-107797945D01*
X99496134Y-107381659D01*
X98596680Y-106798827D01*
X97795981Y-106144453D01*
X97204568Y-105513539D01*
X96932974Y-105001087D01*
X96942345Y-104840015D01*
X96949753Y-104360142D01*
X96787881Y-103676110D01*
X96782493Y-103660363D01*
X96660054Y-103104618D01*
X96685571Y-102443474D01*
X96875390Y-101524966D01*
X97101623Y-100693424D01*
X97710032Y-98565233D01*
X97020379Y-97359422D01*
X96516389Y-96344411D01*
X96084030Y-95253320D01*
X95980237Y-94924579D01*
X95701151Y-94128687D01*
X95404830Y-93550828D01*
X95295347Y-93422428D01*
X95029287Y-92964213D01*
X94880858Y-92235196D01*
X94848337Y-91406392D01*
X94930004Y-90648819D01*
X95124136Y-90133494D01*
X95329712Y-90008450D01*
X95602317Y-89827490D01*
X95571015Y-89598772D01*
X95615550Y-89248188D01*
X95839131Y-89189095D01*
X96096972Y-89313257D01*
X96227344Y-89759716D01*
X96263053Y-90622966D01*
X96269963Y-91778259D01*
X96298127Y-92490735D01*
X96359497Y-92863730D01*
X96466025Y-93000584D01*
X96539442Y-93012751D01*
X96756991Y-93241155D01*
X96893864Y-93750153D01*
X96906953Y-94275425D01*
X96788124Y-94537538D01*
X96603345Y-94434576D01*
X96554150Y-94121342D01*
X96452171Y-93668726D01*
X96304388Y-93558987D01*
X96254154Y-93783887D01*
X96370682Y-94357789D01*
X96603574Y-95129500D01*
X96902436Y-95947824D01*
X97216870Y-96661568D01*
X97487860Y-97109525D01*
X97725322Y-97597243D01*
X97913036Y-98329453D01*
X98020882Y-99105166D01*
X98018739Y-99723395D01*
X97916560Y-99970179D01*
X97726017Y-100290174D01*
X97481221Y-100952047D01*
X97367249Y-101333973D01*
X97178865Y-102155148D01*
X97193615Y-102663390D01*
X97397736Y-103032146D01*
X97595055Y-103336271D01*
X97432341Y-103290995D01*
X97149820Y-103191785D01*
X97150899Y-103441740D01*
X97439857Y-104091839D01*
X97511402Y-104233093D01*
X97880427Y-104751065D01*
X98207808Y-104871132D01*
X98228684Y-104860127D01*
X98407251Y-104836361D01*
X98366125Y-104939037D01*
X98428678Y-105288758D01*
X98831251Y-105739958D01*
X99416784Y-106179769D01*
X100028219Y-106495320D01*
X100508497Y-106573741D01*
X100594254Y-106540281D01*
X100936102Y-106578074D01*
X101010388Y-106664948D01*
X101359032Y-106797153D01*
X101694529Y-106665237D01*
X102042217Y-106242911D01*
X101933193Y-105683162D01*
X101390835Y-105099370D01*
X101368221Y-105082748D01*
X100973860Y-104688877D01*
X100903019Y-104398865D01*
X101172333Y-104348739D01*
X101282873Y-104384952D01*
X101610484Y-104343142D01*
X101688192Y-103966702D01*
X101819698Y-103538382D01*
X102025958Y-103459525D01*
X102295460Y-103331037D01*
X102300347Y-103199070D01*
X102204084Y-102738454D01*
X102042094Y-101994645D01*
X102018725Y-101889095D01*
X102228618Y-101889095D01*
X102363724Y-102025654D01*
X102498830Y-101889095D01*
X102363724Y-101752536D01*
X102228618Y-101889095D01*
X102018725Y-101889095D01*
X101988750Y-101753709D01*
X101962385Y-101615976D01*
G37*
G36*
X101603065Y-101700791D02*
G01*
X101811402Y-102176457D01*
X101904118Y-102623731D01*
X101869905Y-102752381D01*
X101696825Y-102608898D01*
X101475304Y-102290057D01*
X101185103Y-101737669D01*
X101229067Y-101506109D01*
X101386464Y-101479417D01*
X101603065Y-101700791D01*
G37*
G36*
X105381100Y-100477984D02*
G01*
X105413439Y-100802111D01*
X105381100Y-100842141D01*
X105220459Y-100804650D01*
X105200958Y-100660062D01*
X105299825Y-100435255D01*
X105381100Y-100477984D01*
G37*
G36*
X99166206Y-98019919D02*
G01*
X99198546Y-98344047D01*
X99166206Y-98384077D01*
X99005565Y-98346586D01*
X98986065Y-98201998D01*
X99084931Y-97977191D01*
X99166206Y-98019919D01*
G37*
G36*
X108415735Y-86948186D02*
G01*
X108849161Y-87388027D01*
X109286866Y-87962519D01*
X109514998Y-88379207D01*
X109524362Y-88431729D01*
X109696603Y-88807500D01*
X109944274Y-89106302D01*
X110194242Y-89607874D01*
X110278099Y-90286761D01*
X110197376Y-90915573D01*
X109953601Y-91266920D01*
X109929682Y-91275482D01*
X109525780Y-91189214D01*
X109134951Y-90955118D01*
X108817986Y-90657107D01*
X108830271Y-90554686D01*
X108869868Y-90387427D01*
X108713724Y-90145009D01*
X108550693Y-89814183D01*
X108649137Y-89735331D01*
X108943797Y-89512913D01*
X109041707Y-88975621D01*
X108940140Y-88318403D01*
X108676414Y-87786141D01*
X108276133Y-87173944D01*
X108197829Y-86874830D01*
X108415735Y-86948186D01*
G37*
G36*
X106281809Y-96153611D02*
G01*
X106146703Y-96290170D01*
X106011596Y-96153611D01*
X106146703Y-96017052D01*
X106281809Y-96153611D01*
G37*
G36*
X100696914Y-95372370D02*
G01*
X100413568Y-95814765D01*
X100187117Y-96085331D01*
X99656372Y-96687312D01*
X99275851Y-97131081D01*
X99205937Y-97217147D01*
X99112780Y-97201421D01*
X99161579Y-96899812D01*
X99460275Y-96268062D01*
X99945461Y-95659222D01*
X100451664Y-95260209D01*
X100668422Y-95197697D01*
X100696914Y-95372370D01*
G37*
G36*
X107092448Y-103254686D02*
G01*
X106957341Y-103391245D01*
X106822235Y-103254686D01*
X106957341Y-103118127D01*
X107092448Y-103254686D01*
G37*
D15*
X149932500Y-133874000D02*
X149932500Y-134874000D01*
X158932500Y-142674000D02*
X149932500Y-142674000D01*
X158932500Y-133874000D02*
X149932500Y-133874000D01*
X158932500Y-134874000D02*
X158932500Y-133874000D01*
%LPC*%
D16*
X113538000Y-107696000D03*
X113538000Y-87376000D03*
D17*
X109220000Y-65278000D03*
X107495000Y-65278000D03*
X121359000Y-105764500D03*
X119634000Y-105764500D03*
D18*
X128485500Y-85598000D03*
X131610500Y-85598000D03*
D19*
X162306000Y-80264000D03*
X165806000Y-80264000D03*
X162814000Y-127254000D03*
X166314000Y-127254000D03*
D18*
X126199500Y-120650000D03*
X129324500Y-120650000D03*
D17*
X121616000Y-90977500D03*
X119891000Y-90977500D03*
X126087500Y-90977500D03*
X124362500Y-90977500D03*
X130659500Y-90977500D03*
X128934500Y-90977500D03*
X134977500Y-90977500D03*
X133252500Y-90977500D03*
D20*
X148082000Y-93364000D03*
X148082000Y-91639000D03*
X150622000Y-93364000D03*
X150622000Y-91639000D03*
D21*
X153416000Y-91430500D03*
X153416000Y-94080500D03*
D20*
X148082000Y-98444000D03*
X148082000Y-96719000D03*
X150622000Y-98444000D03*
X150622000Y-96719000D03*
D21*
X153416000Y-96002500D03*
X153416000Y-98652500D03*
D22*
X119941000Y-99359500D03*
X121666000Y-99359500D03*
X124259000Y-99359500D03*
X125984000Y-99359500D03*
X128577000Y-99359500D03*
X130302000Y-99359500D03*
X133149000Y-99359500D03*
X134874000Y-99359500D03*
X119533500Y-113892500D03*
X121258500Y-113892500D03*
D17*
X125423000Y-105764500D03*
X123698000Y-105764500D03*
D22*
X123497000Y-113892500D03*
X125222000Y-113892500D03*
D17*
X129741000Y-105764500D03*
X128016000Y-105764500D03*
D22*
X127815000Y-113892500D03*
X129540000Y-113892500D03*
D17*
X134212500Y-105764500D03*
X132487500Y-105764500D03*
D22*
X132233500Y-113892500D03*
X133958500Y-113892500D03*
D20*
X148082000Y-107389000D03*
X148082000Y-105664000D03*
X148082000Y-113384500D03*
X148082000Y-111659500D03*
X150622000Y-107542500D03*
X150622000Y-105817500D03*
D21*
X153416000Y-105863000D03*
X153416000Y-108513000D03*
X153416000Y-110943000D03*
X153416000Y-113593000D03*
D18*
X107657500Y-129032000D03*
X110782500Y-129032000D03*
D23*
X104704000Y-69850000D03*
X111704000Y-69850000D03*
D24*
X166878000Y-74676000D03*
D25*
X164338000Y-74676000D03*
D24*
X157170234Y-124460000D03*
D25*
X154630234Y-124460000D03*
D24*
X156464000Y-74676000D03*
D25*
X153924000Y-74676000D03*
D24*
X154432000Y-128778000D03*
D25*
X151892000Y-128778000D03*
D26*
X134132000Y-77256000D03*
D27*
X139212000Y-81056000D03*
X139212000Y-70896000D03*
X129052000Y-81056000D03*
X129052000Y-70896000D03*
D26*
X120650000Y-77256000D03*
D27*
X125730000Y-70896000D03*
X125730000Y-81056000D03*
X115570000Y-81056000D03*
X115570000Y-70896000D03*
D26*
X134132000Y-128808000D03*
D27*
X139212000Y-125008000D03*
X129052000Y-125008000D03*
X129052000Y-135168000D03*
X139212000Y-135168000D03*
D26*
X120670000Y-128808000D03*
D27*
X115590000Y-135168000D03*
X125750000Y-135168000D03*
X115590000Y-125008000D03*
X125750000Y-125008000D03*
D28*
X100330000Y-138684000D03*
D29*
X104030000Y-141224000D03*
X104030000Y-136144000D03*
X96630000Y-136144000D03*
X96630000Y-141224000D03*
D30*
X124953000Y-85384000D03*
D31*
X122413000Y-85384000D03*
X119873000Y-85384000D03*
D30*
X122936000Y-120650000D03*
D31*
X120396000Y-120650000D03*
X117856000Y-120650000D03*
D32*
X155629500Y-65604500D03*
D33*
X150549500Y-65604500D03*
X148009500Y-65604500D03*
X145469500Y-65604500D03*
X145469500Y-70684500D03*
X148009500Y-70684500D03*
X150549500Y-70684500D03*
X155629500Y-70684500D03*
D34*
X147755500Y-130810000D03*
D33*
X147755500Y-125730000D03*
X147755500Y-123190000D03*
X147755500Y-120650000D03*
X142675500Y-120650000D03*
X142675500Y-123190000D03*
X142675500Y-125730000D03*
X142675500Y-130810000D03*
D35*
X141510000Y-94145500D03*
D36*
X145510000Y-95295500D03*
D35*
X141510000Y-96445500D03*
D37*
X128420500Y-76200000D03*
X126595500Y-76200000D03*
D38*
X161290000Y-89558500D03*
X161290000Y-87733500D03*
D37*
X160932500Y-121158000D03*
X159107500Y-121158000D03*
X128317000Y-129794000D03*
X126492000Y-129794000D03*
D39*
X119944500Y-94279500D03*
X121769500Y-94279500D03*
X124309500Y-94279500D03*
X126134500Y-94279500D03*
X128731000Y-94279500D03*
X130556000Y-94279500D03*
X132945500Y-94279500D03*
X134770500Y-94279500D03*
D38*
X138176000Y-93519000D03*
X138176000Y-91694000D03*
D39*
X119634000Y-108812500D03*
X121459000Y-108812500D03*
D38*
X138176000Y-98448500D03*
X138176000Y-96623500D03*
D37*
X121816500Y-96311500D03*
X119991500Y-96311500D03*
X126134500Y-96311500D03*
X124309500Y-96311500D03*
X130452500Y-96311500D03*
X128627500Y-96311500D03*
X135024500Y-96311500D03*
X133199500Y-96311500D03*
X121412000Y-110844500D03*
X119587000Y-110844500D03*
X125222000Y-110844500D03*
X123397000Y-110844500D03*
D39*
X128016000Y-108812500D03*
X129841000Y-108812500D03*
D37*
X129690500Y-110844500D03*
X127865500Y-110844500D03*
D39*
X132287000Y-108812500D03*
X134112000Y-108812500D03*
D35*
X141573500Y-108532500D03*
D36*
X145573500Y-109682500D03*
D35*
X141573500Y-110832500D03*
D38*
X137668000Y-107743000D03*
X137668000Y-105918000D03*
D40*
X107442000Y-134065000D03*
X107442000Y-135890000D03*
D41*
X104820000Y-116586000D03*
X113620000Y-116586000D03*
D42*
X93934000Y-77808000D03*
D43*
X96774000Y-77808000D03*
D42*
X99614000Y-77808000D03*
X99614000Y-67988000D03*
D43*
X96774000Y-67988000D03*
D42*
X93934000Y-67988000D03*
D44*
X97536000Y-118336000D03*
X97536000Y-114836000D03*
D20*
X150622000Y-113384500D03*
X150622000Y-111659500D03*
D39*
X123547500Y-108812500D03*
X125372500Y-108812500D03*
D38*
X137668000Y-113331000D03*
X137668000Y-111506000D03*
D37*
X134112000Y-110844500D03*
X132287000Y-110844500D03*
D45*
X154940000Y-80264000D03*
D46*
X156210000Y-80264000D03*
X157480000Y-80264000D03*
D45*
X154178000Y-120502000D03*
D46*
X155448000Y-120502000D03*
X156718000Y-120502000D03*
D30*
X110744000Y-138938000D03*
D31*
X110744000Y-136398000D03*
X110744000Y-133858000D03*
D30*
X165257500Y-85374000D03*
D31*
X167797500Y-85374000D03*
X165257500Y-87914000D03*
X167797500Y-87914000D03*
X165257500Y-90454000D03*
X167797500Y-90454000D03*
X165257500Y-92994000D03*
X167797500Y-92994000D03*
X165257500Y-95534000D03*
X167797500Y-95534000D03*
X165257500Y-98074000D03*
X167797500Y-98074000D03*
X165257500Y-100614000D03*
X167797500Y-100614000D03*
X165257500Y-103154000D03*
X167797500Y-103154000D03*
X165257500Y-105694000D03*
X167797500Y-105694000D03*
X165257500Y-108234000D03*
X167797500Y-108234000D03*
X165257500Y-110774000D03*
X167797500Y-110774000D03*
X165257500Y-113314000D03*
X167797500Y-113314000D03*
X165257500Y-115854000D03*
X167797500Y-115854000D03*
X165257500Y-118394000D03*
X167797500Y-118394000D03*
X165257500Y-120934000D03*
X167797500Y-120934000D03*
D47*
X105804000Y-80264000D03*
X110604000Y-80264000D03*
D28*
X154432500Y-138684000D03*
D29*
X158132500Y-141224000D03*
X158132500Y-136144000D03*
X150732500Y-136144000D03*
X150732500Y-141224000D03*
M02*
