%TF.GenerationSoftware,KiCad,Pcbnew,(6.0.9-0)*%
%TF.CreationDate,2023-03-20T13:18:36-04:00*%
%TF.ProjectId,dad_bod_02,6461645f-626f-4645-9f30-322e6b696361,rev?*%
%TF.SameCoordinates,Original*%
%TF.FileFunction,Legend,Bot*%
%TF.FilePolarity,Positive*%
%FSLAX46Y46*%
G04 Gerber Fmt 4.6, Leading zero omitted, Abs format (unit mm)*
G04 Created by KiCad (PCBNEW (6.0.9-0)) date 2023-03-20 13:18:36*
%MOMM*%
%LPD*%
G01*
G04 APERTURE LIST*
G04 Aperture macros list*
%AMRoundRect*
0 Rectangle with rounded corners*
0 $1 Rounding radius*
0 $2 $3 $4 $5 $6 $7 $8 $9 X,Y pos of 4 corners*
0 Add a 4 corners polygon primitive as box body*
4,1,4,$2,$3,$4,$5,$6,$7,$8,$9,$2,$3,0*
0 Add four circle primitives for the rounded corners*
1,1,$1+$1,$2,$3*
1,1,$1+$1,$4,$5*
1,1,$1+$1,$6,$7*
1,1,$1+$1,$8,$9*
0 Add four rect primitives between the rounded corners*
20,1,$1+$1,$2,$3,$4,$5,0*
20,1,$1+$1,$4,$5,$6,$7,0*
20,1,$1+$1,$6,$7,$8,$9,0*
20,1,$1+$1,$8,$9,$2,$3,0*%
G04 Aperture macros list end*
%ADD10C,0.150000*%
%ADD11C,1.524000*%
%ADD12R,2.200000X2.200000*%
%ADD13O,2.200000X2.200000*%
%ADD14C,3.200000*%
%ADD15C,2.300000*%
%ADD16C,1.755000*%
%ADD17C,2.025000*%
%ADD18R,1.700000X1.700000*%
%ADD19O,1.700000X1.700000*%
%ADD20RoundRect,0.250500X-0.499500X0.499500X-0.499500X-0.499500X0.499500X-0.499500X0.499500X0.499500X0*%
%ADD21C,1.500000*%
%ADD22RoundRect,0.250500X0.499500X0.499500X-0.499500X0.499500X-0.499500X-0.499500X0.499500X-0.499500X0*%
%ADD23R,1.050000X1.500000*%
%ADD24O,1.050000X1.500000*%
G04 APERTURE END LIST*
D10*
X93257619Y-101901047D02*
X92543333Y-101901047D01*
X92400476Y-101948666D01*
X92305238Y-102043904D01*
X92257619Y-102186761D01*
X92257619Y-102282000D01*
X92257619Y-100948666D02*
X92257619Y-101424857D01*
X93257619Y-101424857D01*
X92352857Y-100043904D02*
X92305238Y-100091523D01*
X92257619Y-100234380D01*
X92257619Y-100329619D01*
X92305238Y-100472476D01*
X92400476Y-100567714D01*
X92495714Y-100615333D01*
X92686190Y-100662952D01*
X92829047Y-100662952D01*
X93019523Y-100615333D01*
X93114761Y-100567714D01*
X93210000Y-100472476D01*
X93257619Y-100329619D01*
X93257619Y-100234380D01*
X93210000Y-100091523D01*
X93162380Y-100043904D01*
X93257619Y-99329619D02*
X92543333Y-99329619D01*
X92400476Y-99377238D01*
X92305238Y-99472476D01*
X92257619Y-99615333D01*
X92257619Y-99710571D01*
X92257619Y-98377238D02*
X92257619Y-98853428D01*
X93257619Y-98853428D01*
X92352857Y-97472476D02*
X92305238Y-97520095D01*
X92257619Y-97662952D01*
X92257619Y-97758190D01*
X92305238Y-97901047D01*
X92400476Y-97996285D01*
X92495714Y-98043904D01*
X92686190Y-98091523D01*
X92829047Y-98091523D01*
X93019523Y-98043904D01*
X93114761Y-97996285D01*
X93210000Y-97901047D01*
X93257619Y-97758190D01*
X93257619Y-97662952D01*
X93210000Y-97520095D01*
X93162380Y-97472476D01*
X93257619Y-96758190D02*
X92543333Y-96758190D01*
X92400476Y-96805809D01*
X92305238Y-96901047D01*
X92257619Y-97043904D01*
X92257619Y-97139142D01*
X92257619Y-95805809D02*
X92257619Y-96282000D01*
X93257619Y-96282000D01*
X92352857Y-94901047D02*
X92305238Y-94948666D01*
X92257619Y-95091523D01*
X92257619Y-95186761D01*
X92305238Y-95329619D01*
X92400476Y-95424857D01*
X92495714Y-95472476D01*
X92686190Y-95520095D01*
X92829047Y-95520095D01*
X93019523Y-95472476D01*
X93114761Y-95424857D01*
X93210000Y-95329619D01*
X93257619Y-95186761D01*
X93257619Y-95091523D01*
X93210000Y-94948666D01*
X93162380Y-94901047D01*
X93257619Y-94186761D02*
X92543333Y-94186761D01*
X92400476Y-94234380D01*
X92305238Y-94329619D01*
X92257619Y-94472476D01*
X92257619Y-94567714D01*
X92257619Y-93234380D02*
X92257619Y-93710571D01*
X93257619Y-93710571D01*
X92352857Y-92329619D02*
X92305238Y-92377238D01*
X92257619Y-92520095D01*
X92257619Y-92615333D01*
X92305238Y-92758190D01*
X92400476Y-92853428D01*
X92495714Y-92901047D01*
X92686190Y-92948666D01*
X92829047Y-92948666D01*
X93019523Y-92901047D01*
X93114761Y-92853428D01*
X93210000Y-92758190D01*
X93257619Y-92615333D01*
X93257619Y-92520095D01*
X93210000Y-92377238D01*
X93162380Y-92329619D01*
G36*
X138633121Y-99772290D02*
G01*
X138533121Y-99872290D01*
X138433121Y-99772290D01*
X138533121Y-99672290D01*
X138633121Y-99772290D01*
G37*
G36*
X136478382Y-102674583D02*
G01*
X136633121Y-102760486D01*
X136623917Y-102792568D01*
X136433121Y-102972290D01*
X136355648Y-103003540D01*
X136233121Y-102884093D01*
X136240806Y-102826040D01*
X136433121Y-102672290D01*
X136478382Y-102674583D01*
G37*
G36*
X137633121Y-99572290D02*
G01*
X137533121Y-99672290D01*
X137433121Y-99572290D01*
X137533121Y-99472290D01*
X137633121Y-99572290D01*
G37*
G36*
X162233121Y-95072290D02*
G01*
X162218687Y-95178169D01*
X162099787Y-95205623D01*
X162075851Y-95176309D01*
X162099787Y-94938956D01*
X162159944Y-94907667D01*
X162233121Y-95072290D01*
G37*
G36*
X127233121Y-103572290D02*
G01*
X127133121Y-103672290D01*
X127033121Y-103572290D01*
X127133121Y-103472290D01*
X127233121Y-103572290D01*
G37*
G36*
X140892973Y-99813339D02*
G01*
X141033121Y-99984093D01*
X141027921Y-100004053D01*
X140833121Y-100072290D01*
X140778303Y-100064150D01*
X140633121Y-99860486D01*
X140648824Y-99788147D01*
X140833121Y-99772290D01*
X140892973Y-99813339D01*
G37*
G36*
X136480926Y-98078101D02*
G01*
X136633121Y-98272290D01*
X136627309Y-98320095D01*
X136433121Y-98472290D01*
X136385315Y-98466478D01*
X136233121Y-98272290D01*
X136238932Y-98224484D01*
X136433121Y-98072290D01*
X136480926Y-98078101D01*
G37*
G36*
X139493629Y-105413281D02*
G01*
X139633121Y-105572290D01*
X139623709Y-105601218D01*
X139433121Y-105772290D01*
X139327193Y-105788308D01*
X139233121Y-105572290D01*
X139263682Y-105419783D01*
X139433121Y-105372290D01*
X139493629Y-105413281D01*
G37*
G36*
X159833121Y-96572290D02*
G01*
X159733121Y-96672290D01*
X159633121Y-96572290D01*
X159733121Y-96472290D01*
X159833121Y-96572290D01*
G37*
G36*
X130033121Y-108172290D02*
G01*
X129933121Y-108272290D01*
X129833121Y-108172290D01*
X129933121Y-108072290D01*
X130033121Y-108172290D01*
G37*
G36*
X138078382Y-99074583D02*
G01*
X138233121Y-99160486D01*
X138223917Y-99192568D01*
X138033121Y-99372290D01*
X137955648Y-99403540D01*
X137833121Y-99284093D01*
X137840806Y-99226040D01*
X138033121Y-99072290D01*
X138078382Y-99074583D01*
G37*
G36*
X140739000Y-104886723D02*
G01*
X140766454Y-105005623D01*
X140737140Y-105029559D01*
X140499787Y-105005623D01*
X140468498Y-104945466D01*
X140633121Y-104872290D01*
X140739000Y-104886723D01*
G37*
G36*
X157919306Y-97902220D02*
G01*
X157978954Y-97993123D01*
X157908196Y-98032755D01*
X157595621Y-98008912D01*
X157503047Y-97936923D01*
X157716454Y-97888079D01*
X157919306Y-97902220D01*
G37*
G36*
X160633121Y-95972290D02*
G01*
X160533121Y-96072290D01*
X160433121Y-95972290D01*
X160533121Y-95872290D01*
X160633121Y-95972290D01*
G37*
G36*
X121433121Y-100972290D02*
G01*
X121333121Y-101072290D01*
X121233121Y-100972290D01*
X121333121Y-100872290D01*
X121433121Y-100972290D01*
G37*
G36*
X141433121Y-103972290D02*
G01*
X141333121Y-104072290D01*
X141233121Y-103972290D01*
X141333121Y-103872290D01*
X141433121Y-103972290D01*
G37*
G36*
X157259963Y-107388879D02*
G01*
X157411321Y-107519585D01*
X157260770Y-107629740D01*
X157074772Y-107654253D01*
X156853638Y-107549978D01*
X156886481Y-107352262D01*
X156965527Y-107315491D01*
X157259963Y-107388879D01*
G37*
G36*
X126433121Y-104172290D02*
G01*
X126333121Y-104272290D01*
X126233121Y-104172290D01*
X126333121Y-104072290D01*
X126433121Y-104172290D01*
G37*
G36*
X130598226Y-104750311D02*
G01*
X130550976Y-105043398D01*
X130633111Y-105142403D01*
X130989173Y-105142479D01*
X131008149Y-105140021D01*
X131287974Y-105129983D01*
X131233121Y-105198787D01*
X131122657Y-105254822D01*
X130720478Y-105561880D01*
X130377962Y-105940536D01*
X130233121Y-106246230D01*
X130178214Y-106373907D01*
X129935427Y-106393143D01*
X129630738Y-106236235D01*
X129411377Y-105955308D01*
X129258960Y-105371343D01*
X129383604Y-104964881D01*
X129828700Y-104703800D01*
X129868221Y-104690485D01*
X130344458Y-104620362D01*
X130598226Y-104750311D01*
G37*
G36*
X131328701Y-98510450D02*
G01*
X131433121Y-98784093D01*
X131404341Y-98926950D01*
X131233121Y-98972290D01*
X131178500Y-98931353D01*
X131033121Y-98660486D01*
X131038845Y-98615835D01*
X131233121Y-98472290D01*
X131328701Y-98510450D01*
G37*
G36*
X130033121Y-103772290D02*
G01*
X129933121Y-103872290D01*
X129833121Y-103772290D01*
X129933121Y-103672290D01*
X130033121Y-103772290D01*
G37*
G36*
X161673815Y-114102783D02*
G01*
X161766454Y-114363492D01*
X161745879Y-114490505D01*
X161599787Y-114551688D01*
X161576405Y-114535378D01*
X161433121Y-114260486D01*
X161436319Y-114223813D01*
X161599787Y-114072290D01*
X161673815Y-114102783D01*
G37*
G36*
X129633121Y-97772290D02*
G01*
X129533121Y-97872290D01*
X129433121Y-97772290D01*
X129533121Y-97672290D01*
X129633121Y-97772290D01*
G37*
G36*
X142539000Y-98286723D02*
G01*
X142566454Y-98405623D01*
X142537140Y-98429559D01*
X142299787Y-98405623D01*
X142268498Y-98345466D01*
X142433121Y-98272290D01*
X142539000Y-98286723D01*
G37*
G36*
X142433121Y-98972290D02*
G01*
X142333121Y-99072290D01*
X142233121Y-98972290D01*
X142333121Y-98872290D01*
X142433121Y-98972290D01*
G37*
G36*
X141725513Y-97914404D02*
G01*
X141942190Y-98130577D01*
X141982971Y-98367571D01*
X141754711Y-98722290D01*
X141686309Y-98810172D01*
X141446169Y-99047002D01*
X141327290Y-98978876D01*
X141318922Y-98577456D01*
X141410316Y-97814404D01*
X141480117Y-97771208D01*
X141725513Y-97914404D01*
G37*
G36*
X142033121Y-103972290D02*
G01*
X141933121Y-104072290D01*
X141833121Y-103972290D01*
X141933121Y-103872290D01*
X142033121Y-103972290D01*
G37*
G36*
X141092973Y-101613339D02*
G01*
X141233121Y-101784093D01*
X141227921Y-101804053D01*
X141033121Y-101872290D01*
X140978303Y-101864150D01*
X140833121Y-101660486D01*
X140848824Y-101588147D01*
X141033121Y-101572290D01*
X141092973Y-101613339D01*
G37*
G36*
X127633121Y-105372290D02*
G01*
X127533121Y-105472290D01*
X127433121Y-105372290D01*
X127533121Y-105272290D01*
X127633121Y-105372290D01*
G37*
G36*
X162233121Y-95772290D02*
G01*
X162133121Y-95872290D01*
X162033121Y-95772290D01*
X162133121Y-95672290D01*
X162233121Y-95772290D01*
G37*
G36*
X160033121Y-113572290D02*
G01*
X159933121Y-113672290D01*
X159833121Y-113572290D01*
X159933121Y-113472290D01*
X160033121Y-113572290D01*
G37*
G36*
X123033121Y-94572290D02*
G01*
X122933121Y-94672290D01*
X122833121Y-94572290D01*
X122933121Y-94472290D01*
X123033121Y-94572290D01*
G37*
G36*
X140433121Y-96372290D02*
G01*
X140333121Y-96472290D01*
X140233121Y-96372290D01*
X140333121Y-96272290D01*
X140433121Y-96372290D01*
G37*
G36*
X158539000Y-111086723D02*
G01*
X158566454Y-111205623D01*
X158537140Y-111229559D01*
X158299787Y-111205623D01*
X158268498Y-111145466D01*
X158433121Y-111072290D01*
X158539000Y-111086723D01*
G37*
G36*
X130033121Y-98372290D02*
G01*
X129933121Y-98472290D01*
X129833121Y-98372290D01*
X129933121Y-98272290D01*
X130033121Y-98372290D01*
G37*
G36*
X141833121Y-97172290D02*
G01*
X141733121Y-97272290D01*
X141633121Y-97172290D01*
X141733121Y-97072290D01*
X141833121Y-97172290D01*
G37*
G36*
X159433121Y-97172290D02*
G01*
X159333121Y-97272290D01*
X159233121Y-97172290D01*
X159333121Y-97072290D01*
X159433121Y-97172290D01*
G37*
G36*
X160774267Y-113222290D02*
G01*
X160869154Y-113502823D01*
X161047031Y-113672290D01*
X161084397Y-113675431D01*
X161209436Y-113822290D01*
X161205283Y-114156016D01*
X161486679Y-114708004D01*
X161703300Y-114993783D01*
X161973143Y-115472290D01*
X162074496Y-115703404D01*
X162219430Y-116175725D01*
X162171604Y-116379369D01*
X161933121Y-116272290D01*
X161773311Y-116100339D01*
X161633121Y-115769198D01*
X161603251Y-115645295D01*
X161345574Y-115404743D01*
X161319245Y-115392278D01*
X161076720Y-115089700D01*
X160856477Y-114542703D01*
X160703175Y-113890496D01*
X160661472Y-113272290D01*
X160677633Y-113011012D01*
X160708942Y-112927693D01*
X160774267Y-113222290D01*
G37*
G36*
X122795605Y-89295531D02*
G01*
X122626360Y-89797706D01*
X122357497Y-90405857D01*
X122279538Y-90566513D01*
X121942506Y-91287979D01*
X121541410Y-92175192D01*
X121147007Y-93072290D01*
X120654555Y-94185487D01*
X120245782Y-95035589D01*
X119940990Y-95559174D01*
X119722250Y-95781389D01*
X119571629Y-95727379D01*
X119471195Y-95422290D01*
X119478401Y-95229228D01*
X119676932Y-95072290D01*
X119768746Y-95018140D01*
X120025428Y-94675007D01*
X120358178Y-94083367D01*
X120719873Y-93322290D01*
X120822408Y-93090086D01*
X121279309Y-92070640D01*
X121752560Y-91033979D01*
X122154625Y-90172290D01*
X122253572Y-89967829D01*
X122543436Y-89419298D01*
X122747407Y-89111264D01*
X122826349Y-89105857D01*
X122795605Y-89295531D01*
G37*
G36*
X139265611Y-100109793D02*
G01*
X139433121Y-100272290D01*
X139358114Y-100388535D01*
X139033121Y-100472290D01*
X138800630Y-100434786D01*
X138633121Y-100272290D01*
X138708127Y-100156044D01*
X139033121Y-100072290D01*
X139265611Y-100109793D01*
G37*
G36*
X130833121Y-98272290D02*
G01*
X130818687Y-98378169D01*
X130699787Y-98405623D01*
X130675851Y-98376309D01*
X130699787Y-98138956D01*
X130759944Y-98107667D01*
X130833121Y-98272290D01*
G37*
G36*
X156433121Y-105972290D02*
G01*
X156333121Y-106072290D01*
X156233121Y-105972290D01*
X156333121Y-105872290D01*
X156433121Y-105972290D01*
G37*
G36*
X157319306Y-106902220D02*
G01*
X157378954Y-106993123D01*
X157308196Y-107032755D01*
X156995621Y-107008912D01*
X156903047Y-106936923D01*
X157116454Y-106888079D01*
X157319306Y-106902220D01*
G37*
G36*
X136033121Y-97772290D02*
G01*
X135933121Y-97872290D01*
X135833121Y-97772290D01*
X135933121Y-97672290D01*
X136033121Y-97772290D01*
G37*
G36*
X156339000Y-107486723D02*
G01*
X156366454Y-107605623D01*
X156337140Y-107629559D01*
X156099787Y-107605623D01*
X156068498Y-107545466D01*
X156233121Y-107472290D01*
X156339000Y-107486723D01*
G37*
G36*
X139919342Y-104384064D02*
G01*
X140060353Y-104598414D01*
X140033542Y-104775029D01*
X139669342Y-104884917D01*
X139237364Y-104955378D01*
X139048827Y-104901417D01*
X139126913Y-104682333D01*
X139191740Y-104608780D01*
X139446940Y-104580831D01*
X139550576Y-104585237D01*
X139633121Y-104345867D01*
X139638056Y-104195621D01*
X139706953Y-104128408D01*
X139919342Y-104384064D01*
G37*
G36*
X132279370Y-103479975D02*
G01*
X132433121Y-103672290D01*
X132430827Y-103717551D01*
X132344924Y-103872290D01*
X132312842Y-103863086D01*
X132133121Y-103672290D01*
X132101870Y-103594817D01*
X132221317Y-103472290D01*
X132279370Y-103479975D01*
G37*
G36*
X133433121Y-104872290D02*
G01*
X133418687Y-104978169D01*
X133299787Y-105005623D01*
X133275851Y-104976309D01*
X133299787Y-104738956D01*
X133359944Y-104707667D01*
X133433121Y-104872290D01*
G37*
G36*
X139922997Y-97829989D02*
G01*
X139933121Y-97829927D01*
X140354087Y-97827347D01*
X140547795Y-97889278D01*
X140793636Y-98055540D01*
X140865611Y-98209713D01*
X140683121Y-98248605D01*
X140639483Y-98242365D01*
X140202452Y-98278512D01*
X140033121Y-98496778D01*
X140065179Y-98601475D01*
X140283121Y-98534508D01*
X140623747Y-98394262D01*
X141144924Y-98447290D01*
X141188701Y-98464729D01*
X141182092Y-98610531D01*
X140976957Y-98786695D01*
X140699919Y-98872290D01*
X140538064Y-98915243D01*
X140505446Y-99172290D01*
X140526559Y-99373611D01*
X140370702Y-99469640D01*
X140142227Y-99287024D01*
X139899348Y-99201723D01*
X139393670Y-99283604D01*
X139350041Y-99295826D01*
X138901079Y-99385500D01*
X138663034Y-99368869D01*
X138644949Y-99330574D01*
X138811591Y-99272290D01*
X138901819Y-99253902D01*
X138931104Y-99069027D01*
X138877730Y-99005557D01*
X138637953Y-98969303D01*
X138556790Y-98942491D01*
X138567140Y-98805623D01*
X139099787Y-98805623D01*
X139129101Y-98829559D01*
X139366454Y-98805623D01*
X139397743Y-98745466D01*
X139233121Y-98672290D01*
X139127241Y-98686723D01*
X139099787Y-98805623D01*
X138567140Y-98805623D01*
X138578057Y-98661254D01*
X138702265Y-98411748D01*
X139003309Y-98371549D01*
X139155853Y-98413926D01*
X139170752Y-98343254D01*
X139154438Y-98324286D01*
X139196701Y-98133597D01*
X139233121Y-98111240D01*
X139459469Y-97972290D01*
X139833121Y-97972290D01*
X139933121Y-98072290D01*
X140033121Y-97972290D01*
X139933121Y-97872290D01*
X139833121Y-97972290D01*
X139459469Y-97972290D01*
X139495045Y-97950451D01*
X139922997Y-97829989D01*
G37*
G36*
X141833121Y-102872290D02*
G01*
X141818687Y-102978169D01*
X141699787Y-103005623D01*
X141675851Y-102976309D01*
X141699787Y-102738956D01*
X141759944Y-102707667D01*
X141833121Y-102872290D01*
G37*
G36*
X140433121Y-105772290D02*
G01*
X140333121Y-105872290D01*
X140233121Y-105772290D01*
X140333121Y-105672290D01*
X140433121Y-105772290D01*
G37*
G36*
X137539000Y-105886723D02*
G01*
X137566454Y-106005623D01*
X137537140Y-106029559D01*
X137299787Y-106005623D01*
X137268498Y-105945466D01*
X137433121Y-105872290D01*
X137539000Y-105886723D01*
G37*
G36*
X124139000Y-108286723D02*
G01*
X124166454Y-108405623D01*
X124137140Y-108429559D01*
X123899787Y-108405623D01*
X123868498Y-108345466D01*
X124033121Y-108272290D01*
X124139000Y-108286723D01*
G37*
G36*
X161233121Y-95572290D02*
G01*
X161133121Y-95672290D01*
X161033121Y-95572290D01*
X161133121Y-95472290D01*
X161233121Y-95572290D01*
G37*
G36*
X142233121Y-97772290D02*
G01*
X142133121Y-97872290D01*
X142033121Y-97772290D01*
X142133121Y-97672290D01*
X142233121Y-97772290D01*
G37*
G36*
X125939000Y-105686723D02*
G01*
X125966454Y-105805623D01*
X125937140Y-105829559D01*
X125699787Y-105805623D01*
X125668498Y-105745466D01*
X125833121Y-105672290D01*
X125939000Y-105686723D01*
G37*
G36*
X138233121Y-103672290D02*
G01*
X138218687Y-103778169D01*
X138099787Y-103805623D01*
X138075851Y-103776309D01*
X138099787Y-103538956D01*
X138159944Y-103507667D01*
X138233121Y-103672290D01*
G37*
G36*
X124233121Y-106772290D02*
G01*
X124133121Y-106872290D01*
X124033121Y-106772290D01*
X124133121Y-106672290D01*
X124233121Y-106772290D01*
G37*
G36*
X134326989Y-98084690D02*
G01*
X134410695Y-98136847D01*
X134133121Y-98305141D01*
X134102292Y-98322704D01*
X133666488Y-98628327D01*
X133185207Y-99034478D01*
X133086437Y-99122245D01*
X132720944Y-99376626D01*
X132507757Y-99413593D01*
X132489301Y-99383298D01*
X132580895Y-99142134D01*
X132892048Y-98804199D01*
X133318901Y-98456353D01*
X133757595Y-98185457D01*
X134104272Y-98078371D01*
X134326989Y-98084690D01*
G37*
G36*
X142339000Y-101886723D02*
G01*
X142366454Y-102005623D01*
X142337140Y-102029559D01*
X142099787Y-102005623D01*
X142068498Y-101945466D01*
X142233121Y-101872290D01*
X142339000Y-101886723D01*
G37*
G36*
X139539000Y-99486723D02*
G01*
X139566454Y-99605623D01*
X139537140Y-99629559D01*
X139299787Y-99605623D01*
X139268498Y-99545466D01*
X139433121Y-99472290D01*
X139539000Y-99486723D01*
G37*
G36*
X136480926Y-104878101D02*
G01*
X136633121Y-105072290D01*
X136627309Y-105120095D01*
X136433121Y-105272290D01*
X136385315Y-105266478D01*
X136233121Y-105072290D01*
X136238932Y-105024484D01*
X136433121Y-104872290D01*
X136480926Y-104878101D01*
G37*
G36*
X126433121Y-94572290D02*
G01*
X126333121Y-94672290D01*
X126233121Y-94572290D01*
X126333121Y-94472290D01*
X126433121Y-94572290D01*
G37*
G36*
X127633121Y-99372290D02*
G01*
X127533121Y-99472290D01*
X127433121Y-99372290D01*
X127533121Y-99272290D01*
X127633121Y-99372290D01*
G37*
G36*
X140033121Y-96172290D02*
G01*
X139933121Y-96272290D01*
X139833121Y-96172290D01*
X139933121Y-96072290D01*
X140033121Y-96172290D01*
G37*
G36*
X130033121Y-97672290D02*
G01*
X130018687Y-97778169D01*
X129899787Y-97805623D01*
X129875851Y-97776309D01*
X129899787Y-97538956D01*
X129959944Y-97507667D01*
X130033121Y-97672290D01*
G37*
G36*
X131110053Y-105853145D02*
G01*
X131141308Y-105879850D01*
X131386257Y-106184333D01*
X131404938Y-106402131D01*
X131183121Y-106422383D01*
X131037759Y-106318736D01*
X130860053Y-105962083D01*
X130841192Y-105854300D01*
X130871861Y-105695752D01*
X131110053Y-105853145D01*
G37*
G36*
X138217331Y-98555623D02*
G01*
X138203190Y-98758475D01*
X138112287Y-98818123D01*
X138072655Y-98747365D01*
X138096498Y-98434790D01*
X138168487Y-98342216D01*
X138217331Y-98555623D01*
G37*
G36*
X135523978Y-97687698D02*
G01*
X135533121Y-97872290D01*
X135492249Y-97926339D01*
X135209514Y-98072290D01*
X135142263Y-98056881D01*
X135133121Y-97872290D01*
X135173992Y-97818240D01*
X135456727Y-97672290D01*
X135523978Y-97687698D01*
G37*
G36*
X125642781Y-97720727D02*
G01*
X125934239Y-98260154D01*
X126043502Y-98634282D01*
X125962490Y-98784007D01*
X125683121Y-98650225D01*
X125482907Y-98499295D01*
X125452285Y-98511198D01*
X125683121Y-98791484D01*
X125949838Y-99199268D01*
X126028893Y-99535459D01*
X125881230Y-99672290D01*
X125740609Y-99594396D01*
X125492681Y-99293339D01*
X125095460Y-98987532D01*
X124394571Y-98806256D01*
X124253911Y-98787956D01*
X123521881Y-98678038D01*
X122896419Y-98564459D01*
X122508537Y-98501128D01*
X122336251Y-98573222D01*
X122369745Y-98851541D01*
X122394334Y-98930971D01*
X122628208Y-99197647D01*
X123125845Y-99272290D01*
X123584649Y-99336347D01*
X124264573Y-99734436D01*
X124299787Y-99785551D01*
X124772892Y-100472290D01*
X124804418Y-100540990D01*
X124926467Y-100771836D01*
X124949852Y-100677085D01*
X124890821Y-100222290D01*
X124889975Y-100216508D01*
X124849505Y-99675857D01*
X124916045Y-99480037D01*
X125055467Y-99599945D01*
X125233641Y-100006476D01*
X125416437Y-100670524D01*
X125682265Y-101868758D01*
X125798583Y-101772290D01*
X127633121Y-101772290D01*
X127733121Y-101872290D01*
X127833121Y-101772290D01*
X132433121Y-101772290D01*
X132533121Y-101872290D01*
X132633121Y-101772290D01*
X132533121Y-101672290D01*
X132433121Y-101772290D01*
X127833121Y-101772290D01*
X127733121Y-101672290D01*
X127633121Y-101772290D01*
X125798583Y-101772290D01*
X125933121Y-101660712D01*
X126039738Y-101572290D01*
X135833121Y-101572290D01*
X135933121Y-101672290D01*
X136033121Y-101572290D01*
X135933121Y-101472290D01*
X135833121Y-101572290D01*
X126039738Y-101572290D01*
X126280892Y-101372290D01*
X134233121Y-101372290D01*
X134333121Y-101472290D01*
X134433121Y-101372290D01*
X134333121Y-101272290D01*
X134233121Y-101372290D01*
X126280892Y-101372290D01*
X126343310Y-101320524D01*
X126473022Y-101205623D01*
X126699787Y-101205623D01*
X126729101Y-101229559D01*
X126775656Y-101224864D01*
X126966454Y-101205623D01*
X126997743Y-101145466D01*
X126833121Y-101072290D01*
X126727241Y-101086723D01*
X126699787Y-101205623D01*
X126473022Y-101205623D01*
X126509666Y-101173163D01*
X126833121Y-100806322D01*
X126837196Y-100801700D01*
X126934566Y-100547181D01*
X127035805Y-100321896D01*
X127390818Y-100082391D01*
X127533121Y-100023430D01*
X127607184Y-99992743D01*
X127733121Y-99983101D01*
X127933502Y-99967759D01*
X128195675Y-100207500D01*
X128342306Y-100391197D01*
X128412455Y-100405582D01*
X128358598Y-100195896D01*
X128633121Y-100195896D01*
X128646142Y-100223254D01*
X128833121Y-100172290D01*
X128892324Y-100131200D01*
X129033121Y-99948683D01*
X129020099Y-99921325D01*
X128833121Y-99972290D01*
X128773917Y-100013379D01*
X128633121Y-100195896D01*
X128358598Y-100195896D01*
X128326850Y-100072290D01*
X128203520Y-99772290D01*
X130033121Y-99772290D01*
X130133121Y-99872290D01*
X130233121Y-99772290D01*
X130133121Y-99672290D01*
X130033121Y-99772290D01*
X128203520Y-99772290D01*
X128180266Y-99715724D01*
X127956164Y-99416214D01*
X127954306Y-99414905D01*
X127954644Y-99341814D01*
X128261302Y-99382420D01*
X128533121Y-99402341D01*
X128645136Y-99410550D01*
X128925121Y-99285233D01*
X129003195Y-99206413D01*
X129020099Y-99206240D01*
X129133121Y-99205083D01*
X129296940Y-99203406D01*
X129364758Y-99188480D01*
X129193239Y-98952100D01*
X129049765Y-98740429D01*
X128981232Y-98398136D01*
X129124630Y-98206599D01*
X129438399Y-98279784D01*
X129484887Y-98309950D01*
X129594190Y-98439796D01*
X129333121Y-98485016D01*
X129098362Y-98524400D01*
X129223999Y-98618372D01*
X129505051Y-98779532D01*
X129533121Y-98801842D01*
X129912895Y-99103686D01*
X130133121Y-99257625D01*
X130218729Y-99317465D01*
X130299787Y-99305285D01*
X130512017Y-99273393D01*
X130651730Y-99155405D01*
X130926142Y-99101303D01*
X131033121Y-99384093D01*
X131062140Y-99526894D01*
X131133121Y-99545225D01*
X131234533Y-99571416D01*
X131357761Y-99552811D01*
X131555931Y-99759613D01*
X131646787Y-99910763D01*
X131937852Y-100072289D01*
X132036272Y-100082808D01*
X132266454Y-100229514D01*
X132408557Y-100391925D01*
X132533121Y-100493646D01*
X132754328Y-100674287D01*
X133172038Y-100969751D01*
X133534653Y-101189348D01*
X133715140Y-101244108D01*
X133783536Y-101138324D01*
X133968243Y-100810374D01*
X134020436Y-100719244D01*
X134168811Y-100594956D01*
X134333121Y-100676338D01*
X134389017Y-100704023D01*
X134778579Y-101078744D01*
X135138567Y-101421568D01*
X135299787Y-101499616D01*
X135328629Y-101513579D01*
X135363960Y-101340659D01*
X135393335Y-101124459D01*
X135522183Y-101083228D01*
X135433121Y-101172290D01*
X135533121Y-101272290D01*
X135633121Y-101172290D01*
X135538756Y-101077925D01*
X135633121Y-101047728D01*
X135762497Y-101076309D01*
X135933121Y-101098519D01*
X136183121Y-101131061D01*
X136273466Y-101142326D01*
X136433121Y-101262766D01*
X136507715Y-101334549D01*
X136833121Y-101386575D01*
X137065970Y-101342217D01*
X137233121Y-101150830D01*
X137278904Y-101013549D01*
X137561409Y-100789109D01*
X137585231Y-100780079D01*
X137779206Y-100746352D01*
X137656305Y-100944354D01*
X137533373Y-101180369D01*
X137728016Y-101342656D01*
X137883096Y-101380696D01*
X138338999Y-101342359D01*
X138421982Y-101307951D01*
X138451141Y-101272290D01*
X138833121Y-101272290D01*
X138838932Y-101320095D01*
X139033121Y-101472290D01*
X139080926Y-101466478D01*
X139233121Y-101272290D01*
X139227309Y-101224484D01*
X139033121Y-101072290D01*
X138985315Y-101078101D01*
X138833121Y-101272290D01*
X138451141Y-101272290D01*
X138525385Y-101181492D01*
X138295999Y-100969877D01*
X138118211Y-100813813D01*
X138206492Y-100747705D01*
X138640121Y-100759644D01*
X138685572Y-100762145D01*
X139033121Y-100741981D01*
X139224664Y-100730868D01*
X139587954Y-100609903D01*
X139726831Y-100532105D01*
X139971287Y-100543789D01*
X140002828Y-100592029D01*
X139872731Y-100672290D01*
X139718202Y-100723439D01*
X139734214Y-100904403D01*
X139941653Y-101108250D01*
X140258816Y-101219234D01*
X140262220Y-101219487D01*
X140565032Y-101160838D01*
X140572324Y-100861402D01*
X140544889Y-100711194D01*
X140647222Y-100519634D01*
X141051844Y-100472290D01*
X141472722Y-100424327D01*
X141616813Y-100241416D01*
X141393120Y-99912289D01*
X141259947Y-99740001D01*
X141386084Y-99672290D01*
X141574447Y-99757752D01*
X141836118Y-100077891D01*
X142013412Y-100309951D01*
X142228756Y-100374987D01*
X142363647Y-100394265D01*
X142533121Y-100672290D01*
X142651543Y-100897099D01*
X142847520Y-100963390D01*
X142929918Y-100939728D01*
X143048910Y-101110486D01*
X143075139Y-101259829D01*
X143165577Y-101122290D01*
X143228625Y-101023508D01*
X143549787Y-100872290D01*
X143681728Y-100836945D01*
X143819764Y-100574928D01*
X143764102Y-100176946D01*
X143518835Y-99786575D01*
X143415712Y-99680561D01*
X143313207Y-99508606D01*
X143508629Y-99472290D01*
X143686598Y-99431594D01*
X143694781Y-99237121D01*
X143525868Y-98785780D01*
X143110046Y-98048164D01*
X142499809Y-97311818D01*
X141855185Y-96788712D01*
X141827088Y-96772290D01*
X151233121Y-96772290D01*
X151333121Y-96872290D01*
X151433121Y-96772290D01*
X151333121Y-96672290D01*
X151733121Y-96672290D01*
X151774057Y-96726910D01*
X152044924Y-96872290D01*
X152089575Y-96866565D01*
X152233121Y-96672290D01*
X152194960Y-96576709D01*
X151921317Y-96472290D01*
X151778460Y-96501069D01*
X151733121Y-96672290D01*
X151333121Y-96672290D01*
X151233121Y-96772290D01*
X141827088Y-96772290D01*
X141482958Y-96571153D01*
X141129634Y-96372290D01*
X145433121Y-96372290D01*
X145533121Y-96472290D01*
X145633121Y-96372290D01*
X146633121Y-96372290D01*
X146733121Y-96472290D01*
X146833121Y-96372290D01*
X146733121Y-96272290D01*
X146633121Y-96372290D01*
X145633121Y-96372290D01*
X145533121Y-96272290D01*
X145433121Y-96372290D01*
X141129634Y-96372290D01*
X140833737Y-96205749D01*
X140375562Y-95999595D01*
X140000528Y-95924128D01*
X139600732Y-95950785D01*
X139068269Y-96051004D01*
X138655602Y-96149268D01*
X137891502Y-96396329D01*
X137299573Y-96665583D01*
X137156208Y-96746811D01*
X136782817Y-96917427D01*
X136633116Y-96915544D01*
X136591286Y-96870923D01*
X136268086Y-96786598D01*
X135729994Y-96737441D01*
X134922116Y-96600644D01*
X134214653Y-96187441D01*
X134112291Y-96105969D01*
X133597402Y-95797261D01*
X133162277Y-95672290D01*
X132782186Y-95601379D01*
X132277622Y-95360949D01*
X131971479Y-95175951D01*
X131833120Y-95155999D01*
X131688631Y-95174641D01*
X131315925Y-95065752D01*
X131202764Y-95024497D01*
X130908766Y-94969450D01*
X130882424Y-95120702D01*
X131105625Y-95331320D01*
X131549620Y-95498627D01*
X131729831Y-95542322D01*
X131912631Y-95633286D01*
X131710353Y-95691673D01*
X131133121Y-95712290D01*
X130836915Y-95710154D01*
X130415090Y-95676964D01*
X130267519Y-95574898D01*
X130268019Y-95572290D01*
X130633121Y-95572290D01*
X130733121Y-95672290D01*
X130833121Y-95572290D01*
X130733121Y-95472290D01*
X130633121Y-95572290D01*
X130268019Y-95572290D01*
X130307222Y-95367662D01*
X130326381Y-95314833D01*
X130315752Y-95161057D01*
X130044753Y-95266064D01*
X129801026Y-95354531D01*
X129599255Y-95288526D01*
X129566173Y-95245325D01*
X129254448Y-95122065D01*
X128764218Y-95046991D01*
X128265697Y-95037996D01*
X127929101Y-95112970D01*
X127670294Y-95195277D01*
X127206205Y-95144848D01*
X126804421Y-94938231D01*
X126633120Y-94637171D01*
X126673454Y-94430511D01*
X126836383Y-94374306D01*
X126899499Y-94429243D01*
X126924579Y-94686109D01*
X126909953Y-94781490D01*
X127121317Y-94872290D01*
X127321422Y-94783849D01*
X127433121Y-94393687D01*
X127502220Y-94066975D01*
X127743508Y-93795978D01*
X127924771Y-93759707D01*
X127912781Y-93924580D01*
X127906210Y-93936504D01*
X127936626Y-93979368D01*
X128176818Y-93772290D01*
X128442865Y-93467699D01*
X128531274Y-93272290D01*
X128489321Y-93183511D01*
X128317889Y-92809324D01*
X128072214Y-92266988D01*
X127966186Y-92048516D01*
X127526336Y-91303923D01*
X127051679Y-90666988D01*
X126868430Y-90452520D01*
X126559761Y-90051534D01*
X126436315Y-89826940D01*
X126321756Y-89669931D01*
X125966524Y-89333958D01*
X125454932Y-88908378D01*
X125337477Y-88816499D01*
X124747565Y-88408169D01*
X124293706Y-88228664D01*
X123854932Y-88226427D01*
X123828927Y-88230398D01*
X123407250Y-88346693D01*
X123233120Y-88494989D01*
X123217623Y-88557158D01*
X122990263Y-88672290D01*
X122933228Y-88670270D01*
X122804545Y-88591478D01*
X122954094Y-88432899D01*
X123298451Y-88242371D01*
X123754191Y-88067736D01*
X124237890Y-87956834D01*
X125133121Y-87836631D01*
X126333121Y-89272640D01*
X126457019Y-89422948D01*
X127174187Y-90350027D01*
X127919119Y-91388432D01*
X128549020Y-92340469D01*
X128709059Y-92595606D01*
X129166170Y-93284533D01*
X129501856Y-93696327D01*
X129770200Y-93888857D01*
X130025291Y-93919992D01*
X130349292Y-93951430D01*
X130711353Y-94176343D01*
X130733121Y-94197770D01*
X130771063Y-94235119D01*
X131162475Y-94468895D01*
X131795518Y-94756554D01*
X132565847Y-95048995D01*
X132784630Y-95126836D01*
X133599813Y-95450838D01*
X134295663Y-95776105D01*
X134740858Y-96042644D01*
X135137333Y-96297090D01*
X135598404Y-96430697D01*
X136181836Y-96421520D01*
X136970653Y-96267665D01*
X138047875Y-95967241D01*
X138459553Y-95845777D01*
X139187621Y-95654966D01*
X139716775Y-95576034D01*
X140171942Y-95596467D01*
X140678049Y-95703751D01*
X141011845Y-95780997D01*
X141624275Y-95840266D01*
X142078049Y-95721593D01*
X142089279Y-95716172D01*
X142474464Y-95572290D01*
X144233121Y-95572290D01*
X144333121Y-95672290D01*
X144433121Y-95572290D01*
X144333121Y-95472290D01*
X144233121Y-95572290D01*
X142474464Y-95572290D01*
X142521372Y-95554768D01*
X143196213Y-95349517D01*
X143972738Y-95143460D01*
X144333121Y-95060759D01*
X144616375Y-94995757D01*
X145271020Y-94900137D01*
X145533121Y-94907740D01*
X145834522Y-94916484D01*
X146472738Y-95037785D01*
X146733121Y-95097271D01*
X147056902Y-95171241D01*
X148033190Y-95380109D01*
X148921608Y-95554329D01*
X149621727Y-95674610D01*
X150033121Y-95721663D01*
X150160346Y-95734517D01*
X150533121Y-95875547D01*
X150569545Y-95894750D01*
X150932939Y-95984561D01*
X151333121Y-96045107D01*
X151557708Y-96079086D01*
X151921317Y-96117393D01*
X152333121Y-96160778D01*
X152398734Y-96166400D01*
X153384532Y-96261688D01*
X154036991Y-96357986D01*
X154418863Y-96473888D01*
X154592899Y-96627984D01*
X154621851Y-96838866D01*
X154619193Y-96871718D01*
X154680031Y-97439675D01*
X154898073Y-97896276D01*
X155206447Y-98097545D01*
X155236152Y-98099764D01*
X155314923Y-98105650D01*
X155807310Y-98140527D01*
X156433121Y-98183310D01*
X156629168Y-98198215D01*
X157133121Y-98252254D01*
X157329568Y-98273319D01*
X157333121Y-98273888D01*
X157733121Y-98337945D01*
X157883121Y-98361966D01*
X158264105Y-98392899D01*
X158433121Y-98254803D01*
X158479337Y-98154121D01*
X158740691Y-98147520D01*
X158779722Y-98150850D01*
X158932231Y-98163861D01*
X159178297Y-97918918D01*
X159195888Y-97875522D01*
X159459003Y-97492555D01*
X159800939Y-97230708D01*
X160080915Y-97201828D01*
X160184750Y-97295522D01*
X160201200Y-97545746D01*
X159933121Y-97672290D01*
X159794213Y-97701104D01*
X159633121Y-97924180D01*
X159532076Y-98149155D01*
X159203744Y-98444221D01*
X159192189Y-98451477D01*
X158927653Y-98688693D01*
X159022288Y-98865595D01*
X159254145Y-98879834D01*
X159487879Y-98738214D01*
X159644115Y-98643550D01*
X159709050Y-98572290D01*
X160833121Y-98572290D01*
X160933121Y-98672290D01*
X161033121Y-98572290D01*
X160933121Y-98472290D01*
X160833121Y-98572290D01*
X159709050Y-98572290D01*
X160051333Y-98196670D01*
X160352775Y-97677361D01*
X160384742Y-97622290D01*
X160482583Y-97380317D01*
X160496295Y-97266013D01*
X160833121Y-97266013D01*
X160875589Y-97348772D01*
X160933121Y-97347843D01*
X161133121Y-97344615D01*
X161261257Y-97286830D01*
X161276729Y-97279853D01*
X161433121Y-97150892D01*
X161399962Y-97115080D01*
X161133121Y-97072290D01*
X160995208Y-97094113D01*
X160833121Y-97266013D01*
X160496295Y-97266013D01*
X160512382Y-97131910D01*
X160328833Y-97072290D01*
X160194808Y-97050429D01*
X160033121Y-96872290D01*
X160050679Y-96798635D01*
X160283121Y-96669227D01*
X160398645Y-96629371D01*
X160324552Y-96550445D01*
X161664544Y-96550445D01*
X161712287Y-96818123D01*
X161780560Y-96815026D01*
X161817331Y-96555623D01*
X161785304Y-96359033D01*
X161696498Y-96434790D01*
X161664544Y-96550445D01*
X160324552Y-96550445D01*
X160233121Y-96453050D01*
X160141592Y-96382164D01*
X160142459Y-96306660D01*
X160491494Y-96362025D01*
X160887326Y-96391572D01*
X161133121Y-96274485D01*
X161374460Y-96159521D01*
X161533121Y-96016236D01*
X161551828Y-95999342D01*
X161742849Y-95986995D01*
X161785304Y-96051705D01*
X161833121Y-96124588D01*
X161950572Y-96303609D01*
X162025396Y-96544046D01*
X162093938Y-97048912D01*
X162146218Y-97829758D01*
X162183665Y-98917554D01*
X162207708Y-100343270D01*
X162219776Y-102137876D01*
X162220457Y-103561449D01*
X162213366Y-104861794D01*
X162199400Y-105978338D01*
X162179479Y-106857036D01*
X162154522Y-107443840D01*
X162125448Y-107684704D01*
X162070448Y-107710789D01*
X161799047Y-107586002D01*
X161412969Y-107251675D01*
X161365692Y-107204158D01*
X160866932Y-106820317D01*
X160571515Y-106772290D01*
X161433121Y-106772290D01*
X161533121Y-106872290D01*
X161633121Y-106772290D01*
X161533121Y-106672290D01*
X161433121Y-106772290D01*
X160571515Y-106772290D01*
X160493888Y-106759670D01*
X160201625Y-106758490D01*
X159799781Y-106542118D01*
X159691403Y-106445061D01*
X159529807Y-106332043D01*
X159545639Y-106475394D01*
X159728704Y-106930872D01*
X159770463Y-107034651D01*
X159957239Y-107616496D01*
X159985304Y-107782696D01*
X160033121Y-108065866D01*
X160047044Y-108202745D01*
X160232584Y-108442778D01*
X160536390Y-108399628D01*
X160733121Y-108182605D01*
X160833121Y-108072290D01*
X160946680Y-107778985D01*
X160828354Y-107672290D01*
X160752943Y-107656410D01*
X160733121Y-107472290D01*
X160773857Y-107419251D01*
X161078257Y-107272290D01*
X161149887Y-107280914D01*
X161173491Y-107398586D01*
X161137795Y-107546331D01*
X161247194Y-107898586D01*
X161249060Y-107902079D01*
X161341308Y-108194109D01*
X161146434Y-108272290D01*
X161001189Y-108310100D01*
X160954861Y-108556826D01*
X160994398Y-108641388D01*
X161151876Y-108699386D01*
X161448584Y-108456826D01*
X161862028Y-108133261D01*
X162137454Y-108134347D01*
X162233121Y-108484093D01*
X162186642Y-108736134D01*
X161983121Y-108745701D01*
X161973527Y-108739975D01*
X161844549Y-108699722D01*
X161992607Y-108915821D01*
X162082449Y-109096014D01*
X162171017Y-109582486D01*
X162209788Y-110372896D01*
X162202554Y-111514159D01*
X162186092Y-112221490D01*
X162159356Y-112956829D01*
X162118360Y-113387979D01*
X162050700Y-113571804D01*
X161943972Y-113565169D01*
X161785772Y-113424941D01*
X161571820Y-113133854D01*
X161535074Y-112869128D01*
X161567965Y-112703633D01*
X161463952Y-112326423D01*
X161441513Y-112280234D01*
X161290531Y-111808448D01*
X161174917Y-111209171D01*
X161173810Y-111200879D01*
X161075230Y-110678816D01*
X160963157Y-110355460D01*
X160871238Y-110294681D01*
X160833121Y-110560354D01*
X160770589Y-110788457D01*
X160489217Y-110783117D01*
X160313416Y-110731455D01*
X160279693Y-110785528D01*
X160297997Y-110930838D01*
X160108819Y-111225162D01*
X160092274Y-111241843D01*
X159916005Y-111506195D01*
X160062551Y-111690478D01*
X160171024Y-111782963D01*
X160193995Y-111978082D01*
X159982017Y-111946024D01*
X159649787Y-111688956D01*
X159306822Y-111401530D01*
X159033121Y-111272290D01*
X158942748Y-111240267D01*
X158833121Y-110977426D01*
X158831949Y-110972290D01*
X159233121Y-110972290D01*
X159333121Y-111072290D01*
X159433121Y-110972290D01*
X159333121Y-110872290D01*
X159233121Y-110972290D01*
X158831949Y-110972290D01*
X158804247Y-110850849D01*
X158490790Y-110541447D01*
X157907378Y-110272416D01*
X157147593Y-110060885D01*
X156305013Y-109923984D01*
X155473219Y-109878841D01*
X154745792Y-109942586D01*
X154216311Y-110132348D01*
X154090277Y-110206951D01*
X153836110Y-110302699D01*
X153489311Y-110344646D01*
X152973880Y-110333294D01*
X152213816Y-110269144D01*
X151133121Y-110152698D01*
X150555325Y-110090086D01*
X149466704Y-109994590D01*
X148617542Y-109964499D01*
X147900103Y-109998207D01*
X147206655Y-110094107D01*
X146604777Y-110191415D01*
X146076404Y-110232246D01*
X145719843Y-110170625D01*
X145412153Y-110000114D01*
X144933924Y-109779684D01*
X144318627Y-109672290D01*
X144267295Y-109670316D01*
X143892901Y-109572290D01*
X158433121Y-109572290D01*
X158533121Y-109672290D01*
X158633121Y-109572290D01*
X158611276Y-109550445D01*
X159864544Y-109550445D01*
X159912287Y-109818123D01*
X159980560Y-109815026D01*
X160017331Y-109555623D01*
X159987464Y-109372290D01*
X160633121Y-109372290D01*
X160733121Y-109472290D01*
X160833121Y-109372290D01*
X160733121Y-109272290D01*
X160633121Y-109372290D01*
X159987464Y-109372290D01*
X159985304Y-109359033D01*
X159896498Y-109434790D01*
X159864544Y-109550445D01*
X158611276Y-109550445D01*
X158533121Y-109472290D01*
X158433121Y-109572290D01*
X143892901Y-109572290D01*
X143775999Y-109541682D01*
X143189557Y-109263755D01*
X142625344Y-108909084D01*
X142200739Y-108550214D01*
X142033121Y-108259694D01*
X141908302Y-108200859D01*
X141588619Y-108360949D01*
X141385521Y-108466997D01*
X140725483Y-108623340D01*
X139913169Y-108665426D01*
X139108947Y-108591298D01*
X138473189Y-108398996D01*
X137822606Y-108160916D01*
X136657473Y-107987128D01*
X135259794Y-107998040D01*
X133699936Y-108191817D01*
X132048267Y-108566622D01*
X131675974Y-108662045D01*
X130768346Y-108852682D01*
X129948267Y-108978227D01*
X129431900Y-109031529D01*
X129156722Y-109038682D01*
X129203986Y-108969813D01*
X129533121Y-108808320D01*
X129573637Y-108789668D01*
X130009017Y-108625494D01*
X130256364Y-108595385D01*
X130374819Y-108593752D01*
X130817426Y-108517720D01*
X131499302Y-108369579D01*
X132332009Y-108167557D01*
X134002714Y-107828431D01*
X135736129Y-107672368D01*
X137276445Y-107749954D01*
X138558675Y-108062287D01*
X138955477Y-108194843D01*
X139641401Y-108352331D01*
X140158675Y-108384990D01*
X140608458Y-108334116D01*
X140983121Y-108295094D01*
X141073905Y-108271136D01*
X141233121Y-108043852D01*
X141233154Y-108041847D01*
X141358919Y-107780480D01*
X141681878Y-107321133D01*
X142133121Y-106761954D01*
X142141802Y-106751781D01*
X142591127Y-106195293D01*
X142911159Y-105742439D01*
X143033121Y-105490391D01*
X143040862Y-105427310D01*
X143213555Y-105272290D01*
X143375890Y-105144006D01*
X143530009Y-104805038D01*
X154947889Y-104805038D01*
X155013875Y-105041921D01*
X155025221Y-105065404D01*
X155127833Y-105454284D01*
X155215373Y-106067349D01*
X155282102Y-106801079D01*
X155322283Y-107551956D01*
X155330180Y-108216462D01*
X155300054Y-108691080D01*
X155226169Y-108872290D01*
X155184891Y-108874057D01*
X155027989Y-108988858D01*
X155137324Y-109197589D01*
X155458090Y-109380214D01*
X155733070Y-109419241D01*
X156033121Y-109272290D01*
X156196741Y-109146991D01*
X156658151Y-109188669D01*
X156783293Y-109229967D01*
X157321280Y-109375792D01*
X157560717Y-109354386D01*
X157557700Y-109164222D01*
X157605267Y-108908885D01*
X159155738Y-108908885D01*
X159194802Y-108953679D01*
X159333121Y-108959203D01*
X159446940Y-108963748D01*
X159503297Y-108927386D01*
X159613660Y-108782585D01*
X159549538Y-108772290D01*
X160633121Y-108772290D01*
X160733121Y-108872290D01*
X160833121Y-108772290D01*
X160733121Y-108672290D01*
X160633121Y-108772290D01*
X159549538Y-108772290D01*
X159341918Y-108738956D01*
X159214973Y-108760007D01*
X159155738Y-108908885D01*
X157605267Y-108908885D01*
X157612304Y-108871109D01*
X157908210Y-108527616D01*
X158201505Y-108209141D01*
X158282443Y-107920258D01*
X158273125Y-107810837D01*
X158466454Y-107652353D01*
X158509207Y-107592245D01*
X158233121Y-107472290D01*
X157955166Y-107378985D01*
X157887251Y-107316770D01*
X158178510Y-107292226D01*
X158533121Y-107381205D01*
X158534620Y-107381581D01*
X158951512Y-107772290D01*
X159231230Y-108121784D01*
X159341918Y-108195860D01*
X159456122Y-108272290D01*
X159585076Y-108189131D01*
X159577556Y-107837192D01*
X159384551Y-107172290D01*
X159221523Y-106681294D01*
X159112104Y-106322290D01*
X159096894Y-106288353D01*
X158812377Y-106131705D01*
X158289397Y-106067842D01*
X157640527Y-105965444D01*
X157033121Y-105672290D01*
X156924772Y-105605623D01*
X161699787Y-105605623D01*
X161729101Y-105629559D01*
X161966454Y-105605623D01*
X161997743Y-105545466D01*
X161833121Y-105472290D01*
X161727241Y-105486723D01*
X161699787Y-105605623D01*
X156924772Y-105605623D01*
X156586858Y-105397706D01*
X156194924Y-105276737D01*
X156019415Y-105252941D01*
X155748041Y-105096431D01*
X155618134Y-104979882D01*
X155239707Y-104816062D01*
X155179852Y-104801166D01*
X154947889Y-104805038D01*
X143530009Y-104805038D01*
X143572839Y-104710837D01*
X143752983Y-104073914D01*
X143890254Y-103370284D01*
X154233121Y-103370284D01*
X154253955Y-103694609D01*
X154429715Y-104036671D01*
X154883121Y-104280531D01*
X155179852Y-104405942D01*
X155300151Y-104456786D01*
X155995155Y-104770816D01*
X156733121Y-105120202D01*
X157449293Y-105434066D01*
X158082130Y-105600227D01*
X158633121Y-105587962D01*
X158688411Y-105578891D01*
X159225333Y-105492959D01*
X159583121Y-105439222D01*
X159673041Y-105417572D01*
X159833121Y-105263445D01*
X159681714Y-104986347D01*
X159631381Y-104963962D01*
X161063313Y-104963962D01*
X161099360Y-105189116D01*
X161229087Y-105072290D01*
X161302088Y-104948634D01*
X161422907Y-104496310D01*
X161274608Y-104197930D01*
X161261257Y-104191973D01*
X161144678Y-104330924D01*
X161073637Y-104736127D01*
X161063313Y-104963962D01*
X159631381Y-104963962D01*
X159253477Y-104795892D01*
X158673950Y-104772185D01*
X158408097Y-104788734D01*
X158083793Y-104716270D01*
X158079102Y-104555815D01*
X158433121Y-104372290D01*
X158666283Y-104240120D01*
X158833121Y-103937130D01*
X158831665Y-103896804D01*
X158704093Y-103719767D01*
X158309602Y-103760321D01*
X157912809Y-103792264D01*
X157388604Y-103532003D01*
X157193560Y-103372290D01*
X158833121Y-103372290D01*
X158933121Y-103472290D01*
X159033121Y-103372290D01*
X158933121Y-103272290D01*
X158833121Y-103372290D01*
X157193560Y-103372290D01*
X157110361Y-103304162D01*
X156962123Y-103235199D01*
X156868962Y-103261163D01*
X156559568Y-103157664D01*
X156190980Y-102949988D01*
X155923621Y-102718023D01*
X155914026Y-102706260D01*
X159148097Y-102706260D01*
X159235842Y-102973971D01*
X159299345Y-103029463D01*
X159323473Y-103287899D01*
X159294113Y-103348441D01*
X159292957Y-103732024D01*
X159474159Y-104104806D01*
X159752875Y-104272290D01*
X159901046Y-104306352D01*
X160160795Y-104572290D01*
X160235881Y-104713127D01*
X160454518Y-104872290D01*
X160592920Y-104760561D01*
X160626940Y-104409364D01*
X160529747Y-103960292D01*
X160316793Y-103560515D01*
X160202287Y-103423630D01*
X160068877Y-103314051D01*
X160108059Y-103515884D01*
X160135859Y-103714499D01*
X160024386Y-103977688D01*
X159896155Y-103928381D01*
X159833121Y-103600760D01*
X159884678Y-103264544D01*
X160050874Y-103033038D01*
X160102946Y-102849401D01*
X159878254Y-102478361D01*
X159487879Y-101996269D01*
X159259959Y-102422141D01*
X159148097Y-102706260D01*
X155914026Y-102706260D01*
X155899429Y-102688364D01*
X155567398Y-102532431D01*
X154973621Y-102577887D01*
X154955141Y-102581369D01*
X154475819Y-102710127D01*
X154274245Y-102931259D01*
X154233121Y-103370284D01*
X143890254Y-103370284D01*
X143896157Y-103340028D01*
X143982202Y-102615972D01*
X143990953Y-102008536D01*
X143963796Y-101890966D01*
X153960898Y-101890966D01*
X153985151Y-102144262D01*
X154204174Y-102206128D01*
X154718236Y-102141734D01*
X154878978Y-102114314D01*
X155434382Y-101975216D01*
X155567398Y-101916203D01*
X155783121Y-101820497D01*
X155941756Y-101731510D01*
X156033121Y-101872290D01*
X156078835Y-102013857D01*
X156299922Y-101899842D01*
X156406082Y-101772290D01*
X161433121Y-101772290D01*
X161533121Y-101872290D01*
X161633121Y-101772290D01*
X161533121Y-101672290D01*
X161433121Y-101772290D01*
X156406082Y-101772290D01*
X156426351Y-101747937D01*
X156527271Y-101283475D01*
X157091883Y-101283475D01*
X157106695Y-101569289D01*
X157397094Y-101620013D01*
X157630230Y-101547902D01*
X157768089Y-101280900D01*
X157744148Y-101078566D01*
X158633121Y-101078566D01*
X158666917Y-101167623D01*
X158933121Y-101272290D01*
X159069804Y-101263602D01*
X159233121Y-101193687D01*
X159196274Y-101141921D01*
X158933121Y-100999964D01*
X158779722Y-100968523D01*
X158633121Y-101078566D01*
X157744148Y-101078566D01*
X157686972Y-100595340D01*
X157642621Y-100331730D01*
X160140270Y-100331730D01*
X160343306Y-100340706D01*
X160421642Y-100309199D01*
X160620356Y-100158478D01*
X160454077Y-99985242D01*
X160352775Y-99968138D01*
X160164263Y-100163253D01*
X160140270Y-100331730D01*
X157642621Y-100331730D01*
X157610184Y-100138931D01*
X157527902Y-99925271D01*
X157419836Y-99872290D01*
X157302924Y-99970915D01*
X157230390Y-100322290D01*
X157210503Y-100631935D01*
X157109910Y-101211402D01*
X157091883Y-101283475D01*
X156527271Y-101283475D01*
X156532197Y-101260806D01*
X156372406Y-100735855D01*
X156329022Y-100632985D01*
X156405044Y-100439372D01*
X156480116Y-100317093D01*
X156431316Y-99972290D01*
X156366916Y-99705887D01*
X156378779Y-99572290D01*
X157233121Y-99572290D01*
X157333121Y-99672290D01*
X157433121Y-99572290D01*
X157633121Y-99572290D01*
X157733121Y-99672290D01*
X157833121Y-99572290D01*
X157733121Y-99472290D01*
X157633121Y-99572290D01*
X157433121Y-99572290D01*
X157333121Y-99472290D01*
X157233121Y-99572290D01*
X156378779Y-99572290D01*
X156396539Y-99372290D01*
X156404256Y-99300485D01*
X156213271Y-99412121D01*
X156175326Y-99441736D01*
X155914005Y-99522869D01*
X155673185Y-99262121D01*
X155457708Y-98976596D01*
X155446802Y-98972290D01*
X157033121Y-98972290D01*
X157133121Y-99072290D01*
X157233121Y-98972290D01*
X157133121Y-98872290D01*
X157033121Y-98972290D01*
X155446802Y-98972290D01*
X155236152Y-98889117D01*
X155132084Y-99160570D01*
X155164131Y-99772290D01*
X155188781Y-99974262D01*
X155194167Y-100500582D01*
X155060305Y-100672290D01*
X154903533Y-100521368D01*
X154830058Y-100122290D01*
X154825615Y-99947278D01*
X154771738Y-99737000D01*
X154633121Y-99872290D01*
X154523142Y-100120722D01*
X154436183Y-100622290D01*
X154395439Y-100902545D01*
X154255820Y-101072290D01*
X154254325Y-101072310D01*
X154104139Y-101249244D01*
X153990936Y-101669038D01*
X153960898Y-101890966D01*
X143963796Y-101890966D01*
X143902250Y-101624513D01*
X143895350Y-101615717D01*
X143666611Y-101625644D01*
X143272691Y-101821060D01*
X143017754Y-101977442D01*
X142868977Y-102028408D01*
X142978215Y-101854255D01*
X143076518Y-101712233D01*
X143040475Y-101581941D01*
X142671880Y-101568918D01*
X142249747Y-101623941D01*
X141868025Y-101750717D01*
X141804217Y-101782358D01*
X141459569Y-101750781D01*
X141200965Y-101482544D01*
X141169617Y-101107667D01*
X141178153Y-101080936D01*
X141156045Y-100986943D01*
X140948326Y-101219523D01*
X140741963Y-101599372D01*
X140673718Y-101996804D01*
X140654058Y-102184300D01*
X140382168Y-102382014D01*
X140203630Y-102379363D01*
X140148926Y-102246716D01*
X140079194Y-102145231D01*
X139699878Y-102190095D01*
X139307626Y-102308323D01*
X138995994Y-102461306D01*
X138925067Y-102576888D01*
X139161787Y-102603623D01*
X139370826Y-102635477D01*
X139533121Y-102872290D01*
X139465510Y-103043933D01*
X139133121Y-103137074D01*
X138965286Y-103124928D01*
X138850830Y-103165582D01*
X139083121Y-103359123D01*
X139374243Y-103678422D01*
X139397375Y-103955542D01*
X139133121Y-104072290D01*
X138994924Y-104048324D01*
X138833120Y-103860486D01*
X138823651Y-103796263D01*
X138665772Y-103752110D01*
X138659895Y-103755390D01*
X138556398Y-103645606D01*
X138533619Y-103263913D01*
X138533801Y-103260816D01*
X138505454Y-102845059D01*
X138389164Y-102672290D01*
X138336043Y-102661937D01*
X138322270Y-102489846D01*
X138323489Y-102397877D01*
X138084073Y-102374544D01*
X137893263Y-102408646D01*
X137533121Y-102460050D01*
X137473014Y-102505696D01*
X137633121Y-102672290D01*
X137773791Y-102791146D01*
X137694924Y-102869227D01*
X137624207Y-102863014D01*
X137346778Y-102694387D01*
X137229621Y-102606520D01*
X136856228Y-102490862D01*
X136393424Y-102423939D01*
X135999594Y-102424789D01*
X135833121Y-102512450D01*
X135819939Y-102576904D01*
X135619594Y-102674343D01*
X135321056Y-102599411D01*
X135110292Y-102384918D01*
X135020533Y-102259990D01*
X134709392Y-102209070D01*
X134585487Y-102270344D01*
X134535061Y-102442325D01*
X134730554Y-102796441D01*
X134915036Y-103130561D01*
X134923445Y-103272290D01*
X134908891Y-103271378D01*
X134641184Y-103106130D01*
X134362067Y-102783226D01*
X134233120Y-102486575D01*
X134134871Y-102346490D01*
X133783121Y-102241045D01*
X133361766Y-102213529D01*
X132710175Y-102185873D01*
X132367000Y-102202823D01*
X132271162Y-102265361D01*
X132281342Y-102514723D01*
X132203165Y-102797759D01*
X131993120Y-102712289D01*
X131856046Y-102600207D01*
X131543120Y-102475352D01*
X131476265Y-102510129D01*
X131627328Y-102664477D01*
X131762313Y-102787952D01*
X131773995Y-102998082D01*
X131665518Y-103040011D01*
X131389787Y-102908956D01*
X131257743Y-102799132D01*
X130959787Y-102672290D01*
X130908839Y-102677685D01*
X130890263Y-102796099D01*
X130911162Y-102838547D01*
X130821053Y-103081742D01*
X130580572Y-103347431D01*
X130326008Y-103472290D01*
X130273064Y-103427091D01*
X130309432Y-103161902D01*
X130344481Y-103005897D01*
X130230830Y-102973705D01*
X130157326Y-103006271D01*
X130033121Y-102917426D01*
X130025263Y-102873357D01*
X129812378Y-102748551D01*
X129439493Y-102765855D01*
X129083121Y-102924040D01*
X128898465Y-102995961D01*
X128830172Y-102746778D01*
X128822839Y-102609953D01*
X128752877Y-102566134D01*
X128574348Y-102872290D01*
X128435748Y-103068715D01*
X128041699Y-103337925D01*
X127616884Y-103411846D01*
X127316056Y-103244678D01*
X127140311Y-103186300D01*
X126770983Y-103296230D01*
X126667413Y-103348323D01*
X126463734Y-103421294D01*
X126556981Y-103282911D01*
X126717412Y-103155597D01*
X127156981Y-102973731D01*
X127374727Y-102932798D01*
X127633121Y-102884529D01*
X127645732Y-102850737D01*
X127460981Y-102693741D01*
X127040816Y-102584018D01*
X126586806Y-102759173D01*
X126310925Y-103189519D01*
X126203640Y-103484972D01*
X126063113Y-103624500D01*
X126036787Y-103623217D01*
X125740086Y-103718371D01*
X125280889Y-103937459D01*
X124982340Y-104114800D01*
X124736493Y-104393438D01*
X124745767Y-104751473D01*
X124770866Y-104919707D01*
X124650163Y-105271607D01*
X124331618Y-105365612D01*
X123933769Y-105144366D01*
X123691177Y-104982009D01*
X123591524Y-104972290D01*
X124233121Y-104972290D01*
X124333121Y-105072290D01*
X124433121Y-104972290D01*
X124333121Y-104872290D01*
X124233121Y-104972290D01*
X123591524Y-104972290D01*
X123327981Y-104946587D01*
X123176668Y-104969308D01*
X123033121Y-104808870D01*
X123032695Y-104786241D01*
X122988909Y-104650730D01*
X122823946Y-104557081D01*
X122468154Y-104491589D01*
X121851878Y-104440549D01*
X120905466Y-104390259D01*
X120447513Y-104368270D01*
X124275851Y-104368270D01*
X124299787Y-104605623D01*
X124333121Y-104622961D01*
X124359944Y-104636912D01*
X124433121Y-104472290D01*
X124418687Y-104366410D01*
X124299787Y-104338956D01*
X124275851Y-104368270D01*
X120447513Y-104368270D01*
X119477812Y-104321709D01*
X119580618Y-105146999D01*
X119607208Y-105340076D01*
X119745419Y-106130426D01*
X119915253Y-106910422D01*
X120147081Y-107848554D01*
X121380226Y-106660422D01*
X121606495Y-106444241D01*
X122143297Y-105947276D01*
X122541193Y-105601788D01*
X122727056Y-105472290D01*
X122773121Y-105579441D01*
X122726108Y-105929025D01*
X122711316Y-106243643D01*
X122915102Y-106483171D01*
X123419781Y-106742384D01*
X123642188Y-106832793D01*
X124137970Y-106976002D01*
X124429426Y-106974573D01*
X124524912Y-106963297D01*
X124888676Y-107101757D01*
X125365499Y-107410546D01*
X125632525Y-107603416D01*
X126016969Y-107797766D01*
X126186126Y-107713274D01*
X126312140Y-107556994D01*
X126571925Y-107704494D01*
X126848794Y-107840736D01*
X127055646Y-107624936D01*
X127116999Y-107537082D01*
X127482735Y-107372651D01*
X127956725Y-107504988D01*
X128436706Y-107912778D01*
X128533121Y-108041962D01*
X128705735Y-108273242D01*
X128826467Y-108512889D01*
X128790708Y-108562869D01*
X128494849Y-108713142D01*
X128019322Y-108879507D01*
X127509568Y-109014629D01*
X127111030Y-109071174D01*
X127030523Y-109087754D01*
X126655389Y-109262551D01*
X126161030Y-109566262D01*
X125947936Y-109706553D01*
X125579065Y-109921810D01*
X125433121Y-109962049D01*
X125415990Y-109957985D01*
X125173227Y-110079222D01*
X124703270Y-110366121D01*
X124083121Y-110772459D01*
X124081695Y-110773418D01*
X123148921Y-111321654D01*
X122076111Y-111826774D01*
X120959553Y-112255712D01*
X119895533Y-112575407D01*
X118980340Y-112752792D01*
X118310260Y-112754805D01*
X118004829Y-112678690D01*
X117477209Y-112389555D01*
X117111071Y-111882841D01*
X116872610Y-111099253D01*
X116728019Y-109979495D01*
X116681906Y-109057734D01*
X116701631Y-108168466D01*
X116790769Y-107534133D01*
X116894911Y-107165898D01*
X116944797Y-107086580D01*
X116942499Y-107345360D01*
X116895178Y-107972290D01*
X116886071Y-108144521D01*
X116902552Y-108828187D01*
X116974607Y-109653957D01*
X117086625Y-110513536D01*
X117222995Y-111298630D01*
X117368107Y-111900945D01*
X117506351Y-112212186D01*
X117553958Y-112235325D01*
X117897327Y-112307147D01*
X118438365Y-112372770D01*
X119092716Y-112354930D01*
X120094200Y-112167908D01*
X121195363Y-111840127D01*
X122271687Y-111415731D01*
X123198653Y-110938863D01*
X123851743Y-110453667D01*
X124210735Y-110162634D01*
X124741107Y-109869253D01*
X124860849Y-109817110D01*
X125165820Y-109584446D01*
X125220386Y-109367582D01*
X124983121Y-109269227D01*
X124837480Y-109247547D01*
X124441073Y-109081437D01*
X124328382Y-108998129D01*
X124280757Y-108806621D01*
X124517803Y-108489216D01*
X124663691Y-108372290D01*
X128433121Y-108372290D01*
X128533121Y-108472290D01*
X128633121Y-108372290D01*
X128533121Y-108272290D01*
X128433121Y-108372290D01*
X124663691Y-108372290D01*
X124822785Y-108244780D01*
X125085796Y-108204845D01*
X125171251Y-108231279D01*
X125197163Y-108064417D01*
X125133878Y-107941943D01*
X124821217Y-107667663D01*
X124553175Y-107538693D01*
X124085834Y-107303375D01*
X123735706Y-107163776D01*
X123247638Y-107072290D01*
X123015026Y-107039907D01*
X122733120Y-106872289D01*
X122556676Y-106695196D01*
X122172458Y-106683626D01*
X121717414Y-107001151D01*
X121242197Y-107622290D01*
X120813040Y-108306906D01*
X120203941Y-109225962D01*
X119647930Y-110008445D01*
X119169912Y-110626857D01*
X118794790Y-111053698D01*
X118547467Y-111261472D01*
X118452847Y-111222677D01*
X118535835Y-110909817D01*
X118821334Y-110295393D01*
X118920881Y-110097533D01*
X119088293Y-109688979D01*
X119069571Y-109432168D01*
X118871334Y-109179381D01*
X118691537Y-108924804D01*
X118747307Y-108743581D01*
X118814876Y-108668013D01*
X118897531Y-108270546D01*
X118898403Y-107628687D01*
X118887806Y-107240517D01*
X118923959Y-106730085D01*
X119014226Y-106483416D01*
X119164111Y-106302640D01*
X119253076Y-105870341D01*
X119256817Y-105125928D01*
X119079685Y-104477635D01*
X118698077Y-103972290D01*
X121033121Y-103972290D01*
X121133121Y-104072290D01*
X121233121Y-103972290D01*
X121133121Y-103872290D01*
X121033121Y-103972290D01*
X118698077Y-103972290D01*
X118549795Y-103775928D01*
X118311848Y-103538450D01*
X117941953Y-103203717D01*
X117894198Y-103172290D01*
X125833121Y-103172290D01*
X125933121Y-103272290D01*
X126033121Y-103172290D01*
X125933121Y-103072290D01*
X125833121Y-103172290D01*
X117894198Y-103172290D01*
X117742243Y-103072290D01*
X117716529Y-103093140D01*
X117681402Y-103370558D01*
X117713892Y-103867703D01*
X117729691Y-104035428D01*
X117718809Y-104525360D01*
X117621444Y-104779506D01*
X117495441Y-104993970D01*
X117430058Y-105434093D01*
X117378729Y-105847636D01*
X117214400Y-106272290D01*
X117138142Y-106368364D01*
X117067112Y-106344940D01*
X117118259Y-105972290D01*
X117190989Y-105499521D01*
X117279405Y-104766811D01*
X117360128Y-103957411D01*
X117485543Y-102542532D01*
X116842298Y-102276091D01*
X116822698Y-102267897D01*
X116295639Y-101999295D01*
X115916086Y-101726684D01*
X115863289Y-101638207D01*
X117637395Y-101638207D01*
X117740939Y-102150700D01*
X118040912Y-102634577D01*
X118107748Y-102705907D01*
X118432757Y-103003421D01*
X118663570Y-103023768D01*
X118725395Y-102972290D01*
X120233121Y-102972290D01*
X120333121Y-103072290D01*
X120433121Y-102972290D01*
X120333121Y-102872290D01*
X120233121Y-102972290D01*
X118725395Y-102972290D01*
X118942266Y-102791715D01*
X118986283Y-102746894D01*
X119119108Y-102530200D01*
X118959665Y-102419909D01*
X126314073Y-102419909D01*
X126452489Y-102436408D01*
X126551485Y-102372290D01*
X129033121Y-102372290D01*
X129133121Y-102472290D01*
X129233121Y-102372290D01*
X129229101Y-102368270D01*
X130275851Y-102368270D01*
X130299787Y-102605623D01*
X130359944Y-102636912D01*
X130433121Y-102472290D01*
X130418687Y-102366410D01*
X130299787Y-102338956D01*
X130275851Y-102368270D01*
X129229101Y-102368270D01*
X129133121Y-102272290D01*
X129033121Y-102372290D01*
X126551485Y-102372290D01*
X126742644Y-102248480D01*
X126799590Y-102172290D01*
X127433121Y-102172290D01*
X127533121Y-102272290D01*
X127633121Y-102172290D01*
X129433121Y-102172290D01*
X129533121Y-102272290D01*
X129633121Y-102172290D01*
X131033121Y-102172290D01*
X131133121Y-102272290D01*
X131233121Y-102172290D01*
X131229101Y-102168270D01*
X135275851Y-102168270D01*
X135299787Y-102405623D01*
X135359944Y-102436912D01*
X135433121Y-102272290D01*
X135418687Y-102166410D01*
X135299787Y-102138956D01*
X135275851Y-102168270D01*
X131229101Y-102168270D01*
X131133121Y-102072290D01*
X131033121Y-102172290D01*
X129633121Y-102172290D01*
X129533121Y-102072290D01*
X129433121Y-102172290D01*
X127633121Y-102172290D01*
X127533121Y-102072290D01*
X127433121Y-102172290D01*
X126799590Y-102172290D01*
X126897255Y-102041619D01*
X126902514Y-101972290D01*
X128433121Y-101972290D01*
X128533121Y-102072290D01*
X128633121Y-101972290D01*
X128533121Y-101872290D01*
X128433121Y-101972290D01*
X126902514Y-101972290D01*
X126914073Y-101819909D01*
X126775656Y-101803409D01*
X126485501Y-101991337D01*
X126330891Y-102198198D01*
X126314073Y-102419909D01*
X118959665Y-102419909D01*
X118927981Y-102397992D01*
X118849540Y-102356605D01*
X118657505Y-102026549D01*
X118689900Y-101565068D01*
X118944623Y-101132216D01*
X119108390Y-100890631D01*
X119128469Y-100705853D01*
X120256446Y-100705853D01*
X120333121Y-100864883D01*
X120433121Y-101072290D01*
X120459429Y-101112536D01*
X120597692Y-101257918D01*
X120630058Y-101034093D01*
X120607141Y-100857711D01*
X120433121Y-100572290D01*
X120285810Y-100530955D01*
X120256446Y-100705853D01*
X119128469Y-100705853D01*
X119146913Y-100536114D01*
X119116080Y-100405055D01*
X119188836Y-100372290D01*
X119633121Y-100372290D01*
X119733121Y-100472290D01*
X119833121Y-100372290D01*
X119733121Y-100272290D01*
X119633121Y-100372290D01*
X119188836Y-100372290D01*
X119214454Y-100360753D01*
X119327368Y-100369372D01*
X119514424Y-100148892D01*
X119551777Y-100022449D01*
X119514656Y-99972290D01*
X120033121Y-99972290D01*
X120133121Y-100072290D01*
X120233121Y-99972290D01*
X120133121Y-99872290D01*
X120033121Y-99972290D01*
X119514656Y-99972290D01*
X119464930Y-99905100D01*
X119085381Y-99965623D01*
X118781513Y-100067652D01*
X118305275Y-100332619D01*
X117989189Y-100634024D01*
X117941099Y-100885199D01*
X117962497Y-100947449D01*
X117836383Y-101170273D01*
X117751065Y-101245914D01*
X117637395Y-101638207D01*
X115863289Y-101638207D01*
X115738459Y-101429019D01*
X115642880Y-100939802D01*
X115689854Y-100478838D01*
X115883120Y-100217399D01*
X116076655Y-100024457D01*
X116252551Y-99760069D01*
X120670965Y-99760069D01*
X120736224Y-100122290D01*
X120829942Y-100522750D01*
X120888254Y-101122290D01*
X120934807Y-101499509D01*
X121054788Y-101672290D01*
X121133121Y-101654355D01*
X121191671Y-101640950D01*
X121399164Y-101357486D01*
X121427187Y-100878634D01*
X121257309Y-100326831D01*
X121003837Y-99909250D01*
X120780498Y-99697035D01*
X120670965Y-99760069D01*
X116252551Y-99760069D01*
X116382888Y-99564160D01*
X116707372Y-98972290D01*
X120433121Y-98972290D01*
X120533121Y-99072290D01*
X120633121Y-98972290D01*
X120533121Y-98872290D01*
X120433121Y-98972290D01*
X116707372Y-98972290D01*
X116721784Y-98946002D01*
X117037799Y-98350445D01*
X120864544Y-98350445D01*
X120912287Y-98618123D01*
X120980560Y-98615026D01*
X121017331Y-98355623D01*
X120987464Y-98172290D01*
X125033121Y-98172290D01*
X125133121Y-98272290D01*
X125233121Y-98172290D01*
X125133121Y-98072290D01*
X125033121Y-98172290D01*
X120987464Y-98172290D01*
X120985304Y-98159033D01*
X120896498Y-98234790D01*
X120864544Y-98350445D01*
X117037799Y-98350445D01*
X117153821Y-98131793D01*
X117499426Y-97613628D01*
X117800621Y-97347459D01*
X118107922Y-97272290D01*
X118396280Y-97114326D01*
X118673730Y-96724735D01*
X118963735Y-96325967D01*
X119328277Y-96101667D01*
X119451606Y-96080354D01*
X119608776Y-96112964D01*
X119448254Y-96354055D01*
X119307805Y-96574136D01*
X119290299Y-96796135D01*
X119464930Y-96759638D01*
X119467945Y-96759008D01*
X119733121Y-96518613D01*
X119763247Y-96491302D01*
X119869500Y-96372247D01*
X120133121Y-96158564D01*
X120199398Y-96104842D01*
X120351550Y-96182701D01*
X120307762Y-96602120D01*
X120260314Y-96958603D01*
X120285810Y-96967062D01*
X120387169Y-97000689D01*
X120533121Y-96981164D01*
X120663388Y-96963737D01*
X120780498Y-96990183D01*
X120985304Y-97036432D01*
X121117069Y-97066187D01*
X121634584Y-97262946D01*
X121352838Y-96588632D01*
X121314555Y-96491247D01*
X121198070Y-96022759D01*
X121214077Y-95910222D01*
X121668023Y-95910222D01*
X121698806Y-96286079D01*
X121983121Y-96829063D01*
X122018961Y-96885671D01*
X122361399Y-97251576D01*
X122733121Y-97283897D01*
X122927102Y-97178378D01*
X123161659Y-96810700D01*
X123199047Y-96372685D01*
X123142865Y-96279955D01*
X123731084Y-96279955D01*
X123824437Y-96789426D01*
X123839591Y-96838948D01*
X123958015Y-97136745D01*
X124015930Y-97122290D01*
X124108268Y-96918040D01*
X124316927Y-96903734D01*
X124433121Y-97147801D01*
X124478969Y-97331783D01*
X124733121Y-97672290D01*
X124908598Y-97786031D01*
X125016877Y-97746778D01*
X124984347Y-97600664D01*
X124849139Y-97242661D01*
X124669509Y-96865106D01*
X124509975Y-96598236D01*
X124435054Y-96572290D01*
X124347246Y-96574632D01*
X124154536Y-96295270D01*
X123965454Y-96036808D01*
X123790748Y-96010133D01*
X123731084Y-96279955D01*
X123142865Y-96279955D01*
X123000358Y-96044746D01*
X122861794Y-95915653D01*
X122952127Y-95722290D01*
X122982677Y-95694400D01*
X123125024Y-95356384D01*
X123187904Y-94889032D01*
X123687666Y-94889032D01*
X123690962Y-95053163D01*
X123742242Y-95494987D01*
X123790748Y-95586809D01*
X123835904Y-95672290D01*
X123989051Y-95630669D01*
X124206076Y-95339118D01*
X124279719Y-94900132D01*
X124197940Y-94470233D01*
X123948699Y-94205942D01*
X123868072Y-94192128D01*
X123729793Y-94367798D01*
X123687666Y-94889032D01*
X123187904Y-94889032D01*
X123195708Y-94831030D01*
X123195651Y-94508355D01*
X123121526Y-94215850D01*
X122926702Y-94202427D01*
X122792210Y-94274952D01*
X122633121Y-94502129D01*
X122570678Y-94707314D01*
X122339867Y-95035790D01*
X121883121Y-95564945D01*
X121880226Y-95568178D01*
X121668023Y-95910222D01*
X121214077Y-95910222D01*
X121237820Y-95743304D01*
X121304492Y-95658589D01*
X121468835Y-95280106D01*
X121518184Y-95115800D01*
X121758148Y-94695871D01*
X122233121Y-94129634D01*
X122405936Y-93905571D01*
X122485512Y-93686575D01*
X122470752Y-93630753D01*
X122512340Y-93326476D01*
X122588646Y-93172290D01*
X123633121Y-93172290D01*
X123733121Y-93272290D01*
X123833121Y-93172290D01*
X123733121Y-93072290D01*
X123633121Y-93172290D01*
X122588646Y-93172290D01*
X122654180Y-93039871D01*
X122811844Y-92959140D01*
X122841562Y-92966469D01*
X122926702Y-92922432D01*
X123071485Y-92847546D01*
X123366986Y-92578632D01*
X123599950Y-92290268D01*
X123642262Y-92112996D01*
X123636694Y-92081350D01*
X123685283Y-91797231D01*
X124271629Y-91797231D01*
X124295648Y-92387408D01*
X124345919Y-93066396D01*
X124416234Y-93729566D01*
X124500381Y-94272290D01*
X124562658Y-94654681D01*
X124625232Y-95272290D01*
X124627764Y-95317372D01*
X124667068Y-95534590D01*
X124760264Y-95429617D01*
X124938888Y-94972290D01*
X125009765Y-94770706D01*
X125157793Y-94305440D01*
X125207439Y-94072290D01*
X125151823Y-93835059D01*
X124998778Y-93286857D01*
X124800787Y-92637643D01*
X124596520Y-92008833D01*
X124424650Y-91521844D01*
X124323848Y-91298091D01*
X124280073Y-91400494D01*
X124271629Y-91797231D01*
X123685283Y-91797231D01*
X123690435Y-91767106D01*
X123733121Y-91593810D01*
X123831297Y-91195237D01*
X123868072Y-91063625D01*
X124037053Y-90458868D01*
X124147240Y-90097012D01*
X124323848Y-89617255D01*
X124394964Y-89424068D01*
X124585617Y-89146132D01*
X124720690Y-89263634D01*
X124801674Y-89777001D01*
X124830058Y-90686662D01*
X124833622Y-90880590D01*
X124905502Y-91702117D01*
X125050559Y-92507857D01*
X125243481Y-93202004D01*
X125458957Y-93688750D01*
X125671676Y-93872290D01*
X125709640Y-93897270D01*
X125667251Y-94148885D01*
X125452876Y-94583722D01*
X125430468Y-94622299D01*
X125077502Y-95606880D01*
X125112276Y-96604473D01*
X125133121Y-96651468D01*
X125533120Y-97553262D01*
X125642781Y-97720727D01*
G37*
G36*
X137633121Y-103172290D02*
G01*
X137533121Y-103272290D01*
X137433121Y-103172290D01*
X137533121Y-103072290D01*
X137633121Y-103172290D01*
G37*
G36*
X137833121Y-104172290D02*
G01*
X137733121Y-104272290D01*
X137633121Y-104172290D01*
X137733121Y-104072290D01*
X137833121Y-104172290D01*
G37*
G36*
X127233121Y-99772290D02*
G01*
X127133121Y-99872290D01*
X127033121Y-99772290D01*
X127133121Y-99672290D01*
X127233121Y-99772290D01*
G37*
G36*
X126633121Y-107072290D02*
G01*
X126618687Y-107178169D01*
X126499787Y-107205623D01*
X126475851Y-107176309D01*
X126499787Y-106938956D01*
X126559944Y-106907667D01*
X126633121Y-107072290D01*
G37*
G36*
X132153452Y-97191427D02*
G01*
X132098811Y-97353199D01*
X132033121Y-97681610D01*
X131933877Y-97847221D01*
X131602794Y-98088520D01*
X131491721Y-98146026D01*
X131260993Y-98214954D01*
X131268387Y-98045556D01*
X131243391Y-97785981D01*
X131234180Y-97772290D01*
X131633121Y-97772290D01*
X131733121Y-97872290D01*
X131833121Y-97772290D01*
X131733121Y-97672290D01*
X131633121Y-97772290D01*
X131234180Y-97772290D01*
X130998713Y-97422290D01*
X130794627Y-97235911D01*
X130656798Y-97203550D01*
X130633121Y-97484093D01*
X130590130Y-97711301D01*
X130429858Y-97770273D01*
X130366742Y-97715336D01*
X130341662Y-97458470D01*
X130318697Y-97341892D01*
X130028257Y-97272290D01*
X129775888Y-97223351D01*
X129682838Y-97023138D01*
X129740154Y-96922725D01*
X130049504Y-96769042D01*
X130286994Y-96739154D01*
X130756704Y-96613100D01*
X131177162Y-96565623D01*
X131727035Y-96669976D01*
X131733121Y-96673574D01*
X132103842Y-96892733D01*
X132153452Y-97191427D01*
G37*
G36*
X161033121Y-95972290D02*
G01*
X160933121Y-96072290D01*
X160833121Y-95972290D01*
X160933121Y-95872290D01*
X161033121Y-95972290D01*
G37*
G36*
X160370914Y-112424722D02*
G01*
X160433121Y-112772290D01*
X160380565Y-113100556D01*
X160233121Y-113172290D01*
X160159918Y-113107766D01*
X160033121Y-112772290D01*
X160047073Y-112662503D01*
X160233121Y-112372290D01*
X160370914Y-112424722D01*
G37*
G36*
X141092973Y-104213339D02*
G01*
X141233121Y-104384093D01*
X141227921Y-104404053D01*
X141033121Y-104472290D01*
X140978303Y-104464150D01*
X140833121Y-104260486D01*
X140848824Y-104188147D01*
X141033121Y-104172290D01*
X141092973Y-104213339D01*
G37*
G36*
X155739000Y-107886723D02*
G01*
X155766454Y-108005623D01*
X155737140Y-108029559D01*
X155499787Y-108005623D01*
X155468498Y-107945466D01*
X155633121Y-107872290D01*
X155739000Y-107886723D01*
G37*
G36*
X142679370Y-103479975D02*
G01*
X142833121Y-103672290D01*
X142830827Y-103717551D01*
X142744924Y-103872290D01*
X142712842Y-103863086D01*
X142533121Y-103672290D01*
X142501870Y-103594817D01*
X142621317Y-103472290D01*
X142679370Y-103479975D01*
G37*
G36*
X140511303Y-102988086D02*
G01*
X140399587Y-103366018D01*
X140386096Y-103395037D01*
X140148993Y-103729452D01*
X139972335Y-103706316D01*
X139925129Y-103330758D01*
X139926606Y-103312026D01*
X140053190Y-102963437D01*
X140428833Y-102872290D01*
X140511303Y-102988086D01*
G37*
G36*
X132633121Y-104172290D02*
G01*
X132533121Y-104272290D01*
X132433121Y-104172290D01*
X132533121Y-104072290D01*
X132633121Y-104172290D01*
G37*
%LPC*%
D11*
X113538000Y-107696000D03*
X113538000Y-87376000D03*
D12*
X166878000Y-74676000D03*
D13*
X164338000Y-74676000D03*
D12*
X157170234Y-124460000D03*
D13*
X154630234Y-124460000D03*
D12*
X156464000Y-74676000D03*
D13*
X153924000Y-74676000D03*
D12*
X154432000Y-128778000D03*
D13*
X151892000Y-128778000D03*
D14*
X134132000Y-77256000D03*
D15*
X139212000Y-81056000D03*
X139212000Y-70896000D03*
X129052000Y-81056000D03*
X129052000Y-70896000D03*
D14*
X120650000Y-77256000D03*
D15*
X125730000Y-70896000D03*
X125730000Y-81056000D03*
X115570000Y-81056000D03*
X115570000Y-70896000D03*
D14*
X134132000Y-128808000D03*
D15*
X139212000Y-125008000D03*
X129052000Y-125008000D03*
X129052000Y-135168000D03*
X139212000Y-135168000D03*
D14*
X120670000Y-128808000D03*
D15*
X115590000Y-135168000D03*
X125750000Y-135168000D03*
X115590000Y-125008000D03*
X125750000Y-125008000D03*
D16*
X100330000Y-138684000D03*
D17*
X104030000Y-141224000D03*
X104030000Y-136144000D03*
X96630000Y-136144000D03*
X96630000Y-141224000D03*
D18*
X124953000Y-85384000D03*
D19*
X122413000Y-85384000D03*
X119873000Y-85384000D03*
D18*
X122936000Y-120650000D03*
D19*
X120396000Y-120650000D03*
X117856000Y-120650000D03*
D20*
X155629500Y-65604500D03*
D21*
X150549500Y-65604500D03*
X148009500Y-65604500D03*
X145469500Y-65604500D03*
X145469500Y-70684500D03*
X148009500Y-70684500D03*
X150549500Y-70684500D03*
X155629500Y-70684500D03*
D22*
X147755500Y-130810000D03*
D21*
X147755500Y-125730000D03*
X147755500Y-123190000D03*
X147755500Y-120650000D03*
X142675500Y-120650000D03*
X142675500Y-123190000D03*
X142675500Y-125730000D03*
X142675500Y-130810000D03*
D23*
X154940000Y-80264000D03*
D24*
X156210000Y-80264000D03*
X157480000Y-80264000D03*
D23*
X154178000Y-120502000D03*
D24*
X155448000Y-120502000D03*
X156718000Y-120502000D03*
D18*
X110744000Y-138938000D03*
D19*
X110744000Y-136398000D03*
X110744000Y-133858000D03*
D18*
X165257500Y-85374000D03*
D19*
X167797500Y-85374000D03*
X165257500Y-87914000D03*
X167797500Y-87914000D03*
X165257500Y-90454000D03*
X167797500Y-90454000D03*
X165257500Y-92994000D03*
X167797500Y-92994000D03*
X165257500Y-95534000D03*
X167797500Y-95534000D03*
X165257500Y-98074000D03*
X167797500Y-98074000D03*
X165257500Y-100614000D03*
X167797500Y-100614000D03*
X165257500Y-103154000D03*
X167797500Y-103154000D03*
X165257500Y-105694000D03*
X167797500Y-105694000D03*
X165257500Y-108234000D03*
X167797500Y-108234000D03*
X165257500Y-110774000D03*
X167797500Y-110774000D03*
X165257500Y-113314000D03*
X167797500Y-113314000D03*
X165257500Y-115854000D03*
X167797500Y-115854000D03*
X165257500Y-118394000D03*
X167797500Y-118394000D03*
X165257500Y-120934000D03*
X167797500Y-120934000D03*
D16*
X154432500Y-138684000D03*
D17*
X158132500Y-141224000D03*
X158132500Y-136144000D03*
X150732500Y-136144000D03*
X150732500Y-141224000D03*
M02*
